{
  "accessors": [
    {
      "bufferView": 2,
      "componentType": 5126,
      "count": 28002,
      "max": [
        5.508824348449707,
        3.0442955493927,
        1.8131895065307617
      ],
      "min": [
        -5.470839500427246,
        -3.559680938720703,
        -2.107362985610962
      ],
      "type": "VEC3"
    },
    {
      "bufferView": 2,
      "byteOffset": 336024,
      "componentType": 5126,
      "count": 28002,
      "max": [
        0.9999887347221375,
        0.9999991059303284,
        0.9999620914459229
      ],
      "min": [
        -0.9999918341636658,
        -0.9999386668205261,
        -0.9990854859352112
      ],
      "type": "VEC3"
    },
    {
      "bufferView": 1,
      "componentType": 5126,
      "count": 28002,
      "max": [
        0.9388782978057861,
        0.9998120665550232
      ],
      "min": [
        4.582107067108154e-05,
        0.00021988124353811145
      ],
      "type": "VEC2"
    },
    {
      "bufferView": 0,
      "componentType": 5125,
      "count": 163458,
      "type": "SCALAR"
    },
    {
      "bufferView": 2,
      "byteOffset": 672048,
      "componentType": 5126,
      "count": 18262,
      "max": [
        5.563162326812744,
        3.079838514328003,
        1.4306488037109375
      ],
      "min": [
        -5.397793292999268,
        -3.5799713134765625,
        -1.7781190872192383
      ],
      "type": "VEC3"
    },
    {
      "bufferView": 2,
      "byteOffset": 891192,
      "componentType": 5126,
      "count": 18262,
      "max": [
        0.9999925494194031,
        0.999991774559021,
        0.9998899698257446
      ],
      "min": [
        -0.9856876730918884,
        -0.9999840259552002,
        -0.9992250204086304
      ],
      "type": "VEC3"
    },
    {
      "bufferView": 1,
      "byteOffset": 224016,
      "componentType": 5126,
      "count": 18262,
      "max": [
        0.9998672008514404,
        0.9024592041969299
      ],
      "min": [
        7.851794362068176e-05,
        0.00021514268883038312
      ],
      "type": "VEC2"
    },
    {
      "bufferView": 0,
      "byteOffset": 653832,
      "componentType": 5125,
      "count": 106338,
      "type": "SCALAR"
    }
  ],
  "asset": {
    "extras": {
      "author": "matousekfoto (https://sketchfab.com/matousekfoto)",
      "license": "CC-BY-4.0 (http://creativecommons.org/licenses/by/4.0/)",
      "source": "https://sketchfab.com/3d-models/laptop-box-9635c1d10ce8470ebb663feaf6c71984",
      "title": "Laptop box"
    },
    "generator": "Sketchfab-12.67.0",
    "version": "2.0"
  },
  "bufferViews": [
    {
      "buffer": 0,
      "byteLength": 1079184,
      "name": "floatBufferViews",
      "target": 34963
    },
    {
      "buffer": 0,
      "byteLength": 370112,
      "byteOffset": 1079184,
      "byteStride": 8,
      "name": "floatBufferViews",
      "target": 34962
    },
    {
      "buffer": 0,
      "byteLength": 1110336,
      "byteOffset": 1449296,
      "byteStride": 12,
      "name": "floatBufferViews",
      "target": 34962
    }
  ],
  "buffers": [
    {
      "byteLength": 2559632,
      "uri": "scene.bin"
    }
  ],
  "extensionsUsed": [
    "KHR_materials_unlit"
  ],
  "images": [
    {
      "uri": "textures/material1_baseColor.png"
    },
    {
      "uri": "textures/material0_baseColor.png"
    }
  ],
  "materials": [
    {
      "doubleSided": true,
      "extensions": {
        "KHR_materials_unlit": {}
      },
      "name": "material1",
      "pbrMetallicRoughness": {
        "baseColorTexture": {
          "index": 0
        },
        "metallicFactor": 0.0
      }
    },
    {
      "doubleSided": true,
      "extensions": {
        "KHR_materials_unlit": {}
      },
      "name": "material0",
      "pbrMetallicRoughness": {
        "baseColorTexture": {
          "index": 1
        },
        "metallicFactor": 0.0
      }
    }
  ],
  "meshes": [
    {
      "name": "Model_material1_0",
      "primitives": [
        {
          "attributes": {
            "NORMAL": 1,
            "POSITION": 0,
            "TEXCOORD_0": 2
          },
          "indices": 3,
          "material": 0,
          "mode": 4
        }
      ]
    },
    {
      "name": "Model_material0_0",
      "primitives": [
        {
          "attributes": {
            "NORMAL": 5,
            "POSITION": 4,
            "TEXCOORD_0": 6
          },
          "indices": 7,
          "material": 1,
          "mode": 4
        }
      ]
    }
  ],
  "nodes": [
    {
      "children": [
        1
      ],
      "matrix": [
        0.04989589229070979,
        -0.00049966886452837,
        -0.0031859435615829157,
        0.0,
        -0.00029039942160843935,
        0.04849933458118638,
        -0.012154435547507326,
        0.0,
        0.0032117866458264976,
        0.0121476324222629,
        0.04839544964425935,
        0.0,
        0.008090222254395485,
        0.13168318569660178,
        0.33455231785774237,
        1.0
      ],
      "name": "Sketchfab_model"
    },
    {
      "children": [
        2
      ],
      "matrix": [
        0.009999999776482582,
        0.0,
        0.0,
        0.0,
        0.0,
        0.0,
        0.009999999776482582,
        0.0,
        0.0,
        -0.009999999776482582,
        0.0,
        0.0,
        0.0,
        0.0,
        0.0,
        1.0
      ],
      "name": "laptop-box.fbx"
    },
    {
      "children": [
        3
      ],
      "name": "RootNode"
    },
    {
      "children": [
        4,
        5
      ],
      "matrix": [
        100.0,
        0.0,
        0.0,
        0.0,
        0.0,
        -1.629206793918314e-05,
        -99.99999999999868,
        0.0,
        0.0,
        99.99999999999868,
        -1.629206793918314e-05,
        0.0,
        0.0,
        0.0,
        0.0,
        1.0
      ],
      "name": "Model"
    },
    {
      "mesh": 0,
      "name": "Model_material1_0"
    },
    {
      "mesh": 1,
      "name": "Model_material0_0"
    }
  ],
  "samplers": [
    {
      "magFilter": 9729,
      "minFilter": 9987,
      "wrapS": 10497,
      "wrapT": 10497
    }
  ],
  "scene": 0,
  "scenes": [
    {
      "name": "Sketchfab_Scene",
      "nodes": [
        0
      ]
    }
  ],
  "textures": [
    {
      "sampler": 0,
      "source": 0
    },
    {
      "sampler": 0,
      "source": 1
    }
  ]
}
