{
  "accessors": [
    {
      "bufferView": 2,
      "componentType": 5126,
      "count": 114,
      "max": [
        1.0,
        1.0,
        2.3340799808502197
      ],
      "min": [
        -1.0,
        -1.0,
        -1.0
      ],
      "type": "VEC3"
    },
    {
      "bufferView": 2,
      "byteOffset": 1368,
      "componentType": 5126,
      "count": 114,
      "max": [
        0.9998721480369568,
        0.9998721480369568,
        1.0
      ],
      "min": [
        -0.9998721480369568,
        -0.9998721480369568,
        -1.0
      ],
      "type": "VEC3"
    },
    {
      "bufferView": 0,
      "componentType": 5125,
      "count": 672,
      "type": "SCALAR"
    },
    {
      "bufferView": 2,
      "byteOffset": 2736,
      "componentType": 5126,
      "count": 114,
      "max": [
        1.0,
        1.0,
        2.3340799808502197
      ],
      "min": [
        -1.0,
        -1.0,
        -1.0
      ],
      "type": "VEC3"
    },
    {
      "bufferView": 2,
      "byteOffset": 4104,
      "componentType": 5126,
      "count": 114,
      "max": [
        0.9998721480369568,
        0.9998721480369568,
        1.0
      ],
      "min": [
        -0.9998721480369568,
        -0.9998721480369568,
        -1.0
      ],
      "type": "VEC3"
    },
    {
      "bufferView": 0,
      "byteOffset": 2688,
      "componentType": 5125,
      "count": 672,
      "type": "SCALAR"
    },
    {
      "bufferView": 2,
      "byteOffset": 5472,
      "componentType": 5126,
      "count": 1154,
      "max": [
        4.559999942779541,
        4.559999942779541,
        4.559999942779541
      ],
      "min": [
        -4.559999942779541,
        -4.559989929199219,
        -4.559999942779541
      ],
      "type": "VEC3"
    },
    {
      "bufferView": 2,
      "byteOffset": 19320,
      "componentType": 5126,
      "count": 1154,
      "max": [
        1.0,
        1.0,
        1.0
      ],
      "min": [
        -1.0,
        -0.9999993443489075,
        -1.0
      ],
      "type": "VEC3"
    },
    {
      "bufferView": 1,
      "componentType": 5126,
      "count": 1154,
      "max": [
        0.9802899956703186,
        0.9769300222396851
      ],
      "min": [
        0.07378999888896942,
        0.03536999970674515
      ],
      "type": "VEC2"
    },
    {
      "bufferView": 1,
      "byteOffset": 9232,
      "componentType": 5126,
      "count": 1154,
      "max": [
        0.9802899956703186,
        0.9769300222396851
      ],
      "min": [
        0.07378999888896942,
        0.03536999970674515
      ],
      "type": "VEC2"
    },
    {
      "bufferView": 1,
      "byteOffset": 18464,
      "componentType": 5126,
      "count": 1154,
      "max": [
        0.9802899956703186,
        0.9769300222396851
      ],
      "min": [
        0.07378999888896942,
        0.03536999970674515
      ],
      "type": "VEC2"
    },
    {
      "bufferView": 0,
      "byteOffset": 5376,
      "componentType": 5125,
      "count": 6360,
      "type": "SCALAR"
    }
  ],
  "asset": {
    "extras": {
      "author": "Maurice Svay (https://sketchfab.com/mauricesvay)",
      "license": "SKETCHFAB Editorial (https://sketchfab.com/licenses)",
      "source": "https://sketchfab.com/3d-models/tears-of-joy-emoji-low-poly-c733dd86b52146019a755480ffc89689",
      "title": "😂 Tears of Joy emoji (Low poly)"
    },
    "generator": "Sketchfab-12.66.0",
    "version": "2.0"
  },
  "bufferViews": [
    {
      "buffer": 0,
      "byteLength": 30816,
      "name": "floatBufferViews",
      "target": 34963
    },
    {
      "buffer": 0,
      "byteLength": 27696,
      "byteOffset": 30816,
      "byteStride": 8,
      "name": "floatBufferViews",
      "target": 34962
    },
    {
      "buffer": 0,
      "byteLength": 33168,
      "byteOffset": 58512,
      "byteStride": 12,
      "name": "floatBufferViews",
      "target": 34962
    }
  ],
  "buffers": [
    {
      "byteLength": 91680,
      "uri": "scene.bin"
    }
  ],
  "extensionsRequired": [
    "KHR_materials_pbrSpecularGlossiness"
  ],
  "extensionsUsed": [
    "KHR_materials_pbrSpecularGlossiness"
  ],
  "images": [
    {
      "uri": "textures/Face_diffuse.png"
    },
    {
      "uri": "textures/Face_specularGlossiness.png"
    },
    {
      "uri": "textures/Face_occlusion.png"
    }
  ],
  "materials": [
    {
      "doubleSided": true,
      "extensions": {
        "KHR_materials_pbrSpecularGlossiness": {
          "diffuseFactor": [
            1.0,
            1.0,
            1.0,
            1.0
          ],
          "diffuseTexture": {
            "index": 0
          },
          "glossinessFactor": 0.4,
          "specularFactor": [
            0.3,
            0.3,
            0.3
          ],
          "specularGlossinessTexture": {
            "index": 1
          }
        }
      },
      "name": "Face",
      "occlusionTexture": {
        "index": 2
      }
    },
    {
      "doubleSided": true,
      "extensions": {
        "KHR_materials_pbrSpecularGlossiness": {
          "diffuseFactor": [
            0.0015176348000000017,
            0.3613067865000001,
            0.8148468733,
            1.0
          ],
          "glossinessFactor": 0.8,
          "specularFactor": [
            0.3,
            0.3,
            0.3
          ]
        }
      },
      "name": "tear"
    }
  ],
  "meshes": [
    {
      "name": "tear_left_0",
      "primitives": [
        {
          "attributes": {
            "NORMAL": 1,
            "POSITION": 0
          },
          "indices": 2,
          "material": 1,
          "mode": 4
        }
      ]
    },
    {
      "name": "tear_right_0",
      "primitives": [
        {
          "attributes": {
            "NORMAL": 4,
            "POSITION": 3
          },
          "indices": 5,
          "material": 1,
          "mode": 4
        }
      ]
    },
    {
      "name": "face_low_0",
      "primitives": [
        {
          "attributes": {
            "NORMAL": 7,
            "POSITION": 6,
            "TEXCOORD_0": 8,
            "TEXCOORD_1": 9,
            "TEXCOORD_2": 10
          },
          "indices": 11,
          "material": 0,
          "mode": 4
        }
      ]
    }
  ],
  "nodes": [
    {
      "children": [
        1
      ],
      "matrix": [
        1.0,
        0.0,
        0.0,
        0.0,
        0.0,
        2.220446049250313e-16,
        -1.0,
        0.0,
        0.0,
        1.0,
        2.220446049250313e-16,
        0.0,
        0.0,
        0.0,
        0.0,
        1.0
      ],
      "name": "Sketchfab_model"
    },
    {
      "children": [
        2,
        4,
        6,
        8
      ],
      "name": "Root"
    },
    {
      "children": [
        3
      ],
      "matrix": [
        1.0,
        0.0,
        0.0,
        0.0,
        0.0,
        0.90631,
        0.42262000000000005,
        0.0,
        0.0,
        -0.42262000000000005,
        0.90631,
        0.0,
        0.0,
        0.0,
        10.0,
        1.0
      ],
      "name": "Lamp"
    },
    {
      "name": "Lamp"
    },
    {
      "children": [
        5
      ],
      "matrix": [
        0.7510200000000001,
        -0.0,
        0.37240000000000006,
        0.0,
        0.0,
        0.83828,
        0.0,
        0.0,
        -0.37240000000000006,
        0.0,
        0.7510200000000001,
        0.0,
        4.07716,
        -3.4000399999999997,
        -2.06096,
        1.0
      ],
      "name": "tear_left"
    },
    {
      "mesh": 0,
      "name": "tear_left_0"
    },
    {
      "children": [
        7
      ],
      "matrix": [
        0.7510200000000001,
        -0.0,
        -0.37240000000000006,
        0.0,
        0.0,
        0.83828,
        0.0,
        0.0,
        0.37240000000000006,
        -0.0,
        0.7510200000000001,
        0.0,
        -4.04268,
        -3.4000399999999997,
        -2.06096,
        1.0
      ],
      "name": "tear_right"
    },
    {
      "mesh": 1,
      "name": "tear_right_0"
    },
    {
      "children": [
        9
      ],
      "name": "face_low"
    },
    {
      "mesh": 2,
      "name": "face_low_0"
    }
  ],
  "samplers": [
    {
      "magFilter": 9729,
      "minFilter": 9987,
      "wrapS": 10497,
      "wrapT": 10497
    }
  ],
  "scene": 0,
  "scenes": [
    {
      "name": "Sketchfab_Scene",
      "nodes": [
        0
      ]
    }
  ],
  "textures": [
    {
      "sampler": 0,
      "source": 0
    },
    {
      "sampler": 0,
      "source": 1
    },
    {
      "sampler": 0,
      "source": 2
    }
  ]
}
