<svg id="visual" viewBox="0 0 900 600" width="900" height="600" xmlns="http://www.w3.org/2000/svg" xmlns:xlink="http://www.w3.org/1999/xlink" version="1.1"><rect x="0" y="0" width="900" height="600" fill="#06050b"></rect><defs><linearGradient id="grad1_0" x1="33.3%" y1="0%" x2="100%" y2="100%"><stop offset="20%" stop-color="#fbae3c" stop-opacity="1"></stop><stop offset="80%" stop-color="#fbae3c" stop-opacity="1"></stop></linearGradient></defs><defs><linearGradient id="grad1_1" x1="33.3%" y1="0%" x2="100%" y2="100%"><stop offset="20%" stop-color="#fbae3c" stop-opacity="1"></stop><stop offset="80%" stop-color="#ec864a" stop-opacity="1"></stop></linearGradient></defs><defs><linearGradient id="grad1_2" x1="33.3%" y1="0%" x2="100%" y2="100%"><stop offset="20%" stop-color="#cf6555" stop-opacity="1"></stop><stop offset="80%" stop-color="#ec864a" stop-opacity="1"></stop></linearGradient></defs><defs><linearGradient id="grad1_3" x1="33.3%" y1="0%" x2="100%" y2="100%"><stop offset="20%" stop-color="#cf6555" stop-opacity="1"></stop><stop offset="80%" stop-color="#a84c59" stop-opacity="1"></stop></linearGradient></defs><defs><linearGradient id="grad1_4" x1="33.3%" y1="0%" x2="100%" y2="100%"><stop offset="20%" stop-color="#7a3b54" stop-opacity="1"></stop><stop offset="80%" stop-color="#a84c59" stop-opacity="1"></stop></linearGradient></defs><defs><linearGradient id="grad1_5" x1="33.3%" y1="0%" x2="100%" y2="100%"><stop offset="20%" stop-color="#7a3b54" stop-opacity="1"></stop><stop offset="80%" stop-color="#4d2c44" stop-opacity="1"></stop></linearGradient></defs><defs><linearGradient id="grad1_6" x1="33.3%" y1="0%" x2="100%" y2="100%"><stop offset="20%" stop-color="#271c2b" stop-opacity="1"></stop><stop offset="80%" stop-color="#4d2c44" stop-opacity="1"></stop></linearGradient></defs><defs><linearGradient id="grad1_7" x1="33.3%" y1="0%" x2="100%" y2="100%"><stop offset="20%" stop-color="#271c2b" stop-opacity="1"></stop><stop offset="80%" stop-color="#06050b" stop-opacity="1"></stop></linearGradient></defs><defs><linearGradient id="grad2_0" x1="0%" y1="0%" x2="66.7%" y2="100%"><stop offset="20%" stop-color="#fbae3c" stop-opacity="1"></stop><stop offset="80%" stop-color="#fbae3c" stop-opacity="1"></stop></linearGradient></defs><defs><linearGradient id="grad2_1" x1="0%" y1="0%" x2="66.7%" y2="100%"><stop offset="20%" stop-color="#ec864a" stop-opacity="1"></stop><stop offset="80%" stop-color="#fbae3c" stop-opacity="1"></stop></linearGradient></defs><defs><linearGradient id="grad2_2" x1="0%" y1="0%" x2="66.7%" y2="100%"><stop offset="20%" stop-color="#ec864a" stop-opacity="1"></stop><stop offset="80%" stop-color="#cf6555" stop-opacity="1"></stop></linearGradient></defs><defs><linearGradient id="grad2_3" x1="0%" y1="0%" x2="66.7%" y2="100%"><stop offset="20%" stop-color="#a84c59" stop-opacity="1"></stop><stop offset="80%" stop-color="#cf6555" stop-opacity="1"></stop></linearGradient></defs><defs><linearGradient id="grad2_4" x1="0%" y1="0%" x2="66.7%" y2="100%"><stop offset="20%" stop-color="#a84c59" stop-opacity="1"></stop><stop offset="80%" stop-color="#7a3b54" stop-opacity="1"></stop></linearGradient></defs><defs><linearGradient id="grad2_5" x1="0%" y1="0%" x2="66.7%" y2="100%"><stop offset="20%" stop-color="#4d2c44" stop-opacity="1"></stop><stop offset="80%" stop-color="#7a3b54" stop-opacity="1"></stop></linearGradient></defs><defs><linearGradient id="grad2_6" x1="0%" y1="0%" x2="66.7%" y2="100%"><stop offset="20%" stop-color="#4d2c44" stop-opacity="1"></stop><stop offset="80%" stop-color="#271c2b" stop-opacity="1"></stop></linearGradient></defs><defs><linearGradient id="grad2_7" x1="0%" y1="0%" x2="66.7%" y2="100%"><stop offset="20%" stop-color="#06050b" stop-opacity="1"></stop><stop offset="80%" stop-color="#271c2b" stop-opacity="1"></stop></linearGradient></defs><g transform="translate(900, 0)"><path d="M0 243.4C-45.6 238.8 -91.2 234.1 -121.7 210.8C-152.2 187.4 -167.6 145.3 -185.3 107C-203.1 68.7 -223.2 34.4 -243.4 0L0 0Z" fill="#18141d"></path><path d="M0 213C-39.9 208.9 -79.8 204.9 -106.5 184.4C-133.2 164 -146.6 127.1 -162.2 93.6C-177.7 60.2 -195.3 30.1 -213 0L0 0Z" fill="#392439"></path><path d="M0 182.5C-34.2 179.1 -68.4 175.6 -91.3 158.1C-114.1 140.5 -125.7 108.9 -139 80.3C-152.3 51.6 -167.4 25.8 -182.5 0L0 0Z" fill="#63334d"></path><path d="M0 152.1C-28.5 149.2 -57 146.3 -76.1 131.7C-95.1 117.1 -104.7 90.8 -115.8 66.9C-126.9 43 -139.5 21.5 -152.1 0L0 0Z" fill="#914358"></path><path d="M0 121.7C-22.8 119.4 -45.6 117.1 -60.8 105.4C-76.1 93.7 -83.8 72.6 -92.7 53.5C-101.5 34.4 -111.6 17.2 -121.7 0L0 0Z" fill="#bc5758"></path><path d="M0 91.3C-17.1 89.5 -34.2 87.8 -45.6 79C-57.1 70.3 -62.8 54.5 -69.5 40.1C-76.2 25.8 -83.7 12.9 -91.3 0L0 0Z" fill="#df7450"></path><path d="M0 60.8C-11.4 59.7 -22.8 58.5 -30.4 52.7C-38 46.8 -41.9 36.3 -46.3 26.8C-50.8 17.2 -55.8 8.6 -60.8 0L0 0Z" fill="#f69943"></path><path d="M0 30.4C-5.7 29.8 -11.4 29.3 -15.2 26.3C-19 23.4 -20.9 18.2 -23.2 13.4C-25.4 8.6 -27.9 4.3 -30.4 0L0 0Z" fill="#fbae3c"></path></g><g transform="translate(0, 600)"><path d="M0 -243.4C46.5 -239.3 93 -235.2 121.7 -210.8C150.3 -186.3 161.1 -141.5 178.4 -103C195.7 -64.5 219.5 -32.2 243.4 0L0 0Z" fill="#18141d"></path><path d="M0 -213C40.7 -209.4 81.4 -205.8 106.5 -184.4C131.5 -163 141 -123.8 156.1 -90.1C171.2 -56.4 192.1 -28.2 213 0L0 0Z" fill="#392439"></path><path d="M0 -182.5C34.9 -179.5 69.8 -176.4 91.3 -158.1C112.7 -139.7 120.8 -106.1 133.8 -77.3C146.8 -48.4 164.7 -24.2 182.5 0L0 0Z" fill="#63334d"></path><path d="M0 -152.1C29.1 -149.6 58.2 -147 76.1 -131.7C94 -116.5 100.7 -88.5 111.5 -64.4C122.3 -40.3 137.2 -20.1 152.1 0L0 0Z" fill="#914358"></path><path d="M0 -121.7C23.3 -119.6 46.5 -117.6 60.8 -105.4C75.2 -93.2 80.5 -70.8 89.2 -51.5C97.9 -32.2 109.8 -16.1 121.7 0L0 0Z" fill="#bc5758"></path><path d="M0 -91.3C17.4 -89.7 34.9 -88.2 45.6 -79C56.4 -69.9 60.4 -53.1 66.9 -38.6C73.4 -24.2 82.3 -12.1 91.3 0L0 0Z" fill="#df7450"></path><path d="M0 -60.8C11.6 -59.8 23.3 -58.8 30.4 -52.7C37.6 -46.6 40.3 -35.4 44.6 -25.8C48.9 -16.1 54.9 -8.1 60.8 0L0 0Z" fill="#f69943"></path><path d="M0 -30.4C5.8 -29.9 11.6 -29.4 15.2 -26.3C18.8 -23.3 20.1 -17.7 22.3 -12.9C24.5 -8.1 27.4 -4 30.4 0L0 0Z" fill="#fbae3c"></path></g></svg>