<svg id="visual" viewBox="0 0 900 600" width="900" height="600" xmlns="http://www.w3.org/2000/svg" xmlns:xlink="http://www.w3.org/1999/xlink" version="1.1"><rect x="0" y="0" width="900" height="600" fill="#000000"></rect><defs><linearGradient id="grad1_0" x1="33.3%" y1="0%" x2="100%" y2="100%"><stop offset="20%" stop-color="#d100ff" stop-opacity="1"></stop><stop offset="80%" stop-color="#d100ff" stop-opacity="1"></stop></linearGradient></defs><defs><linearGradient id="grad1_1" x1="33.3%" y1="0%" x2="100%" y2="100%"><stop offset="20%" stop-color="#d100ff" stop-opacity="1"></stop><stop offset="80%" stop-color="#ba00e9" stop-opacity="1"></stop></linearGradient></defs><defs><linearGradient id="grad1_2" x1="33.3%" y1="0%" x2="100%" y2="100%"><stop offset="20%" stop-color="#a300d3" stop-opacity="1"></stop><stop offset="80%" stop-color="#ba00e9" stop-opacity="1"></stop></linearGradient></defs><defs><linearGradient id="grad1_3" x1="33.3%" y1="0%" x2="100%" y2="100%"><stop offset="20%" stop-color="#a300d3" stop-opacity="1"></stop><stop offset="80%" stop-color="#8c00be" stop-opacity="1"></stop></linearGradient></defs><defs><linearGradient id="grad1_4" x1="33.3%" y1="0%" x2="100%" y2="100%"><stop offset="20%" stop-color="#7600a9" stop-opacity="1"></stop><stop offset="80%" stop-color="#8c00be" stop-opacity="1"></stop></linearGradient></defs><defs><linearGradient id="grad1_5" x1="33.3%" y1="0%" x2="100%" y2="100%"><stop offset="20%" stop-color="#7600a9" stop-opacity="1"></stop><stop offset="80%" stop-color="#5f0094" stop-opacity="1"></stop></linearGradient></defs><defs><linearGradient id="grad1_6" x1="33.3%" y1="0%" x2="100%" y2="100%"><stop offset="20%" stop-color="#470080" stop-opacity="1"></stop><stop offset="80%" stop-color="#5f0094" stop-opacity="1"></stop></linearGradient></defs><defs><linearGradient id="grad1_7" x1="33.3%" y1="0%" x2="100%" y2="100%"><stop offset="20%" stop-color="#470080" stop-opacity="1"></stop><stop offset="80%" stop-color="#000000" stop-opacity="1"></stop></linearGradient></defs><defs><linearGradient id="grad2_0" x1="0%" y1="0%" x2="66.7%" y2="100%"><stop offset="20%" stop-color="#d100ff" stop-opacity="1"></stop><stop offset="80%" stop-color="#d100ff" stop-opacity="1"></stop></linearGradient></defs><defs><linearGradient id="grad2_1" x1="0%" y1="0%" x2="66.7%" y2="100%"><stop offset="20%" stop-color="#ba00e9" stop-opacity="1"></stop><stop offset="80%" stop-color="#d100ff" stop-opacity="1"></stop></linearGradient></defs><defs><linearGradient id="grad2_2" x1="0%" y1="0%" x2="66.7%" y2="100%"><stop offset="20%" stop-color="#ba00e9" stop-opacity="1"></stop><stop offset="80%" stop-color="#a300d3" stop-opacity="1"></stop></linearGradient></defs><defs><linearGradient id="grad2_3" x1="0%" y1="0%" x2="66.7%" y2="100%"><stop offset="20%" stop-color="#8c00be" stop-opacity="1"></stop><stop offset="80%" stop-color="#a300d3" stop-opacity="1"></stop></linearGradient></defs><defs><linearGradient id="grad2_4" x1="0%" y1="0%" x2="66.7%" y2="100%"><stop offset="20%" stop-color="#8c00be" stop-opacity="1"></stop><stop offset="80%" stop-color="#7600a9" stop-opacity="1"></stop></linearGradient></defs><defs><linearGradient id="grad2_5" x1="0%" y1="0%" x2="66.7%" y2="100%"><stop offset="20%" stop-color="#5f0094" stop-opacity="1"></stop><stop offset="80%" stop-color="#7600a9" stop-opacity="1"></stop></linearGradient></defs><defs><linearGradient id="grad2_6" x1="0%" y1="0%" x2="66.7%" y2="100%"><stop offset="20%" stop-color="#5f0094" stop-opacity="1"></stop><stop offset="80%" stop-color="#470080" stop-opacity="1"></stop></linearGradient></defs><defs><linearGradient id="grad2_7" x1="0%" y1="0%" x2="66.7%" y2="100%"><stop offset="20%" stop-color="#000000" stop-opacity="1"></stop><stop offset="80%" stop-color="#470080" stop-opacity="1"></stop></linearGradient></defs><g transform="translate(900, 0)"><path d="M0 270.4C-24.8 255.7 -49.6 240.9 -75.7 233C-101.8 225.1 -129.3 224 -155.2 213.6C-181.1 203.1 -205.3 183.3 -218.8 158.9C-232.2 134.6 -234.8 105.7 -241.6 78.5C-248.4 51.2 -259.4 25.6 -270.4 0L0 0Z" fill="#3c0076"></path><path d="M0 236.6C-21.7 223.7 -43.4 210.8 -66.2 203.9C-89.1 197 -113.1 196 -135.8 186.9C-158.4 177.7 -179.7 160.4 -191.4 139.1C-203.2 117.8 -205.4 92.5 -211.4 68.7C-217.3 44.8 -227 22.4 -236.6 0L0 0Z" fill="#53008a"></path><path d="M0 202.8C-18.6 191.8 -37.2 180.7 -56.8 174.8C-76.4 168.8 -97 168 -116.4 160.2C-135.8 152.3 -154 137.5 -164.1 119.2C-174.2 100.9 -176.1 79.3 -181.2 58.9C-186.3 38.4 -194.5 19.2 -202.8 0L0 0Z" fill="#6a009e"></path><path d="M0 169C-15.5 159.8 -31 150.6 -47.3 145.6C-63.6 140.7 -80.8 140 -97 133.5C-113.2 127 -128.3 114.6 -136.7 99.3C-145.1 84.1 -146.7 66.1 -151 49.1C-155.2 32 -162.1 16 -169 0L0 0Z" fill="#8100b3"></path><path d="M0 135.2C-12.4 127.8 -24.8 120.5 -37.9 116.5C-50.9 112.5 -64.6 112 -77.6 106.8C-90.5 101.6 -102.7 91.6 -109.4 79.5C-116.1 67.3 -117.4 52.9 -120.8 39.2C-124.2 25.6 -129.7 12.8 -135.2 0L0 0Z" fill="#9800c8"></path><path d="M0 101.4C-9.3 95.9 -18.6 90.3 -28.4 87.4C-38.2 84.4 -48.5 84 -58.2 80.1C-67.9 76.2 -77 68.7 -82 59.6C-87.1 50.5 -88 39.7 -90.6 29.4C-93.1 19.2 -97.3 9.6 -101.4 0L0 0Z" fill="#af00de"></path><path d="M0 67.6C-6.2 63.9 -12.4 60.2 -18.9 58.3C-25.5 56.3 -32.3 56 -38.8 53.4C-45.3 50.8 -51.3 45.8 -54.7 39.7C-58.1 33.6 -58.7 26.4 -60.4 19.6C-62.1 12.8 -64.8 6.4 -67.6 0L0 0Z" fill="#c500f4"></path><path d="M0 33.8C-3.1 32 -6.2 30.1 -9.5 29.1C-12.7 28.1 -16.2 28 -19.4 26.7C-22.6 25.4 -25.7 22.9 -27.3 19.9C-29 16.8 -29.3 13.2 -30.2 9.8C-31 6.4 -32.4 3.2 -33.8 0L0 0Z" fill="#d100ff"></path></g><g transform="translate(0, 600)"><path d="M0 -270.4C28.8 -269 57.7 -267.6 83.6 -257.2C109.5 -246.8 132.4 -227.5 150.5 -207.1C168.5 -186.7 181.6 -165.2 199.8 -145.2C218 -125.1 241.3 -106.5 253.9 -82.5C266.5 -58.5 268.5 -29.3 270.4 0L0 0Z" fill="#3c0076"></path><path d="M0 -236.6C25.2 -235.4 50.5 -234.1 73.1 -225C95.8 -216 115.9 -199.1 131.7 -181.2C147.4 -163.4 158.9 -144.6 174.8 -127C190.8 -109.5 211.2 -93.2 222.2 -72.2C233.2 -51.2 234.9 -25.6 236.6 0L0 0Z" fill="#53008a"></path><path d="M0 -202.8C21.6 -201.7 43.2 -200.7 62.7 -192.9C82.1 -185.1 99.3 -170.6 112.9 -155.3C126.4 -140 136.2 -123.9 149.9 -108.9C163.5 -93.8 181 -79.9 190.4 -61.9C199.9 -43.9 201.4 -22 202.8 0L0 0Z" fill="#6a009e"></path><path d="M0 -169C18 -168.1 36 -167.2 52.2 -160.7C68.4 -154.3 82.8 -142.2 94 -129.4C105.3 -116.7 113.5 -103.3 124.9 -90.7C136.3 -78.2 150.8 -66.5 158.7 -51.6C166.6 -36.6 167.8 -18.3 169 0L0 0Z" fill="#8100b3"></path><path d="M0 -135.2C14.4 -134.5 28.8 -133.8 41.8 -128.6C54.7 -123.4 66.2 -113.7 75.2 -103.6C84.3 -93.4 90.8 -82.6 99.9 -72.6C109 -62.6 120.7 -53.2 127 -41.3C133.3 -29.3 134.2 -14.6 135.2 0L0 0Z" fill="#9800c8"></path><path d="M0 -101.4C10.8 -100.9 21.6 -100.3 31.3 -96.4C41 -92.6 49.7 -85.3 56.4 -77.7C63.2 -70 68.1 -62 74.9 -54.4C81.8 -46.9 90.5 -39.9 95.2 -30.9C100 -22 100.7 -11 101.4 0L0 0Z" fill="#af00de"></path><path d="M0 -67.6C7.2 -67.2 14.4 -66.9 20.9 -64.3C27.4 -61.7 33.1 -56.9 37.6 -51.8C42.1 -46.7 45.4 -41.3 50 -36.3C54.5 -31.3 60.3 -26.6 63.5 -20.6C66.6 -14.6 67.1 -7.3 67.6 0L0 0Z" fill="#c500f4"></path><path d="M0 -33.8C3.6 -33.6 7.2 -33.4 10.4 -32.1C13.7 -30.9 16.6 -28.4 18.8 -25.9C21.1 -23.3 22.7 -20.7 25 -18.1C27.3 -15.6 30.2 -13.3 31.7 -10.3C33.3 -7.3 33.6 -3.7 33.8 0L0 0Z" fill="#d100ff"></path></g></svg>