<svg id="visual" viewBox="0 0 900 600" width="900" height="600" xmlns="http://www.w3.org/2000/svg" xmlns:xlink="http://www.w3.org/1999/xlink" version="1.1"><rect x="0" y="0" width="900" height="600" fill="#000000"></rect><defs><linearGradient id="grad1_0" x1="33.3%" y1="0%" x2="100%" y2="100%"><stop offset="20%" stop-color="#d100ff" stop-opacity="1"></stop><stop offset="80%" stop-color="#d100ff" stop-opacity="1"></stop></linearGradient></defs><defs><linearGradient id="grad1_1" x1="33.3%" y1="0%" x2="100%" y2="100%"><stop offset="20%" stop-color="#d100ff" stop-opacity="1"></stop><stop offset="80%" stop-color="#ba00e9" stop-opacity="1"></stop></linearGradient></defs><defs><linearGradient id="grad1_2" x1="33.3%" y1="0%" x2="100%" y2="100%"><stop offset="20%" stop-color="#a300d3" stop-opacity="1"></stop><stop offset="80%" stop-color="#ba00e9" stop-opacity="1"></stop></linearGradient></defs><defs><linearGradient id="grad1_3" x1="33.3%" y1="0%" x2="100%" y2="100%"><stop offset="20%" stop-color="#a300d3" stop-opacity="1"></stop><stop offset="80%" stop-color="#8c00be" stop-opacity="1"></stop></linearGradient></defs><defs><linearGradient id="grad1_4" x1="33.3%" y1="0%" x2="100%" y2="100%"><stop offset="20%" stop-color="#7600a9" stop-opacity="1"></stop><stop offset="80%" stop-color="#8c00be" stop-opacity="1"></stop></linearGradient></defs><defs><linearGradient id="grad1_5" x1="33.3%" y1="0%" x2="100%" y2="100%"><stop offset="20%" stop-color="#7600a9" stop-opacity="1"></stop><stop offset="80%" stop-color="#5f0094" stop-opacity="1"></stop></linearGradient></defs><defs><linearGradient id="grad1_6" x1="33.3%" y1="0%" x2="100%" y2="100%"><stop offset="20%" stop-color="#470080" stop-opacity="1"></stop><stop offset="80%" stop-color="#5f0094" stop-opacity="1"></stop></linearGradient></defs><defs><linearGradient id="grad1_7" x1="33.3%" y1="0%" x2="100%" y2="100%"><stop offset="20%" stop-color="#470080" stop-opacity="1"></stop><stop offset="80%" stop-color="#000000" stop-opacity="1"></stop></linearGradient></defs><defs><linearGradient id="grad2_0" x1="0%" y1="0%" x2="66.7%" y2="100%"><stop offset="20%" stop-color="#d100ff" stop-opacity="1"></stop><stop offset="80%" stop-color="#d100ff" stop-opacity="1"></stop></linearGradient></defs><defs><linearGradient id="grad2_1" x1="0%" y1="0%" x2="66.7%" y2="100%"><stop offset="20%" stop-color="#ba00e9" stop-opacity="1"></stop><stop offset="80%" stop-color="#d100ff" stop-opacity="1"></stop></linearGradient></defs><defs><linearGradient id="grad2_2" x1="0%" y1="0%" x2="66.7%" y2="100%"><stop offset="20%" stop-color="#ba00e9" stop-opacity="1"></stop><stop offset="80%" stop-color="#a300d3" stop-opacity="1"></stop></linearGradient></defs><defs><linearGradient id="grad2_3" x1="0%" y1="0%" x2="66.7%" y2="100%"><stop offset="20%" stop-color="#8c00be" stop-opacity="1"></stop><stop offset="80%" stop-color="#a300d3" stop-opacity="1"></stop></linearGradient></defs><defs><linearGradient id="grad2_4" x1="0%" y1="0%" x2="66.7%" y2="100%"><stop offset="20%" stop-color="#8c00be" stop-opacity="1"></stop><stop offset="80%" stop-color="#7600a9" stop-opacity="1"></stop></linearGradient></defs><defs><linearGradient id="grad2_5" x1="0%" y1="0%" x2="66.7%" y2="100%"><stop offset="20%" stop-color="#5f0094" stop-opacity="1"></stop><stop offset="80%" stop-color="#7600a9" stop-opacity="1"></stop></linearGradient></defs><defs><linearGradient id="grad2_6" x1="0%" y1="0%" x2="66.7%" y2="100%"><stop offset="20%" stop-color="#5f0094" stop-opacity="1"></stop><stop offset="80%" stop-color="#470080" stop-opacity="1"></stop></linearGradient></defs><defs><linearGradient id="grad2_7" x1="0%" y1="0%" x2="66.7%" y2="100%"><stop offset="20%" stop-color="#000000" stop-opacity="1"></stop><stop offset="80%" stop-color="#470080" stop-opacity="1"></stop></linearGradient></defs><g transform="translate(900, 0)"><path d="M0 216.3C-23.1 212.4 -46.1 208.5 -64.3 197.8C-82.4 187.2 -95.6 169.8 -115.2 158.6C-134.8 147.3 -160.7 142.3 -175 127.2C-189.3 112 -191.9 86.8 -196.9 64C-201.8 41.1 -209.1 20.5 -216.3 0L0 0Z" fill="#3c0076"></path><path d="M0 189.3C-20.2 185.9 -40.4 182.4 -56.2 173.1C-72.1 163.8 -83.7 148.6 -100.8 138.7C-117.9 128.9 -140.6 124.5 -153.1 111.3C-165.6 98 -167.9 76 -172.3 56C-176.6 36 -182.9 18 -189.3 0L0 0Z" fill="#53008a"></path><path d="M0 162.2C-17.3 159.3 -34.6 156.4 -48.2 148.4C-61.8 140.4 -71.7 127.3 -86.4 118.9C-101.1 110.5 -120.5 106.7 -131.3 95.4C-142 84 -143.9 65.1 -147.7 48C-151.4 30.8 -156.8 15.4 -162.2 0L0 0Z" fill="#6a009e"></path><path d="M0 135.2C-14.4 132.8 -28.8 130.3 -40.2 123.6C-51.5 117 -59.8 106.1 -72 99.1C-84.2 92.1 -100.5 88.9 -109.4 79.5C-118.3 70 -120 54.3 -123 40C-126.1 25.7 -130.7 12.8 -135.2 0L0 0Z" fill="#8100b3"></path><path d="M0 108.2C-11.5 106.2 -23.1 104.2 -32.1 98.9C-41.2 93.6 -47.8 84.9 -57.6 79.3C-67.4 73.7 -80.4 71.1 -87.5 63.6C-94.7 56 -96 43.4 -98.4 32C-100.9 20.5 -104.5 10.3 -108.2 0L0 0Z" fill="#9800c8"></path><path d="M0 81.1C-8.7 79.7 -17.3 78.2 -24.1 74.2C-30.9 70.2 -35.9 63.7 -43.2 59.5C-50.5 55.3 -60.3 53.4 -65.6 47.7C-71 42 -72 32.6 -73.8 24C-75.7 15.4 -78.4 7.7 -81.1 0L0 0Z" fill="#af00de"></path><path d="M0 54.1C-5.8 53.1 -11.5 52.1 -16.1 49.5C-20.6 46.8 -23.9 42.4 -28.8 39.6C-33.7 36.8 -40.2 35.6 -43.8 31.8C-47.3 28 -48 21.7 -49.2 16C-50.5 10.3 -52.3 5.1 -54.1 0L0 0Z" fill="#c500f4"></path><path d="M0 27C-2.9 26.6 -5.8 26.1 -8 24.7C-10.3 23.4 -12 21.2 -14.4 19.8C-16.8 18.4 -20.1 17.8 -21.9 15.9C-23.7 14 -24 10.9 -24.6 8C-25.2 5.1 -26.1 2.6 -27 0L0 0Z" fill="#d100ff"></path></g><g transform="translate(0, 600)"><path d="M0 -216.3C20.7 -208.5 41.5 -200.6 63.3 -195C85.2 -189.3 108.2 -186 127.2 -175C146.1 -164.1 161 -145.5 173.9 -126.4C186.8 -107.3 197.7 -87.6 204.5 -66.4C211.2 -45.3 213.8 -22.6 216.3 0L0 0Z" fill="#3c0076"></path><path d="M0 -189.3C18.1 -182.4 36.3 -175.5 55.4 -170.6C74.6 -165.7 94.7 -162.7 111.3 -153.1C127.8 -143.5 140.9 -127.3 152.2 -110.6C163.5 -93.9 173 -76.6 178.9 -58.1C184.8 -39.6 187 -19.8 189.3 0L0 0Z" fill="#53008a"></path><path d="M0 -162.2C15.6 -156.3 31.1 -150.4 47.5 -146.2C63.9 -142 81.2 -139.5 95.4 -131.3C109.6 -123 120.8 -109.1 130.5 -94.8C140.1 -80.4 148.3 -65.7 153.4 -49.8C158.4 -34 160.3 -17 162.2 0L0 0Z" fill="#6a009e"></path><path d="M0 -135.2C13 -130.3 25.9 -125.4 39.6 -121.9C53.3 -118.3 67.6 -116.2 79.5 -109.4C91.3 -102.5 100.6 -90.9 108.7 -79C116.8 -67 123.6 -54.7 127.8 -41.5C132 -28.3 133.6 -14.2 135.2 0L0 0Z" fill="#8100b3"></path><path d="M0 -108.2C10.4 -104.2 20.7 -100.3 31.7 -97.5C42.6 -94.7 54.1 -93 63.6 -87.5C73.1 -82 80.5 -72.7 87 -63.2C93.4 -53.6 98.9 -43.8 102.2 -33.2C105.6 -22.6 106.9 -11.3 108.2 0L0 0Z" fill="#9800c8"></path><path d="M0 -81.1C7.8 -78.2 15.6 -75.2 23.8 -73.1C32 -71 40.6 -69.7 47.7 -65.6C54.8 -61.5 60.4 -54.6 65.2 -47.4C70.1 -40.2 74.2 -32.8 76.7 -24.9C79.2 -17 80.2 -8.5 81.1 0L0 0Z" fill="#af00de"></path><path d="M0 -54.1C5.2 -52.1 10.4 -50.1 15.8 -48.7C21.3 -47.3 27.1 -46.5 31.8 -43.8C36.5 -41 40.3 -36.4 43.5 -31.6C46.7 -26.8 49.4 -21.9 51.1 -16.6C52.8 -11.3 53.4 -5.7 54.1 0L0 0Z" fill="#c500f4"></path><path d="M0 -27C2.6 -26.1 5.2 -25.1 7.9 -24.4C10.7 -23.7 13.5 -23.2 15.9 -21.9C18.3 -20.5 20.1 -18.2 21.7 -15.8C23.4 -13.4 24.7 -10.9 25.6 -8.3C26.4 -5.7 26.7 -2.8 27 0L0 0Z" fill="#d100ff"></path></g></svg>