<svg id="visual" viewBox="0 0 900 600" width="900" height="600" xmlns="http://www.w3.org/2000/svg" xmlns:xlink="http://www.w3.org/1999/xlink" version="1.1"><rect x="0" y="0" width="900" height="600" fill="#4c3f91"></rect><defs><linearGradient id="grad1_0" x1="33.3%" y1="0%" x2="100%" y2="100%"><stop offset="20%" stop-color="#fcaf3c" stop-opacity="1"></stop><stop offset="80%" stop-color="#fcaf3c" stop-opacity="1"></stop></linearGradient></defs><defs><linearGradient id="grad1_1" x1="33.3%" y1="0%" x2="100%" y2="100%"><stop offset="20%" stop-color="#fcaf3c" stop-opacity="1"></stop><stop offset="80%" stop-color="#ff8f49" stop-opacity="1"></stop></linearGradient></defs><defs><linearGradient id="grad1_2" x1="33.3%" y1="0%" x2="100%" y2="100%"><stop offset="20%" stop-color="#fb715a" stop-opacity="1"></stop><stop offset="80%" stop-color="#ff8f49" stop-opacity="1"></stop></linearGradient></defs><defs><linearGradient id="grad1_3" x1="33.3%" y1="0%" x2="100%" y2="100%"><stop offset="20%" stop-color="#fb715a" stop-opacity="1"></stop><stop offset="80%" stop-color="#ec576d" stop-opacity="1"></stop></linearGradient></defs><defs><linearGradient id="grad1_4" x1="33.3%" y1="0%" x2="100%" y2="100%"><stop offset="20%" stop-color="#d2467f" stop-opacity="1"></stop><stop offset="80%" stop-color="#ec576d" stop-opacity="1"></stop></linearGradient></defs><defs><linearGradient id="grad1_5" x1="33.3%" y1="0%" x2="100%" y2="100%"><stop offset="20%" stop-color="#d2467f" stop-opacity="1"></stop><stop offset="80%" stop-color="#ae408c" stop-opacity="1"></stop></linearGradient></defs><defs><linearGradient id="grad1_6" x1="33.3%" y1="0%" x2="100%" y2="100%"><stop offset="20%" stop-color="#823f92" stop-opacity="1"></stop><stop offset="80%" stop-color="#ae408c" stop-opacity="1"></stop></linearGradient></defs><defs><linearGradient id="grad1_7" x1="33.3%" y1="0%" x2="100%" y2="100%"><stop offset="20%" stop-color="#823f92" stop-opacity="1"></stop><stop offset="80%" stop-color="#4c3f91" stop-opacity="1"></stop></linearGradient></defs><defs><linearGradient id="grad2_0" x1="0%" y1="0%" x2="66.7%" y2="100%"><stop offset="20%" stop-color="#fcaf3c" stop-opacity="1"></stop><stop offset="80%" stop-color="#fcaf3c" stop-opacity="1"></stop></linearGradient></defs><defs><linearGradient id="grad2_1" x1="0%" y1="0%" x2="66.7%" y2="100%"><stop offset="20%" stop-color="#ff8f49" stop-opacity="1"></stop><stop offset="80%" stop-color="#fcaf3c" stop-opacity="1"></stop></linearGradient></defs><defs><linearGradient id="grad2_2" x1="0%" y1="0%" x2="66.7%" y2="100%"><stop offset="20%" stop-color="#ff8f49" stop-opacity="1"></stop><stop offset="80%" stop-color="#fb715a" stop-opacity="1"></stop></linearGradient></defs><defs><linearGradient id="grad2_3" x1="0%" y1="0%" x2="66.7%" y2="100%"><stop offset="20%" stop-color="#ec576d" stop-opacity="1"></stop><stop offset="80%" stop-color="#fb715a" stop-opacity="1"></stop></linearGradient></defs><defs><linearGradient id="grad2_4" x1="0%" y1="0%" x2="66.7%" y2="100%"><stop offset="20%" stop-color="#ec576d" stop-opacity="1"></stop><stop offset="80%" stop-color="#d2467f" stop-opacity="1"></stop></linearGradient></defs><defs><linearGradient id="grad2_5" x1="0%" y1="0%" x2="66.7%" y2="100%"><stop offset="20%" stop-color="#ae408c" stop-opacity="1"></stop><stop offset="80%" stop-color="#d2467f" stop-opacity="1"></stop></linearGradient></defs><defs><linearGradient id="grad2_6" x1="0%" y1="0%" x2="66.7%" y2="100%"><stop offset="20%" stop-color="#ae408c" stop-opacity="1"></stop><stop offset="80%" stop-color="#823f92" stop-opacity="1"></stop></linearGradient></defs><defs><linearGradient id="grad2_7" x1="0%" y1="0%" x2="66.7%" y2="100%"><stop offset="20%" stop-color="#4c3f91" stop-opacity="1"></stop><stop offset="80%" stop-color="#823f92" stop-opacity="1"></stop></linearGradient></defs><g transform="translate(900, 0)"><path d="M0 243.4C-31.4 218.2 -62.9 192.9 -101.5 175.8C-140.1 158.7 -185.9 149.6 -210.8 121.7C-235.6 93.7 -239.5 46.9 -243.4 0L0 0Z" fill="#693f93"></path><path d="M0 213C-27.5 190.9 -55 168.8 -88.8 153.8C-122.6 138.8 -162.7 130.9 -184.4 106.5C-206.2 82 -209.6 41 -213 0L0 0Z" fill="#993f90"></path><path d="M0 182.5C-23.6 163.6 -47.2 144.7 -76.1 131.9C-105.1 119 -139.4 112.2 -158.1 91.3C-176.7 70.3 -179.6 35.2 -182.5 0L0 0Z" fill="#c14286"></path><path d="M0 152.1C-19.6 136.3 -39.3 120.6 -63.4 109.9C-87.6 99.2 -116.2 93.5 -131.7 76.1C-147.3 58.6 -149.7 29.3 -152.1 0L0 0Z" fill="#e04e76"></path><path d="M0 121.7C-15.7 109.1 -31.4 96.5 -50.7 87.9C-70.1 79.3 -93 74.8 -105.4 60.8C-117.8 46.9 -119.7 23.4 -121.7 0L0 0Z" fill="#f56364"></path><path d="M0 91.3C-11.8 81.8 -23.6 72.3 -38.1 65.9C-52.5 59.5 -69.7 56.1 -79 45.6C-88.4 35.2 -89.8 17.6 -91.3 0L0 0Z" fill="#ff7f51"></path><path d="M0 60.8C-7.9 54.5 -15.7 48.2 -25.4 44C-35 39.7 -46.5 37.4 -52.7 30.4C-58.9 23.4 -59.9 11.7 -60.8 0L0 0Z" fill="#ff9f41"></path><path d="M0 30.4C-3.9 27.3 -7.9 24.1 -12.7 22C-17.5 19.8 -23.2 18.7 -26.3 15.2C-29.5 11.7 -29.9 5.9 -30.4 0L0 0Z" fill="#fcaf3c"></path></g><g transform="translate(0, 600)"><path d="M0 -243.4C39.7 -232.5 79.4 -221.6 117 -202.6C154.6 -183.7 190.1 -156.8 210.8 -121.7C231.5 -86.6 237.4 -43.3 243.4 0L0 0Z" fill="#693f93"></path><path d="M0 -213C34.7 -203.4 69.5 -193.9 102.4 -177.3C135.3 -160.8 166.3 -137.2 184.4 -106.5C202.5 -75.8 207.7 -37.9 213 0L0 0Z" fill="#993f90"></path><path d="M0 -182.5C29.8 -174.4 59.6 -166.2 87.7 -152C115.9 -137.8 142.5 -117.6 158.1 -91.3C173.6 -64.9 178.1 -32.5 182.5 0L0 0Z" fill="#c14286"></path><path d="M0 -152.1C24.8 -145.3 49.6 -138.5 73.1 -126.7C96.6 -114.8 118.8 -98 131.7 -76.1C144.7 -54.1 148.4 -27.1 152.1 0L0 0Z" fill="#e04e76"></path><path d="M0 -121.7C19.9 -116.2 39.7 -110.8 58.5 -101.3C77.3 -91.9 95 -78.4 105.4 -60.8C115.7 -43.3 118.7 -21.6 121.7 0L0 0Z" fill="#f56364"></path><path d="M0 -91.3C14.9 -87.2 29.8 -83.1 43.9 -76C58 -68.9 71.3 -58.8 79 -45.6C86.8 -32.5 89 -16.2 91.3 0L0 0Z" fill="#ff7f51"></path><path d="M0 -60.8C9.9 -58.1 19.9 -55.4 29.2 -50.7C38.6 -45.9 47.5 -39.2 52.7 -30.4C57.9 -21.6 59.4 -10.8 60.8 0L0 0Z" fill="#ff9f41"></path><path d="M0 -30.4C5 -29.1 9.9 -27.7 14.6 -25.3C19.3 -23 23.8 -19.6 26.3 -15.2C28.9 -10.8 29.7 -5.4 30.4 0L0 0Z" fill="#fcaf3c"></path></g></svg>