<?xml version="1.0" standalone="no"?>
<!DOCTYPE svg PUBLIC "-//W3C//DTD SVG 20010904//EN"
 "http://www.w3.org/TR/2001/REC-SVG-20010904/DTD/svg10.dtd">
<svg version="1.0" xmlns="http://www.w3.org/2000/svg"
 width="2000.000000pt" height="1000.000000pt" viewBox="0 0 2000.000000 1000.000000"
 preserveAspectRatio="xMidYMid meet">
<metadata>
Created by potrace 1.16, written by Peter Selinger 2001-2019
</metadata>
<g transform="translate(0.000000,1000.000000) scale(0.266667,-0.487805)"
fill="#000000" stroke="none">
<path d="M0 1025 l0 -1025 3750 0 3750 0 0 1025 0 1025 -3750 0 -3750 0 0
-1025z m784 733 c3 -57 9 -170 12 -251 7 -143 8 -148 28 -145 14 2 23 13 27
33 4 17 7 22 8 12 0 -10 5 -16 10 -13 5 4 12 0 15 -6 8 -17 -2 358 -10 399 -8
39 -24 34 -24 -7 0 -16 -4 -32 -10 -35 -6 -4 -10 16 -10 53 l0 60 40 0 40 1 0
-145 c0 -95 4 -144 11 -144 6 0 10 29 9 78 -2 98 1 112 10 42 6 -49 7 -45 7
35 0 50 -1 81 -4 70 -11 -45 -24 -39 -21 10 2 37 7 51 19 53 15 3 18 -19 23
-195 4 -109 10 -227 14 -263 7 -61 8 -65 35 -68 19 -2 27 1 27 12 0 14 16 16
105 16 87 0 105 -3 105 -15 0 -12 16 -15 81 -15 73 0 80 -2 69 -16 -12 -13
-51 -15 -304 -12 -260 3 -414 -2 -753 -27 -68 -5 -103 -4 -103 2 0 15 57 22
282 33 228 12 257 16 259 36 1 8 2 20 2 27 2 31 -14 397 -20 440 -3 28 -2 47
4 47 6 0 13 -46 17 -102z m2422 71 c-3 -17 -6 -39 -7 -48 -1 -9 -4 -5 -8 9 -6
18 -10 -2 -15 -65 -4 -49 -11 -140 -16 -201 -14 -155 -14 -169 5 -154 8 7 20
10 27 7 10 -3 13 16 12 80 0 47 2 102 5 122 4 20 4 50 0 66 -4 17 -7 22 -8 11
0 -11 -4 -17 -7 -13 -10 10 7 68 18 61 7 -4 9 12 7 47 -1 30 -1 66 -1 82 l2
27 81 0 81 0 -6 -47 c-7 -55 -34 -373 -38 -448 -2 -48 -1 -50 27 -56 17 -4 39
-7 50 -8 17 -1 18 1 5 10 -13 9 -13 10 0 6 8 -2 16 -13 18 -25 3 -22 1 -22
-70 -17 -40 4 -89 9 -108 12 -45 9 -110 10 -783 13 -533 2 -597 4 -597 19 0 3
281 5 625 3 504 -2 625 0 625 10 0 23 31 442 36 486 4 34 9 42 26 42 18 0 20
-4 14 -31z m-1906 -9 c5 0 10 8 13 18 2 11 7 6 14 -18 6 -19 12 -30 12 -23 1
6 15 11 31 11 33 -1 40 -14 13 -21 -14 -4 -12 -5 5 -6 12 0 22 5 22 12 0 7 9
18 20 25 24 15 27 0 4 -22 -14 -15 -12 -16 18 -15 18 1 25 3 16 6 -36 9 -16
23 33 23 41 0 50 -3 45 -15 -9 -24 35 -28 226 -22 284 11 348 17 349 36 1 13
2 13 6 -1 3 -11 13 -18 26 -17 12 0 16 3 10 6 -7 2 -13 9 -13 15 0 6 12 3 26
-7 15 -9 24 -13 20 -7 -3 6 -2 21 3 34 9 21 10 20 10 -11 1 -33 2 -34 17 -15
13 16 15 16 10 2 -3 -10 -3 -18 1 -18 3 0 12 8 19 18 12 16 13 16 19 -1 7 -17
8 -17 20 0 12 16 13 15 8 -7 l-4 -25 -137 -1 c-75 -1 -288 -3 -472 -5 -184 -2
-362 -2 -396 1 -58 5 -60 6 -53 30 7 24 7 24 8 3 2 -41 31 -27 32 15 1 20 3
29 6 20 2 -10 8 -18 13 -18z m3010 -454 l0 -103 -50 -2 c-48 -1 -51 1 -67 33
-28 59 4 122 59 114 26 -4 28 -2 28 29 0 23 5 33 15 33 12 0 15 -18 15 -104z
m-177 26 c44 -49 18 -132 -41 -132 -33 0 -45 8 -61 37 -16 32 -14 57 10 87 24
31 68 35 92 8z m780 0 c44 -49 18 -132 -41 -132 -33 0 -45 8 -61 37 -16 32
-14 57 10 87 24 31 68 35 92 8z m470 0 c44 -49 18 -132 -41 -132 -33 0 -45 8
-61 37 -16 32 -14 57 10 87 24 31 68 35 92 8z m-4035 -128 c16 -5 22 -14 22
-35 0 -16 5 -29 10 -29 6 0 10 -10 10 -22 0 -13 4 -18 8 -13 4 6 19 18 35 28
15 10 27 26 27 37 0 29 17 33 23 5 2 -14 -4 -42 -13 -63 -12 -25 -20 -74 -24
-154 l-6 -118 60 0 59 0 16 55 c9 30 20 55 25 55 5 0 16 -25 25 -55 l16 -55
42 -1 c40 -1 40 -2 12 -9 -16 -4 -25 -8 -20 -9 6 -1 2 -6 -8 -12 -9 -6 -15
-14 -12 -20 10 -15 -32 -10 -45 6 -7 8 -9 15 -4 16 5 0 0 4 -11 9 -11 5 -66 9
-121 9 -77 1 -104 -2 -114 -14 -6 -8 -9 -18 -6 -23 3 -5 -1 -18 -9 -28 -15
-20 -21 -69 -7 -60 5 3 9 -1 9 -9 0 -8 -3 -14 -6 -13 -19 2 -24 -4 -11 -12 10
-6 11 -10 3 -10 -7 0 -13 -7 -13 -15 0 -8 5 -15 11 -15 5 0 7 6 3 13 -4 6 2 4
13 -5 18 -17 59 -18 541 -18 l521 0 7 51 c5 39 12 53 26 57 15 4 17 7 6 13 -7
5 -20 6 -30 3 -9 -2 -20 1 -24 7 -4 8 -3 9 4 5 7 -4 12 -2 12 3 0 14 -139 14
-160 1 -13 -8 -12 -10 4 -10 11 0 17 -3 14 -6 -8 -8 -80 13 -102 29 -15 11
-16 16 -6 22 8 5 11 4 7 -2 -4 -7 38 -10 121 -10 125 0 126 0 37 7 l-90 6 84
2 c46 1 82 4 80 6 -4 4 -438 19 -589 20 -30 1 -56 4 -58 9 -6 14 11 148 19
153 5 3 6 10 3 16 -4 6 -7 24 -6 41 l1 29 -18 -33 c-18 -34 -112 -96 -130 -85
-12 8 -43 125 -37 141 3 9 34 16 90 20 64 6 89 12 95 24 14 25 24 6 11 -20
-11 -20 -10 -21 6 -14 11 4 28 10 39 13 31 8 47 24 40 40 -5 13 -3 13 11 1 10
-8 40 -14 75 -14 41 0 59 -4 59 -12 0 -7 4 -13 10 -13 5 0 6 7 3 17 -4 11 -3
14 5 9 8 -5 13 -55 14 -154 l2 -147 6 155 c3 98 9 153 15 150 5 -3 9 -9 7 -14
-1 -4 4 -19 13 -32 8 -13 15 -30 15 -39 0 -8 5 -15 11 -15 6 0 9 7 6 15 -4 8
-1 17 5 21 7 5 9 -5 3 -32 -4 -21 -11 -41 -15 -44 -5 -3 -5 -12 -1 -19 5 -7
14 -10 20 -7 6 4 9 11 6 16 -3 5 5 20 17 32 13 13 23 32 24 43 0 11 1 41 2 68
l2 47 473 -2 472 -3 0 -40 c0 -22 -4 -101 -8 -176 l-7 -136 94 0 94 0 5 56 c4
31 9 106 13 167 3 62 9 117 13 123 4 7 26 8 59 4 l52 -6 0 -184 0 -185 -55 4
c-52 3 -71 -4 -42 -15 7 -3 5 -6 -5 -6 -10 -1 -18 -8 -18 -16 0 -18 16 -20 23
-2 3 6 6 7 6 2 1 -6 -9 -21 -21 -35 -13 -14 -24 -32 -25 -40 -1 -8 -4 -25 -7
-37 -5 -25 22 -41 36 -21 7 10 9 10 6 -2 -3 -8 -15 -17 -29 -21 -39 -11 -219
-10 -219 1 0 6 26 11 58 12 49 1 51 2 15 5 -30 3 -43 9 -43 19 0 23 -29 74
-58 100 -14 14 -23 27 -20 30 3 3 12 -2 21 -10 12 -12 18 -13 32 -2 11 8 15
18 10 25 -5 9 -10 10 -18 2 -7 -7 -14 -7 -24 0 -7 7 -13 8 -13 3 0 -5 -4 -4
-8 2 -4 6 -24 9 -46 6 -26 -3 -34 -7 -25 -13 10 -6 11 -9 2 -9 -7 0 -13 -7
-13 -16 0 -12 -6 -15 -25 -10 -39 10 -47 -19 -24 -84 11 -30 22 -63 25 -72 6
-15 -21 -16 -358 -12 -199 2 -443 6 -540 9 -125 3 -178 1 -180 -7 -3 -8 -10
-8 -23 -1 -12 7 -99 11 -210 11 -113 0 -180 -3 -165 -8 18 -6 7 -8 -42 -9 -48
-1 -68 3 -69 12 0 10 -2 10 -6 0 -2 -7 -16 -13 -29 -13 -18 0 -24 5 -24 21 0
17 -5 20 -25 17 -14 -3 -25 -1 -25 3 0 5 5 9 10 9 6 0 10 8 10 18 0 10 4 22 9
28 8 8 14 34 22 104 5 38 -1 51 -18 41 -10 -5 -44 -8 -76 -6 -39 2 -55 0 -50
-7 4 -7 0 -9 -10 -5 -10 3 -17 2 -17 -4 0 -6 9 -13 20 -16 12 -3 19 -10 17
-16 -4 -13 -35 -18 -43 -6 -3 5 1 9 8 9 9 1 7 5 -4 14 -10 7 -15 16 -11 19 3
4 -13 7 -37 7 -41 0 -42 -1 -24 -15 18 -13 17 -14 -12 -11 l-30 4 0 -59 c1
-51 4 -59 21 -60 11 -1 0 -5 -25 -9 -40 -6 -41 -7 -12 -8 19 -1 31 -6 27 -12
-4 -6 20 -10 64 -10 71 0 86 -6 72 -29 -7 -10 -9 -10 -14 2 -5 13 -27 14 -139
10 -73 -3 -135 -7 -137 -9 -2 -2 38 -5 90 -6 52 -1 -45 -5 -216 -8 -170 -3
-352 -4 -403 -2 l-92 3 0 279 0 279 52 5 c29 3 134 10 233 16 99 6 199 13 222
16 31 5 44 3 47 -7 3 -8 8 -89 11 -181 l7 -168 90 0 90 0 -7 185 -8 185 174 0
c96 0 184 -3 197 -6z m2842 -174 c14 -14 20 -33 20 -65 0 -79 -66 -114 -109
-59 -59 75 24 189 89 124z m-1090 -699 c16 -31 12 -117 -6 -136 -23 -23 -66
-15 -82 15 -15 29 -10 103 8 125 18 22 67 19 80 -4z"/>
<path d="M2480 820 c0 -6 10 -15 23 -20 21 -8 20 -9 -8 -11 l-30 -2 35 -7 c33
-7 32 -7 -16 -9 -48 -1 -51 -3 -51 -26 0 -14 3 -25 7 -25 5 0 6 -10 2 -22 -4
-17 -2 -20 11 -15 10 4 17 3 17 -1 0 -4 77 -7 170 -6 105 2 170 -1 170 -7 0
-16 20 1 31 25 8 18 9 17 4 -6 -3 -16 -1 -28 4 -28 19 0 19 32 0 77 -15 36
-22 44 -29 33 -6 -8 -10 -12 -10 -8 0 4 -21 -4 -46 -17 -27 -14 -63 -25 -83
-24 -29 0 -32 2 -16 9 11 5 32 11 47 14 20 5 26 11 21 22 -4 10 -8 12 -12 5
-7 -11 -91 -11 -91 0 0 4 7 10 16 13 9 4 14 9 10 13 -10 10 -96 9 -100 -2 -3
-5 -5 -4 -5 3 -1 6 -8 12 -16 12 -8 0 -15 5 -15 10 0 6 -9 10 -20 10 -11 0
-20 -5 -20 -10z"/>
</g>
</svg>
