<svg xmlns="http://www.w3.org/2000/svg" version="1.1" xmlns:xlink="http://www.w3.org/1999/xlink" xmlns:svgjs="http://svgjs.com/svgjs" width="6440" height="5000" preserveAspectRatio="none" viewBox="0 0 6440 5000"><g mask="url(&quot;#SvgjsMask1109&quot;)" fill="none"><rect width="6440" height="5000" x="0" y="0" fill="rgba(80, 60, 148, 1)"></rect><path d="M3986 11L3985 -1523" stroke-width="10" stroke="url(#SvgjsLinearGradient1110)" stroke-linecap="round" class="Down"></path><path d="M4858 3843L4857 6812" stroke-width="8" stroke="url(#SvgjsLinearGradient1110)" stroke-linecap="round" class="Down"></path><path d="M3032 813L3031 3214" stroke-width="6" stroke="url(#SvgjsLinearGradient1110)" stroke-linecap="round" class="Down"></path><path d="M4915 769L4914 -975" stroke-width="10" stroke="url(#SvgjsLinearGradient1111)" stroke-linecap="round" class="Up"></path><path d="M6082 2799L6081 -318" stroke-width="6" stroke="url(#SvgjsLinearGradient1110)" stroke-linecap="round" class="Down"></path><path d="M5915 2980L5914 5948" stroke-width="10" stroke="url(#SvgjsLinearGradient1111)" stroke-linecap="round" class="Up"></path><path d="M3096 1910L3095 -412" stroke-width="6" stroke="url(#SvgjsLinearGradient1111)" stroke-linecap="round" class="Up"></path><path d="M1701 3711L1700 6477" stroke-width="6" stroke="url(#SvgjsLinearGradient1111)" stroke-linecap="round" class="Up"></path><path d="M5737 4630L5736 2935" stroke-width="6" stroke="url(#SvgjsLinearGradient1110)" stroke-linecap="round" class="Down"></path><path d="M3692 2175L3691 -762" stroke-width="6" stroke="url(#SvgjsLinearGradient1111)" stroke-linecap="round" class="Up"></path><path d="M4723 4745L4722 1162" stroke-width="10" stroke="url(#SvgjsLinearGradient1110)" stroke-linecap="round" class="Down"></path><path d="M1827 2174L1826 -281" stroke-width="8" stroke="url(#SvgjsLinearGradient1111)" stroke-linecap="round" class="Up"></path><path d="M333 134L332 2358" stroke-width="6" stroke="url(#SvgjsLinearGradient1111)" stroke-linecap="round" class="Up"></path><path d="M1182 4228L1181 7124" stroke-width="10" stroke="url(#SvgjsLinearGradient1110)" stroke-linecap="round" class="Down"></path><path d="M2901 1917L2900 4507" stroke-width="10" stroke="url(#SvgjsLinearGradient1110)" stroke-linecap="round" class="Down"></path><path d="M5859 2231L5858 -1191" stroke-width="8" stroke="url(#SvgjsLinearGradient1110)" stroke-linecap="round" class="Down"></path><path d="M6434 4069L6433 2188" stroke-width="8" stroke="url(#SvgjsLinearGradient1110)" stroke-linecap="round" class="Down"></path><path d="M29 2978L28 1017" stroke-width="6" stroke="url(#SvgjsLinearGradient1111)" stroke-linecap="round" class="Up"></path><path d="M64 3467L63 6862" stroke-width="6" stroke="url(#SvgjsLinearGradient1111)" stroke-linecap="round" class="Up"></path><path d="M1971 5000L1970 7953" stroke-width="8" stroke="url(#SvgjsLinearGradient1110)" stroke-linecap="round" class="Down"></path><path d="M499 2024L498 4409" stroke-width="10" stroke="url(#SvgjsLinearGradient1111)" stroke-linecap="round" class="Up"></path><path d="M5563 2937L5562 1140" stroke-width="8" stroke="url(#SvgjsLinearGradient1111)" stroke-linecap="round" class="Up"></path><path d="M2517 883L2516 3992" stroke-width="8" stroke="url(#SvgjsLinearGradient1111)" stroke-linecap="round" class="Up"></path><path d="M1139 498L1138 3992" stroke-width="10" stroke="url(#SvgjsLinearGradient1110)" stroke-linecap="round" class="Down"></path><path d="M6361 2479L6360 5330" stroke-width="10" stroke="url(#SvgjsLinearGradient1111)" stroke-linecap="round" class="Up"></path><path d="M4731 1329L4730 -566" stroke-width="10" stroke="url(#SvgjsLinearGradient1110)" stroke-linecap="round" class="Down"></path><path d="M1009 4232L1008 7876" stroke-width="6" stroke="url(#SvgjsLinearGradient1111)" stroke-linecap="round" class="Up"></path><path d="M1225 4295L1224 1363" stroke-width="10" stroke="url(#SvgjsLinearGradient1111)" stroke-linecap="round" class="Up"></path><path d="M1938 4094L1937 6808" stroke-width="6" stroke="url(#SvgjsLinearGradient1111)" stroke-linecap="round" class="Up"></path><path d="M558 2973L557 -331" stroke-width="10" stroke="url(#SvgjsLinearGradient1111)" stroke-linecap="round" class="Up"></path><path d="M3077 4781L3076 8010" stroke-width="8" stroke="url(#SvgjsLinearGradient1111)" stroke-linecap="round" class="Up"></path><path d="M5038 11L5037 -3355" stroke-width="8" stroke="url(#SvgjsLinearGradient1110)" stroke-linecap="round" class="Down"></path><path d="M5162 2812L5161 4063" stroke-width="6" stroke="url(#SvgjsLinearGradient1111)" stroke-linecap="round" class="Up"></path><path d="M3367 875L3366 2675" stroke-width="10" stroke="url(#SvgjsLinearGradient1111)" stroke-linecap="round" class="Up"></path><path d="M527 103L526 2387" stroke-width="6" stroke="url(#SvgjsLinearGradient1110)" stroke-linecap="round" class="Down"></path><path d="M4532 4139L4531 7361" stroke-width="8" stroke="url(#SvgjsLinearGradient1110)" stroke-linecap="round" class="Down"></path><path d="M3533 3636L3532 6861" stroke-width="6" stroke="url(#SvgjsLinearGradient1110)" stroke-linecap="round" class="Down"></path><path d="M3798 2693L3797 -989" stroke-width="8" stroke="url(#SvgjsLinearGradient1111)" stroke-linecap="round" class="Up"></path><path d="M605 2090L604 -560" stroke-width="8" stroke="url(#SvgjsLinearGradient1111)" stroke-linecap="round" class="Up"></path><path d="M4559 46L4558 -2091" stroke-width="6" stroke="url(#SvgjsLinearGradient1111)" stroke-linecap="round" class="Up"></path><path d="M1318 4676L1317 7239" stroke-width="6" stroke="url(#SvgjsLinearGradient1110)" stroke-linecap="round" class="Down"></path><path d="M5153 396L5152 3427" stroke-width="6" stroke="url(#SvgjsLinearGradient1110)" stroke-linecap="round" class="Down"></path><path d="M2044 3667L2043 379" stroke-width="6" stroke="url(#SvgjsLinearGradient1111)" stroke-linecap="round" class="Up"></path><path d="M49 805L48 2537" stroke-width="10" stroke="url(#SvgjsLinearGradient1110)" stroke-linecap="round" class="Down"></path><path d="M4618 1309L4617 -592" stroke-width="10" stroke="url(#SvgjsLinearGradient1110)" stroke-linecap="round" class="Down"></path><path d="M4459 3973L4458 1485" stroke-width="10" stroke="url(#SvgjsLinearGradient1110)" stroke-linecap="round" class="Down"></path><path d="M3303 1170L3302 -2519" stroke-width="6" stroke="url(#SvgjsLinearGradient1110)" stroke-linecap="round" class="Down"></path><path d="M4097 899L4096 2341" stroke-width="8" stroke="url(#SvgjsLinearGradient1111)" stroke-linecap="round" class="Up"></path><path d="M2548 1406L2547 4703" stroke-width="8" stroke="url(#SvgjsLinearGradient1110)" stroke-linecap="round" class="Down"></path><path d="M4725 2388L4724 4280" stroke-width="8" stroke="url(#SvgjsLinearGradient1110)" stroke-linecap="round" class="Down"></path><path d="M198 3946L197 1839" stroke-width="6" stroke="url(#SvgjsLinearGradient1110)" stroke-linecap="round" class="Down"></path><path d="M422 60L421 3292" stroke-width="8" stroke="url(#SvgjsLinearGradient1111)" stroke-linecap="round" class="Up"></path><path d="M1951 635L1950 -2163" stroke-width="10" stroke="url(#SvgjsLinearGradient1110)" stroke-linecap="round" class="Down"></path><path d="M3995 1875L3994 3358" stroke-width="6" stroke="url(#SvgjsLinearGradient1110)" stroke-linecap="round" class="Down"></path><path d="M4325 4651L4324 1044" stroke-width="6" stroke="url(#SvgjsLinearGradient1111)" stroke-linecap="round" class="Up"></path><path d="M2498 3744L2497 5983" stroke-width="6" stroke="url(#SvgjsLinearGradient1110)" stroke-linecap="round" class="Down"></path><path d="M251 3367L250 753" stroke-width="6" stroke="url(#SvgjsLinearGradient1110)" stroke-linecap="round" class="Down"></path><path d="M4238 4982L4237 8125" stroke-width="10" stroke="url(#SvgjsLinearGradient1110)" stroke-linecap="round" class="Down"></path><path d="M4645 2660L4644 -68" stroke-width="10" stroke="url(#SvgjsLinearGradient1110)" stroke-linecap="round" class="Down"></path><path d="M2028 1832L2027 -100" stroke-width="10" stroke="url(#SvgjsLinearGradient1111)" stroke-linecap="round" class="Up"></path><path d="M5923 2272L5922 662" stroke-width="6" stroke="url(#SvgjsLinearGradient1110)" stroke-linecap="round" class="Down"></path><path d="M6 4294L5 2060" stroke-width="8" stroke="url(#SvgjsLinearGradient1111)" stroke-linecap="round" class="Up"></path><path d="M1313 2549L1312 4786" stroke-width="10" stroke="url(#SvgjsLinearGradient1111)" stroke-linecap="round" class="Up"></path><path d="M1464 4916L1463 8209" stroke-width="8" stroke="url(#SvgjsLinearGradient1111)" stroke-linecap="round" class="Up"></path><path d="M4206 821L4205 -1853" stroke-width="6" stroke="url(#SvgjsLinearGradient1111)" stroke-linecap="round" class="Up"></path><path d="M2667 1517L2666 -1172" stroke-width="8" stroke="url(#SvgjsLinearGradient1111)" stroke-linecap="round" class="Up"></path><path d="M1878 2376L1877 -625" stroke-width="8" stroke="url(#SvgjsLinearGradient1111)" stroke-linecap="round" class="Up"></path><path d="M1887 1874L1886 -275" stroke-width="6" stroke="url(#SvgjsLinearGradient1111)" stroke-linecap="round" class="Up"></path><path d="M1451 3608L1450 5970" stroke-width="10" stroke="url(#SvgjsLinearGradient1111)" stroke-linecap="round" class="Up"></path><path d="M364 1097L363 4269" stroke-width="6" stroke="url(#SvgjsLinearGradient1110)" stroke-linecap="round" class="Down"></path><path d="M2025 4773L2024 7719" stroke-width="10" stroke="url(#SvgjsLinearGradient1110)" stroke-linecap="round" class="Down"></path><path d="M157 35L156 2123" stroke-width="8" stroke="url(#SvgjsLinearGradient1110)" stroke-linecap="round" class="Down"></path><path d="M5997 312L5996 3401" stroke-width="8" stroke="url(#SvgjsLinearGradient1111)" stroke-linecap="round" class="Up"></path><path d="M4498 2673L4497 4297" stroke-width="6" stroke="url(#SvgjsLinearGradient1111)" stroke-linecap="round" class="Up"></path><path d="M4089 4303L4088 740" stroke-width="6" stroke="url(#SvgjsLinearGradient1111)" stroke-linecap="round" class="Up"></path><path d="M570 3817L569 7038" stroke-width="6" stroke="url(#SvgjsLinearGradient1111)" stroke-linecap="round" class="Up"></path><path d="M3454 459L3453 2085" stroke-width="6" stroke="url(#SvgjsLinearGradient1110)" stroke-linecap="round" class="Down"></path><path d="M4342 2886L4341 296" stroke-width="8" stroke="url(#SvgjsLinearGradient1111)" stroke-linecap="round" class="Up"></path><path d="M3584 1464L3583 -513" stroke-width="6" stroke="url(#SvgjsLinearGradient1110)" stroke-linecap="round" class="Down"></path><path d="M2359 3742L2358 7053" stroke-width="8" stroke="url(#SvgjsLinearGradient1110)" stroke-linecap="round" class="Down"></path><path d="M4396 4283L4395 6996" stroke-width="8" stroke="url(#SvgjsLinearGradient1111)" stroke-linecap="round" class="Up"></path><path d="M4123 1350L4122 -1033" stroke-width="10" stroke="url(#SvgjsLinearGradient1111)" stroke-linecap="round" class="Up"></path><path d="M2560 3406L2559 368" stroke-width="6" stroke="url(#SvgjsLinearGradient1111)" stroke-linecap="round" class="Up"></path><path d="M5891 4608L5890 5938" stroke-width="6" stroke="url(#SvgjsLinearGradient1110)" stroke-linecap="round" class="Down"></path><path d="M1304 3613L1303 83" stroke-width="8" stroke="url(#SvgjsLinearGradient1111)" stroke-linecap="round" class="Up"></path><path d="M5119 126L5118 2316" stroke-width="6" stroke="url(#SvgjsLinearGradient1111)" stroke-linecap="round" class="Up"></path><path d="M696 1892L695 4440" stroke-width="8" stroke="url(#SvgjsLinearGradient1110)" stroke-linecap="round" class="Down"></path><path d="M5094 1843L5093 4902" stroke-width="10" stroke="url(#SvgjsLinearGradient1110)" stroke-linecap="round" class="Down"></path><path d="M4228 1880L4227 -1162" stroke-width="6" stroke="url(#SvgjsLinearGradient1111)" stroke-linecap="round" class="Up"></path><path d="M1264 561L1263 3476" stroke-width="8" stroke="url(#SvgjsLinearGradient1110)" stroke-linecap="round" class="Down"></path><path d="M1372 28L1371 -2751" stroke-width="6" stroke="url(#SvgjsLinearGradient1111)" stroke-linecap="round" class="Up"></path><path d="M4186 4651L4185 7520" stroke-width="6" stroke="url(#SvgjsLinearGradient1110)" stroke-linecap="round" class="Down"></path><path d="M4227 2175L4226 121" stroke-width="8" stroke="url(#SvgjsLinearGradient1110)" stroke-linecap="round" class="Down"></path><path d="M5158 383L5157 -953" stroke-width="10" stroke="url(#SvgjsLinearGradient1110)" stroke-linecap="round" class="Down"></path><path d="M6029 325L6028 -2268" stroke-width="6" stroke="url(#SvgjsLinearGradient1110)" stroke-linecap="round" class="Down"></path><path d="M2656 1854L2655 3210" stroke-width="6" stroke="url(#SvgjsLinearGradient1110)" stroke-linecap="round" class="Down"></path><path d="M4439 3554L4438 7126" stroke-width="10" stroke="url(#SvgjsLinearGradient1110)" stroke-linecap="round" class="Down"></path><path d="M3600 3159L3599 5851" stroke-width="8" stroke="url(#SvgjsLinearGradient1111)" stroke-linecap="round" class="Up"></path><path d="M2674 3002L2673 74" stroke-width="6" stroke="url(#SvgjsLinearGradient1111)" stroke-linecap="round" class="Up"></path><path d="M464 4741L463 1116" stroke-width="8" stroke="url(#SvgjsLinearGradient1111)" stroke-linecap="round" class="Up"></path><path d="M2640 581L2639 -738" stroke-width="6" stroke="url(#SvgjsLinearGradient1111)" stroke-linecap="round" class="Up"></path><path d="M6432 1232L6431 -370" stroke-width="10" stroke="url(#SvgjsLinearGradient1110)" stroke-linecap="round" class="Down"></path><path d="M311 4899L310 1284" stroke-width="8" stroke="url(#SvgjsLinearGradient1110)" stroke-linecap="round" class="Down"></path><path d="M244 2772L243 1453" stroke-width="6" stroke="url(#SvgjsLinearGradient1111)" stroke-linecap="round" class="Up"></path><path d="M5681 2835L5680 -632" stroke-width="6" stroke="url(#SvgjsLinearGradient1111)" stroke-linecap="round" class="Up"></path><path d="M6200 3790L6199 7018" stroke-width="10" stroke="url(#SvgjsLinearGradient1111)" stroke-linecap="round" class="Up"></path><path d="M2724 3502L2723 6944" stroke-width="6" stroke="url(#SvgjsLinearGradient1110)" stroke-linecap="round" class="Down"></path><path d="M4939 4594L4938 1798" stroke-width="8" stroke="url(#SvgjsLinearGradient1111)" stroke-linecap="round" class="Up"></path><path d="M5214 1805L5213 4729" stroke-width="8" stroke="url(#SvgjsLinearGradient1110)" stroke-linecap="round" class="Down"></path><path d="M2729 1226L2728 -1243" stroke-width="6" stroke="url(#SvgjsLinearGradient1111)" stroke-linecap="round" class="Up"></path><path d="M3162 1158L3161 -2474" stroke-width="10" stroke="url(#SvgjsLinearGradient1111)" stroke-linecap="round" class="Up"></path><path d="M3892 912L3891 -1975" stroke-width="10" stroke="url(#SvgjsLinearGradient1111)" stroke-linecap="round" class="Up"></path><path d="M1328 2431L1327 5925" stroke-width="10" stroke="url(#SvgjsLinearGradient1111)" stroke-linecap="round" class="Up"></path><path d="M6013 4566L6012 5853" stroke-width="10" stroke="url(#SvgjsLinearGradient1110)" stroke-linecap="round" class="Down"></path><path d="M1642 898L1641 -2311" stroke-width="8" stroke="url(#SvgjsLinearGradient1110)" stroke-linecap="round" class="Down"></path><path d="M5559 4542L5558 6601" stroke-width="10" stroke="url(#SvgjsLinearGradient1110)" stroke-linecap="round" class="Down"></path><path d="M509 2884L508 5022" stroke-width="8" stroke="url(#SvgjsLinearGradient1110)" stroke-linecap="round" class="Down"></path><path d="M2615 88L2614 1921" stroke-width="10" stroke="url(#SvgjsLinearGradient1110)" stroke-linecap="round" class="Down"></path><path d="M4105 1004L4104 -1059" stroke-width="8" stroke="url(#SvgjsLinearGradient1110)" stroke-linecap="round" class="Down"></path><path d="M6104 365L6103 3298" stroke-width="8" stroke="url(#SvgjsLinearGradient1110)" stroke-linecap="round" class="Down"></path><path d="M6301 1686L6300 237" stroke-width="6" stroke="url(#SvgjsLinearGradient1111)" stroke-linecap="round" class="Up"></path><path d="M4358 32L4357 -1249" stroke-width="8" stroke="url(#SvgjsLinearGradient1110)" stroke-linecap="round" class="Down"></path><path d="M6403 3216L6402 1150" stroke-width="10" stroke="url(#SvgjsLinearGradient1111)" stroke-linecap="round" class="Up"></path><path d="M2553 733L2552 4308" stroke-width="8" stroke="url(#SvgjsLinearGradient1111)" stroke-linecap="round" class="Up"></path><path d="M4248 351L4247 2025" stroke-width="6" stroke="url(#SvgjsLinearGradient1110)" stroke-linecap="round" class="Down"></path><path d="M4177 559L4176 2188" stroke-width="6" stroke="url(#SvgjsLinearGradient1110)" stroke-linecap="round" class="Down"></path><path d="M6408 4348L6407 1598" stroke-width="10" stroke="url(#SvgjsLinearGradient1111)" stroke-linecap="round" class="Up"></path><path d="M1098 3934L1097 7128" stroke-width="6" stroke="url(#SvgjsLinearGradient1110)" stroke-linecap="round" class="Down"></path><path d="M5450 4822L5449 7551" stroke-width="10" stroke="url(#SvgjsLinearGradient1111)" stroke-linecap="round" class="Up"></path><path d="M5926 4098L5925 5411" stroke-width="6" stroke="url(#SvgjsLinearGradient1110)" stroke-linecap="round" class="Down"></path><path d="M5905 2413L5904 5307" stroke-width="6" stroke="url(#SvgjsLinearGradient1111)" stroke-linecap="round" class="Up"></path><path d="M2617 709L2616 2912" stroke-width="8" stroke="url(#SvgjsLinearGradient1110)" stroke-linecap="round" class="Down"></path><path d="M4995 1122L4994 2713" stroke-width="6" stroke="url(#SvgjsLinearGradient1111)" stroke-linecap="round" class="Up"></path><path d="M4259 918L4258 -2075" stroke-width="8" stroke="url(#SvgjsLinearGradient1110)" stroke-linecap="round" class="Down"></path><path d="M311 1567L310 4472" stroke-width="8" stroke="url(#SvgjsLinearGradient1110)" stroke-linecap="round" class="Down"></path><path d="M45 72L44 1550" stroke-width="8" stroke="url(#SvgjsLinearGradient1111)" stroke-linecap="round" class="Up"></path><path d="M5626 2499L5625 6085" stroke-width="8" stroke="url(#SvgjsLinearGradient1110)" stroke-linecap="round" class="Down"></path><path d="M60 1603L59 3262" stroke-width="10" stroke="url(#SvgjsLinearGradient1110)" stroke-linecap="round" class="Down"></path><path d="M532 1099L531 -1662" stroke-width="8" stroke="url(#SvgjsLinearGradient1110)" stroke-linecap="round" class="Down"></path><path d="M5943 4989L5942 8183" stroke-width="6" stroke="url(#SvgjsLinearGradient1110)" stroke-linecap="round" class="Down"></path><path d="M5221 4498L5220 6048" stroke-width="8" stroke="url(#SvgjsLinearGradient1111)" stroke-linecap="round" class="Up"></path><path d="M1002 825L1001 2192" stroke-width="8" stroke="url(#SvgjsLinearGradient1110)" stroke-linecap="round" class="Down"></path><path d="M3329 915L3328 3852" stroke-width="8" stroke="url(#SvgjsLinearGradient1111)" stroke-linecap="round" class="Up"></path><path d="M5947 2952L5946 5846" stroke-width="6" stroke="url(#SvgjsLinearGradient1111)" stroke-linecap="round" class="Up"></path><path d="M5127 1076L5126 4124" stroke-width="8" stroke="url(#SvgjsLinearGradient1110)" stroke-linecap="round" class="Down"></path><path d="M3699 4284L3698 2112" stroke-width="10" stroke="url(#SvgjsLinearGradient1111)" stroke-linecap="round" class="Up"></path><path d="M5080 2849L5079 1420" stroke-width="8" stroke="url(#SvgjsLinearGradient1111)" stroke-linecap="round" class="Up"></path><path d="M3087 32L3086 -3532" stroke-width="10" stroke="url(#SvgjsLinearGradient1111)" stroke-linecap="round" class="Up"></path><path d="M3014 4853L3013 6455" stroke-width="6" stroke="url(#SvgjsLinearGradient1111)" stroke-linecap="round" class="Up"></path><path d="M1157 2835L1156 -26" stroke-width="8" stroke="url(#SvgjsLinearGradient1111)" stroke-linecap="round" class="Up"></path><path d="M6359 1345L6358 -298" stroke-width="8" stroke="url(#SvgjsLinearGradient1110)" stroke-linecap="round" class="Down"></path><path d="M631 1832L630 -8" stroke-width="6" stroke="url(#SvgjsLinearGradient1111)" stroke-linecap="round" class="Up"></path><path d="M703 2747L702 5396" stroke-width="8" stroke="url(#SvgjsLinearGradient1110)" stroke-linecap="round" class="Down"></path><path d="M766 1776L765 -176" stroke-width="8" stroke="url(#SvgjsLinearGradient1110)" stroke-linecap="round" class="Down"></path><path d="M6326 3719L6325 1489" stroke-width="8" stroke="url(#SvgjsLinearGradient1110)" stroke-linecap="round" class="Down"></path><path d="M5396 2832L5395 4413" stroke-width="6" stroke="url(#SvgjsLinearGradient1111)" stroke-linecap="round" class="Up"></path><path d="M5814 3966L5813 1238" stroke-width="10" stroke="url(#SvgjsLinearGradient1111)" stroke-linecap="round" class="Up"></path><path d="M3140 1331L3139 -2203" stroke-width="6" stroke="url(#SvgjsLinearGradient1110)" stroke-linecap="round" class="Down"></path><path d="M4437 3443L4436 6363" stroke-width="6" stroke="url(#SvgjsLinearGradient1111)" stroke-linecap="round" class="Up"></path><path d="M3927 3657L3926 7167" stroke-width="6" stroke="url(#SvgjsLinearGradient1111)" stroke-linecap="round" class="Up"></path><path d="M1233 4385L1232 6675" stroke-width="8" stroke="url(#SvgjsLinearGradient1110)" stroke-linecap="round" class="Down"></path></g><defs><mask id="SvgjsMask1109"><rect width="6440" height="5000" fill="#ffffff"></rect></mask><linearGradient x1="0%" y1="0%" x2="0%" y2="100%" id="SvgjsLinearGradient1110"><stop stop-color="rgba(80, 60, 148, 0)" offset="0"></stop><stop stop-color="rgba(80, 60, 148, 1)" offset="1"></stop></linearGradient><linearGradient x1="0%" y1="100%" x2="0%" y2="0%" id="SvgjsLinearGradient1111"><stop stop-color="rgba(80, 60, 148, 0)" offset="0"></stop><stop stop-color="rgba(80, 60, 148, 1)" offset="1"></stop></linearGradient></defs></svg>