<svg xmlns="http://www.w3.org/2000/svg" version="1.1" xmlns:xlink="http://www.w3.org/1999/xlink" xmlns:svgjs="http://svgjs.com/svgjs" width="1440" height="560" preserveAspectRatio="none" viewBox="0 0 1440 560"><g mask="url(&quot;#SvgjsMask1013&quot;)" fill="none"><rect width="1440" height="560" x="0" y="0" fill="rgba(80, 60, 148, 1)"></rect><path d="M1101 159L1100 479" stroke-width="6" stroke="url(#SvgjsLinearGradient1014)" stroke-linecap="round" class="Down"></path><path d="M324 127L323 -98" stroke-width="6" stroke="url(#SvgjsLinearGradient1014)" stroke-linecap="round" class="Down"></path><path d="M1346 308L1345 19" stroke-width="10" stroke="url(#SvgjsLinearGradient1014)" stroke-linecap="round" class="Down"></path><path d="M221 246L220 427" stroke-width="6" stroke="url(#SvgjsLinearGradient1015)" stroke-linecap="round" class="Up"></path><path d="M866 76L865 -303" stroke-width="10" stroke="url(#SvgjsLinearGradient1014)" stroke-linecap="round" class="Down"></path><path d="M1127 156L1126 480" stroke-width="8" stroke="url(#SvgjsLinearGradient1016)" stroke-linecap="round" class="Down"></path><path d="M572 456L571 792" stroke-width="10" stroke="url(#SvgjsLinearGradient1017)" stroke-linecap="round" class="Up"></path><path d="M258 5L257 408" stroke-width="6" stroke="url(#SvgjsLinearGradient1017)" stroke-linecap="round" class="Up"></path><path d="M98 141L97 288" stroke-width="6" stroke="url(#SvgjsLinearGradient1016)" stroke-linecap="round" class="Down"></path><path d="M380 552L379 312" stroke-width="10" stroke="url(#SvgjsLinearGradient1015)" stroke-linecap="round" class="Up"></path><path d="M936 335L935 16" stroke-width="10" stroke="url(#SvgjsLinearGradient1014)" stroke-linecap="round" class="Down"></path><path d="M1014 265L1013 499" stroke-width="8" stroke="url(#SvgjsLinearGradient1016)" stroke-linecap="round" class="Down"></path><path d="M789 301L788 449" stroke-width="6" stroke="url(#SvgjsLinearGradient1016)" stroke-linecap="round" class="Down"></path><path d="M665 64L664 -333" stroke-width="6" stroke="url(#SvgjsLinearGradient1014)" stroke-linecap="round" class="Down"></path><path d="M158 440L157 846" stroke-width="6" stroke="url(#SvgjsLinearGradient1017)" stroke-linecap="round" class="Up"></path><path d="M274 510L273 180" stroke-width="10" stroke="url(#SvgjsLinearGradient1017)" stroke-linecap="round" class="Up"></path><path d="M555 552L554 905" stroke-width="10" stroke="url(#SvgjsLinearGradient1014)" stroke-linecap="round" class="Down"></path><path d="M488 125L487 -208" stroke-width="8" stroke="url(#SvgjsLinearGradient1016)" stroke-linecap="round" class="Down"></path><path d="M1438 311L1437 484" stroke-width="8" stroke="url(#SvgjsLinearGradient1016)" stroke-linecap="round" class="Down"></path><path d="M249 279L248 654" stroke-width="6" stroke="url(#SvgjsLinearGradient1015)" stroke-linecap="round" class="Up"></path><path d="M654 386L653 630" stroke-width="8" stroke="url(#SvgjsLinearGradient1016)" stroke-linecap="round" class="Down"></path><path d="M334 108L333 -301" stroke-width="6" stroke="url(#SvgjsLinearGradient1016)" stroke-linecap="round" class="Down"></path><path d="M259 143L258 -227" stroke-width="8" stroke="url(#SvgjsLinearGradient1015)" stroke-linecap="round" class="Up"></path><path d="M128 368L127 228" stroke-width="8" stroke="url(#SvgjsLinearGradient1015)" stroke-linecap="round" class="Up"></path><path d="M1274 272L1273 632" stroke-width="8" stroke="url(#SvgjsLinearGradient1016)" stroke-linecap="round" class="Down"></path><path d="M667 43L666 -100" stroke-width="6" stroke="url(#SvgjsLinearGradient1016)" stroke-linecap="round" class="Down"></path><path d="M937 39L936 192" stroke-width="8" stroke="url(#SvgjsLinearGradient1017)" stroke-linecap="round" class="Up"></path><path d="M1374 22L1373 396" stroke-width="10" stroke="url(#SvgjsLinearGradient1015)" stroke-linecap="round" class="Up"></path><path d="M111 1L110 -213" stroke-width="10" stroke="url(#SvgjsLinearGradient1014)" stroke-linecap="round" class="Down"></path><path d="M76 557L75 711" stroke-width="10" stroke="url(#SvgjsLinearGradient1017)" stroke-linecap="round" class="Up"></path><path d="M304 65L303 392" stroke-width="6" stroke="url(#SvgjsLinearGradient1016)" stroke-linecap="round" class="Down"></path><path d="M1420 186L1419 342" stroke-width="8" stroke="url(#SvgjsLinearGradient1017)" stroke-linecap="round" class="Up"></path><path d="M750 215L749 489" stroke-width="8" stroke="url(#SvgjsLinearGradient1017)" stroke-linecap="round" class="Up"></path><path d="M451 138L450 -50" stroke-width="6" stroke="url(#SvgjsLinearGradient1016)" stroke-linecap="round" class="Down"></path><path d="M335 324L334 176" stroke-width="8" stroke="url(#SvgjsLinearGradient1015)" stroke-linecap="round" class="Up"></path><path d="M994 280L993 -131" stroke-width="8" stroke="url(#SvgjsLinearGradient1016)" stroke-linecap="round" class="Down"></path></g><defs><mask id="SvgjsMask1013"><rect width="1440" height="560" fill="#ffffff"></rect></mask><linearGradient x1="0%" y1="0%" x2="0%" y2="100%" id="SvgjsLinearGradient1014"><stop stop-color="rgba(80, 60, 148, 0)" offset="0"></stop><stop stop-color="rgba(80, 60, 148, 1)" offset="1"></stop></linearGradient><linearGradient x1="0%" y1="100%" x2="0%" y2="0%" id="SvgjsLinearGradient1015"><stop stop-color="rgba(71, 235, 213, 0)" offset="0"></stop><stop stop-color="rgba(71, 235, 213, 1)" offset="1"></stop></linearGradient><linearGradient x1="0%" y1="0%" x2="0%" y2="100%" id="SvgjsLinearGradient1016"><stop stop-color="rgba(71, 235, 213, 0)" offset="0"></stop><stop stop-color="rgba(71, 235, 213, 1)" offset="1"></stop></linearGradient><linearGradient x1="0%" y1="100%" x2="0%" y2="0%" id="SvgjsLinearGradient1017"><stop stop-color="rgba(80, 60, 148, 0)" offset="0"></stop><stop stop-color="rgba(80, 60, 148, 1)" offset="1"></stop></linearGradient></defs></svg>