<?xml version="1.0" encoding="UTF-8"?>
<svg xmlns="http://www.w3.org/2000/svg" xmlns:xlink="http://www.w3.org/1999/xlink" width="1300px" height="325px" viewBox="0 0 1300 325" version="1.1">
<g id="surface1">
<path style=" stroke:none;fill-rule:nonzero;fill:rgb(74.901961%,74.901961%,74.901961%);fill-opacity:1;" d="M 1.847656 65.765625 L 5.632812 65.765625 L 5.632812 3.582031 L 20.1875 3.582031 L 20.1875 1.085938 L 1.847656 1.085938 Z M 1.847656 65.765625 "/>
<path style=" stroke:none;fill-rule:nonzero;fill:rgb(74.901961%,74.901961%,74.901961%);fill-opacity:1;" d="M 1.847656 87.390625 L 5.632812 87.390625 L 5.632812 65.738281 L 1.847656 65.738281 Z M 1.847656 87.390625 "/>
<path style=" stroke:none;fill-rule:nonzero;fill:rgb(74.901961%,74.901961%,74.901961%);fill-opacity:1;" d="M 1.847656 108.960938 L 5.632812 108.960938 L 5.632812 87.3125 L 1.847656 87.3125 Z M 1.847656 108.960938 "/>
<path style=" stroke:none;fill-rule:nonzero;fill:rgb(74.901961%,74.901961%,74.901961%);fill-opacity:1;" d="M 1.847656 130.546875 L 5.632812 130.546875 L 5.632812 108.894531 L 1.847656 108.894531 Z M 1.847656 130.546875 "/>
<path style=" stroke:none;fill-rule:nonzero;fill:rgb(74.901961%,74.901961%,74.901961%);fill-opacity:1;" d="M 1.847656 152.117188 L 5.632812 152.117188 L 5.632812 130.46875 L 1.847656 130.46875 Z M 1.847656 152.117188 "/>
<path style=" stroke:none;fill-rule:nonzero;fill:rgb(74.901961%,74.901961%,74.901961%);fill-opacity:1;" d="M 1.847656 173.703125 L 5.632812 173.703125 L 5.632812 152.054688 L 1.847656 152.054688 Z M 1.847656 173.703125 "/>
<path style=" stroke:none;fill-rule:nonzero;fill:rgb(74.901961%,74.901961%,74.901961%);fill-opacity:1;" d="M 1.847656 195.273438 L 5.632812 195.273438 L 5.632812 173.625 L 1.847656 173.625 Z M 1.847656 195.273438 "/>
<path style=" stroke:none;fill-rule:nonzero;fill:rgb(74.901961%,74.901961%,74.901961%);fill-opacity:1;" d="M 1.847656 216.859375 L 5.632812 216.859375 L 5.632812 195.210938 L 1.847656 195.210938 Z M 1.847656 216.859375 "/>
<path style=" stroke:none;fill-rule:nonzero;fill:rgb(74.901961%,74.901961%,74.901961%);fill-opacity:1;" d="M 1.847656 238.433594 L 5.632812 238.433594 L 5.632812 216.78125 L 1.847656 216.78125 Z M 1.847656 238.433594 "/>
<path style=" stroke:none;fill-rule:nonzero;fill:rgb(74.901961%,74.901961%,74.901961%);fill-opacity:1;" d="M 1.847656 260.015625 L 5.632812 260.015625 L 5.632812 238.367188 L 1.847656 238.367188 Z M 1.847656 260.015625 "/>
<path style=" stroke:none;fill-rule:nonzero;fill:rgb(74.901961%,74.901961%,74.901961%);fill-opacity:1;" d="M 1.847656 324.671875 L 20.1875 324.671875 L 20.1875 322.175781 L 5.632812 322.175781 L 5.632812 259.992188 L 1.847656 259.992188 Z M 1.847656 324.671875 "/>
<path style=" stroke:none;fill-rule:nonzero;fill:rgb(74.901961%,74.901961%,74.901961%);fill-opacity:1;" d="M 66.765625 81.847656 C 51.449219 82.9375 50.890625 92.820312 50.890625 99.824219 C 50.890625 106.035156 51.933594 116.441406 68.121094 116.441406 C 80.105469 116.441406 85.105469 109.550781 85.105469 100.957031 L 85.105469 97.945312 C 85.105469 90.960938 82.429688 81.78125 68.226562 81.78125 C 67.738281 81.78125 67.253906 81.78125 66.765625 81.847656 Z M 58.535156 102.5 C 58.429688 102.09375 58.429688 101.683594 58.429688 101.277344 C 58.429688 98.101562 58.429688 94.949219 58.777344 91.777344 C 58.917969 89.757812 59.160156 87.492188 60.828125 85.722656 C 62.492188 84.070312 65.273438 83.09375 68.121094 83.09375 C 76.769531 83.09375 77.5 89.828125 77.5 94.949219 L 77.5 97.945312 C 77.5 99.394531 77.566406 101.003906 77.566406 102.660156 C 77.566406 106.035156 77.253906 109.550781 75.519531 112 C 73.992188 113.8125 71.140625 115.261719 67.980469 115.261719 L 67.808594 115.261719 C 62.804688 115.261719 59.957031 112.042969 59.332031 109.1875 C 58.671875 106.964844 58.847656 104.746094 58.535156 102.5 Z M 58.535156 102.5 "/>
<path style=" stroke:none;fill-rule:nonzero;fill:rgb(74.901961%,74.901961%,74.901961%);fill-opacity:1;" d="M 289.835938 85.15625 L 289.835938 86.652344 C 293.378906 86.652344 296.957031 86.449219 300.359375 85.722656 L 300.359375 113.539062 L 300.222656 114.109375 L 299.421875 114.265625 L 290.21875 114.265625 L 290.21875 115.832031 L 317.902344 115.832031 L 317.902344 114.3125 L 309.425781 114.3125 C 308.558594 114.3125 307.828125 114.222656 307.828125 113.585938 L 307.828125 82.503906 C 307.828125 82.253906 307.828125 81.847656 307.273438 81.847656 C 306.089844 81.847656 304.667969 82.9375 303.382812 83.34375 C 299.25 84.792969 294.488281 85.15625 289.835938 85.15625 Z M 289.835938 85.15625 "/>
<path style=" stroke:none;fill-rule:nonzero;fill:rgb(74.901961%,74.901961%,74.901961%);fill-opacity:1;" d="M 66.398438 241.855469 L 66.398438 243.351562 C 69.941406 243.351562 73.519531 243.144531 76.921875 242.421875 L 76.921875 270.238281 L 76.785156 270.804688 L 75.984375 270.960938 L 66.78125 270.960938 L 66.78125 272.527344 L 94.464844 272.527344 L 94.464844 271.007812 L 85.988281 271.007812 C 85.121094 271.007812 84.390625 270.917969 84.390625 270.28125 L 84.390625 239.203125 C 84.390625 238.953125 84.390625 238.542969 83.835938 238.542969 C 82.652344 238.542969 81.230469 239.632812 79.945312 240.039062 C 75.8125 241.492188 71.054688 241.855469 66.398438 241.855469 Z M 66.398438 241.855469 "/>
<path style=" stroke:none;fill-rule:nonzero;fill:rgb(74.901961%,74.901961%,74.901961%);fill-opacity:1;" d="M 315.59375 238.542969 C 300.273438 239.632812 299.71875 249.515625 299.71875 256.523438 C 299.71875 262.734375 300.761719 273.140625 316.945312 273.140625 C 328.929688 273.140625 333.933594 266.246094 333.933594 257.65625 L 333.933594 254.640625 C 333.933594 247.65625 331.257812 238.476562 317.050781 238.476562 C 316.566406 238.476562 316.078125 238.476562 315.59375 238.542969 Z M 307.359375 259.195312 C 307.257812 258.789062 307.257812 258.378906 307.257812 257.972656 C 307.257812 254.796875 307.257812 251.648438 307.605469 248.472656 C 307.742188 246.457031 307.984375 244.1875 309.652344 242.421875 C 311.320312 240.765625 314.097656 239.792969 316.945312 239.792969 C 325.597656 239.792969 326.324219 246.523438 326.324219 251.648438 L 326.324219 254.640625 C 326.324219 256.089844 326.394531 257.699219 326.394531 259.355469 C 326.394531 262.734375 326.082031 266.246094 324.34375 268.695312 C 322.816406 270.507812 319.96875 271.960938 316.808594 271.960938 L 316.632812 271.960938 C 311.632812 271.960938 308.785156 268.742188 308.160156 265.882812 C 307.5 263.664062 307.671875 261.441406 307.359375 259.195312 Z M 307.359375 259.195312 "/>
<path style=" stroke:none;fill-rule:nonzero;fill:rgb(74.901961%,74.901961%,74.901961%);fill-opacity:1;" d="M 365.75 65.765625 L 369.539062 65.765625 L 369.539062 1.085938 L 351.199219 1.085938 L 351.199219 3.582031 L 365.75 3.582031 Z M 365.75 65.765625 "/>
<path style=" stroke:none;fill-rule:nonzero;fill:rgb(74.901961%,74.901961%,74.901961%);fill-opacity:1;" d="M 365.75 87.390625 L 369.539062 87.390625 L 369.539062 65.738281 L 365.75 65.738281 Z M 365.75 87.390625 "/>
<path style=" stroke:none;fill-rule:nonzero;fill:rgb(74.901961%,74.901961%,74.901961%);fill-opacity:1;" d="M 365.75 108.960938 L 369.539062 108.960938 L 369.539062 87.3125 L 365.75 87.3125 Z M 365.75 108.960938 "/>
<path style=" stroke:none;fill-rule:nonzero;fill:rgb(74.901961%,74.901961%,74.901961%);fill-opacity:1;" d="M 365.75 130.546875 L 369.539062 130.546875 L 369.539062 108.898438 L 365.75 108.898438 Z M 365.75 130.546875 "/>
<path style=" stroke:none;fill-rule:nonzero;fill:rgb(74.901961%,74.901961%,74.901961%);fill-opacity:1;" d="M 365.75 152.117188 L 369.539062 152.117188 L 369.539062 130.46875 L 365.75 130.46875 Z M 365.75 152.117188 "/>
<path style=" stroke:none;fill-rule:nonzero;fill:rgb(74.901961%,74.901961%,74.901961%);fill-opacity:1;" d="M 365.75 173.703125 L 369.539062 173.703125 L 369.539062 152.054688 L 365.75 152.054688 Z M 365.75 173.703125 "/>
<path style=" stroke:none;fill-rule:nonzero;fill:rgb(74.901961%,74.901961%,74.901961%);fill-opacity:1;" d="M 365.75 195.273438 L 369.539062 195.273438 L 369.539062 173.625 L 365.75 173.625 Z M 365.75 195.273438 "/>
<path style=" stroke:none;fill-rule:nonzero;fill:rgb(74.901961%,74.901961%,74.901961%);fill-opacity:1;" d="M 365.75 216.859375 L 369.539062 216.859375 L 369.539062 195.210938 L 365.75 195.210938 Z M 365.75 216.859375 "/>
<path style=" stroke:none;fill-rule:nonzero;fill:rgb(74.901961%,74.901961%,74.901961%);fill-opacity:1;" d="M 365.75 238.433594 L 369.539062 238.433594 L 369.539062 216.78125 L 365.75 216.78125 Z M 365.75 238.433594 "/>
<path style=" stroke:none;fill-rule:nonzero;fill:rgb(74.901961%,74.901961%,74.901961%);fill-opacity:1;" d="M 365.75 260.015625 L 369.539062 260.015625 L 369.539062 238.367188 L 365.75 238.367188 Z M 365.75 260.015625 "/>
<path style=" stroke:none;fill-rule:nonzero;fill:rgb(74.901961%,74.901961%,74.901961%);fill-opacity:1;" d="M 365.75 322.175781 L 351.199219 322.175781 L 351.199219 324.671875 L 369.539062 324.671875 L 369.539062 259.992188 L 365.75 259.992188 Z M 365.75 322.175781 "/>
<path style=" stroke:none;fill-rule:nonzero;fill:rgb(74.901961%,74.901961%,74.901961%);fill-opacity:1;" d="M 414.6875 65.765625 L 418.476562 65.765625 L 418.476562 3.582031 L 433.027344 3.582031 L 433.027344 1.085938 L 414.6875 1.085938 Z M 414.6875 65.765625 "/>
<path style=" stroke:none;fill-rule:nonzero;fill:rgb(74.901961%,74.901961%,74.901961%);fill-opacity:1;" d="M 414.6875 87.390625 L 418.476562 87.390625 L 418.476562 65.738281 L 414.6875 65.738281 Z M 414.6875 87.390625 "/>
<path style=" stroke:none;fill-rule:nonzero;fill:rgb(74.901961%,74.901961%,74.901961%);fill-opacity:1;" d="M 414.6875 108.960938 L 418.476562 108.960938 L 418.476562 87.3125 L 414.6875 87.3125 Z M 414.6875 108.960938 "/>
<path style=" stroke:none;fill-rule:nonzero;fill:rgb(74.901961%,74.901961%,74.901961%);fill-opacity:1;" d="M 414.6875 130.546875 L 418.476562 130.546875 L 418.476562 108.898438 L 414.6875 108.898438 Z M 414.6875 130.546875 "/>
<path style=" stroke:none;fill-rule:nonzero;fill:rgb(74.901961%,74.901961%,74.901961%);fill-opacity:1;" d="M 414.6875 152.117188 L 418.476562 152.117188 L 418.476562 130.46875 L 414.6875 130.46875 Z M 414.6875 152.117188 "/>
<path style=" stroke:none;fill-rule:nonzero;fill:rgb(74.901961%,74.901961%,74.901961%);fill-opacity:1;" d="M 414.6875 173.703125 L 418.476562 173.703125 L 418.476562 152.054688 L 414.6875 152.054688 Z M 414.6875 173.703125 "/>
<path style=" stroke:none;fill-rule:nonzero;fill:rgb(74.901961%,74.901961%,74.901961%);fill-opacity:1;" d="M 414.6875 195.277344 L 418.476562 195.277344 L 418.476562 173.625 L 414.6875 173.625 Z M 414.6875 195.277344 "/>
<path style=" stroke:none;fill-rule:nonzero;fill:rgb(74.901961%,74.901961%,74.901961%);fill-opacity:1;" d="M 414.6875 216.859375 L 418.476562 216.859375 L 418.476562 195.210938 L 414.6875 195.210938 Z M 414.6875 216.859375 "/>
<path style=" stroke:none;fill-rule:nonzero;fill:rgb(74.901961%,74.901961%,74.901961%);fill-opacity:1;" d="M 414.6875 238.433594 L 418.476562 238.433594 L 418.476562 216.78125 L 414.6875 216.78125 Z M 414.6875 238.433594 "/>
<path style=" stroke:none;fill-rule:nonzero;fill:rgb(74.901961%,74.901961%,74.901961%);fill-opacity:1;" d="M 414.6875 260.019531 L 418.476562 260.019531 L 418.476562 238.367188 L 414.6875 238.367188 Z M 414.6875 260.019531 "/>
<path style=" stroke:none;fill-rule:nonzero;fill:rgb(74.901961%,74.901961%,74.901961%);fill-opacity:1;" d="M 414.6875 324.671875 L 433.027344 324.671875 L 433.027344 322.175781 L 418.476562 322.175781 L 418.476562 259.992188 L 414.6875 259.992188 Z M 414.6875 324.671875 "/>
<path style=" stroke:none;fill-rule:nonzero;fill:rgb(74.901961%,74.901961%,74.901961%);fill-opacity:1;" d="M 518.191406 85.15625 L 518.191406 86.652344 C 521.734375 86.652344 525.3125 86.449219 528.71875 85.726562 L 528.71875 113.539062 L 528.578125 114.109375 L 527.78125 114.265625 L 518.574219 114.265625 L 518.574219 115.832031 L 546.257812 115.832031 L 546.257812 114.3125 L 537.78125 114.3125 C 536.914062 114.3125 536.183594 114.222656 536.183594 113.585938 L 536.183594 82.503906 C 536.183594 82.257812 536.183594 81.847656 535.628906 81.847656 C 534.449219 81.847656 533.023438 82.9375 531.738281 83.34375 C 527.605469 84.796875 522.847656 85.15625 518.191406 85.15625 Z M 518.191406 85.15625 "/>
<path style=" stroke:none;fill-rule:nonzero;fill:rgb(74.901961%,74.901961%,74.901961%);fill-opacity:1;" d="M 530.386719 238.542969 C 515.066406 239.632812 514.511719 249.515625 514.511719 256.523438 C 514.511719 262.734375 515.554688 273.140625 531.738281 273.140625 C 543.722656 273.140625 548.722656 266.246094 548.722656 257.65625 L 548.722656 254.640625 C 548.722656 247.65625 546.050781 238.476562 531.84375 238.476562 C 531.355469 238.476562 530.871094 238.476562 530.386719 238.542969 Z M 522.152344 259.195312 C 522.046875 258.789062 522.046875 258.382812 522.046875 257.972656 C 522.046875 254.800781 522.046875 251.648438 522.394531 248.472656 C 522.535156 246.457031 522.777344 244.1875 524.445312 242.421875 C 526.113281 240.765625 528.890625 239.792969 531.738281 239.792969 C 540.386719 239.792969 541.117188 246.523438 541.117188 251.648438 L 541.117188 254.640625 C 541.117188 256.089844 541.1875 257.699219 541.1875 259.355469 C 541.1875 262.734375 540.875 266.246094 539.136719 268.695312 C 537.609375 270.507812 534.761719 271.960938 531.601562 271.960938 L 531.425781 271.960938 C 526.425781 271.960938 523.578125 268.742188 522.953125 265.882812 C 522.292969 263.664062 522.464844 261.441406 522.152344 259.195312 Z M 522.152344 259.195312 "/>
<path style=" stroke:none;fill-rule:nonzero;fill:rgb(74.901961%,74.901961%,74.901961%);fill-opacity:1;" d="M 648.289062 65.765625 L 652.074219 65.765625 L 652.074219 1.085938 L 633.734375 1.085938 L 633.734375 3.582031 L 648.289062 3.582031 Z M 648.289062 65.765625 "/>
<path style=" stroke:none;fill-rule:nonzero;fill:rgb(74.901961%,74.901961%,74.901961%);fill-opacity:1;" d="M 648.289062 87.390625 L 652.074219 87.390625 L 652.074219 65.738281 L 648.289062 65.738281 Z M 648.289062 87.390625 "/>
<path style=" stroke:none;fill-rule:nonzero;fill:rgb(74.901961%,74.901961%,74.901961%);fill-opacity:1;" d="M 648.289062 108.960938 L 652.074219 108.960938 L 652.074219 87.3125 L 648.289062 87.3125 Z M 648.289062 108.960938 "/>
<path style=" stroke:none;fill-rule:nonzero;fill:rgb(74.901961%,74.901961%,74.901961%);fill-opacity:1;" d="M 648.289062 130.546875 L 652.074219 130.546875 L 652.074219 108.898438 L 648.289062 108.898438 Z M 648.289062 130.546875 "/>
<path style=" stroke:none;fill-rule:nonzero;fill:rgb(74.901961%,74.901961%,74.901961%);fill-opacity:1;" d="M 648.289062 152.117188 L 652.074219 152.117188 L 652.074219 130.46875 L 648.289062 130.46875 Z M 648.289062 152.117188 "/>
<path style=" stroke:none;fill-rule:nonzero;fill:rgb(74.901961%,74.901961%,74.901961%);fill-opacity:1;" d="M 648.289062 173.703125 L 652.074219 173.703125 L 652.074219 152.054688 L 648.289062 152.054688 Z M 648.289062 173.703125 "/>
<path style=" stroke:none;fill-rule:nonzero;fill:rgb(74.901961%,74.901961%,74.901961%);fill-opacity:1;" d="M 648.289062 195.277344 L 652.074219 195.277344 L 652.074219 173.625 L 648.289062 173.625 Z M 648.289062 195.277344 "/>
<path style=" stroke:none;fill-rule:nonzero;fill:rgb(74.901961%,74.901961%,74.901961%);fill-opacity:1;" d="M 648.289062 216.859375 L 652.074219 216.859375 L 652.074219 195.210938 L 648.289062 195.210938 Z M 648.289062 216.859375 "/>
<path style=" stroke:none;fill-rule:nonzero;fill:rgb(74.901961%,74.901961%,74.901961%);fill-opacity:1;" d="M 648.289062 238.433594 L 652.074219 238.433594 L 652.074219 216.78125 L 648.289062 216.78125 Z M 648.289062 238.433594 "/>
<path style=" stroke:none;fill-rule:nonzero;fill:rgb(74.901961%,74.901961%,74.901961%);fill-opacity:1;" d="M 648.289062 260.019531 L 652.074219 260.019531 L 652.074219 238.367188 L 648.289062 238.367188 Z M 648.289062 260.019531 "/>
<path style=" stroke:none;fill-rule:nonzero;fill:rgb(74.901961%,74.901961%,74.901961%);fill-opacity:1;" d="M 648.289062 322.175781 L 633.734375 322.175781 L 633.734375 324.671875 L 652.074219 324.671875 L 652.074219 259.992188 L 648.289062 259.992188 Z M 648.289062 322.175781 "/>
<path style=" stroke:none;fill-rule:nonzero;fill:rgb(74.901961%,74.901961%,74.901961%);fill-opacity:1;" d="M 1061.230469 65.765625 L 1065.015625 65.765625 L 1065.015625 3.582031 L 1079.570312 3.582031 L 1079.570312 1.085938 L 1061.230469 1.085938 Z M 1061.230469 65.765625 "/>
<path style=" stroke:none;fill-rule:nonzero;fill:rgb(74.901961%,74.901961%,74.901961%);fill-opacity:1;" d="M 1061.230469 87.390625 L 1065.015625 87.390625 L 1065.015625 65.738281 L 1061.230469 65.738281 Z M 1061.230469 87.390625 "/>
<path style=" stroke:none;fill-rule:nonzero;fill:rgb(74.901961%,74.901961%,74.901961%);fill-opacity:1;" d="M 1061.230469 108.960938 L 1065.015625 108.960938 L 1065.015625 87.3125 L 1061.230469 87.3125 Z M 1061.230469 108.960938 "/>
<path style=" stroke:none;fill-rule:nonzero;fill:rgb(74.901961%,74.901961%,74.901961%);fill-opacity:1;" d="M 1061.230469 130.546875 L 1065.015625 130.546875 L 1065.015625 108.898438 L 1061.230469 108.898438 Z M 1061.230469 130.546875 "/>
<path style=" stroke:none;fill-rule:nonzero;fill:rgb(74.901961%,74.901961%,74.901961%);fill-opacity:1;" d="M 1061.230469 152.117188 L 1065.015625 152.117188 L 1065.015625 130.46875 L 1061.230469 130.46875 Z M 1061.230469 152.117188 "/>
<path style=" stroke:none;fill-rule:nonzero;fill:rgb(74.901961%,74.901961%,74.901961%);fill-opacity:1;" d="M 1061.230469 173.703125 L 1065.015625 173.703125 L 1065.015625 152.054688 L 1061.230469 152.054688 Z M 1061.230469 173.703125 "/>
<path style=" stroke:none;fill-rule:nonzero;fill:rgb(74.901961%,74.901961%,74.901961%);fill-opacity:1;" d="M 1061.230469 195.277344 L 1065.015625 195.277344 L 1065.015625 173.625 L 1061.230469 173.625 Z M 1061.230469 195.277344 "/>
<path style=" stroke:none;fill-rule:nonzero;fill:rgb(74.901961%,74.901961%,74.901961%);fill-opacity:1;" d="M 1061.230469 216.859375 L 1065.015625 216.859375 L 1065.015625 195.210938 L 1061.230469 195.210938 Z M 1061.230469 216.859375 "/>
<path style=" stroke:none;fill-rule:nonzero;fill:rgb(74.901961%,74.901961%,74.901961%);fill-opacity:1;" d="M 1061.230469 238.433594 L 1065.015625 238.433594 L 1065.015625 216.78125 L 1061.230469 216.78125 Z M 1061.230469 238.433594 "/>
<path style=" stroke:none;fill-rule:nonzero;fill:rgb(74.901961%,74.901961%,74.901961%);fill-opacity:1;" d="M 1061.230469 260.019531 L 1065.015625 260.019531 L 1065.015625 238.367188 L 1061.230469 238.367188 Z M 1061.230469 260.019531 "/>
<path style=" stroke:none;fill-rule:nonzero;fill:rgb(74.901961%,74.901961%,74.901961%);fill-opacity:1;" d="M 1061.230469 324.671875 L 1079.570312 324.671875 L 1079.570312 322.175781 L 1065.015625 322.175781 L 1065.015625 259.992188 L 1061.230469 259.992188 Z M 1061.230469 324.671875 "/>
<path style=" stroke:none;fill-rule:nonzero;fill:rgb(74.901961%,74.901961%,74.901961%);fill-opacity:1;" d="M 1164.714844 85.15625 L 1164.714844 86.65625 C 1168.257812 86.65625 1171.835938 86.449219 1175.238281 85.726562 L 1175.238281 113.542969 L 1175.101562 114.109375 L 1174.300781 114.265625 L 1165.097656 114.265625 L 1165.097656 115.832031 L 1192.78125 115.832031 L 1192.78125 114.3125 L 1184.304688 114.3125 C 1183.4375 114.3125 1182.707031 114.222656 1182.707031 113.585938 L 1182.707031 82.503906 C 1182.707031 82.257812 1182.707031 81.847656 1182.152344 81.847656 C 1180.96875 81.847656 1179.546875 82.9375 1178.261719 83.34375 C 1174.128906 84.796875 1169.367188 85.15625 1164.714844 85.15625 Z M 1164.714844 85.15625 "/>
<path style=" stroke:none;fill-rule:nonzero;fill:rgb(74.901961%,74.901961%,74.901961%);fill-opacity:1;" d="M 1176.90625 238.542969 C 1161.589844 239.632812 1161.03125 249.515625 1161.03125 256.523438 C 1161.03125 262.734375 1162.074219 273.140625 1178.261719 273.140625 C 1190.242188 273.140625 1195.246094 266.246094 1195.246094 257.65625 L 1195.246094 254.640625 C 1195.246094 247.65625 1192.570312 238.476562 1178.363281 238.476562 C 1177.878906 238.476562 1177.390625 238.476562 1176.90625 238.542969 Z M 1168.675781 259.199219 C 1168.570312 258.789062 1168.570312 258.382812 1168.570312 257.972656 C 1168.570312 254.800781 1168.570312 251.648438 1168.917969 248.472656 C 1169.054688 246.457031 1169.300781 244.191406 1170.964844 242.421875 C 1172.632812 240.765625 1175.414062 239.792969 1178.261719 239.792969 C 1186.910156 239.792969 1187.636719 246.523438 1187.636719 251.648438 L 1187.636719 254.640625 C 1187.636719 256.089844 1187.707031 257.699219 1187.707031 259.355469 C 1187.707031 262.734375 1187.394531 266.246094 1185.660156 268.695312 C 1184.128906 270.507812 1181.28125 271.960938 1178.121094 271.960938 L 1177.949219 271.960938 C 1172.945312 271.960938 1170.097656 268.742188 1169.472656 265.886719 C 1168.8125 263.664062 1168.988281 261.441406 1168.675781 259.199219 Z M 1168.675781 259.199219 "/>
<path style=" stroke:none;fill-rule:nonzero;fill:rgb(74.901961%,74.901961%,74.901961%);fill-opacity:1;" d="M 1294.808594 65.765625 L 1298.59375 65.765625 L 1298.59375 1.085938 L 1280.253906 1.085938 L 1280.253906 3.582031 L 1294.808594 3.582031 Z M 1294.808594 65.765625 "/>
<path style=" stroke:none;fill-rule:nonzero;fill:rgb(74.901961%,74.901961%,74.901961%);fill-opacity:1;" d="M 1294.808594 87.390625 L 1298.59375 87.390625 L 1298.59375 65.742188 L 1294.808594 65.742188 Z M 1294.808594 87.390625 "/>
<path style=" stroke:none;fill-rule:nonzero;fill:rgb(74.901961%,74.901961%,74.901961%);fill-opacity:1;" d="M 1294.808594 108.960938 L 1298.59375 108.960938 L 1298.59375 87.3125 L 1294.808594 87.3125 Z M 1294.808594 108.960938 "/>
<path style=" stroke:none;fill-rule:nonzero;fill:rgb(74.901961%,74.901961%,74.901961%);fill-opacity:1;" d="M 1294.808594 130.546875 L 1298.59375 130.546875 L 1298.59375 108.898438 L 1294.808594 108.898438 Z M 1294.808594 130.546875 "/>
<path style=" stroke:none;fill-rule:nonzero;fill:rgb(74.901961%,74.901961%,74.901961%);fill-opacity:1;" d="M 1294.808594 152.117188 L 1298.59375 152.117188 L 1298.59375 130.46875 L 1294.808594 130.46875 Z M 1294.808594 152.117188 "/>
<path style=" stroke:none;fill-rule:nonzero;fill:rgb(74.901961%,74.901961%,74.901961%);fill-opacity:1;" d="M 1294.808594 173.703125 L 1298.59375 173.703125 L 1298.59375 152.054688 L 1294.808594 152.054688 Z M 1294.808594 173.703125 "/>
<path style=" stroke:none;fill-rule:nonzero;fill:rgb(74.901961%,74.901961%,74.901961%);fill-opacity:1;" d="M 1294.808594 195.277344 L 1298.59375 195.277344 L 1298.59375 173.625 L 1294.808594 173.625 Z M 1294.808594 195.277344 "/>
<path style=" stroke:none;fill-rule:nonzero;fill:rgb(74.901961%,74.901961%,74.901961%);fill-opacity:1;" d="M 1294.808594 216.859375 L 1298.59375 216.859375 L 1298.59375 195.210938 L 1294.808594 195.210938 Z M 1294.808594 216.859375 "/>
<path style=" stroke:none;fill-rule:nonzero;fill:rgb(74.901961%,74.901961%,74.901961%);fill-opacity:1;" d="M 1294.808594 238.433594 L 1298.59375 238.433594 L 1298.59375 216.78125 L 1294.808594 216.78125 Z M 1294.808594 238.433594 "/>
<path style=" stroke:none;fill-rule:nonzero;fill:rgb(74.901961%,74.901961%,74.901961%);fill-opacity:1;" d="M 1294.808594 260.019531 L 1298.59375 260.019531 L 1298.59375 238.367188 L 1294.808594 238.367188 Z M 1294.808594 260.019531 "/>
<path style=" stroke:none;fill-rule:nonzero;fill:rgb(74.901961%,74.901961%,74.901961%);fill-opacity:1;" d="M 1294.808594 322.175781 L 1280.253906 322.175781 L 1280.253906 324.671875 L 1298.59375 324.671875 L 1298.59375 259.992188 L 1294.808594 259.992188 Z M 1294.808594 322.175781 "/>
</g>
</svg>
