<?xml version="1.0" encoding="UTF-8"?>
<svg xmlns="http://www.w3.org/2000/svg" xmlns:xlink="http://www.w3.org/1999/xlink" width="1445px" height="581px" viewBox="0 0 1448 581" version="1.1">
<g id="surface1">
<path style=" stroke:none;fill-rule:nonzero;fill:rgb(74.901961%,74.901961%,74.901961%);fill-opacity:1;" d="M 2.15625 117.566406 L 6.570312 117.566406 L 6.570312 6.402344 L 23.546875 6.402344 L 23.546875 1.945312 L 2.15625 1.945312 Z M 2.15625 117.566406 "/>
<path style=" stroke:none;fill-rule:nonzero;fill:rgb(74.901961%,74.901961%,74.901961%);fill-opacity:1;" d="M 2.15625 156.226562 L 6.570312 156.226562 L 6.570312 117.523438 L 2.15625 117.523438 Z M 2.15625 156.226562 "/>
<path style=" stroke:none;fill-rule:nonzero;fill:rgb(74.901961%,74.901961%,74.901961%);fill-opacity:1;" d="M 2.15625 194.789062 L 6.570312 194.789062 L 6.570312 156.085938 L 2.15625 156.085938 Z M 2.15625 194.789062 "/>
<path style=" stroke:none;fill-rule:nonzero;fill:rgb(74.901961%,74.901961%,74.901961%);fill-opacity:1;" d="M 2.15625 233.375 L 6.570312 233.375 L 6.570312 194.671875 L 2.15625 194.671875 Z M 2.15625 233.375 "/>
<path style=" stroke:none;fill-rule:nonzero;fill:rgb(74.901961%,74.901961%,74.901961%);fill-opacity:1;" d="M 2.15625 271.941406 L 6.570312 271.941406 L 6.570312 233.238281 L 2.15625 233.238281 Z M 2.15625 271.941406 "/>
<path style=" stroke:none;fill-rule:nonzero;fill:rgb(74.901961%,74.901961%,74.901961%);fill-opacity:1;" d="M 2.15625 310.527344 L 6.570312 310.527344 L 6.570312 271.824219 L 2.15625 271.824219 Z M 2.15625 310.527344 "/>
<path style=" stroke:none;fill-rule:nonzero;fill:rgb(74.901961%,74.901961%,74.901961%);fill-opacity:1;" d="M 2.15625 349.09375 L 6.570312 349.09375 L 6.570312 310.386719 L 2.15625 310.386719 Z M 2.15625 349.09375 "/>
<path style=" stroke:none;fill-rule:nonzero;fill:rgb(74.901961%,74.901961%,74.901961%);fill-opacity:1;" d="M 2.15625 387.679688 L 6.570312 387.679688 L 6.570312 348.976562 L 2.15625 348.976562 Z M 2.15625 387.679688 "/>
<path style=" stroke:none;fill-rule:nonzero;fill:rgb(74.901961%,74.901961%,74.901961%);fill-opacity:1;" d="M 2.15625 426.242188 L 6.570312 426.242188 L 6.570312 387.539062 L 2.15625 387.539062 Z M 2.15625 426.242188 "/>
<path style=" stroke:none;fill-rule:nonzero;fill:rgb(74.901961%,74.901961%,74.901961%);fill-opacity:1;" d="M 2.15625 464.832031 L 6.570312 464.832031 L 6.570312 426.128906 L 2.15625 426.128906 Z M 2.15625 464.832031 "/>
<path style=" stroke:none;fill-rule:nonzero;fill:rgb(74.901961%,74.901961%,74.901961%);fill-opacity:1;" d="M 2.15625 580.410156 L 23.546875 580.410156 L 23.546875 575.953125 L 6.570312 575.953125 L 6.570312 464.785156 L 2.15625 464.785156 Z M 2.15625 580.410156 "/>
<path style=" stroke:none;fill-rule:nonzero;fill:rgb(74.901961%,74.901961%,74.901961%);fill-opacity:1;" d="M 63.660156 152.234375 L 63.660156 154.910156 C 67.792969 154.910156 71.96875 154.546875 75.9375 153.25 L 75.9375 202.976562 L 75.777344 203.988281 L 74.84375 204.273438 L 64.105469 204.273438 L 64.105469 207.070312 L 96.398438 207.070312 L 96.398438 204.355469 L 86.511719 204.355469 C 85.5 204.355469 84.648438 204.191406 84.648438 203.058594 L 84.648438 147.492188 C 84.648438 147.046875 84.648438 146.320312 84 146.320312 C 82.625 146.320312 80.960938 148.265625 79.464844 148.992188 C 74.640625 151.585938 69.089844 152.234375 63.660156 152.234375 Z M 63.660156 152.234375 "/>
<path style=" stroke:none;fill-rule:nonzero;fill:rgb(74.901961%,74.901961%,74.901961%);fill-opacity:1;" d="M 368.140625 146.320312 C 350.273438 148.265625 349.625 165.933594 349.625 178.457031 C 349.625 189.5625 350.839844 208.164062 369.722656 208.164062 C 383.699219 208.164062 389.535156 195.84375 389.535156 180.484375 L 389.535156 175.09375 C 389.535156 162.609375 386.414062 146.195312 369.84375 146.195312 C 369.273438 146.195312 368.707031 146.195312 368.140625 146.320312 Z M 358.539062 183.238281 C 358.417969 182.507812 358.417969 181.78125 358.417969 181.050781 C 358.417969 175.375 358.417969 169.742188 358.820312 164.070312 C 358.984375 160.460938 359.265625 156.410156 361.210938 153.25 C 363.15625 150.289062 366.398438 148.546875 369.722656 148.546875 C 379.808594 148.546875 380.660156 160.585938 380.660156 169.742188 L 380.660156 175.09375 C 380.660156 177.6875 380.742188 180.5625 380.742188 183.523438 C 380.742188 189.5625 380.378906 195.84375 378.351562 200.21875 C 376.566406 203.460938 373.246094 206.054688 369.558594 206.054688 L 369.355469 206.054688 C 363.523438 206.054688 360.199219 200.300781 359.46875 195.195312 C 358.699219 191.222656 358.902344 187.25 358.539062 183.238281 Z M 358.539062 183.238281 "/>
<path style=" stroke:none;fill-rule:nonzero;fill:rgb(74.901961%,74.901961%,74.901961%);fill-opacity:1;" d="M 91.675781 426.445312 C 73.808594 428.390625 73.160156 446.058594 73.160156 458.582031 C 73.160156 469.6875 74.375 488.289062 93.257812 488.289062 C 107.234375 488.289062 113.070312 475.96875 113.070312 460.609375 L 113.070312 455.21875 C 113.070312 442.734375 109.949219 426.320312 93.378906 426.320312 C 92.8125 426.320312 92.242188 426.320312 91.675781 426.445312 Z M 82.074219 463.363281 C 81.953125 462.632812 81.953125 461.90625 81.953125 461.175781 C 81.953125 455.5 81.953125 449.867188 82.355469 444.195312 C 82.519531 440.585938 82.804688 436.535156 84.746094 433.375 C 86.691406 430.414062 89.933594 428.671875 93.257812 428.671875 C 103.34375 428.671875 104.195312 440.710938 104.195312 449.867188 L 104.195312 455.21875 C 104.195312 457.8125 104.277344 460.6875 104.277344 463.648438 C 104.277344 469.6875 103.914062 475.96875 101.886719 480.34375 C 100.105469 483.585938 96.78125 486.179688 93.09375 486.179688 L 92.890625 486.179688 C 87.058594 486.179688 83.734375 480.425781 83.003906 475.320312 C 82.234375 471.347656 82.4375 467.375 82.074219 463.363281 Z M 82.074219 463.363281 "/>
<path style=" stroke:none;fill-rule:nonzero;fill:rgb(74.901961%,74.901961%,74.901961%);fill-opacity:1;" d="M 331.128906 463.121094 L 331.128906 470.050781 L 356.410156 470.050781 L 356.410156 463.121094 Z M 331.128906 463.121094 "/>
<path style=" stroke:none;fill-rule:nonzero;fill:rgb(74.901961%,74.901961%,74.901961%);fill-opacity:1;" d="M 369.75 432.359375 L 369.75 435.035156 C 373.882812 435.035156 378.058594 434.671875 382.027344 433.375 L 382.027344 483.101562 L 381.867188 484.113281 L 380.933594 484.398438 L 370.195312 484.398438 L 370.195312 487.195312 L 402.488281 487.195312 L 402.488281 484.480469 L 392.601562 484.480469 C 391.589844 484.480469 390.738281 484.316406 390.738281 483.183594 L 390.738281 427.617188 C 390.738281 427.171875 390.738281 426.445312 390.089844 426.445312 C 388.714844 426.445312 387.050781 428.390625 385.550781 429.117188 C 380.730469 431.710938 375.179688 432.359375 369.75 432.359375 Z M 369.75 432.359375 "/>
<path style=" stroke:none;fill-rule:nonzero;fill:rgb(74.901961%,74.901961%,74.901961%);fill-opacity:1;" d="M 458.273438 117.566406 L 462.691406 117.566406 L 462.691406 1.945312 L 441.296875 1.945312 L 441.296875 6.402344 L 458.273438 6.402344 Z M 458.273438 117.566406 "/>
<path style=" stroke:none;fill-rule:nonzero;fill:rgb(74.901961%,74.901961%,74.901961%);fill-opacity:1;" d="M 458.273438 156.226562 L 462.691406 156.226562 L 462.691406 117.523438 L 458.273438 117.523438 Z M 458.273438 156.226562 "/>
<path style=" stroke:none;fill-rule:nonzero;fill:rgb(74.901961%,74.901961%,74.901961%);fill-opacity:1;" d="M 458.273438 194.789062 L 462.691406 194.789062 L 462.691406 156.085938 L 458.273438 156.085938 Z M 458.273438 194.789062 "/>
<path style=" stroke:none;fill-rule:nonzero;fill:rgb(74.901961%,74.901961%,74.901961%);fill-opacity:1;" d="M 458.273438 233.378906 L 462.691406 233.378906 L 462.691406 194.671875 L 458.273438 194.671875 Z M 458.273438 233.378906 "/>
<path style=" stroke:none;fill-rule:nonzero;fill:rgb(74.901961%,74.901961%,74.901961%);fill-opacity:1;" d="M 458.273438 271.941406 L 462.691406 271.941406 L 462.691406 233.238281 L 458.273438 233.238281 Z M 458.273438 271.941406 "/>
<path style=" stroke:none;fill-rule:nonzero;fill:rgb(74.901961%,74.901961%,74.901961%);fill-opacity:1;" d="M 458.273438 310.527344 L 462.691406 310.527344 L 462.691406 271.824219 L 458.273438 271.824219 Z M 458.273438 310.527344 "/>
<path style=" stroke:none;fill-rule:nonzero;fill:rgb(74.901961%,74.901961%,74.901961%);fill-opacity:1;" d="M 458.273438 349.09375 L 462.691406 349.09375 L 462.691406 310.386719 L 458.273438 310.386719 Z M 458.273438 349.09375 "/>
<path style=" stroke:none;fill-rule:nonzero;fill:rgb(74.901961%,74.901961%,74.901961%);fill-opacity:1;" d="M 458.273438 387.679688 L 462.691406 387.679688 L 462.691406 348.976562 L 458.273438 348.976562 Z M 458.273438 387.679688 "/>
<path style=" stroke:none;fill-rule:nonzero;fill:rgb(74.901961%,74.901961%,74.901961%);fill-opacity:1;" d="M 458.273438 426.242188 L 462.691406 426.242188 L 462.691406 387.539062 L 458.273438 387.539062 Z M 458.273438 426.242188 "/>
<path style=" stroke:none;fill-rule:nonzero;fill:rgb(74.901961%,74.901961%,74.901961%);fill-opacity:1;" d="M 458.273438 464.832031 L 462.691406 464.832031 L 462.691406 426.128906 L 458.273438 426.128906 Z M 458.273438 464.832031 "/>
<path style=" stroke:none;fill-rule:nonzero;fill:rgb(74.901961%,74.901961%,74.901961%);fill-opacity:1;" d="M 458.273438 575.953125 L 441.296875 575.953125 L 441.296875 580.410156 L 462.691406 580.410156 L 462.691406 464.785156 L 458.273438 464.785156 Z M 458.273438 575.953125 "/>
<path style=" stroke:none;fill-rule:nonzero;fill:rgb(74.901961%,74.901961%,74.901961%);fill-opacity:1;" d="M 515.359375 117.570312 L 519.777344 117.570312 L 519.777344 6.402344 L 536.753906 6.402344 L 536.753906 1.945312 L 515.359375 1.945312 Z M 515.359375 117.570312 "/>
<path style=" stroke:none;fill-rule:nonzero;fill:rgb(74.901961%,74.901961%,74.901961%);fill-opacity:1;" d="M 515.359375 156.226562 L 519.777344 156.226562 L 519.777344 117.523438 L 515.359375 117.523438 Z M 515.359375 156.226562 "/>
<path style=" stroke:none;fill-rule:nonzero;fill:rgb(74.901961%,74.901961%,74.901961%);fill-opacity:1;" d="M 515.359375 194.789062 L 519.777344 194.789062 L 519.777344 156.085938 L 515.359375 156.085938 Z M 515.359375 194.789062 "/>
<path style=" stroke:none;fill-rule:nonzero;fill:rgb(74.901961%,74.901961%,74.901961%);fill-opacity:1;" d="M 515.359375 233.378906 L 519.777344 233.378906 L 519.777344 194.671875 L 515.359375 194.671875 Z M 515.359375 233.378906 "/>
<path style=" stroke:none;fill-rule:nonzero;fill:rgb(74.901961%,74.901961%,74.901961%);fill-opacity:1;" d="M 515.359375 271.941406 L 519.777344 271.941406 L 519.777344 233.238281 L 515.359375 233.238281 Z M 515.359375 271.941406 "/>
<path style=" stroke:none;fill-rule:nonzero;fill:rgb(74.901961%,74.901961%,74.901961%);fill-opacity:1;" d="M 515.359375 310.527344 L 519.777344 310.527344 L 519.777344 271.824219 L 515.359375 271.824219 Z M 515.359375 310.527344 "/>
<path style=" stroke:none;fill-rule:nonzero;fill:rgb(74.901961%,74.901961%,74.901961%);fill-opacity:1;" d="M 515.359375 349.09375 L 519.777344 349.09375 L 519.777344 310.390625 L 515.359375 310.390625 Z M 515.359375 349.09375 "/>
<path style=" stroke:none;fill-rule:nonzero;fill:rgb(74.901961%,74.901961%,74.901961%);fill-opacity:1;" d="M 515.359375 387.679688 L 519.777344 387.679688 L 519.777344 348.976562 L 515.359375 348.976562 Z M 515.359375 387.679688 "/>
<path style=" stroke:none;fill-rule:nonzero;fill:rgb(74.901961%,74.901961%,74.901961%);fill-opacity:1;" d="M 515.359375 426.246094 L 519.777344 426.246094 L 519.777344 387.539062 L 515.359375 387.539062 Z M 515.359375 426.246094 "/>
<path style=" stroke:none;fill-rule:nonzero;fill:rgb(74.901961%,74.901961%,74.901961%);fill-opacity:1;" d="M 515.359375 464.832031 L 519.777344 464.832031 L 519.777344 426.128906 L 515.359375 426.128906 Z M 515.359375 464.832031 "/>
<path style=" stroke:none;fill-rule:nonzero;fill:rgb(74.901961%,74.901961%,74.901961%);fill-opacity:1;" d="M 515.359375 580.410156 L 536.753906 580.410156 L 536.753906 575.953125 L 519.777344 575.953125 L 519.777344 464.785156 L 515.359375 464.785156 Z M 515.359375 580.410156 "/>
<path style=" stroke:none;fill-rule:nonzero;fill:rgb(74.901961%,74.901961%,74.901961%);fill-opacity:1;" d="M 572.851562 152.234375 L 572.851562 154.910156 C 576.984375 154.910156 581.160156 154.546875 585.128906 153.25 L 585.128906 202.976562 L 584.96875 203.988281 L 584.035156 204.273438 L 573.296875 204.273438 L 573.296875 207.070312 L 605.589844 207.070312 L 605.589844 204.355469 L 595.703125 204.355469 C 594.691406 204.355469 593.839844 204.191406 593.839844 203.058594 L 593.839844 147.496094 C 593.839844 147.046875 593.839844 146.320312 593.191406 146.320312 C 591.816406 146.320312 590.152344 148.265625 588.65625 148.992188 C 583.832031 151.585938 578.28125 152.234375 572.851562 152.234375 Z M 572.851562 152.234375 "/>
<path style=" stroke:none;fill-rule:nonzero;fill:rgb(74.901961%,74.901961%,74.901961%);fill-opacity:1;" d="M 652.910156 137.6875 C 651.898438 138.050781 651.25 140.765625 650.804688 142.144531 C 639.785156 169.824219 629.855469 197.789062 618.835938 225.386719 L 618.027344 227.699219 C 617.824219 228.0625 617.660156 228.550781 617.539062 228.996094 C 617.539062 229.5625 618.027344 230.128906 618.550781 230.128906 L 618.753906 230.128906 C 619.402344 230.007812 619.6875 229.480469 619.847656 228.914062 L 621.265625 225.308594 C 631.71875 197.34375 642.457031 169.542969 653.277344 141.699219 L 653.925781 139.914062 C 654.046875 139.550781 654.289062 139.1875 654.289062 138.699219 C 654.289062 138.050781 653.761719 137.6875 653.195312 137.6875 Z M 652.910156 137.6875 "/>
<path style=" stroke:none;fill-rule:nonzero;fill:rgb(74.901961%,74.901961%,74.901961%);fill-opacity:1;" d="M 686.96875 213.230469 C 688.996094 213.230469 689.035156 213.148438 689.683594 211.933594 L 724.851562 138.539062 C 725.296875 137.6875 725.296875 137.566406 725.296875 137.363281 C 725.296875 136.675781 724.773438 136.105469 724 136.105469 C 723.152344 136.105469 722.90625 136.675781 722.582031 137.363281 L 689.441406 206.542969 L 675.746094 174.648438 L 666.792969 181.539062 L 667.761719 182.550781 L 672.34375 179.105469 Z M 686.96875 213.230469 "/>
<path style="fill:none;stroke-width:9.99;stroke-linecap:butt;stroke-linejoin:miter;stroke:rgb(74.901961%,74.901961%,74.901961%);stroke-opacity:1;stroke-miterlimit:10;" d="M 2792.030128 1710.391566 L 2975.041221 1710.391566 " transform="matrix(0.259312,0,0,-0.259375,0,581)"/>
<path style=" stroke:none;fill-rule:nonzero;fill:rgb(74.901961%,74.901961%,74.901961%);fill-opacity:1;" d="M 731.589844 158.152344 C 733.738281 152.519531 738.84375 148.992188 744.472656 148.992188 C 752.253906 148.992188 757.359375 155.84375 757.359375 163.339844 L 757.359375 164.351562 C 756.792969 172.902344 751.039062 179.632812 745.566406 185.75 C 740.949219 190.9375 736.25 196.207031 731.589844 201.394531 L 729.847656 203.339844 C 729.117188 204.109375 728.632812 204.636719 728.632812 205.648438 C 728.632812 206.136719 728.753906 206.582031 728.753906 207.070312 L 764.488281 207.070312 L 766.597656 189.195312 L 764.207031 189.195312 C 763.71875 192.804688 763.839844 197.867188 760.316406 197.867188 C 758.007812 198.152344 755.574219 198.273438 753.265625 198.273438 C 750.875 198.273438 748.566406 198.152344 746.214844 198.152344 L 737.058594 198.152344 C 741.152344 194.382812 745.121094 190.289062 749.375 186.683594 L 754.929688 181.941406 C 760.679688 177.039062 766.597656 171.6875 766.597656 163.257812 L 766.597656 162.328125 C 765.664062 151.953125 756.710938 146.316406 746.785156 146.316406 C 738.074219 146.316406 728.753906 152.316406 728.753906 162.328125 C 728.753906 165.570312 730.859375 167.3125 733.453125 167.3125 C 735.761719 167.3125 738.195312 165.648438 738.195312 162.691406 C 738.195312 160.015625 736.25 157.867188 733.535156 157.867188 C 732.886719 157.867188 732.238281 157.988281 731.589844 158.152344 Z M 731.589844 158.152344 "/>
<path style=" stroke:none;fill-rule:nonzero;fill:rgb(74.901961%,74.901961%,74.901961%);fill-opacity:1;" d="M 572.851562 432.359375 L 572.851562 435.035156 C 576.984375 435.035156 581.15625 434.671875 585.128906 433.375 L 585.128906 483.101562 L 584.96875 484.113281 L 584.035156 484.398438 L 573.296875 484.398438 L 573.296875 487.195312 L 605.589844 487.195312 L 605.589844 484.476562 L 595.703125 484.476562 C 594.691406 484.476562 593.839844 484.316406 593.839844 483.179688 L 593.839844 427.617188 C 593.839844 427.171875 593.839844 426.441406 593.191406 426.441406 C 591.8125 426.441406 590.152344 428.386719 588.652344 429.117188 C 583.832031 431.710938 578.28125 432.359375 572.851562 432.359375 Z M 572.851562 432.359375 "/>
<path style=" stroke:none;fill-rule:nonzero;fill:rgb(74.901961%,74.901961%,74.901961%);fill-opacity:1;" d="M 652.910156 417.8125 C 651.898438 418.175781 651.25 420.890625 650.804688 422.269531 C 639.78125 449.949219 629.855469 477.914062 618.835938 505.511719 L 618.023438 507.820312 C 617.820312 508.1875 617.660156 508.671875 617.539062 509.117188 C 617.539062 509.6875 618.023438 510.253906 618.550781 510.253906 L 618.753906 510.253906 C 619.402344 510.132812 619.6875 509.605469 619.847656 509.039062 L 621.265625 505.429688 C 631.71875 477.46875 642.457031 449.664062 653.273438 421.824219 L 653.921875 420.039062 C 654.042969 419.675781 654.289062 419.308594 654.289062 418.824219 C 654.289062 418.175781 653.761719 417.8125 653.195312 417.8125 Z M 652.910156 417.8125 "/>
<path style=" stroke:none;fill-rule:nonzero;fill:rgb(74.901961%,74.901961%,74.901961%);fill-opacity:1;" d="M 686.96875 493.355469 C 688.992188 493.355469 689.035156 493.273438 689.683594 492.058594 L 724.851562 418.664062 C 725.296875 417.8125 725.296875 417.691406 725.296875 417.488281 C 725.296875 416.796875 724.769531 416.230469 724 416.230469 C 723.148438 416.230469 722.90625 416.796875 722.582031 417.488281 L 689.4375 486.667969 L 675.746094 454.773438 L 666.789062 461.664062 L 667.761719 462.675781 L 672.339844 459.230469 Z M 686.96875 493.355469 "/>
<path style="fill:none;stroke-width:9.99;stroke-linecap:butt;stroke-linejoin:miter;stroke:rgb(74.901961%,74.901961%,74.901961%);stroke-opacity:1;stroke-miterlimit:10;" d="M 2792.030128 630.391566 L 2975.041221 630.391566 " transform="matrix(0.259312,0,0,-0.259375,0,581)"/>
<path style=" stroke:none;fill-rule:nonzero;fill:rgb(74.901961%,74.901961%,74.901961%);fill-opacity:1;" d="M 731.589844 438.277344 C 733.738281 432.644531 738.84375 429.117188 744.472656 429.117188 C 752.253906 429.117188 757.359375 435.964844 757.359375 443.464844 L 757.359375 444.476562 C 756.792969 453.027344 751.039062 459.757812 745.566406 465.875 C 740.949219 471.0625 736.25 476.332031 731.589844 481.519531 L 729.847656 483.464844 C 729.117188 484.234375 728.632812 484.761719 728.632812 485.773438 C 728.632812 486.261719 728.753906 486.707031 728.753906 487.191406 L 764.488281 487.191406 L 766.597656 469.320312 L 764.207031 469.320312 C 763.71875 472.925781 763.839844 477.992188 760.316406 477.992188 C 758.007812 478.277344 755.574219 478.398438 753.265625 478.398438 C 750.875 478.398438 748.566406 478.277344 746.214844 478.277344 L 737.058594 478.277344 C 741.152344 474.507812 745.121094 470.414062 749.375 466.808594 L 754.929688 462.066406 C 760.679688 457.164062 766.597656 451.8125 766.597656 443.382812 L 766.597656 442.449219 C 765.664062 432.074219 756.710938 426.441406 746.785156 426.441406 C 738.074219 426.441406 728.753906 432.441406 728.753906 442.449219 C 728.753906 445.691406 730.859375 447.4375 733.453125 447.4375 C 735.761719 447.4375 738.195312 445.773438 738.195312 442.816406 C 738.195312 440.140625 736.25 437.992188 733.535156 437.992188 C 732.886719 437.992188 732.238281 438.113281 731.589844 438.277344 Z M 731.589844 438.277344 "/>
<path style=" stroke:none;fill-rule:nonzero;fill:rgb(74.901961%,74.901961%,74.901961%);fill-opacity:1;" d="M 820.503906 117.566406 L 824.921875 117.566406 L 824.921875 1.941406 L 803.527344 1.941406 L 803.527344 6.402344 L 820.503906 6.402344 Z M 820.503906 117.566406 "/>
<path style=" stroke:none;fill-rule:nonzero;fill:rgb(74.901961%,74.901961%,74.901961%);fill-opacity:1;" d="M 820.503906 156.226562 L 824.921875 156.226562 L 824.921875 117.523438 L 820.503906 117.523438 Z M 820.503906 156.226562 "/>
<path style=" stroke:none;fill-rule:nonzero;fill:rgb(74.901961%,74.901961%,74.901961%);fill-opacity:1;" d="M 820.503906 194.789062 L 824.921875 194.789062 L 824.921875 156.085938 L 820.503906 156.085938 Z M 820.503906 194.789062 "/>
<path style=" stroke:none;fill-rule:nonzero;fill:rgb(74.901961%,74.901961%,74.901961%);fill-opacity:1;" d="M 820.503906 233.375 L 824.921875 233.375 L 824.921875 194.671875 L 820.503906 194.671875 Z M 820.503906 233.375 "/>
<path style=" stroke:none;fill-rule:nonzero;fill:rgb(74.901961%,74.901961%,74.901961%);fill-opacity:1;" d="M 820.503906 271.941406 L 824.921875 271.941406 L 824.921875 233.238281 L 820.503906 233.238281 Z M 820.503906 271.941406 "/>
<path style=" stroke:none;fill-rule:nonzero;fill:rgb(74.901961%,74.901961%,74.901961%);fill-opacity:1;" d="M 820.503906 310.527344 L 824.921875 310.527344 L 824.921875 271.824219 L 820.503906 271.824219 Z M 820.503906 310.527344 "/>
<path style=" stroke:none;fill-rule:nonzero;fill:rgb(74.901961%,74.901961%,74.901961%);fill-opacity:1;" d="M 820.503906 349.089844 L 824.921875 349.089844 L 824.921875 310.386719 L 820.503906 310.386719 Z M 820.503906 349.089844 "/>
<path style=" stroke:none;fill-rule:nonzero;fill:rgb(74.901961%,74.901961%,74.901961%);fill-opacity:1;" d="M 820.503906 387.679688 L 824.921875 387.679688 L 824.921875 348.976562 L 820.503906 348.976562 Z M 820.503906 387.679688 "/>
<path style=" stroke:none;fill-rule:nonzero;fill:rgb(74.901961%,74.901961%,74.901961%);fill-opacity:1;" d="M 820.503906 426.242188 L 824.921875 426.242188 L 824.921875 387.539062 L 820.503906 387.539062 Z M 820.503906 426.242188 "/>
<path style=" stroke:none;fill-rule:nonzero;fill:rgb(74.901961%,74.901961%,74.901961%);fill-opacity:1;" d="M 820.503906 464.832031 L 824.921875 464.832031 L 824.921875 426.125 L 820.503906 426.125 Z M 820.503906 464.832031 "/>
<path style=" stroke:none;fill-rule:nonzero;fill:rgb(74.901961%,74.901961%,74.901961%);fill-opacity:1;" d="M 820.503906 575.953125 L 803.527344 575.953125 L 803.527344 580.410156 L 824.921875 580.410156 L 824.921875 464.785156 L 820.503906 464.785156 Z M 820.503906 575.953125 "/>
<path style=" stroke:none;fill-rule:nonzero;fill:rgb(74.901961%,74.901961%,74.901961%);fill-opacity:1;" d="M 1136.644531 117.566406 L 1141.058594 117.566406 L 1141.058594 6.402344 L 1158.035156 6.402344 L 1158.035156 1.941406 L 1136.644531 1.941406 Z M 1136.644531 117.566406 "/>
<path style=" stroke:none;fill-rule:nonzero;fill:rgb(74.901961%,74.901961%,74.901961%);fill-opacity:1;" d="M 1136.644531 156.226562 L 1141.058594 156.226562 L 1141.058594 117.523438 L 1136.644531 117.523438 Z M 1136.644531 156.226562 "/>
<path style=" stroke:none;fill-rule:nonzero;fill:rgb(74.901961%,74.901961%,74.901961%);fill-opacity:1;" d="M 1136.644531 194.789062 L 1141.058594 194.789062 L 1141.058594 156.085938 L 1136.644531 156.085938 Z M 1136.644531 194.789062 "/>
<path style=" stroke:none;fill-rule:nonzero;fill:rgb(74.901961%,74.901961%,74.901961%);fill-opacity:1;" d="M 1136.644531 233.375 L 1141.058594 233.375 L 1141.058594 194.671875 L 1136.644531 194.671875 Z M 1136.644531 233.375 "/>
<path style=" stroke:none;fill-rule:nonzero;fill:rgb(74.901961%,74.901961%,74.901961%);fill-opacity:1;" d="M 1136.644531 271.941406 L 1141.058594 271.941406 L 1141.058594 233.238281 L 1136.644531 233.238281 Z M 1136.644531 271.941406 "/>
<path style=" stroke:none;fill-rule:nonzero;fill:rgb(74.901961%,74.901961%,74.901961%);fill-opacity:1;" d="M 1136.644531 310.527344 L 1141.058594 310.527344 L 1141.058594 271.824219 L 1136.644531 271.824219 Z M 1136.644531 310.527344 "/>
<path style=" stroke:none;fill-rule:nonzero;fill:rgb(74.901961%,74.901961%,74.901961%);fill-opacity:1;" d="M 1136.644531 349.089844 L 1141.058594 349.089844 L 1141.058594 310.386719 L 1136.644531 310.386719 Z M 1136.644531 349.089844 "/>
<path style=" stroke:none;fill-rule:nonzero;fill:rgb(74.901961%,74.901961%,74.901961%);fill-opacity:1;" d="M 1136.644531 387.679688 L 1141.058594 387.679688 L 1141.058594 348.976562 L 1136.644531 348.976562 Z M 1136.644531 387.679688 "/>
<path style=" stroke:none;fill-rule:nonzero;fill:rgb(74.901961%,74.901961%,74.901961%);fill-opacity:1;" d="M 1136.644531 426.242188 L 1141.058594 426.242188 L 1141.058594 387.539062 L 1136.644531 387.539062 Z M 1136.644531 426.242188 "/>
<path style=" stroke:none;fill-rule:nonzero;fill:rgb(74.901961%,74.901961%,74.901961%);fill-opacity:1;" d="M 1136.644531 464.832031 L 1141.058594 464.832031 L 1141.058594 426.128906 L 1136.644531 426.128906 Z M 1136.644531 464.832031 "/>
<path style=" stroke:none;fill-rule:nonzero;fill:rgb(74.901961%,74.901961%,74.901961%);fill-opacity:1;" d="M 1136.644531 580.410156 L 1158.035156 580.410156 L 1158.035156 575.953125 L 1141.058594 575.953125 L 1141.058594 464.785156 L 1136.644531 464.785156 Z M 1136.644531 580.410156 "/>
<path style=" stroke:none;fill-rule:nonzero;fill:rgb(74.901961%,74.901961%,74.901961%);fill-opacity:1;" d="M 1194.113281 152.234375 L 1194.113281 154.910156 C 1198.246094 154.910156 1202.417969 154.546875 1206.390625 153.25 L 1206.390625 202.976562 L 1206.226562 203.988281 L 1205.296875 204.273438 L 1194.558594 204.273438 L 1194.558594 207.070312 L 1226.851562 207.070312 L 1226.851562 204.351562 L 1216.964844 204.351562 C 1215.953125 204.351562 1215.101562 204.191406 1215.101562 203.054688 L 1215.101562 147.492188 C 1215.101562 147.046875 1215.101562 146.316406 1214.453125 146.316406 C 1213.074219 146.316406 1211.414062 148.261719 1209.914062 148.992188 C 1205.09375 151.585938 1199.542969 152.234375 1194.113281 152.234375 Z M 1194.113281 152.234375 "/>
<path style=" stroke:none;fill-rule:nonzero;fill:rgb(74.901961%,74.901961%,74.901961%);fill-opacity:1;" d="M 1274.171875 137.6875 C 1273.15625 138.050781 1272.507812 140.765625 1272.0625 142.144531 C 1261.042969 169.824219 1251.117188 197.789062 1240.09375 225.386719 L 1239.285156 227.695312 C 1239.082031 228.0625 1238.921875 228.546875 1238.800781 228.992188 C 1238.800781 229.5625 1239.285156 230.128906 1239.8125 230.128906 L 1240.015625 230.128906 C 1240.664062 230.007812 1240.945312 229.480469 1241.109375 228.914062 L 1242.527344 225.304688 C 1252.980469 197.34375 1263.71875 169.539062 1274.535156 141.699219 L 1275.183594 139.914062 C 1275.304688 139.550781 1275.546875 139.183594 1275.546875 138.699219 C 1275.546875 138.050781 1275.023438 137.6875 1274.453125 137.6875 Z M 1274.171875 137.6875 "/>
<path style=" stroke:none;fill-rule:nonzero;fill:rgb(74.901961%,74.901961%,74.901961%);fill-opacity:1;" d="M 1308.25 213.230469 C 1310.277344 213.230469 1310.316406 213.148438 1310.964844 211.933594 L 1346.132812 138.539062 C 1346.582031 137.6875 1346.582031 137.566406 1346.582031 137.363281 C 1346.582031 136.671875 1346.054688 136.105469 1345.285156 136.105469 C 1344.433594 136.105469 1344.191406 136.671875 1343.867188 137.363281 L 1310.722656 206.542969 L 1297.027344 174.648438 L 1288.074219 181.539062 L 1289.046875 182.550781 L 1293.625 179.105469 Z M 1308.25 213.230469 "/>
<path style="fill:none;stroke-width:9.99;stroke-linecap:butt;stroke-linejoin:miter;stroke:rgb(74.901961%,74.901961%,74.901961%);stroke-opacity:1;stroke-miterlimit:10;" d="M 5187.925371 1710.391566 L 5370.891272 1710.391566 " transform="matrix(0.259312,0,0,-0.259375,0,581)"/>
<path style=" stroke:none;fill-rule:nonzero;fill:rgb(74.901961%,74.901961%,74.901961%);fill-opacity:1;" d="M 1352.875 158.152344 C 1355.019531 152.519531 1360.125 148.992188 1365.757812 148.992188 C 1373.539062 148.992188 1378.644531 155.84375 1378.644531 163.339844 L 1378.644531 164.351562 C 1378.074219 172.902344 1372.320312 179.632812 1366.851562 185.75 C 1362.234375 190.9375 1357.53125 196.207031 1352.875 201.394531 L 1351.132812 203.339844 C 1350.402344 204.109375 1349.914062 204.636719 1349.914062 205.648438 C 1349.914062 206.136719 1350.039062 206.582031 1350.039062 207.070312 L 1385.773438 207.070312 L 1387.878906 189.195312 L 1385.488281 189.195312 C 1385.003906 192.804688 1385.125 197.867188 1381.601562 197.867188 C 1379.289062 198.152344 1376.859375 198.273438 1374.550781 198.273438 C 1372.160156 198.273438 1369.851562 198.152344 1367.5 198.152344 L 1358.34375 198.152344 C 1362.4375 194.382812 1366.40625 190.289062 1370.660156 186.683594 L 1376.210938 181.941406 C 1381.964844 177.039062 1387.878906 171.6875 1387.878906 163.257812 L 1387.878906 162.328125 C 1386.949219 151.953125 1377.996094 146.316406 1368.066406 146.316406 C 1359.355469 146.316406 1350.039062 152.316406 1350.039062 162.328125 C 1350.039062 165.570312 1352.144531 167.3125 1354.738281 167.3125 C 1357.046875 167.3125 1359.476562 165.648438 1359.476562 162.691406 C 1359.476562 160.015625 1357.53125 157.867188 1354.820312 157.867188 C 1354.171875 157.867188 1353.523438 157.988281 1352.875 158.152344 Z M 1352.875 158.152344 "/>
<path style=" stroke:none;fill-rule:nonzero;fill:rgb(74.901961%,74.901961%,74.901961%);fill-opacity:1;" d="M 1194.113281 432.359375 L 1194.113281 435.035156 C 1198.246094 435.035156 1202.417969 434.671875 1206.390625 433.375 L 1206.390625 483.101562 L 1206.226562 484.113281 L 1205.296875 484.398438 L 1194.558594 484.398438 L 1194.558594 487.195312 L 1226.851562 487.195312 L 1226.851562 484.476562 L 1216.964844 484.476562 C 1215.953125 484.476562 1215.101562 484.316406 1215.101562 483.179688 L 1215.101562 427.617188 C 1215.101562 427.171875 1215.101562 426.441406 1214.453125 426.441406 C 1213.074219 426.441406 1211.414062 428.386719 1209.914062 429.117188 C 1205.09375 431.710938 1199.542969 432.359375 1194.113281 432.359375 Z M 1194.113281 432.359375 "/>
<path style=" stroke:none;fill-rule:nonzero;fill:rgb(74.901961%,74.901961%,74.901961%);fill-opacity:1;" d="M 1274.171875 417.8125 C 1273.160156 418.175781 1272.511719 420.890625 1272.066406 422.269531 C 1261.042969 449.949219 1251.117188 477.914062 1240.097656 505.511719 L 1239.285156 507.820312 C 1239.082031 508.1875 1238.921875 508.671875 1238.800781 509.117188 C 1238.800781 509.6875 1239.285156 510.253906 1239.8125 510.253906 L 1240.015625 510.253906 C 1240.664062 510.132812 1240.949219 509.605469 1241.109375 509.039062 L 1242.527344 505.429688 C 1252.980469 477.46875 1263.71875 449.664062 1274.535156 421.824219 L 1275.183594 420.039062 C 1275.304688 419.675781 1275.550781 419.308594 1275.550781 418.824219 C 1275.550781 418.175781 1275.023438 417.8125 1274.457031 417.8125 Z M 1274.171875 417.8125 "/>
<path style=" stroke:none;fill-rule:nonzero;fill:rgb(74.901961%,74.901961%,74.901961%);fill-opacity:1;" d="M 1308.25 493.355469 C 1310.277344 493.355469 1310.316406 493.273438 1310.964844 492.058594 L 1346.136719 418.664062 C 1346.582031 417.8125 1346.582031 417.691406 1346.582031 417.488281 C 1346.582031 416.796875 1346.054688 416.230469 1345.285156 416.230469 C 1344.433594 416.230469 1344.191406 416.796875 1343.867188 417.488281 L 1310.722656 486.667969 L 1297.027344 454.773438 L 1288.074219 461.664062 L 1289.046875 462.675781 L 1293.625 459.230469 Z M 1308.25 493.355469 "/>
<path style="fill:none;stroke-width:9.99;stroke-linecap:butt;stroke-linejoin:miter;stroke:rgb(74.901961%,74.901961%,74.901961%);stroke-opacity:1;stroke-miterlimit:10;" d="M 5187.925371 630.391566 L 5370.891272 630.391566 " transform="matrix(0.259312,0,0,-0.259375,0,581)"/>
<path style=" stroke:none;fill-rule:nonzero;fill:rgb(74.901961%,74.901961%,74.901961%);fill-opacity:1;" d="M 1352.875 438.277344 C 1355.019531 432.644531 1360.125 429.117188 1365.757812 429.117188 C 1373.539062 429.117188 1378.644531 435.964844 1378.644531 443.464844 L 1378.644531 444.476562 C 1378.074219 453.027344 1372.320312 459.757812 1366.851562 465.875 C 1362.234375 471.0625 1357.53125 476.332031 1352.875 481.519531 L 1351.132812 483.464844 C 1350.402344 484.234375 1349.914062 484.761719 1349.914062 485.773438 C 1349.914062 486.261719 1350.039062 486.707031 1350.039062 487.191406 L 1385.773438 487.191406 L 1387.878906 469.320312 L 1385.488281 469.320312 C 1385.003906 472.925781 1385.125 477.992188 1381.601562 477.992188 C 1379.289062 478.277344 1376.859375 478.398438 1374.550781 478.398438 C 1372.160156 478.398438 1369.851562 478.277344 1367.5 478.277344 L 1358.34375 478.277344 C 1362.4375 474.507812 1366.40625 470.414062 1370.660156 466.808594 L 1376.210938 462.066406 C 1381.964844 457.164062 1387.878906 451.8125 1387.878906 443.382812 L 1387.878906 442.449219 C 1386.949219 432.074219 1377.996094 426.441406 1368.066406 426.441406 C 1359.355469 426.441406 1350.039062 432.441406 1350.039062 442.449219 C 1350.039062 445.691406 1352.144531 447.4375 1354.738281 447.4375 C 1357.046875 447.4375 1359.476562 445.773438 1359.476562 442.816406 C 1359.476562 440.140625 1357.53125 437.992188 1354.820312 437.992188 C 1354.171875 437.992188 1353.523438 438.113281 1352.875 438.277344 Z M 1352.875 438.277344 "/>
<path style=" stroke:none;fill-rule:nonzero;fill:rgb(74.901961%,74.901961%,74.901961%);fill-opacity:1;" d="M 1441.789062 117.566406 L 1446.207031 117.566406 L 1446.207031 1.941406 L 1424.8125 1.941406 L 1424.8125 6.402344 L 1441.789062 6.402344 Z M 1441.789062 117.566406 "/>
<path style=" stroke:none;fill-rule:nonzero;fill:rgb(74.901961%,74.901961%,74.901961%);fill-opacity:1;" d="M 1441.789062 156.226562 L 1446.207031 156.226562 L 1446.207031 117.523438 L 1441.789062 117.523438 Z M 1441.789062 156.226562 "/>
<path style=" stroke:none;fill-rule:nonzero;fill:rgb(74.901961%,74.901961%,74.901961%);fill-opacity:1;" d="M 1441.789062 194.789062 L 1446.207031 194.789062 L 1446.207031 156.085938 L 1441.789062 156.085938 Z M 1441.789062 194.789062 "/>
<path style=" stroke:none;fill-rule:nonzero;fill:rgb(74.901961%,74.901961%,74.901961%);fill-opacity:1;" d="M 1441.789062 233.375 L 1446.207031 233.375 L 1446.207031 194.671875 L 1441.789062 194.671875 Z M 1441.789062 233.375 "/>
<path style=" stroke:none;fill-rule:nonzero;fill:rgb(74.901961%,74.901961%,74.901961%);fill-opacity:1;" d="M 1441.789062 271.941406 L 1446.207031 271.941406 L 1446.207031 233.238281 L 1441.789062 233.238281 Z M 1441.789062 271.941406 "/>
<path style=" stroke:none;fill-rule:nonzero;fill:rgb(74.901961%,74.901961%,74.901961%);fill-opacity:1;" d="M 1441.789062 310.527344 L 1446.207031 310.527344 L 1446.207031 271.824219 L 1441.789062 271.824219 Z M 1441.789062 310.527344 "/>
<path style=" stroke:none;fill-rule:nonzero;fill:rgb(74.901961%,74.901961%,74.901961%);fill-opacity:1;" d="M 1441.789062 349.089844 L 1446.207031 349.089844 L 1446.207031 310.386719 L 1441.789062 310.386719 Z M 1441.789062 349.089844 "/>
<path style=" stroke:none;fill-rule:nonzero;fill:rgb(74.901961%,74.901961%,74.901961%);fill-opacity:1;" d="M 1441.789062 387.679688 L 1446.207031 387.679688 L 1446.207031 348.976562 L 1441.789062 348.976562 Z M 1441.789062 387.679688 "/>
<path style=" stroke:none;fill-rule:nonzero;fill:rgb(74.901961%,74.901961%,74.901961%);fill-opacity:1;" d="M 1441.789062 426.242188 L 1446.207031 426.242188 L 1446.207031 387.539062 L 1441.789062 387.539062 Z M 1441.789062 426.242188 "/>
<path style=" stroke:none;fill-rule:nonzero;fill:rgb(74.901961%,74.901961%,74.901961%);fill-opacity:1;" d="M 1441.789062 464.832031 L 1446.207031 464.832031 L 1446.207031 426.125 L 1441.789062 426.125 Z M 1441.789062 464.832031 "/>
<path style=" stroke:none;fill-rule:nonzero;fill:rgb(74.901961%,74.901961%,74.901961%);fill-opacity:1;" d="M 1441.789062 575.953125 L 1424.8125 575.953125 L 1424.8125 580.410156 L 1446.207031 580.410156 L 1446.207031 464.785156 L 1441.789062 464.785156 Z M 1441.789062 575.953125 "/>
</g>
</svg>
