<?xml version="1.0" encoding="UTF-8"?>
<svg xmlns="http://www.w3.org/2000/svg" xmlns:xlink="http://www.w3.org/1999/xlink" width="2445px" height="300px" viewBox="0 0 2445 300" version="1.1">
<g id="surface1">
<path style=" stroke:none;fill-rule:nonzero;fill:rgb(74.901961%,74.901961%,74.901961%);fill-opacity:1;" d="M 3.640625 60.707031 L 11.097656 60.707031 L 11.097656 3.304688 L 39.761719 3.304688 L 39.761719 1.003906 L 3.640625 1.003906 Z M 3.640625 60.707031 "/>
<path style=" stroke:none;fill-rule:nonzero;fill:rgb(74.901961%,74.901961%,74.901961%);fill-opacity:1;" d="M 3.640625 80.667969 L 11.097656 80.667969 L 11.097656 60.683594 L 3.640625 60.683594 Z M 3.640625 80.667969 "/>
<path style=" stroke:none;fill-rule:nonzero;fill:rgb(74.901961%,74.901961%,74.901961%);fill-opacity:1;" d="M 3.640625 100.578125 L 11.097656 100.578125 L 11.097656 80.59375 L 3.640625 80.59375 Z M 3.640625 100.578125 "/>
<path style=" stroke:none;fill-rule:nonzero;fill:rgb(74.901961%,74.901961%,74.901961%);fill-opacity:1;" d="M 3.640625 120.503906 L 11.097656 120.503906 L 11.097656 100.519531 L 3.640625 100.519531 Z M 3.640625 120.503906 "/>
<path style=" stroke:none;fill-rule:nonzero;fill:rgb(74.901961%,74.901961%,74.901961%);fill-opacity:1;" d="M 3.640625 140.417969 L 11.097656 140.417969 L 11.097656 120.433594 L 3.640625 120.433594 Z M 3.640625 140.417969 "/>
<path style=" stroke:none;fill-rule:nonzero;fill:rgb(74.901961%,74.901961%,74.901961%);fill-opacity:1;" d="M 3.640625 160.339844 L 11.097656 160.339844 L 11.097656 140.355469 L 3.640625 140.355469 Z M 3.640625 160.339844 "/>
<path style=" stroke:none;fill-rule:nonzero;fill:rgb(74.901961%,74.901961%,74.901961%);fill-opacity:1;" d="M 3.640625 180.253906 L 11.097656 180.253906 L 11.097656 160.269531 L 3.640625 160.269531 Z M 3.640625 180.253906 "/>
<path style=" stroke:none;fill-rule:nonzero;fill:rgb(74.901961%,74.901961%,74.901961%);fill-opacity:1;" d="M 3.640625 200.179688 L 11.097656 200.179688 L 11.097656 180.195312 L 3.640625 180.195312 Z M 3.640625 200.179688 "/>
<path style=" stroke:none;fill-rule:nonzero;fill:rgb(74.901961%,74.901961%,74.901961%);fill-opacity:1;" d="M 3.640625 220.089844 L 11.097656 220.089844 L 11.097656 200.105469 L 3.640625 200.105469 Z M 3.640625 220.089844 "/>
<path style=" stroke:none;fill-rule:nonzero;fill:rgb(74.901961%,74.901961%,74.901961%);fill-opacity:1;" d="M 3.640625 240.015625 L 11.097656 240.015625 L 11.097656 220.03125 L 3.640625 220.03125 Z M 3.640625 240.015625 "/>
<path style=" stroke:none;fill-rule:nonzero;fill:rgb(74.901961%,74.901961%,74.901961%);fill-opacity:1;" d="M 3.640625 299.695312 L 39.761719 299.695312 L 39.761719 297.394531 L 11.097656 297.394531 L 11.097656 239.992188 L 3.640625 239.992188 Z M 3.640625 299.695312 "/>
<path style=" stroke:none;fill-rule:nonzero;fill:rgb(74.901961%,74.901961%,74.901961%);fill-opacity:1;" d="M 107.496094 78.605469 L 107.496094 79.988281 C 114.472656 79.988281 121.519531 79.800781 128.222656 79.128906 L 128.222656 104.808594 L 127.949219 105.328125 L 126.378906 105.476562 L 108.246094 105.476562 L 108.246094 106.921875 L 162.773438 106.921875 L 162.773438 105.519531 L 146.082031 105.519531 C 144.371094 105.519531 142.933594 105.433594 142.933594 104.847656 L 142.933594 76.160156 C 142.933594 75.929688 142.933594 75.550781 141.839844 75.550781 C 139.511719 75.550781 136.707031 76.554688 134.175781 76.933594 C 126.035156 78.273438 116.660156 78.605469 107.496094 78.605469 Z M 107.496094 78.605469 "/>
<path style=" stroke:none;fill-rule:nonzero;fill:rgb(74.901961%,74.901961%,74.901961%);fill-opacity:1;" d="M 621.617188 75.550781 C 591.449219 76.554688 590.351562 85.679688 590.351562 92.144531 C 590.351562 97.878906 592.40625 107.484375 624.285156 107.484375 C 647.890625 107.484375 657.742188 101.125 657.742188 93.191406 L 657.742188 90.410156 C 657.742188 83.964844 652.472656 75.488281 624.492188 75.488281 C 623.535156 75.488281 622.578125 75.488281 621.617188 75.550781 Z M 605.40625 94.617188 C 605.199219 94.238281 605.199219 93.863281 605.199219 93.484375 C 605.199219 90.554688 605.199219 87.648438 605.882812 84.71875 C 606.15625 82.855469 606.636719 80.761719 609.917969 79.128906 C 613.203125 77.601562 618.675781 76.703125 624.285156 76.703125 C 641.324219 76.703125 642.757812 82.917969 642.757812 87.648438 L 642.757812 90.410156 C 642.757812 91.75 642.894531 93.234375 642.894531 94.761719 C 642.894531 97.878906 642.28125 101.125 638.859375 103.382812 C 635.847656 105.058594 630.238281 106.398438 624.011719 106.398438 L 623.671875 106.398438 C 613.820312 106.398438 608.210938 103.425781 606.976562 100.789062 C 605.679688 98.738281 606.019531 96.6875 605.40625 94.617188 Z M 605.40625 94.617188 "/>
<path style=" stroke:none;fill-rule:nonzero;fill:rgb(74.901961%,74.901961%,74.901961%);fill-opacity:1;" d="M 154.796875 220.195312 C 124.628906 221.199219 123.53125 230.324219 123.53125 236.789062 C 123.53125 242.523438 125.585938 252.128906 157.464844 252.128906 C 181.070312 252.128906 190.921875 245.765625 190.921875 237.835938 L 190.921875 235.050781 C 190.921875 228.605469 185.652344 220.132812 157.671875 220.132812 C 156.714844 220.132812 155.757812 220.132812 154.796875 220.195312 Z M 138.585938 239.257812 C 138.378906 238.882812 138.378906 238.503906 138.378906 238.128906 C 138.378906 235.199219 138.378906 232.289062 139.0625 229.359375 C 139.335938 227.496094 139.816406 225.40625 143.097656 223.773438 C 146.382812 222.246094 151.855469 221.34375 157.464844 221.34375 C 174.503906 221.34375 175.9375 227.5625 175.9375 232.289062 L 175.9375 235.050781 C 175.9375 236.390625 176.074219 237.878906 176.074219 239.40625 C 176.074219 242.523438 175.460938 245.765625 172.039062 248.027344 C 169.027344 249.699219 163.417969 251.039062 157.191406 251.039062 L 156.851562 251.039062 C 147 251.039062 141.390625 248.070312 140.15625 245.433594 C 138.859375 243.382812 139.199219 241.332031 138.585938 239.257812 Z M 138.585938 239.257812 "/>
<path style=" stroke:none;fill-rule:nonzero;fill:rgb(74.901961%,74.901961%,74.901961%);fill-opacity:1;" d="M 559.121094 239.132812 L 559.121094 242.710938 L 601.8125 242.710938 L 601.8125 239.132812 Z M 559.121094 239.132812 "/>
<path style=" stroke:none;fill-rule:nonzero;fill:rgb(74.901961%,74.901961%,74.901961%);fill-opacity:1;" d="M 624.335938 223.25 L 624.335938 224.632812 C 631.316406 224.632812 638.363281 224.441406 645.066406 223.773438 L 645.066406 249.449219 L 644.792969 249.972656 L 643.21875 250.121094 L 625.089844 250.121094 L 625.089844 251.5625 L 679.617188 251.5625 L 679.617188 250.160156 L 662.921875 250.160156 C 661.214844 250.160156 659.777344 250.078125 659.777344 249.492188 L 659.777344 220.800781 C 659.777344 220.570312 659.777344 220.195312 658.683594 220.195312 C 656.355469 220.195312 653.550781 221.199219 651.019531 221.574219 C 642.878906 222.914062 633.503906 223.25 624.335938 223.25 Z M 624.335938 223.25 "/>
<path style=" stroke:none;fill-rule:nonzero;fill:rgb(74.901961%,74.901961%,74.901961%);fill-opacity:1;" d="M 773.8125 60.707031 L 781.269531 60.707031 L 781.269531 1.003906 L 745.148438 1.003906 L 745.148438 3.304688 L 773.8125 3.304688 Z M 773.8125 60.707031 "/>
<path style=" stroke:none;fill-rule:nonzero;fill:rgb(74.901961%,74.901961%,74.901961%);fill-opacity:1;" d="M 773.8125 80.667969 L 781.269531 80.667969 L 781.269531 60.683594 L 773.8125 60.683594 Z M 773.8125 80.667969 "/>
<path style=" stroke:none;fill-rule:nonzero;fill:rgb(74.901961%,74.901961%,74.901961%);fill-opacity:1;" d="M 773.8125 100.578125 L 781.269531 100.578125 L 781.269531 80.59375 L 773.8125 80.59375 Z M 773.8125 100.578125 "/>
<path style=" stroke:none;fill-rule:nonzero;fill:rgb(74.901961%,74.901961%,74.901961%);fill-opacity:1;" d="M 773.8125 120.503906 L 781.269531 120.503906 L 781.269531 100.519531 L 773.8125 100.519531 Z M 773.8125 120.503906 "/>
<path style=" stroke:none;fill-rule:nonzero;fill:rgb(74.901961%,74.901961%,74.901961%);fill-opacity:1;" d="M 773.8125 140.417969 L 781.269531 140.417969 L 781.269531 120.433594 L 773.8125 120.433594 Z M 773.8125 140.417969 "/>
<path style=" stroke:none;fill-rule:nonzero;fill:rgb(74.901961%,74.901961%,74.901961%);fill-opacity:1;" d="M 773.8125 160.339844 L 781.269531 160.339844 L 781.269531 140.355469 L 773.8125 140.355469 Z M 773.8125 160.339844 "/>
<path style=" stroke:none;fill-rule:nonzero;fill:rgb(74.901961%,74.901961%,74.901961%);fill-opacity:1;" d="M 773.8125 180.253906 L 781.269531 180.253906 L 781.269531 160.269531 L 773.8125 160.269531 Z M 773.8125 180.253906 "/>
<path style=" stroke:none;fill-rule:nonzero;fill:rgb(74.901961%,74.901961%,74.901961%);fill-opacity:1;" d="M 773.8125 200.179688 L 781.269531 200.179688 L 781.269531 180.195312 L 773.8125 180.195312 Z M 773.8125 200.179688 "/>
<path style=" stroke:none;fill-rule:nonzero;fill:rgb(74.901961%,74.901961%,74.901961%);fill-opacity:1;" d="M 773.8125 220.089844 L 781.269531 220.089844 L 781.269531 200.105469 L 773.8125 200.105469 Z M 773.8125 220.089844 "/>
<path style=" stroke:none;fill-rule:nonzero;fill:rgb(74.901961%,74.901961%,74.901961%);fill-opacity:1;" d="M 773.8125 240.015625 L 781.269531 240.015625 L 781.269531 220.03125 L 773.8125 220.03125 Z M 773.8125 240.015625 "/>
<path style=" stroke:none;fill-rule:nonzero;fill:rgb(74.901961%,74.901961%,74.901961%);fill-opacity:1;" d="M 773.8125 297.394531 L 745.148438 297.394531 L 745.148438 299.695312 L 781.269531 299.695312 L 781.269531 239.992188 L 773.8125 239.992188 Z M 773.8125 297.394531 "/>
<path style=" stroke:none;fill-rule:nonzero;fill:rgb(74.901961%,74.901961%,74.901961%);fill-opacity:1;" d="M 870.203125 60.707031 L 877.664062 60.707031 L 877.664062 3.304688 L 906.328125 3.304688 L 906.328125 1.003906 L 870.203125 1.003906 Z M 870.203125 60.707031 "/>
<path style=" stroke:none;fill-rule:nonzero;fill:rgb(74.901961%,74.901961%,74.901961%);fill-opacity:1;" d="M 870.203125 80.667969 L 877.664062 80.667969 L 877.664062 60.683594 L 870.203125 60.683594 Z M 870.203125 80.667969 "/>
<path style=" stroke:none;fill-rule:nonzero;fill:rgb(74.901961%,74.901961%,74.901961%);fill-opacity:1;" d="M 870.203125 100.582031 L 877.664062 100.582031 L 877.664062 80.59375 L 870.203125 80.59375 Z M 870.203125 100.582031 "/>
<path style=" stroke:none;fill-rule:nonzero;fill:rgb(74.901961%,74.901961%,74.901961%);fill-opacity:1;" d="M 870.203125 120.503906 L 877.664062 120.503906 L 877.664062 100.519531 L 870.203125 100.519531 Z M 870.203125 120.503906 "/>
<path style=" stroke:none;fill-rule:nonzero;fill:rgb(74.901961%,74.901961%,74.901961%);fill-opacity:1;" d="M 870.203125 140.417969 L 877.664062 140.417969 L 877.664062 120.433594 L 870.203125 120.433594 Z M 870.203125 140.417969 "/>
<path style=" stroke:none;fill-rule:nonzero;fill:rgb(74.901961%,74.901961%,74.901961%);fill-opacity:1;" d="M 870.203125 160.339844 L 877.664062 160.339844 L 877.664062 140.355469 L 870.203125 140.355469 Z M 870.203125 160.339844 "/>
<path style=" stroke:none;fill-rule:nonzero;fill:rgb(74.901961%,74.901961%,74.901961%);fill-opacity:1;" d="M 870.203125 180.253906 L 877.664062 180.253906 L 877.664062 160.269531 L 870.203125 160.269531 Z M 870.203125 180.253906 "/>
<path style=" stroke:none;fill-rule:nonzero;fill:rgb(74.901961%,74.901961%,74.901961%);fill-opacity:1;" d="M 870.203125 200.179688 L 877.664062 200.179688 L 877.664062 180.195312 L 870.203125 180.195312 Z M 870.203125 200.179688 "/>
<path style=" stroke:none;fill-rule:nonzero;fill:rgb(74.901961%,74.901961%,74.901961%);fill-opacity:1;" d="M 870.203125 220.089844 L 877.664062 220.089844 L 877.664062 200.105469 L 870.203125 200.105469 Z M 870.203125 220.089844 "/>
<path style=" stroke:none;fill-rule:nonzero;fill:rgb(74.901961%,74.901961%,74.901961%);fill-opacity:1;" d="M 870.203125 240.015625 L 877.664062 240.015625 L 877.664062 220.03125 L 870.203125 220.03125 Z M 870.203125 240.015625 "/>
<path style=" stroke:none;fill-rule:nonzero;fill:rgb(74.901961%,74.901961%,74.901961%);fill-opacity:1;" d="M 870.203125 299.695312 L 906.328125 299.695312 L 906.328125 297.394531 L 877.664062 297.394531 L 877.664062 239.992188 L 870.203125 239.992188 Z M 870.203125 299.695312 "/>
<path style=" stroke:none;fill-rule:nonzero;fill:rgb(74.901961%,74.901961%,74.901961%);fill-opacity:1;" d="M 967.28125 78.605469 L 967.28125 79.988281 C 974.261719 79.988281 981.308594 79.800781 988.011719 79.128906 L 988.011719 104.808594 L 987.738281 105.332031 L 986.164062 105.476562 L 968.035156 105.476562 L 968.035156 106.921875 L 1022.5625 106.921875 L 1022.5625 105.519531 L 1005.871094 105.519531 C 1004.160156 105.519531 1002.722656 105.433594 1002.722656 104.847656 L 1002.722656 76.160156 C 1002.722656 75.929688 1002.722656 75.550781 1001.628906 75.550781 C 999.300781 75.550781 996.496094 76.554688 993.964844 76.933594 C 985.824219 78.273438 976.449219 78.605469 967.28125 78.605469 Z M 967.28125 78.605469 "/>
<path style=" stroke:none;fill-rule:nonzero;fill:rgb(74.901961%,74.901961%,74.901961%);fill-opacity:1;" d="M 1102.464844 71.09375 C 1100.753906 71.28125 1099.660156 72.683594 1098.90625 73.398438 C 1080.296875 87.6875 1063.535156 102.128906 1044.925781 116.378906 L 1043.558594 117.570312 C 1043.214844 117.761719 1042.941406 118.011719 1042.738281 118.242188 C 1042.738281 118.535156 1043.558594 118.828125 1044.449219 118.828125 L 1044.789062 118.828125 C 1045.882812 118.765625 1046.363281 118.492188 1046.636719 118.199219 L 1049.03125 116.335938 C 1066.683594 101.898438 1084.8125 87.542969 1103.078125 73.167969 L 1104.175781 72.246094 C 1104.378906 72.058594 1104.789062 71.867188 1104.789062 71.617188 C 1104.789062 71.28125 1103.902344 71.09375 1102.941406 71.09375 Z M 1102.464844 71.09375 "/>
<path style=" stroke:none;fill-rule:nonzero;fill:rgb(74.901961%,74.901961%,74.901961%);fill-opacity:1;" d="M 1159.972656 110.101562 C 1163.390625 110.101562 1163.460938 110.058594 1164.554688 109.433594 L 1223.941406 71.535156 C 1224.691406 71.09375 1224.691406 71.03125 1224.691406 70.929688 C 1224.691406 70.570312 1223.804688 70.277344 1222.503906 70.277344 C 1221.066406 70.277344 1220.65625 70.570312 1220.109375 70.929688 L 1164.144531 106.648438 L 1141.019531 90.179688 L 1125.902344 93.738281 L 1127.542969 94.261719 L 1135.273438 92.480469 Z M 1159.972656 110.101562 "/>
<path style="fill:none;stroke-width:9.99;stroke-linecap:butt;stroke-linejoin:miter;stroke:rgb(74.901961%,74.901961%,74.901961%);stroke-opacity:1;stroke-miterlimit:10;" d="M 2792.035685 1710.391667 L 2975.037653 1710.391667 " transform="matrix(0.437858,0,0,-0.133929,0,300)"/>
<path style=" stroke:none;fill-rule:nonzero;fill:rgb(74.901961%,74.901961%,74.901961%);fill-opacity:1;" d="M 1235.316406 81.660156 C 1238.941406 78.753906 1247.5625 76.933594 1257.070312 76.933594 C 1270.207031 76.933594 1278.828125 80.46875 1278.828125 84.339844 L 1278.828125 84.863281 C 1277.871094 89.277344 1268.15625 92.753906 1258.917969 95.914062 C 1251.121094 98.589844 1243.183594 101.3125 1235.316406 103.992188 L 1232.375 104.996094 C 1231.140625 105.390625 1230.320312 105.664062 1230.320312 106.1875 C 1230.320312 106.4375 1230.527344 106.667969 1230.527344 106.921875 L 1290.867188 106.921875 L 1294.425781 97.691406 L 1290.390625 97.691406 C 1289.570312 99.554688 1289.773438 102.167969 1283.820312 102.167969 C 1279.921875 102.316406 1275.816406 102.378906 1271.917969 102.378906 C 1267.882812 102.378906 1263.980469 102.316406 1260.011719 102.316406 L 1244.550781 102.316406 C 1251.460938 100.371094 1258.167969 98.257812 1265.351562 96.394531 L 1274.722656 93.945312 C 1284.4375 91.414062 1294.425781 88.652344 1294.425781 84.296875 L 1294.425781 83.816406 C 1292.851562 78.460938 1277.734375 75.550781 1260.972656 75.550781 C 1246.261719 75.550781 1230.527344 78.648438 1230.527344 83.816406 C 1230.527344 85.492188 1234.085938 86.390625 1238.460938 86.390625 C 1242.363281 86.390625 1246.46875 85.535156 1246.46875 84.003906 C 1246.46875 82.625 1243.183594 81.515625 1238.597656 81.515625 C 1237.503906 81.515625 1236.410156 81.578125 1235.316406 81.660156 Z M 1235.316406 81.660156 "/>
<path style=" stroke:none;fill-rule:nonzero;fill:rgb(74.901961%,74.901961%,74.901961%);fill-opacity:1;" d="M 967.28125 223.25 L 967.28125 224.632812 C 974.257812 224.632812 981.304688 224.441406 988.011719 223.773438 L 988.011719 249.449219 L 987.738281 249.972656 L 986.164062 250.117188 L 968.035156 250.117188 L 968.035156 251.5625 L 1022.5625 251.5625 L 1022.5625 250.160156 L 1005.867188 250.160156 C 1004.15625 250.160156 1002.71875 250.078125 1002.71875 249.492188 L 1002.71875 220.800781 C 1002.71875 220.570312 1002.71875 220.195312 1001.625 220.195312 C 999.300781 220.195312 996.496094 221.199219 993.964844 221.574219 C 985.820312 222.914062 976.449219 223.25 967.28125 223.25 Z M 967.28125 223.25 "/>
<path style=" stroke:none;fill-rule:nonzero;fill:rgb(74.901961%,74.901961%,74.901961%);fill-opacity:1;" d="M 1102.460938 215.738281 C 1100.75 215.925781 1099.65625 217.328125 1098.90625 218.039062 C 1080.296875 232.332031 1063.535156 246.769531 1044.925781 261.023438 L 1043.554688 262.214844 C 1043.214844 262.402344 1042.941406 262.652344 1042.734375 262.882812 C 1042.734375 263.175781 1043.554688 263.46875 1044.445312 263.46875 L 1044.789062 263.46875 C 1045.882812 263.40625 1046.363281 263.136719 1046.636719 262.84375 L 1049.03125 260.980469 C 1066.679688 246.539062 1084.8125 232.183594 1103.078125 217.808594 L 1104.171875 216.886719 C 1104.378906 216.699219 1104.789062 216.511719 1104.789062 216.261719 C 1104.789062 215.925781 1103.898438 215.738281 1102.941406 215.738281 Z M 1102.460938 215.738281 "/>
<path style=" stroke:none;fill-rule:nonzero;fill:rgb(74.901961%,74.901961%,74.901961%);fill-opacity:1;" d="M 1159.96875 254.746094 C 1163.390625 254.746094 1163.460938 254.703125 1164.554688 254.074219 L 1223.9375 216.175781 C 1224.691406 215.738281 1224.691406 215.675781 1224.691406 215.570312 C 1224.691406 215.214844 1223.800781 214.921875 1222.5 214.921875 C 1221.066406 214.921875 1220.65625 215.214844 1220.105469 215.570312 L 1164.144531 251.292969 L 1141.019531 234.824219 L 1125.898438 238.378906 L 1127.542969 238.902344 L 1135.273438 237.125 Z M 1159.96875 254.746094 "/>
<path style="fill:none;stroke-width:9.99;stroke-linecap:butt;stroke-linejoin:miter;stroke:rgb(74.901961%,74.901961%,74.901961%);stroke-opacity:1;stroke-miterlimit:10;" d="M 2792.035685 630.379167 L 2975.037653 630.379167 " transform="matrix(0.437858,0,0,-0.133929,0,300)"/>
<path style=" stroke:none;fill-rule:nonzero;fill:rgb(74.901961%,74.901961%,74.901961%);fill-opacity:1;" d="M 1235.316406 226.304688 C 1238.941406 223.394531 1247.5625 221.574219 1257.070312 221.574219 C 1270.207031 221.574219 1278.828125 225.113281 1278.828125 228.984375 L 1278.828125 229.507812 C 1277.871094 233.921875 1268.15625 237.394531 1258.917969 240.554688 C 1251.121094 243.234375 1243.183594 245.953125 1235.316406 248.632812 L 1232.375 249.636719 C 1231.140625 250.035156 1230.320312 250.308594 1230.320312 250.832031 C 1230.320312 251.082031 1230.527344 251.3125 1230.527344 251.5625 L 1290.867188 251.5625 L 1294.425781 242.335938 L 1290.390625 242.335938 C 1289.570312 244.195312 1289.773438 246.8125 1283.820312 246.8125 C 1279.921875 246.960938 1275.816406 247.023438 1271.917969 247.023438 C 1267.882812 247.023438 1263.980469 246.960938 1260.011719 246.960938 L 1244.550781 246.960938 C 1251.460938 245.011719 1258.167969 242.898438 1265.351562 241.035156 L 1274.722656 238.589844 C 1284.4375 236.054688 1294.425781 233.292969 1294.425781 228.941406 L 1294.425781 228.460938 C 1292.851562 223.101562 1277.734375 220.195312 1260.972656 220.195312 C 1246.261719 220.195312 1230.527344 223.292969 1230.527344 228.460938 C 1230.527344 230.132812 1234.085938 231.035156 1238.460938 231.035156 C 1242.363281 231.035156 1246.46875 230.175781 1246.46875 228.648438 C 1246.46875 227.265625 1243.183594 226.160156 1238.597656 226.160156 C 1237.503906 226.160156 1236.410156 226.222656 1235.316406 226.304688 Z M 1235.316406 226.304688 "/>
<path style=" stroke:none;fill-rule:nonzero;fill:rgb(74.901961%,74.901961%,74.901961%);fill-opacity:1;" d="M 1385.453125 60.707031 L 1392.910156 60.707031 L 1392.910156 1.003906 L 1356.785156 1.003906 L 1356.785156 3.304688 L 1385.453125 3.304688 Z M 1385.453125 60.707031 "/>
<path style=" stroke:none;fill-rule:nonzero;fill:rgb(74.901961%,74.901961%,74.901961%);fill-opacity:1;" d="M 1385.453125 80.667969 L 1392.910156 80.667969 L 1392.910156 60.683594 L 1385.453125 60.683594 Z M 1385.453125 80.667969 "/>
<path style=" stroke:none;fill-rule:nonzero;fill:rgb(74.901961%,74.901961%,74.901961%);fill-opacity:1;" d="M 1385.453125 100.578125 L 1392.910156 100.578125 L 1392.910156 80.59375 L 1385.453125 80.59375 Z M 1385.453125 100.578125 "/>
<path style=" stroke:none;fill-rule:nonzero;fill:rgb(74.901961%,74.901961%,74.901961%);fill-opacity:1;" d="M 1385.453125 120.503906 L 1392.910156 120.503906 L 1392.910156 100.519531 L 1385.453125 100.519531 Z M 1385.453125 120.503906 "/>
<path style=" stroke:none;fill-rule:nonzero;fill:rgb(74.901961%,74.901961%,74.901961%);fill-opacity:1;" d="M 1385.453125 140.417969 L 1392.910156 140.417969 L 1392.910156 120.433594 L 1385.453125 120.433594 Z M 1385.453125 140.417969 "/>
<path style=" stroke:none;fill-rule:nonzero;fill:rgb(74.901961%,74.901961%,74.901961%);fill-opacity:1;" d="M 1385.453125 160.339844 L 1392.910156 160.339844 L 1392.910156 140.355469 L 1385.453125 140.355469 Z M 1385.453125 160.339844 "/>
<path style=" stroke:none;fill-rule:nonzero;fill:rgb(74.901961%,74.901961%,74.901961%);fill-opacity:1;" d="M 1385.453125 180.253906 L 1392.910156 180.253906 L 1392.910156 160.269531 L 1385.453125 160.269531 Z M 1385.453125 180.253906 "/>
<path style=" stroke:none;fill-rule:nonzero;fill:rgb(74.901961%,74.901961%,74.901961%);fill-opacity:1;" d="M 1385.453125 200.179688 L 1392.910156 200.179688 L 1392.910156 180.195312 L 1385.453125 180.195312 Z M 1385.453125 200.179688 "/>
<path style=" stroke:none;fill-rule:nonzero;fill:rgb(74.901961%,74.901961%,74.901961%);fill-opacity:1;" d="M 1385.453125 220.089844 L 1392.910156 220.089844 L 1392.910156 200.105469 L 1385.453125 200.105469 Z M 1385.453125 220.089844 "/>
<path style=" stroke:none;fill-rule:nonzero;fill:rgb(74.901961%,74.901961%,74.901961%);fill-opacity:1;" d="M 1385.453125 240.015625 L 1392.910156 240.015625 L 1392.910156 220.03125 L 1385.453125 220.03125 Z M 1385.453125 240.015625 "/>
<path style=" stroke:none;fill-rule:nonzero;fill:rgb(74.901961%,74.901961%,74.901961%);fill-opacity:1;" d="M 1385.453125 297.394531 L 1356.785156 297.394531 L 1356.785156 299.695312 L 1392.910156 299.695312 L 1392.910156 239.992188 L 1385.453125 239.992188 Z M 1385.453125 297.394531 "/>
<path style=" stroke:none;fill-rule:nonzero;fill:rgb(74.901961%,74.901961%,74.901961%);fill-opacity:1;" d="M 1919.261719 60.707031 L 1926.71875 60.707031 L 1926.71875 3.304688 L 1955.386719 3.304688 L 1955.386719 1.003906 L 1919.261719 1.003906 Z M 1919.261719 60.707031 "/>
<path style=" stroke:none;fill-rule:nonzero;fill:rgb(74.901961%,74.901961%,74.901961%);fill-opacity:1;" d="M 1919.261719 80.667969 L 1926.71875 80.667969 L 1926.71875 60.683594 L 1919.261719 60.683594 Z M 1919.261719 80.667969 "/>
<path style=" stroke:none;fill-rule:nonzero;fill:rgb(74.901961%,74.901961%,74.901961%);fill-opacity:1;" d="M 1919.261719 100.578125 L 1926.71875 100.578125 L 1926.71875 80.59375 L 1919.261719 80.59375 Z M 1919.261719 100.578125 "/>
<path style=" stroke:none;fill-rule:nonzero;fill:rgb(74.901961%,74.901961%,74.901961%);fill-opacity:1;" d="M 1919.261719 120.503906 L 1926.71875 120.503906 L 1926.71875 100.519531 L 1919.261719 100.519531 Z M 1919.261719 120.503906 "/>
<path style=" stroke:none;fill-rule:nonzero;fill:rgb(74.901961%,74.901961%,74.901961%);fill-opacity:1;" d="M 1919.261719 140.417969 L 1926.71875 140.417969 L 1926.71875 120.433594 L 1919.261719 120.433594 Z M 1919.261719 140.417969 "/>
<path style=" stroke:none;fill-rule:nonzero;fill:rgb(74.901961%,74.901961%,74.901961%);fill-opacity:1;" d="M 1919.261719 160.339844 L 1926.71875 160.339844 L 1926.71875 140.355469 L 1919.261719 140.355469 Z M 1919.261719 160.339844 "/>
<path style=" stroke:none;fill-rule:nonzero;fill:rgb(74.901961%,74.901961%,74.901961%);fill-opacity:1;" d="M 1919.261719 180.253906 L 1926.71875 180.253906 L 1926.71875 160.269531 L 1919.261719 160.269531 Z M 1919.261719 180.253906 "/>
<path style=" stroke:none;fill-rule:nonzero;fill:rgb(74.901961%,74.901961%,74.901961%);fill-opacity:1;" d="M 1919.261719 200.179688 L 1926.71875 200.179688 L 1926.71875 180.195312 L 1919.261719 180.195312 Z M 1919.261719 200.179688 "/>
<path style=" stroke:none;fill-rule:nonzero;fill:rgb(74.901961%,74.901961%,74.901961%);fill-opacity:1;" d="M 1919.261719 220.089844 L 1926.71875 220.089844 L 1926.71875 200.105469 L 1919.261719 200.105469 Z M 1919.261719 220.089844 "/>
<path style=" stroke:none;fill-rule:nonzero;fill:rgb(74.901961%,74.901961%,74.901961%);fill-opacity:1;" d="M 1919.261719 240.015625 L 1926.71875 240.015625 L 1926.71875 220.03125 L 1919.261719 220.03125 Z M 1919.261719 240.015625 "/>
<path style=" stroke:none;fill-rule:nonzero;fill:rgb(74.901961%,74.901961%,74.901961%);fill-opacity:1;" d="M 1919.261719 299.695312 L 1955.386719 299.695312 L 1955.386719 297.394531 L 1926.71875 297.394531 L 1926.71875 239.992188 L 1919.261719 239.992188 Z M 1919.261719 299.695312 "/>
<path style=" stroke:none;fill-rule:nonzero;fill:rgb(74.901961%,74.901961%,74.901961%);fill-opacity:1;" d="M 2016.300781 78.605469 L 2016.300781 79.988281 C 2023.28125 79.988281 2030.328125 79.800781 2037.03125 79.128906 L 2037.03125 104.804688 L 2036.757812 105.328125 L 2035.183594 105.476562 L 2017.054688 105.476562 L 2017.054688 106.921875 L 2071.582031 106.921875 L 2071.582031 105.519531 L 2054.886719 105.519531 C 2053.179688 105.519531 2051.742188 105.433594 2051.742188 104.847656 L 2051.742188 76.160156 C 2051.742188 75.929688 2051.742188 75.550781 2050.644531 75.550781 C 2048.320312 75.550781 2045.515625 76.554688 2042.984375 76.933594 C 2034.84375 78.273438 2025.46875 78.605469 2016.300781 78.605469 Z M 2016.300781 78.605469 "/>
<path style=" stroke:none;fill-rule:nonzero;fill:rgb(74.901961%,74.901961%,74.901961%);fill-opacity:1;" d="M 2151.484375 71.09375 C 2149.773438 71.28125 2148.679688 72.683594 2147.925781 73.394531 C 2129.316406 87.6875 2112.554688 102.128906 2093.945312 116.378906 L 2092.578125 117.570312 C 2092.234375 117.761719 2091.960938 118.011719 2091.757812 118.242188 C 2091.757812 118.535156 2092.578125 118.828125 2093.464844 118.828125 L 2093.808594 118.828125 C 2094.902344 118.765625 2095.382812 118.492188 2095.65625 118.199219 L 2098.050781 116.335938 C 2115.703125 101.898438 2133.832031 87.542969 2152.097656 73.164062 L 2153.191406 72.246094 C 2153.398438 72.058594 2153.808594 71.867188 2153.808594 71.617188 C 2153.808594 71.28125 2152.917969 71.09375 2151.960938 71.09375 Z M 2151.484375 71.09375 "/>
<path style=" stroke:none;fill-rule:nonzero;fill:rgb(74.901961%,74.901961%,74.901961%);fill-opacity:1;" d="M 2209.027344 110.101562 C 2212.449219 110.101562 2212.515625 110.058594 2213.613281 109.433594 L 2272.996094 71.535156 C 2273.75 71.09375 2273.75 71.03125 2273.75 70.925781 C 2273.75 70.570312 2272.859375 70.277344 2271.558594 70.277344 C 2270.125 70.277344 2269.710938 70.570312 2269.164062 70.925781 L 2213.203125 106.648438 L 2190.078125 90.179688 L 2174.957031 93.738281 L 2176.597656 94.261719 L 2184.332031 92.480469 Z M 2209.027344 110.101562 "/>
<path style="fill:none;stroke-width:9.99;stroke-linecap:butt;stroke-linejoin:miter;stroke:rgb(74.901961%,74.901961%,74.901961%);stroke-opacity:1;stroke-miterlimit:10;" d="M 5187.931391 1710.391667 L 5370.897674 1710.391667 " transform="matrix(0.437858,0,0,-0.133929,0,300)"/>
<path style=" stroke:none;fill-rule:nonzero;fill:rgb(74.901961%,74.901961%,74.901961%);fill-opacity:1;" d="M 2284.375 81.660156 C 2288 78.753906 2296.621094 76.933594 2306.132812 76.933594 C 2319.265625 76.933594 2327.886719 80.46875 2327.886719 84.339844 L 2327.886719 84.863281 C 2326.929688 89.277344 2317.214844 92.753906 2307.980469 95.914062 C 2300.179688 98.589844 2292.242188 101.3125 2284.375 103.992188 L 2281.433594 104.996094 C 2280.203125 105.390625 2279.382812 105.664062 2279.382812 106.1875 C 2279.382812 106.4375 2279.585938 106.667969 2279.585938 106.921875 L 2339.929688 106.921875 L 2343.488281 97.691406 L 2339.449219 97.691406 C 2338.628906 99.554688 2338.835938 102.167969 2332.882812 102.167969 C 2328.980469 102.316406 2324.878906 102.378906 2320.976562 102.378906 C 2316.941406 102.378906 2313.042969 102.316406 2309.074219 102.316406 L 2293.613281 102.316406 C 2300.523438 100.371094 2307.226562 98.257812 2314.410156 96.394531 L 2323.78125 93.945312 C 2333.496094 91.414062 2343.488281 88.652344 2343.488281 84.296875 L 2343.488281 83.816406 C 2341.914062 78.460938 2326.792969 75.550781 2310.03125 75.550781 C 2295.320312 75.550781 2279.585938 78.648438 2279.585938 83.816406 C 2279.585938 85.492188 2283.144531 86.390625 2287.523438 86.390625 C 2291.421875 86.390625 2295.527344 85.535156 2295.527344 84.003906 C 2295.527344 82.625 2292.242188 81.515625 2287.660156 81.515625 C 2286.566406 81.515625 2285.46875 81.578125 2284.375 81.660156 Z M 2284.375 81.660156 "/>
<path style=" stroke:none;fill-rule:nonzero;fill:rgb(74.901961%,74.901961%,74.901961%);fill-opacity:1;" d="M 2016.304688 223.25 L 2016.304688 224.632812 C 2023.28125 224.632812 2030.328125 224.441406 2037.035156 223.773438 L 2037.035156 249.449219 L 2036.761719 249.972656 L 2035.1875 250.117188 L 2017.054688 250.117188 L 2017.054688 251.5625 L 2071.582031 251.5625 L 2071.582031 250.160156 L 2054.890625 250.160156 C 2053.179688 250.160156 2051.742188 250.078125 2051.742188 249.492188 L 2051.742188 220.800781 C 2051.742188 220.570312 2051.742188 220.195312 2050.648438 220.195312 C 2048.320312 220.195312 2045.515625 221.199219 2042.984375 221.574219 C 2034.84375 222.914062 2025.472656 223.25 2016.304688 223.25 Z M 2016.304688 223.25 "/>
<path style=" stroke:none;fill-rule:nonzero;fill:rgb(74.901961%,74.901961%,74.901961%);fill-opacity:1;" d="M 2151.484375 215.738281 C 2149.773438 215.925781 2148.679688 217.328125 2147.925781 218.039062 C 2129.316406 232.332031 2112.554688 246.769531 2093.949219 261.023438 L 2092.578125 262.214844 C 2092.238281 262.402344 2091.964844 262.652344 2091.757812 262.882812 C 2091.757812 263.175781 2092.578125 263.46875 2093.46875 263.46875 L 2093.808594 263.46875 C 2094.90625 263.40625 2095.382812 263.136719 2095.65625 262.84375 L 2098.050781 260.980469 C 2115.703125 246.539062 2133.832031 232.183594 2152.101562 217.808594 L 2153.195312 216.886719 C 2153.398438 216.699219 2153.8125 216.511719 2153.8125 216.261719 C 2153.8125 215.925781 2152.921875 215.738281 2151.964844 215.738281 Z M 2151.484375 215.738281 "/>
<path style=" stroke:none;fill-rule:nonzero;fill:rgb(74.901961%,74.901961%,74.901961%);fill-opacity:1;" d="M 2209.03125 254.746094 C 2212.449219 254.746094 2212.519531 254.703125 2213.613281 254.074219 L 2273 216.175781 C 2273.75 215.738281 2273.75 215.675781 2273.75 215.570312 C 2273.75 215.214844 2272.863281 214.921875 2271.5625 214.921875 C 2270.125 214.921875 2269.714844 215.214844 2269.167969 215.570312 L 2213.203125 251.292969 L 2190.078125 234.824219 L 2174.960938 238.378906 L 2176.601562 238.902344 L 2184.332031 237.125 Z M 2209.03125 254.746094 "/>
<path style="fill:none;stroke-width:9.99;stroke-linecap:butt;stroke-linejoin:miter;stroke:rgb(74.901961%,74.901961%,74.901961%);stroke-opacity:1;stroke-miterlimit:10;" d="M 5187.931391 630.379167 L 5370.897674 630.379167 " transform="matrix(0.437858,0,0,-0.133929,0,300)"/>
<path style=" stroke:none;fill-rule:nonzero;fill:rgb(74.901961%,74.901961%,74.901961%);fill-opacity:1;" d="M 2284.375 226.304688 C 2288 223.394531 2296.621094 221.574219 2306.132812 221.574219 C 2319.265625 221.574219 2327.886719 225.113281 2327.886719 228.984375 L 2327.886719 229.507812 C 2326.929688 233.921875 2317.214844 237.394531 2307.980469 240.554688 C 2300.179688 243.234375 2292.242188 245.953125 2284.375 248.632812 L 2281.433594 249.636719 C 2280.203125 250.035156 2279.382812 250.308594 2279.382812 250.832031 C 2279.382812 251.082031 2279.585938 251.3125 2279.585938 251.5625 L 2339.929688 251.5625 L 2343.488281 242.335938 L 2339.449219 242.335938 C 2338.628906 244.195312 2338.835938 246.8125 2332.882812 246.8125 C 2328.980469 246.960938 2324.878906 247.023438 2320.976562 247.023438 C 2316.941406 247.023438 2313.042969 246.960938 2309.074219 246.960938 L 2293.613281 246.960938 C 2300.523438 245.011719 2307.226562 242.898438 2314.410156 241.035156 L 2323.78125 238.589844 C 2333.496094 236.054688 2343.488281 233.292969 2343.488281 228.941406 L 2343.488281 228.460938 C 2341.914062 223.101562 2326.792969 220.195312 2310.03125 220.195312 C 2295.320312 220.195312 2279.585938 223.292969 2279.585938 228.460938 C 2279.585938 230.132812 2283.144531 231.035156 2287.523438 231.035156 C 2291.421875 231.035156 2295.527344 230.175781 2295.527344 228.648438 C 2295.527344 227.265625 2292.242188 226.160156 2287.660156 226.160156 C 2286.566406 226.160156 2285.46875 226.222656 2284.375 226.304688 Z M 2284.375 226.304688 "/>
<path style=" stroke:none;fill-rule:nonzero;fill:rgb(74.901961%,74.901961%,74.901961%);fill-opacity:1;" d="M 2434.511719 60.707031 L 2441.96875 60.707031 L 2441.96875 1.003906 L 2405.847656 1.003906 L 2405.847656 3.304688 L 2434.511719 3.304688 Z M 2434.511719 60.707031 "/>
<path style=" stroke:none;fill-rule:nonzero;fill:rgb(74.901961%,74.901961%,74.901961%);fill-opacity:1;" d="M 2434.511719 80.667969 L 2441.96875 80.667969 L 2441.96875 60.683594 L 2434.511719 60.683594 Z M 2434.511719 80.667969 "/>
<path style=" stroke:none;fill-rule:nonzero;fill:rgb(74.901961%,74.901961%,74.901961%);fill-opacity:1;" d="M 2434.511719 100.578125 L 2441.96875 100.578125 L 2441.96875 80.59375 L 2434.511719 80.59375 Z M 2434.511719 100.578125 "/>
<path style=" stroke:none;fill-rule:nonzero;fill:rgb(74.901961%,74.901961%,74.901961%);fill-opacity:1;" d="M 2434.511719 120.503906 L 2441.96875 120.503906 L 2441.96875 100.519531 L 2434.511719 100.519531 Z M 2434.511719 120.503906 "/>
<path style=" stroke:none;fill-rule:nonzero;fill:rgb(74.901961%,74.901961%,74.901961%);fill-opacity:1;" d="M 2434.511719 140.417969 L 2441.96875 140.417969 L 2441.96875 120.433594 L 2434.511719 120.433594 Z M 2434.511719 140.417969 "/>
<path style=" stroke:none;fill-rule:nonzero;fill:rgb(74.901961%,74.901961%,74.901961%);fill-opacity:1;" d="M 2434.511719 160.339844 L 2441.96875 160.339844 L 2441.96875 140.355469 L 2434.511719 140.355469 Z M 2434.511719 160.339844 "/>
<path style=" stroke:none;fill-rule:nonzero;fill:rgb(74.901961%,74.901961%,74.901961%);fill-opacity:1;" d="M 2434.511719 180.253906 L 2441.96875 180.253906 L 2441.96875 160.269531 L 2434.511719 160.269531 Z M 2434.511719 180.253906 "/>
<path style=" stroke:none;fill-rule:nonzero;fill:rgb(74.901961%,74.901961%,74.901961%);fill-opacity:1;" d="M 2434.511719 200.179688 L 2441.96875 200.179688 L 2441.96875 180.195312 L 2434.511719 180.195312 Z M 2434.511719 200.179688 "/>
<path style=" stroke:none;fill-rule:nonzero;fill:rgb(74.901961%,74.901961%,74.901961%);fill-opacity:1;" d="M 2434.511719 220.089844 L 2441.96875 220.089844 L 2441.96875 200.105469 L 2434.511719 200.105469 Z M 2434.511719 220.089844 "/>
<path style=" stroke:none;fill-rule:nonzero;fill:rgb(74.901961%,74.901961%,74.901961%);fill-opacity:1;" d="M 2434.511719 240.015625 L 2441.96875 240.015625 L 2441.96875 220.03125 L 2434.511719 220.03125 Z M 2434.511719 240.015625 "/>
<path style=" stroke:none;fill-rule:nonzero;fill:rgb(74.901961%,74.901961%,74.901961%);fill-opacity:1;" d="M 2434.511719 297.394531 L 2405.847656 297.394531 L 2405.847656 299.695312 L 2441.96875 299.695312 L 2441.96875 239.992188 L 2434.511719 239.992188 Z M 2434.511719 297.394531 "/>
</g>
</svg>
