<?xml version="1.0" encoding="UTF-8"?>
<svg xmlns="http://www.w3.org/2000/svg" xmlns:xlink="http://www.w3.org/1999/xlink" width="1225px" height="250px" viewBox="0 0 1225 250" version="1.1">
<g id="surface1">
<path style=" stroke:none;fill-rule:nonzero;fill:rgb(74.901961%,74.901961%,74.901961%);fill-opacity:1;" d="M 1.824219 50.589844 L 5.558594 50.589844 L 5.558594 2.753906 L 19.921875 2.753906 L 19.921875 0.835938 L 1.824219 0.835938 Z M 1.824219 50.589844 "/>
<path style=" stroke:none;fill-rule:nonzero;fill:rgb(74.901961%,74.901961%,74.901961%);fill-opacity:1;" d="M 1.824219 67.222656 L 5.558594 67.222656 L 5.558594 50.570312 L 1.824219 50.570312 Z M 1.824219 67.222656 "/>
<path style=" stroke:none;fill-rule:nonzero;fill:rgb(74.901961%,74.901961%,74.901961%);fill-opacity:1;" d="M 1.824219 83.816406 L 5.558594 83.816406 L 5.558594 67.164062 L 1.824219 67.164062 Z M 1.824219 83.816406 "/>
<path style=" stroke:none;fill-rule:nonzero;fill:rgb(74.901961%,74.901961%,74.901961%);fill-opacity:1;" d="M 1.824219 100.421875 L 5.558594 100.421875 L 5.558594 83.765625 L 1.824219 83.765625 Z M 1.824219 100.421875 "/>
<path style=" stroke:none;fill-rule:nonzero;fill:rgb(74.901961%,74.901961%,74.901961%);fill-opacity:1;" d="M 1.824219 117.015625 L 5.558594 117.015625 L 5.558594 100.359375 L 1.824219 100.359375 Z M 1.824219 117.015625 "/>
<path style=" stroke:none;fill-rule:nonzero;fill:rgb(74.901961%,74.901961%,74.901961%);fill-opacity:1;" d="M 1.824219 133.617188 L 5.558594 133.617188 L 5.558594 116.964844 L 1.824219 116.964844 Z M 1.824219 133.617188 "/>
<path style=" stroke:none;fill-rule:nonzero;fill:rgb(74.901961%,74.901961%,74.901961%);fill-opacity:1;" d="M 1.824219 150.210938 L 5.558594 150.210938 L 5.558594 133.558594 L 1.824219 133.558594 Z M 1.824219 150.210938 "/>
<path style=" stroke:none;fill-rule:nonzero;fill:rgb(74.901961%,74.901961%,74.901961%);fill-opacity:1;" d="M 1.824219 166.816406 L 5.558594 166.816406 L 5.558594 150.160156 L 1.824219 150.160156 Z M 1.824219 166.816406 "/>
<path style=" stroke:none;fill-rule:nonzero;fill:rgb(74.901961%,74.901961%,74.901961%);fill-opacity:1;" d="M 1.824219 183.410156 L 5.558594 183.410156 L 5.558594 166.753906 L 1.824219 166.753906 Z M 1.824219 183.410156 "/>
<path style=" stroke:none;fill-rule:nonzero;fill:rgb(74.901961%,74.901961%,74.901961%);fill-opacity:1;" d="M 1.824219 200.011719 L 5.558594 200.011719 L 5.558594 183.359375 L 1.824219 183.359375 Z M 1.824219 200.011719 "/>
<path style=" stroke:none;fill-rule:nonzero;fill:rgb(74.901961%,74.901961%,74.901961%);fill-opacity:1;" d="M 1.824219 249.746094 L 19.921875 249.746094 L 19.921875 247.828125 L 5.558594 247.828125 L 5.558594 199.992188 L 1.824219 199.992188 Z M 1.824219 249.746094 "/>
<path style=" stroke:none;fill-rule:nonzero;fill:rgb(74.901961%,74.901961%,74.901961%);fill-opacity:1;" d="M 53.855469 65.503906 L 53.855469 66.65625 C 57.351562 66.65625 60.882812 66.5 64.242188 65.941406 L 64.242188 87.339844 L 64.105469 87.773438 L 63.316406 87.898438 L 54.234375 87.898438 L 54.234375 89.101562 L 81.554688 89.101562 L 81.554688 87.933594 L 73.191406 87.933594 C 72.332031 87.933594 71.613281 87.863281 71.613281 87.375 L 71.613281 63.464844 C 71.613281 63.273438 71.613281 62.960938 71.066406 62.960938 C 69.898438 62.960938 68.492188 63.796875 67.226562 64.109375 C 63.144531 65.226562 58.449219 65.503906 53.855469 65.503906 Z M 53.855469 65.503906 "/>
<path style=" stroke:none;fill-rule:nonzero;fill:rgb(74.901961%,74.901961%,74.901961%);fill-opacity:1;" d="M 311.445312 62.960938 C 296.328125 63.796875 295.78125 71.398438 295.78125 76.789062 C 295.78125 81.566406 296.808594 89.570312 312.78125 89.570312 C 324.609375 89.570312 329.542969 84.269531 329.542969 77.660156 L 329.542969 75.339844 C 329.542969 69.96875 326.902344 62.90625 312.882812 62.90625 C 312.40625 62.90625 311.925781 62.90625 311.445312 62.960938 Z M 303.320312 78.847656 C 303.21875 78.53125 303.21875 78.21875 303.21875 77.90625 C 303.21875 75.464844 303.21875 73.039062 303.5625 70.597656 C 303.699219 69.046875 303.9375 67.300781 305.582031 65.941406 C 307.230469 64.667969 309.972656 63.917969 312.78125 63.917969 C 321.316406 63.917969 322.035156 69.097656 322.035156 73.039062 L 322.035156 75.339844 C 322.035156 76.457031 322.105469 77.695312 322.105469 78.96875 C 322.105469 81.566406 321.796875 84.269531 320.082031 86.152344 C 318.574219 87.546875 315.765625 88.664062 312.644531 88.664062 L 312.472656 88.664062 C 307.539062 88.664062 304.726562 86.1875 304.109375 83.992188 C 303.457031 82.28125 303.628906 80.574219 303.320312 78.847656 Z M 303.320312 78.847656 "/>
<path style=" stroke:none;fill-rule:nonzero;fill:rgb(74.901961%,74.901961%,74.901961%);fill-opacity:1;" d="M 77.558594 183.496094 C 62.441406 184.332031 61.894531 191.9375 61.894531 197.324219 C 61.894531 202.101562 62.921875 210.105469 78.894531 210.105469 C 90.71875 210.105469 95.65625 204.804688 95.65625 198.195312 L 95.65625 195.875 C 95.65625 190.503906 93.015625 183.441406 78.996094 183.441406 C 78.515625 183.441406 78.039062 183.441406 77.558594 183.496094 Z M 69.433594 199.382812 C 69.332031 199.066406 69.332031 198.753906 69.332031 198.441406 C 69.332031 196 69.332031 193.574219 69.671875 191.132812 C 69.8125 189.582031 70.050781 187.835938 71.695312 186.476562 C 73.339844 185.203125 76.082031 184.453125 78.894531 184.453125 C 87.429688 184.453125 88.148438 189.632812 88.148438 193.574219 L 88.148438 195.875 C 88.148438 196.992188 88.21875 198.230469 88.21875 199.503906 C 88.21875 202.101562 87.910156 204.804688 86.195312 206.6875 C 84.6875 208.082031 81.875 209.199219 78.757812 209.199219 L 78.585938 209.199219 C 73.648438 209.199219 70.839844 206.722656 70.222656 204.527344 C 69.570312 202.816406 69.742188 201.109375 69.433594 199.382812 Z M 69.433594 199.382812 "/>
<path style=" stroke:none;fill-rule:nonzero;fill:rgb(74.901961%,74.901961%,74.901961%);fill-opacity:1;" d="M 280.132812 199.277344 L 280.132812 202.257812 L 301.519531 202.257812 L 301.519531 199.277344 Z M 280.132812 199.277344 "/>
<path style=" stroke:none;fill-rule:nonzero;fill:rgb(74.901961%,74.901961%,74.901961%);fill-opacity:1;" d="M 312.808594 186.042969 L 312.808594 187.191406 C 316.304688 187.191406 319.835938 187.035156 323.191406 186.476562 L 323.191406 207.875 L 323.054688 208.3125 L 322.269531 208.433594 L 313.183594 208.433594 L 313.183594 209.636719 L 340.503906 209.636719 L 340.503906 208.46875 L 332.140625 208.46875 C 331.28125 208.46875 330.5625 208.398438 330.5625 207.910156 L 330.5625 184 C 330.5625 183.808594 330.5625 183.496094 330.015625 183.496094 C 328.847656 183.496094 327.445312 184.332031 326.175781 184.644531 C 322.097656 185.761719 317.398438 186.042969 312.808594 186.042969 Z M 312.808594 186.042969 "/>
<path style=" stroke:none;fill-rule:nonzero;fill:rgb(74.901961%,74.901961%,74.901961%);fill-opacity:1;" d="M 387.699219 50.589844 L 391.433594 50.589844 L 391.433594 0.835938 L 373.335938 0.835938 L 373.335938 2.753906 L 387.699219 2.753906 Z M 387.699219 50.589844 "/>
<path style=" stroke:none;fill-rule:nonzero;fill:rgb(74.901961%,74.901961%,74.901961%);fill-opacity:1;" d="M 387.699219 67.222656 L 391.433594 67.222656 L 391.433594 50.570312 L 387.699219 50.570312 Z M 387.699219 67.222656 "/>
<path style=" stroke:none;fill-rule:nonzero;fill:rgb(74.901961%,74.901961%,74.901961%);fill-opacity:1;" d="M 387.699219 83.816406 L 391.433594 83.816406 L 391.433594 67.164062 L 387.699219 67.164062 Z M 387.699219 83.816406 "/>
<path style=" stroke:none;fill-rule:nonzero;fill:rgb(74.901961%,74.901961%,74.901961%);fill-opacity:1;" d="M 387.699219 100.421875 L 391.433594 100.421875 L 391.433594 83.765625 L 387.699219 83.765625 Z M 387.699219 100.421875 "/>
<path style=" stroke:none;fill-rule:nonzero;fill:rgb(74.901961%,74.901961%,74.901961%);fill-opacity:1;" d="M 387.699219 117.015625 L 391.433594 117.015625 L 391.433594 100.359375 L 387.699219 100.359375 Z M 387.699219 117.015625 "/>
<path style=" stroke:none;fill-rule:nonzero;fill:rgb(74.901961%,74.901961%,74.901961%);fill-opacity:1;" d="M 387.699219 133.617188 L 391.433594 133.617188 L 391.433594 116.964844 L 387.699219 116.964844 Z M 387.699219 133.617188 "/>
<path style=" stroke:none;fill-rule:nonzero;fill:rgb(74.901961%,74.901961%,74.901961%);fill-opacity:1;" d="M 387.699219 150.210938 L 391.433594 150.210938 L 391.433594 133.558594 L 387.699219 133.558594 Z M 387.699219 150.210938 "/>
<path style=" stroke:none;fill-rule:nonzero;fill:rgb(74.901961%,74.901961%,74.901961%);fill-opacity:1;" d="M 387.699219 166.816406 L 391.433594 166.816406 L 391.433594 150.160156 L 387.699219 150.160156 Z M 387.699219 166.816406 "/>
<path style=" stroke:none;fill-rule:nonzero;fill:rgb(74.901961%,74.901961%,74.901961%);fill-opacity:1;" d="M 387.699219 183.410156 L 391.433594 183.410156 L 391.433594 166.753906 L 387.699219 166.753906 Z M 387.699219 183.410156 "/>
<path style=" stroke:none;fill-rule:nonzero;fill:rgb(74.901961%,74.901961%,74.901961%);fill-opacity:1;" d="M 387.699219 200.011719 L 391.433594 200.011719 L 391.433594 183.359375 L 387.699219 183.359375 Z M 387.699219 200.011719 "/>
<path style=" stroke:none;fill-rule:nonzero;fill:rgb(74.901961%,74.901961%,74.901961%);fill-opacity:1;" d="M 387.699219 247.828125 L 373.335938 247.828125 L 373.335938 249.746094 L 391.433594 249.746094 L 391.433594 199.996094 L 387.699219 199.996094 Z M 387.699219 247.828125 "/>
<path style=" stroke:none;fill-rule:nonzero;fill:rgb(74.901961%,74.901961%,74.901961%);fill-opacity:1;" d="M 435.992188 50.589844 L 439.726562 50.589844 L 439.726562 2.753906 L 454.089844 2.753906 L 454.089844 0.835938 L 435.992188 0.835938 Z M 435.992188 50.589844 "/>
<path style=" stroke:none;fill-rule:nonzero;fill:rgb(74.901961%,74.901961%,74.901961%);fill-opacity:1;" d="M 435.992188 67.222656 L 439.726562 67.222656 L 439.726562 50.570312 L 435.992188 50.570312 Z M 435.992188 67.222656 "/>
<path style=" stroke:none;fill-rule:nonzero;fill:rgb(74.901961%,74.901961%,74.901961%);fill-opacity:1;" d="M 435.992188 83.816406 L 439.726562 83.816406 L 439.726562 67.164062 L 435.992188 67.164062 Z M 435.992188 83.816406 "/>
<path style=" stroke:none;fill-rule:nonzero;fill:rgb(74.901961%,74.901961%,74.901961%);fill-opacity:1;" d="M 435.992188 100.421875 L 439.726562 100.421875 L 439.726562 83.765625 L 435.992188 83.765625 Z M 435.992188 100.421875 "/>
<path style=" stroke:none;fill-rule:nonzero;fill:rgb(74.901961%,74.901961%,74.901961%);fill-opacity:1;" d="M 435.992188 117.015625 L 439.726562 117.015625 L 439.726562 100.359375 L 435.992188 100.359375 Z M 435.992188 117.015625 "/>
<path style=" stroke:none;fill-rule:nonzero;fill:rgb(74.901961%,74.901961%,74.901961%);fill-opacity:1;" d="M 435.992188 133.617188 L 439.726562 133.617188 L 439.726562 116.964844 L 435.992188 116.964844 Z M 435.992188 133.617188 "/>
<path style=" stroke:none;fill-rule:nonzero;fill:rgb(74.901961%,74.901961%,74.901961%);fill-opacity:1;" d="M 435.992188 150.210938 L 439.726562 150.210938 L 439.726562 133.558594 L 435.992188 133.558594 Z M 435.992188 150.210938 "/>
<path style=" stroke:none;fill-rule:nonzero;fill:rgb(74.901961%,74.901961%,74.901961%);fill-opacity:1;" d="M 435.992188 166.816406 L 439.726562 166.816406 L 439.726562 150.164062 L 435.992188 150.164062 Z M 435.992188 166.816406 "/>
<path style=" stroke:none;fill-rule:nonzero;fill:rgb(74.901961%,74.901961%,74.901961%);fill-opacity:1;" d="M 435.992188 183.410156 L 439.726562 183.410156 L 439.726562 166.757812 L 435.992188 166.757812 Z M 435.992188 183.410156 "/>
<path style=" stroke:none;fill-rule:nonzero;fill:rgb(74.901961%,74.901961%,74.901961%);fill-opacity:1;" d="M 435.992188 200.011719 L 439.726562 200.011719 L 439.726562 183.359375 L 435.992188 183.359375 Z M 435.992188 200.011719 "/>
<path style=" stroke:none;fill-rule:nonzero;fill:rgb(74.901961%,74.901961%,74.901961%);fill-opacity:1;" d="M 435.992188 249.746094 L 454.089844 249.746094 L 454.089844 247.828125 L 439.726562 247.828125 L 439.726562 199.996094 L 435.992188 199.996094 Z M 435.992188 249.746094 "/>
<path style=" stroke:none;fill-rule:nonzero;fill:rgb(74.901961%,74.901961%,74.901961%);fill-opacity:1;" d="M 484.628906 65.507812 L 484.628906 66.65625 C 488.125 66.65625 491.65625 66.5 495.015625 65.941406 L 495.015625 87.339844 L 494.878906 87.773438 L 494.089844 87.898438 L 485.007812 87.898438 L 485.007812 89.101562 L 512.328125 89.101562 L 512.328125 87.933594 L 503.964844 87.933594 C 503.105469 87.933594 502.386719 87.863281 502.386719 87.375 L 502.386719 63.464844 C 502.386719 63.273438 502.386719 62.960938 501.835938 62.960938 C 500.671875 62.960938 499.265625 63.796875 498 64.109375 C 493.917969 65.226562 489.222656 65.507812 484.628906 65.507812 Z M 484.628906 65.507812 "/>
<path style=" stroke:none;fill-rule:nonzero;fill:rgb(74.901961%,74.901961%,74.901961%);fill-opacity:1;" d="M 552.359375 59.246094 C 551.503906 59.402344 550.953125 60.570312 550.578125 61.164062 C 541.253906 73.074219 532.855469 85.105469 523.53125 96.984375 L 522.847656 97.976562 C 522.675781 98.132812 522.539062 98.34375 522.433594 98.535156 C 522.433594 98.777344 522.847656 99.023438 523.292969 99.023438 L 523.464844 99.023438 C 524.011719 98.972656 524.25 98.742188 524.386719 98.5 L 525.589844 96.949219 C 534.433594 84.914062 543.515625 72.953125 552.667969 60.972656 L 553.214844 60.203125 C 553.320312 60.046875 553.523438 59.890625 553.523438 59.679688 C 553.523438 59.402344 553.078125 59.246094 552.597656 59.246094 Z M 552.359375 59.246094 "/>
<path style=" stroke:none;fill-rule:nonzero;fill:rgb(74.901961%,74.901961%,74.901961%);fill-opacity:1;" d="M 581.171875 91.75 C 582.886719 91.75 582.921875 91.714844 583.46875 91.195312 L 613.222656 59.613281 C 613.597656 59.246094 613.597656 59.195312 613.597656 59.105469 C 613.597656 58.808594 613.152344 58.566406 612.5 58.566406 C 611.78125 58.566406 611.574219 58.808594 611.300781 59.105469 L 583.261719 88.875 L 571.675781 75.148438 L 564.101562 78.113281 L 564.925781 78.550781 L 568.796875 77.066406 Z M 581.171875 91.75 "/>
<path style="fill:none;stroke-width:9.99;stroke-linecap:butt;stroke-linejoin:miter;stroke:rgb(74.901961%,74.901961%,74.901961%);stroke-opacity:1;stroke-miterlimit:10;" d="M 2792.035612 1710.38 L 2975.046939 1710.38 " transform="matrix(0.219377,0,0,-0.111607,0,250)"/>
<path style=" stroke:none;fill-rule:nonzero;fill:rgb(74.901961%,74.901961%,74.901961%);fill-opacity:1;" d="M 618.921875 68.050781 C 620.738281 65.628906 625.054688 64.109375 629.820312 64.109375 C 636.402344 64.109375 640.722656 67.058594 640.722656 70.285156 L 640.722656 70.71875 C 640.242188 74.398438 635.375 77.292969 630.746094 79.925781 C 626.839844 82.160156 622.863281 84.425781 618.921875 86.660156 L 617.445312 87.496094 C 616.828125 87.828125 616.417969 88.054688 616.417969 88.488281 C 616.417969 88.699219 616.519531 88.890625 616.519531 89.101562 L 646.753906 89.101562 L 648.535156 81.410156 L 646.515625 81.410156 C 646.101562 82.960938 646.207031 85.140625 643.222656 85.140625 C 641.269531 85.265625 639.214844 85.316406 637.257812 85.316406 C 635.238281 85.316406 633.285156 85.265625 631.296875 85.265625 L 623.546875 85.265625 C 627.011719 83.640625 630.371094 81.878906 633.96875 80.328125 L 638.664062 78.289062 C 643.53125 76.179688 648.535156 73.875 648.535156 70.25 L 648.535156 69.847656 C 647.75 65.382812 640.171875 62.960938 631.773438 62.960938 C 624.40625 62.960938 616.519531 65.539062 616.519531 69.847656 C 616.519531 71.242188 618.304688 71.992188 620.496094 71.992188 C 622.453125 71.992188 624.507812 71.277344 624.507812 70.003906 C 624.507812 68.855469 622.863281 67.929688 620.566406 67.929688 C 620.019531 67.929688 619.46875 67.980469 618.921875 68.050781 Z M 618.921875 68.050781 "/>
<path style=" stroke:none;fill-rule:nonzero;fill:rgb(74.901961%,74.901961%,74.901961%);fill-opacity:1;" d="M 484.628906 186.042969 L 484.628906 187.191406 C 488.125 187.191406 491.65625 187.035156 495.015625 186.476562 L 495.015625 207.875 L 494.878906 208.3125 L 494.089844 208.433594 L 485.007812 208.433594 L 485.007812 209.636719 L 512.324219 209.636719 L 512.324219 208.46875 L 503.960938 208.46875 C 503.105469 208.46875 502.386719 208.398438 502.386719 207.910156 L 502.386719 184 C 502.386719 183.808594 502.386719 183.496094 501.835938 183.496094 C 500.671875 183.496094 499.265625 184.332031 497.996094 184.644531 C 493.917969 185.761719 489.222656 186.042969 484.628906 186.042969 Z M 484.628906 186.042969 "/>
<path style=" stroke:none;fill-rule:nonzero;fill:rgb(74.901961%,74.901961%,74.901961%);fill-opacity:1;" d="M 552.359375 179.78125 C 551.5 179.9375 550.953125 181.105469 550.574219 181.699219 C 541.253906 193.609375 532.855469 205.640625 523.53125 217.519531 L 522.84375 218.511719 C 522.675781 218.667969 522.535156 218.878906 522.433594 219.070312 C 522.433594 219.3125 522.84375 219.558594 523.289062 219.558594 L 523.460938 219.558594 C 524.011719 219.507812 524.25 219.28125 524.386719 219.035156 L 525.585938 217.484375 C 534.429688 205.449219 543.515625 193.488281 552.667969 181.507812 L 553.214844 180.738281 C 553.316406 180.582031 553.523438 180.425781 553.523438 180.21875 C 553.523438 179.9375 553.078125 179.78125 552.597656 179.78125 Z M 552.359375 179.78125 "/>
<path style=" stroke:none;fill-rule:nonzero;fill:rgb(74.901961%,74.901961%,74.901961%);fill-opacity:1;" d="M 581.171875 212.285156 C 582.886719 212.285156 582.917969 212.253906 583.46875 211.730469 L 613.21875 180.148438 C 613.597656 179.78125 613.597656 179.730469 613.597656 179.640625 C 613.597656 179.34375 613.152344 179.101562 612.5 179.101562 C 611.78125 179.101562 611.574219 179.34375 611.300781 179.640625 L 583.261719 209.410156 L 571.675781 195.683594 L 564.101562 198.648438 L 564.921875 199.085938 L 568.796875 197.605469 Z M 581.171875 212.285156 "/>
<path style="fill:none;stroke-width:9.99;stroke-linecap:butt;stroke-linejoin:miter;stroke:rgb(74.901961%,74.901961%,74.901961%);stroke-opacity:1;stroke-miterlimit:10;" d="M 2792.035612 630.385 L 2975.046939 630.385 " transform="matrix(0.219377,0,0,-0.111607,0,250)"/>
<path style=" stroke:none;fill-rule:nonzero;fill:rgb(74.901961%,74.901961%,74.901961%);fill-opacity:1;" d="M 618.921875 188.585938 C 620.738281 186.164062 625.054688 184.644531 629.820312 184.644531 C 636.402344 184.644531 640.722656 187.59375 640.722656 190.820312 L 640.722656 191.253906 C 640.242188 194.933594 635.375 197.828125 630.746094 200.464844 C 626.839844 202.695312 622.863281 204.960938 618.921875 207.195312 L 617.445312 208.03125 C 616.828125 208.363281 616.417969 208.589844 616.417969 209.023438 C 616.417969 209.234375 616.519531 209.425781 616.519531 209.636719 L 646.753906 209.636719 L 648.535156 201.945312 L 646.515625 201.945312 C 646.101562 203.496094 646.207031 205.675781 643.222656 205.675781 C 641.269531 205.800781 639.214844 205.851562 637.257812 205.851562 C 635.238281 205.851562 633.285156 205.800781 631.296875 205.800781 L 623.546875 205.800781 C 627.011719 204.175781 630.371094 202.417969 633.96875 200.863281 L 638.664062 198.824219 C 643.53125 196.714844 648.535156 194.410156 648.535156 190.785156 L 648.535156 190.382812 C 647.75 185.917969 640.171875 183.496094 631.773438 183.496094 C 624.40625 183.496094 616.519531 186.074219 616.519531 190.382812 C 616.519531 191.777344 618.304688 192.527344 620.496094 192.527344 C 622.453125 192.527344 624.507812 191.8125 624.507812 190.539062 C 624.507812 189.390625 622.863281 188.464844 620.566406 188.464844 C 620.019531 188.464844 619.46875 188.515625 618.921875 188.585938 Z M 618.921875 188.585938 "/>
<path style=" stroke:none;fill-rule:nonzero;fill:rgb(74.901961%,74.901961%,74.901961%);fill-opacity:1;" d="M 694.140625 50.589844 L 697.878906 50.589844 L 697.878906 0.835938 L 679.78125 0.835938 L 679.78125 2.753906 L 694.140625 2.753906 Z M 694.140625 50.589844 "/>
<path style=" stroke:none;fill-rule:nonzero;fill:rgb(74.901961%,74.901961%,74.901961%);fill-opacity:1;" d="M 694.140625 67.222656 L 697.878906 67.222656 L 697.878906 50.570312 L 694.140625 50.570312 Z M 694.140625 67.222656 "/>
<path style=" stroke:none;fill-rule:nonzero;fill:rgb(74.901961%,74.901961%,74.901961%);fill-opacity:1;" d="M 694.140625 83.816406 L 697.878906 83.816406 L 697.878906 67.164062 L 694.140625 67.164062 Z M 694.140625 83.816406 "/>
<path style=" stroke:none;fill-rule:nonzero;fill:rgb(74.901961%,74.901961%,74.901961%);fill-opacity:1;" d="M 694.140625 100.421875 L 697.878906 100.421875 L 697.878906 83.765625 L 694.140625 83.765625 Z M 694.140625 100.421875 "/>
<path style=" stroke:none;fill-rule:nonzero;fill:rgb(74.901961%,74.901961%,74.901961%);fill-opacity:1;" d="M 694.140625 117.015625 L 697.878906 117.015625 L 697.878906 100.359375 L 694.140625 100.359375 Z M 694.140625 117.015625 "/>
<path style=" stroke:none;fill-rule:nonzero;fill:rgb(74.901961%,74.901961%,74.901961%);fill-opacity:1;" d="M 694.140625 133.617188 L 697.878906 133.617188 L 697.878906 116.964844 L 694.140625 116.964844 Z M 694.140625 133.617188 "/>
<path style=" stroke:none;fill-rule:nonzero;fill:rgb(74.901961%,74.901961%,74.901961%);fill-opacity:1;" d="M 694.140625 150.210938 L 697.878906 150.210938 L 697.878906 133.558594 L 694.140625 133.558594 Z M 694.140625 150.210938 "/>
<path style=" stroke:none;fill-rule:nonzero;fill:rgb(74.901961%,74.901961%,74.901961%);fill-opacity:1;" d="M 694.140625 166.816406 L 697.878906 166.816406 L 697.878906 150.160156 L 694.140625 150.160156 Z M 694.140625 166.816406 "/>
<path style=" stroke:none;fill-rule:nonzero;fill:rgb(74.901961%,74.901961%,74.901961%);fill-opacity:1;" d="M 694.140625 183.410156 L 697.878906 183.410156 L 697.878906 166.753906 L 694.140625 166.753906 Z M 694.140625 183.410156 "/>
<path style=" stroke:none;fill-rule:nonzero;fill:rgb(74.901961%,74.901961%,74.901961%);fill-opacity:1;" d="M 694.140625 200.011719 L 697.878906 200.011719 L 697.878906 183.359375 L 694.140625 183.359375 Z M 694.140625 200.011719 "/>
<path style=" stroke:none;fill-rule:nonzero;fill:rgb(74.901961%,74.901961%,74.901961%);fill-opacity:1;" d="M 694.140625 247.828125 L 679.78125 247.828125 L 679.78125 249.746094 L 697.878906 249.746094 L 697.878906 199.992188 L 694.140625 199.992188 Z M 694.140625 247.828125 "/>
<path style=" stroke:none;fill-rule:nonzero;fill:rgb(74.901961%,74.901961%,74.901961%);fill-opacity:1;" d="M 961.59375 50.589844 L 965.332031 50.589844 L 965.332031 2.753906 L 979.691406 2.753906 L 979.691406 0.835938 L 961.59375 0.835938 Z M 961.59375 50.589844 "/>
<path style=" stroke:none;fill-rule:nonzero;fill:rgb(74.901961%,74.901961%,74.901961%);fill-opacity:1;" d="M 961.59375 67.222656 L 965.332031 67.222656 L 965.332031 50.570312 L 961.59375 50.570312 Z M 961.59375 67.222656 "/>
<path style=" stroke:none;fill-rule:nonzero;fill:rgb(74.901961%,74.901961%,74.901961%);fill-opacity:1;" d="M 961.59375 83.816406 L 965.332031 83.816406 L 965.332031 67.164062 L 961.59375 67.164062 Z M 961.59375 83.816406 "/>
<path style=" stroke:none;fill-rule:nonzero;fill:rgb(74.901961%,74.901961%,74.901961%);fill-opacity:1;" d="M 961.59375 100.421875 L 965.332031 100.421875 L 965.332031 83.765625 L 961.59375 83.765625 Z M 961.59375 100.421875 "/>
<path style=" stroke:none;fill-rule:nonzero;fill:rgb(74.901961%,74.901961%,74.901961%);fill-opacity:1;" d="M 961.59375 117.015625 L 965.332031 117.015625 L 965.332031 100.359375 L 961.59375 100.359375 Z M 961.59375 117.015625 "/>
<path style=" stroke:none;fill-rule:nonzero;fill:rgb(74.901961%,74.901961%,74.901961%);fill-opacity:1;" d="M 961.59375 133.617188 L 965.332031 133.617188 L 965.332031 116.964844 L 961.59375 116.964844 Z M 961.59375 133.617188 "/>
<path style=" stroke:none;fill-rule:nonzero;fill:rgb(74.901961%,74.901961%,74.901961%);fill-opacity:1;" d="M 961.59375 150.210938 L 965.332031 150.210938 L 965.332031 133.558594 L 961.59375 133.558594 Z M 961.59375 150.210938 "/>
<path style=" stroke:none;fill-rule:nonzero;fill:rgb(74.901961%,74.901961%,74.901961%);fill-opacity:1;" d="M 961.59375 166.816406 L 965.332031 166.816406 L 965.332031 150.160156 L 961.59375 150.160156 Z M 961.59375 166.816406 "/>
<path style=" stroke:none;fill-rule:nonzero;fill:rgb(74.901961%,74.901961%,74.901961%);fill-opacity:1;" d="M 961.59375 183.410156 L 965.332031 183.410156 L 965.332031 166.753906 L 961.59375 166.753906 Z M 961.59375 183.410156 "/>
<path style=" stroke:none;fill-rule:nonzero;fill:rgb(74.901961%,74.901961%,74.901961%);fill-opacity:1;" d="M 961.59375 200.011719 L 965.332031 200.011719 L 965.332031 183.359375 L 961.59375 183.359375 Z M 961.59375 200.011719 "/>
<path style=" stroke:none;fill-rule:nonzero;fill:rgb(74.901961%,74.901961%,74.901961%);fill-opacity:1;" d="M 961.59375 249.746094 L 979.691406 249.746094 L 979.691406 247.828125 L 965.332031 247.828125 L 965.332031 199.992188 L 961.59375 199.992188 Z M 961.59375 249.746094 "/>
<path style=" stroke:none;fill-rule:nonzero;fill:rgb(74.901961%,74.901961%,74.901961%);fill-opacity:1;" d="M 1010.210938 65.503906 L 1010.210938 66.65625 C 1013.707031 66.65625 1017.238281 66.5 1020.597656 65.941406 L 1020.597656 87.339844 L 1020.460938 87.773438 L 1019.671875 87.898438 L 1010.589844 87.898438 L 1010.589844 89.101562 L 1037.910156 89.101562 L 1037.910156 87.933594 L 1029.546875 87.933594 C 1028.6875 87.933594 1027.96875 87.863281 1027.96875 87.375 L 1027.96875 63.464844 C 1027.96875 63.273438 1027.96875 62.960938 1027.421875 62.960938 C 1026.253906 62.960938 1024.847656 63.796875 1023.582031 64.109375 C 1019.5 65.226562 1014.804688 65.503906 1010.210938 65.503906 Z M 1010.210938 65.503906 "/>
<path style=" stroke:none;fill-rule:nonzero;fill:rgb(74.901961%,74.901961%,74.901961%);fill-opacity:1;" d="M 1077.941406 59.246094 C 1077.085938 59.402344 1076.535156 60.570312 1076.160156 61.164062 C 1066.835938 73.074219 1058.4375 85.105469 1049.113281 96.984375 L 1048.429688 97.976562 C 1048.257812 98.132812 1048.121094 98.34375 1048.015625 98.535156 C 1048.015625 98.777344 1048.429688 99.023438 1048.875 99.023438 L 1049.046875 99.023438 C 1049.59375 98.96875 1049.832031 98.742188 1049.972656 98.5 L 1051.171875 96.949219 C 1060.015625 84.914062 1069.097656 72.953125 1078.25 60.972656 L 1078.796875 60.203125 C 1078.902344 60.046875 1079.105469 59.890625 1079.105469 59.679688 C 1079.105469 59.402344 1078.660156 59.246094 1078.179688 59.246094 Z M 1077.941406 59.246094 "/>
<path style=" stroke:none;fill-rule:nonzero;fill:rgb(74.901961%,74.901961%,74.901961%);fill-opacity:1;" d="M 1106.773438 91.75 C 1108.488281 91.75 1108.519531 91.714844 1109.070312 91.191406 L 1138.824219 59.613281 C 1139.199219 59.246094 1139.199219 59.191406 1139.199219 59.105469 C 1139.199219 58.808594 1138.753906 58.566406 1138.101562 58.566406 C 1137.382812 58.566406 1137.175781 58.808594 1136.902344 59.105469 L 1108.863281 88.875 L 1097.277344 75.148438 L 1089.703125 78.113281 L 1090.523438 78.550781 L 1094.398438 77.066406 Z M 1106.773438 91.75 "/>
<path style="fill:none;stroke-width:9.99;stroke-linecap:butt;stroke-linejoin:miter;stroke:rgb(74.901961%,74.901961%,74.901961%);stroke-opacity:1;stroke-miterlimit:10;" d="M 5187.938418 1710.38 L 5370.896327 1710.38 " transform="matrix(0.219377,0,0,-0.111607,0,250)"/>
<path style=" stroke:none;fill-rule:nonzero;fill:rgb(74.901961%,74.901961%,74.901961%);fill-opacity:1;" d="M 1144.523438 68.050781 C 1146.339844 65.628906 1150.660156 64.109375 1155.421875 64.109375 C 1162.003906 64.109375 1166.324219 67.058594 1166.324219 70.285156 L 1166.324219 70.71875 C 1165.84375 74.398438 1160.976562 77.292969 1156.347656 79.925781 C 1152.441406 82.160156 1148.464844 84.425781 1144.523438 86.660156 L 1143.050781 87.496094 C 1142.433594 87.828125 1142.019531 88.054688 1142.019531 88.488281 C 1142.019531 88.699219 1142.125 88.890625 1142.125 89.101562 L 1172.355469 89.101562 L 1174.140625 81.410156 L 1172.117188 81.410156 C 1171.707031 82.960938 1171.808594 85.140625 1168.828125 85.140625 C 1166.871094 85.265625 1164.816406 85.316406 1162.863281 85.316406 C 1160.839844 85.316406 1158.886719 85.265625 1156.898438 85.265625 L 1149.152344 85.265625 C 1152.613281 83.640625 1155.972656 81.878906 1159.570312 80.328125 L 1164.265625 78.289062 C 1169.136719 76.179688 1174.140625 73.875 1174.140625 70.25 L 1174.140625 69.847656 C 1173.351562 65.382812 1165.777344 62.960938 1157.378906 62.960938 C 1150.007812 62.960938 1142.125 65.539062 1142.125 69.847656 C 1142.125 71.242188 1143.90625 71.992188 1146.101562 71.992188 C 1148.054688 71.992188 1150.109375 71.277344 1150.109375 70.003906 C 1150.109375 68.855469 1148.464844 67.929688 1146.167969 67.929688 C 1145.621094 67.929688 1145.070312 67.980469 1144.523438 68.050781 Z M 1144.523438 68.050781 "/>
<path style=" stroke:none;fill-rule:nonzero;fill:rgb(74.901961%,74.901961%,74.901961%);fill-opacity:1;" d="M 1010.214844 186.042969 L 1010.214844 187.191406 C 1013.710938 187.191406 1017.242188 187.035156 1020.601562 186.476562 L 1020.601562 207.875 L 1020.460938 208.3125 L 1019.675781 208.433594 L 1010.589844 208.433594 L 1010.589844 209.636719 L 1037.910156 209.636719 L 1037.910156 208.46875 L 1029.546875 208.46875 C 1028.6875 208.46875 1027.96875 208.398438 1027.96875 207.910156 L 1027.96875 184 C 1027.96875 183.808594 1027.96875 183.496094 1027.421875 183.496094 C 1026.253906 183.496094 1024.851562 184.332031 1023.582031 184.644531 C 1019.503906 185.761719 1014.808594 186.042969 1010.214844 186.042969 Z M 1010.214844 186.042969 "/>
<path style=" stroke:none;fill-rule:nonzero;fill:rgb(74.901961%,74.901961%,74.901961%);fill-opacity:1;" d="M 1077.941406 179.78125 C 1077.085938 179.9375 1076.535156 181.105469 1076.160156 181.699219 C 1066.835938 193.609375 1058.4375 205.640625 1049.113281 217.519531 L 1048.429688 218.511719 C 1048.257812 218.667969 1048.121094 218.878906 1048.019531 219.070312 C 1048.019531 219.3125 1048.429688 219.558594 1048.875 219.558594 L 1049.046875 219.558594 C 1049.59375 219.507812 1049.835938 219.28125 1049.972656 219.035156 L 1051.171875 217.484375 C 1060.015625 205.449219 1069.097656 193.488281 1078.25 181.507812 L 1078.800781 180.738281 C 1078.902344 180.582031 1079.109375 180.425781 1079.109375 180.21875 C 1079.109375 179.9375 1078.660156 179.78125 1078.183594 179.78125 Z M 1077.941406 179.78125 "/>
<path style=" stroke:none;fill-rule:nonzero;fill:rgb(74.901961%,74.901961%,74.901961%);fill-opacity:1;" d="M 1106.773438 212.285156 C 1108.488281 212.285156 1108.523438 212.253906 1109.070312 211.730469 L 1138.824219 180.148438 C 1139.199219 179.78125 1139.199219 179.730469 1139.199219 179.640625 C 1139.199219 179.34375 1138.753906 179.101562 1138.101562 179.101562 C 1137.382812 179.101562 1137.179688 179.34375 1136.902344 179.640625 L 1108.863281 209.410156 L 1097.277344 195.683594 L 1089.703125 198.648438 L 1090.527344 199.085938 L 1094.398438 197.605469 Z M 1106.773438 212.285156 "/>
<path style="fill:none;stroke-width:9.99;stroke-linecap:butt;stroke-linejoin:miter;stroke:rgb(74.901961%,74.901961%,74.901961%);stroke-opacity:1;stroke-miterlimit:10;" d="M 5187.938418 630.385 L 5370.896327 630.385 " transform="matrix(0.219377,0,0,-0.111607,0,250)"/>
<path style=" stroke:none;fill-rule:nonzero;fill:rgb(74.901961%,74.901961%,74.901961%);fill-opacity:1;" d="M 1144.523438 188.585938 C 1146.339844 186.164062 1150.660156 184.644531 1155.421875 184.644531 C 1162.003906 184.644531 1166.324219 187.59375 1166.324219 190.820312 L 1166.324219 191.253906 C 1165.84375 194.933594 1160.976562 197.828125 1156.347656 200.464844 C 1152.441406 202.695312 1148.464844 204.960938 1144.523438 207.195312 L 1143.050781 208.03125 C 1142.433594 208.363281 1142.019531 208.589844 1142.019531 209.023438 C 1142.019531 209.234375 1142.125 209.425781 1142.125 209.636719 L 1172.355469 209.636719 L 1174.140625 201.945312 L 1172.117188 201.945312 C 1171.707031 203.496094 1171.808594 205.675781 1168.828125 205.675781 C 1166.871094 205.800781 1164.816406 205.851562 1162.863281 205.851562 C 1160.839844 205.851562 1158.886719 205.800781 1156.898438 205.800781 L 1149.152344 205.800781 C 1152.613281 204.175781 1155.972656 202.417969 1159.570312 200.863281 L 1164.265625 198.824219 C 1169.136719 196.714844 1174.140625 194.410156 1174.140625 190.785156 L 1174.140625 190.382812 C 1173.351562 185.917969 1165.777344 183.496094 1157.378906 183.496094 C 1150.007812 183.496094 1142.125 186.074219 1142.125 190.382812 C 1142.125 191.777344 1143.90625 192.527344 1146.101562 192.527344 C 1148.054688 192.527344 1150.109375 191.8125 1150.109375 190.539062 C 1150.109375 189.390625 1148.464844 188.464844 1146.167969 188.464844 C 1145.621094 188.464844 1145.070312 188.515625 1144.523438 188.585938 Z M 1144.523438 188.585938 "/>
<path style=" stroke:none;fill-rule:nonzero;fill:rgb(74.901961%,74.901961%,74.901961%);fill-opacity:1;" d="M 1219.746094 50.589844 L 1223.480469 50.589844 L 1223.480469 0.835938 L 1205.382812 0.835938 L 1205.382812 2.753906 L 1219.746094 2.753906 Z M 1219.746094 50.589844 "/>
<path style=" stroke:none;fill-rule:nonzero;fill:rgb(74.901961%,74.901961%,74.901961%);fill-opacity:1;" d="M 1219.746094 67.222656 L 1223.480469 67.222656 L 1223.480469 50.570312 L 1219.746094 50.570312 Z M 1219.746094 67.222656 "/>
<path style=" stroke:none;fill-rule:nonzero;fill:rgb(74.901961%,74.901961%,74.901961%);fill-opacity:1;" d="M 1219.746094 83.816406 L 1223.480469 83.816406 L 1223.480469 67.164062 L 1219.746094 67.164062 Z M 1219.746094 83.816406 "/>
<path style=" stroke:none;fill-rule:nonzero;fill:rgb(74.901961%,74.901961%,74.901961%);fill-opacity:1;" d="M 1219.746094 100.421875 L 1223.480469 100.421875 L 1223.480469 83.765625 L 1219.746094 83.765625 Z M 1219.746094 100.421875 "/>
<path style=" stroke:none;fill-rule:nonzero;fill:rgb(74.901961%,74.901961%,74.901961%);fill-opacity:1;" d="M 1219.746094 117.015625 L 1223.480469 117.015625 L 1223.480469 100.359375 L 1219.746094 100.359375 Z M 1219.746094 117.015625 "/>
<path style=" stroke:none;fill-rule:nonzero;fill:rgb(74.901961%,74.901961%,74.901961%);fill-opacity:1;" d="M 1219.746094 133.617188 L 1223.480469 133.617188 L 1223.480469 116.964844 L 1219.746094 116.964844 Z M 1219.746094 133.617188 "/>
<path style=" stroke:none;fill-rule:nonzero;fill:rgb(74.901961%,74.901961%,74.901961%);fill-opacity:1;" d="M 1219.746094 150.210938 L 1223.480469 150.210938 L 1223.480469 133.558594 L 1219.746094 133.558594 Z M 1219.746094 150.210938 "/>
<path style=" stroke:none;fill-rule:nonzero;fill:rgb(74.901961%,74.901961%,74.901961%);fill-opacity:1;" d="M 1219.746094 166.816406 L 1223.480469 166.816406 L 1223.480469 150.160156 L 1219.746094 150.160156 Z M 1219.746094 166.816406 "/>
<path style=" stroke:none;fill-rule:nonzero;fill:rgb(74.901961%,74.901961%,74.901961%);fill-opacity:1;" d="M 1219.746094 183.410156 L 1223.480469 183.410156 L 1223.480469 166.753906 L 1219.746094 166.753906 Z M 1219.746094 183.410156 "/>
<path style=" stroke:none;fill-rule:nonzero;fill:rgb(74.901961%,74.901961%,74.901961%);fill-opacity:1;" d="M 1219.746094 200.011719 L 1223.480469 200.011719 L 1223.480469 183.359375 L 1219.746094 183.359375 Z M 1219.746094 200.011719 "/>
<path style=" stroke:none;fill-rule:nonzero;fill:rgb(74.901961%,74.901961%,74.901961%);fill-opacity:1;" d="M 1219.746094 247.828125 L 1205.382812 247.828125 L 1205.382812 249.746094 L 1223.480469 249.746094 L 1223.480469 199.992188 L 1219.746094 199.992188 Z M 1219.746094 247.828125 "/>
</g>
</svg>
