<?xml version="1.0" encoding="UTF-8"?>
<svg xmlns="http://www.w3.org/2000/svg" xmlns:xlink="http://www.w3.org/1999/xlink" width="1445px" height="250px" viewBox="0 0 1445 250" version="1.1">
<g id="surface1">
<path style=" stroke:none;fill-rule:nonzero;fill:rgb(74.901961%,74.901961%,74.901961%);fill-opacity:1;" d="M 2.152344 50.589844 L 6.558594 50.589844 L 6.558594 2.753906 L 23.5 2.753906 L 23.5 0.835938 L 2.152344 0.835938 Z M 2.152344 50.589844 "/>
<path style=" stroke:none;fill-rule:nonzero;fill:rgb(74.901961%,74.901961%,74.901961%);fill-opacity:1;" d="M 2.152344 67.222656 L 6.558594 67.222656 L 6.558594 50.570312 L 2.152344 50.570312 Z M 2.152344 67.222656 "/>
<path style=" stroke:none;fill-rule:nonzero;fill:rgb(74.901961%,74.901961%,74.901961%);fill-opacity:1;" d="M 2.152344 83.816406 L 6.558594 83.816406 L 6.558594 67.164062 L 2.152344 67.164062 Z M 2.152344 83.816406 "/>
<path style=" stroke:none;fill-rule:nonzero;fill:rgb(74.901961%,74.901961%,74.901961%);fill-opacity:1;" d="M 2.152344 100.421875 L 6.558594 100.421875 L 6.558594 83.765625 L 2.152344 83.765625 Z M 2.152344 100.421875 "/>
<path style=" stroke:none;fill-rule:nonzero;fill:rgb(74.901961%,74.901961%,74.901961%);fill-opacity:1;" d="M 2.152344 117.015625 L 6.558594 117.015625 L 6.558594 100.359375 L 2.152344 100.359375 Z M 2.152344 117.015625 "/>
<path style=" stroke:none;fill-rule:nonzero;fill:rgb(74.901961%,74.901961%,74.901961%);fill-opacity:1;" d="M 2.152344 133.617188 L 6.558594 133.617188 L 6.558594 116.964844 L 2.152344 116.964844 Z M 2.152344 133.617188 "/>
<path style=" stroke:none;fill-rule:nonzero;fill:rgb(74.901961%,74.901961%,74.901961%);fill-opacity:1;" d="M 2.152344 150.210938 L 6.558594 150.210938 L 6.558594 133.558594 L 2.152344 133.558594 Z M 2.152344 150.210938 "/>
<path style=" stroke:none;fill-rule:nonzero;fill:rgb(74.901961%,74.901961%,74.901961%);fill-opacity:1;" d="M 2.152344 166.816406 L 6.558594 166.816406 L 6.558594 150.160156 L 2.152344 150.160156 Z M 2.152344 166.816406 "/>
<path style=" stroke:none;fill-rule:nonzero;fill:rgb(74.901961%,74.901961%,74.901961%);fill-opacity:1;" d="M 2.152344 183.410156 L 6.558594 183.410156 L 6.558594 166.753906 L 2.152344 166.753906 Z M 2.152344 183.410156 "/>
<path style=" stroke:none;fill-rule:nonzero;fill:rgb(74.901961%,74.901961%,74.901961%);fill-opacity:1;" d="M 2.152344 200.011719 L 6.558594 200.011719 L 6.558594 183.359375 L 2.152344 183.359375 Z M 2.152344 200.011719 "/>
<path style=" stroke:none;fill-rule:nonzero;fill:rgb(74.901961%,74.901961%,74.901961%);fill-opacity:1;" d="M 2.152344 249.746094 L 23.5 249.746094 L 23.5 247.828125 L 6.558594 247.828125 L 6.558594 199.992188 L 2.152344 199.992188 Z M 2.152344 249.746094 "/>
<path style=" stroke:none;fill-rule:nonzero;fill:rgb(74.901961%,74.901961%,74.901961%);fill-opacity:1;" d="M 63.53125 65.503906 L 63.53125 66.65625 C 67.652344 66.65625 71.816406 66.5 75.78125 65.941406 L 75.78125 87.339844 L 75.617188 87.773438 L 74.6875 87.898438 L 63.972656 87.898438 L 63.972656 89.101562 L 96.199219 89.101562 L 96.199219 87.933594 L 86.332031 87.933594 C 85.324219 87.933594 84.472656 87.863281 84.472656 87.375 L 84.472656 63.464844 C 84.472656 63.273438 84.472656 62.960938 83.828125 62.960938 C 82.453125 62.960938 80.792969 63.796875 79.296875 64.109375 C 74.488281 65.226562 68.949219 65.503906 63.53125 65.503906 Z M 63.53125 65.503906 "/>
<path style=" stroke:none;fill-rule:nonzero;fill:rgb(74.901961%,74.901961%,74.901961%);fill-opacity:1;" d="M 367.378906 62.960938 C 349.546875 63.796875 348.898438 71.398438 348.898438 76.789062 C 348.898438 81.566406 350.113281 89.570312 368.953125 89.570312 C 382.90625 89.570312 388.726562 84.269531 388.726562 77.660156 L 388.726562 75.339844 C 388.726562 69.96875 385.613281 62.90625 369.078125 62.90625 C 368.511719 62.90625 367.945312 62.90625 367.378906 62.960938 Z M 357.796875 78.847656 C 357.675781 78.53125 357.675781 78.21875 357.675781 77.90625 C 357.675781 75.464844 357.675781 73.039062 358.078125 70.597656 C 358.238281 69.046875 358.523438 67.300781 360.464844 65.941406 C 362.40625 64.667969 365.640625 63.917969 368.953125 63.917969 C 379.023438 63.917969 379.871094 69.097656 379.871094 73.039062 L 379.871094 75.339844 C 379.871094 76.457031 379.953125 77.695312 379.953125 78.96875 C 379.953125 81.566406 379.589844 84.269531 377.566406 86.152344 C 375.789062 87.546875 372.472656 88.664062 368.792969 88.664062 L 368.589844 88.664062 C 362.769531 88.664062 359.453125 86.1875 358.726562 83.992188 C 357.957031 82.28125 358.160156 80.574219 357.796875 78.847656 Z M 357.796875 78.847656 "/>
<path style=" stroke:none;fill-rule:nonzero;fill:rgb(74.901961%,74.901961%,74.901961%);fill-opacity:1;" d="M 91.484375 183.496094 C 73.65625 184.332031 73.007812 191.9375 73.007812 197.324219 C 73.007812 202.101562 74.222656 210.105469 93.0625 210.105469 C 107.011719 210.105469 112.835938 204.804688 112.835938 198.195312 L 112.835938 195.875 C 112.835938 190.503906 109.722656 183.441406 93.183594 183.441406 C 92.617188 183.441406 92.050781 183.441406 91.484375 183.496094 Z M 81.902344 199.382812 C 81.78125 199.066406 81.78125 198.753906 81.78125 198.441406 C 81.78125 196 81.78125 193.574219 82.1875 191.132812 C 82.347656 189.582031 82.632812 187.835938 84.570312 186.476562 C 86.511719 185.203125 89.746094 184.453125 93.0625 184.453125 C 103.132812 184.453125 103.980469 189.632812 103.980469 193.574219 L 103.980469 195.875 C 103.980469 196.992188 104.0625 198.230469 104.0625 199.503906 C 104.0625 202.101562 103.695312 204.804688 101.675781 206.6875 C 99.894531 208.082031 96.582031 209.199219 92.902344 209.199219 L 92.699219 209.199219 C 86.875 209.199219 83.5625 206.722656 82.832031 204.527344 C 82.066406 202.816406 82.265625 201.109375 81.902344 199.382812 Z M 81.902344 199.382812 "/>
<path style=" stroke:none;fill-rule:nonzero;fill:rgb(74.901961%,74.901961%,74.901961%);fill-opacity:1;" d="M 330.441406 199.277344 L 330.441406 202.257812 L 355.671875 202.257812 L 355.671875 199.277344 Z M 330.441406 199.277344 "/>
<path style=" stroke:none;fill-rule:nonzero;fill:rgb(74.901961%,74.901961%,74.901961%);fill-opacity:1;" d="M 368.984375 186.042969 L 368.984375 187.191406 C 373.109375 187.191406 377.273438 187.035156 381.234375 186.476562 L 381.234375 207.875 L 381.074219 208.3125 L 380.144531 208.433594 L 369.429688 208.433594 L 369.429688 209.636719 L 401.65625 209.636719 L 401.65625 208.46875 L 391.789062 208.46875 C 390.777344 208.46875 389.929688 208.398438 389.929688 207.910156 L 389.929688 184 C 389.929688 183.808594 389.929688 183.496094 389.28125 183.496094 C 387.90625 183.496094 386.25 184.332031 384.753906 184.644531 C 379.941406 185.761719 374.402344 186.042969 368.984375 186.042969 Z M 368.984375 186.042969 "/>
<path style=" stroke:none;fill-rule:nonzero;fill:rgb(74.901961%,74.901961%,74.901961%);fill-opacity:1;" d="M 457.324219 50.589844 L 461.730469 50.589844 L 461.730469 0.835938 L 440.382812 0.835938 L 440.382812 2.753906 L 457.324219 2.753906 Z M 457.324219 50.589844 "/>
<path style=" stroke:none;fill-rule:nonzero;fill:rgb(74.901961%,74.901961%,74.901961%);fill-opacity:1;" d="M 457.324219 67.222656 L 461.730469 67.222656 L 461.730469 50.570312 L 457.324219 50.570312 Z M 457.324219 67.222656 "/>
<path style=" stroke:none;fill-rule:nonzero;fill:rgb(74.901961%,74.901961%,74.901961%);fill-opacity:1;" d="M 457.324219 83.816406 L 461.730469 83.816406 L 461.730469 67.164062 L 457.324219 67.164062 Z M 457.324219 83.816406 "/>
<path style=" stroke:none;fill-rule:nonzero;fill:rgb(74.901961%,74.901961%,74.901961%);fill-opacity:1;" d="M 457.324219 100.421875 L 461.730469 100.421875 L 461.730469 83.765625 L 457.324219 83.765625 Z M 457.324219 100.421875 "/>
<path style=" stroke:none;fill-rule:nonzero;fill:rgb(74.901961%,74.901961%,74.901961%);fill-opacity:1;" d="M 457.324219 117.015625 L 461.730469 117.015625 L 461.730469 100.359375 L 457.324219 100.359375 Z M 457.324219 117.015625 "/>
<path style=" stroke:none;fill-rule:nonzero;fill:rgb(74.901961%,74.901961%,74.901961%);fill-opacity:1;" d="M 457.324219 133.617188 L 461.730469 133.617188 L 461.730469 116.964844 L 457.324219 116.964844 Z M 457.324219 133.617188 "/>
<path style=" stroke:none;fill-rule:nonzero;fill:rgb(74.901961%,74.901961%,74.901961%);fill-opacity:1;" d="M 457.324219 150.210938 L 461.730469 150.210938 L 461.730469 133.558594 L 457.324219 133.558594 Z M 457.324219 150.210938 "/>
<path style=" stroke:none;fill-rule:nonzero;fill:rgb(74.901961%,74.901961%,74.901961%);fill-opacity:1;" d="M 457.324219 166.816406 L 461.730469 166.816406 L 461.730469 150.160156 L 457.324219 150.160156 Z M 457.324219 166.816406 "/>
<path style=" stroke:none;fill-rule:nonzero;fill:rgb(74.901961%,74.901961%,74.901961%);fill-opacity:1;" d="M 457.324219 183.410156 L 461.730469 183.410156 L 461.730469 166.753906 L 457.324219 166.753906 Z M 457.324219 183.410156 "/>
<path style=" stroke:none;fill-rule:nonzero;fill:rgb(74.901961%,74.901961%,74.901961%);fill-opacity:1;" d="M 457.324219 200.011719 L 461.730469 200.011719 L 461.730469 183.359375 L 457.324219 183.359375 Z M 457.324219 200.011719 "/>
<path style=" stroke:none;fill-rule:nonzero;fill:rgb(74.901961%,74.901961%,74.901961%);fill-opacity:1;" d="M 457.324219 247.828125 L 440.382812 247.828125 L 440.382812 249.746094 L 461.730469 249.746094 L 461.730469 199.996094 L 457.324219 199.996094 Z M 457.324219 247.828125 "/>
<path style=" stroke:none;fill-rule:nonzero;fill:rgb(74.901961%,74.901961%,74.901961%);fill-opacity:1;" d="M 514.292969 50.589844 L 518.699219 50.589844 L 518.699219 2.753906 L 535.640625 2.753906 L 535.640625 0.835938 L 514.292969 0.835938 Z M 514.292969 50.589844 "/>
<path style=" stroke:none;fill-rule:nonzero;fill:rgb(74.901961%,74.901961%,74.901961%);fill-opacity:1;" d="M 514.292969 67.222656 L 518.699219 67.222656 L 518.699219 50.570312 L 514.292969 50.570312 Z M 514.292969 67.222656 "/>
<path style=" stroke:none;fill-rule:nonzero;fill:rgb(74.901961%,74.901961%,74.901961%);fill-opacity:1;" d="M 514.292969 83.816406 L 518.699219 83.816406 L 518.699219 67.164062 L 514.292969 67.164062 Z M 514.292969 83.816406 "/>
<path style=" stroke:none;fill-rule:nonzero;fill:rgb(74.901961%,74.901961%,74.901961%);fill-opacity:1;" d="M 514.292969 100.421875 L 518.699219 100.421875 L 518.699219 83.765625 L 514.292969 83.765625 Z M 514.292969 100.421875 "/>
<path style=" stroke:none;fill-rule:nonzero;fill:rgb(74.901961%,74.901961%,74.901961%);fill-opacity:1;" d="M 514.292969 117.015625 L 518.699219 117.015625 L 518.699219 100.359375 L 514.292969 100.359375 Z M 514.292969 117.015625 "/>
<path style=" stroke:none;fill-rule:nonzero;fill:rgb(74.901961%,74.901961%,74.901961%);fill-opacity:1;" d="M 514.292969 133.617188 L 518.699219 133.617188 L 518.699219 116.964844 L 514.292969 116.964844 Z M 514.292969 133.617188 "/>
<path style=" stroke:none;fill-rule:nonzero;fill:rgb(74.901961%,74.901961%,74.901961%);fill-opacity:1;" d="M 514.292969 150.210938 L 518.699219 150.210938 L 518.699219 133.558594 L 514.292969 133.558594 Z M 514.292969 150.210938 "/>
<path style=" stroke:none;fill-rule:nonzero;fill:rgb(74.901961%,74.901961%,74.901961%);fill-opacity:1;" d="M 514.292969 166.816406 L 518.699219 166.816406 L 518.699219 150.164062 L 514.292969 150.164062 Z M 514.292969 166.816406 "/>
<path style=" stroke:none;fill-rule:nonzero;fill:rgb(74.901961%,74.901961%,74.901961%);fill-opacity:1;" d="M 514.292969 183.410156 L 518.699219 183.410156 L 518.699219 166.757812 L 514.292969 166.757812 Z M 514.292969 183.410156 "/>
<path style=" stroke:none;fill-rule:nonzero;fill:rgb(74.901961%,74.901961%,74.901961%);fill-opacity:1;" d="M 514.292969 200.011719 L 518.699219 200.011719 L 518.699219 183.359375 L 514.292969 183.359375 Z M 514.292969 200.011719 "/>
<path style=" stroke:none;fill-rule:nonzero;fill:rgb(74.901961%,74.901961%,74.901961%);fill-opacity:1;" d="M 514.292969 249.746094 L 535.640625 249.746094 L 535.640625 247.828125 L 518.699219 247.828125 L 518.699219 199.996094 L 514.292969 199.996094 Z M 514.292969 249.746094 "/>
<path style=" stroke:none;fill-rule:nonzero;fill:rgb(74.901961%,74.901961%,74.901961%);fill-opacity:1;" d="M 571.667969 65.507812 L 571.667969 66.65625 C 575.789062 66.65625 579.953125 66.5 583.917969 65.941406 L 583.917969 87.339844 L 583.753906 87.773438 L 582.824219 87.898438 L 572.109375 87.898438 L 572.109375 89.101562 L 604.335938 89.101562 L 604.335938 87.933594 L 594.472656 87.933594 C 593.460938 87.933594 592.609375 87.863281 592.609375 87.375 L 592.609375 63.464844 C 592.609375 63.273438 592.609375 62.960938 591.964844 62.960938 C 590.589844 62.960938 588.929688 63.796875 587.433594 64.109375 C 582.625 65.226562 577.085938 65.507812 571.667969 65.507812 Z M 571.667969 65.507812 "/>
<path style=" stroke:none;fill-rule:nonzero;fill:rgb(74.901961%,74.901961%,74.901961%);fill-opacity:1;" d="M 651.558594 59.246094 C 650.546875 59.402344 649.902344 60.570312 649.457031 61.164062 C 638.457031 73.074219 628.550781 85.105469 617.554688 96.984375 L 616.746094 97.976562 C 616.542969 98.132812 616.382812 98.34375 616.261719 98.535156 C 616.261719 98.777344 616.746094 99.023438 617.269531 99.023438 L 617.472656 99.023438 C 618.121094 98.972656 618.402344 98.742188 618.566406 98.5 L 619.980469 96.949219 C 630.410156 84.914062 641.125 72.953125 651.921875 60.972656 L 652.570312 60.203125 C 652.691406 60.046875 652.933594 59.890625 652.933594 59.679688 C 652.933594 59.402344 652.40625 59.246094 651.839844 59.246094 Z M 651.558594 59.246094 "/>
<path style=" stroke:none;fill-rule:nonzero;fill:rgb(74.901961%,74.901961%,74.901961%);fill-opacity:1;" d="M 685.546875 91.75 C 687.566406 91.75 687.609375 91.714844 688.253906 91.195312 L 723.351562 59.613281 C 723.796875 59.246094 723.796875 59.195312 723.796875 59.105469 C 723.796875 58.808594 723.269531 58.566406 722.5 58.566406 C 721.652344 58.566406 721.410156 58.808594 721.085938 59.105469 L 688.011719 88.875 L 674.34375 75.148438 L 665.410156 78.113281 L 666.378906 78.550781 L 670.949219 77.066406 Z M 685.546875 91.75 "/>
<path style="fill:none;stroke-width:9.99;stroke-linecap:butt;stroke-linejoin:miter;stroke:rgb(74.901961%,74.901961%,74.901961%);stroke-opacity:1;stroke-miterlimit:10;" d="M 2792.03019 1710.38 L 2975.043858 1710.38 " transform="matrix(0.258775,0,0,-0.111607,0,250)"/>
<path style=" stroke:none;fill-rule:nonzero;fill:rgb(74.901961%,74.901961%,74.901961%);fill-opacity:1;" d="M 730.074219 68.050781 C 732.21875 65.628906 737.3125 64.109375 742.933594 64.109375 C 750.695312 64.109375 755.789062 67.058594 755.789062 70.285156 L 755.789062 70.71875 C 755.222656 74.398438 749.480469 77.292969 744.023438 79.925781 C 739.414062 82.160156 734.722656 84.425781 730.074219 86.660156 L 728.335938 87.496094 C 727.609375 87.828125 727.121094 88.054688 727.121094 88.488281 C 727.121094 88.699219 727.242188 88.890625 727.242188 89.101562 L 762.90625 89.101562 L 765.007812 81.410156 L 762.625 81.410156 C 762.136719 82.960938 762.257812 85.140625 758.742188 85.140625 C 756.4375 85.265625 754.011719 85.316406 751.707031 85.316406 C 749.320312 85.316406 747.015625 85.265625 744.671875 85.265625 L 735.53125 85.265625 C 739.617188 83.640625 743.578125 81.878906 747.824219 80.328125 L 753.363281 78.289062 C 759.105469 76.179688 765.007812 73.875 765.007812 70.25 L 765.007812 69.847656 C 764.078125 65.382812 755.144531 62.960938 745.238281 62.960938 C 736.542969 62.960938 727.242188 65.539062 727.242188 69.847656 C 727.242188 71.242188 729.347656 71.992188 731.933594 71.992188 C 734.238281 71.992188 736.664062 71.277344 736.664062 70.003906 C 736.664062 68.855469 734.722656 67.929688 732.015625 67.929688 C 731.367188 67.929688 730.722656 67.980469 730.074219 68.050781 Z M 730.074219 68.050781 "/>
<path style=" stroke:none;fill-rule:nonzero;fill:rgb(74.901961%,74.901961%,74.901961%);fill-opacity:1;" d="M 571.664062 186.042969 L 571.664062 187.191406 C 575.789062 187.191406 579.953125 187.035156 583.917969 186.476562 L 583.917969 207.875 L 583.753906 208.3125 L 582.824219 208.433594 L 572.109375 208.433594 L 572.109375 209.636719 L 604.335938 209.636719 L 604.335938 208.46875 L 594.46875 208.46875 C 593.457031 208.46875 592.609375 208.398438 592.609375 207.910156 L 592.609375 184 C 592.609375 183.808594 592.609375 183.496094 591.964844 183.496094 C 590.589844 183.496094 588.929688 184.332031 587.433594 184.644531 C 582.621094 185.761719 577.082031 186.042969 571.664062 186.042969 Z M 571.664062 186.042969 "/>
<path style=" stroke:none;fill-rule:nonzero;fill:rgb(74.901961%,74.901961%,74.901961%);fill-opacity:1;" d="M 651.558594 179.78125 C 650.546875 179.9375 649.898438 181.105469 649.453125 181.699219 C 638.457031 193.609375 628.550781 205.640625 617.554688 217.519531 L 616.742188 218.511719 C 616.542969 218.667969 616.378906 218.878906 616.257812 219.070312 C 616.257812 219.3125 616.742188 219.558594 617.269531 219.558594 L 617.472656 219.558594 C 618.117188 219.507812 618.402344 219.28125 618.5625 219.035156 L 619.980469 217.484375 C 630.410156 205.449219 641.125 193.488281 651.921875 181.507812 L 652.566406 180.738281 C 652.691406 180.582031 652.933594 180.425781 652.933594 180.21875 C 652.933594 179.9375 652.40625 179.78125 651.839844 179.78125 Z M 651.558594 179.78125 "/>
<path style=" stroke:none;fill-rule:nonzero;fill:rgb(74.901961%,74.901961%,74.901961%);fill-opacity:1;" d="M 685.542969 212.285156 C 687.566406 212.285156 687.605469 212.253906 688.253906 211.730469 L 723.351562 180.148438 C 723.792969 179.78125 723.792969 179.730469 723.792969 179.640625 C 723.792969 179.34375 723.269531 179.101562 722.5 179.101562 C 721.652344 179.101562 721.410156 179.34375 721.085938 179.640625 L 688.011719 209.410156 L 674.34375 195.683594 L 665.410156 198.648438 L 666.378906 199.085938 L 670.949219 197.605469 Z M 685.542969 212.285156 "/>
<path style="fill:none;stroke-width:9.99;stroke-linecap:butt;stroke-linejoin:miter;stroke:rgb(74.901961%,74.901961%,74.901961%);stroke-opacity:1;stroke-miterlimit:10;" d="M 2792.03019 630.385 L 2975.043858 630.385 " transform="matrix(0.258775,0,0,-0.111607,0,250)"/>
<path style=" stroke:none;fill-rule:nonzero;fill:rgb(74.901961%,74.901961%,74.901961%);fill-opacity:1;" d="M 730.074219 188.585938 C 732.21875 186.164062 737.3125 184.644531 742.933594 184.644531 C 750.695312 184.644531 755.789062 187.59375 755.789062 190.820312 L 755.789062 191.253906 C 755.222656 194.933594 749.480469 197.828125 744.023438 200.464844 C 739.414062 202.695312 734.722656 204.960938 730.074219 207.195312 L 728.335938 208.03125 C 727.609375 208.363281 727.121094 208.589844 727.121094 209.023438 C 727.121094 209.234375 727.242188 209.425781 727.242188 209.636719 L 762.90625 209.636719 L 765.007812 201.945312 L 762.625 201.945312 C 762.136719 203.496094 762.257812 205.675781 758.742188 205.675781 C 756.4375 205.800781 754.011719 205.851562 751.707031 205.851562 C 749.320312 205.851562 747.015625 205.800781 744.671875 205.800781 L 735.53125 205.800781 C 739.617188 204.175781 743.578125 202.417969 747.824219 200.863281 L 753.363281 198.824219 C 759.105469 196.714844 765.007812 194.410156 765.007812 190.785156 L 765.007812 190.382812 C 764.078125 185.917969 755.144531 183.496094 745.238281 183.496094 C 736.542969 183.496094 727.242188 186.074219 727.242188 190.382812 C 727.242188 191.777344 729.347656 192.527344 731.933594 192.527344 C 734.238281 192.527344 736.664062 191.8125 736.664062 190.539062 C 736.664062 189.390625 734.722656 188.464844 732.015625 188.464844 C 731.367188 188.464844 730.722656 188.515625 730.074219 188.585938 Z M 730.074219 188.585938 "/>
<path style=" stroke:none;fill-rule:nonzero;fill:rgb(74.901961%,74.901961%,74.901961%);fill-opacity:1;" d="M 818.804688 50.589844 L 823.210938 50.589844 L 823.210938 0.835938 L 801.863281 0.835938 L 801.863281 2.753906 L 818.804688 2.753906 Z M 818.804688 50.589844 "/>
<path style=" stroke:none;fill-rule:nonzero;fill:rgb(74.901961%,74.901961%,74.901961%);fill-opacity:1;" d="M 818.804688 67.222656 L 823.210938 67.222656 L 823.210938 50.570312 L 818.804688 50.570312 Z M 818.804688 67.222656 "/>
<path style=" stroke:none;fill-rule:nonzero;fill:rgb(74.901961%,74.901961%,74.901961%);fill-opacity:1;" d="M 818.804688 83.816406 L 823.210938 83.816406 L 823.210938 67.164062 L 818.804688 67.164062 Z M 818.804688 83.816406 "/>
<path style=" stroke:none;fill-rule:nonzero;fill:rgb(74.901961%,74.901961%,74.901961%);fill-opacity:1;" d="M 818.804688 100.421875 L 823.210938 100.421875 L 823.210938 83.765625 L 818.804688 83.765625 Z M 818.804688 100.421875 "/>
<path style=" stroke:none;fill-rule:nonzero;fill:rgb(74.901961%,74.901961%,74.901961%);fill-opacity:1;" d="M 818.804688 117.015625 L 823.210938 117.015625 L 823.210938 100.359375 L 818.804688 100.359375 Z M 818.804688 117.015625 "/>
<path style=" stroke:none;fill-rule:nonzero;fill:rgb(74.901961%,74.901961%,74.901961%);fill-opacity:1;" d="M 818.804688 133.617188 L 823.210938 133.617188 L 823.210938 116.964844 L 818.804688 116.964844 Z M 818.804688 133.617188 "/>
<path style=" stroke:none;fill-rule:nonzero;fill:rgb(74.901961%,74.901961%,74.901961%);fill-opacity:1;" d="M 818.804688 150.210938 L 823.210938 150.210938 L 823.210938 133.558594 L 818.804688 133.558594 Z M 818.804688 150.210938 "/>
<path style=" stroke:none;fill-rule:nonzero;fill:rgb(74.901961%,74.901961%,74.901961%);fill-opacity:1;" d="M 818.804688 166.816406 L 823.210938 166.816406 L 823.210938 150.160156 L 818.804688 150.160156 Z M 818.804688 166.816406 "/>
<path style=" stroke:none;fill-rule:nonzero;fill:rgb(74.901961%,74.901961%,74.901961%);fill-opacity:1;" d="M 818.804688 183.410156 L 823.210938 183.410156 L 823.210938 166.753906 L 818.804688 166.753906 Z M 818.804688 183.410156 "/>
<path style=" stroke:none;fill-rule:nonzero;fill:rgb(74.901961%,74.901961%,74.901961%);fill-opacity:1;" d="M 818.804688 200.011719 L 823.210938 200.011719 L 823.210938 183.359375 L 818.804688 183.359375 Z M 818.804688 200.011719 "/>
<path style=" stroke:none;fill-rule:nonzero;fill:rgb(74.901961%,74.901961%,74.901961%);fill-opacity:1;" d="M 818.804688 247.828125 L 801.863281 247.828125 L 801.863281 249.746094 L 823.210938 249.746094 L 823.210938 199.992188 L 818.804688 199.992188 Z M 818.804688 247.828125 "/>
<path style=" stroke:none;fill-rule:nonzero;fill:rgb(74.901961%,74.901961%,74.901961%);fill-opacity:1;" d="M 1134.289062 50.589844 L 1138.695312 50.589844 L 1138.695312 2.753906 L 1155.636719 2.753906 L 1155.636719 0.835938 L 1134.289062 0.835938 Z M 1134.289062 50.589844 "/>
<path style=" stroke:none;fill-rule:nonzero;fill:rgb(74.901961%,74.901961%,74.901961%);fill-opacity:1;" d="M 1134.289062 67.222656 L 1138.695312 67.222656 L 1138.695312 50.570312 L 1134.289062 50.570312 Z M 1134.289062 67.222656 "/>
<path style=" stroke:none;fill-rule:nonzero;fill:rgb(74.901961%,74.901961%,74.901961%);fill-opacity:1;" d="M 1134.289062 83.816406 L 1138.695312 83.816406 L 1138.695312 67.164062 L 1134.289062 67.164062 Z M 1134.289062 83.816406 "/>
<path style=" stroke:none;fill-rule:nonzero;fill:rgb(74.901961%,74.901961%,74.901961%);fill-opacity:1;" d="M 1134.289062 100.421875 L 1138.695312 100.421875 L 1138.695312 83.765625 L 1134.289062 83.765625 Z M 1134.289062 100.421875 "/>
<path style=" stroke:none;fill-rule:nonzero;fill:rgb(74.901961%,74.901961%,74.901961%);fill-opacity:1;" d="M 1134.289062 117.015625 L 1138.695312 117.015625 L 1138.695312 100.359375 L 1134.289062 100.359375 Z M 1134.289062 117.015625 "/>
<path style=" stroke:none;fill-rule:nonzero;fill:rgb(74.901961%,74.901961%,74.901961%);fill-opacity:1;" d="M 1134.289062 133.617188 L 1138.695312 133.617188 L 1138.695312 116.964844 L 1134.289062 116.964844 Z M 1134.289062 133.617188 "/>
<path style=" stroke:none;fill-rule:nonzero;fill:rgb(74.901961%,74.901961%,74.901961%);fill-opacity:1;" d="M 1134.289062 150.210938 L 1138.695312 150.210938 L 1138.695312 133.558594 L 1134.289062 133.558594 Z M 1134.289062 150.210938 "/>
<path style=" stroke:none;fill-rule:nonzero;fill:rgb(74.901961%,74.901961%,74.901961%);fill-opacity:1;" d="M 1134.289062 166.816406 L 1138.695312 166.816406 L 1138.695312 150.160156 L 1134.289062 150.160156 Z M 1134.289062 166.816406 "/>
<path style=" stroke:none;fill-rule:nonzero;fill:rgb(74.901961%,74.901961%,74.901961%);fill-opacity:1;" d="M 1134.289062 183.410156 L 1138.695312 183.410156 L 1138.695312 166.753906 L 1134.289062 166.753906 Z M 1134.289062 183.410156 "/>
<path style=" stroke:none;fill-rule:nonzero;fill:rgb(74.901961%,74.901961%,74.901961%);fill-opacity:1;" d="M 1134.289062 200.011719 L 1138.695312 200.011719 L 1138.695312 183.359375 L 1134.289062 183.359375 Z M 1134.289062 200.011719 "/>
<path style=" stroke:none;fill-rule:nonzero;fill:rgb(74.901961%,74.901961%,74.901961%);fill-opacity:1;" d="M 1134.289062 249.746094 L 1155.636719 249.746094 L 1155.636719 247.828125 L 1138.695312 247.828125 L 1138.695312 199.992188 L 1134.289062 199.992188 Z M 1134.289062 249.746094 "/>
<path style=" stroke:none;fill-rule:nonzero;fill:rgb(74.901961%,74.901961%,74.901961%);fill-opacity:1;" d="M 1191.636719 65.503906 L 1191.636719 66.65625 C 1195.761719 66.65625 1199.925781 66.5 1203.890625 65.941406 L 1203.890625 87.339844 L 1203.726562 87.773438 L 1202.796875 87.898438 L 1192.082031 87.898438 L 1192.082031 89.101562 L 1224.308594 89.101562 L 1224.308594 87.933594 L 1214.441406 87.933594 C 1213.433594 87.933594 1212.582031 87.863281 1212.582031 87.375 L 1212.582031 63.464844 C 1212.582031 63.273438 1212.582031 62.960938 1211.9375 62.960938 C 1210.5625 62.960938 1208.902344 63.796875 1207.40625 64.109375 C 1202.597656 65.226562 1197.058594 65.503906 1191.636719 65.503906 Z M 1191.636719 65.503906 "/>
<path style=" stroke:none;fill-rule:nonzero;fill:rgb(74.901961%,74.901961%,74.901961%);fill-opacity:1;" d="M 1271.53125 59.246094 C 1270.519531 59.402344 1269.871094 60.570312 1269.429688 61.164062 C 1258.429688 73.074219 1248.523438 85.105469 1237.527344 96.984375 L 1236.71875 97.976562 C 1236.515625 98.132812 1236.355469 98.34375 1236.230469 98.535156 C 1236.230469 98.777344 1236.71875 99.023438 1237.242188 99.023438 L 1237.445312 99.023438 C 1238.09375 98.96875 1238.375 98.742188 1238.535156 98.5 L 1239.953125 96.949219 C 1250.382812 84.914062 1261.097656 72.953125 1271.894531 60.972656 L 1272.542969 60.203125 C 1272.664062 60.046875 1272.90625 59.890625 1272.90625 59.679688 C 1272.90625 59.402344 1272.378906 59.246094 1271.8125 59.246094 Z M 1271.53125 59.246094 "/>
<path style=" stroke:none;fill-rule:nonzero;fill:rgb(74.901961%,74.901961%,74.901961%);fill-opacity:1;" d="M 1305.539062 91.75 C 1307.5625 91.75 1307.601562 91.714844 1308.25 91.191406 L 1343.34375 59.613281 C 1343.789062 59.246094 1343.789062 59.191406 1343.789062 59.105469 C 1343.789062 58.808594 1343.265625 58.566406 1342.496094 58.566406 C 1341.648438 58.566406 1341.40625 58.808594 1341.082031 59.105469 L 1308.007812 88.875 L 1294.339844 75.148438 L 1285.402344 78.113281 L 1286.375 78.550781 L 1290.945312 77.066406 Z M 1305.539062 91.75 "/>
<path style="fill:none;stroke-width:9.99;stroke-linecap:butt;stroke-linejoin:miter;stroke:rgb(74.901961%,74.901961%,74.901961%);stroke-opacity:1;stroke-miterlimit:10;" d="M 5187.933304 1710.38 L 5370.901687 1710.38 " transform="matrix(0.258775,0,0,-0.111607,0,250)"/>
<path style=" stroke:none;fill-rule:nonzero;fill:rgb(74.901961%,74.901961%,74.901961%);fill-opacity:1;" d="M 1350.070312 68.050781 C 1352.214844 65.628906 1357.308594 64.109375 1362.929688 64.109375 C 1370.691406 64.109375 1375.785156 67.058594 1375.785156 70.285156 L 1375.785156 70.71875 C 1375.21875 74.398438 1369.480469 77.292969 1364.019531 79.925781 C 1359.410156 82.160156 1354.71875 84.425781 1350.070312 86.660156 L 1348.332031 87.496094 C 1347.605469 87.828125 1347.117188 88.054688 1347.117188 88.488281 C 1347.117188 88.699219 1347.242188 88.890625 1347.242188 89.101562 L 1382.902344 89.101562 L 1385.003906 81.410156 L 1382.621094 81.410156 C 1382.132812 82.960938 1382.253906 85.140625 1378.738281 85.140625 C 1376.433594 85.265625 1374.007812 85.316406 1371.703125 85.316406 C 1369.316406 85.316406 1367.011719 85.265625 1364.667969 85.265625 L 1355.527344 85.265625 C 1359.613281 83.640625 1363.574219 81.878906 1367.820312 80.328125 L 1373.359375 78.289062 C 1379.101562 76.179688 1385.003906 73.875 1385.003906 70.25 L 1385.003906 69.847656 C 1384.074219 65.382812 1375.140625 62.960938 1365.234375 62.960938 C 1356.539062 62.960938 1347.242188 65.539062 1347.242188 69.847656 C 1347.242188 71.242188 1349.34375 71.992188 1351.929688 71.992188 C 1354.234375 71.992188 1356.660156 71.277344 1356.660156 70.003906 C 1356.660156 68.855469 1354.71875 67.929688 1352.011719 67.929688 C 1351.363281 67.929688 1350.71875 67.980469 1350.070312 68.050781 Z M 1350.070312 68.050781 "/>
<path style=" stroke:none;fill-rule:nonzero;fill:rgb(74.901961%,74.901961%,74.901961%);fill-opacity:1;" d="M 1191.640625 186.042969 L 1191.640625 187.191406 C 1195.765625 187.191406 1199.929688 187.035156 1203.890625 186.476562 L 1203.890625 207.875 L 1203.730469 208.3125 L 1202.800781 208.433594 L 1192.085938 208.433594 L 1192.085938 209.636719 L 1224.308594 209.636719 L 1224.308594 208.46875 L 1214.445312 208.46875 C 1213.433594 208.46875 1212.585938 208.398438 1212.585938 207.910156 L 1212.585938 184 C 1212.585938 183.808594 1212.585938 183.496094 1211.9375 183.496094 C 1210.5625 183.496094 1208.90625 184.332031 1207.410156 184.644531 C 1202.597656 185.761719 1197.058594 186.042969 1191.640625 186.042969 Z M 1191.640625 186.042969 "/>
<path style=" stroke:none;fill-rule:nonzero;fill:rgb(74.901961%,74.901961%,74.901961%);fill-opacity:1;" d="M 1271.53125 179.78125 C 1270.519531 179.9375 1269.875 181.105469 1269.429688 181.699219 C 1258.429688 193.609375 1248.523438 205.640625 1237.527344 217.519531 L 1236.71875 218.511719 C 1236.515625 218.667969 1236.355469 218.878906 1236.234375 219.070312 C 1236.234375 219.3125 1236.71875 219.558594 1237.242188 219.558594 L 1237.445312 219.558594 C 1238.09375 219.507812 1238.375 219.28125 1238.539062 219.035156 L 1239.953125 217.484375 C 1250.386719 205.449219 1261.101562 193.488281 1271.894531 181.507812 L 1272.542969 180.738281 C 1272.664062 180.582031 1272.90625 180.425781 1272.90625 180.21875 C 1272.90625 179.9375 1272.382812 179.78125 1271.816406 179.78125 Z M 1271.53125 179.78125 "/>
<path style=" stroke:none;fill-rule:nonzero;fill:rgb(74.901961%,74.901961%,74.901961%);fill-opacity:1;" d="M 1305.542969 212.285156 C 1307.5625 212.285156 1307.601562 212.253906 1308.25 211.730469 L 1343.347656 180.148438 C 1343.792969 179.78125 1343.792969 179.730469 1343.792969 179.640625 C 1343.792969 179.34375 1343.265625 179.101562 1342.496094 179.101562 C 1341.648438 179.101562 1341.40625 179.34375 1341.082031 179.640625 L 1308.007812 209.410156 L 1294.339844 195.683594 L 1285.40625 198.648438 L 1286.375 199.085938 L 1290.945312 197.605469 Z M 1305.542969 212.285156 "/>
<path style="fill:none;stroke-width:9.99;stroke-linecap:butt;stroke-linejoin:miter;stroke:rgb(74.901961%,74.901961%,74.901961%);stroke-opacity:1;stroke-miterlimit:10;" d="M 5187.933304 630.385 L 5370.901687 630.385 " transform="matrix(0.258775,0,0,-0.111607,0,250)"/>
<path style=" stroke:none;fill-rule:nonzero;fill:rgb(74.901961%,74.901961%,74.901961%);fill-opacity:1;" d="M 1350.070312 188.585938 C 1352.214844 186.164062 1357.308594 184.644531 1362.929688 184.644531 C 1370.691406 184.644531 1375.785156 187.59375 1375.785156 190.820312 L 1375.785156 191.253906 C 1375.21875 194.933594 1369.480469 197.828125 1364.019531 200.464844 C 1359.410156 202.695312 1354.71875 204.960938 1350.070312 207.195312 L 1348.332031 208.03125 C 1347.605469 208.363281 1347.117188 208.589844 1347.117188 209.023438 C 1347.117188 209.234375 1347.242188 209.425781 1347.242188 209.636719 L 1382.902344 209.636719 L 1385.003906 201.945312 L 1382.621094 201.945312 C 1382.132812 203.496094 1382.253906 205.675781 1378.738281 205.675781 C 1376.433594 205.800781 1374.007812 205.851562 1371.703125 205.851562 C 1369.316406 205.851562 1367.011719 205.800781 1364.667969 205.800781 L 1355.527344 205.800781 C 1359.613281 204.175781 1363.574219 202.417969 1367.820312 200.863281 L 1373.359375 198.824219 C 1379.101562 196.714844 1385.003906 194.410156 1385.003906 190.785156 L 1385.003906 190.382812 C 1384.074219 185.917969 1375.140625 183.496094 1365.234375 183.496094 C 1356.539062 183.496094 1347.242188 186.074219 1347.242188 190.382812 C 1347.242188 191.777344 1349.34375 192.527344 1351.929688 192.527344 C 1354.234375 192.527344 1356.660156 191.8125 1356.660156 190.539062 C 1356.660156 189.390625 1354.71875 188.464844 1352.011719 188.464844 C 1351.363281 188.464844 1350.71875 188.515625 1350.070312 188.585938 Z M 1350.070312 188.585938 "/>
<path style=" stroke:none;fill-rule:nonzero;fill:rgb(74.901961%,74.901961%,74.901961%);fill-opacity:1;" d="M 1438.800781 50.589844 L 1443.210938 50.589844 L 1443.210938 0.835938 L 1421.859375 0.835938 L 1421.859375 2.753906 L 1438.800781 2.753906 Z M 1438.800781 50.589844 "/>
<path style=" stroke:none;fill-rule:nonzero;fill:rgb(74.901961%,74.901961%,74.901961%);fill-opacity:1;" d="M 1438.800781 67.222656 L 1443.210938 67.222656 L 1443.210938 50.570312 L 1438.800781 50.570312 Z M 1438.800781 67.222656 "/>
<path style=" stroke:none;fill-rule:nonzero;fill:rgb(74.901961%,74.901961%,74.901961%);fill-opacity:1;" d="M 1438.800781 83.816406 L 1443.210938 83.816406 L 1443.210938 67.164062 L 1438.800781 67.164062 Z M 1438.800781 83.816406 "/>
<path style=" stroke:none;fill-rule:nonzero;fill:rgb(74.901961%,74.901961%,74.901961%);fill-opacity:1;" d="M 1438.800781 100.421875 L 1443.210938 100.421875 L 1443.210938 83.765625 L 1438.800781 83.765625 Z M 1438.800781 100.421875 "/>
<path style=" stroke:none;fill-rule:nonzero;fill:rgb(74.901961%,74.901961%,74.901961%);fill-opacity:1;" d="M 1438.800781 117.015625 L 1443.210938 117.015625 L 1443.210938 100.359375 L 1438.800781 100.359375 Z M 1438.800781 117.015625 "/>
<path style=" stroke:none;fill-rule:nonzero;fill:rgb(74.901961%,74.901961%,74.901961%);fill-opacity:1;" d="M 1438.800781 133.617188 L 1443.210938 133.617188 L 1443.210938 116.964844 L 1438.800781 116.964844 Z M 1438.800781 133.617188 "/>
<path style=" stroke:none;fill-rule:nonzero;fill:rgb(74.901961%,74.901961%,74.901961%);fill-opacity:1;" d="M 1438.800781 150.210938 L 1443.210938 150.210938 L 1443.210938 133.558594 L 1438.800781 133.558594 Z M 1438.800781 150.210938 "/>
<path style=" stroke:none;fill-rule:nonzero;fill:rgb(74.901961%,74.901961%,74.901961%);fill-opacity:1;" d="M 1438.800781 166.816406 L 1443.210938 166.816406 L 1443.210938 150.160156 L 1438.800781 150.160156 Z M 1438.800781 166.816406 "/>
<path style=" stroke:none;fill-rule:nonzero;fill:rgb(74.901961%,74.901961%,74.901961%);fill-opacity:1;" d="M 1438.800781 183.410156 L 1443.210938 183.410156 L 1443.210938 166.753906 L 1438.800781 166.753906 Z M 1438.800781 183.410156 "/>
<path style=" stroke:none;fill-rule:nonzero;fill:rgb(74.901961%,74.901961%,74.901961%);fill-opacity:1;" d="M 1438.800781 200.011719 L 1443.210938 200.011719 L 1443.210938 183.359375 L 1438.800781 183.359375 Z M 1438.800781 200.011719 "/>
<path style=" stroke:none;fill-rule:nonzero;fill:rgb(74.901961%,74.901961%,74.901961%);fill-opacity:1;" d="M 1438.800781 247.828125 L 1421.859375 247.828125 L 1421.859375 249.746094 L 1443.210938 249.746094 L 1443.210938 199.992188 L 1438.800781 199.992188 Z M 1438.800781 247.828125 "/>
</g>
</svg>
