<?xml version="1.0" encoding="UTF-8"?>
<svg xmlns="http://www.w3.org/2000/svg" xmlns:xlink="http://www.w3.org/1999/xlink" width="3000px" height="200px" viewBox="0 0 3000 200" version="1.1">
<g id="surface1">
<path style=" stroke:none;fill-rule:nonzero;fill:rgb(74.901961%,74.901961%,74.901961%);fill-opacity:1;" d="M 3.648438 56.742188 C 3.648438 54.28125 3.648438 51.902344 2.570312 51.902344 C 1.523438 51.902344 1.523438 54.28125 1.523438 56.742188 L 1.523438 181.65625 C 1.523438 184.121094 1.523438 186.496094 2.570312 186.496094 C 3.648438 186.496094 3.648438 184.121094 3.648438 181.65625 Z M 3.648438 56.742188 "/>
<path style=" stroke:none;fill-rule:nonzero;fill:rgb(74.901961%,74.901961%,74.901961%);fill-opacity:1;" d="M 11.996094 66.933594 L 11.996094 72.539062 L 13.785156 72.539062 C 15.707031 72.539062 17.492188 73.132812 17.492188 78.738281 L 17.492188 144.125 C 17.492188 146.839844 16.785156 147.011719 16.175781 147.011719 L 11.996094 147.011719 L 11.996094 152.699219 L 31.179688 152.699219 L 31.179688 147.011719 L 25.886719 147.011719 C 25.113281 147.011719 24.402344 147.011719 24.402344 144.546875 L 24.402344 125.101562 C 24.402344 120.6875 24.335938 116.015625 24.335938 111.515625 C 24.335938 95.464844 25.347656 69.820312 32.964844 69.820312 C 33.269531 69.820312 33.640625 69.988281 33.976562 69.988281 L 33.976562 70.246094 C 32.597656 71.601562 31.886719 75.085938 31.886719 78.566406 C 31.886719 83.578125 33.4375 87.652344 35.425781 87.652344 C 37.820312 87.652344 39.136719 83.238281 39.136719 78.566406 C 39.136719 70.246094 35.898438 65.320312 32.964844 65.320312 C 27.808594 65.320312 24.640625 78.398438 24.167969 89.777344 L 24.101562 65.320312 L 16.109375 66.339844 Z M 11.996094 66.933594 "/>
<path style=" stroke:none;fill-rule:nonzero;fill:rgb(74.901961%,74.901961%,74.901961%);fill-opacity:1;" d="M 50.902344 107.4375 L 72.882812 107.4375 C 73.019531 107.4375 73.421875 107.695312 73.726562 107.695312 C 74.332031 107.695312 74.636719 107.097656 74.636719 105.742188 L 74.636719 104.722656 C 74.636719 94.617188 73.792969 83.832031 71.097656 75.679688 C 68.46875 67.695312 64.386719 64.808594 60.375 64.808594 C 49.148438 64.808594 43.519531 85.953125 43.519531 109.050781 C 43.519531 120.855469 44.902344 132.660156 48.207031 141.40625 C 51.679688 150.324219 56.601562 153.804688 61.386719 153.804688 L 61.792969 153.804688 C 67.152344 153.632812 72.34375 145.3125 74.332031 132.320312 C 74.402344 131.726562 74.570312 130.960938 74.570312 130.195312 C 74.570312 129.433594 74.332031 128.839844 74.03125 128.839844 L 73.625 128.839844 C 72.34375 128.839844 72.007812 133.847656 71.398438 136.566406 C 69.480469 144.292969 66.175781 149.21875 62.535156 149.21875 C 51.914062 149.21875 50.902344 124.933594 50.902344 107.4375 Z M 50.902344 103.789062 C 50.902344 88.671875 52.824219 69.226562 60.074219 69.226562 C 66.546875 69.226562 68.097656 89.011719 68.097656 103.789062 Z M 50.902344 103.789062 "/>
<path style=" stroke:none;fill-rule:nonzero;fill:rgb(74.901961%,74.901961%,74.901961%);fill-opacity:1;" d="M 100.730469 19.546875 L 100.730469 25.152344 L 102.519531 25.152344 C 104.507812 25.152344 106.226562 25.746094 106.226562 31.945312 L 106.226562 76.019531 C 103.597656 69.394531 100.359375 65.320312 96.417969 65.320312 C 91.425781 65.320312 86.03125 70.414062 82.964844 80.691406 C 80.402344 89.011719 79.492188 99.882812 79.492188 109.988281 C 79.492188 130.535156 83.941406 153.804688 95.574219 153.804688 C 99.753906 153.804688 103.191406 149.386719 106.058594 142.171875 L 106.058594 153.804688 L 118.601562 153.804688 L 118.601562 147.011719 L 116.679688 147.011719 C 114.757812 147.011719 113.136719 146.5 113.136719 140.21875 L 113.136719 18.019531 L 104.914062 18.953125 Z M 86.875 117.542969 L 86.875 107.4375 C 86.875 95.976562 87.179688 82.8125 91.125 75.085938 C 92.878906 71.601562 95.136719 69.820312 97.292969 69.820312 C 100.496094 69.820312 103.292969 73.472656 105.453125 80.265625 C 105.6875 81.285156 105.992188 82.046875 106.058594 83.238281 L 106.058594 132.488281 C 106.058594 133.847656 106.058594 135.039062 105.753906 136.140625 C 103.664062 144.125 100.191406 149.386719 96.519531 149.386719 C 91.023438 149.386719 87.886719 138.519531 87.113281 124.933594 C 87.042969 122.382812 87.042969 120.089844 86.875 117.542969 Z M 86.875 117.542969 "/>
<path style=" stroke:none;fill-rule:nonzero;fill:rgb(74.901961%,74.901961%,74.901961%);fill-opacity:1;" d="M 170.800781 122.128906 C 171.8125 120.941406 171.878906 120.175781 171.878906 119.242188 C 171.878906 118.394531 171.777344 117.460938 170.800781 116.355469 L 141.875 82.8125 C 141.199219 82.046875 141.066406 81.878906 140.964844 81.878906 C 140.324219 81.878906 139.953125 83.238281 139.953125 84.339844 C 139.953125 85.953125 140.390625 86.464844 141.066406 87.3125 L 168.574219 119.242188 L 141.03125 151.257812 C 139.953125 152.445312 139.953125 153.378906 139.953125 154.230469 C 139.953125 155.332031 140.324219 156.605469 140.964844 156.605469 C 141.066406 156.605469 141.132812 156.523438 141.875 155.671875 Z M 170.800781 122.128906 "/>
<path style=" stroke:none;fill-rule:nonzero;fill:rgb(74.901961%,74.901961%,74.901961%);fill-opacity:1;" d="M 240.410156 109.648438 C 241.21875 109.648438 241.996094 109.648438 241.996094 107.355469 C 241.996094 104.890625 241.082031 104.890625 240.171875 104.890625 L 210.304688 104.890625 C 209.394531 104.890625 208.484375 104.890625 208.484375 107.355469 C 208.484375 109.648438 209.292969 109.648438 210.101562 109.648438 Z M 240.171875 133.59375 C 241.082031 133.59375 241.996094 133.59375 241.996094 131.214844 C 241.996094 128.921875 241.21875 128.921875 240.410156 128.921875 L 210.101562 128.921875 C 209.292969 128.921875 208.484375 128.921875 208.484375 131.214844 C 208.484375 133.59375 209.394531 133.59375 210.304688 133.59375 Z M 240.171875 133.59375 "/>
<path style=" stroke:none;fill-rule:nonzero;fill:rgb(74.901961%,74.901961%,74.901961%);fill-opacity:1;" d="M 266.007812 37.804688 L 266.007812 43.410156 C 269.445312 43.410156 272.917969 42.644531 276.222656 39.929688 L 276.222656 144.125 L 276.085938 146.246094 L 275.3125 146.839844 L 266.378906 146.839844 L 266.378906 152.699219 L 293.246094 152.699219 L 293.246094 147.011719 L 285.023438 147.011719 C 284.179688 147.011719 283.472656 146.671875 283.472656 144.292969 L 283.472656 27.871094 C 283.472656 26.9375 283.472656 25.40625 282.929688 25.40625 C 281.785156 25.40625 280.402344 29.484375 279.15625 31.011719 C 275.144531 36.445312 270.523438 37.804688 266.007812 37.804688 Z M 266.007812 37.804688 "/>
<path style=" stroke:none;fill-rule:nonzero;fill:rgb(74.901961%,74.901961%,74.901961%);fill-opacity:1;" d="M 332.621094 7.320312 C 331.777344 8.085938 331.238281 13.773438 330.867188 16.660156 C 321.699219 74.660156 313.4375 133.253906 304.269531 191.082031 L 303.59375 195.925781 C 303.425781 196.6875 303.289062 197.707031 303.1875 198.640625 C 303.1875 199.832031 303.59375 201.019531 304.03125 201.019531 L 304.199219 201.019531 C 304.738281 200.765625 304.976562 199.660156 305.109375 198.472656 L 306.289062 190.914062 C 314.988281 132.320312 323.921875 74.066406 332.925781 15.726562 L 333.464844 11.992188 C 333.566406 11.226562 333.765625 10.460938 333.765625 9.441406 C 333.765625 8.085938 333.328125 7.320312 332.855469 7.320312 Z M 332.621094 7.320312 "/>
<path style=" stroke:none;fill-rule:nonzero;fill:rgb(74.901961%,74.901961%,74.901961%);fill-opacity:1;" d="M 360.976562 165.609375 C 362.664062 165.609375 362.695312 165.4375 363.238281 162.890625 L 392.5 9.101562 C 392.871094 7.320312 392.871094 7.066406 392.871094 6.640625 C 392.871094 5.195312 392.433594 4.007812 391.792969 4.007812 C 391.082031 4.007812 390.882812 5.195312 390.613281 6.640625 L 363.035156 151.597656 L 351.640625 84.765625 L 344.1875 99.203125 L 344.996094 101.324219 L 348.808594 94.105469 Z M 360.976562 165.609375 "/>
<path style="fill:none;stroke-width:9.99;stroke-linecap:butt;stroke-linejoin:miter;stroke:rgb(74.901961%,74.901961%,74.901961%);stroke-opacity:1;stroke-miterlimit:10;" d="M 1815.866021 357.774063 L 1998.826729 357.774063 " transform="matrix(0.215765,0,0,-0.543478,0.000000000000392475,201.086957)"/>
<path style=" stroke:none;fill-rule:nonzero;fill:rgb(74.901961%,74.901961%,74.901961%);fill-opacity:1;" d="M 398.105469 50.203125 C 399.894531 38.398438 404.140625 31.011719 408.828125 31.011719 C 415.300781 31.011719 419.546875 45.359375 419.546875 61.070312 L 419.546875 63.195312 C 419.074219 81.113281 414.289062 95.207031 409.738281 108.03125 C 405.894531 118.902344 401.984375 129.941406 398.105469 140.808594 L 396.65625 144.886719 C 396.050781 146.5 395.644531 147.601562 395.644531 149.726562 C 395.644531 150.746094 395.746094 151.679688 395.746094 152.699219 L 425.480469 152.699219 L 427.234375 115.25 L 425.246094 115.25 C 424.839844 122.808594 424.941406 133.421875 422.007812 133.421875 C 420.085938 134.015625 418.0625 134.269531 416.144531 134.269531 C 414.152344 134.269531 412.230469 134.015625 410.277344 134.015625 L 402.65625 134.015625 C 406.0625 126.117188 409.367188 117.542969 412.90625 109.984375 L 417.523438 100.046875 C 422.3125 89.773438 427.234375 78.5625 427.234375 60.902344 L 427.234375 58.949219 C 426.457031 37.210938 419.007812 25.40625 410.75 25.40625 C 403.5 25.40625 395.746094 37.972656 395.746094 58.949219 C 395.746094 65.742188 397.5 69.394531 399.65625 69.394531 C 401.578125 69.394531 403.601562 65.910156 403.601562 59.710938 C 403.601562 54.109375 401.984375 49.605469 399.722656 49.605469 C 399.183594 49.605469 398.644531 49.863281 398.105469 50.203125 Z M 398.105469 50.203125 "/>
<path style=" stroke:none;fill-rule:nonzero;fill:rgb(74.901961%,74.901961%,74.901961%);fill-opacity:1;" d="M 462.730469 56.742188 C 462.730469 54.277344 462.730469 51.898438 461.652344 51.898438 C 460.605469 51.898438 460.605469 54.277344 460.605469 56.742188 L 460.605469 181.65625 C 460.605469 184.117188 460.605469 186.496094 461.652344 186.496094 C 462.730469 186.496094 462.730469 184.117188 462.730469 181.65625 Z M 462.730469 56.742188 "/>
<path style=" stroke:none;fill-rule:nonzero;fill:rgb(74.901961%,74.901961%,74.901961%);fill-opacity:1;" d="M 492.957031 19.546875 L 492.957031 25.152344 L 494.746094 25.152344 C 496.734375 25.152344 498.453125 25.746094 498.453125 31.945312 L 498.453125 76.015625 C 495.824219 69.394531 492.585938 65.316406 488.644531 65.316406 C 483.652344 65.316406 478.257812 70.414062 475.191406 80.6875 C 472.628906 89.007812 471.71875 99.878906 471.71875 109.984375 C 471.71875 130.535156 476.167969 153.800781 487.800781 153.800781 C 491.980469 153.800781 495.417969 149.386719 498.285156 142.167969 L 498.285156 153.800781 L 510.828125 153.800781 L 510.828125 147.007812 L 508.90625 147.007812 C 506.984375 147.007812 505.363281 146.5 505.363281 140.214844 L 505.363281 18.015625 L 497.140625 18.953125 Z M 479.101562 117.542969 L 479.101562 107.4375 C 479.101562 95.972656 479.40625 82.808594 483.351562 75.082031 C 485.101562 71.601562 487.363281 69.816406 489.519531 69.816406 C 492.722656 69.816406 495.519531 73.46875 497.679688 80.261719 C 497.914062 81.28125 498.21875 82.046875 498.285156 83.234375 L 498.285156 132.488281 C 498.285156 133.847656 498.285156 135.035156 497.980469 136.140625 C 495.890625 144.121094 492.417969 149.386719 488.746094 149.386719 C 483.25 149.386719 480.113281 138.515625 479.339844 124.929688 C 479.269531 122.382812 479.269531 120.089844 479.101562 117.542969 Z M 479.101562 117.542969 "/>
<path style=" stroke:none;fill-rule:nonzero;fill:rgb(74.901961%,74.901961%,74.901961%);fill-opacity:1;" d="M 515.554688 66.929688 L 515.554688 72.535156 L 517.070312 72.535156 C 519.023438 72.535156 520.710938 73.128906 520.710938 78.902344 L 520.710938 144.121094 C 520.710938 146.839844 520.003906 147.007812 519.394531 147.007812 L 515.25 147.007812 L 515.25 152.699219 L 532.578125 152.699219 L 532.578125 147.007812 L 529.039062 147.007812 C 528.332031 147.007812 527.621094 147.007812 527.621094 144.121094 L 527.621094 65.316406 L 519.632812 66.335938 Z M 522.765625 18.78125 C 520.777344 19.546875 519.160156 23.792969 519.160156 29.226562 C 519.160156 34.917969 521.082031 39.925781 523.40625 39.925781 C 525.632812 39.925781 527.621094 35.257812 527.621094 29.226562 C 527.621094 23.621094 525.699219 18.613281 523.40625 18.613281 C 523.171875 18.613281 523.003906 18.78125 522.765625 18.78125 Z M 522.765625 18.78125 "/>
<path style=" stroke:none;fill-rule:nonzero;fill:rgb(74.901961%,74.901961%,74.901961%);fill-opacity:1;" d="M 543.566406 78.902344 C 545.722656 72.960938 548.65625 69.222656 551.960938 69.222656 C 557.289062 69.222656 559.816406 80.6875 559.816406 95.464844 C 559.816406 98.519531 559.75 101.40625 559.75 104.378906 C 551.117188 104.378906 537.734375 109.984375 537.734375 134.441406 C 537.734375 148.792969 544.714844 153.800781 549.734375 153.800781 C 553.816406 153.800781 559.140625 147.601562 560.121094 135.375 L 560.222656 135.375 C 560.222656 146.667969 563.457031 153.292969 567.300781 153.292969 C 570.605469 153.292969 573.300781 147.261719 573.773438 139.109375 L 573.773438 124.929688 L 571.785156 124.929688 L 571.785156 134.609375 C 571.785156 139.28125 571.449219 146.074219 569.222656 146.074219 C 566.996094 146.074219 566.828125 138.347656 566.828125 134.441406 L 566.828125 91.386719 C 566.15625 71.601562 558.738281 64.808594 552.601562 64.808594 C 547.644531 64.808594 540.429688 71.347656 540.429688 87.480469 C 540.429688 93.339844 541.882812 97.160156 544.105469 97.160156 C 546.195312 97.160156 547.746094 93.085938 547.746094 87.90625 C 547.746094 82.808594 546.195312 78.734375 544.171875 78.734375 C 543.972656 78.734375 543.804688 78.902344 543.566406 78.902344 Z M 559.75 107.4375 L 559.75 125.355469 C 559.75 137.328125 556.75 148.960938 551.589844 149.386719 L 551.285156 149.386719 C 547.949219 149.386719 544.8125 142.933594 544.8125 134.269531 L 544.8125 133.847656 C 544.8125 114.996094 552.972656 108.457031 559.75 107.4375 Z M 559.75 107.4375 "/>
<path style=" stroke:none;fill-rule:nonzero;fill:rgb(74.901961%,74.901961%,74.901961%);fill-opacity:1;" d="M 576.535156 66.929688 L 576.535156 72.535156 L 578.320312 72.535156 C 580.242188 72.535156 582.03125 73.128906 582.03125 78.734375 L 582.03125 144.121094 C 582.03125 146.839844 581.320312 147.007812 580.714844 147.007812 L 576.535156 147.007812 L 576.535156 152.699219 L 594.570312 152.699219 L 594.570312 147.007812 L 590.425781 147.007812 C 589.785156 147.007812 589.109375 146.839844 589.109375 144.546875 L 589.109375 114.824219 C 589.109375 111.511719 589.007812 108.03125 589.007812 104.550781 C 589.007812 90.792969 591.167969 69.816406 599.191406 69.816406 C 603.875 69.816406 603.976562 84.933594 603.976562 91.726562 L 603.976562 144.546875 C 603.976562 146.839844 603.269531 147.007812 602.664062 147.007812 L 598.480469 147.007812 L 598.480469 152.699219 L 616.519531 152.699219 L 616.519531 147.007812 L 612.371094 147.007812 C 611.765625 147.007812 611.058594 146.839844 611.058594 144.546875 L 611.058594 114.824219 C 611.058594 111.511719 610.988281 108.03125 610.988281 104.550781 C 610.988281 90.792969 613.148438 69.816406 621.136719 69.816406 C 625.855469 69.816406 625.925781 84.933594 625.925781 91.726562 L 625.925781 144.546875 C 625.925781 146.839844 625.214844 147.007812 624.609375 147.007812 L 620.464844 147.007812 L 620.464844 152.699219 L 638.464844 152.699219 L 638.464844 147.007812 L 634.320312 147.007812 C 633.847656 146.839844 633.171875 147.007812 633.003906 145.480469 L 633.003906 94.613281 C 633.003906 88.074219 632.9375 81.28125 631.621094 75.675781 C 629.632812 67.269531 625.757812 65.316406 622.214844 65.316406 C 617.597656 65.316406 614.125 71.941406 612.066406 81.453125 C 611.664062 83.40625 611.226562 85.527344 611.058594 87.90625 L 610.988281 87.90625 C 610.515625 72.367188 606.503906 65.316406 600.4375 65.316406 C 594.738281 65.316406 590.085938 75.847656 588.875 89.605469 L 588.804688 65.316406 L 580.714844 66.335938 Z M 576.535156 66.929688 "/>
<path style=" stroke:none;fill-rule:nonzero;fill:rgb(74.901961%,74.901961%,74.901961%);fill-opacity:1;" d="M 658.496094 64.808594 C 655.191406 65.742188 652.023438 67.523438 649.257812 72.367188 C 644.402344 80.6875 642.246094 95.464844 642.246094 109.8125 C 642.246094 121.449219 643.628906 133.421875 646.933594 141.828125 C 650.269531 150.320312 655.191406 153.800781 659.878906 153.800781 C 670.296875 153.800781 677.308594 135.203125 677.308594 109.8125 C 677.308594 99.539062 676.296875 88.667969 673.667969 80.261719 C 670.296875 69.222656 664.800781 64.808594 659.339844 64.808594 Z M 649.628906 116.183594 L 649.628906 106.078125 C 649.628906 95.972656 649.730469 84 652.796875 76.1875 C 654.652344 71.601562 657.28125 69.222656 659.8125 69.222656 C 665.746094 69.222656 669.046875 80.261719 669.757812 95.039062 C 669.890625 99.878906 669.890625 104.71875 669.890625 109.558594 C 669.890625 119.917969 669.890625 131.722656 667.296875 140.214844 C 665.441406 146.074219 662.675781 148.960938 659.8125 148.960938 C 654.046875 148.960938 650.40625 137.921875 649.796875 122.042969 C 649.730469 120.089844 649.730469 118.136719 649.628906 116.183594 Z M 649.628906 116.183594 "/>
<path style=" stroke:none;fill-rule:nonzero;fill:rgb(74.901961%,74.901961%,74.901961%);fill-opacity:1;" d="M 681.753906 66.929688 L 681.753906 72.535156 L 683.542969 72.535156 C 685.464844 72.535156 687.25 73.128906 687.25 78.734375 L 687.25 144.121094 C 687.25 146.839844 686.542969 147.007812 685.933594 147.007812 L 681.753906 147.007812 L 681.753906 152.699219 L 699.792969 152.699219 L 699.792969 147.007812 L 695.644531 147.007812 C 695.003906 147.007812 694.328125 146.839844 694.328125 144.546875 L 694.328125 114.484375 C 694.328125 111.171875 694.226562 107.691406 694.226562 104.378906 C 694.226562 90.621094 696.722656 69.816406 704.34375 69.816406 C 708.960938 69.816406 709.097656 84.167969 709.097656 91.726562 L 709.097656 144.546875 C 709.097656 146.839844 708.421875 147.007812 707.816406 147.007812 L 703.632812 147.007812 L 703.632812 152.699219 L 721.671875 152.699219 L 721.671875 147.007812 L 717.523438 147.007812 C 717.050781 146.839844 716.34375 147.007812 716.210938 145.480469 L 716.210938 94.613281 C 716.210938 88.074219 716.109375 81.28125 714.828125 75.675781 C 712.804688 67.101562 708.960938 65.316406 705.320312 65.316406 C 699.792969 65.316406 694.867188 76.78125 694.09375 89.605469 L 694.027344 65.316406 L 685.933594 66.335938 Z M 681.753906 66.929688 "/>
<path style=" stroke:none;fill-rule:nonzero;fill:rgb(74.901961%,74.901961%,74.901961%);fill-opacity:1;" d="M 747.230469 19.546875 L 747.230469 25.152344 L 749.019531 25.152344 C 751.007812 25.152344 752.726562 25.746094 752.726562 31.945312 L 752.726562 76.015625 C 750.097656 69.394531 746.859375 65.316406 742.917969 65.316406 C 737.925781 65.316406 732.53125 70.414062 729.464844 80.6875 C 726.902344 89.007812 725.992188 99.878906 725.992188 109.984375 C 725.992188 130.535156 730.441406 153.800781 742.074219 153.800781 C 746.253906 153.800781 749.691406 149.386719 752.558594 142.167969 L 752.558594 153.800781 L 765.101562 153.800781 L 765.101562 147.007812 L 763.179688 147.007812 C 761.257812 147.007812 759.636719 146.5 759.636719 140.214844 L 759.636719 18.015625 L 751.414062 18.953125 Z M 733.375 117.542969 L 733.375 107.4375 C 733.375 95.972656 733.679688 82.808594 737.625 75.082031 C 739.375 71.601562 741.636719 69.816406 743.792969 69.816406 C 746.996094 69.816406 749.792969 73.46875 751.953125 80.261719 C 752.1875 81.28125 752.492188 82.046875 752.558594 83.234375 L 752.558594 132.488281 C 752.558594 133.847656 752.558594 135.035156 752.253906 136.140625 C 750.164062 144.121094 746.691406 149.386719 743.019531 149.386719 C 737.523438 149.386719 734.386719 138.515625 733.613281 124.929688 C 733.542969 122.382812 733.542969 120.089844 733.375 117.542969 Z M 733.375 117.542969 "/>
<path style=" stroke:none;fill-rule:nonzero;fill:rgb(74.901961%,74.901961%,74.901961%);fill-opacity:1;" d="M 817.410156 122.128906 C 818.421875 120.9375 818.488281 120.175781 818.488281 119.242188 C 818.488281 118.390625 818.386719 117.457031 817.410156 116.351562 L 788.484375 82.808594 C 787.808594 82.046875 787.675781 81.875 787.574219 81.875 C 786.933594 81.875 786.5625 83.234375 786.5625 84.339844 C 786.5625 85.953125 787 86.460938 787.675781 87.3125 L 815.183594 119.242188 L 787.640625 151.253906 C 786.5625 152.445312 786.5625 153.378906 786.5625 154.226562 C 786.5625 155.332031 786.933594 156.605469 787.574219 156.605469 C 787.675781 156.605469 787.742188 156.519531 788.484375 155.671875 Z M 817.410156 122.128906 "/>
<path style=" stroke:none;fill-rule:nonzero;fill:rgb(74.901961%,74.901961%,74.901961%);fill-opacity:1;" d="M 869.800781 121.617188 L 883.960938 121.617188 C 884.703125 121.617188 885.613281 121.617188 885.613281 119.324219 C 885.613281 116.949219 884.769531 116.949219 883.960938 116.949219 L 869.800781 116.949219 L 869.800781 81.195312 C 869.800781 79.328125 869.800781 77.035156 868.890625 77.035156 C 867.914062 77.035156 867.914062 79.160156 867.914062 81.195312 L 867.914062 116.949219 L 853.753906 116.949219 C 853.011719 116.949219 852.101562 116.949219 852.101562 119.242188 C 852.101562 121.617188 852.945312 121.617188 853.753906 121.617188 L 867.914062 121.617188 L 867.914062 157.285156 C 867.914062 159.238281 867.914062 161.53125 868.824219 161.53125 C 869.800781 161.53125 869.800781 159.320312 869.800781 157.285156 Z M 869.800781 121.617188 "/>
<path style=" stroke:none;fill-rule:nonzero;fill:rgb(74.901961%,74.901961%,74.901961%);fill-opacity:1;" d="M 906.675781 37.804688 L 906.675781 43.40625 C 910.113281 43.40625 913.585938 42.644531 916.890625 39.925781 L 916.890625 144.121094 L 916.753906 146.246094 L 915.980469 146.839844 L 907.046875 146.839844 L 907.046875 152.699219 L 933.914062 152.699219 L 933.914062 147.007812 L 925.6875 147.007812 C 924.847656 147.007812 924.136719 146.667969 924.136719 144.292969 L 924.136719 27.867188 C 924.136719 26.933594 924.136719 25.40625 923.597656 25.40625 C 922.453125 25.40625 921.070312 29.480469 919.824219 31.011719 C 915.8125 36.445312 911.191406 37.804688 906.675781 37.804688 Z M 906.675781 37.804688 "/>
<path style=" stroke:none;fill-rule:nonzero;fill:rgb(74.901961%,74.901961%,74.901961%);fill-opacity:1;" d="M 973.289062 7.316406 C 972.445312 8.082031 971.90625 13.773438 971.535156 16.660156 C 962.367188 74.65625 954.105469 133.25 944.9375 191.082031 L 944.261719 195.921875 C 944.09375 196.6875 943.957031 197.703125 943.855469 198.640625 C 943.855469 199.828125 944.261719 201.015625 944.699219 201.015625 L 944.867188 201.015625 C 945.40625 200.761719 945.644531 199.65625 945.777344 198.46875 L 946.957031 190.910156 C 955.65625 132.316406 964.589844 74.0625 973.59375 15.726562 L 974.132812 11.988281 C 974.234375 11.222656 974.433594 10.460938 974.433594 9.441406 C 974.433594 8.082031 973.996094 7.316406 973.523438 7.316406 Z M 973.289062 7.316406 "/>
<path style=" stroke:none;fill-rule:nonzero;fill:rgb(74.901961%,74.901961%,74.901961%);fill-opacity:1;" d="M 1001.625 165.609375 C 1003.3125 165.609375 1003.34375 165.4375 1003.882812 162.890625 L 1033.148438 9.101562 C 1033.519531 7.320312 1033.519531 7.066406 1033.519531 6.640625 C 1033.519531 5.195312 1033.078125 4.007812 1032.4375 4.007812 C 1031.730469 4.007812 1031.527344 5.195312 1031.257812 6.640625 L 1003.683594 151.597656 L 992.285156 84.765625 L 984.835938 99.203125 L 985.644531 101.324219 L 989.453125 94.105469 Z M 1001.625 165.609375 "/>
<path style="fill:none;stroke-width:9.99;stroke-linecap:butt;stroke-linejoin:miter;stroke:rgb(74.901961%,74.901961%,74.901961%);stroke-opacity:1;stroke-miterlimit:10;" d="M 4785.076083 357.774063 L 4968.054896 357.774063 " transform="matrix(0.215765,0,0,-0.543478,0.000000000000392475,201.086957)"/>
<path style=" stroke:none;fill-rule:nonzero;fill:rgb(74.901961%,74.901961%,74.901961%);fill-opacity:1;" d="M 1038.753906 50.203125 C 1040.539062 38.398438 1044.789062 31.011719 1049.476562 31.011719 C 1055.949219 31.011719 1060.195312 45.359375 1060.195312 61.070312 L 1060.195312 63.195312 C 1059.722656 81.113281 1054.9375 95.207031 1050.386719 108.03125 C 1046.542969 118.902344 1042.632812 129.941406 1038.753906 140.808594 L 1037.304688 144.886719 C 1036.699219 146.5 1036.292969 147.601562 1036.292969 149.726562 C 1036.292969 150.746094 1036.394531 151.679688 1036.394531 152.699219 L 1066.128906 152.699219 L 1067.882812 115.25 L 1065.894531 115.25 C 1065.488281 122.808594 1065.589844 133.421875 1062.65625 133.421875 C 1060.734375 134.015625 1058.710938 134.269531 1056.789062 134.269531 C 1054.800781 134.269531 1052.878906 134.015625 1050.925781 134.015625 L 1043.304688 134.015625 C 1046.710938 126.117188 1050.015625 117.542969 1053.554688 109.984375 L 1058.171875 100.046875 C 1062.960938 89.773438 1067.882812 78.5625 1067.882812 60.902344 L 1067.882812 58.949219 C 1067.105469 37.210938 1059.65625 25.40625 1051.398438 25.40625 C 1044.148438 25.40625 1036.394531 37.972656 1036.394531 58.949219 C 1036.394531 65.742188 1038.148438 69.394531 1040.304688 69.394531 C 1042.226562 69.394531 1044.25 65.910156 1044.25 59.710938 C 1044.25 54.109375 1042.632812 49.605469 1040.371094 49.605469 C 1039.832031 49.605469 1039.292969 49.863281 1038.753906 50.203125 Z M 1038.753906 50.203125 "/>
<path style=" stroke:none;fill-rule:nonzero;fill:rgb(74.901961%,74.901961%,74.901961%);fill-opacity:1;" d="M 1103.378906 56.742188 C 1103.378906 54.277344 1103.378906 51.898438 1102.296875 51.898438 C 1101.253906 51.898438 1101.253906 54.277344 1101.253906 56.742188 L 1101.253906 181.65625 C 1101.253906 184.117188 1101.253906 186.496094 1102.296875 186.496094 C 1103.378906 186.496094 1103.378906 184.117188 1103.378906 181.65625 Z M 1103.378906 56.742188 "/>
<path style=" stroke:none;fill-rule:nonzero;fill:rgb(74.901961%,74.901961%,74.901961%);fill-opacity:1;" d="M 1123.527344 64.808594 C 1118.066406 66.167969 1112.367188 71.347656 1112.367188 89.265625 C 1112.367188 106.503906 1118.976562 112.703125 1124.773438 115.25 C 1128.011719 116.777344 1133.84375 119.324219 1133.84375 132.914062 C 1133.84375 144.886719 1129.695312 149.386719 1125.515625 149.386719 C 1120.222656 149.386719 1115.671875 140.640625 1114.523438 122.808594 C 1114.289062 120.855469 1114.222656 120.429688 1113.277344 120.429688 C 1112.433594 120.429688 1112.367188 121.023438 1112.367188 122.382812 L 1112.367188 151.933594 C 1112.367188 152.699219 1112.433594 153.632812 1112.738281 153.632812 L 1112.90625 153.632812 C 1113.882812 153.632812 1115.671875 146.074219 1116.515625 145.480469 L 1116.582031 145.480469 C 1117.222656 145.480469 1118.976562 150.320312 1120.660156 151.933594 C 1122.210938 153.292969 1123.828125 153.800781 1125.449219 153.800781 C 1132.089844 153.800781 1138.15625 146.074219 1138.15625 127.054688 C 1138.15625 113.464844 1134.246094 102.765625 1128.988281 99.710938 C 1124.4375 96.820312 1116.683594 96.566406 1116.683594 82.808594 C 1116.683594 71.175781 1121.671875 69.054688 1124.773438 69.054688 C 1129.695312 69.054688 1133.066406 74.320312 1134.144531 90.199219 C 1134.144531 91.726562 1134.316406 92.914062 1135.089844 92.914062 C 1135.695312 92.914062 1136.167969 92.492188 1136.167969 90.960938 L 1136.167969 66.675781 C 1136.167969 65.742188 1136.066406 64.976562 1135.628906 64.976562 C 1134.617188 64.976562 1133.371094 70.242188 1132.628906 70.242188 C 1132.089844 70.242188 1130.707031 67.695312 1129.761719 66.675781 C 1128.144531 65.316406 1126.460938 64.554688 1124.773438 64.554688 C 1124.367188 64.554688 1123.898438 64.808594 1123.527344 64.808594 Z M 1123.527344 64.808594 "/>
<path style=" stroke:none;fill-rule:nonzero;fill:rgb(74.901961%,74.901961%,74.901961%);fill-opacity:1;" d="M 1170.058594 141.0625 L 1170.058594 181.230469 L 1169.820312 184.117188 L 1168.371094 184.710938 L 1164.597656 184.710938 L 1164.597656 190.316406 L 1182.597656 190.316406 L 1182.597656 184.710938 L 1178.621094 184.710938 C 1177.980469 184.289062 1177.136719 184.882812 1177.136719 182.164062 L 1177.136719 65.316406 L 1175.382812 65.742188 L 1171.070312 83.234375 C 1168.8125 73.128906 1165.371094 65.316406 1160.347656 65.316406 C 1151.414062 65.316406 1143.492188 80.6875 1143.492188 109.984375 C 1143.492188 132.316406 1148.785156 153.800781 1159.675781 153.800781 C 1163.886719 153.800781 1167.359375 148.960938 1170.058594 141.0625 Z M 1150.875 113.636719 L 1150.875 111.171875 C 1150.875 95.632812 1152.730469 69.988281 1161.425781 69.988281 C 1166.214844 69.988281 1170.292969 82.808594 1170.292969 94.105469 C 1170.292969 96.398438 1170.226562 98.691406 1170.226562 101.066406 L 1170.226562 130.535156 C 1170.226562 132.65625 1169.890625 133.847656 1169.519531 135.628906 C 1167.664062 143.1875 1164.359375 149.386719 1160.820312 149.386719 C 1154.886719 149.386719 1152.019531 134.609375 1151.179688 121.789062 C 1151.042969 119.070312 1151.042969 116.351562 1150.875 113.636719 Z M 1150.875 113.636719 "/>
<path style=" stroke:none;fill-rule:nonzero;fill:rgb(74.901961%,74.901961%,74.901961%);fill-opacity:1;" d="M 1184.761719 66.929688 L 1184.761719 72.535156 L 1186.683594 72.535156 C 1188.234375 72.535156 1190.089844 72.960938 1190.257812 77.375 L 1190.257812 127.476562 C 1190.257812 133.25 1190.394531 138.855469 1191.640625 143.953125 C 1193.695312 152.273438 1198.484375 154.058594 1201.890625 154.058594 C 1206.171875 154.058594 1210.824219 148.199219 1212.207031 134.441406 L 1212.273438 153.800781 L 1224.679688 153.800781 L 1224.679688 147.007812 L 1222.894531 147.007812 C 1220.972656 147.007812 1219.21875 146.5 1219.21875 140.640625 L 1219.21875 65.316406 L 1206.644531 66.929688 L 1206.644531 72.535156 L 1208.261719 72.535156 C 1210.351562 72.535156 1212.105469 73.128906 1212.105469 78.902344 L 1212.105469 123.742188 C 1211.667969 135.628906 1209.105469 149.386719 1203.339844 149.386719 C 1200.472656 149.386719 1197.777344 148.792969 1197.40625 137.15625 C 1197.339844 133.082031 1197.339844 129.175781 1197.339844 125.101562 L 1197.339844 65.316406 L 1189.011719 66.335938 Z M 1184.761719 66.929688 "/>
<path style=" stroke:none;fill-rule:nonzero;fill:rgb(74.901961%,74.901961%,74.901961%);fill-opacity:1;" d="M 1235.070312 78.902344 C 1237.226562 72.960938 1240.160156 69.222656 1243.464844 69.222656 C 1248.789062 69.222656 1251.320312 80.6875 1251.320312 95.464844 C 1251.320312 98.519531 1251.253906 101.40625 1251.253906 104.378906 C 1242.621094 104.378906 1229.238281 109.984375 1229.238281 134.441406 C 1229.238281 148.792969 1236.214844 153.800781 1241.238281 153.800781 C 1245.320312 153.800781 1250.644531 147.601562 1251.621094 135.375 L 1251.722656 135.375 C 1251.722656 146.667969 1254.960938 153.292969 1258.804688 153.292969 C 1262.109375 153.292969 1264.804688 147.261719 1265.277344 139.109375 L 1265.277344 124.929688 L 1263.289062 124.929688 L 1263.289062 134.609375 C 1263.289062 139.28125 1262.949219 146.074219 1260.726562 146.074219 C 1258.5 146.074219 1258.332031 138.347656 1258.332031 134.441406 L 1258.332031 91.386719 C 1257.65625 71.601562 1250.242188 64.808594 1244.105469 64.808594 C 1239.148438 64.808594 1231.933594 71.347656 1231.933594 87.480469 C 1231.933594 93.339844 1233.382812 97.160156 1235.609375 97.160156 C 1237.699219 97.160156 1239.25 93.085938 1239.25 87.90625 C 1239.25 82.808594 1237.699219 78.734375 1235.675781 78.734375 C 1235.472656 78.734375 1235.304688 78.902344 1235.070312 78.902344 Z M 1251.253906 107.4375 L 1251.253906 125.355469 C 1251.253906 137.328125 1248.25 148.960938 1243.09375 149.386719 L 1242.789062 149.386719 C 1239.453125 149.386719 1236.316406 142.933594 1236.316406 134.269531 L 1236.316406 133.847656 C 1236.316406 114.996094 1244.476562 108.457031 1251.253906 107.4375 Z M 1251.253906 107.4375 "/>
<path style=" stroke:none;fill-rule:nonzero;fill:rgb(74.901961%,74.901961%,74.901961%);fill-opacity:1;" d="M 1267.800781 66.929688 L 1267.800781 72.535156 L 1269.589844 72.535156 C 1271.511719 72.535156 1273.296875 73.128906 1273.296875 78.734375 L 1273.296875 144.121094 C 1273.296875 146.839844 1272.589844 147.007812 1271.980469 147.007812 L 1267.800781 147.007812 L 1267.800781 152.699219 L 1286.984375 152.699219 L 1286.984375 147.007812 L 1281.691406 147.007812 C 1280.914062 147.007812 1280.207031 147.007812 1280.207031 144.546875 L 1280.207031 125.101562 C 1280.207031 120.683594 1280.140625 116.011719 1280.140625 111.511719 C 1280.140625 95.464844 1281.152344 69.816406 1288.769531 69.816406 C 1289.074219 69.816406 1289.445312 69.988281 1289.78125 69.988281 L 1289.78125 70.242188 C 1288.398438 71.601562 1287.691406 75.082031 1287.691406 78.5625 C 1287.691406 83.574219 1289.242188 87.652344 1291.230469 87.652344 C 1293.625 87.652344 1294.941406 83.234375 1294.941406 78.5625 C 1294.941406 70.242188 1291.703125 65.316406 1288.769531 65.316406 C 1283.613281 65.316406 1280.445312 78.394531 1279.972656 89.773438 L 1279.90625 65.316406 L 1271.914062 66.335938 Z M 1267.800781 66.929688 "/>
<path style=" stroke:none;fill-rule:nonzero;fill:rgb(74.901961%,74.901961%,74.901961%);fill-opacity:1;" d="M 1306.707031 107.4375 L 1328.6875 107.4375 C 1328.824219 107.4375 1329.226562 107.691406 1329.53125 107.691406 C 1330.136719 107.691406 1330.441406 107.097656 1330.441406 105.738281 L 1330.441406 104.71875 C 1330.441406 94.613281 1329.597656 83.828125 1326.902344 75.675781 C 1324.273438 67.695312 1320.191406 64.808594 1316.179688 64.808594 C 1304.953125 64.808594 1299.324219 85.953125 1299.324219 109.050781 C 1299.324219 120.855469 1300.707031 132.65625 1304.011719 141.402344 C 1307.484375 150.320312 1312.40625 153.800781 1317.191406 153.800781 L 1317.597656 153.800781 C 1322.957031 153.632812 1328.148438 145.308594 1330.136719 132.316406 C 1330.207031 131.722656 1330.375 130.960938 1330.375 130.195312 C 1330.375 129.429688 1330.136719 128.835938 1329.835938 128.835938 L 1329.429688 128.835938 C 1328.148438 128.835938 1327.8125 133.847656 1327.203125 136.5625 C 1325.28125 144.292969 1321.980469 149.214844 1318.339844 149.214844 C 1307.71875 149.214844 1306.707031 124.929688 1306.707031 107.4375 Z M 1306.707031 103.785156 C 1306.707031 88.667969 1308.628906 69.222656 1315.878906 69.222656 C 1322.351562 69.222656 1323.902344 89.007812 1323.902344 103.785156 Z M 1306.707031 103.785156 "/>
<path style=" stroke:none;fill-rule:nonzero;fill:rgb(74.901961%,74.901961%,74.901961%);fill-opacity:1;" d="M 1382.828125 122.128906 C 1383.839844 120.9375 1383.910156 120.175781 1383.910156 119.242188 C 1383.910156 118.390625 1383.808594 117.457031 1382.828125 116.351562 L 1353.902344 82.808594 C 1353.230469 82.046875 1353.09375 81.875 1352.992188 81.875 C 1352.351562 81.875 1351.980469 83.234375 1351.980469 84.339844 C 1351.980469 85.953125 1352.421875 86.460938 1353.09375 87.3125 L 1380.605469 119.242188 L 1353.0625 151.253906 C 1351.980469 152.445312 1351.980469 153.378906 1351.980469 154.226562 C 1351.980469 155.332031 1352.351562 156.605469 1352.992188 156.605469 C 1353.09375 156.605469 1353.160156 156.519531 1353.902344 155.671875 Z M 1382.828125 122.128906 "/>
<path style=" stroke:none;fill-rule:nonzero;fill:rgb(74.901961%,74.901961%,74.901961%);fill-opacity:1;" d="M 1580.5 56.742188 C 1580.5 54.277344 1580.5 51.898438 1579.421875 51.898438 C 1578.375 51.898438 1578.375 54.277344 1578.375 56.742188 L 1578.375 181.65625 C 1578.375 184.117188 1578.375 186.496094 1579.421875 186.496094 C 1580.5 186.496094 1580.5 184.117188 1580.5 181.65625 Z M 1580.5 56.742188 "/>
<path style=" stroke:none;fill-rule:nonzero;fill:rgb(74.901961%,74.901961%,74.901961%);fill-opacity:1;" d="M 1588.847656 19.546875 L 1588.847656 25.152344 L 1590.804688 25.152344 C 1592.625 25.152344 1594.34375 25.746094 1594.34375 31.773438 L 1594.34375 152.699219 L 1596.332031 152.273438 L 1600.582031 140.214844 C 1602.738281 149.386719 1607.289062 153.800781 1611.269531 153.800781 C 1615.042969 153.800781 1619.054688 150.746094 1622.054688 144.714844 C 1626.304688 136.140625 1627.988281 122.636719 1627.988281 109.21875 C 1627.988281 88.667969 1623.371094 65.148438 1612.042969 65.148438 C 1608.03125 65.148438 1604.121094 69.648438 1601.253906 76.609375 L 1601.253906 18.015625 L 1593.027344 18.953125 Z M 1620.539062 117.371094 C 1620.539062 133.25 1617.300781 149.386719 1610.121094 149.386719 C 1606.648438 149.386719 1603.648438 144.546875 1601.792969 137.328125 C 1601.421875 135.96875 1601.421875 134.609375 1601.421875 133.082031 L 1601.421875 84 C 1601.894531 77.035156 1607.1875 69.816406 1610.898438 69.816406 C 1612.886719 69.816406 1614.910156 71.347656 1616.59375 74.828125 C 1620.4375 82.46875 1620.605469 95.804688 1620.605469 107.097656 L 1620.605469 112.277344 C 1620.605469 114.058594 1620.605469 115.84375 1620.539062 117.371094 Z M 1620.539062 117.371094 "/>
<path style=" stroke:none;fill-rule:nonzero;fill:rgb(74.901961%,74.901961%,74.901961%);fill-opacity:1;" d="M 1633.019531 19.546875 L 1633.019531 25.152344 L 1634.941406 25.152344 C 1636.863281 25.152344 1638.480469 26 1638.480469 32.199219 L 1638.480469 144.714844 C 1638.480469 147.007812 1637.636719 146.667969 1636.996094 147.007812 L 1633.019531 147.007812 L 1633.019531 152.699219 L 1650.886719 152.699219 L 1650.886719 147.007812 L 1646.875 147.007812 C 1646.269531 146.667969 1645.390625 147.261719 1645.390625 144.546875 L 1645.390625 18.015625 L 1637.167969 18.953125 Z M 1633.019531 19.546875 "/>
<path style=" stroke:none;fill-rule:nonzero;fill:rgb(74.901961%,74.901961%,74.901961%);fill-opacity:1;" d="M 1654.863281 66.929688 L 1654.863281 72.535156 L 1656.785156 72.535156 C 1658.335938 72.535156 1660.191406 72.960938 1660.359375 77.375 L 1660.359375 127.476562 C 1660.359375 133.25 1660.492188 138.855469 1661.742188 143.953125 C 1663.796875 152.273438 1668.585938 154.058594 1671.988281 154.058594 C 1676.273438 154.058594 1680.925781 148.199219 1682.304688 134.441406 L 1682.375 153.800781 L 1694.78125 153.800781 L 1694.78125 147.007812 L 1692.992188 147.007812 C 1691.070312 147.007812 1689.320312 146.5 1689.320312 140.640625 L 1689.320312 65.316406 L 1676.742188 66.929688 L 1676.742188 72.535156 L 1678.363281 72.535156 C 1680.453125 72.535156 1682.207031 73.128906 1682.207031 78.902344 L 1682.207031 123.742188 C 1681.765625 135.628906 1679.203125 149.386719 1673.441406 149.386719 C 1670.574219 149.386719 1667.878906 148.792969 1667.507812 137.15625 C 1667.4375 133.082031 1667.4375 129.175781 1667.4375 125.101562 L 1667.4375 65.316406 L 1659.113281 66.335938 Z M 1654.863281 66.929688 "/>
<path style=" stroke:none;fill-rule:nonzero;fill:rgb(74.901961%,74.901961%,74.901961%);fill-opacity:1;" d="M 1706.011719 107.4375 L 1727.996094 107.4375 C 1728.128906 107.4375 1728.535156 107.691406 1728.835938 107.691406 C 1729.445312 107.691406 1729.746094 107.097656 1729.746094 105.738281 L 1729.746094 104.71875 C 1729.746094 94.613281 1728.90625 83.828125 1726.207031 75.675781 C 1723.578125 67.695312 1719.5 64.808594 1715.488281 64.808594 C 1704.261719 64.808594 1698.628906 85.953125 1698.628906 109.050781 C 1698.628906 120.855469 1700.011719 132.65625 1703.316406 141.402344 C 1706.789062 150.320312 1711.710938 153.800781 1716.5 153.800781 L 1716.902344 153.800781 C 1722.261719 153.632812 1727.453125 145.308594 1729.445312 132.316406 C 1729.511719 131.722656 1729.679688 130.960938 1729.679688 130.195312 C 1729.679688 129.429688 1729.445312 128.835938 1729.140625 128.835938 L 1728.734375 128.835938 C 1727.453125 128.835938 1727.117188 133.847656 1726.511719 136.5625 C 1724.589844 144.292969 1721.285156 149.214844 1717.644531 149.214844 C 1707.023438 149.214844 1706.011719 124.929688 1706.011719 107.4375 Z M 1706.011719 103.785156 C 1706.011719 88.667969 1707.933594 69.222656 1715.183594 69.222656 C 1721.65625 69.222656 1723.207031 89.007812 1723.207031 103.785156 Z M 1706.011719 103.785156 "/>
<path style=" stroke:none;fill-rule:nonzero;fill:rgb(74.901961%,74.901961%,74.901961%);fill-opacity:1;" d="M 1782.0625 122.128906 C 1783.074219 120.9375 1783.140625 120.175781 1783.140625 119.242188 C 1783.140625 118.390625 1783.039062 117.457031 1782.0625 116.351562 L 1753.136719 82.808594 C 1752.460938 82.046875 1752.328125 81.875 1752.226562 81.875 C 1751.585938 81.875 1751.214844 83.234375 1751.214844 84.339844 C 1751.214844 85.953125 1751.652344 86.460938 1752.328125 87.3125 L 1779.839844 119.242188 L 1752.292969 151.253906 C 1751.214844 152.445312 1751.214844 153.378906 1751.214844 154.226562 C 1751.214844 155.332031 1751.585938 156.605469 1752.226562 156.605469 C 1752.328125 156.605469 1752.394531 156.519531 1753.136719 155.671875 Z M 1782.0625 122.128906 "/>
<path style=" stroke:none;fill-rule:nonzero;fill:rgb(74.901961%,74.901961%,74.901961%);fill-opacity:1;" d="M 1851.671875 109.644531 C 1852.480469 109.644531 1853.257812 109.644531 1853.257812 107.351562 C 1853.257812 104.890625 1852.347656 104.890625 1851.4375 104.890625 L 1821.566406 104.890625 C 1820.65625 104.890625 1819.746094 104.890625 1819.746094 107.351562 C 1819.746094 109.644531 1820.554688 109.644531 1821.363281 109.644531 Z M 1851.4375 133.589844 C 1852.347656 133.589844 1853.257812 133.589844 1853.257812 131.214844 C 1853.257812 128.921875 1852.480469 128.921875 1851.671875 128.921875 L 1821.363281 128.921875 C 1820.554688 128.921875 1819.746094 128.921875 1819.746094 131.214844 C 1819.746094 133.589844 1820.65625 133.589844 1821.566406 133.589844 Z M 1851.4375 133.589844 "/>
<path style=" stroke:none;fill-rule:nonzero;fill:rgb(74.901961%,74.901961%,74.901961%);fill-opacity:1;" d="M 1877.269531 37.804688 L 1877.269531 43.40625 C 1880.707031 43.40625 1884.179688 42.644531 1887.484375 39.925781 L 1887.484375 144.121094 L 1887.351562 146.246094 L 1886.574219 146.839844 L 1877.640625 146.839844 L 1877.640625 152.699219 L 1904.511719 152.699219 L 1904.511719 147.007812 L 1896.285156 147.007812 C 1895.441406 147.007812 1894.734375 146.667969 1894.734375 144.292969 L 1894.734375 27.867188 C 1894.734375 26.933594 1894.734375 25.40625 1894.195312 25.40625 C 1893.046875 25.40625 1891.664062 29.480469 1890.417969 31.011719 C 1886.40625 36.445312 1881.785156 37.804688 1877.269531 37.804688 Z M 1877.269531 37.804688 "/>
<path style=" stroke:none;fill-rule:nonzero;fill:rgb(74.901961%,74.901961%,74.901961%);fill-opacity:1;" d="M 1943.882812 7.316406 C 1943.039062 8.082031 1942.5 13.773438 1942.128906 16.660156 C 1932.960938 74.65625 1924.699219 133.25 1915.53125 191.082031 L 1914.855469 195.921875 C 1914.6875 196.6875 1914.550781 197.703125 1914.453125 198.640625 C 1914.453125 199.828125 1914.855469 201.015625 1915.292969 201.015625 L 1915.460938 201.015625 C 1916.003906 200.761719 1916.238281 199.65625 1916.371094 198.46875 L 1917.554688 190.910156 C 1926.25 132.316406 1935.183594 74.0625 1944.1875 15.726562 L 1944.726562 11.988281 C 1944.828125 11.222656 1945.027344 10.460938 1945.027344 9.441406 C 1945.027344 8.082031 1944.589844 7.316406 1944.117188 7.316406 Z M 1943.882812 7.316406 "/>
<path style=" stroke:none;fill-rule:nonzero;fill:rgb(74.901961%,74.901961%,74.901961%);fill-opacity:1;" d="M 1972.238281 165.609375 C 1973.925781 165.609375 1973.960938 165.4375 1974.5 162.890625 L 2003.761719 9.101562 C 2004.132812 7.320312 2004.132812 7.066406 2004.132812 6.640625 C 2004.132812 5.195312 2003.695312 4.007812 2003.054688 4.007812 C 2002.347656 4.007812 2002.144531 5.195312 2001.875 6.640625 L 1974.296875 151.597656 L 1962.902344 84.765625 L 1955.449219 99.203125 L 1956.261719 101.324219 L 1960.070312 94.105469 Z M 1972.238281 165.609375 "/>
<path style="fill:none;stroke-width:9.99;stroke-linecap:butt;stroke-linejoin:miter;stroke:rgb(74.901961%,74.901961%,74.901961%);stroke-opacity:1;stroke-miterlimit:10;" d="M 9283.508896 357.774063 L 9466.487708 357.774063 " transform="matrix(0.215765,0,0,-0.543478,0.000000000000392475,201.086957)"/>
<path style=" stroke:none;fill-rule:nonzero;fill:rgb(74.901961%,74.901961%,74.901961%);fill-opacity:1;" d="M 2009.367188 50.203125 C 2011.15625 38.398438 2015.402344 31.011719 2020.089844 31.011719 C 2026.5625 31.011719 2030.808594 45.359375 2030.808594 61.070312 L 2030.808594 63.195312 C 2030.335938 81.113281 2025.550781 95.207031 2021 108.03125 C 2017.15625 118.902344 2013.246094 129.941406 2009.367188 140.808594 L 2007.917969 144.886719 C 2007.3125 146.5 2006.90625 147.601562 2006.90625 149.726562 C 2006.90625 150.746094 2007.007812 151.679688 2007.007812 152.699219 L 2036.742188 152.699219 L 2038.496094 115.25 L 2036.507812 115.25 C 2036.101562 122.808594 2036.203125 133.421875 2033.269531 133.421875 C 2031.347656 134.015625 2029.324219 134.269531 2027.402344 134.269531 C 2025.414062 134.269531 2023.492188 134.015625 2021.539062 134.015625 L 2013.917969 134.015625 C 2017.324219 126.117188 2020.628906 117.542969 2024.167969 109.984375 L 2028.785156 100.046875 C 2033.574219 89.773438 2038.496094 78.5625 2038.496094 60.902344 L 2038.496094 58.949219 C 2037.71875 37.210938 2030.269531 25.40625 2022.011719 25.40625 C 2014.761719 25.40625 2007.007812 37.972656 2007.007812 58.949219 C 2007.007812 65.742188 2008.761719 69.394531 2010.917969 69.394531 C 2012.839844 69.394531 2014.863281 65.910156 2014.863281 59.710938 C 2014.863281 54.109375 2013.246094 49.605469 2010.984375 49.605469 C 2010.445312 49.605469 2009.90625 49.863281 2009.367188 50.203125 Z M 2009.367188 50.203125 "/>
<path style=" stroke:none;fill-rule:nonzero;fill:rgb(74.901961%,74.901961%,74.901961%);fill-opacity:1;" d="M 2073.992188 56.742188 C 2073.992188 54.277344 2073.992188 51.898438 2072.914062 51.898438 C 2071.867188 51.898438 2071.867188 54.277344 2071.867188 56.742188 L 2071.867188 181.65625 C 2071.867188 184.117188 2071.867188 186.496094 2072.914062 186.496094 C 2073.992188 186.496094 2073.992188 184.117188 2073.992188 181.65625 Z M 2073.992188 56.742188 "/>
<path style=" stroke:none;fill-rule:nonzero;fill:rgb(74.901961%,74.901961%,74.901961%);fill-opacity:1;" d="M 2104.21875 19.546875 L 2104.21875 25.152344 L 2106.007812 25.152344 C 2107.996094 25.152344 2109.714844 25.746094 2109.714844 31.945312 L 2109.714844 76.015625 C 2107.085938 69.394531 2103.847656 65.316406 2099.90625 65.316406 C 2094.914062 65.316406 2089.519531 70.414062 2086.453125 80.6875 C 2083.890625 89.007812 2082.980469 99.878906 2082.980469 109.984375 C 2082.980469 130.535156 2087.429688 153.800781 2099.0625 153.800781 C 2103.242188 153.800781 2106.679688 149.386719 2109.546875 142.167969 L 2109.546875 153.800781 L 2122.089844 153.800781 L 2122.089844 147.007812 L 2120.167969 147.007812 C 2118.246094 147.007812 2116.625 146.5 2116.625 140.214844 L 2116.625 18.015625 L 2108.402344 18.953125 Z M 2090.363281 117.542969 L 2090.363281 107.4375 C 2090.363281 95.972656 2090.667969 82.808594 2094.613281 75.082031 C 2096.363281 71.601562 2098.625 69.816406 2100.78125 69.816406 C 2103.984375 69.816406 2106.78125 73.46875 2108.941406 80.261719 C 2109.175781 81.28125 2109.480469 82.046875 2109.546875 83.234375 L 2109.546875 132.488281 C 2109.546875 133.847656 2109.546875 135.035156 2109.242188 136.140625 C 2107.152344 144.121094 2103.679688 149.386719 2100.007812 149.386719 C 2094.511719 149.386719 2091.375 138.515625 2090.601562 124.929688 C 2090.53125 122.382812 2090.53125 120.089844 2090.363281 117.542969 Z M 2090.363281 117.542969 "/>
<path style=" stroke:none;fill-rule:nonzero;fill:rgb(74.901961%,74.901961%,74.901961%);fill-opacity:1;" d="M 2126.8125 66.929688 L 2126.8125 72.535156 L 2128.332031 72.535156 C 2130.285156 72.535156 2131.972656 73.128906 2131.972656 78.902344 L 2131.972656 144.121094 C 2131.972656 146.839844 2131.265625 147.007812 2130.65625 147.007812 L 2126.511719 147.007812 L 2126.511719 152.699219 L 2143.839844 152.699219 L 2143.839844 147.007812 L 2140.300781 147.007812 C 2139.589844 147.007812 2138.882812 147.007812 2138.882812 144.121094 L 2138.882812 65.316406 L 2130.894531 66.335938 Z M 2134.027344 18.78125 C 2132.039062 19.546875 2130.421875 23.792969 2130.421875 29.226562 C 2130.421875 34.917969 2132.34375 39.925781 2134.667969 39.925781 C 2136.894531 39.925781 2138.882812 35.257812 2138.882812 29.226562 C 2138.882812 23.621094 2136.960938 18.613281 2134.667969 18.613281 C 2134.433594 18.613281 2134.265625 18.78125 2134.027344 18.78125 Z M 2134.027344 18.78125 "/>
<path style=" stroke:none;fill-rule:nonzero;fill:rgb(74.901961%,74.901961%,74.901961%);fill-opacity:1;" d="M 2154.828125 78.902344 C 2156.984375 72.960938 2159.917969 69.222656 2163.222656 69.222656 C 2168.550781 69.222656 2171.078125 80.6875 2171.078125 95.464844 C 2171.078125 98.519531 2171.011719 101.40625 2171.011719 104.378906 C 2162.378906 104.378906 2148.996094 109.984375 2148.996094 134.441406 C 2148.996094 148.792969 2155.972656 153.800781 2160.996094 153.800781 C 2165.078125 153.800781 2170.402344 147.601562 2171.382812 135.375 L 2171.484375 135.375 C 2171.484375 146.667969 2174.71875 153.292969 2178.5625 153.292969 C 2181.867188 153.292969 2184.5625 147.261719 2185.035156 139.109375 L 2185.035156 124.929688 L 2183.046875 124.929688 L 2183.046875 134.609375 C 2183.046875 139.28125 2182.710938 146.074219 2180.484375 146.074219 C 2178.257812 146.074219 2178.089844 138.347656 2178.089844 134.441406 L 2178.089844 91.386719 C 2177.417969 71.601562 2170 64.808594 2163.863281 64.808594 C 2158.90625 64.808594 2151.691406 71.347656 2151.691406 87.480469 C 2151.691406 93.339844 2153.140625 97.160156 2155.367188 97.160156 C 2157.457031 97.160156 2159.007812 93.085938 2159.007812 87.90625 C 2159.007812 82.808594 2157.457031 78.734375 2155.433594 78.734375 C 2155.234375 78.734375 2155.0625 78.902344 2154.828125 78.902344 Z M 2171.011719 107.4375 L 2171.011719 125.355469 C 2171.011719 137.328125 2168.011719 148.960938 2162.851562 149.386719 L 2162.546875 149.386719 C 2159.210938 149.386719 2156.074219 142.933594 2156.074219 134.269531 L 2156.074219 133.847656 C 2156.074219 114.996094 2164.234375 108.457031 2171.011719 107.4375 Z M 2171.011719 107.4375 "/>
<path style=" stroke:none;fill-rule:nonzero;fill:rgb(74.901961%,74.901961%,74.901961%);fill-opacity:1;" d="M 2187.796875 66.929688 L 2187.796875 72.535156 L 2189.582031 72.535156 C 2191.503906 72.535156 2193.292969 73.128906 2193.292969 78.734375 L 2193.292969 144.121094 C 2193.292969 146.839844 2192.582031 147.007812 2191.976562 147.007812 L 2187.796875 147.007812 L 2187.796875 152.699219 L 2205.832031 152.699219 L 2205.832031 147.007812 L 2201.6875 147.007812 C 2201.046875 147.007812 2200.371094 146.839844 2200.371094 144.546875 L 2200.371094 114.824219 C 2200.371094 111.511719 2200.269531 108.03125 2200.269531 104.550781 C 2200.269531 90.792969 2202.425781 69.816406 2210.449219 69.816406 C 2215.136719 69.816406 2215.238281 84.933594 2215.238281 91.726562 L 2215.238281 144.546875 C 2215.238281 146.839844 2214.53125 147.007812 2213.921875 147.007812 L 2209.742188 147.007812 L 2209.742188 152.699219 L 2227.78125 152.699219 L 2227.78125 147.007812 L 2223.632812 147.007812 C 2223.027344 147.007812 2222.316406 146.839844 2222.316406 144.546875 L 2222.316406 114.824219 C 2222.316406 111.511719 2222.25 108.03125 2222.25 104.550781 C 2222.25 90.792969 2224.410156 69.816406 2232.398438 69.816406 C 2237.117188 69.816406 2237.1875 84.933594 2237.1875 91.726562 L 2237.1875 144.546875 C 2237.1875 146.839844 2236.476562 147.007812 2235.871094 147.007812 L 2231.722656 147.007812 L 2231.722656 152.699219 L 2249.726562 152.699219 L 2249.726562 147.007812 L 2245.582031 147.007812 C 2245.109375 146.839844 2244.433594 147.007812 2244.265625 145.480469 L 2244.265625 94.613281 C 2244.265625 88.074219 2244.199219 81.28125 2242.882812 75.675781 C 2240.894531 67.269531 2237.015625 65.316406 2233.476562 65.316406 C 2228.859375 65.316406 2225.386719 71.941406 2223.328125 81.453125 C 2222.925781 83.40625 2222.488281 85.527344 2222.316406 87.90625 L 2222.25 87.90625 C 2221.777344 72.367188 2217.765625 65.316406 2211.699219 65.316406 C 2206 65.316406 2201.347656 75.847656 2200.136719 89.605469 L 2200.066406 65.316406 L 2191.976562 66.335938 Z M 2187.796875 66.929688 "/>
<path style=" stroke:none;fill-rule:nonzero;fill:rgb(74.901961%,74.901961%,74.901961%);fill-opacity:1;" d="M 2269.757812 64.808594 C 2266.453125 65.742188 2263.285156 67.523438 2260.519531 72.367188 C 2255.664062 80.6875 2253.507812 95.464844 2253.507812 109.8125 C 2253.507812 121.449219 2254.890625 133.421875 2258.195312 141.828125 C 2261.53125 150.320312 2266.453125 153.800781 2271.140625 153.800781 C 2281.558594 153.800781 2288.570312 135.203125 2288.570312 109.8125 C 2288.570312 99.539062 2287.558594 88.667969 2284.929688 80.261719 C 2281.558594 69.222656 2276.0625 64.808594 2270.601562 64.808594 Z M 2260.890625 116.183594 L 2260.890625 106.078125 C 2260.890625 95.972656 2260.992188 84 2264.058594 76.1875 C 2265.914062 71.601562 2268.542969 69.222656 2271.070312 69.222656 C 2277.003906 69.222656 2280.308594 80.261719 2281.015625 95.039062 C 2281.152344 99.878906 2281.152344 104.71875 2281.152344 109.558594 C 2281.152344 119.917969 2281.152344 131.722656 2278.554688 140.214844 C 2276.703125 146.074219 2273.9375 148.960938 2271.070312 148.960938 C 2265.308594 148.960938 2261.667969 137.921875 2261.058594 122.042969 C 2260.992188 120.089844 2260.992188 118.136719 2260.890625 116.183594 Z M 2260.890625 116.183594 "/>
<path style=" stroke:none;fill-rule:nonzero;fill:rgb(74.901961%,74.901961%,74.901961%);fill-opacity:1;" d="M 2293.015625 66.929688 L 2293.015625 72.535156 L 2294.800781 72.535156 C 2296.722656 72.535156 2298.511719 73.128906 2298.511719 78.734375 L 2298.511719 144.121094 C 2298.511719 146.839844 2297.804688 147.007812 2297.195312 147.007812 L 2293.015625 147.007812 L 2293.015625 152.699219 L 2311.050781 152.699219 L 2311.050781 147.007812 L 2306.90625 147.007812 C 2306.265625 147.007812 2305.589844 146.839844 2305.589844 144.546875 L 2305.589844 114.484375 C 2305.589844 111.171875 2305.488281 107.691406 2305.488281 104.378906 C 2305.488281 90.621094 2307.984375 69.816406 2315.605469 69.816406 C 2320.222656 69.816406 2320.355469 84.167969 2320.355469 91.726562 L 2320.355469 144.546875 C 2320.355469 146.839844 2319.683594 147.007812 2319.074219 147.007812 L 2314.894531 147.007812 L 2314.894531 152.699219 L 2332.933594 152.699219 L 2332.933594 147.007812 L 2328.785156 147.007812 C 2328.3125 146.839844 2327.605469 147.007812 2327.46875 145.480469 L 2327.46875 94.613281 C 2327.46875 88.074219 2327.371094 81.28125 2326.089844 75.675781 C 2324.066406 67.101562 2320.222656 65.316406 2316.582031 65.316406 C 2311.050781 65.316406 2306.128906 76.78125 2305.355469 89.605469 L 2305.289062 65.316406 L 2297.195312 66.335938 Z M 2293.015625 66.929688 "/>
<path style=" stroke:none;fill-rule:nonzero;fill:rgb(74.901961%,74.901961%,74.901961%);fill-opacity:1;" d="M 2358.492188 19.546875 L 2358.492188 25.152344 L 2360.28125 25.152344 C 2362.269531 25.152344 2363.988281 25.746094 2363.988281 31.945312 L 2363.988281 76.015625 C 2361.359375 69.394531 2358.121094 65.316406 2354.175781 65.316406 C 2349.1875 65.316406 2343.792969 70.414062 2340.726562 80.6875 C 2338.164062 89.007812 2337.253906 99.878906 2337.253906 109.984375 C 2337.253906 130.535156 2341.703125 153.800781 2353.335938 153.800781 C 2357.515625 153.800781 2360.953125 149.386719 2363.820312 142.167969 L 2363.820312 153.800781 L 2376.359375 153.800781 L 2376.359375 147.007812 L 2374.4375 147.007812 C 2372.519531 147.007812 2370.898438 146.5 2370.898438 140.214844 L 2370.898438 18.015625 L 2362.671875 18.953125 Z M 2344.636719 117.542969 L 2344.636719 107.4375 C 2344.636719 95.972656 2344.941406 82.808594 2348.882812 75.082031 C 2350.636719 71.601562 2352.898438 69.816406 2355.054688 69.816406 C 2358.257812 69.816406 2361.054688 73.46875 2363.210938 80.261719 C 2363.449219 81.28125 2363.753906 82.046875 2363.820312 83.234375 L 2363.820312 132.488281 C 2363.820312 133.847656 2363.820312 135.035156 2363.515625 136.140625 C 2361.425781 144.121094 2357.953125 149.386719 2354.277344 149.386719 C 2348.785156 149.386719 2345.648438 138.515625 2344.871094 124.929688 C 2344.804688 122.382812 2344.804688 120.089844 2344.636719 117.542969 Z M 2344.636719 117.542969 "/>
<path style=" stroke:none;fill-rule:nonzero;fill:rgb(74.901961%,74.901961%,74.901961%);fill-opacity:1;" d="M 2428.671875 122.128906 C 2429.683594 120.9375 2429.75 120.175781 2429.75 119.242188 C 2429.75 118.390625 2429.648438 117.457031 2428.671875 116.351562 L 2399.746094 82.808594 C 2399.070312 82.046875 2398.9375 81.875 2398.835938 81.875 C 2398.195312 81.875 2397.824219 83.234375 2397.824219 84.339844 C 2397.824219 85.953125 2398.261719 86.460938 2398.9375 87.3125 L 2426.445312 119.242188 L 2398.902344 151.253906 C 2397.824219 152.445312 2397.824219 153.378906 2397.824219 154.226562 C 2397.824219 155.332031 2398.195312 156.605469 2398.835938 156.605469 C 2398.9375 156.605469 2399.003906 156.519531 2399.746094 155.671875 Z M 2428.671875 122.128906 "/>
<path style=" stroke:none;fill-rule:nonzero;fill:rgb(74.901961%,74.901961%,74.901961%);fill-opacity:1;" d="M 2496.132812 121.871094 C 2497.042969 121.871094 2498.019531 121.871094 2498.019531 119.242188 C 2498.019531 116.523438 2497.042969 116.523438 2496.132812 116.523438 L 2467.207031 116.523438 C 2466.296875 116.523438 2465.351562 116.523438 2465.351562 119.242188 C 2465.351562 121.871094 2466.296875 121.871094 2467.207031 121.871094 Z M 2496.132812 121.871094 "/>
<path style=" stroke:none;fill-rule:nonzero;fill:rgb(74.901961%,74.901961%,74.901961%);fill-opacity:1;" d="M 2521.023438 37.804688 L 2521.023438 43.40625 C 2524.460938 43.40625 2527.933594 42.644531 2531.238281 39.925781 L 2531.238281 144.121094 L 2531.105469 146.246094 L 2530.328125 146.839844 L 2521.394531 146.839844 L 2521.394531 152.699219 L 2548.265625 152.699219 L 2548.265625 147.007812 L 2540.039062 147.007812 C 2539.195312 147.007812 2538.488281 146.667969 2538.488281 144.292969 L 2538.488281 27.867188 C 2538.488281 26.933594 2538.488281 25.40625 2537.949219 25.40625 C 2536.800781 25.40625 2535.417969 29.480469 2534.171875 31.011719 C 2530.160156 36.445312 2525.542969 37.804688 2521.023438 37.804688 Z M 2521.023438 37.804688 "/>
<path style=" stroke:none;fill-rule:nonzero;fill:rgb(74.901961%,74.901961%,74.901961%);fill-opacity:1;" d="M 2587.636719 7.316406 C 2586.792969 8.082031 2586.253906 13.773438 2585.882812 16.660156 C 2576.714844 74.65625 2568.453125 133.25 2559.285156 191.082031 L 2558.609375 195.921875 C 2558.441406 196.6875 2558.304688 197.703125 2558.207031 198.640625 C 2558.207031 199.828125 2558.609375 201.015625 2559.046875 201.015625 L 2559.214844 201.015625 C 2559.757812 200.761719 2559.992188 199.65625 2560.128906 198.46875 L 2561.308594 190.910156 C 2570.003906 132.316406 2578.9375 74.0625 2587.941406 15.726562 L 2588.480469 11.988281 C 2588.582031 11.222656 2588.785156 10.460938 2588.785156 9.441406 C 2588.785156 8.082031 2588.34375 7.316406 2587.871094 7.316406 Z M 2587.636719 7.316406 "/>
<path style=" stroke:none;fill-rule:nonzero;fill:rgb(74.901961%,74.901961%,74.901961%);fill-opacity:1;" d="M 2615.992188 165.609375 C 2617.679688 165.609375 2617.714844 165.4375 2618.253906 162.890625 L 2647.515625 9.101562 C 2647.886719 7.320312 2647.886719 7.066406 2647.886719 6.640625 C 2647.886719 5.195312 2647.449219 4.007812 2646.808594 4.007812 C 2646.101562 4.007812 2645.898438 5.195312 2645.628906 6.640625 L 2618.050781 151.597656 L 2606.65625 84.765625 L 2599.203125 99.203125 L 2600.015625 101.324219 L 2603.824219 94.105469 Z M 2615.992188 165.609375 "/>
<path style="fill:none;stroke-width:9.99;stroke-linecap:butt;stroke-linejoin:miter;stroke:rgb(74.901961%,74.901961%,74.901961%);stroke-opacity:1;stroke-miterlimit:10;" d="M 12267.111771 357.774063 L 12450.108687 357.774063 " transform="matrix(0.215765,0,0,-0.543478,0.000000000000392475,201.086957)"/>
<path style=" stroke:none;fill-rule:nonzero;fill:rgb(74.901961%,74.901961%,74.901961%);fill-opacity:1;" d="M 2653.117188 50.203125 C 2654.90625 38.398438 2659.152344 31.011719 2663.839844 31.011719 C 2670.3125 31.011719 2674.558594 45.359375 2674.558594 61.070312 L 2674.558594 63.195312 C 2674.089844 81.113281 2669.300781 95.207031 2664.75 108.03125 C 2660.90625 118.902344 2656.996094 129.941406 2653.117188 140.808594 L 2651.667969 144.886719 C 2651.0625 146.5 2650.65625 147.601562 2650.65625 149.726562 C 2650.65625 150.746094 2650.757812 151.679688 2650.757812 152.699219 L 2680.492188 152.699219 L 2682.246094 115.25 L 2680.257812 115.25 C 2679.851562 122.808594 2679.953125 133.421875 2677.019531 133.421875 C 2675.097656 134.015625 2673.078125 134.269531 2671.15625 134.269531 C 2669.164062 134.269531 2667.242188 134.015625 2665.289062 134.015625 L 2657.667969 134.015625 C 2661.074219 126.117188 2664.378906 117.542969 2667.917969 109.984375 L 2672.539062 100.046875 C 2677.324219 89.773438 2682.246094 78.5625 2682.246094 60.902344 L 2682.246094 58.949219 C 2681.472656 37.210938 2674.019531 25.40625 2665.761719 25.40625 C 2658.511719 25.40625 2650.757812 37.972656 2650.757812 58.949219 C 2650.757812 65.742188 2652.511719 69.394531 2654.667969 69.394531 C 2656.589844 69.394531 2658.613281 65.910156 2658.613281 59.710938 C 2658.613281 54.109375 2656.996094 49.605469 2654.738281 49.605469 C 2654.195312 49.605469 2653.65625 49.863281 2653.117188 50.203125 Z M 2653.117188 50.203125 "/>
<path style=" stroke:none;fill-rule:nonzero;fill:rgb(74.901961%,74.901961%,74.901961%);fill-opacity:1;" d="M 2717.742188 56.742188 C 2717.742188 54.277344 2717.742188 51.898438 2716.664062 51.898438 C 2715.617188 51.898438 2715.617188 54.277344 2715.617188 56.742188 L 2715.617188 181.65625 C 2715.617188 184.117188 2715.617188 186.496094 2716.664062 186.496094 C 2717.742188 186.496094 2717.742188 184.117188 2717.742188 181.65625 Z M 2717.742188 56.742188 "/>
<path style=" stroke:none;fill-rule:nonzero;fill:rgb(74.901961%,74.901961%,74.901961%);fill-opacity:1;" d="M 2737.890625 64.808594 C 2732.429688 66.167969 2726.730469 71.347656 2726.730469 89.265625 C 2726.730469 106.503906 2733.339844 112.703125 2739.136719 115.25 C 2742.375 116.777344 2748.207031 119.324219 2748.207031 132.914062 C 2748.207031 144.886719 2744.058594 149.386719 2739.878906 149.386719 C 2734.585938 149.386719 2730.035156 140.640625 2728.890625 122.808594 C 2728.652344 120.855469 2728.585938 120.429688 2727.640625 120.429688 C 2726.796875 120.429688 2726.730469 121.023438 2726.730469 122.382812 L 2726.730469 151.933594 C 2726.730469 152.699219 2726.796875 153.632812 2727.101562 153.632812 L 2727.269531 153.632812 C 2728.25 153.632812 2730.035156 146.074219 2730.878906 145.480469 L 2730.945312 145.480469 C 2731.585938 145.480469 2733.339844 150.320312 2735.023438 151.933594 C 2736.574219 153.292969 2738.195312 153.800781 2739.8125 153.800781 C 2746.453125 153.800781 2752.523438 146.074219 2752.523438 127.054688 C 2752.523438 113.464844 2748.613281 102.765625 2743.351562 99.710938 C 2738.800781 96.820312 2731.046875 96.566406 2731.046875 82.808594 C 2731.046875 71.175781 2736.035156 69.054688 2739.136719 69.054688 C 2744.058594 69.054688 2747.429688 74.320312 2748.511719 90.199219 C 2748.511719 91.726562 2748.679688 92.914062 2749.453125 92.914062 C 2750.0625 92.914062 2750.53125 92.492188 2750.53125 90.960938 L 2750.53125 66.675781 C 2750.53125 65.742188 2750.433594 64.976562 2749.992188 64.976562 C 2748.980469 64.976562 2747.734375 70.242188 2746.992188 70.242188 C 2746.453125 70.242188 2745.070312 67.695312 2744.128906 66.675781 C 2742.507812 65.316406 2740.824219 64.554688 2739.136719 64.554688 C 2738.734375 64.554688 2738.261719 64.808594 2737.890625 64.808594 Z M 2737.890625 64.808594 "/>
<path style=" stroke:none;fill-rule:nonzero;fill:rgb(74.901961%,74.901961%,74.901961%);fill-opacity:1;" d="M 2784.421875 141.0625 L 2784.421875 181.230469 L 2784.1875 184.117188 L 2782.738281 184.710938 L 2778.960938 184.710938 L 2778.960938 190.316406 L 2796.964844 190.316406 L 2796.964844 184.710938 L 2792.984375 184.710938 C 2792.34375 184.289062 2791.503906 184.882812 2791.503906 182.164062 L 2791.503906 65.316406 L 2789.75 65.742188 L 2785.433594 83.234375 C 2783.175781 73.128906 2779.734375 65.316406 2774.710938 65.316406 C 2765.777344 65.316406 2757.855469 80.6875 2757.855469 109.984375 C 2757.855469 132.316406 2763.148438 153.800781 2774.039062 153.800781 C 2778.253906 153.800781 2781.726562 148.960938 2784.421875 141.0625 Z M 2765.238281 113.636719 L 2765.238281 111.171875 C 2765.238281 95.632812 2767.09375 69.988281 2775.792969 69.988281 C 2780.578125 69.988281 2784.65625 82.808594 2784.65625 94.105469 C 2784.65625 96.398438 2784.589844 98.691406 2784.589844 101.066406 L 2784.589844 130.535156 C 2784.589844 132.65625 2784.253906 133.847656 2783.882812 135.628906 C 2782.027344 143.1875 2778.726562 149.386719 2775.183594 149.386719 C 2769.25 149.386719 2766.386719 134.609375 2765.542969 121.789062 C 2765.40625 119.070312 2765.40625 116.351562 2765.238281 113.636719 Z M 2765.238281 113.636719 "/>
<path style=" stroke:none;fill-rule:nonzero;fill:rgb(74.901961%,74.901961%,74.901961%);fill-opacity:1;" d="M 2799.128906 66.929688 L 2799.128906 72.535156 L 2801.046875 72.535156 C 2802.601562 72.535156 2804.453125 72.960938 2804.621094 77.375 L 2804.621094 127.476562 C 2804.621094 133.25 2804.757812 138.855469 2806.003906 143.953125 C 2808.0625 152.273438 2812.847656 154.058594 2816.253906 154.058594 C 2820.535156 154.058594 2825.1875 148.199219 2826.570312 134.441406 L 2826.636719 153.800781 L 2839.042969 153.800781 L 2839.042969 147.007812 L 2837.257812 147.007812 C 2835.335938 147.007812 2833.582031 146.5 2833.582031 140.640625 L 2833.582031 65.316406 L 2821.007812 66.929688 L 2821.007812 72.535156 L 2822.625 72.535156 C 2824.714844 72.535156 2826.46875 73.128906 2826.46875 78.902344 L 2826.46875 123.742188 C 2826.03125 135.628906 2823.46875 149.386719 2817.703125 149.386719 C 2814.835938 149.386719 2812.140625 148.792969 2811.769531 137.15625 C 2811.703125 133.082031 2811.703125 129.175781 2811.703125 125.101562 L 2811.703125 65.316406 L 2803.375 66.335938 Z M 2799.128906 66.929688 "/>
<path style=" stroke:none;fill-rule:nonzero;fill:rgb(74.901961%,74.901961%,74.901961%);fill-opacity:1;" d="M 2849.433594 78.902344 C 2851.589844 72.960938 2854.523438 69.222656 2857.828125 69.222656 C 2863.15625 69.222656 2865.683594 80.6875 2865.683594 95.464844 C 2865.683594 98.519531 2865.617188 101.40625 2865.617188 104.378906 C 2856.984375 104.378906 2843.601562 109.984375 2843.601562 134.441406 C 2843.601562 148.792969 2850.578125 153.800781 2855.601562 153.800781 C 2859.683594 153.800781 2865.007812 147.601562 2865.988281 135.375 L 2866.089844 135.375 C 2866.089844 146.667969 2869.324219 153.292969 2873.167969 153.292969 C 2876.472656 153.292969 2879.167969 147.261719 2879.640625 139.109375 L 2879.640625 124.929688 L 2877.652344 124.929688 L 2877.652344 134.609375 C 2877.652344 139.28125 2877.316406 146.074219 2875.089844 146.074219 C 2872.863281 146.074219 2872.695312 138.347656 2872.695312 134.441406 L 2872.695312 91.386719 C 2872.019531 71.601562 2864.605469 64.808594 2858.46875 64.808594 C 2853.511719 64.808594 2846.296875 71.347656 2846.296875 87.480469 C 2846.296875 93.339844 2847.746094 97.160156 2849.972656 97.160156 C 2852.0625 97.160156 2853.613281 93.085938 2853.613281 87.90625 C 2853.613281 82.808594 2852.0625 78.734375 2850.039062 78.734375 C 2849.839844 78.734375 2849.667969 78.902344 2849.433594 78.902344 Z M 2865.617188 107.4375 L 2865.617188 125.355469 C 2865.617188 137.328125 2862.617188 148.960938 2857.457031 149.386719 L 2857.152344 149.386719 C 2853.816406 149.386719 2850.679688 142.933594 2850.679688 134.269531 L 2850.679688 133.847656 C 2850.679688 114.996094 2858.839844 108.457031 2865.617188 107.4375 Z M 2865.617188 107.4375 "/>
<path style=" stroke:none;fill-rule:nonzero;fill:rgb(74.901961%,74.901961%,74.901961%);fill-opacity:1;" d="M 2882.164062 66.929688 L 2882.164062 72.535156 L 2883.953125 72.535156 C 2885.875 72.535156 2887.660156 73.128906 2887.660156 78.734375 L 2887.660156 144.121094 C 2887.660156 146.839844 2886.953125 147.007812 2886.347656 147.007812 L 2882.164062 147.007812 L 2882.164062 152.699219 L 2901.347656 152.699219 L 2901.347656 147.007812 L 2896.054688 147.007812 C 2895.28125 147.007812 2894.570312 147.007812 2894.570312 144.546875 L 2894.570312 125.101562 C 2894.570312 120.683594 2894.503906 116.011719 2894.503906 111.511719 C 2894.503906 95.464844 2895.515625 69.816406 2903.136719 69.816406 C 2903.4375 69.816406 2903.808594 69.988281 2904.144531 69.988281 L 2904.144531 70.242188 C 2902.765625 71.601562 2902.054688 75.082031 2902.054688 78.5625 C 2902.054688 83.574219 2903.605469 87.652344 2905.597656 87.652344 C 2907.988281 87.652344 2909.304688 83.234375 2909.304688 78.5625 C 2909.304688 70.242188 2906.066406 65.316406 2903.136719 65.316406 C 2897.976562 65.316406 2894.808594 78.394531 2894.335938 89.773438 L 2894.269531 65.316406 L 2886.277344 66.335938 Z M 2882.164062 66.929688 "/>
<path style=" stroke:none;fill-rule:nonzero;fill:rgb(74.901961%,74.901961%,74.901961%);fill-opacity:1;" d="M 2921.070312 107.4375 L 2943.050781 107.4375 C 2943.1875 107.4375 2943.589844 107.691406 2943.894531 107.691406 C 2944.5 107.691406 2944.804688 107.097656 2944.804688 105.738281 L 2944.804688 104.71875 C 2944.804688 94.613281 2943.960938 83.828125 2941.265625 75.675781 C 2938.636719 67.695312 2934.554688 64.808594 2930.542969 64.808594 C 2919.316406 64.808594 2913.6875 85.953125 2913.6875 109.050781 C 2913.6875 120.855469 2915.070312 132.65625 2918.375 141.402344 C 2921.847656 150.320312 2926.769531 153.800781 2931.554688 153.800781 L 2931.960938 153.800781 C 2937.320312 153.632812 2942.511719 145.308594 2944.5 132.316406 C 2944.570312 131.722656 2944.738281 130.960938 2944.738281 130.195312 C 2944.738281 129.429688 2944.5 128.835938 2944.199219 128.835938 L 2943.792969 128.835938 C 2942.511719 128.835938 2942.175781 133.847656 2941.570312 136.5625 C 2939.648438 144.292969 2936.34375 149.214844 2932.703125 149.214844 C 2922.082031 149.214844 2921.070312 124.929688 2921.070312 107.4375 Z M 2921.070312 103.785156 C 2921.070312 88.667969 2922.992188 69.222656 2930.242188 69.222656 C 2936.714844 69.222656 2938.265625 89.007812 2938.265625 103.785156 Z M 2921.070312 103.785156 "/>
<path style=" stroke:none;fill-rule:nonzero;fill:rgb(74.901961%,74.901961%,74.901961%);fill-opacity:1;" d="M 2997.175781 122.128906 C 2998.1875 120.9375 2998.253906 120.175781 2998.253906 119.242188 C 2998.253906 118.390625 2998.152344 117.457031 2997.175781 116.351562 L 2968.25 82.808594 C 2967.574219 82.046875 2967.4375 81.875 2967.339844 81.875 C 2966.699219 81.875 2966.328125 83.234375 2966.328125 84.339844 C 2966.328125 85.953125 2966.765625 86.460938 2967.4375 87.3125 L 2994.949219 119.242188 L 2967.40625 151.253906 C 2966.328125 152.445312 2966.328125 153.378906 2966.328125 154.226562 C 2966.328125 155.332031 2966.699219 156.605469 2967.339844 156.605469 C 2967.4375 156.605469 2967.507812 156.519531 2968.25 155.671875 Z M 2997.175781 122.128906 "/>
</g>
</svg>
