<?xml version="1.0" encoding="UTF-8"?>
<svg xmlns="http://www.w3.org/2000/svg" xmlns:xlink="http://www.w3.org/1999/xlink" width="1000px" height="250px" viewBox="0 0 1000 250" version="1.1">
<g id="surface1">
<path style=" stroke:none;fill-rule:nonzero;fill:rgb(74.901961%,74.901961%,74.901961%);fill-opacity:1;" d="M 1.488281 50.589844 L 4.539062 50.589844 L 4.539062 2.753906 L 16.261719 2.753906 L 16.261719 0.835938 L 1.488281 0.835938 Z M 1.488281 50.589844 "/>
<path style=" stroke:none;fill-rule:nonzero;fill:rgb(74.901961%,74.901961%,74.901961%);fill-opacity:1;" d="M 1.488281 67.222656 L 4.539062 67.222656 L 4.539062 50.570312 L 1.488281 50.570312 Z M 1.488281 67.222656 "/>
<path style=" stroke:none;fill-rule:nonzero;fill:rgb(74.901961%,74.901961%,74.901961%);fill-opacity:1;" d="M 1.488281 83.816406 L 4.539062 83.816406 L 4.539062 67.164062 L 1.488281 67.164062 Z M 1.488281 83.816406 "/>
<path style=" stroke:none;fill-rule:nonzero;fill:rgb(74.901961%,74.901961%,74.901961%);fill-opacity:1;" d="M 1.488281 100.421875 L 4.539062 100.421875 L 4.539062 83.765625 L 1.488281 83.765625 Z M 1.488281 100.421875 "/>
<path style=" stroke:none;fill-rule:nonzero;fill:rgb(74.901961%,74.901961%,74.901961%);fill-opacity:1;" d="M 1.488281 117.015625 L 4.539062 117.015625 L 4.539062 100.359375 L 1.488281 100.359375 Z M 1.488281 117.015625 "/>
<path style=" stroke:none;fill-rule:nonzero;fill:rgb(74.901961%,74.901961%,74.901961%);fill-opacity:1;" d="M 1.488281 133.617188 L 4.539062 133.617188 L 4.539062 116.964844 L 1.488281 116.964844 Z M 1.488281 133.617188 "/>
<path style=" stroke:none;fill-rule:nonzero;fill:rgb(74.901961%,74.901961%,74.901961%);fill-opacity:1;" d="M 1.488281 150.210938 L 4.539062 150.210938 L 4.539062 133.558594 L 1.488281 133.558594 Z M 1.488281 150.210938 "/>
<path style=" stroke:none;fill-rule:nonzero;fill:rgb(74.901961%,74.901961%,74.901961%);fill-opacity:1;" d="M 1.488281 166.816406 L 4.539062 166.816406 L 4.539062 150.160156 L 1.488281 150.160156 Z M 1.488281 166.816406 "/>
<path style=" stroke:none;fill-rule:nonzero;fill:rgb(74.901961%,74.901961%,74.901961%);fill-opacity:1;" d="M 1.488281 183.410156 L 4.539062 183.410156 L 4.539062 166.753906 L 1.488281 166.753906 Z M 1.488281 183.410156 "/>
<path style=" stroke:none;fill-rule:nonzero;fill:rgb(74.901961%,74.901961%,74.901961%);fill-opacity:1;" d="M 1.488281 200.011719 L 4.539062 200.011719 L 4.539062 183.359375 L 1.488281 183.359375 Z M 1.488281 200.011719 "/>
<path style=" stroke:none;fill-rule:nonzero;fill:rgb(74.901961%,74.901961%,74.901961%);fill-opacity:1;" d="M 1.488281 249.746094 L 16.261719 249.746094 L 16.261719 247.828125 L 4.539062 247.828125 L 4.539062 199.992188 L 1.488281 199.992188 Z M 1.488281 249.746094 "/>
<path style=" stroke:none;fill-rule:nonzero;fill:rgb(74.901961%,74.901961%,74.901961%);fill-opacity:1;" d="M 43.964844 65.503906 L 43.964844 66.65625 C 46.820312 66.65625 49.703125 66.5 52.445312 65.941406 L 52.445312 87.339844 L 52.332031 87.773438 L 51.6875 87.898438 L 44.273438 87.898438 L 44.273438 89.101562 L 66.574219 89.101562 L 66.574219 87.933594 L 59.746094 87.933594 C 59.046875 87.933594 58.460938 87.863281 58.460938 87.375 L 58.460938 63.464844 C 58.460938 63.273438 58.460938 62.960938 58.011719 62.960938 C 57.058594 62.960938 55.914062 63.796875 54.878906 64.109375 C 51.546875 65.226562 47.714844 65.503906 43.964844 65.503906 Z M 43.964844 65.503906 "/>
<path style=" stroke:none;fill-rule:nonzero;fill:rgb(74.901961%,74.901961%,74.901961%);fill-opacity:1;" d="M 254.242188 62.960938 C 241.902344 63.796875 241.453125 71.398438 241.453125 76.789062 C 241.453125 81.566406 242.292969 89.570312 255.332031 89.570312 C 264.984375 89.570312 269.015625 84.269531 269.015625 77.660156 L 269.015625 75.339844 C 269.015625 69.96875 266.859375 62.90625 255.417969 62.90625 C 255.023438 62.90625 254.632812 62.90625 254.242188 62.960938 Z M 247.609375 78.847656 C 247.523438 78.53125 247.523438 78.21875 247.523438 77.90625 C 247.523438 75.464844 247.523438 73.039062 247.804688 70.597656 C 247.917969 69.046875 248.113281 67.300781 249.457031 65.941406 C 250.800781 64.667969 253.039062 63.917969 255.332031 63.917969 C 262.300781 63.917969 262.886719 69.097656 262.886719 73.039062 L 262.886719 75.339844 C 262.886719 76.457031 262.941406 77.695312 262.941406 78.96875 C 262.941406 81.566406 262.691406 84.269531 261.292969 86.152344 C 260.0625 87.546875 257.765625 88.664062 255.21875 88.664062 L 255.082031 88.664062 C 251.050781 88.664062 248.757812 86.1875 248.253906 83.992188 C 247.722656 82.28125 247.859375 80.574219 247.609375 78.847656 Z M 247.609375 78.847656 "/>
<path style=" stroke:none;fill-rule:nonzero;fill:rgb(74.901961%,74.901961%,74.901961%);fill-opacity:1;" d="M 63.3125 183.496094 C 50.972656 184.332031 50.523438 191.9375 50.523438 197.324219 C 50.523438 202.101562 51.363281 210.105469 64.402344 210.105469 C 74.058594 210.105469 78.085938 204.804688 78.085938 198.195312 L 78.085938 195.875 C 78.085938 190.503906 75.933594 183.441406 64.488281 183.441406 C 64.097656 183.441406 63.703125 183.441406 63.3125 183.496094 Z M 56.679688 199.382812 C 56.597656 199.066406 56.597656 198.753906 56.597656 198.441406 C 56.597656 196 56.597656 193.574219 56.875 191.132812 C 56.988281 189.582031 57.183594 187.835938 58.527344 186.476562 C 59.871094 185.203125 62.109375 184.453125 64.402344 184.453125 C 71.371094 184.453125 71.957031 189.632812 71.957031 193.574219 L 71.957031 195.875 C 71.957031 196.992188 72.015625 198.230469 72.015625 199.503906 C 72.015625 202.101562 71.761719 204.804688 70.363281 206.6875 C 69.132812 208.082031 66.839844 209.199219 64.292969 209.199219 L 64.152344 209.199219 C 60.121094 209.199219 57.828125 206.722656 57.324219 204.527344 C 56.792969 202.816406 56.933594 201.109375 56.679688 199.382812 Z M 56.679688 199.382812 "/>
<path style=" stroke:none;fill-rule:nonzero;fill:rgb(74.901961%,74.901961%,74.901961%);fill-opacity:1;" d="M 228.679688 199.277344 L 228.679688 202.257812 L 246.140625 202.257812 L 246.140625 199.277344 Z M 228.679688 199.277344 "/>
<path style=" stroke:none;fill-rule:nonzero;fill:rgb(74.901961%,74.901961%,74.901961%);fill-opacity:1;" d="M 255.351562 186.042969 L 255.351562 187.191406 C 258.207031 187.191406 261.089844 187.035156 263.832031 186.476562 L 263.832031 207.875 L 263.71875 208.3125 L 263.074219 208.433594 L 255.660156 208.433594 L 255.660156 209.636719 L 277.960938 209.636719 L 277.960938 208.46875 L 271.132812 208.46875 C 270.433594 208.46875 269.847656 208.398438 269.847656 207.910156 L 269.847656 184 C 269.847656 183.808594 269.847656 183.496094 269.398438 183.496094 C 268.449219 183.496094 267.300781 184.332031 266.265625 184.644531 C 262.9375 185.761719 259.101562 186.042969 255.351562 186.042969 Z M 255.351562 186.042969 "/>
<path style=" stroke:none;fill-rule:nonzero;fill:rgb(74.901961%,74.901961%,74.901961%);fill-opacity:1;" d="M 316.488281 50.589844 L 319.539062 50.589844 L 319.539062 0.835938 L 304.761719 0.835938 L 304.761719 2.753906 L 316.488281 2.753906 Z M 316.488281 50.589844 "/>
<path style=" stroke:none;fill-rule:nonzero;fill:rgb(74.901961%,74.901961%,74.901961%);fill-opacity:1;" d="M 316.488281 67.222656 L 319.539062 67.222656 L 319.539062 50.570312 L 316.488281 50.570312 Z M 316.488281 67.222656 "/>
<path style=" stroke:none;fill-rule:nonzero;fill:rgb(74.901961%,74.901961%,74.901961%);fill-opacity:1;" d="M 316.488281 83.816406 L 319.539062 83.816406 L 319.539062 67.164062 L 316.488281 67.164062 Z M 316.488281 83.816406 "/>
<path style=" stroke:none;fill-rule:nonzero;fill:rgb(74.901961%,74.901961%,74.901961%);fill-opacity:1;" d="M 316.488281 100.421875 L 319.539062 100.421875 L 319.539062 83.765625 L 316.488281 83.765625 Z M 316.488281 100.421875 "/>
<path style=" stroke:none;fill-rule:nonzero;fill:rgb(74.901961%,74.901961%,74.901961%);fill-opacity:1;" d="M 316.488281 117.015625 L 319.539062 117.015625 L 319.539062 100.359375 L 316.488281 100.359375 Z M 316.488281 117.015625 "/>
<path style=" stroke:none;fill-rule:nonzero;fill:rgb(74.901961%,74.901961%,74.901961%);fill-opacity:1;" d="M 316.488281 133.617188 L 319.539062 133.617188 L 319.539062 116.964844 L 316.488281 116.964844 Z M 316.488281 133.617188 "/>
<path style=" stroke:none;fill-rule:nonzero;fill:rgb(74.901961%,74.901961%,74.901961%);fill-opacity:1;" d="M 316.488281 150.210938 L 319.539062 150.210938 L 319.539062 133.558594 L 316.488281 133.558594 Z M 316.488281 150.210938 "/>
<path style=" stroke:none;fill-rule:nonzero;fill:rgb(74.901961%,74.901961%,74.901961%);fill-opacity:1;" d="M 316.488281 166.816406 L 319.539062 166.816406 L 319.539062 150.160156 L 316.488281 150.160156 Z M 316.488281 166.816406 "/>
<path style=" stroke:none;fill-rule:nonzero;fill:rgb(74.901961%,74.901961%,74.901961%);fill-opacity:1;" d="M 316.488281 183.410156 L 319.539062 183.410156 L 319.539062 166.753906 L 316.488281 166.753906 Z M 316.488281 183.410156 "/>
<path style=" stroke:none;fill-rule:nonzero;fill:rgb(74.901961%,74.901961%,74.901961%);fill-opacity:1;" d="M 316.488281 200.011719 L 319.539062 200.011719 L 319.539062 183.359375 L 316.488281 183.359375 Z M 316.488281 200.011719 "/>
<path style=" stroke:none;fill-rule:nonzero;fill:rgb(74.901961%,74.901961%,74.901961%);fill-opacity:1;" d="M 316.488281 247.828125 L 304.761719 247.828125 L 304.761719 249.746094 L 319.539062 249.746094 L 319.539062 199.996094 L 316.488281 199.996094 Z M 316.488281 247.828125 "/>
<path style=" stroke:none;fill-rule:nonzero;fill:rgb(74.901961%,74.901961%,74.901961%);fill-opacity:1;" d="M 355.910156 50.589844 L 358.960938 50.589844 L 358.960938 2.753906 L 370.6875 2.753906 L 370.6875 0.835938 L 355.910156 0.835938 Z M 355.910156 50.589844 "/>
<path style=" stroke:none;fill-rule:nonzero;fill:rgb(74.901961%,74.901961%,74.901961%);fill-opacity:1;" d="M 355.910156 67.222656 L 358.960938 67.222656 L 358.960938 50.570312 L 355.910156 50.570312 Z M 355.910156 67.222656 "/>
<path style=" stroke:none;fill-rule:nonzero;fill:rgb(74.901961%,74.901961%,74.901961%);fill-opacity:1;" d="M 355.910156 83.816406 L 358.960938 83.816406 L 358.960938 67.164062 L 355.910156 67.164062 Z M 355.910156 83.816406 "/>
<path style=" stroke:none;fill-rule:nonzero;fill:rgb(74.901961%,74.901961%,74.901961%);fill-opacity:1;" d="M 355.910156 100.421875 L 358.960938 100.421875 L 358.960938 83.765625 L 355.910156 83.765625 Z M 355.910156 100.421875 "/>
<path style=" stroke:none;fill-rule:nonzero;fill:rgb(74.901961%,74.901961%,74.901961%);fill-opacity:1;" d="M 355.910156 117.015625 L 358.960938 117.015625 L 358.960938 100.359375 L 355.910156 100.359375 Z M 355.910156 117.015625 "/>
<path style=" stroke:none;fill-rule:nonzero;fill:rgb(74.901961%,74.901961%,74.901961%);fill-opacity:1;" d="M 355.910156 133.617188 L 358.960938 133.617188 L 358.960938 116.964844 L 355.910156 116.964844 Z M 355.910156 133.617188 "/>
<path style=" stroke:none;fill-rule:nonzero;fill:rgb(74.901961%,74.901961%,74.901961%);fill-opacity:1;" d="M 355.910156 150.210938 L 358.960938 150.210938 L 358.960938 133.558594 L 355.910156 133.558594 Z M 355.910156 150.210938 "/>
<path style=" stroke:none;fill-rule:nonzero;fill:rgb(74.901961%,74.901961%,74.901961%);fill-opacity:1;" d="M 355.910156 166.816406 L 358.960938 166.816406 L 358.960938 150.164062 L 355.910156 150.164062 Z M 355.910156 166.816406 "/>
<path style=" stroke:none;fill-rule:nonzero;fill:rgb(74.901961%,74.901961%,74.901961%);fill-opacity:1;" d="M 355.910156 183.410156 L 358.960938 183.410156 L 358.960938 166.757812 L 355.910156 166.757812 Z M 355.910156 183.410156 "/>
<path style=" stroke:none;fill-rule:nonzero;fill:rgb(74.901961%,74.901961%,74.901961%);fill-opacity:1;" d="M 355.910156 200.011719 L 358.960938 200.011719 L 358.960938 183.359375 L 355.910156 183.359375 Z M 355.910156 200.011719 "/>
<path style=" stroke:none;fill-rule:nonzero;fill:rgb(74.901961%,74.901961%,74.901961%);fill-opacity:1;" d="M 355.910156 249.746094 L 370.6875 249.746094 L 370.6875 247.828125 L 358.960938 247.828125 L 358.960938 199.996094 L 355.910156 199.996094 Z M 355.910156 249.746094 "/>
<path style=" stroke:none;fill-rule:nonzero;fill:rgb(74.901961%,74.901961%,74.901961%);fill-opacity:1;" d="M 395.617188 65.507812 L 395.617188 66.65625 C 398.472656 66.65625 401.351562 66.5 404.09375 65.941406 L 404.09375 87.339844 L 403.984375 87.773438 L 403.339844 87.898438 L 395.925781 87.898438 L 395.925781 89.101562 L 418.226562 89.101562 L 418.226562 87.933594 L 411.398438 87.933594 C 410.699219 87.933594 410.109375 87.863281 410.109375 87.375 L 410.109375 63.464844 C 410.109375 63.273438 410.109375 62.960938 409.664062 62.960938 C 408.710938 62.960938 407.566406 63.796875 406.53125 64.109375 C 403.199219 65.226562 399.367188 65.507812 395.617188 65.507812 Z M 395.617188 65.507812 "/>
<path style=" stroke:none;fill-rule:nonzero;fill:rgb(74.901961%,74.901961%,74.901961%);fill-opacity:1;" d="M 450.90625 59.246094 C 450.207031 59.402344 449.757812 60.570312 449.449219 61.164062 C 441.839844 73.074219 434.984375 85.105469 427.371094 96.984375 L 426.8125 97.976562 C 426.671875 98.132812 426.5625 98.34375 426.476562 98.535156 C 426.476562 98.777344 426.8125 99.023438 427.175781 99.023438 L 427.316406 99.023438 C 427.765625 98.972656 427.960938 98.742188 428.074219 98.5 L 429.050781 96.949219 C 436.269531 84.914062 443.6875 72.953125 451.15625 60.972656 L 451.605469 60.203125 C 451.6875 60.046875 451.855469 59.890625 451.855469 59.679688 C 451.855469 59.402344 451.492188 59.246094 451.101562 59.246094 Z M 450.90625 59.246094 "/>
<path style=" stroke:none;fill-rule:nonzero;fill:rgb(74.901961%,74.901961%,74.901961%);fill-opacity:1;" d="M 474.425781 91.75 C 475.824219 91.75 475.851562 91.714844 476.300781 91.195312 L 500.589844 59.613281 C 500.898438 59.246094 500.898438 59.195312 500.898438 59.105469 C 500.898438 58.808594 500.53125 58.566406 500 58.566406 C 499.414062 58.566406 499.246094 58.808594 499.023438 59.105469 L 476.132812 88.875 L 466.675781 75.148438 L 460.492188 78.113281 L 461.164062 78.550781 L 464.324219 77.066406 Z M 474.425781 91.75 "/>
<path style="fill:none;stroke-width:9.99;stroke-linecap:butt;stroke-linejoin:miter;stroke:rgb(74.901961%,74.901961%,74.901961%);stroke-opacity:1;stroke-miterlimit:10;" d="M 2792.021812 1710.38 L 2975.028687 1710.38 " transform="matrix(0.179083,0,0,-0.111607,0,250)"/>
<path style=" stroke:none;fill-rule:nonzero;fill:rgb(74.901961%,74.901961%,74.901961%);fill-opacity:1;" d="M 505.242188 68.050781 C 506.722656 65.628906 510.25 64.109375 514.140625 64.109375 C 519.511719 64.109375 523.039062 67.058594 523.039062 70.285156 L 523.039062 70.71875 C 522.644531 74.398438 518.671875 77.292969 514.894531 79.925781 C 511.707031 82.160156 508.460938 84.425781 505.242188 86.660156 L 504.039062 87.496094 C 503.535156 87.828125 503.199219 88.054688 503.199219 88.488281 C 503.199219 88.699219 503.28125 88.890625 503.28125 89.101562 L 527.960938 89.101562 L 529.417969 81.410156 L 527.765625 81.410156 C 527.429688 82.960938 527.515625 85.140625 525.082031 85.140625 C 523.484375 85.265625 521.808594 85.316406 520.210938 85.316406 C 518.5625 85.316406 516.964844 85.265625 515.34375 85.265625 L 509.019531 85.265625 C 511.84375 83.640625 514.585938 81.878906 517.527344 80.328125 L 521.359375 78.289062 C 525.332031 76.179688 529.417969 73.875 529.417969 70.25 L 529.417969 69.847656 C 528.773438 65.382812 522.589844 62.960938 515.734375 62.960938 C 509.71875 62.960938 503.28125 65.539062 503.28125 69.847656 C 503.28125 71.242188 504.738281 71.992188 506.527344 71.992188 C 508.125 71.992188 509.800781 71.277344 509.800781 70.003906 C 509.800781 68.855469 508.460938 67.929688 506.585938 67.929688 C 506.136719 67.929688 505.6875 67.980469 505.242188 68.050781 Z M 505.242188 68.050781 "/>
<path style=" stroke:none;fill-rule:nonzero;fill:rgb(74.901961%,74.901961%,74.901961%);fill-opacity:1;" d="M 395.617188 186.042969 L 395.617188 187.191406 C 398.46875 187.191406 401.351562 187.035156 404.09375 186.476562 L 404.09375 207.875 L 403.984375 208.3125 L 403.339844 208.433594 L 395.925781 208.433594 L 395.925781 209.636719 L 418.226562 209.636719 L 418.226562 208.46875 L 411.398438 208.46875 C 410.699219 208.46875 410.109375 208.398438 410.109375 207.910156 L 410.109375 184 C 410.109375 183.808594 410.109375 183.496094 409.664062 183.496094 C 408.710938 183.496094 407.5625 184.332031 406.527344 184.644531 C 403.199219 185.761719 399.367188 186.042969 395.617188 186.042969 Z M 395.617188 186.042969 "/>
<path style=" stroke:none;fill-rule:nonzero;fill:rgb(74.901961%,74.901961%,74.901961%);fill-opacity:1;" d="M 450.90625 179.78125 C 450.207031 179.9375 449.757812 181.105469 449.449219 181.699219 C 441.839844 193.609375 434.984375 205.640625 427.371094 217.519531 L 426.8125 218.511719 C 426.671875 218.667969 426.5625 218.878906 426.476562 219.070312 C 426.476562 219.3125 426.8125 219.558594 427.175781 219.558594 L 427.316406 219.558594 C 427.765625 219.507812 427.960938 219.28125 428.070312 219.035156 L 429.050781 217.484375 C 436.269531 205.449219 443.683594 193.488281 451.15625 181.507812 L 451.605469 180.738281 C 451.6875 180.582031 451.855469 180.425781 451.855469 180.21875 C 451.855469 179.9375 451.492188 179.78125 451.101562 179.78125 Z M 450.90625 179.78125 "/>
<path style=" stroke:none;fill-rule:nonzero;fill:rgb(74.901961%,74.901961%,74.901961%);fill-opacity:1;" d="M 474.425781 212.285156 C 475.824219 212.285156 475.851562 212.253906 476.300781 211.730469 L 500.589844 180.148438 C 500.894531 179.78125 500.894531 179.730469 500.894531 179.640625 C 500.894531 179.34375 500.53125 179.101562 500 179.101562 C 499.414062 179.101562 499.246094 179.34375 499.019531 179.640625 L 476.132812 209.410156 L 466.675781 195.683594 L 460.492188 198.648438 L 461.160156 199.085938 L 464.324219 197.605469 Z M 474.425781 212.285156 "/>
<path style="fill:none;stroke-width:9.99;stroke-linecap:butt;stroke-linejoin:miter;stroke:rgb(74.901961%,74.901961%,74.901961%);stroke-opacity:1;stroke-miterlimit:10;" d="M 2792.021812 630.385 L 2975.028687 630.385 " transform="matrix(0.179083,0,0,-0.111607,0,250)"/>
<path style=" stroke:none;fill-rule:nonzero;fill:rgb(74.901961%,74.901961%,74.901961%);fill-opacity:1;" d="M 505.242188 188.585938 C 506.722656 186.164062 510.25 184.644531 514.140625 184.644531 C 519.511719 184.644531 523.039062 187.59375 523.039062 190.820312 L 523.039062 191.253906 C 522.644531 194.933594 518.671875 197.828125 514.894531 200.464844 C 511.707031 202.695312 508.460938 204.960938 505.242188 207.195312 L 504.039062 208.03125 C 503.535156 208.363281 503.199219 208.589844 503.199219 209.023438 C 503.199219 209.234375 503.28125 209.425781 503.28125 209.636719 L 527.960938 209.636719 L 529.417969 201.945312 L 527.765625 201.945312 C 527.429688 203.496094 527.515625 205.675781 525.082031 205.675781 C 523.484375 205.800781 521.808594 205.851562 520.210938 205.851562 C 518.5625 205.851562 516.964844 205.800781 515.34375 205.800781 L 509.019531 205.800781 C 511.84375 204.175781 514.585938 202.417969 517.527344 200.863281 L 521.359375 198.824219 C 525.332031 196.714844 529.417969 194.410156 529.417969 190.785156 L 529.417969 190.382812 C 528.773438 185.917969 522.589844 183.496094 515.734375 183.496094 C 509.71875 183.496094 503.28125 186.074219 503.28125 190.382812 C 503.28125 191.777344 504.738281 192.527344 506.527344 192.527344 C 508.125 192.527344 509.800781 191.8125 509.800781 190.539062 C 509.800781 189.390625 508.460938 188.464844 506.585938 188.464844 C 506.136719 188.464844 505.6875 188.515625 505.242188 188.585938 Z M 505.242188 188.585938 "/>
<path style=" stroke:none;fill-rule:nonzero;fill:rgb(74.901961%,74.901961%,74.901961%);fill-opacity:1;" d="M 566.648438 50.589844 L 569.695312 50.589844 L 569.695312 0.835938 L 554.921875 0.835938 L 554.921875 2.753906 L 566.648438 2.753906 Z M 566.648438 50.589844 "/>
<path style=" stroke:none;fill-rule:nonzero;fill:rgb(74.901961%,74.901961%,74.901961%);fill-opacity:1;" d="M 566.648438 67.222656 L 569.695312 67.222656 L 569.695312 50.570312 L 566.648438 50.570312 Z M 566.648438 67.222656 "/>
<path style=" stroke:none;fill-rule:nonzero;fill:rgb(74.901961%,74.901961%,74.901961%);fill-opacity:1;" d="M 566.648438 83.816406 L 569.695312 83.816406 L 569.695312 67.164062 L 566.648438 67.164062 Z M 566.648438 83.816406 "/>
<path style=" stroke:none;fill-rule:nonzero;fill:rgb(74.901961%,74.901961%,74.901961%);fill-opacity:1;" d="M 566.648438 100.421875 L 569.695312 100.421875 L 569.695312 83.765625 L 566.648438 83.765625 Z M 566.648438 100.421875 "/>
<path style=" stroke:none;fill-rule:nonzero;fill:rgb(74.901961%,74.901961%,74.901961%);fill-opacity:1;" d="M 566.648438 117.015625 L 569.695312 117.015625 L 569.695312 100.359375 L 566.648438 100.359375 Z M 566.648438 117.015625 "/>
<path style=" stroke:none;fill-rule:nonzero;fill:rgb(74.901961%,74.901961%,74.901961%);fill-opacity:1;" d="M 566.648438 133.617188 L 569.695312 133.617188 L 569.695312 116.964844 L 566.648438 116.964844 Z M 566.648438 133.617188 "/>
<path style=" stroke:none;fill-rule:nonzero;fill:rgb(74.901961%,74.901961%,74.901961%);fill-opacity:1;" d="M 566.648438 150.210938 L 569.695312 150.210938 L 569.695312 133.558594 L 566.648438 133.558594 Z M 566.648438 150.210938 "/>
<path style=" stroke:none;fill-rule:nonzero;fill:rgb(74.901961%,74.901961%,74.901961%);fill-opacity:1;" d="M 566.648438 166.816406 L 569.695312 166.816406 L 569.695312 150.160156 L 566.648438 150.160156 Z M 566.648438 166.816406 "/>
<path style=" stroke:none;fill-rule:nonzero;fill:rgb(74.901961%,74.901961%,74.901961%);fill-opacity:1;" d="M 566.648438 183.410156 L 569.695312 183.410156 L 569.695312 166.753906 L 566.648438 166.753906 Z M 566.648438 183.410156 "/>
<path style=" stroke:none;fill-rule:nonzero;fill:rgb(74.901961%,74.901961%,74.901961%);fill-opacity:1;" d="M 566.648438 200.011719 L 569.695312 200.011719 L 569.695312 183.359375 L 566.648438 183.359375 Z M 566.648438 200.011719 "/>
<path style=" stroke:none;fill-rule:nonzero;fill:rgb(74.901961%,74.901961%,74.901961%);fill-opacity:1;" d="M 566.648438 247.828125 L 554.921875 247.828125 L 554.921875 249.746094 L 569.695312 249.746094 L 569.695312 199.992188 L 566.648438 199.992188 Z M 566.648438 247.828125 "/>
<path style=" stroke:none;fill-rule:nonzero;fill:rgb(74.901961%,74.901961%,74.901961%);fill-opacity:1;" d="M 784.976562 50.589844 L 788.023438 50.589844 L 788.023438 2.753906 L 799.75 2.753906 L 799.75 0.835938 L 784.976562 0.835938 Z M 784.976562 50.589844 "/>
<path style=" stroke:none;fill-rule:nonzero;fill:rgb(74.901961%,74.901961%,74.901961%);fill-opacity:1;" d="M 784.976562 67.222656 L 788.023438 67.222656 L 788.023438 50.570312 L 784.976562 50.570312 Z M 784.976562 67.222656 "/>
<path style=" stroke:none;fill-rule:nonzero;fill:rgb(74.901961%,74.901961%,74.901961%);fill-opacity:1;" d="M 784.976562 83.816406 L 788.023438 83.816406 L 788.023438 67.164062 L 784.976562 67.164062 Z M 784.976562 83.816406 "/>
<path style=" stroke:none;fill-rule:nonzero;fill:rgb(74.901961%,74.901961%,74.901961%);fill-opacity:1;" d="M 784.976562 100.421875 L 788.023438 100.421875 L 788.023438 83.765625 L 784.976562 83.765625 Z M 784.976562 100.421875 "/>
<path style=" stroke:none;fill-rule:nonzero;fill:rgb(74.901961%,74.901961%,74.901961%);fill-opacity:1;" d="M 784.976562 117.015625 L 788.023438 117.015625 L 788.023438 100.359375 L 784.976562 100.359375 Z M 784.976562 117.015625 "/>
<path style=" stroke:none;fill-rule:nonzero;fill:rgb(74.901961%,74.901961%,74.901961%);fill-opacity:1;" d="M 784.976562 133.617188 L 788.023438 133.617188 L 788.023438 116.964844 L 784.976562 116.964844 Z M 784.976562 133.617188 "/>
<path style=" stroke:none;fill-rule:nonzero;fill:rgb(74.901961%,74.901961%,74.901961%);fill-opacity:1;" d="M 784.976562 150.210938 L 788.023438 150.210938 L 788.023438 133.558594 L 784.976562 133.558594 Z M 784.976562 150.210938 "/>
<path style=" stroke:none;fill-rule:nonzero;fill:rgb(74.901961%,74.901961%,74.901961%);fill-opacity:1;" d="M 784.976562 166.816406 L 788.023438 166.816406 L 788.023438 150.160156 L 784.976562 150.160156 Z M 784.976562 166.816406 "/>
<path style=" stroke:none;fill-rule:nonzero;fill:rgb(74.901961%,74.901961%,74.901961%);fill-opacity:1;" d="M 784.976562 183.410156 L 788.023438 183.410156 L 788.023438 166.753906 L 784.976562 166.753906 Z M 784.976562 183.410156 "/>
<path style=" stroke:none;fill-rule:nonzero;fill:rgb(74.901961%,74.901961%,74.901961%);fill-opacity:1;" d="M 784.976562 200.011719 L 788.023438 200.011719 L 788.023438 183.359375 L 784.976562 183.359375 Z M 784.976562 200.011719 "/>
<path style=" stroke:none;fill-rule:nonzero;fill:rgb(74.901961%,74.901961%,74.901961%);fill-opacity:1;" d="M 784.976562 249.746094 L 799.75 249.746094 L 799.75 247.828125 L 788.023438 247.828125 L 788.023438 199.992188 L 784.976562 199.992188 Z M 784.976562 249.746094 "/>
<path style=" stroke:none;fill-rule:nonzero;fill:rgb(74.901961%,74.901961%,74.901961%);fill-opacity:1;" d="M 824.664062 65.503906 L 824.664062 66.65625 C 827.515625 66.65625 830.398438 66.5 833.140625 65.941406 L 833.140625 87.339844 L 833.03125 87.773438 L 832.386719 87.898438 L 824.972656 87.898438 L 824.972656 89.101562 L 847.273438 89.101562 L 847.273438 87.933594 L 840.445312 87.933594 C 839.746094 87.933594 839.15625 87.863281 839.15625 87.375 L 839.15625 63.464844 C 839.15625 63.273438 839.15625 62.960938 838.710938 62.960938 C 837.757812 62.960938 836.613281 63.796875 835.578125 64.109375 C 832.246094 65.226562 828.414062 65.503906 824.664062 65.503906 Z M 824.664062 65.503906 "/>
<path style=" stroke:none;fill-rule:nonzero;fill:rgb(74.901961%,74.901961%,74.901961%);fill-opacity:1;" d="M 879.953125 59.246094 C 879.253906 59.402344 878.804688 60.570312 878.496094 61.164062 C 870.886719 73.074219 864.03125 85.105469 856.417969 96.984375 L 855.859375 97.976562 C 855.71875 98.132812 855.609375 98.34375 855.523438 98.535156 C 855.523438 98.777344 855.859375 99.023438 856.222656 99.023438 L 856.363281 99.023438 C 856.8125 98.96875 857.007812 98.742188 857.117188 98.5 L 858.097656 96.949219 C 865.316406 84.914062 872.734375 72.953125 880.203125 60.972656 L 880.652344 60.203125 C 880.734375 60.046875 880.902344 59.890625 880.902344 59.679688 C 880.902344 59.402344 880.539062 59.246094 880.148438 59.246094 Z M 879.953125 59.246094 "/>
<path style=" stroke:none;fill-rule:nonzero;fill:rgb(74.901961%,74.901961%,74.901961%);fill-opacity:1;" d="M 903.488281 91.75 C 904.886719 91.75 904.914062 91.714844 905.363281 91.191406 L 929.652344 59.613281 C 929.957031 59.246094 929.957031 59.191406 929.957031 59.105469 C 929.957031 58.808594 929.59375 58.566406 929.0625 58.566406 C 928.476562 58.566406 928.308594 58.808594 928.082031 59.105469 L 905.195312 88.875 L 895.738281 75.148438 L 889.554688 78.113281 L 890.226562 78.550781 L 893.386719 77.066406 Z M 903.488281 91.75 "/>
<path style="fill:none;stroke-width:9.99;stroke-linecap:butt;stroke-linejoin:miter;stroke:rgb(74.901961%,74.901961%,74.901961%);stroke-opacity:1;stroke-miterlimit:10;" d="M 5187.928625 1710.38 L 5370.891875 1710.38 " transform="matrix(0.179083,0,0,-0.111607,0,250)"/>
<path style=" stroke:none;fill-rule:nonzero;fill:rgb(74.901961%,74.901961%,74.901961%);fill-opacity:1;" d="M 934.304688 68.050781 C 935.789062 65.628906 939.3125 64.109375 943.203125 64.109375 C 948.574219 64.109375 952.101562 67.058594 952.101562 70.285156 L 952.101562 70.71875 C 951.710938 74.398438 947.734375 77.292969 943.957031 79.925781 C 940.769531 82.160156 937.523438 84.425781 934.304688 86.660156 L 933.101562 87.496094 C 932.597656 87.828125 932.261719 88.054688 932.261719 88.488281 C 932.261719 88.699219 932.347656 88.890625 932.347656 89.101562 L 957.027344 89.101562 L 958.480469 81.410156 L 956.832031 81.410156 C 956.496094 82.960938 956.578125 85.140625 954.144531 85.140625 C 952.550781 85.265625 950.871094 85.316406 949.273438 85.316406 C 947.625 85.316406 946.027344 85.265625 944.40625 85.265625 L 938.082031 85.265625 C 940.910156 83.640625 943.652344 81.878906 946.589844 80.328125 L 950.421875 78.289062 C 954.394531 76.179688 958.480469 73.875 958.480469 70.25 L 958.480469 69.847656 C 957.835938 65.382812 951.652344 62.960938 944.796875 62.960938 C 938.78125 62.960938 932.347656 65.539062 932.347656 69.847656 C 932.347656 71.242188 933.800781 71.992188 935.59375 71.992188 C 937.1875 71.992188 938.867188 71.277344 938.867188 70.003906 C 938.867188 68.855469 937.523438 67.929688 935.648438 67.929688 C 935.199219 67.929688 934.753906 67.980469 934.304688 68.050781 Z M 934.304688 68.050781 "/>
<path style=" stroke:none;fill-rule:nonzero;fill:rgb(74.901961%,74.901961%,74.901961%);fill-opacity:1;" d="M 824.664062 186.042969 L 824.664062 187.191406 C 827.519531 187.191406 830.398438 187.035156 833.140625 186.476562 L 833.140625 207.875 L 833.03125 208.3125 L 832.386719 208.433594 L 824.972656 208.433594 L 824.972656 209.636719 L 847.273438 209.636719 L 847.273438 208.46875 L 840.445312 208.46875 C 839.746094 208.46875 839.160156 208.398438 839.160156 207.910156 L 839.160156 184 C 839.160156 183.808594 839.160156 183.496094 838.710938 183.496094 C 837.757812 183.496094 836.613281 184.332031 835.578125 184.644531 C 832.246094 185.761719 828.414062 186.042969 824.664062 186.042969 Z M 824.664062 186.042969 "/>
<path style=" stroke:none;fill-rule:nonzero;fill:rgb(74.901961%,74.901961%,74.901961%);fill-opacity:1;" d="M 879.953125 179.78125 C 879.253906 179.9375 878.804688 181.105469 878.496094 181.699219 C 870.886719 193.609375 864.03125 205.640625 856.421875 217.519531 L 855.859375 218.511719 C 855.71875 218.667969 855.609375 218.878906 855.523438 219.070312 C 855.523438 219.3125 855.859375 219.558594 856.222656 219.558594 L 856.363281 219.558594 C 856.8125 219.507812 857.007812 219.28125 857.121094 219.035156 L 858.097656 217.484375 C 865.320312 205.449219 872.734375 193.488281 880.203125 181.507812 L 880.652344 180.738281 C 880.734375 180.582031 880.902344 180.425781 880.902344 180.21875 C 880.902344 179.9375 880.539062 179.78125 880.148438 179.78125 Z M 879.953125 179.78125 "/>
<path style=" stroke:none;fill-rule:nonzero;fill:rgb(74.901961%,74.901961%,74.901961%);fill-opacity:1;" d="M 903.488281 212.285156 C 904.886719 212.285156 904.914062 212.253906 905.363281 211.730469 L 929.652344 180.148438 C 929.960938 179.78125 929.960938 179.730469 929.960938 179.640625 C 929.960938 179.34375 929.59375 179.101562 929.0625 179.101562 C 928.476562 179.101562 928.308594 179.34375 928.085938 179.640625 L 905.195312 209.410156 L 895.738281 195.683594 L 889.554688 198.648438 L 890.226562 199.085938 L 893.386719 197.605469 Z M 903.488281 212.285156 "/>
<path style="fill:none;stroke-width:9.99;stroke-linecap:butt;stroke-linejoin:miter;stroke:rgb(74.901961%,74.901961%,74.901961%);stroke-opacity:1;stroke-miterlimit:10;" d="M 5187.928625 630.385 L 5370.891875 630.385 " transform="matrix(0.179083,0,0,-0.111607,0,250)"/>
<path style=" stroke:none;fill-rule:nonzero;fill:rgb(74.901961%,74.901961%,74.901961%);fill-opacity:1;" d="M 934.304688 188.585938 C 935.789062 186.164062 939.3125 184.644531 943.203125 184.644531 C 948.574219 184.644531 952.101562 187.59375 952.101562 190.820312 L 952.101562 191.253906 C 951.710938 194.933594 947.734375 197.828125 943.957031 200.464844 C 940.769531 202.695312 937.523438 204.960938 934.304688 207.195312 L 933.101562 208.03125 C 932.597656 208.363281 932.261719 208.589844 932.261719 209.023438 C 932.261719 209.234375 932.347656 209.425781 932.347656 209.636719 L 957.027344 209.636719 L 958.480469 201.945312 L 956.832031 201.945312 C 956.496094 203.496094 956.578125 205.675781 954.144531 205.675781 C 952.550781 205.800781 950.871094 205.851562 949.273438 205.851562 C 947.625 205.851562 946.027344 205.800781 944.40625 205.800781 L 938.082031 205.800781 C 940.910156 204.175781 943.652344 202.417969 946.589844 200.863281 L 950.421875 198.824219 C 954.394531 196.714844 958.480469 194.410156 958.480469 190.785156 L 958.480469 190.382812 C 957.835938 185.917969 951.652344 183.496094 944.796875 183.496094 C 938.78125 183.496094 932.347656 186.074219 932.347656 190.382812 C 932.347656 191.777344 933.800781 192.527344 935.59375 192.527344 C 937.1875 192.527344 938.867188 191.8125 938.867188 190.539062 C 938.867188 189.390625 937.523438 188.464844 935.648438 188.464844 C 935.199219 188.464844 934.753906 188.515625 934.304688 188.585938 Z M 934.304688 188.585938 "/>
<path style=" stroke:none;fill-rule:nonzero;fill:rgb(74.901961%,74.901961%,74.901961%);fill-opacity:1;" d="M 995.710938 50.589844 L 998.761719 50.589844 L 998.761719 0.835938 L 983.988281 0.835938 L 983.988281 2.753906 L 995.710938 2.753906 Z M 995.710938 50.589844 "/>
<path style=" stroke:none;fill-rule:nonzero;fill:rgb(74.901961%,74.901961%,74.901961%);fill-opacity:1;" d="M 995.710938 67.222656 L 998.761719 67.222656 L 998.761719 50.570312 L 995.710938 50.570312 Z M 995.710938 67.222656 "/>
<path style=" stroke:none;fill-rule:nonzero;fill:rgb(74.901961%,74.901961%,74.901961%);fill-opacity:1;" d="M 995.710938 83.816406 L 998.761719 83.816406 L 998.761719 67.164062 L 995.710938 67.164062 Z M 995.710938 83.816406 "/>
<path style=" stroke:none;fill-rule:nonzero;fill:rgb(74.901961%,74.901961%,74.901961%);fill-opacity:1;" d="M 995.710938 100.421875 L 998.761719 100.421875 L 998.761719 83.765625 L 995.710938 83.765625 Z M 995.710938 100.421875 "/>
<path style=" stroke:none;fill-rule:nonzero;fill:rgb(74.901961%,74.901961%,74.901961%);fill-opacity:1;" d="M 995.710938 117.015625 L 998.761719 117.015625 L 998.761719 100.359375 L 995.710938 100.359375 Z M 995.710938 117.015625 "/>
<path style=" stroke:none;fill-rule:nonzero;fill:rgb(74.901961%,74.901961%,74.901961%);fill-opacity:1;" d="M 995.710938 133.617188 L 998.761719 133.617188 L 998.761719 116.964844 L 995.710938 116.964844 Z M 995.710938 133.617188 "/>
<path style=" stroke:none;fill-rule:nonzero;fill:rgb(74.901961%,74.901961%,74.901961%);fill-opacity:1;" d="M 995.710938 150.210938 L 998.761719 150.210938 L 998.761719 133.558594 L 995.710938 133.558594 Z M 995.710938 150.210938 "/>
<path style=" stroke:none;fill-rule:nonzero;fill:rgb(74.901961%,74.901961%,74.901961%);fill-opacity:1;" d="M 995.710938 166.816406 L 998.761719 166.816406 L 998.761719 150.160156 L 995.710938 150.160156 Z M 995.710938 166.816406 "/>
<path style=" stroke:none;fill-rule:nonzero;fill:rgb(74.901961%,74.901961%,74.901961%);fill-opacity:1;" d="M 995.710938 183.410156 L 998.761719 183.410156 L 998.761719 166.753906 L 995.710938 166.753906 Z M 995.710938 183.410156 "/>
<path style=" stroke:none;fill-rule:nonzero;fill:rgb(74.901961%,74.901961%,74.901961%);fill-opacity:1;" d="M 995.710938 200.011719 L 998.761719 200.011719 L 998.761719 183.359375 L 995.710938 183.359375 Z M 995.710938 200.011719 "/>
<path style=" stroke:none;fill-rule:nonzero;fill:rgb(74.901961%,74.901961%,74.901961%);fill-opacity:1;" d="M 995.710938 247.828125 L 983.988281 247.828125 L 983.988281 249.746094 L 998.761719 249.746094 L 998.761719 199.992188 L 995.710938 199.992188 Z M 995.710938 247.828125 "/>
</g>
</svg>
