<?xml version="1.0" encoding="UTF-8" standalone="no"?>
<!-- Created with Inkscape (http://www.inkscape.org/) -->

<svg
   xmlns:dc="http://purl.org/dc/elements/1.1/"
   xmlns:cc="http://creativecommons.org/ns#"
   xmlns:rdf="http://www.w3.org/1999/02/22-rdf-syntax-ns#"
   xmlns:svg="http://www.w3.org/2000/svg"
   xmlns="http://www.w3.org/2000/svg"
   xmlns:sodipodi="http://sodipodi.sourceforge.net/DTD/sodipodi-0.dtd"
   xmlns:inkscape="http://www.inkscape.org/namespaces/inkscape"
   version="1.1"
   id="svg3739"
   xml:space="preserve"
   width="880"
   height="880"
   viewBox="0 0 880 880"
   sodipodi:docname="arrow-circles-pd-freesvg.org.svg"
   inkscape:version="0.92.4 (5da689c313, 2019-01-14)"><metadata
     id="metadata3745"><rdf:RDF><cc:Work
         rdf:about=""><dc:format>image/svg+xml</dc:format><dc:type
           rdf:resource="http://purl.org/dc/dcmitype/StillImage" /><dc:title /></cc:Work></rdf:RDF></metadata><defs
     id="defs3743"><clipPath
       clipPathUnits="userSpaceOnUse"
       id="clipPath3755"><path
         d="M 0,660 H 660 V 0 H 0 Z"
         id="path3753"
         inkscape:connector-curvature="0" /></clipPath></defs><sodipodi:namedview
     pagecolor="#ffffff"
     bordercolor="#666666"
     borderopacity="1"
     objecttolerance="10"
     gridtolerance="10"
     guidetolerance="10"
     inkscape:pageopacity="0"
     inkscape:pageshadow="2"
     inkscape:window-width="1920"
     inkscape:window-height="1018"
     id="namedview3741"
     showgrid="false"
     inkscape:zoom="0.58531199"
     inkscape:cx="500.45157"
     inkscape:cy="296.44068"
     inkscape:window-x="-8"
     inkscape:window-y="-8"
     inkscape:window-maximized="1"
     inkscape:current-layer="g3747" /><g
     id="g3747"
     inkscape:groupmode="layer"
     inkscape:label="arrow-circles-pd"
     transform="matrix(1.3333333,0,0,-1.3333333,0,880)"><g
       id="g3749"><g
         id="g3751"
         clip-path="url(#clipPath3755)"><path
           d="m 355.043,143.803 c 0,-13.329 -10.806,-24.136 -24.136,-24.136 -13.331,0 -24.136,10.807 -24.136,24.136 0,13.331 10.805,24.137 24.136,24.137 13.33,-0.001 24.136,-10.806 24.136,-24.137"
           style="fill:#231f20;fill-opacity:1;fill-rule:nonzero;stroke:none"
           id="path3757"
           inkscape:connector-curvature="0" /><path
           d="m 355.043,196.903 c 0,-13.33 -10.806,-24.136 -24.136,-24.136 -13.331,0.001 -24.136,10.806 -24.136,24.136 0,13.33 10.805,24.137 24.136,24.137 13.33,0 24.136,-10.807 24.136,-24.137"
           style="fill:#231f20;fill-opacity:1;fill-rule:nonzero;stroke:none"
           id="path3759"
           inkscape:connector-curvature="0" /><path
           d="m 408.144,196.903 c 0,-13.33 -10.806,-24.136 -24.137,-24.136 -13.33,0.001 -24.136,10.806 -24.136,24.136 0,13.33 10.806,24.137 24.136,24.137 13.331,0 24.137,-10.807 24.137,-24.137"
           style="fill:#231f20;fill-opacity:1;fill-rule:nonzero;stroke:none"
           id="path3761"
           inkscape:connector-curvature="0" /><path
           d="m 408.144,250.004 c 0,-13.331 -10.806,-24.137 -24.137,-24.137 -13.33,0.001 -24.136,10.806 -24.136,24.137 0,13.33 10.806,24.136 24.136,24.136 13.331,0 24.137,-10.806 24.137,-24.136"
           style="fill:#231f20;fill-opacity:1;fill-rule:nonzero;stroke:none"
           id="path3763"
           inkscape:connector-curvature="0" /><path
           d="m 461.244,250.004 c 0,-13.331 -10.806,-24.137 -24.136,-24.137 -13.331,0.001 -24.137,10.806 -24.137,24.137 0,13.33 10.806,24.136 24.137,24.136 13.33,0 24.136,-10.806 24.136,-24.136"
           style="fill:#231f20;fill-opacity:1;fill-rule:nonzero;stroke:none"
           id="path3765"
           inkscape:connector-curvature="0" /><path
           d="m 142.642,303.104 c 0.001,-13.331 -10.806,-24.136 -24.136,-24.136 -13.33,0 -24.137,10.805 -24.136,24.136 -0.001,13.331 10.806,24.136 24.136,24.136 13.33,-0.001 24.137,-10.805 24.136,-24.136"
           style="fill:#231f20;fill-opacity:1;fill-rule:nonzero;stroke:none"
           id="path3767"
           inkscape:connector-curvature="0" /><path
           d="m 195.743,303.104 c 0,-13.331 -10.806,-24.136 -24.137,-24.136 -13.33,0 -24.136,10.805 -24.136,24.136 0,13.331 10.806,24.136 24.136,24.136 13.331,-0.001 24.137,-10.805 24.137,-24.136"
           style="fill:#231f20;fill-opacity:1;fill-rule:nonzero;stroke:none"
           id="path3769"
           inkscape:connector-curvature="0" /><path
           d="m 248.842,303.104 c 10e-4,-13.331 -10.805,-24.136 -24.136,-24.136 -13.33,0 -24.136,10.805 -24.136,24.136 0,13.331 10.806,24.136 24.136,24.136 13.331,-0.001 24.137,-10.805 24.136,-24.136"
           style="fill:#231f20;fill-opacity:1;fill-rule:nonzero;stroke:none"
           id="path3771"
           inkscape:connector-curvature="0" /><path
           d="m 301.943,303.104 c 0,-13.331 -10.806,-24.136 -24.136,-24.136 -13.33,0 -24.137,10.805 -24.137,24.136 0,13.331 10.807,24.136 24.137,24.136 13.33,-0.001 24.136,-10.805 24.136,-24.136"
           style="fill:#231f20;fill-opacity:1;fill-rule:nonzero;stroke:none"
           id="path3773"
           inkscape:connector-curvature="0" /><path
           d="m 355.043,303.104 c 0,-13.331 -10.806,-24.136 -24.136,-24.136 -13.331,0 -24.136,10.805 -24.136,24.136 0,13.331 10.805,24.136 24.136,24.136 13.33,-0.001 24.136,-10.805 24.136,-24.136"
           style="fill:#231f20;fill-opacity:1;fill-rule:nonzero;stroke:none"
           id="path3775"
           inkscape:connector-curvature="0" /><path
           d="m 408.144,303.104 c 0,-13.331 -10.806,-24.136 -24.137,-24.136 -13.33,0 -24.136,10.805 -24.136,24.136 0,13.331 10.806,24.136 24.136,24.136 13.331,-0.001 24.137,-10.805 24.137,-24.136"
           style="fill:#231f20;fill-opacity:1;fill-rule:nonzero;stroke:none"
           id="path3777"
           inkscape:connector-curvature="0" /><path
           d="m 461.244,303.104 c 0,-13.331 -10.806,-24.136 -24.136,-24.136 -13.331,0 -24.137,10.805 -24.137,24.136 0,13.331 10.806,24.136 24.137,24.136 13.33,-0.001 24.136,-10.805 24.136,-24.136"
           style="fill:#231f20;fill-opacity:1;fill-rule:nonzero;stroke:none"
           id="path3779"
           inkscape:connector-curvature="0" /><path
           d="m 514.344,303.104 c 0,-13.331 -10.807,-24.136 -24.136,-24.136 -13.331,0 -24.137,10.805 -24.137,24.136 0,13.331 10.806,24.136 24.137,24.136 13.329,-0.001 24.136,-10.805 24.136,-24.136"
           style="fill:#231f20;fill-opacity:1;fill-rule:nonzero;stroke:none"
           id="path3781"
           inkscape:connector-curvature="0" /><path
           d="m 142.642,356.204 c 0.001,-13.33 -10.806,-24.137 -24.136,-24.137 -13.33,10e-4 -24.137,10.807 -24.136,24.138 -0.001,13.329 10.806,24.136 24.136,24.136 13.33,0 24.137,-10.807 24.136,-24.137"
           style="fill:#231f20;fill-opacity:1;fill-rule:nonzero;stroke:none"
           id="path3783"
           inkscape:connector-curvature="0" /><path
           d="m 195.743,356.204 c 0,-13.33 -10.806,-24.137 -24.137,-24.137 -13.33,10e-4 -24.136,10.807 -24.136,24.138 0,13.329 10.806,24.136 24.136,24.136 13.331,0 24.137,-10.807 24.137,-24.137"
           style="fill:#231f20;fill-opacity:1;fill-rule:nonzero;stroke:none"
           id="path3785"
           inkscape:connector-curvature="0" /><path
           d="m 248.842,356.204 c 10e-4,-13.33 -10.805,-24.137 -24.136,-24.137 -13.33,10e-4 -24.136,10.807 -24.136,24.138 0,13.329 10.806,24.136 24.136,24.136 13.331,0 24.137,-10.807 24.136,-24.137"
           style="fill:#231f20;fill-opacity:1;fill-rule:nonzero;stroke:none"
           id="path3787"
           inkscape:connector-curvature="0" /><path
           d="m 301.943,356.204 c 0,-13.33 -10.806,-24.137 -24.136,-24.137 -13.33,10e-4 -24.137,10.807 -24.137,24.138 0,13.329 10.807,24.136 24.137,24.136 13.33,0 24.136,-10.807 24.136,-24.137"
           style="fill:#231f20;fill-opacity:1;fill-rule:nonzero;stroke:none"
           id="path3789"
           inkscape:connector-curvature="0" /><path
           d="m 355.043,356.204 c 0,-13.33 -10.806,-24.137 -24.136,-24.137 -13.331,10e-4 -24.136,10.807 -24.136,24.138 0,13.329 10.805,24.136 24.136,24.136 13.33,0 24.136,-10.807 24.136,-24.137"
           style="fill:#231f20;fill-opacity:1;fill-rule:nonzero;stroke:none"
           id="path3791"
           inkscape:connector-curvature="0" /><path
           d="m 408.144,356.204 c 0,-13.33 -10.806,-24.137 -24.137,-24.137 -13.33,10e-4 -24.136,10.807 -24.136,24.138 0,13.329 10.806,24.136 24.136,24.136 13.331,0 24.137,-10.807 24.137,-24.137"
           style="fill:#231f20;fill-opacity:1;fill-rule:nonzero;stroke:none"
           id="path3793"
           inkscape:connector-curvature="0" /><path
           d="m 461.244,356.204 c 0,-13.33 -10.806,-24.137 -24.136,-24.137 -13.331,10e-4 -24.137,10.807 -24.137,24.138 0,13.329 10.806,24.136 24.137,24.136 13.33,0 24.136,-10.807 24.136,-24.137"
           style="fill:#231f20;fill-opacity:1;fill-rule:nonzero;stroke:none"
           id="path3795"
           inkscape:connector-curvature="0" /><path
           d="m 514.344,356.204 c 0,-13.33 -10.807,-24.137 -24.136,-24.137 -13.331,10e-4 -24.137,10.807 -24.137,24.138 0,13.329 10.806,24.136 24.137,24.136 13.329,0 24.136,-10.807 24.136,-24.137"
           style="fill:#231f20;fill-opacity:1;fill-rule:nonzero;stroke:none"
           id="path3797"
           inkscape:connector-curvature="0" /><path
           d="m 408.144,409.305 c 0,-13.331 -10.806,-24.137 -24.137,-24.137 -13.33,10e-4 -24.136,10.806 -24.136,24.137 0,13.33 10.806,24.135 24.136,24.135 13.331,0 24.137,-10.805 24.137,-24.135"
           style="fill:#231f20;fill-opacity:1;fill-rule:nonzero;stroke:none"
           id="path3799"
           inkscape:connector-curvature="0" /><path
           d="m 566.172,330.972 c 0,-13.33 -10.805,-24.137 -24.136,-24.137 -13.331,0.001 -24.136,10.807 -24.136,24.137 0,13.33 10.805,24.136 24.136,24.136 13.331,0 24.136,-10.806 24.136,-24.136"
           style="fill:#231f20;fill-opacity:1;fill-rule:nonzero;stroke:none"
           id="path3801"
           inkscape:connector-curvature="0" /><path
           d="m 461.244,409.305 c 0,-13.331 -10.806,-24.137 -24.136,-24.137 -13.331,10e-4 -24.137,10.806 -24.137,24.137 0,13.33 10.806,24.135 24.137,24.135 13.33,0 24.136,-10.805 24.136,-24.135"
           style="fill:#231f20;fill-opacity:1;fill-rule:nonzero;stroke:none"
           id="path3803"
           inkscape:connector-curvature="0" /><path
           d="m 355.043,462.404 c 0,-13.33 -10.806,-24.135 -24.136,-24.135 -13.331,0 -24.136,10.805 -24.136,24.136 0,13.33 10.805,24.136 24.136,24.136 13.33,0 24.136,-10.806 24.136,-24.137"
           style="fill:#231f20;fill-opacity:1;fill-rule:nonzero;stroke:none"
           id="path3805"
           inkscape:connector-curvature="0" /><path
           d="m 408.144,462.404 c 0,-13.33 -10.806,-24.135 -24.137,-24.135 -13.33,0 -24.136,10.805 -24.136,24.136 0,13.33 10.806,24.136 24.136,24.136 13.331,0 24.137,-10.806 24.137,-24.137"
           style="fill:#231f20;fill-opacity:1;fill-rule:nonzero;stroke:none"
           id="path3807"
           inkscape:connector-curvature="0" /><path
           d="m 355.043,515.505 c 0,-13.33 -10.806,-24.137 -24.136,-24.137 -13.331,0 -24.136,10.807 -24.136,24.138 0,13.329 10.805,24.136 24.136,24.136 13.33,0 24.136,-10.807 24.136,-24.137"
           style="fill:#231f20;fill-opacity:1;fill-rule:nonzero;stroke:none"
           id="path3809"
           inkscape:connector-curvature="0" /></g></g></g></svg>