<svg id="visual" viewBox="0 0 900 600" width="900" height="600" xmlns="http://www.w3.org/2000/svg" xmlns:xlink="http://www.w3.org/1999/xlink" version="1.1"><rect x="0" y="0" width="900" height="600" fill="#4c3f91"></rect><defs><linearGradient id="grad1_0" x1="33.3%" y1="100%" x2="100%" y2="0%"><stop offset="20%" stop-color="#fbae3c" stop-opacity="1"></stop><stop offset="80%" stop-color="#fbae3c" stop-opacity="1"></stop></linearGradient></defs><defs><linearGradient id="grad1_1" x1="33.3%" y1="100%" x2="100%" y2="0%"><stop offset="20%" stop-color="#fbae3c" stop-opacity="1"></stop><stop offset="80%" stop-color="#ff8e49" stop-opacity="1"></stop></linearGradient></defs><defs><linearGradient id="grad1_2" x1="33.3%" y1="100%" x2="100%" y2="0%"><stop offset="20%" stop-color="#fa705a" stop-opacity="1"></stop><stop offset="80%" stop-color="#ff8e49" stop-opacity="1"></stop></linearGradient></defs><defs><linearGradient id="grad1_3" x1="33.3%" y1="100%" x2="100%" y2="0%"><stop offset="20%" stop-color="#fa705a" stop-opacity="1"></stop><stop offset="80%" stop-color="#eb576d" stop-opacity="1"></stop></linearGradient></defs><defs><linearGradient id="grad1_4" x1="33.3%" y1="100%" x2="100%" y2="0%"><stop offset="20%" stop-color="#d1467e" stop-opacity="1"></stop><stop offset="80%" stop-color="#eb576d" stop-opacity="1"></stop></linearGradient></defs><defs><linearGradient id="grad1_5" x1="33.3%" y1="100%" x2="100%" y2="0%"><stop offset="20%" stop-color="#d1467e" stop-opacity="1"></stop><stop offset="80%" stop-color="#ae3f8b" stop-opacity="1"></stop></linearGradient></defs><defs><linearGradient id="grad1_6" x1="33.3%" y1="100%" x2="100%" y2="0%"><stop offset="20%" stop-color="#823f92" stop-opacity="1"></stop><stop offset="80%" stop-color="#ae3f8b" stop-opacity="1"></stop></linearGradient></defs><defs><linearGradient id="grad1_7" x1="33.3%" y1="100%" x2="100%" y2="0%"><stop offset="20%" stop-color="#823f92" stop-opacity="1"></stop><stop offset="80%" stop-color="#4c3f91" stop-opacity="1"></stop></linearGradient></defs><defs><linearGradient id="grad2_0" x1="0%" y1="100%" x2="66.7%" y2="0%"><stop offset="20%" stop-color="#fbae3c" stop-opacity="1"></stop><stop offset="80%" stop-color="#fbae3c" stop-opacity="1"></stop></linearGradient></defs><defs><linearGradient id="grad2_1" x1="0%" y1="100%" x2="66.7%" y2="0%"><stop offset="20%" stop-color="#ff8e49" stop-opacity="1"></stop><stop offset="80%" stop-color="#fbae3c" stop-opacity="1"></stop></linearGradient></defs><defs><linearGradient id="grad2_2" x1="0%" y1="100%" x2="66.7%" y2="0%"><stop offset="20%" stop-color="#ff8e49" stop-opacity="1"></stop><stop offset="80%" stop-color="#fa705a" stop-opacity="1"></stop></linearGradient></defs><defs><linearGradient id="grad2_3" x1="0%" y1="100%" x2="66.7%" y2="0%"><stop offset="20%" stop-color="#eb576d" stop-opacity="1"></stop><stop offset="80%" stop-color="#fa705a" stop-opacity="1"></stop></linearGradient></defs><defs><linearGradient id="grad2_4" x1="0%" y1="100%" x2="66.7%" y2="0%"><stop offset="20%" stop-color="#eb576d" stop-opacity="1"></stop><stop offset="80%" stop-color="#d1467e" stop-opacity="1"></stop></linearGradient></defs><defs><linearGradient id="grad2_5" x1="0%" y1="100%" x2="66.7%" y2="0%"><stop offset="20%" stop-color="#ae3f8b" stop-opacity="1"></stop><stop offset="80%" stop-color="#d1467e" stop-opacity="1"></stop></linearGradient></defs><defs><linearGradient id="grad2_6" x1="0%" y1="100%" x2="66.7%" y2="0%"><stop offset="20%" stop-color="#ae3f8b" stop-opacity="1"></stop><stop offset="80%" stop-color="#823f92" stop-opacity="1"></stop></linearGradient></defs><defs><linearGradient id="grad2_7" x1="0%" y1="100%" x2="66.7%" y2="0%"><stop offset="20%" stop-color="#4c3f91" stop-opacity="1"></stop><stop offset="80%" stop-color="#823f92" stop-opacity="1"></stop></linearGradient></defs><g transform="translate(900, 600)"><path d="M-243.4 0C-238.8 -45.6 -234.1 -91.2 -210.8 -121.7C-187.4 -152.2 -145.3 -167.6 -107 -185.3C-68.7 -203.1 -34.4 -223.2 0 -243.4L0 0Z" fill="#693f93"></path><path d="M-213 0C-208.9 -39.9 -204.9 -79.8 -184.4 -106.5C-164 -133.2 -127.1 -146.6 -93.6 -162.2C-60.2 -177.7 -30.1 -195.3 0 -213L0 0Z" fill="#993f90"></path><path d="M-182.5 0C-179.1 -34.2 -175.6 -68.4 -158.1 -91.3C-140.5 -114.1 -108.9 -125.7 -80.3 -139C-51.6 -152.3 -25.8 -167.4 0 -182.5L0 0Z" fill="#c04286"></path><path d="M-152.1 0C-149.2 -28.5 -146.3 -57 -131.7 -76.1C-117.1 -95.1 -90.8 -104.7 -66.9 -115.8C-43 -126.9 -21.5 -139.5 0 -152.1L0 0Z" fill="#df4d76"></path><path d="M-121.7 0C-119.4 -22.8 -117.1 -45.6 -105.4 -60.8C-93.7 -76.1 -72.6 -83.8 -53.5 -92.7C-34.4 -101.5 -17.2 -111.6 0 -121.7L0 0Z" fill="#f46364"></path><path d="M-91.3 0C-89.5 -17.1 -87.8 -34.2 -79 -45.6C-70.3 -57.1 -54.5 -62.8 -40.1 -69.5C-25.8 -76.2 -12.9 -83.7 0 -91.3L0 0Z" fill="#fe7f51"></path><path d="M-60.8 0C-59.7 -11.4 -58.5 -22.8 -52.7 -30.4C-46.8 -38 -36.3 -41.9 -26.8 -46.3C-17.2 -50.8 -8.6 -55.8 0 -60.8L0 0Z" fill="#ff9e41"></path><path d="M-30.4 0C-29.8 -5.7 -29.3 -11.4 -26.3 -15.2C-23.4 -19 -18.2 -20.9 -13.4 -23.2C-8.6 -25.4 -4.3 -27.9 0 -30.4L0 0Z" fill="#fbae3c"></path></g><g transform="translate(0, 0)"><path d="M243.4 0C239.3 46.5 235.2 93 210.8 121.7C186.3 150.3 141.5 161.1 103 178.4C64.5 195.7 32.2 219.5 0 243.4L0 0Z" fill="#693f93"></path><path d="M213 0C209.4 40.7 205.8 81.4 184.4 106.5C163 131.5 123.8 141 90.1 156.1C56.4 171.2 28.2 192.1 0 213L0 0Z" fill="#993f90"></path><path d="M182.5 0C179.5 34.9 176.4 69.8 158.1 91.3C139.7 112.7 106.1 120.8 77.3 133.8C48.4 146.8 24.2 164.7 0 182.5L0 0Z" fill="#c04286"></path><path d="M152.1 0C149.6 29.1 147 58.2 131.7 76.1C116.5 94 88.5 100.7 64.4 111.5C40.3 122.3 20.1 137.2 0 152.1L0 0Z" fill="#df4d76"></path><path d="M121.7 0C119.6 23.3 117.6 46.5 105.4 60.8C93.2 75.2 70.8 80.5 51.5 89.2C32.2 97.9 16.1 109.8 0 121.7L0 0Z" fill="#f46364"></path><path d="M91.3 0C89.7 17.4 88.2 34.9 79 45.6C69.9 56.4 53.1 60.4 38.6 66.9C24.2 73.4 12.1 82.3 0 91.3L0 0Z" fill="#fe7f51"></path><path d="M60.8 0C59.8 11.6 58.8 23.3 52.7 30.4C46.6 37.6 35.4 40.3 25.8 44.6C16.1 48.9 8.1 54.9 0 60.8L0 0Z" fill="#ff9e41"></path><path d="M30.4 0C29.9 5.8 29.4 11.6 26.3 15.2C23.3 18.8 17.7 20.1 12.9 22.3C8.1 24.5 4 27.4 0 30.4L0 0Z" fill="#fbae3c"></path></g></svg>