<svg xmlns="http://www.w3.org/2000/svg" version="1.1" xmlns:xlink="http://www.w3.org/1999/xlink" xmlns:svgjs="http://svgjs.com/svgjs" width="5440" height="3000" preserveAspectRatio="none" viewBox="0 0 5440 3000"><g mask="url(&quot;#SvgjsMask1043&quot;)" fill="none"><rect width="5440" height="3000" x="0" y="0" fill="rgba(80, 60, 148, 1)"></rect><path d="M3284 2298L3283 1154" stroke-width="10" stroke="url(#SvgjsLinearGradient1044)" stroke-linecap="round" class="Up"></path><path d="M3791 2657L3790 517" stroke-width="6" stroke="url(#SvgjsLinearGradient1044)" stroke-linecap="round" class="Up"></path><path d="M2814 277L2813 -956" stroke-width="10" stroke="url(#SvgjsLinearGradient1044)" stroke-linecap="round" class="Up"></path><path d="M3187 2401L3186 4474" stroke-width="6" stroke="url(#SvgjsLinearGradient1045)" stroke-linecap="round" class="Down"></path><path d="M2972 316L2971 1323" stroke-width="8" stroke="url(#SvgjsLinearGradient1046)" stroke-linecap="round" class="Down"></path><path d="M1970 1980L1969 310" stroke-width="10" stroke="url(#SvgjsLinearGradient1044)" stroke-linecap="round" class="Up"></path><path d="M426 2550L425 1670" stroke-width="10" stroke="url(#SvgjsLinearGradient1044)" stroke-linecap="round" class="Up"></path><path d="M4051 1746L4050 157" stroke-width="8" stroke="url(#SvgjsLinearGradient1046)" stroke-linecap="round" class="Down"></path><path d="M1722 1622L1721 3364" stroke-width="8" stroke="url(#SvgjsLinearGradient1047)" stroke-linecap="round" class="Up"></path><path d="M2288 1843L2287 1026" stroke-width="8" stroke="url(#SvgjsLinearGradient1047)" stroke-linecap="round" class="Up"></path><path d="M2920 804L2919 -493" stroke-width="8" stroke="url(#SvgjsLinearGradient1045)" stroke-linecap="round" class="Down"></path><path d="M1657 1118L1656 -1021" stroke-width="8" stroke="url(#SvgjsLinearGradient1046)" stroke-linecap="round" class="Down"></path><path d="M3431 6L3430 -1615" stroke-width="10" stroke="url(#SvgjsLinearGradient1044)" stroke-linecap="round" class="Up"></path><path d="M1510 359L1509 -527" stroke-width="10" stroke="url(#SvgjsLinearGradient1045)" stroke-linecap="round" class="Down"></path><path d="M432 235L431 -1904" stroke-width="6" stroke="url(#SvgjsLinearGradient1044)" stroke-linecap="round" class="Up"></path><path d="M4215 2006L4214 2847" stroke-width="6" stroke="url(#SvgjsLinearGradient1046)" stroke-linecap="round" class="Down"></path><path d="M1233 383L1232 -1693" stroke-width="10" stroke="url(#SvgjsLinearGradient1045)" stroke-linecap="round" class="Down"></path><path d="M117 2025L116 3057" stroke-width="10" stroke="url(#SvgjsLinearGradient1047)" stroke-linecap="round" class="Up"></path><path d="M4481 677L4480 -1248" stroke-width="6" stroke="url(#SvgjsLinearGradient1044)" stroke-linecap="round" class="Up"></path><path d="M4814 1583L4813 -155" stroke-width="10" stroke="url(#SvgjsLinearGradient1046)" stroke-linecap="round" class="Down"></path><path d="M5100 1073L5099 2248" stroke-width="6" stroke="url(#SvgjsLinearGradient1046)" stroke-linecap="round" class="Down"></path><path d="M3690 2471L3689 4520" stroke-width="10" stroke="url(#SvgjsLinearGradient1044)" stroke-linecap="round" class="Up"></path><path d="M5345 1437L5344 -539" stroke-width="8" stroke="url(#SvgjsLinearGradient1047)" stroke-linecap="round" class="Up"></path><path d="M303 2699L302 1684" stroke-width="6" stroke="url(#SvgjsLinearGradient1045)" stroke-linecap="round" class="Down"></path><path d="M372 1687L371 -206" stroke-width="6" stroke="url(#SvgjsLinearGradient1046)" stroke-linecap="round" class="Down"></path><path d="M3626 565L3625 -1355" stroke-width="8" stroke="url(#SvgjsLinearGradient1047)" stroke-linecap="round" class="Up"></path><path d="M4650 1228L4649 231" stroke-width="6" stroke="url(#SvgjsLinearGradient1047)" stroke-linecap="round" class="Up"></path><path d="M2729 199L2728 -614" stroke-width="8" stroke="url(#SvgjsLinearGradient1044)" stroke-linecap="round" class="Up"></path><path d="M1054 806L1053 2309" stroke-width="6" stroke="url(#SvgjsLinearGradient1045)" stroke-linecap="round" class="Down"></path><path d="M2975 2747L2974 600" stroke-width="6" stroke="url(#SvgjsLinearGradient1047)" stroke-linecap="round" class="Up"></path><path d="M2857 1814L2856 586" stroke-width="8" stroke="url(#SvgjsLinearGradient1044)" stroke-linecap="round" class="Up"></path><path d="M4354 1166L4353 -357" stroke-width="10" stroke="url(#SvgjsLinearGradient1044)" stroke-linecap="round" class="Up"></path><path d="M1036 661L1035 1628" stroke-width="8" stroke="url(#SvgjsLinearGradient1045)" stroke-linecap="round" class="Down"></path><path d="M2813 1985L2812 3642" stroke-width="10" stroke="url(#SvgjsLinearGradient1046)" stroke-linecap="round" class="Down"></path><path d="M4873 667L4872 -1032" stroke-width="6" stroke="url(#SvgjsLinearGradient1046)" stroke-linecap="round" class="Down"></path><path d="M3763 891L3762 1683" stroke-width="6" stroke="url(#SvgjsLinearGradient1047)" stroke-linecap="round" class="Up"></path><path d="M4029 502L4028 1465" stroke-width="8" stroke="url(#SvgjsLinearGradient1046)" stroke-linecap="round" class="Down"></path><path d="M2362 677L2361 2530" stroke-width="8" stroke="url(#SvgjsLinearGradient1046)" stroke-linecap="round" class="Down"></path><path d="M3406 2068L3405 408" stroke-width="8" stroke="url(#SvgjsLinearGradient1044)" stroke-linecap="round" class="Up"></path><path d="M1305 2667L1304 4752" stroke-width="8" stroke="url(#SvgjsLinearGradient1047)" stroke-linecap="round" class="Up"></path><path d="M5049 2458L5048 291" stroke-width="6" stroke="url(#SvgjsLinearGradient1047)" stroke-linecap="round" class="Up"></path><path d="M1572 1424L1571 -690" stroke-width="10" stroke="url(#SvgjsLinearGradient1045)" stroke-linecap="round" class="Down"></path><path d="M4010 2944L4009 982" stroke-width="6" stroke="url(#SvgjsLinearGradient1047)" stroke-linecap="round" class="Up"></path><path d="M3622 2005L3621 1121" stroke-width="8" stroke="url(#SvgjsLinearGradient1044)" stroke-linecap="round" class="Up"></path><path d="M557 2412L556 1292" stroke-width="6" stroke="url(#SvgjsLinearGradient1046)" stroke-linecap="round" class="Down"></path><path d="M1907 1576L1906 -351" stroke-width="8" stroke="url(#SvgjsLinearGradient1046)" stroke-linecap="round" class="Down"></path><path d="M1289 361L1288 -987" stroke-width="10" stroke="url(#SvgjsLinearGradient1044)" stroke-linecap="round" class="Up"></path><path d="M5307 1111L5306 -813" stroke-width="8" stroke="url(#SvgjsLinearGradient1047)" stroke-linecap="round" class="Up"></path><path d="M1345 1519L1344 2816" stroke-width="8" stroke="url(#SvgjsLinearGradient1045)" stroke-linecap="round" class="Down"></path><path d="M632 1137L631 2697" stroke-width="8" stroke="url(#SvgjsLinearGradient1046)" stroke-linecap="round" class="Down"></path><path d="M5312 2362L5311 483" stroke-width="8" stroke="url(#SvgjsLinearGradient1045)" stroke-linecap="round" class="Down"></path><path d="M476 565L475 1633" stroke-width="8" stroke="url(#SvgjsLinearGradient1045)" stroke-linecap="round" class="Down"></path><path d="M170 351L169 -891" stroke-width="6" stroke="url(#SvgjsLinearGradient1044)" stroke-linecap="round" class="Up"></path><path d="M962 411L961 2185" stroke-width="6" stroke="url(#SvgjsLinearGradient1044)" stroke-linecap="round" class="Up"></path><path d="M2009 614L2008 -1261" stroke-width="8" stroke="url(#SvgjsLinearGradient1047)" stroke-linecap="round" class="Up"></path><path d="M4898 2949L4897 4070" stroke-width="10" stroke="url(#SvgjsLinearGradient1045)" stroke-linecap="round" class="Down"></path><path d="M3215 2121L3214 3998" stroke-width="8" stroke="url(#SvgjsLinearGradient1046)" stroke-linecap="round" class="Down"></path><path d="M449 1349L448 2687" stroke-width="6" stroke="url(#SvgjsLinearGradient1047)" stroke-linecap="round" class="Up"></path><path d="M2763 470L2762 1872" stroke-width="10" stroke="url(#SvgjsLinearGradient1045)" stroke-linecap="round" class="Down"></path><path d="M4567 718L4566 2183" stroke-width="10" stroke="url(#SvgjsLinearGradient1044)" stroke-linecap="round" class="Up"></path><path d="M3946 1553L3945 -190" stroke-width="8" stroke="url(#SvgjsLinearGradient1047)" stroke-linecap="round" class="Up"></path><path d="M641 2324L640 3866" stroke-width="10" stroke="url(#SvgjsLinearGradient1046)" stroke-linecap="round" class="Down"></path><path d="M1867 411L1866 2179" stroke-width="6" stroke="url(#SvgjsLinearGradient1046)" stroke-linecap="round" class="Down"></path><path d="M784 2896L783 4827" stroke-width="8" stroke="url(#SvgjsLinearGradient1046)" stroke-linecap="round" class="Down"></path><path d="M4536 2435L4535 879" stroke-width="6" stroke="url(#SvgjsLinearGradient1047)" stroke-linecap="round" class="Up"></path><path d="M869 1466L868 3043" stroke-width="8" stroke="url(#SvgjsLinearGradient1045)" stroke-linecap="round" class="Down"></path><path d="M2848 2904L2847 1520" stroke-width="8" stroke="url(#SvgjsLinearGradient1045)" stroke-linecap="round" class="Down"></path><path d="M1170 2159L1169 105" stroke-width="8" stroke="url(#SvgjsLinearGradient1047)" stroke-linecap="round" class="Up"></path><path d="M4269 2667L4268 453" stroke-width="6" stroke="url(#SvgjsLinearGradient1044)" stroke-linecap="round" class="Up"></path><path d="M2202 1298L2201 -352" stroke-width="8" stroke="url(#SvgjsLinearGradient1044)" stroke-linecap="round" class="Up"></path><path d="M4437 2748L4436 1192" stroke-width="10" stroke="url(#SvgjsLinearGradient1045)" stroke-linecap="round" class="Down"></path><path d="M2865 2609L2864 427" stroke-width="6" stroke="url(#SvgjsLinearGradient1047)" stroke-linecap="round" class="Up"></path><path d="M3376 955L3375 -856" stroke-width="6" stroke="url(#SvgjsLinearGradient1046)" stroke-linecap="round" class="Down"></path><path d="M3734 114L3733 1887" stroke-width="6" stroke="url(#SvgjsLinearGradient1044)" stroke-linecap="round" class="Up"></path><path d="M1349 55L1348 -1428" stroke-width="6" stroke="url(#SvgjsLinearGradient1047)" stroke-linecap="round" class="Up"></path><path d="M260 1525L259 -143" stroke-width="10" stroke="url(#SvgjsLinearGradient1046)" stroke-linecap="round" class="Down"></path><path d="M4803 2398L4802 1207" stroke-width="10" stroke="url(#SvgjsLinearGradient1046)" stroke-linecap="round" class="Down"></path><path d="M750 2191L749 1336" stroke-width="8" stroke="url(#SvgjsLinearGradient1045)" stroke-linecap="round" class="Down"></path><path d="M3404 2612L3403 381" stroke-width="8" stroke="url(#SvgjsLinearGradient1045)" stroke-linecap="round" class="Down"></path><path d="M4310 2284L4309 1407" stroke-width="10" stroke="url(#SvgjsLinearGradient1047)" stroke-linecap="round" class="Up"></path><path d="M2371 2597L2370 4399" stroke-width="6" stroke="url(#SvgjsLinearGradient1046)" stroke-linecap="round" class="Down"></path><path d="M5253 1566L5252 3744" stroke-width="6" stroke="url(#SvgjsLinearGradient1044)" stroke-linecap="round" class="Up"></path><path d="M3884 2126L3883 4149" stroke-width="8" stroke="url(#SvgjsLinearGradient1046)" stroke-linecap="round" class="Down"></path><path d="M986 942L985 -579" stroke-width="10" stroke="url(#SvgjsLinearGradient1047)" stroke-linecap="round" class="Up"></path><path d="M1171 1888L1170 -214" stroke-width="6" stroke="url(#SvgjsLinearGradient1045)" stroke-linecap="round" class="Down"></path><path d="M3701 1555L3700 572" stroke-width="8" stroke="url(#SvgjsLinearGradient1047)" stroke-linecap="round" class="Up"></path><path d="M856 272L855 2097" stroke-width="6" stroke="url(#SvgjsLinearGradient1046)" stroke-linecap="round" class="Down"></path><path d="M1959 751L1958 -687" stroke-width="8" stroke="url(#SvgjsLinearGradient1046)" stroke-linecap="round" class="Down"></path><path d="M78 1040L77 -964" stroke-width="8" stroke="url(#SvgjsLinearGradient1047)" stroke-linecap="round" class="Up"></path><path d="M4026 2348L4025 342" stroke-width="8" stroke="url(#SvgjsLinearGradient1047)" stroke-linecap="round" class="Up"></path><path d="M2723 1660L2722 -497" stroke-width="10" stroke="url(#SvgjsLinearGradient1046)" stroke-linecap="round" class="Down"></path><path d="M1953 2978L1952 4432" stroke-width="6" stroke="url(#SvgjsLinearGradient1044)" stroke-linecap="round" class="Up"></path><path d="M680 471L679 -640" stroke-width="10" stroke="url(#SvgjsLinearGradient1046)" stroke-linecap="round" class="Down"></path><path d="M283 1158L282 2600" stroke-width="8" stroke="url(#SvgjsLinearGradient1044)" stroke-linecap="round" class="Up"></path><path d="M4045 2733L4044 1358" stroke-width="6" stroke="url(#SvgjsLinearGradient1046)" stroke-linecap="round" class="Down"></path><path d="M3748 2466L3747 452" stroke-width="8" stroke="url(#SvgjsLinearGradient1047)" stroke-linecap="round" class="Up"></path><path d="M976 2820L975 4286" stroke-width="8" stroke="url(#SvgjsLinearGradient1045)" stroke-linecap="round" class="Down"></path><path d="M2991 2883L2990 738" stroke-width="6" stroke="url(#SvgjsLinearGradient1047)" stroke-linecap="round" class="Up"></path><path d="M4925 2583L4924 4175" stroke-width="8" stroke="url(#SvgjsLinearGradient1046)" stroke-linecap="round" class="Down"></path><path d="M875 2020L874 1226" stroke-width="6" stroke="url(#SvgjsLinearGradient1046)" stroke-linecap="round" class="Down"></path><path d="M2777 1923L2776 313" stroke-width="6" stroke="url(#SvgjsLinearGradient1047)" stroke-linecap="round" class="Up"></path><path d="M922 2271L921 3168" stroke-width="10" stroke="url(#SvgjsLinearGradient1046)" stroke-linecap="round" class="Down"></path><path d="M2817 1632L2816 -102" stroke-width="8" stroke="url(#SvgjsLinearGradient1044)" stroke-linecap="round" class="Up"></path><path d="M4102 327L4101 2451" stroke-width="8" stroke="url(#SvgjsLinearGradient1044)" stroke-linecap="round" class="Up"></path><path d="M4670 868L4669 2696" stroke-width="10" stroke="url(#SvgjsLinearGradient1045)" stroke-linecap="round" class="Down"></path><path d="M4506 1026L4505 -673" stroke-width="6" stroke="url(#SvgjsLinearGradient1045)" stroke-linecap="round" class="Down"></path><path d="M3074 160L3073 2406" stroke-width="10" stroke="url(#SvgjsLinearGradient1044)" stroke-linecap="round" class="Up"></path><path d="M3706 1140L3705 81" stroke-width="8" stroke="url(#SvgjsLinearGradient1047)" stroke-linecap="round" class="Up"></path><path d="M729 1286L728 3477" stroke-width="10" stroke="url(#SvgjsLinearGradient1046)" stroke-linecap="round" class="Down"></path><path d="M882 376L881 -417" stroke-width="6" stroke="url(#SvgjsLinearGradient1047)" stroke-linecap="round" class="Up"></path><path d="M855 1306L854 2680" stroke-width="8" stroke="url(#SvgjsLinearGradient1045)" stroke-linecap="round" class="Down"></path><path d="M1613 931L1612 -202" stroke-width="8" stroke="url(#SvgjsLinearGradient1044)" stroke-linecap="round" class="Up"></path><path d="M199 2520L198 4295" stroke-width="6" stroke="url(#SvgjsLinearGradient1046)" stroke-linecap="round" class="Down"></path><path d="M2108 1085L2107 2972" stroke-width="8" stroke="url(#SvgjsLinearGradient1045)" stroke-linecap="round" class="Down"></path><path d="M2324 1246L2323 3255" stroke-width="10" stroke="url(#SvgjsLinearGradient1044)" stroke-linecap="round" class="Up"></path><path d="M4242 2909L4241 1470" stroke-width="10" stroke="url(#SvgjsLinearGradient1045)" stroke-linecap="round" class="Down"></path><path d="M3904 1644L3903 2733" stroke-width="6" stroke="url(#SvgjsLinearGradient1047)" stroke-linecap="round" class="Up"></path><path d="M5135 1132L5134 5" stroke-width="10" stroke="url(#SvgjsLinearGradient1044)" stroke-linecap="round" class="Up"></path><path d="M4370 1583L4369 3069" stroke-width="10" stroke="url(#SvgjsLinearGradient1047)" stroke-linecap="round" class="Up"></path><path d="M1576 1987L1575 719" stroke-width="6" stroke="url(#SvgjsLinearGradient1047)" stroke-linecap="round" class="Up"></path><path d="M5121 539L5120 -383" stroke-width="10" stroke="url(#SvgjsLinearGradient1046)" stroke-linecap="round" class="Down"></path><path d="M3814 2597L3813 4126" stroke-width="10" stroke="url(#SvgjsLinearGradient1045)" stroke-linecap="round" class="Down"></path><path d="M1572 421L1571 -491" stroke-width="10" stroke="url(#SvgjsLinearGradient1044)" stroke-linecap="round" class="Up"></path><path d="M3467 1596L3466 2727" stroke-width="10" stroke="url(#SvgjsLinearGradient1044)" stroke-linecap="round" class="Up"></path><path d="M5012 1871L5011 3865" stroke-width="8" stroke="url(#SvgjsLinearGradient1044)" stroke-linecap="round" class="Up"></path><path d="M1549 1820L1548 2741" stroke-width="10" stroke="url(#SvgjsLinearGradient1044)" stroke-linecap="round" class="Up"></path><path d="M2156 150L2155 1383" stroke-width="8" stroke="url(#SvgjsLinearGradient1045)" stroke-linecap="round" class="Down"></path><path d="M1488 90L1487 -1342" stroke-width="10" stroke="url(#SvgjsLinearGradient1047)" stroke-linecap="round" class="Up"></path><path d="M2157 1839L2156 2692" stroke-width="10" stroke="url(#SvgjsLinearGradient1046)" stroke-linecap="round" class="Down"></path><path d="M3396 1439L3395 430" stroke-width="6" stroke="url(#SvgjsLinearGradient1046)" stroke-linecap="round" class="Down"></path><path d="M5113 1736L5112 20" stroke-width="10" stroke="url(#SvgjsLinearGradient1047)" stroke-linecap="round" class="Up"></path><path d="M3391 2133L3390 745" stroke-width="8" stroke="url(#SvgjsLinearGradient1044)" stroke-linecap="round" class="Up"></path><path d="M915 1294L914 41" stroke-width="6" stroke="url(#SvgjsLinearGradient1044)" stroke-linecap="round" class="Up"></path><path d="M638 2183L637 -47" stroke-width="10" stroke="url(#SvgjsLinearGradient1047)" stroke-linecap="round" class="Up"></path><path d="M4163 707L4162 1824" stroke-width="6" stroke="url(#SvgjsLinearGradient1044)" stroke-linecap="round" class="Up"></path><path d="M1896 1860L1895 189" stroke-width="8" stroke="url(#SvgjsLinearGradient1044)" stroke-linecap="round" class="Up"></path></g><defs><mask id="SvgjsMask1043"><rect width="5440" height="3000" fill="#ffffff"></rect></mask><linearGradient x1="0%" y1="100%" x2="0%" y2="0%" id="SvgjsLinearGradient1044"><stop stop-color="rgba(71, 235, 213, 0)" offset="0"></stop><stop stop-color="rgba(71, 235, 213, 1)" offset="1"></stop></linearGradient><linearGradient x1="0%" y1="0%" x2="0%" y2="100%" id="SvgjsLinearGradient1045"><stop stop-color="rgba(80, 60, 148, 0)" offset="0"></stop><stop stop-color="rgba(80, 60, 148, 1)" offset="1"></stop></linearGradient><linearGradient x1="0%" y1="0%" x2="0%" y2="100%" id="SvgjsLinearGradient1046"><stop stop-color="rgba(71, 235, 213, 0)" offset="0"></stop><stop stop-color="rgba(71, 235, 213, 1)" offset="1"></stop></linearGradient><linearGradient x1="0%" y1="100%" x2="0%" y2="0%" id="SvgjsLinearGradient1047"><stop stop-color="rgba(80, 60, 148, 0)" offset="0"></stop><stop stop-color="rgba(80, 60, 148, 1)" offset="1"></stop></linearGradient></defs></svg>