<?xml version="1.0" encoding="UTF-8"?>
<svg xmlns="http://www.w3.org/2000/svg" xmlns:xlink="http://www.w3.org/1999/xlink" width="1300px" height="325px" viewBox="0 0 1300 325" version="1.1">
<g id="surface1">
<path style=" stroke:none;fill-rule:nonzero;fill:rgb(74.901961%,74.901961%,74.901961%);fill-opacity:1;" d="M 1.734375 65.765625 L 5.292969 65.765625 L 5.292969 3.582031 L 18.96875 3.582031 L 18.96875 1.085938 L 1.734375 1.085938 Z M 1.734375 65.765625 "/>
<path style=" stroke:none;fill-rule:nonzero;fill:rgb(74.901961%,74.901961%,74.901961%);fill-opacity:1;" d="M 1.734375 87.390625 L 5.292969 87.390625 L 5.292969 65.738281 L 1.734375 65.738281 Z M 1.734375 87.390625 "/>
<path style=" stroke:none;fill-rule:nonzero;fill:rgb(74.901961%,74.901961%,74.901961%);fill-opacity:1;" d="M 1.734375 108.960938 L 5.292969 108.960938 L 5.292969 87.3125 L 1.734375 87.3125 Z M 1.734375 108.960938 "/>
<path style=" stroke:none;fill-rule:nonzero;fill:rgb(74.901961%,74.901961%,74.901961%);fill-opacity:1;" d="M 1.734375 130.546875 L 5.292969 130.546875 L 5.292969 108.894531 L 1.734375 108.894531 Z M 1.734375 130.546875 "/>
<path style=" stroke:none;fill-rule:nonzero;fill:rgb(74.901961%,74.901961%,74.901961%);fill-opacity:1;" d="M 1.734375 152.117188 L 5.292969 152.117188 L 5.292969 130.46875 L 1.734375 130.46875 Z M 1.734375 152.117188 "/>
<path style=" stroke:none;fill-rule:nonzero;fill:rgb(74.901961%,74.901961%,74.901961%);fill-opacity:1;" d="M 1.734375 173.703125 L 5.292969 173.703125 L 5.292969 152.054688 L 1.734375 152.054688 Z M 1.734375 173.703125 "/>
<path style=" stroke:none;fill-rule:nonzero;fill:rgb(74.901961%,74.901961%,74.901961%);fill-opacity:1;" d="M 1.734375 195.273438 L 5.292969 195.273438 L 5.292969 173.625 L 1.734375 173.625 Z M 1.734375 195.273438 "/>
<path style=" stroke:none;fill-rule:nonzero;fill:rgb(74.901961%,74.901961%,74.901961%);fill-opacity:1;" d="M 1.734375 216.859375 L 5.292969 216.859375 L 5.292969 195.210938 L 1.734375 195.210938 Z M 1.734375 216.859375 "/>
<path style=" stroke:none;fill-rule:nonzero;fill:rgb(74.901961%,74.901961%,74.901961%);fill-opacity:1;" d="M 1.734375 238.433594 L 5.292969 238.433594 L 5.292969 216.78125 L 1.734375 216.78125 Z M 1.734375 238.433594 "/>
<path style=" stroke:none;fill-rule:nonzero;fill:rgb(74.901961%,74.901961%,74.901961%);fill-opacity:1;" d="M 1.734375 260.015625 L 5.292969 260.015625 L 5.292969 238.367188 L 1.734375 238.367188 Z M 1.734375 260.015625 "/>
<path style=" stroke:none;fill-rule:nonzero;fill:rgb(74.901961%,74.901961%,74.901961%);fill-opacity:1;" d="M 1.734375 324.671875 L 18.96875 324.671875 L 18.96875 322.175781 L 5.292969 322.175781 L 5.292969 259.992188 L 1.734375 259.992188 Z M 1.734375 324.671875 "/>
<path style=" stroke:none;fill-rule:nonzero;fill:rgb(74.901961%,74.901961%,74.901961%);fill-opacity:1;" d="M 51.277344 85.15625 L 51.277344 86.652344 C 54.605469 86.652344 57.96875 86.449219 61.167969 85.722656 L 61.167969 113.539062 L 61.035156 114.109375 L 60.285156 114.265625 L 51.636719 114.265625 L 51.636719 115.832031 L 77.648438 115.832031 L 77.648438 114.3125 L 69.683594 114.3125 C 68.867188 114.3125 68.183594 114.222656 68.183594 113.585938 L 68.183594 82.503906 C 68.183594 82.253906 68.183594 81.847656 67.660156 81.847656 C 66.550781 81.847656 65.210938 82.9375 64.003906 83.34375 C 60.121094 84.792969 55.652344 85.15625 51.277344 85.15625 Z M 51.277344 85.15625 "/>
<path style=" stroke:none;fill-rule:nonzero;fill:rgb(74.901961%,74.901961%,74.901961%);fill-opacity:1;" d="M 296.527344 81.847656 C 282.132812 82.9375 281.613281 92.820312 281.613281 99.824219 C 281.613281 106.035156 282.589844 116.441406 297.800781 116.441406 C 309.058594 116.441406 313.757812 109.550781 313.757812 100.957031 L 313.757812 97.945312 C 313.757812 90.960938 311.246094 81.78125 297.898438 81.78125 C 297.441406 81.78125 296.984375 81.78125 296.527344 81.847656 Z M 288.792969 102.5 C 288.695312 102.09375 288.695312 101.683594 288.695312 101.277344 C 288.695312 98.101562 288.695312 94.949219 289.019531 91.777344 C 289.152344 89.757812 289.378906 87.492188 290.945312 85.722656 C 292.511719 84.070312 295.125 83.09375 297.800781 83.09375 C 305.925781 83.09375 306.613281 89.828125 306.613281 94.949219 L 306.613281 97.945312 C 306.613281 99.394531 306.675781 101.003906 306.675781 102.660156 C 306.675781 106.035156 306.382812 109.550781 304.75 112 C 303.316406 113.8125 300.640625 115.261719 297.667969 115.261719 L 297.507812 115.261719 C 292.808594 115.261719 290.128906 112.042969 289.542969 109.1875 C 288.921875 106.964844 289.085938 104.746094 288.792969 102.5 Z M 288.792969 102.5 "/>
<path style=" stroke:none;fill-rule:nonzero;fill:rgb(74.901961%,74.901961%,74.901961%);fill-opacity:1;" d="M 73.84375 238.542969 C 59.449219 239.632812 58.929688 249.515625 58.929688 256.523438 C 58.929688 262.734375 59.90625 273.140625 75.117188 273.140625 C 86.375 273.140625 91.074219 266.246094 91.074219 257.65625 L 91.074219 254.640625 C 91.074219 247.65625 88.5625 238.476562 75.214844 238.476562 C 74.757812 238.476562 74.300781 238.476562 73.84375 238.542969 Z M 66.109375 259.195312 C 66.011719 258.789062 66.011719 258.378906 66.011719 257.972656 C 66.011719 254.796875 66.011719 251.648438 66.335938 248.472656 C 66.46875 246.457031 66.695312 244.1875 68.261719 242.421875 C 69.828125 240.765625 72.4375 239.792969 75.117188 239.792969 C 83.242188 239.792969 83.925781 246.523438 83.925781 251.648438 L 83.925781 254.640625 C 83.925781 256.089844 83.992188 257.699219 83.992188 259.355469 C 83.992188 262.734375 83.699219 266.246094 82.066406 268.695312 C 80.628906 270.507812 77.953125 271.960938 74.984375 271.960938 L 74.820312 271.960938 C 70.121094 271.960938 67.445312 268.742188 66.859375 265.882812 C 66.238281 263.664062 66.402344 261.441406 66.109375 259.195312 Z M 66.109375 259.195312 "/>
<path style=" stroke:none;fill-rule:nonzero;fill:rgb(74.901961%,74.901961%,74.901961%);fill-opacity:1;" d="M 266.714844 259.0625 L 266.714844 262.9375 L 287.078125 262.9375 L 287.078125 259.0625 Z M 266.714844 259.0625 "/>
<path style=" stroke:none;fill-rule:nonzero;fill:rgb(74.901961%,74.901961%,74.901961%);fill-opacity:1;" d="M 297.824219 241.855469 L 297.824219 243.351562 C 301.152344 243.351562 304.515625 243.144531 307.710938 242.421875 L 307.710938 270.238281 L 307.582031 270.804688 L 306.832031 270.960938 L 298.183594 270.960938 L 298.183594 272.527344 L 324.195312 272.527344 L 324.195312 271.007812 L 316.230469 271.007812 C 315.414062 271.007812 314.730469 270.917969 314.730469 270.28125 L 314.730469 239.203125 C 314.730469 238.953125 314.730469 238.542969 314.207031 238.542969 C 313.097656 238.542969 311.757812 239.632812 310.550781 240.039062 C 306.667969 241.492188 302.195312 241.855469 297.824219 241.855469 Z M 297.824219 241.855469 "/>
<path style=" stroke:none;fill-rule:nonzero;fill:rgb(74.901961%,74.901961%,74.901961%);fill-opacity:1;" d="M 369.128906 65.765625 L 372.683594 65.765625 L 372.683594 1.085938 L 355.453125 1.085938 L 355.453125 3.582031 L 369.128906 3.582031 Z M 369.128906 65.765625 "/>
<path style=" stroke:none;fill-rule:nonzero;fill:rgb(74.901961%,74.901961%,74.901961%);fill-opacity:1;" d="M 369.128906 87.390625 L 372.683594 87.390625 L 372.683594 65.738281 L 369.128906 65.738281 Z M 369.128906 87.390625 "/>
<path style=" stroke:none;fill-rule:nonzero;fill:rgb(74.901961%,74.901961%,74.901961%);fill-opacity:1;" d="M 369.128906 108.960938 L 372.683594 108.960938 L 372.683594 87.3125 L 369.128906 87.3125 Z M 369.128906 108.960938 "/>
<path style=" stroke:none;fill-rule:nonzero;fill:rgb(74.901961%,74.901961%,74.901961%);fill-opacity:1;" d="M 369.128906 130.546875 L 372.683594 130.546875 L 372.683594 108.898438 L 369.128906 108.898438 Z M 369.128906 130.546875 "/>
<path style=" stroke:none;fill-rule:nonzero;fill:rgb(74.901961%,74.901961%,74.901961%);fill-opacity:1;" d="M 369.128906 152.117188 L 372.683594 152.117188 L 372.683594 130.46875 L 369.128906 130.46875 Z M 369.128906 152.117188 "/>
<path style=" stroke:none;fill-rule:nonzero;fill:rgb(74.901961%,74.901961%,74.901961%);fill-opacity:1;" d="M 369.128906 173.703125 L 372.683594 173.703125 L 372.683594 152.054688 L 369.128906 152.054688 Z M 369.128906 173.703125 "/>
<path style=" stroke:none;fill-rule:nonzero;fill:rgb(74.901961%,74.901961%,74.901961%);fill-opacity:1;" d="M 369.128906 195.273438 L 372.683594 195.273438 L 372.683594 173.625 L 369.128906 173.625 Z M 369.128906 195.273438 "/>
<path style=" stroke:none;fill-rule:nonzero;fill:rgb(74.901961%,74.901961%,74.901961%);fill-opacity:1;" d="M 369.128906 216.859375 L 372.683594 216.859375 L 372.683594 195.210938 L 369.128906 195.210938 Z M 369.128906 216.859375 "/>
<path style=" stroke:none;fill-rule:nonzero;fill:rgb(74.901961%,74.901961%,74.901961%);fill-opacity:1;" d="M 369.128906 238.433594 L 372.683594 238.433594 L 372.683594 216.78125 L 369.128906 216.78125 Z M 369.128906 238.433594 "/>
<path style=" stroke:none;fill-rule:nonzero;fill:rgb(74.901961%,74.901961%,74.901961%);fill-opacity:1;" d="M 369.128906 260.015625 L 372.683594 260.015625 L 372.683594 238.367188 L 369.128906 238.367188 Z M 369.128906 260.015625 "/>
<path style=" stroke:none;fill-rule:nonzero;fill:rgb(74.901961%,74.901961%,74.901961%);fill-opacity:1;" d="M 369.128906 322.175781 L 355.453125 322.175781 L 355.453125 324.671875 L 372.683594 324.671875 L 372.683594 259.992188 L 369.128906 259.992188 Z M 369.128906 322.175781 "/>
<path style=" stroke:none;fill-rule:nonzero;fill:rgb(74.901961%,74.901961%,74.901961%);fill-opacity:1;" d="M 415.109375 65.765625 L 418.667969 65.765625 L 418.667969 3.582031 L 432.339844 3.582031 L 432.339844 1.085938 L 415.109375 1.085938 Z M 415.109375 65.765625 "/>
<path style=" stroke:none;fill-rule:nonzero;fill:rgb(74.901961%,74.901961%,74.901961%);fill-opacity:1;" d="M 415.109375 87.390625 L 418.667969 87.390625 L 418.667969 65.738281 L 415.109375 65.738281 Z M 415.109375 87.390625 "/>
<path style=" stroke:none;fill-rule:nonzero;fill:rgb(74.901961%,74.901961%,74.901961%);fill-opacity:1;" d="M 415.109375 108.960938 L 418.667969 108.960938 L 418.667969 87.3125 L 415.109375 87.3125 Z M 415.109375 108.960938 "/>
<path style=" stroke:none;fill-rule:nonzero;fill:rgb(74.901961%,74.901961%,74.901961%);fill-opacity:1;" d="M 415.109375 130.546875 L 418.667969 130.546875 L 418.667969 108.898438 L 415.109375 108.898438 Z M 415.109375 130.546875 "/>
<path style=" stroke:none;fill-rule:nonzero;fill:rgb(74.901961%,74.901961%,74.901961%);fill-opacity:1;" d="M 415.109375 152.117188 L 418.667969 152.117188 L 418.667969 130.46875 L 415.109375 130.46875 Z M 415.109375 152.117188 "/>
<path style=" stroke:none;fill-rule:nonzero;fill:rgb(74.901961%,74.901961%,74.901961%);fill-opacity:1;" d="M 415.109375 173.703125 L 418.667969 173.703125 L 418.667969 152.054688 L 415.109375 152.054688 Z M 415.109375 173.703125 "/>
<path style=" stroke:none;fill-rule:nonzero;fill:rgb(74.901961%,74.901961%,74.901961%);fill-opacity:1;" d="M 415.109375 195.277344 L 418.667969 195.277344 L 418.667969 173.625 L 415.109375 173.625 Z M 415.109375 195.277344 "/>
<path style=" stroke:none;fill-rule:nonzero;fill:rgb(74.901961%,74.901961%,74.901961%);fill-opacity:1;" d="M 415.109375 216.859375 L 418.667969 216.859375 L 418.667969 195.210938 L 415.109375 195.210938 Z M 415.109375 216.859375 "/>
<path style=" stroke:none;fill-rule:nonzero;fill:rgb(74.901961%,74.901961%,74.901961%);fill-opacity:1;" d="M 415.109375 238.433594 L 418.667969 238.433594 L 418.667969 216.78125 L 415.109375 216.78125 Z M 415.109375 238.433594 "/>
<path style=" stroke:none;fill-rule:nonzero;fill:rgb(74.901961%,74.901961%,74.901961%);fill-opacity:1;" d="M 415.109375 260.019531 L 418.667969 260.019531 L 418.667969 238.367188 L 415.109375 238.367188 Z M 415.109375 260.019531 "/>
<path style=" stroke:none;fill-rule:nonzero;fill:rgb(74.901961%,74.901961%,74.901961%);fill-opacity:1;" d="M 415.109375 324.671875 L 432.339844 324.671875 L 432.339844 322.175781 L 418.667969 322.175781 L 418.667969 259.992188 L 415.109375 259.992188 Z M 415.109375 324.671875 "/>
<path style=" stroke:none;fill-rule:nonzero;fill:rgb(74.901961%,74.901961%,74.901961%);fill-opacity:1;" d="M 461.417969 85.15625 L 461.417969 86.652344 C 464.746094 86.652344 468.109375 86.449219 471.304688 85.726562 L 471.304688 113.539062 L 471.175781 114.109375 L 470.425781 114.265625 L 461.777344 114.265625 L 461.777344 115.832031 L 487.785156 115.832031 L 487.785156 114.3125 L 479.824219 114.3125 C 479.007812 114.3125 478.324219 114.222656 478.324219 113.585938 L 478.324219 82.503906 C 478.324219 82.257812 478.324219 81.847656 477.800781 81.847656 C 476.691406 81.847656 475.351562 82.9375 474.144531 83.34375 C 470.261719 84.796875 465.789062 85.15625 461.417969 85.15625 Z M 461.417969 85.15625 "/>
<path style=" stroke:none;fill-rule:nonzero;fill:rgb(74.901961%,74.901961%,74.901961%);fill-opacity:1;" d="M 525.902344 77.019531 C 525.085938 77.222656 524.5625 78.742188 524.203125 79.511719 C 515.328125 94.996094 507.332031 110.640625 498.457031 126.078125 L 497.800781 127.371094 C 497.640625 127.574219 497.507812 127.847656 497.410156 128.09375 C 497.410156 128.414062 497.800781 128.730469 498.226562 128.730469 L 498.390625 128.730469 C 498.910156 128.660156 499.140625 128.367188 499.269531 128.050781 L 500.414062 126.03125 C 508.832031 110.390625 517.480469 94.839844 526.195312 79.261719 L 526.71875 78.265625 C 526.816406 78.0625 527.011719 77.859375 527.011719 77.585938 C 527.011719 77.222656 526.585938 77.019531 526.128906 77.019531 Z M 525.902344 77.019531 "/>
<path style=" stroke:none;fill-rule:nonzero;fill:rgb(74.901961%,74.901961%,74.901961%);fill-opacity:1;" d="M 553.335938 119.277344 C 554.964844 119.277344 555 119.230469 555.519531 118.550781 L 583.847656 77.496094 C 584.207031 77.019531 584.207031 76.953125 584.207031 76.839844 C 584.207031 76.453125 583.785156 76.136719 583.164062 76.136719 C 582.476562 76.136719 582.28125 76.453125 582.019531 76.839844 L 555.324219 115.535156 L 544.292969 97.695312 L 537.082031 101.550781 L 537.863281 102.117188 L 541.554688 100.1875 Z M 553.335938 119.277344 "/>
<path style="fill:none;stroke-width:9.99;stroke-linecap:butt;stroke-linejoin:miter;stroke:rgb(74.901961%,74.901961%,74.901961%);stroke-opacity:1;stroke-miterlimit:10;" d="M 2792.028798 1710.396154 L 2975.045817 1710.396154 " transform="matrix(0.208869,0,0,-0.145089,0,325)"/>
<path style=" stroke:none;fill-rule:nonzero;fill:rgb(74.901961%,74.901961%,74.901961%);fill-opacity:1;" d="M 589.273438 88.46875 C 591.003906 85.316406 595.117188 83.34375 599.652344 83.34375 C 605.917969 83.34375 610.03125 87.175781 610.03125 91.367188 L 610.03125 91.9375 C 609.574219 96.71875 604.941406 100.484375 600.535156 103.90625 C 596.8125 106.808594 593.027344 109.753906 589.273438 112.65625 L 587.871094 113.746094 C 587.285156 114.175781 586.894531 114.46875 586.894531 115.035156 C 586.894531 115.308594 586.992188 115.558594 586.992188 115.832031 L 615.777344 115.832031 L 617.472656 105.832031 L 615.546875 105.832031 C 615.15625 107.851562 615.253906 110.683594 612.414062 110.683594 C 610.554688 110.84375 608.59375 110.910156 606.734375 110.910156 C 604.808594 110.910156 602.949219 110.84375 601.058594 110.84375 L 593.679688 110.84375 C 596.976562 108.734375 600.175781 106.445312 603.601562 104.425781 L 608.074219 101.773438 C 612.707031 99.03125 617.472656 96.039062 617.472656 91.324219 L 617.472656 90.800781 C 616.722656 85 609.507812 81.847656 601.515625 81.847656 C 594.496094 81.847656 586.992188 85.203125 586.992188 90.800781 C 586.992188 92.617188 588.6875 93.589844 590.777344 93.589844 C 592.636719 93.589844 594.59375 92.660156 594.59375 91.007812 C 594.59375 89.511719 593.027344 88.308594 590.84375 88.308594 C 590.320312 88.308594 589.796875 88.375 589.273438 88.46875 Z M 589.273438 88.46875 "/>
<path style=" stroke:none;fill-rule:nonzero;fill:rgb(74.901961%,74.901961%,74.901961%);fill-opacity:1;" d="M 461.417969 241.855469 L 461.417969 243.351562 C 464.746094 243.351562 468.105469 243.144531 471.304688 242.421875 L 471.304688 270.238281 L 471.175781 270.804688 L 470.425781 270.960938 L 461.777344 270.960938 L 461.777344 272.527344 L 487.785156 272.527344 L 487.785156 271.007812 L 479.824219 271.007812 C 479.007812 271.007812 478.320312 270.917969 478.320312 270.28125 L 478.320312 239.203125 C 478.320312 238.953125 478.320312 238.542969 477.800781 238.542969 C 476.691406 238.542969 475.351562 239.632812 474.144531 240.039062 C 470.261719 241.492188 465.789062 241.855469 461.417969 241.855469 Z M 461.417969 241.855469 "/>
<path style=" stroke:none;fill-rule:nonzero;fill:rgb(74.901961%,74.901961%,74.901961%);fill-opacity:1;" d="M 525.902344 233.714844 C 525.085938 233.917969 524.5625 235.4375 524.203125 236.210938 C 515.328125 251.691406 507.332031 267.335938 498.453125 282.773438 L 497.800781 284.066406 C 497.636719 284.269531 497.507812 284.542969 497.410156 284.792969 C 497.410156 285.109375 497.800781 285.425781 498.226562 285.425781 L 498.390625 285.425781 C 498.910156 285.359375 499.140625 285.0625 499.269531 284.746094 L 500.414062 282.726562 C 508.832031 267.085938 517.480469 251.535156 526.195312 235.960938 L 526.71875 234.960938 C 526.816406 234.757812 527.011719 234.554688 527.011719 234.28125 C 527.011719 233.917969 526.585938 233.714844 526.128906 233.714844 Z M 525.902344 233.714844 "/>
<path style=" stroke:none;fill-rule:nonzero;fill:rgb(74.901961%,74.901961%,74.901961%);fill-opacity:1;" d="M 553.332031 275.972656 C 554.964844 275.972656 554.996094 275.925781 555.519531 275.246094 L 583.847656 234.191406 C 584.207031 233.714844 584.207031 233.648438 584.207031 233.535156 C 584.207031 233.148438 583.78125 232.832031 583.164062 232.832031 C 582.476562 232.832031 582.28125 233.148438 582.019531 233.535156 L 555.324219 272.234375 L 544.292969 254.390625 L 537.082031 258.246094 L 537.863281 258.8125 L 541.550781 256.882812 Z M 553.332031 275.972656 "/>
<path style="fill:none;stroke-width:9.99;stroke-linecap:butt;stroke-linejoin:miter;stroke:rgb(74.901961%,74.901961%,74.901961%);stroke-opacity:1;stroke-miterlimit:10;" d="M 2792.028798 630.403846 L 2975.045817 630.403846 " transform="matrix(0.208869,0,0,-0.145089,0,325)"/>
<path style=" stroke:none;fill-rule:nonzero;fill:rgb(74.901961%,74.901961%,74.901961%);fill-opacity:1;" d="M 589.273438 245.164062 C 591.003906 242.011719 595.117188 240.039062 599.652344 240.039062 C 605.917969 240.039062 610.03125 243.871094 610.03125 248.066406 L 610.03125 248.632812 C 609.574219 253.414062 604.941406 257.179688 600.535156 260.601562 C 596.8125 263.503906 593.027344 266.449219 589.273438 269.351562 L 587.871094 270.441406 C 587.285156 270.871094 586.894531 271.167969 586.894531 271.734375 C 586.894531 272.003906 586.992188 272.253906 586.992188 272.527344 L 615.777344 272.527344 L 617.472656 262.527344 L 615.546875 262.527344 C 615.15625 264.546875 615.253906 267.378906 612.414062 267.378906 C 610.554688 267.539062 608.59375 267.605469 606.734375 267.605469 C 604.808594 267.605469 602.949219 267.539062 601.058594 267.539062 L 593.679688 267.539062 C 596.976562 265.429688 600.175781 263.140625 603.601562 261.125 L 608.074219 258.472656 C 612.707031 255.726562 617.472656 252.734375 617.472656 248.019531 L 617.472656 247.5 C 616.722656 241.695312 609.507812 238.542969 601.515625 238.542969 C 594.496094 238.542969 586.992188 241.898438 586.992188 247.5 C 586.992188 249.3125 588.6875 250.285156 590.777344 250.285156 C 592.636719 250.285156 594.59375 249.355469 594.59375 247.703125 C 594.59375 246.207031 593.027344 245.003906 590.84375 245.003906 C 590.320312 245.003906 589.796875 245.074219 589.273438 245.164062 Z M 589.273438 245.164062 "/>
<path style=" stroke:none;fill-rule:nonzero;fill:rgb(74.901961%,74.901961%,74.901961%);fill-opacity:1;" d="M 660.894531 65.765625 L 664.449219 65.765625 L 664.449219 1.085938 L 647.21875 1.085938 L 647.21875 3.582031 L 660.894531 3.582031 Z M 660.894531 65.765625 "/>
<path style=" stroke:none;fill-rule:nonzero;fill:rgb(74.901961%,74.901961%,74.901961%);fill-opacity:1;" d="M 660.894531 87.390625 L 664.449219 87.390625 L 664.449219 65.738281 L 660.894531 65.738281 Z M 660.894531 87.390625 "/>
<path style=" stroke:none;fill-rule:nonzero;fill:rgb(74.901961%,74.901961%,74.901961%);fill-opacity:1;" d="M 660.894531 108.960938 L 664.449219 108.960938 L 664.449219 87.3125 L 660.894531 87.3125 Z M 660.894531 108.960938 "/>
<path style=" stroke:none;fill-rule:nonzero;fill:rgb(74.901961%,74.901961%,74.901961%);fill-opacity:1;" d="M 660.894531 130.546875 L 664.449219 130.546875 L 664.449219 108.894531 L 660.894531 108.894531 Z M 660.894531 130.546875 "/>
<path style=" stroke:none;fill-rule:nonzero;fill:rgb(74.901961%,74.901961%,74.901961%);fill-opacity:1;" d="M 660.894531 152.117188 L 664.449219 152.117188 L 664.449219 130.46875 L 660.894531 130.46875 Z M 660.894531 152.117188 "/>
<path style=" stroke:none;fill-rule:nonzero;fill:rgb(74.901961%,74.901961%,74.901961%);fill-opacity:1;" d="M 660.894531 173.703125 L 664.449219 173.703125 L 664.449219 152.054688 L 660.894531 152.054688 Z M 660.894531 173.703125 "/>
<path style=" stroke:none;fill-rule:nonzero;fill:rgb(74.901961%,74.901961%,74.901961%);fill-opacity:1;" d="M 660.894531 195.273438 L 664.449219 195.273438 L 664.449219 173.625 L 660.894531 173.625 Z M 660.894531 195.273438 "/>
<path style=" stroke:none;fill-rule:nonzero;fill:rgb(74.901961%,74.901961%,74.901961%);fill-opacity:1;" d="M 660.894531 216.859375 L 664.449219 216.859375 L 664.449219 195.210938 L 660.894531 195.210938 Z M 660.894531 216.859375 "/>
<path style=" stroke:none;fill-rule:nonzero;fill:rgb(74.901961%,74.901961%,74.901961%);fill-opacity:1;" d="M 660.894531 238.433594 L 664.449219 238.433594 L 664.449219 216.78125 L 660.894531 216.78125 Z M 660.894531 238.433594 "/>
<path style=" stroke:none;fill-rule:nonzero;fill:rgb(74.901961%,74.901961%,74.901961%);fill-opacity:1;" d="M 660.894531 260.015625 L 664.449219 260.015625 L 664.449219 238.367188 L 660.894531 238.367188 Z M 660.894531 260.015625 "/>
<path style=" stroke:none;fill-rule:nonzero;fill:rgb(74.901961%,74.901961%,74.901961%);fill-opacity:1;" d="M 660.894531 322.175781 L 647.21875 322.175781 L 647.21875 324.671875 L 664.449219 324.671875 L 664.449219 259.992188 L 660.894531 259.992188 Z M 660.894531 322.175781 "/>
<path style=" stroke:none;fill-rule:nonzero;fill:rgb(74.901961%,74.901961%,74.901961%);fill-opacity:1;" d="M 1048.890625 65.765625 L 1052.445312 65.765625 L 1052.445312 3.582031 L 1066.121094 3.582031 L 1066.121094 1.085938 L 1048.890625 1.085938 Z M 1048.890625 65.765625 "/>
<path style=" stroke:none;fill-rule:nonzero;fill:rgb(74.901961%,74.901961%,74.901961%);fill-opacity:1;" d="M 1048.890625 87.390625 L 1052.445312 87.390625 L 1052.445312 65.738281 L 1048.890625 65.738281 Z M 1048.890625 87.390625 "/>
<path style=" stroke:none;fill-rule:nonzero;fill:rgb(74.901961%,74.901961%,74.901961%);fill-opacity:1;" d="M 1048.890625 108.960938 L 1052.445312 108.960938 L 1052.445312 87.3125 L 1048.890625 87.3125 Z M 1048.890625 108.960938 "/>
<path style=" stroke:none;fill-rule:nonzero;fill:rgb(74.901961%,74.901961%,74.901961%);fill-opacity:1;" d="M 1048.890625 130.546875 L 1052.445312 130.546875 L 1052.445312 108.894531 L 1048.890625 108.894531 Z M 1048.890625 130.546875 "/>
<path style=" stroke:none;fill-rule:nonzero;fill:rgb(74.901961%,74.901961%,74.901961%);fill-opacity:1;" d="M 1048.890625 152.117188 L 1052.445312 152.117188 L 1052.445312 130.46875 L 1048.890625 130.46875 Z M 1048.890625 152.117188 "/>
<path style=" stroke:none;fill-rule:nonzero;fill:rgb(74.901961%,74.901961%,74.901961%);fill-opacity:1;" d="M 1048.890625 173.703125 L 1052.445312 173.703125 L 1052.445312 152.054688 L 1048.890625 152.054688 Z M 1048.890625 173.703125 "/>
<path style=" stroke:none;fill-rule:nonzero;fill:rgb(74.901961%,74.901961%,74.901961%);fill-opacity:1;" d="M 1048.890625 195.273438 L 1052.445312 195.273438 L 1052.445312 173.625 L 1048.890625 173.625 Z M 1048.890625 195.273438 "/>
<path style=" stroke:none;fill-rule:nonzero;fill:rgb(74.901961%,74.901961%,74.901961%);fill-opacity:1;" d="M 1048.890625 216.859375 L 1052.445312 216.859375 L 1052.445312 195.210938 L 1048.890625 195.210938 Z M 1048.890625 216.859375 "/>
<path style=" stroke:none;fill-rule:nonzero;fill:rgb(74.901961%,74.901961%,74.901961%);fill-opacity:1;" d="M 1048.890625 238.433594 L 1052.445312 238.433594 L 1052.445312 216.78125 L 1048.890625 216.78125 Z M 1048.890625 238.433594 "/>
<path style=" stroke:none;fill-rule:nonzero;fill:rgb(74.901961%,74.901961%,74.901961%);fill-opacity:1;" d="M 1048.890625 260.015625 L 1052.445312 260.015625 L 1052.445312 238.367188 L 1048.890625 238.367188 Z M 1048.890625 260.015625 "/>
<path style=" stroke:none;fill-rule:nonzero;fill:rgb(74.901961%,74.901961%,74.901961%);fill-opacity:1;" d="M 1048.890625 324.671875 L 1066.121094 324.671875 L 1066.121094 322.175781 L 1052.445312 322.175781 L 1052.445312 259.992188 L 1048.890625 259.992188 Z M 1048.890625 324.671875 "/>
<path style=" stroke:none;fill-rule:nonzero;fill:rgb(74.901961%,74.901961%,74.901961%);fill-opacity:1;" d="M 1095.179688 85.15625 L 1095.179688 86.652344 C 1098.507812 86.652344 1101.871094 86.449219 1105.066406 85.722656 L 1105.066406 113.539062 L 1104.9375 114.105469 L 1104.1875 114.265625 L 1095.539062 114.265625 L 1095.539062 115.832031 L 1121.546875 115.832031 L 1121.546875 114.3125 L 1113.585938 114.3125 C 1112.769531 114.3125 1112.085938 114.21875 1112.085938 113.585938 L 1112.085938 82.503906 C 1112.085938 82.253906 1112.085938 81.847656 1111.5625 81.847656 C 1110.453125 81.847656 1109.113281 82.9375 1107.90625 83.34375 C 1104.023438 84.792969 1099.550781 85.15625 1095.179688 85.15625 Z M 1095.179688 85.15625 "/>
<path style=" stroke:none;fill-rule:nonzero;fill:rgb(74.901961%,74.901961%,74.901961%);fill-opacity:1;" d="M 1159.664062 77.019531 C 1158.847656 77.222656 1158.324219 78.742188 1157.964844 79.511719 C 1149.089844 94.996094 1141.09375 110.640625 1132.21875 126.078125 L 1131.5625 127.371094 C 1131.402344 127.574219 1131.269531 127.84375 1131.171875 128.09375 C 1131.171875 128.414062 1131.5625 128.730469 1131.988281 128.730469 L 1132.152344 128.730469 C 1132.675781 128.660156 1132.902344 128.367188 1133.03125 128.050781 L 1134.175781 126.03125 C 1142.59375 110.390625 1151.242188 94.835938 1159.957031 79.261719 L 1160.480469 78.265625 C 1160.578125 78.0625 1160.773438 77.859375 1160.773438 77.585938 C 1160.773438 77.222656 1160.347656 77.019531 1159.890625 77.019531 Z M 1159.664062 77.019531 "/>
<path style=" stroke:none;fill-rule:nonzero;fill:rgb(74.901961%,74.901961%,74.901961%);fill-opacity:1;" d="M 1187.113281 119.277344 C 1188.746094 119.277344 1188.777344 119.230469 1189.300781 118.550781 L 1217.628906 77.496094 C 1217.988281 77.019531 1217.988281 76.953125 1217.988281 76.839844 C 1217.988281 76.453125 1217.5625 76.136719 1216.941406 76.136719 C 1216.257812 76.136719 1216.0625 76.453125 1215.800781 76.839844 L 1189.105469 115.535156 L 1178.074219 97.695312 L 1170.863281 101.546875 L 1171.644531 102.117188 L 1175.332031 100.1875 Z M 1187.113281 119.277344 "/>
<path style="fill:none;stroke-width:9.99;stroke-linecap:butt;stroke-linejoin:miter;stroke:rgb(74.901961%,74.901961%,74.901961%);stroke-opacity:1;stroke-miterlimit:10;" d="M 5826.397115 1710.396154 L 6009.376731 1710.396154 " transform="matrix(0.208869,0,0,-0.145089,0,325)"/>
<path style=" stroke:none;fill-rule:nonzero;fill:rgb(74.901961%,74.901961%,74.901961%);fill-opacity:1;" d="M 1223.054688 88.46875 C 1224.785156 85.316406 1228.898438 83.34375 1233.433594 83.34375 C 1239.699219 83.34375 1243.8125 87.175781 1243.8125 91.367188 L 1243.8125 91.9375 C 1243.355469 96.71875 1238.722656 100.484375 1234.316406 103.90625 C 1230.59375 106.808594 1226.808594 109.753906 1223.054688 112.65625 L 1221.652344 113.746094 C 1221.066406 114.175781 1220.675781 114.46875 1220.675781 115.035156 C 1220.675781 115.308594 1220.773438 115.558594 1220.773438 115.832031 L 1249.558594 115.832031 L 1251.253906 105.832031 L 1249.328125 105.832031 C 1248.9375 107.851562 1249.035156 110.683594 1246.195312 110.683594 C 1244.335938 110.84375 1242.378906 110.910156 1240.515625 110.910156 C 1238.589844 110.910156 1236.730469 110.84375 1234.839844 110.84375 L 1227.460938 110.84375 C 1230.757812 108.734375 1233.957031 106.445312 1237.382812 104.425781 L 1241.855469 101.773438 C 1246.488281 99.03125 1251.253906 96.039062 1251.253906 91.324219 L 1251.253906 90.800781 C 1250.503906 85 1243.289062 81.847656 1235.296875 81.847656 C 1228.277344 81.847656 1220.773438 85.203125 1220.773438 90.800781 C 1220.773438 92.617188 1222.46875 93.589844 1224.558594 93.589844 C 1226.417969 93.589844 1228.375 92.660156 1228.375 91.007812 C 1228.375 89.511719 1226.808594 88.308594 1224.625 88.308594 C 1224.101562 88.308594 1223.578125 88.375 1223.054688 88.46875 Z M 1223.054688 88.46875 "/>
<path style=" stroke:none;fill-rule:nonzero;fill:rgb(74.901961%,74.901961%,74.901961%);fill-opacity:1;" d="M 1095.179688 241.855469 L 1095.179688 243.351562 C 1098.507812 243.351562 1101.871094 243.144531 1105.070312 242.421875 L 1105.070312 270.238281 L 1104.9375 270.804688 L 1104.1875 270.960938 L 1095.539062 270.960938 L 1095.539062 272.527344 L 1121.550781 272.527344 L 1121.550781 271.007812 L 1113.585938 271.007812 C 1112.769531 271.007812 1112.085938 270.917969 1112.085938 270.28125 L 1112.085938 239.203125 C 1112.085938 238.953125 1112.085938 238.542969 1111.5625 238.542969 C 1110.453125 238.542969 1109.117188 239.632812 1107.90625 240.039062 C 1104.023438 241.492188 1099.554688 241.855469 1095.179688 241.855469 Z M 1095.179688 241.855469 "/>
<path style=" stroke:none;fill-rule:nonzero;fill:rgb(74.901961%,74.901961%,74.901961%);fill-opacity:1;" d="M 1159.664062 233.714844 C 1158.847656 233.917969 1158.328125 235.4375 1157.96875 236.210938 C 1149.089844 251.691406 1141.09375 267.335938 1132.21875 282.773438 L 1131.566406 284.066406 C 1131.402344 284.269531 1131.269531 284.542969 1131.171875 284.792969 C 1131.171875 285.109375 1131.566406 285.425781 1131.988281 285.425781 L 1132.152344 285.425781 C 1132.675781 285.359375 1132.902344 285.0625 1133.035156 284.746094 L 1134.175781 282.726562 C 1142.597656 267.085938 1151.246094 251.535156 1159.957031 235.960938 L 1160.480469 234.960938 C 1160.578125 234.757812 1160.773438 234.554688 1160.773438 234.28125 C 1160.773438 233.917969 1160.351562 233.714844 1159.894531 233.714844 Z M 1159.664062 233.714844 "/>
<path style=" stroke:none;fill-rule:nonzero;fill:rgb(74.901961%,74.901961%,74.901961%);fill-opacity:1;" d="M 1187.113281 275.972656 C 1188.746094 275.972656 1188.78125 275.925781 1189.300781 275.246094 L 1217.628906 234.191406 C 1217.988281 233.714844 1217.988281 233.648438 1217.988281 233.535156 C 1217.988281 233.148438 1217.5625 232.832031 1216.945312 232.832031 C 1216.257812 232.832031 1216.0625 233.148438 1215.800781 233.535156 L 1189.105469 272.234375 L 1178.074219 254.390625 L 1170.863281 258.246094 L 1171.644531 258.8125 L 1175.332031 256.882812 Z M 1187.113281 275.972656 "/>
<path style="fill:none;stroke-width:9.99;stroke-linecap:butt;stroke-linejoin:miter;stroke:rgb(74.901961%,74.901961%,74.901961%);stroke-opacity:1;stroke-miterlimit:10;" d="M 5826.397115 630.403846 L 6009.376731 630.403846 " transform="matrix(0.208869,0,0,-0.145089,0,325)"/>
<path style=" stroke:none;fill-rule:nonzero;fill:rgb(74.901961%,74.901961%,74.901961%);fill-opacity:1;" d="M 1223.054688 245.164062 C 1224.785156 242.011719 1228.898438 240.039062 1233.433594 240.039062 C 1239.699219 240.039062 1243.8125 243.871094 1243.8125 248.066406 L 1243.8125 248.632812 C 1243.355469 253.414062 1238.722656 257.179688 1234.316406 260.601562 C 1230.59375 263.503906 1226.808594 266.449219 1223.054688 269.351562 L 1221.652344 270.441406 C 1221.066406 270.871094 1220.675781 271.167969 1220.675781 271.734375 C 1220.675781 272.003906 1220.773438 272.253906 1220.773438 272.527344 L 1249.558594 272.527344 L 1251.253906 262.527344 L 1249.328125 262.527344 C 1248.9375 264.546875 1249.035156 267.378906 1246.195312 267.378906 C 1244.335938 267.539062 1242.378906 267.605469 1240.515625 267.605469 C 1238.589844 267.605469 1236.730469 267.539062 1234.839844 267.539062 L 1227.460938 267.539062 C 1230.757812 265.429688 1233.957031 263.140625 1237.382812 261.125 L 1241.855469 258.472656 C 1246.488281 255.726562 1251.253906 252.734375 1251.253906 248.019531 L 1251.253906 247.5 C 1250.503906 241.695312 1243.289062 238.542969 1235.296875 238.542969 C 1228.277344 238.542969 1220.773438 241.898438 1220.773438 247.5 C 1220.773438 249.3125 1222.46875 250.285156 1224.558594 250.285156 C 1226.417969 250.285156 1228.375 249.355469 1228.375 247.703125 C 1228.375 246.207031 1226.808594 245.003906 1224.625 245.003906 C 1224.101562 245.003906 1223.578125 245.074219 1223.054688 245.164062 Z M 1223.054688 245.164062 "/>
<path style=" stroke:none;fill-rule:nonzero;fill:rgb(74.901961%,74.901961%,74.901961%);fill-opacity:1;" d="M 1294.675781 65.765625 L 1298.234375 65.765625 L 1298.234375 1.085938 L 1281 1.085938 L 1281 3.582031 L 1294.675781 3.582031 Z M 1294.675781 65.765625 "/>
<path style=" stroke:none;fill-rule:nonzero;fill:rgb(74.901961%,74.901961%,74.901961%);fill-opacity:1;" d="M 1294.675781 87.390625 L 1298.234375 87.390625 L 1298.234375 65.738281 L 1294.675781 65.738281 Z M 1294.675781 87.390625 "/>
<path style=" stroke:none;fill-rule:nonzero;fill:rgb(74.901961%,74.901961%,74.901961%);fill-opacity:1;" d="M 1294.675781 108.960938 L 1298.234375 108.960938 L 1298.234375 87.3125 L 1294.675781 87.3125 Z M 1294.675781 108.960938 "/>
<path style=" stroke:none;fill-rule:nonzero;fill:rgb(74.901961%,74.901961%,74.901961%);fill-opacity:1;" d="M 1294.675781 130.546875 L 1298.234375 130.546875 L 1298.234375 108.894531 L 1294.675781 108.894531 Z M 1294.675781 130.546875 "/>
<path style=" stroke:none;fill-rule:nonzero;fill:rgb(74.901961%,74.901961%,74.901961%);fill-opacity:1;" d="M 1294.675781 152.117188 L 1298.234375 152.117188 L 1298.234375 130.46875 L 1294.675781 130.46875 Z M 1294.675781 152.117188 "/>
<path style=" stroke:none;fill-rule:nonzero;fill:rgb(74.901961%,74.901961%,74.901961%);fill-opacity:1;" d="M 1294.675781 173.703125 L 1298.234375 173.703125 L 1298.234375 152.054688 L 1294.675781 152.054688 Z M 1294.675781 173.703125 "/>
<path style=" stroke:none;fill-rule:nonzero;fill:rgb(74.901961%,74.901961%,74.901961%);fill-opacity:1;" d="M 1294.675781 195.273438 L 1298.234375 195.273438 L 1298.234375 173.625 L 1294.675781 173.625 Z M 1294.675781 195.273438 "/>
<path style=" stroke:none;fill-rule:nonzero;fill:rgb(74.901961%,74.901961%,74.901961%);fill-opacity:1;" d="M 1294.675781 216.859375 L 1298.234375 216.859375 L 1298.234375 195.210938 L 1294.675781 195.210938 Z M 1294.675781 216.859375 "/>
<path style=" stroke:none;fill-rule:nonzero;fill:rgb(74.901961%,74.901961%,74.901961%);fill-opacity:1;" d="M 1294.675781 238.433594 L 1298.234375 238.433594 L 1298.234375 216.78125 L 1294.675781 216.78125 Z M 1294.675781 238.433594 "/>
<path style=" stroke:none;fill-rule:nonzero;fill:rgb(74.901961%,74.901961%,74.901961%);fill-opacity:1;" d="M 1294.675781 260.015625 L 1298.234375 260.015625 L 1298.234375 238.367188 L 1294.675781 238.367188 Z M 1294.675781 260.015625 "/>
<path style=" stroke:none;fill-rule:nonzero;fill:rgb(74.901961%,74.901961%,74.901961%);fill-opacity:1;" d="M 1294.675781 322.175781 L 1281 322.175781 L 1281 324.671875 L 1298.234375 324.671875 L 1298.234375 259.992188 L 1294.675781 259.992188 Z M 1294.675781 322.175781 "/>
</g>
</svg>
