<?xml version="1.0" encoding="UTF-8"?>
<svg xmlns="http://www.w3.org/2000/svg" xmlns:xlink="http://www.w3.org/1999/xlink" width="200px" height="200px" viewBox="0 0 200 200" version="1.1">
<g id="surface1">
<path style=" stroke:none;fill-rule:nonzero;fill:rgb(74.901961%,74.901961%,74.901961%);fill-opacity:1;" d="M 77.039062 8.207031 C 78.097656 5.34375 78.097656 4.953125 78.097656 4.300781 C 78.097656 2.867188 77.28125 0.132812 75.492188 0.132812 C 73.945312 0.132812 73.539062 1.4375 72.644531 4.300781 L 14.703125 184.640625 C 13.644531 187.503906 13.644531 187.894531 13.644531 188.546875 C 13.644531 190.238281 14.621094 192.710938 16.246094 192.710938 C 17.792969 192.710938 18.199219 191.410156 19.097656 188.546875 Z M 77.039062 8.207031 "/>
<path style=" stroke:none;fill-rule:nonzero;fill:rgb(74.901961%,74.901961%,74.901961%);fill-opacity:1;" d="M 78.746094 81.773438 C 80.699219 81.773438 82.574219 81.773438 82.574219 78.257812 C 82.574219 74.484375 80.375 74.484375 78.179688 74.484375 L 6.074219 74.484375 C 3.878906 74.484375 1.679688 74.484375 1.679688 78.257812 C 1.679688 81.773438 3.632812 81.773438 5.585938 81.773438 Z M 78.179688 118.492188 C 80.375 118.492188 82.574219 118.492188 82.574219 114.847656 C 82.574219 111.332031 80.699219 111.332031 78.746094 111.332031 L 5.585938 111.332031 C 3.632812 111.332031 1.679688 111.332031 1.679688 114.847656 C 1.679688 118.492188 3.878906 118.492188 6.074219 118.492188 Z M 78.179688 118.492188 "/>
<path style=" stroke:none;fill-rule:nonzero;fill:rgb(74.901961%,74.901961%,74.901961%);fill-opacity:1;" d="M 164.382812 19.40625 C 161.125 4.691406 150.953125 4.691406 149.328125 4.691406 C 148.511719 4.691406 147.128906 4.691406 147.128906 6.773438 C 147.128906 8.46875 147.863281 8.597656 148.511719 8.859375 C 150.464844 9.25 152.011719 9.640625 154.046875 15.628906 C 155.347656 19.664062 168.613281 81.382812 168.613281 81.773438 C 168.613281 81.90625 168.53125 82.164062 167.472656 83.859375 L 133.945312 138.15625 C 132.398438 140.628906 131.339844 142.320312 131.339844 144.925781 C 131.339844 147.789062 132.886719 150.265625 134.921875 150.265625 C 135.492188 150.265625 136.875 149.875 137.6875 148.703125 C 139.722656 145.578125 158.195312 109.378906 169.914062 87.113281 C 173.332031 103.257812 177.402344 122.269531 181.390625 139.585938 C 182.042969 142.710938 182.691406 145.578125 184.484375 148.3125 C 185.785156 150.132812 186.109375 150.132812 189.691406 150.132812 L 192.132812 150.132812 C 192.621094 150.132812 193.597656 150.132812 193.597656 148.441406 C 193.597656 147.660156 193.433594 147.398438 192.945312 146.617188 C 191.726562 144.273438 190.832031 140.628906 190.34375 138.15625 Z M 164.382812 19.40625 "/>
</g>
</svg>
