<?xml version="1.0" encoding="UTF-8"?>
<svg xmlns="http://www.w3.org/2000/svg" xmlns:xlink="http://www.w3.org/1999/xlink" width="1445px" height="200px" viewBox="0 0 1445 200" version="1.1">
<g id="surface1">
<path style=" stroke:none;fill-rule:nonzero;fill:rgb(74.901961%,74.901961%,74.901961%);fill-opacity:1;" d="M 2.152344 40.472656 L 6.558594 40.472656 L 6.558594 2.203125 L 23.5 2.203125 L 23.5 0.667969 L 2.152344 0.667969 Z M 2.152344 40.472656 "/>
<path style=" stroke:none;fill-rule:nonzero;fill:rgb(74.901961%,74.901961%,74.901961%);fill-opacity:1;" d="M 2.152344 53.777344 L 6.558594 53.777344 L 6.558594 40.457031 L 2.152344 40.457031 Z M 2.152344 53.777344 "/>
<path style=" stroke:none;fill-rule:nonzero;fill:rgb(74.901961%,74.901961%,74.901961%);fill-opacity:1;" d="M 2.152344 67.054688 L 6.558594 67.054688 L 6.558594 53.730469 L 2.152344 53.730469 Z M 2.152344 67.054688 "/>
<path style=" stroke:none;fill-rule:nonzero;fill:rgb(74.901961%,74.901961%,74.901961%);fill-opacity:1;" d="M 2.152344 80.335938 L 6.558594 80.335938 L 6.558594 67.011719 L 2.152344 67.011719 Z M 2.152344 80.335938 "/>
<path style=" stroke:none;fill-rule:nonzero;fill:rgb(74.901961%,74.901961%,74.901961%);fill-opacity:1;" d="M 2.152344 93.609375 L 6.558594 93.609375 L 6.558594 80.289062 L 2.152344 80.289062 Z M 2.152344 93.609375 "/>
<path style=" stroke:none;fill-rule:nonzero;fill:rgb(74.901961%,74.901961%,74.901961%);fill-opacity:1;" d="M 2.152344 106.894531 L 6.558594 106.894531 L 6.558594 93.570312 L 2.152344 93.570312 Z M 2.152344 106.894531 "/>
<path style=" stroke:none;fill-rule:nonzero;fill:rgb(74.901961%,74.901961%,74.901961%);fill-opacity:1;" d="M 2.152344 120.167969 L 6.558594 120.167969 L 6.558594 106.847656 L 2.152344 106.847656 Z M 2.152344 120.167969 "/>
<path style=" stroke:none;fill-rule:nonzero;fill:rgb(74.901961%,74.901961%,74.901961%);fill-opacity:1;" d="M 2.152344 133.453125 L 6.558594 133.453125 L 6.558594 120.128906 L 2.152344 120.128906 Z M 2.152344 133.453125 "/>
<path style=" stroke:none;fill-rule:nonzero;fill:rgb(74.901961%,74.901961%,74.901961%);fill-opacity:1;" d="M 2.152344 146.726562 L 6.558594 146.726562 L 6.558594 133.40625 L 2.152344 133.40625 Z M 2.152344 146.726562 "/>
<path style=" stroke:none;fill-rule:nonzero;fill:rgb(74.901961%,74.901961%,74.901961%);fill-opacity:1;" d="M 2.152344 160.011719 L 6.558594 160.011719 L 6.558594 146.6875 L 2.152344 146.6875 Z M 2.152344 160.011719 "/>
<path style=" stroke:none;fill-rule:nonzero;fill:rgb(74.901961%,74.901961%,74.901961%);fill-opacity:1;" d="M 2.152344 199.796875 L 23.5 199.796875 L 23.5 198.261719 L 6.558594 198.261719 L 6.558594 159.996094 L 2.152344 159.996094 Z M 2.152344 199.796875 "/>
<path style=" stroke:none;fill-rule:nonzero;fill:rgb(74.901961%,74.901961%,74.901961%);fill-opacity:1;" d="M 63.53125 52.40625 L 63.53125 53.324219 C 67.652344 53.324219 71.816406 53.199219 75.78125 52.753906 L 75.78125 69.871094 L 75.617188 70.21875 L 74.6875 70.316406 L 63.972656 70.316406 L 63.972656 71.28125 L 96.199219 71.28125 L 96.199219 70.34375 L 86.332031 70.34375 C 85.324219 70.34375 84.472656 70.289062 84.472656 69.898438 L 84.472656 50.773438 C 84.472656 50.617188 84.472656 50.367188 83.828125 50.367188 C 82.453125 50.367188 80.792969 51.039062 79.296875 51.289062 C 74.488281 52.179688 68.949219 52.40625 63.53125 52.40625 Z M 63.53125 52.40625 "/>
<path style=" stroke:none;fill-rule:nonzero;fill:rgb(74.901961%,74.901961%,74.901961%);fill-opacity:1;" d="M 367.378906 50.367188 C 349.546875 51.039062 348.898438 57.121094 348.898438 61.429688 C 348.898438 65.253906 350.113281 71.65625 368.953125 71.65625 C 382.90625 71.65625 388.726562 67.414062 388.726562 62.128906 L 388.726562 60.273438 C 388.726562 55.976562 385.613281 50.324219 369.078125 50.324219 C 368.511719 50.324219 367.945312 50.324219 367.378906 50.367188 Z M 357.796875 63.078125 C 357.675781 62.824219 357.675781 62.574219 357.675781 62.324219 C 357.675781 60.371094 357.675781 58.429688 358.078125 56.476562 C 358.238281 55.238281 358.523438 53.839844 360.464844 52.753906 C 362.40625 51.734375 365.640625 51.136719 368.953125 51.136719 C 379.023438 51.136719 379.871094 55.277344 379.871094 58.429688 L 379.871094 60.273438 C 379.871094 61.164062 379.953125 62.15625 379.953125 63.175781 C 379.953125 65.253906 379.589844 67.414062 377.566406 68.921875 C 375.789062 70.039062 372.472656 70.929688 368.792969 70.929688 L 368.589844 70.929688 C 362.769531 70.929688 359.453125 68.949219 358.726562 67.191406 C 357.957031 65.824219 358.160156 64.457031 357.796875 63.078125 Z M 357.796875 63.078125 "/>
<path style=" stroke:none;fill-rule:nonzero;fill:rgb(74.901961%,74.901961%,74.901961%);fill-opacity:1;" d="M 91.484375 146.796875 C 73.65625 147.464844 73.007812 153.546875 73.007812 157.859375 C 73.007812 161.683594 74.222656 168.085938 93.0625 168.085938 C 107.011719 168.085938 112.835938 163.84375 112.835938 158.558594 L 112.835938 156.703125 C 112.835938 152.40625 109.722656 146.753906 93.183594 146.753906 C 92.617188 146.753906 92.050781 146.753906 91.484375 146.796875 Z M 81.902344 159.503906 C 81.78125 159.253906 81.78125 159.003906 81.78125 158.753906 C 81.78125 156.800781 81.78125 154.859375 82.1875 152.90625 C 82.347656 151.664062 82.632812 150.269531 84.570312 149.183594 C 86.511719 148.164062 89.746094 147.5625 93.0625 147.5625 C 103.132812 147.5625 103.980469 151.707031 103.980469 154.859375 L 103.980469 156.703125 C 103.980469 157.59375 104.0625 158.585938 104.0625 159.601562 C 104.0625 161.683594 103.695312 163.84375 101.675781 165.351562 C 99.894531 166.46875 96.582031 167.359375 92.902344 167.359375 L 92.699219 167.359375 C 86.875 167.359375 83.5625 165.378906 82.832031 163.621094 C 82.066406 162.253906 82.265625 160.886719 81.902344 159.503906 Z M 81.902344 159.503906 "/>
<path style=" stroke:none;fill-rule:nonzero;fill:rgb(74.901961%,74.901961%,74.901961%);fill-opacity:1;" d="M 330.441406 159.421875 L 330.441406 161.808594 L 355.671875 161.808594 L 355.671875 159.421875 Z M 330.441406 159.421875 "/>
<path style=" stroke:none;fill-rule:nonzero;fill:rgb(74.901961%,74.901961%,74.901961%);fill-opacity:1;" d="M 368.984375 148.832031 L 368.984375 149.753906 C 373.109375 149.753906 377.273438 149.628906 381.234375 149.183594 L 381.234375 166.300781 L 381.074219 166.648438 L 380.144531 166.746094 L 369.429688 166.746094 L 369.429688 167.707031 L 401.65625 167.707031 L 401.65625 166.773438 L 391.789062 166.773438 C 390.777344 166.773438 389.929688 166.71875 389.929688 166.328125 L 389.929688 147.199219 C 389.929688 147.046875 389.929688 146.796875 389.28125 146.796875 C 387.90625 146.796875 386.25 147.464844 384.753906 147.71875 C 379.941406 148.609375 374.402344 148.832031 368.984375 148.832031 Z M 368.984375 148.832031 "/>
<path style=" stroke:none;fill-rule:nonzero;fill:rgb(74.901961%,74.901961%,74.901961%);fill-opacity:1;" d="M 457.324219 40.472656 L 461.730469 40.472656 L 461.730469 0.667969 L 440.382812 0.667969 L 440.382812 2.203125 L 457.324219 2.203125 Z M 457.324219 40.472656 "/>
<path style=" stroke:none;fill-rule:nonzero;fill:rgb(74.901961%,74.901961%,74.901961%);fill-opacity:1;" d="M 457.324219 53.777344 L 461.730469 53.777344 L 461.730469 40.457031 L 457.324219 40.457031 Z M 457.324219 53.777344 "/>
<path style=" stroke:none;fill-rule:nonzero;fill:rgb(74.901961%,74.901961%,74.901961%);fill-opacity:1;" d="M 457.324219 67.054688 L 461.730469 67.054688 L 461.730469 53.730469 L 457.324219 53.730469 Z M 457.324219 67.054688 "/>
<path style=" stroke:none;fill-rule:nonzero;fill:rgb(74.901961%,74.901961%,74.901961%);fill-opacity:1;" d="M 457.324219 80.335938 L 461.730469 80.335938 L 461.730469 67.011719 L 457.324219 67.011719 Z M 457.324219 80.335938 "/>
<path style=" stroke:none;fill-rule:nonzero;fill:rgb(74.901961%,74.901961%,74.901961%);fill-opacity:1;" d="M 457.324219 93.613281 L 461.730469 93.613281 L 461.730469 80.289062 L 457.324219 80.289062 Z M 457.324219 93.613281 "/>
<path style=" stroke:none;fill-rule:nonzero;fill:rgb(74.901961%,74.901961%,74.901961%);fill-opacity:1;" d="M 457.324219 106.894531 L 461.730469 106.894531 L 461.730469 93.570312 L 457.324219 93.570312 Z M 457.324219 106.894531 "/>
<path style=" stroke:none;fill-rule:nonzero;fill:rgb(74.901961%,74.901961%,74.901961%);fill-opacity:1;" d="M 457.324219 120.167969 L 461.730469 120.167969 L 461.730469 106.847656 L 457.324219 106.847656 Z M 457.324219 120.167969 "/>
<path style=" stroke:none;fill-rule:nonzero;fill:rgb(74.901961%,74.901961%,74.901961%);fill-opacity:1;" d="M 457.324219 133.453125 L 461.730469 133.453125 L 461.730469 120.128906 L 457.324219 120.128906 Z M 457.324219 133.453125 "/>
<path style=" stroke:none;fill-rule:nonzero;fill:rgb(74.901961%,74.901961%,74.901961%);fill-opacity:1;" d="M 457.324219 146.726562 L 461.730469 146.726562 L 461.730469 133.40625 L 457.324219 133.40625 Z M 457.324219 146.726562 "/>
<path style=" stroke:none;fill-rule:nonzero;fill:rgb(74.901961%,74.901961%,74.901961%);fill-opacity:1;" d="M 457.324219 160.011719 L 461.730469 160.011719 L 461.730469 146.6875 L 457.324219 146.6875 Z M 457.324219 160.011719 "/>
<path style=" stroke:none;fill-rule:nonzero;fill:rgb(74.901961%,74.901961%,74.901961%);fill-opacity:1;" d="M 457.324219 198.261719 L 440.382812 198.261719 L 440.382812 199.796875 L 461.730469 199.796875 L 461.730469 159.996094 L 457.324219 159.996094 Z M 457.324219 198.261719 "/>
<path style=" stroke:none;fill-rule:nonzero;fill:rgb(74.901961%,74.901961%,74.901961%);fill-opacity:1;" d="M 514.292969 40.472656 L 518.699219 40.472656 L 518.699219 2.203125 L 535.640625 2.203125 L 535.640625 0.667969 L 514.292969 0.667969 Z M 514.292969 40.472656 "/>
<path style=" stroke:none;fill-rule:nonzero;fill:rgb(74.901961%,74.901961%,74.901961%);fill-opacity:1;" d="M 514.292969 53.777344 L 518.699219 53.777344 L 518.699219 40.457031 L 514.292969 40.457031 Z M 514.292969 53.777344 "/>
<path style=" stroke:none;fill-rule:nonzero;fill:rgb(74.901961%,74.901961%,74.901961%);fill-opacity:1;" d="M 514.292969 67.054688 L 518.699219 67.054688 L 518.699219 53.730469 L 514.292969 53.730469 Z M 514.292969 67.054688 "/>
<path style=" stroke:none;fill-rule:nonzero;fill:rgb(74.901961%,74.901961%,74.901961%);fill-opacity:1;" d="M 514.292969 80.335938 L 518.699219 80.335938 L 518.699219 67.011719 L 514.292969 67.011719 Z M 514.292969 80.335938 "/>
<path style=" stroke:none;fill-rule:nonzero;fill:rgb(74.901961%,74.901961%,74.901961%);fill-opacity:1;" d="M 514.292969 93.613281 L 518.699219 93.613281 L 518.699219 80.289062 L 514.292969 80.289062 Z M 514.292969 93.613281 "/>
<path style=" stroke:none;fill-rule:nonzero;fill:rgb(74.901961%,74.901961%,74.901961%);fill-opacity:1;" d="M 514.292969 106.894531 L 518.699219 106.894531 L 518.699219 93.570312 L 514.292969 93.570312 Z M 514.292969 106.894531 "/>
<path style=" stroke:none;fill-rule:nonzero;fill:rgb(74.901961%,74.901961%,74.901961%);fill-opacity:1;" d="M 514.292969 120.167969 L 518.699219 120.167969 L 518.699219 106.847656 L 514.292969 106.847656 Z M 514.292969 120.167969 "/>
<path style=" stroke:none;fill-rule:nonzero;fill:rgb(74.901961%,74.901961%,74.901961%);fill-opacity:1;" d="M 514.292969 133.453125 L 518.699219 133.453125 L 518.699219 120.128906 L 514.292969 120.128906 Z M 514.292969 133.453125 "/>
<path style=" stroke:none;fill-rule:nonzero;fill:rgb(74.901961%,74.901961%,74.901961%);fill-opacity:1;" d="M 514.292969 146.726562 L 518.699219 146.726562 L 518.699219 133.40625 L 514.292969 133.40625 Z M 514.292969 146.726562 "/>
<path style=" stroke:none;fill-rule:nonzero;fill:rgb(74.901961%,74.901961%,74.901961%);fill-opacity:1;" d="M 514.292969 160.011719 L 518.699219 160.011719 L 518.699219 146.6875 L 514.292969 146.6875 Z M 514.292969 160.011719 "/>
<path style=" stroke:none;fill-rule:nonzero;fill:rgb(74.901961%,74.901961%,74.901961%);fill-opacity:1;" d="M 514.292969 199.796875 L 535.640625 199.796875 L 535.640625 198.261719 L 518.699219 198.261719 L 518.699219 159.996094 L 514.292969 159.996094 Z M 514.292969 199.796875 "/>
<path style=" stroke:none;fill-rule:nonzero;fill:rgb(74.901961%,74.901961%,74.901961%);fill-opacity:1;" d="M 571.667969 52.40625 L 571.667969 53.324219 C 575.789062 53.324219 579.953125 53.199219 583.917969 52.753906 L 583.917969 69.871094 L 583.753906 70.21875 L 582.824219 70.316406 L 572.109375 70.316406 L 572.109375 71.28125 L 604.335938 71.28125 L 604.335938 70.34375 L 594.472656 70.34375 C 593.460938 70.34375 592.609375 70.289062 592.609375 69.898438 L 592.609375 50.773438 C 592.609375 50.617188 592.609375 50.367188 591.964844 50.367188 C 590.589844 50.367188 588.929688 51.039062 587.433594 51.289062 C 582.625 52.179688 577.085938 52.40625 571.667969 52.40625 Z M 571.667969 52.40625 "/>
<path style=" stroke:none;fill-rule:nonzero;fill:rgb(74.901961%,74.901961%,74.901961%);fill-opacity:1;" d="M 651.558594 47.394531 C 650.546875 47.523438 649.902344 48.457031 649.457031 48.929688 C 638.457031 58.460938 628.550781 68.085938 617.554688 77.585938 L 616.746094 78.382812 C 616.542969 78.507812 616.382812 78.675781 616.261719 78.828125 C 616.261719 79.023438 616.746094 79.21875 617.269531 79.21875 L 617.472656 79.21875 C 618.121094 79.175781 618.402344 78.996094 618.566406 78.800781 L 619.980469 77.558594 C 630.410156 67.933594 641.125 58.363281 651.921875 48.777344 L 652.570312 48.164062 C 652.691406 48.039062 652.933594 47.914062 652.933594 47.746094 C 652.933594 47.523438 652.40625 47.394531 651.839844 47.394531 Z M 651.558594 47.394531 "/>
<path style=" stroke:none;fill-rule:nonzero;fill:rgb(74.901961%,74.901961%,74.901961%);fill-opacity:1;" d="M 685.546875 73.402344 C 687.566406 73.402344 687.609375 73.375 688.253906 72.953125 L 723.351562 47.691406 C 723.796875 47.398438 723.796875 47.355469 723.796875 47.285156 C 723.796875 47.046875 723.269531 46.851562 722.5 46.851562 C 721.652344 46.851562 721.410156 47.046875 721.085938 47.285156 L 688.011719 71.097656 L 674.34375 60.121094 L 665.410156 62.492188 L 666.378906 62.839844 L 670.949219 61.65625 Z M 685.546875 73.402344 "/>
<path style="fill:none;stroke-width:9.99;stroke-linecap:butt;stroke-linejoin:miter;stroke:rgb(74.901961%,74.901961%,74.901961%);stroke-opacity:1;stroke-miterlimit:10;" d="M 2792.03019 1710.40625 L 2975.043858 1710.40625 " transform="matrix(0.258775,0,0,-0.0892857,0,200)"/>
<path style=" stroke:none;fill-rule:nonzero;fill:rgb(74.901961%,74.901961%,74.901961%);fill-opacity:1;" d="M 730.074219 54.441406 C 732.21875 52.503906 737.3125 51.289062 742.933594 51.289062 C 750.695312 51.289062 755.789062 53.644531 755.789062 56.226562 L 755.789062 56.574219 C 755.222656 59.519531 749.480469 61.835938 744.023438 63.941406 C 739.414062 65.726562 734.722656 67.542969 730.074219 69.328125 L 728.335938 69.996094 C 727.609375 70.261719 727.121094 70.441406 727.121094 70.792969 C 727.121094 70.960938 727.242188 71.113281 727.242188 71.28125 L 762.90625 71.28125 L 765.007812 65.128906 L 762.625 65.128906 C 762.136719 66.371094 762.257812 68.113281 758.742188 68.113281 C 756.4375 68.210938 754.011719 68.253906 751.707031 68.253906 C 749.320312 68.253906 747.015625 68.210938 744.671875 68.210938 L 735.53125 68.210938 C 739.617188 66.914062 743.578125 65.503906 747.824219 64.261719 L 753.363281 62.628906 C 759.105469 60.941406 765.007812 59.101562 765.007812 56.199219 L 765.007812 55.878906 C 764.078125 52.308594 755.144531 50.367188 745.238281 50.367188 C 736.542969 50.367188 727.242188 52.433594 727.242188 55.878906 C 727.242188 56.996094 729.347656 57.59375 731.933594 57.59375 C 734.238281 57.59375 736.664062 57.023438 736.664062 56.003906 C 736.664062 55.082031 734.722656 54.34375 732.015625 54.34375 C 731.367188 54.34375 730.722656 54.386719 730.074219 54.441406 Z M 730.074219 54.441406 "/>
<path style=" stroke:none;fill-rule:nonzero;fill:rgb(74.901961%,74.901961%,74.901961%);fill-opacity:1;" d="M 571.664062 148.832031 L 571.664062 149.753906 C 575.789062 149.753906 579.953125 149.628906 583.917969 149.183594 L 583.917969 166.300781 L 583.753906 166.648438 L 582.824219 166.746094 L 572.109375 166.746094 L 572.109375 167.707031 L 604.335938 167.707031 L 604.335938 166.773438 L 594.46875 166.773438 C 593.457031 166.773438 592.609375 166.71875 592.609375 166.328125 L 592.609375 147.199219 C 592.609375 147.046875 592.609375 146.796875 591.964844 146.796875 C 590.589844 146.796875 588.929688 147.464844 587.433594 147.71875 C 582.621094 148.609375 577.082031 148.832031 571.664062 148.832031 Z M 571.664062 148.832031 "/>
<path style=" stroke:none;fill-rule:nonzero;fill:rgb(74.901961%,74.901961%,74.901961%);fill-opacity:1;" d="M 651.558594 143.824219 C 650.546875 143.949219 649.898438 144.886719 649.453125 145.359375 C 638.457031 154.886719 628.550781 164.515625 617.554688 174.015625 L 616.742188 174.808594 C 616.542969 174.933594 616.378906 175.101562 616.257812 175.257812 C 616.257812 175.453125 616.742188 175.648438 617.269531 175.648438 L 617.472656 175.648438 C 618.117188 175.605469 618.402344 175.421875 618.5625 175.226562 L 619.980469 173.988281 C 630.410156 164.359375 641.125 154.789062 651.921875 145.207031 L 652.566406 144.59375 C 652.691406 144.464844 652.933594 144.339844 652.933594 144.171875 C 652.933594 143.949219 652.40625 143.824219 651.839844 143.824219 Z M 651.558594 143.824219 "/>
<path style=" stroke:none;fill-rule:nonzero;fill:rgb(74.901961%,74.901961%,74.901961%);fill-opacity:1;" d="M 685.542969 169.828125 C 687.566406 169.828125 687.605469 169.800781 688.253906 169.382812 L 723.351562 144.117188 C 723.792969 143.824219 723.792969 143.785156 723.792969 143.714844 C 723.792969 143.476562 723.269531 143.28125 722.5 143.28125 C 721.652344 143.28125 721.410156 143.476562 721.085938 143.714844 L 688.011719 167.527344 L 674.34375 156.546875 L 665.410156 158.921875 L 666.378906 159.269531 L 670.949219 158.082031 Z M 685.542969 169.828125 "/>
<path style="fill:none;stroke-width:9.99;stroke-linecap:butt;stroke-linejoin:miter;stroke:rgb(74.901961%,74.901961%,74.901961%);stroke-opacity:1;stroke-miterlimit:10;" d="M 2792.03019 630.39375 L 2975.043858 630.39375 " transform="matrix(0.258775,0,0,-0.0892857,0,200)"/>
<path style=" stroke:none;fill-rule:nonzero;fill:rgb(74.901961%,74.901961%,74.901961%);fill-opacity:1;" d="M 730.074219 150.871094 C 732.21875 148.929688 737.3125 147.71875 742.933594 147.71875 C 750.695312 147.71875 755.789062 150.074219 755.789062 152.65625 L 755.789062 153.003906 C 755.222656 155.949219 749.480469 158.265625 744.023438 160.371094 C 739.414062 162.15625 734.722656 163.96875 730.074219 165.753906 L 728.335938 166.425781 C 727.609375 166.691406 727.121094 166.871094 727.121094 167.21875 C 727.121094 167.386719 727.242188 167.542969 727.242188 167.707031 L 762.90625 167.707031 L 765.007812 161.554688 L 762.625 161.554688 C 762.136719 162.796875 762.257812 164.542969 758.742188 164.542969 C 756.4375 164.640625 754.011719 164.679688 751.707031 164.679688 C 749.320312 164.679688 747.015625 164.640625 744.671875 164.640625 L 735.53125 164.640625 C 739.617188 163.34375 743.578125 161.933594 747.824219 160.691406 L 753.363281 159.058594 C 759.105469 157.371094 765.007812 155.53125 765.007812 152.628906 L 765.007812 152.308594 C 764.078125 148.734375 755.144531 146.796875 745.238281 146.796875 C 736.542969 146.796875 727.242188 148.859375 727.242188 152.308594 C 727.242188 153.421875 729.347656 154.023438 731.933594 154.023438 C 734.238281 154.023438 736.664062 153.449219 736.664062 152.433594 C 736.664062 151.511719 734.722656 150.773438 732.015625 150.773438 C 731.367188 150.773438 730.722656 150.8125 730.074219 150.871094 Z M 730.074219 150.871094 "/>
<path style=" stroke:none;fill-rule:nonzero;fill:rgb(74.901961%,74.901961%,74.901961%);fill-opacity:1;" d="M 818.804688 40.46875 L 823.210938 40.46875 L 823.210938 0.667969 L 801.863281 0.667969 L 801.863281 2.203125 L 818.804688 2.203125 Z M 818.804688 40.46875 "/>
<path style=" stroke:none;fill-rule:nonzero;fill:rgb(74.901961%,74.901961%,74.901961%);fill-opacity:1;" d="M 818.804688 53.777344 L 823.210938 53.777344 L 823.210938 40.453125 L 818.804688 40.453125 Z M 818.804688 53.777344 "/>
<path style=" stroke:none;fill-rule:nonzero;fill:rgb(74.901961%,74.901961%,74.901961%);fill-opacity:1;" d="M 818.804688 67.054688 L 823.210938 67.054688 L 823.210938 53.730469 L 818.804688 53.730469 Z M 818.804688 67.054688 "/>
<path style=" stroke:none;fill-rule:nonzero;fill:rgb(74.901961%,74.901961%,74.901961%);fill-opacity:1;" d="M 818.804688 80.335938 L 823.210938 80.335938 L 823.210938 67.011719 L 818.804688 67.011719 Z M 818.804688 80.335938 "/>
<path style=" stroke:none;fill-rule:nonzero;fill:rgb(74.901961%,74.901961%,74.901961%);fill-opacity:1;" d="M 818.804688 93.609375 L 823.210938 93.609375 L 823.210938 80.289062 L 818.804688 80.289062 Z M 818.804688 93.609375 "/>
<path style=" stroke:none;fill-rule:nonzero;fill:rgb(74.901961%,74.901961%,74.901961%);fill-opacity:1;" d="M 818.804688 106.894531 L 823.210938 106.894531 L 823.210938 93.570312 L 818.804688 93.570312 Z M 818.804688 106.894531 "/>
<path style=" stroke:none;fill-rule:nonzero;fill:rgb(74.901961%,74.901961%,74.901961%);fill-opacity:1;" d="M 818.804688 120.167969 L 823.210938 120.167969 L 823.210938 106.847656 L 818.804688 106.847656 Z M 818.804688 120.167969 "/>
<path style=" stroke:none;fill-rule:nonzero;fill:rgb(74.901961%,74.901961%,74.901961%);fill-opacity:1;" d="M 818.804688 133.453125 L 823.210938 133.453125 L 823.210938 120.128906 L 818.804688 120.128906 Z M 818.804688 133.453125 "/>
<path style=" stroke:none;fill-rule:nonzero;fill:rgb(74.901961%,74.901961%,74.901961%);fill-opacity:1;" d="M 818.804688 146.726562 L 823.210938 146.726562 L 823.210938 133.40625 L 818.804688 133.40625 Z M 818.804688 146.726562 "/>
<path style=" stroke:none;fill-rule:nonzero;fill:rgb(74.901961%,74.901961%,74.901961%);fill-opacity:1;" d="M 818.804688 160.011719 L 823.210938 160.011719 L 823.210938 146.6875 L 818.804688 146.6875 Z M 818.804688 160.011719 "/>
<path style=" stroke:none;fill-rule:nonzero;fill:rgb(74.901961%,74.901961%,74.901961%);fill-opacity:1;" d="M 818.804688 198.261719 L 801.863281 198.261719 L 801.863281 199.796875 L 823.210938 199.796875 L 823.210938 159.996094 L 818.804688 159.996094 Z M 818.804688 198.261719 "/>
<path style=" stroke:none;fill-rule:nonzero;fill:rgb(74.901961%,74.901961%,74.901961%);fill-opacity:1;" d="M 1134.289062 40.472656 L 1138.695312 40.472656 L 1138.695312 2.203125 L 1155.636719 2.203125 L 1155.636719 0.667969 L 1134.289062 0.667969 Z M 1134.289062 40.472656 "/>
<path style=" stroke:none;fill-rule:nonzero;fill:rgb(74.901961%,74.901961%,74.901961%);fill-opacity:1;" d="M 1134.289062 53.777344 L 1138.695312 53.777344 L 1138.695312 40.453125 L 1134.289062 40.453125 Z M 1134.289062 53.777344 "/>
<path style=" stroke:none;fill-rule:nonzero;fill:rgb(74.901961%,74.901961%,74.901961%);fill-opacity:1;" d="M 1134.289062 67.054688 L 1138.695312 67.054688 L 1138.695312 53.730469 L 1134.289062 53.730469 Z M 1134.289062 67.054688 "/>
<path style=" stroke:none;fill-rule:nonzero;fill:rgb(74.901961%,74.901961%,74.901961%);fill-opacity:1;" d="M 1134.289062 80.335938 L 1138.695312 80.335938 L 1138.695312 67.011719 L 1134.289062 67.011719 Z M 1134.289062 80.335938 "/>
<path style=" stroke:none;fill-rule:nonzero;fill:rgb(74.901961%,74.901961%,74.901961%);fill-opacity:1;" d="M 1134.289062 93.609375 L 1138.695312 93.609375 L 1138.695312 80.289062 L 1134.289062 80.289062 Z M 1134.289062 93.609375 "/>
<path style=" stroke:none;fill-rule:nonzero;fill:rgb(74.901961%,74.901961%,74.901961%);fill-opacity:1;" d="M 1134.289062 106.894531 L 1138.695312 106.894531 L 1138.695312 93.570312 L 1134.289062 93.570312 Z M 1134.289062 106.894531 "/>
<path style=" stroke:none;fill-rule:nonzero;fill:rgb(74.901961%,74.901961%,74.901961%);fill-opacity:1;" d="M 1134.289062 120.167969 L 1138.695312 120.167969 L 1138.695312 106.847656 L 1134.289062 106.847656 Z M 1134.289062 120.167969 "/>
<path style=" stroke:none;fill-rule:nonzero;fill:rgb(74.901961%,74.901961%,74.901961%);fill-opacity:1;" d="M 1134.289062 133.453125 L 1138.695312 133.453125 L 1138.695312 120.128906 L 1134.289062 120.128906 Z M 1134.289062 133.453125 "/>
<path style=" stroke:none;fill-rule:nonzero;fill:rgb(74.901961%,74.901961%,74.901961%);fill-opacity:1;" d="M 1134.289062 146.726562 L 1138.695312 146.726562 L 1138.695312 133.40625 L 1134.289062 133.40625 Z M 1134.289062 146.726562 "/>
<path style=" stroke:none;fill-rule:nonzero;fill:rgb(74.901961%,74.901961%,74.901961%);fill-opacity:1;" d="M 1134.289062 160.011719 L 1138.695312 160.011719 L 1138.695312 146.6875 L 1134.289062 146.6875 Z M 1134.289062 160.011719 "/>
<path style=" stroke:none;fill-rule:nonzero;fill:rgb(74.901961%,74.901961%,74.901961%);fill-opacity:1;" d="M 1134.289062 199.796875 L 1155.636719 199.796875 L 1155.636719 198.261719 L 1138.695312 198.261719 L 1138.695312 159.996094 L 1134.289062 159.996094 Z M 1134.289062 199.796875 "/>
<path style=" stroke:none;fill-rule:nonzero;fill:rgb(74.901961%,74.901961%,74.901961%);fill-opacity:1;" d="M 1191.636719 52.40625 L 1191.636719 53.324219 C 1195.761719 53.324219 1199.925781 53.199219 1203.890625 52.753906 L 1203.890625 69.871094 L 1203.726562 70.21875 L 1202.796875 70.316406 L 1192.082031 70.316406 L 1192.082031 71.28125 L 1224.308594 71.28125 L 1224.308594 70.34375 L 1214.441406 70.34375 C 1213.433594 70.34375 1212.582031 70.289062 1212.582031 69.898438 L 1212.582031 50.773438 C 1212.582031 50.617188 1212.582031 50.367188 1211.9375 50.367188 C 1210.5625 50.367188 1208.902344 51.039062 1207.40625 51.289062 C 1202.597656 52.179688 1197.058594 52.40625 1191.636719 52.40625 Z M 1191.636719 52.40625 "/>
<path style=" stroke:none;fill-rule:nonzero;fill:rgb(74.901961%,74.901961%,74.901961%);fill-opacity:1;" d="M 1271.53125 47.394531 C 1270.519531 47.523438 1269.871094 48.457031 1269.429688 48.929688 C 1258.429688 58.460938 1248.523438 68.085938 1237.527344 77.585938 L 1236.71875 78.382812 C 1236.515625 78.507812 1236.355469 78.675781 1236.230469 78.828125 C 1236.230469 79.023438 1236.71875 79.21875 1237.242188 79.21875 L 1237.445312 79.21875 C 1238.09375 79.175781 1238.375 78.996094 1238.535156 78.800781 L 1239.953125 77.558594 C 1250.382812 67.933594 1261.097656 58.363281 1271.894531 48.777344 L 1272.542969 48.164062 C 1272.664062 48.039062 1272.90625 47.914062 1272.90625 47.746094 C 1272.90625 47.523438 1272.378906 47.394531 1271.8125 47.394531 Z M 1271.53125 47.394531 "/>
<path style=" stroke:none;fill-rule:nonzero;fill:rgb(74.901961%,74.901961%,74.901961%);fill-opacity:1;" d="M 1305.539062 73.402344 C 1307.5625 73.402344 1307.601562 73.375 1308.25 72.953125 L 1343.34375 47.691406 C 1343.789062 47.398438 1343.789062 47.355469 1343.789062 47.285156 C 1343.789062 47.046875 1343.265625 46.851562 1342.496094 46.851562 C 1341.648438 46.851562 1341.40625 47.046875 1341.082031 47.285156 L 1308.007812 71.097656 L 1294.339844 60.121094 L 1285.402344 62.492188 L 1286.375 62.839844 L 1290.945312 61.65625 Z M 1305.539062 73.402344 "/>
<path style="fill:none;stroke-width:9.99;stroke-linecap:butt;stroke-linejoin:miter;stroke:rgb(74.901961%,74.901961%,74.901961%);stroke-opacity:1;stroke-miterlimit:10;" d="M 5187.933304 1710.40625 L 5370.901687 1710.40625 " transform="matrix(0.258775,0,0,-0.0892857,0,200)"/>
<path style=" stroke:none;fill-rule:nonzero;fill:rgb(74.901961%,74.901961%,74.901961%);fill-opacity:1;" d="M 1350.070312 54.441406 C 1352.214844 52.503906 1357.308594 51.289062 1362.929688 51.289062 C 1370.691406 51.289062 1375.785156 53.644531 1375.785156 56.226562 L 1375.785156 56.574219 C 1375.21875 59.519531 1369.480469 61.835938 1364.019531 63.941406 C 1359.410156 65.726562 1354.71875 67.542969 1350.070312 69.328125 L 1348.332031 69.996094 C 1347.605469 70.261719 1347.117188 70.441406 1347.117188 70.792969 C 1347.117188 70.960938 1347.242188 71.113281 1347.242188 71.28125 L 1382.902344 71.28125 L 1385.003906 65.128906 L 1382.621094 65.128906 C 1382.132812 66.371094 1382.253906 68.113281 1378.738281 68.113281 C 1376.433594 68.210938 1374.007812 68.253906 1371.703125 68.253906 C 1369.316406 68.253906 1367.011719 68.210938 1364.667969 68.210938 L 1355.527344 68.210938 C 1359.613281 66.914062 1363.574219 65.503906 1367.820312 64.261719 L 1373.359375 62.628906 C 1379.101562 60.941406 1385.003906 59.101562 1385.003906 56.199219 L 1385.003906 55.878906 C 1384.074219 52.308594 1375.140625 50.367188 1365.234375 50.367188 C 1356.539062 50.367188 1347.242188 52.433594 1347.242188 55.878906 C 1347.242188 56.996094 1349.34375 57.59375 1351.929688 57.59375 C 1354.234375 57.59375 1356.660156 57.023438 1356.660156 56.003906 C 1356.660156 55.082031 1354.71875 54.34375 1352.011719 54.34375 C 1351.363281 54.34375 1350.71875 54.386719 1350.070312 54.441406 Z M 1350.070312 54.441406 "/>
<path style=" stroke:none;fill-rule:nonzero;fill:rgb(74.901961%,74.901961%,74.901961%);fill-opacity:1;" d="M 1191.640625 148.832031 L 1191.640625 149.753906 C 1195.765625 149.753906 1199.929688 149.628906 1203.890625 149.183594 L 1203.890625 166.300781 L 1203.730469 166.648438 L 1202.800781 166.746094 L 1192.085938 166.746094 L 1192.085938 167.707031 L 1224.308594 167.707031 L 1224.308594 166.773438 L 1214.445312 166.773438 C 1213.433594 166.773438 1212.585938 166.71875 1212.585938 166.328125 L 1212.585938 147.199219 C 1212.585938 147.046875 1212.585938 146.796875 1211.9375 146.796875 C 1210.5625 146.796875 1208.90625 147.464844 1207.410156 147.71875 C 1202.597656 148.609375 1197.058594 148.832031 1191.640625 148.832031 Z M 1191.640625 148.832031 "/>
<path style=" stroke:none;fill-rule:nonzero;fill:rgb(74.901961%,74.901961%,74.901961%);fill-opacity:1;" d="M 1271.53125 143.824219 C 1270.519531 143.949219 1269.875 144.886719 1269.429688 145.359375 C 1258.429688 154.886719 1248.523438 164.515625 1237.527344 174.015625 L 1236.71875 174.808594 C 1236.515625 174.933594 1236.355469 175.101562 1236.234375 175.257812 C 1236.234375 175.453125 1236.71875 175.648438 1237.242188 175.648438 L 1237.445312 175.648438 C 1238.09375 175.605469 1238.375 175.421875 1238.539062 175.226562 L 1239.953125 173.988281 C 1250.386719 164.359375 1261.101562 154.789062 1271.894531 145.207031 L 1272.542969 144.59375 C 1272.664062 144.464844 1272.90625 144.339844 1272.90625 144.171875 C 1272.90625 143.949219 1272.382812 143.824219 1271.816406 143.824219 Z M 1271.53125 143.824219 "/>
<path style=" stroke:none;fill-rule:nonzero;fill:rgb(74.901961%,74.901961%,74.901961%);fill-opacity:1;" d="M 1305.542969 169.828125 C 1307.5625 169.828125 1307.601562 169.800781 1308.25 169.382812 L 1343.347656 144.117188 C 1343.792969 143.824219 1343.792969 143.785156 1343.792969 143.714844 C 1343.792969 143.476562 1343.265625 143.28125 1342.496094 143.28125 C 1341.648438 143.28125 1341.40625 143.476562 1341.082031 143.714844 L 1308.007812 167.527344 L 1294.339844 156.546875 L 1285.40625 158.921875 L 1286.375 159.269531 L 1290.945312 158.082031 Z M 1305.542969 169.828125 "/>
<path style="fill:none;stroke-width:9.99;stroke-linecap:butt;stroke-linejoin:miter;stroke:rgb(74.901961%,74.901961%,74.901961%);stroke-opacity:1;stroke-miterlimit:10;" d="M 5187.933304 630.39375 L 5370.901687 630.39375 " transform="matrix(0.258775,0,0,-0.0892857,0,200)"/>
<path style=" stroke:none;fill-rule:nonzero;fill:rgb(74.901961%,74.901961%,74.901961%);fill-opacity:1;" d="M 1350.070312 150.871094 C 1352.214844 148.929688 1357.308594 147.71875 1362.929688 147.71875 C 1370.691406 147.71875 1375.785156 150.074219 1375.785156 152.65625 L 1375.785156 153.003906 C 1375.21875 155.949219 1369.480469 158.265625 1364.019531 160.371094 C 1359.410156 162.15625 1354.71875 163.96875 1350.070312 165.753906 L 1348.332031 166.425781 C 1347.605469 166.691406 1347.117188 166.871094 1347.117188 167.21875 C 1347.117188 167.386719 1347.242188 167.542969 1347.242188 167.707031 L 1382.902344 167.707031 L 1385.003906 161.554688 L 1382.621094 161.554688 C 1382.132812 162.796875 1382.253906 164.542969 1378.738281 164.542969 C 1376.433594 164.640625 1374.007812 164.679688 1371.703125 164.679688 C 1369.316406 164.679688 1367.011719 164.640625 1364.667969 164.640625 L 1355.527344 164.640625 C 1359.613281 163.34375 1363.574219 161.933594 1367.820312 160.691406 L 1373.359375 159.058594 C 1379.101562 157.371094 1385.003906 155.53125 1385.003906 152.628906 L 1385.003906 152.308594 C 1384.074219 148.734375 1375.140625 146.796875 1365.234375 146.796875 C 1356.539062 146.796875 1347.242188 148.859375 1347.242188 152.308594 C 1347.242188 153.421875 1349.34375 154.023438 1351.929688 154.023438 C 1354.234375 154.023438 1356.660156 153.449219 1356.660156 152.433594 C 1356.660156 151.511719 1354.71875 150.773438 1352.011719 150.773438 C 1351.363281 150.773438 1350.71875 150.8125 1350.070312 150.871094 Z M 1350.070312 150.871094 "/>
<path style=" stroke:none;fill-rule:nonzero;fill:rgb(74.901961%,74.901961%,74.901961%);fill-opacity:1;" d="M 1438.800781 40.46875 L 1443.210938 40.46875 L 1443.210938 0.667969 L 1421.859375 0.667969 L 1421.859375 2.203125 L 1438.800781 2.203125 Z M 1438.800781 40.46875 "/>
<path style=" stroke:none;fill-rule:nonzero;fill:rgb(74.901961%,74.901961%,74.901961%);fill-opacity:1;" d="M 1438.800781 53.777344 L 1443.210938 53.777344 L 1443.210938 40.453125 L 1438.800781 40.453125 Z M 1438.800781 53.777344 "/>
<path style=" stroke:none;fill-rule:nonzero;fill:rgb(74.901961%,74.901961%,74.901961%);fill-opacity:1;" d="M 1438.800781 67.054688 L 1443.210938 67.054688 L 1443.210938 53.730469 L 1438.800781 53.730469 Z M 1438.800781 67.054688 "/>
<path style=" stroke:none;fill-rule:nonzero;fill:rgb(74.901961%,74.901961%,74.901961%);fill-opacity:1;" d="M 1438.800781 80.335938 L 1443.210938 80.335938 L 1443.210938 67.011719 L 1438.800781 67.011719 Z M 1438.800781 80.335938 "/>
<path style=" stroke:none;fill-rule:nonzero;fill:rgb(74.901961%,74.901961%,74.901961%);fill-opacity:1;" d="M 1438.800781 93.609375 L 1443.210938 93.609375 L 1443.210938 80.289062 L 1438.800781 80.289062 Z M 1438.800781 93.609375 "/>
<path style=" stroke:none;fill-rule:nonzero;fill:rgb(74.901961%,74.901961%,74.901961%);fill-opacity:1;" d="M 1438.800781 106.894531 L 1443.210938 106.894531 L 1443.210938 93.570312 L 1438.800781 93.570312 Z M 1438.800781 106.894531 "/>
<path style=" stroke:none;fill-rule:nonzero;fill:rgb(74.901961%,74.901961%,74.901961%);fill-opacity:1;" d="M 1438.800781 120.167969 L 1443.210938 120.167969 L 1443.210938 106.847656 L 1438.800781 106.847656 Z M 1438.800781 120.167969 "/>
<path style=" stroke:none;fill-rule:nonzero;fill:rgb(74.901961%,74.901961%,74.901961%);fill-opacity:1;" d="M 1438.800781 133.453125 L 1443.210938 133.453125 L 1443.210938 120.128906 L 1438.800781 120.128906 Z M 1438.800781 133.453125 "/>
<path style=" stroke:none;fill-rule:nonzero;fill:rgb(74.901961%,74.901961%,74.901961%);fill-opacity:1;" d="M 1438.800781 146.726562 L 1443.210938 146.726562 L 1443.210938 133.40625 L 1438.800781 133.40625 Z M 1438.800781 146.726562 "/>
<path style=" stroke:none;fill-rule:nonzero;fill:rgb(74.901961%,74.901961%,74.901961%);fill-opacity:1;" d="M 1438.800781 160.011719 L 1443.210938 160.011719 L 1443.210938 146.6875 L 1438.800781 146.6875 Z M 1438.800781 160.011719 "/>
<path style=" stroke:none;fill-rule:nonzero;fill:rgb(74.901961%,74.901961%,74.901961%);fill-opacity:1;" d="M 1438.800781 198.261719 L 1421.859375 198.261719 L 1421.859375 199.796875 L 1443.210938 199.796875 L 1443.210938 159.996094 L 1438.800781 159.996094 Z M 1438.800781 198.261719 "/>
</g>
</svg>
