<?xml version="1.0" encoding="UTF-8"?>
<svg xmlns="http://www.w3.org/2000/svg" xmlns:xlink="http://www.w3.org/1999/xlink" width="3000px" height="250px" viewBox="0 0 3000 250" version="1.1">
<g id="surface1">
<path style=" stroke:none;fill-rule:nonzero;fill:rgb(74.901961%,74.901961%,74.901961%);fill-opacity:1;" d="M 3.648438 70.929688 C 3.648438 67.851562 3.648438 64.878906 2.570312 64.878906 C 1.523438 64.878906 1.523438 67.851562 1.523438 70.929688 L 1.523438 227.070312 C 1.523438 230.148438 1.523438 233.121094 2.570312 233.121094 C 3.648438 233.121094 3.648438 230.148438 3.648438 227.070312 Z M 3.648438 70.929688 "/>
<path style=" stroke:none;fill-rule:nonzero;fill:rgb(74.901961%,74.901961%,74.901961%);fill-opacity:1;" d="M 11.996094 83.664062 L 11.996094 90.671875 L 13.785156 90.671875 C 15.707031 90.671875 17.492188 91.414062 17.492188 98.421875 L 17.492188 180.15625 C 17.492188 183.550781 16.785156 183.761719 16.175781 183.761719 L 11.996094 183.761719 L 11.996094 190.875 L 31.179688 190.875 L 31.179688 183.761719 L 25.886719 183.761719 C 25.113281 183.761719 24.402344 183.761719 24.402344 180.683594 L 24.402344 156.378906 C 24.402344 150.859375 24.335938 145.019531 24.335938 139.394531 C 24.335938 119.332031 25.347656 87.273438 32.964844 87.273438 C 33.269531 87.273438 33.640625 87.488281 33.976562 87.488281 L 33.976562 87.804688 C 32.597656 89.503906 31.886719 93.855469 31.886719 98.207031 C 31.886719 104.472656 33.4375 109.566406 35.425781 109.566406 C 37.820312 109.566406 39.136719 104.046875 39.136719 98.207031 C 39.136719 87.804688 35.898438 81.648438 32.964844 81.648438 C 27.808594 81.648438 24.640625 97.996094 24.167969 112.21875 L 24.101562 81.648438 L 16.109375 82.921875 Z M 11.996094 83.664062 "/>
<path style=" stroke:none;fill-rule:nonzero;fill:rgb(74.901961%,74.901961%,74.901961%);fill-opacity:1;" d="M 50.902344 134.296875 L 72.882812 134.296875 C 73.019531 134.296875 73.421875 134.617188 73.726562 134.617188 C 74.332031 134.617188 74.636719 133.875 74.636719 132.175781 L 74.636719 130.902344 C 74.636719 118.269531 73.792969 104.789062 71.097656 94.597656 C 68.46875 84.621094 64.386719 81.011719 60.375 81.011719 C 49.148438 81.011719 43.519531 107.441406 43.519531 136.316406 C 43.519531 151.070312 44.902344 165.824219 48.207031 176.757812 C 51.679688 187.902344 56.601562 192.253906 61.386719 192.253906 L 61.792969 192.253906 C 67.152344 192.042969 72.34375 181.640625 74.332031 165.398438 C 74.402344 164.65625 74.570312 163.703125 74.570312 162.746094 C 74.570312 161.789062 74.332031 161.046875 74.03125 161.046875 L 73.625 161.046875 C 72.34375 161.046875 72.007812 167.3125 71.398438 170.707031 C 69.480469 180.367188 66.175781 186.523438 62.535156 186.523438 C 51.914062 186.523438 50.902344 156.164062 50.902344 134.296875 Z M 50.902344 129.734375 C 50.902344 110.839844 52.824219 86.53125 60.074219 86.53125 C 66.546875 86.53125 68.097656 111.265625 68.097656 129.734375 Z M 50.902344 129.734375 "/>
<path style=" stroke:none;fill-rule:nonzero;fill:rgb(74.901961%,74.901961%,74.901961%);fill-opacity:1;" d="M 100.730469 24.433594 L 100.730469 31.441406 L 102.519531 31.441406 C 104.507812 31.441406 106.226562 32.183594 106.226562 39.933594 L 106.226562 95.023438 C 103.597656 86.746094 100.359375 81.648438 96.417969 81.648438 C 91.425781 81.648438 86.03125 88.019531 82.964844 100.863281 C 80.402344 111.265625 79.492188 124.851562 79.492188 137.484375 C 79.492188 163.171875 83.941406 192.253906 95.574219 192.253906 C 99.753906 192.253906 103.191406 186.734375 106.058594 177.714844 L 106.058594 192.253906 L 118.601562 192.253906 L 118.601562 183.761719 L 116.679688 183.761719 C 114.757812 183.761719 113.136719 183.125 113.136719 175.273438 L 113.136719 22.523438 L 104.914062 23.691406 Z M 86.875 146.929688 L 86.875 134.296875 C 86.875 119.96875 87.179688 103.515625 91.125 93.855469 C 92.878906 89.503906 95.136719 87.273438 97.292969 87.273438 C 100.496094 87.273438 103.292969 91.839844 105.453125 100.332031 C 105.6875 101.605469 105.992188 102.558594 106.058594 104.046875 L 106.058594 165.613281 C 106.058594 167.3125 106.058594 168.796875 105.753906 170.175781 C 103.664062 180.15625 100.191406 186.734375 96.519531 186.734375 C 91.023438 186.734375 87.886719 173.148438 87.113281 156.164062 C 87.042969 152.980469 87.042969 150.113281 86.875 146.929688 Z M 86.875 146.929688 "/>
<path style=" stroke:none;fill-rule:nonzero;fill:rgb(74.901961%,74.901961%,74.901961%);fill-opacity:1;" d="M 170.800781 152.664062 C 171.8125 151.175781 171.878906 150.222656 171.878906 149.054688 C 171.878906 147.992188 171.777344 146.824219 170.800781 145.445312 L 141.875 103.515625 C 141.199219 102.558594 141.066406 102.347656 140.964844 102.347656 C 140.324219 102.347656 139.953125 104.046875 139.953125 105.425781 C 139.953125 107.441406 140.390625 108.078125 141.066406 109.140625 L 168.574219 149.054688 L 141.03125 189.070312 C 139.953125 190.558594 139.953125 191.726562 139.953125 192.785156 C 139.953125 194.167969 140.324219 195.757812 140.964844 195.757812 C 141.066406 195.757812 141.132812 195.652344 141.875 194.589844 Z M 170.800781 152.664062 "/>
<path style=" stroke:none;fill-rule:nonzero;fill:rgb(74.901961%,74.901961%,74.901961%);fill-opacity:1;" d="M 240.410156 137.058594 C 241.21875 137.058594 241.996094 137.058594 241.996094 134.191406 C 241.996094 131.113281 241.082031 131.113281 240.171875 131.113281 L 210.304688 131.113281 C 209.394531 131.113281 208.484375 131.113281 208.484375 134.191406 C 208.484375 137.058594 209.292969 137.058594 210.101562 137.058594 Z M 240.171875 166.992188 C 241.082031 166.992188 241.996094 166.992188 241.996094 164.019531 C 241.996094 161.152344 241.21875 161.152344 240.410156 161.152344 L 210.101562 161.152344 C 209.292969 161.152344 208.484375 161.152344 208.484375 164.019531 C 208.484375 166.992188 209.394531 166.992188 210.304688 166.992188 Z M 240.171875 166.992188 "/>
<path style=" stroke:none;fill-rule:nonzero;fill:rgb(74.901961%,74.901961%,74.901961%);fill-opacity:1;" d="M 266.007812 47.257812 L 266.007812 54.261719 C 269.445312 54.261719 272.917969 53.308594 276.222656 49.910156 L 276.222656 180.15625 L 276.085938 182.808594 L 275.3125 183.550781 L 266.378906 183.550781 L 266.378906 190.875 L 293.246094 190.875 L 293.246094 183.761719 L 285.023438 183.761719 C 284.179688 183.761719 283.472656 183.339844 283.472656 180.367188 L 283.472656 34.835938 C 283.472656 33.671875 283.472656 31.757812 282.929688 31.757812 C 281.785156 31.757812 280.402344 36.855469 279.15625 38.765625 C 275.144531 45.558594 270.523438 47.257812 266.007812 47.257812 Z M 266.007812 47.257812 "/>
<path style=" stroke:none;fill-rule:nonzero;fill:rgb(74.901961%,74.901961%,74.901961%);fill-opacity:1;" d="M 332.621094 9.148438 C 331.777344 10.105469 331.238281 17.21875 330.867188 20.828125 C 321.699219 93.324219 313.4375 166.566406 304.269531 238.855469 L 303.59375 244.90625 C 303.425781 245.859375 303.289062 247.132812 303.1875 248.300781 C 303.1875 249.789062 303.59375 251.273438 304.03125 251.273438 L 304.199219 251.273438 C 304.738281 250.957031 304.976562 249.574219 305.109375 248.089844 L 306.289062 238.640625 C 314.988281 165.398438 323.921875 92.582031 332.925781 19.660156 L 333.464844 14.988281 C 333.566406 14.03125 333.765625 13.078125 333.765625 11.804688 C 333.765625 10.105469 333.328125 9.148438 332.855469 9.148438 Z M 332.621094 9.148438 "/>
<path style=" stroke:none;fill-rule:nonzero;fill:rgb(74.901961%,74.901961%,74.901961%);fill-opacity:1;" d="M 360.976562 207.011719 C 362.664062 207.011719 362.695312 206.796875 363.238281 203.613281 L 392.5 11.378906 C 392.871094 9.148438 392.871094 8.832031 392.871094 8.300781 C 392.871094 6.496094 392.433594 5.011719 391.792969 5.011719 C 391.082031 5.011719 390.882812 6.496094 390.613281 8.300781 L 363.035156 189.496094 L 351.640625 105.957031 L 344.1875 124.003906 L 344.996094 126.65625 L 348.808594 117.632812 Z M 360.976562 207.011719 "/>
<path style="fill:none;stroke-width:9.99;stroke-linecap:butt;stroke-linejoin:miter;stroke:rgb(74.901961%,74.901961%,74.901961%);stroke-opacity:1;stroke-miterlimit:10;" d="M 1815.866021 357.7755 L 1998.826729 357.7755 " transform="matrix(0.215765,0,0,-0.679348,0.000000000000392475,251.358696)"/>
<path style=" stroke:none;fill-rule:nonzero;fill:rgb(74.901961%,74.901961%,74.901961%);fill-opacity:1;" d="M 398.105469 62.753906 C 399.894531 47.996094 404.140625 38.761719 408.828125 38.761719 C 415.300781 38.761719 419.546875 56.703125 419.546875 76.339844 L 419.546875 78.992188 C 419.074219 101.390625 414.289062 119.011719 409.738281 135.039062 C 405.894531 148.625 401.984375 162.425781 398.105469 176.011719 L 396.65625 181.105469 C 396.050781 183.125 395.644531 184.503906 395.644531 187.15625 C 395.644531 188.429688 395.746094 189.597656 395.746094 190.871094 L 425.480469 190.871094 L 427.234375 144.0625 L 425.246094 144.0625 C 424.839844 153.507812 424.941406 166.777344 422.007812 166.777344 C 420.085938 167.519531 418.0625 167.839844 416.144531 167.839844 C 414.152344 167.839844 412.230469 167.519531 410.277344 167.519531 L 402.65625 167.519531 C 406.0625 157.648438 409.367188 146.925781 412.90625 137.480469 L 417.523438 125.0625 C 422.3125 112.21875 427.234375 98.207031 427.234375 76.125 L 427.234375 73.683594 C 426.457031 46.511719 419.007812 31.757812 410.75 31.757812 C 403.5 31.757812 395.746094 47.464844 395.746094 73.683594 C 395.746094 82.175781 397.5 86.742188 399.65625 86.742188 C 401.578125 86.742188 403.601562 82.390625 403.601562 74.640625 C 403.601562 67.636719 401.984375 62.007812 399.722656 62.007812 C 399.183594 62.007812 398.644531 62.328125 398.105469 62.753906 Z M 398.105469 62.753906 "/>
<path style=" stroke:none;fill-rule:nonzero;fill:rgb(74.901961%,74.901961%,74.901961%);fill-opacity:1;" d="M 462.730469 70.925781 C 462.730469 67.847656 462.730469 64.875 461.652344 64.875 C 460.605469 64.875 460.605469 67.847656 460.605469 70.925781 L 460.605469 227.070312 C 460.605469 230.148438 460.605469 233.121094 461.652344 233.121094 C 462.730469 233.121094 462.730469 230.148438 462.730469 227.070312 Z M 462.730469 70.925781 "/>
<path style=" stroke:none;fill-rule:nonzero;fill:rgb(74.901961%,74.901961%,74.901961%);fill-opacity:1;" d="M 492.957031 24.433594 L 492.957031 31.4375 L 494.746094 31.4375 C 496.734375 31.4375 498.453125 32.179688 498.453125 39.929688 L 498.453125 95.019531 C 495.824219 86.742188 492.585938 81.644531 488.644531 81.644531 C 483.652344 81.644531 478.257812 88.015625 475.191406 100.859375 C 472.628906 111.261719 471.71875 124.847656 471.71875 137.480469 C 471.71875 163.167969 476.167969 192.253906 487.800781 192.253906 C 491.980469 192.253906 495.417969 186.734375 498.285156 177.710938 L 498.285156 192.253906 L 510.828125 192.253906 L 510.828125 183.761719 L 508.90625 183.761719 C 506.984375 183.761719 505.363281 183.125 505.363281 175.269531 L 505.363281 22.523438 L 497.140625 23.691406 Z M 479.101562 146.925781 L 479.101562 134.296875 C 479.101562 119.964844 479.40625 103.511719 483.351562 93.851562 C 485.101562 89.5 487.363281 87.273438 489.519531 87.273438 C 492.722656 87.273438 495.519531 91.835938 497.679688 100.328125 C 497.914062 101.601562 498.21875 102.558594 498.285156 104.042969 L 498.285156 165.609375 C 498.285156 167.308594 498.285156 168.792969 497.980469 170.175781 C 495.890625 180.152344 492.417969 186.734375 488.746094 186.734375 C 483.25 186.734375 480.113281 173.144531 479.339844 156.164062 C 479.269531 152.976562 479.269531 150.113281 479.101562 146.925781 Z M 479.101562 146.925781 "/>
<path style=" stroke:none;fill-rule:nonzero;fill:rgb(74.901961%,74.901961%,74.901961%);fill-opacity:1;" d="M 515.554688 83.664062 L 515.554688 90.667969 L 517.070312 90.667969 C 519.023438 90.667969 520.710938 91.410156 520.710938 98.628906 L 520.710938 180.152344 C 520.710938 183.546875 520.003906 183.761719 519.394531 183.761719 L 515.25 183.761719 L 515.25 190.871094 L 532.578125 190.871094 L 532.578125 183.761719 L 529.039062 183.761719 C 528.332031 183.761719 527.621094 183.761719 527.621094 180.152344 L 527.621094 81.644531 L 519.632812 82.921875 Z M 522.765625 23.476562 C 520.777344 24.433594 519.160156 29.738281 519.160156 36.535156 C 519.160156 43.644531 521.082031 49.90625 523.40625 49.90625 C 525.632812 49.90625 527.621094 44.070312 527.621094 36.535156 C 527.621094 29.527344 525.699219 23.265625 523.40625 23.265625 C 523.171875 23.265625 523.003906 23.476562 522.765625 23.476562 Z M 522.765625 23.476562 "/>
<path style=" stroke:none;fill-rule:nonzero;fill:rgb(74.901961%,74.901961%,74.901961%);fill-opacity:1;" d="M 543.566406 98.628906 C 545.722656 91.199219 548.65625 86.527344 551.960938 86.527344 C 557.289062 86.527344 559.816406 100.859375 559.816406 119.328125 C 559.816406 123.148438 559.75 126.757812 559.75 130.472656 C 551.117188 130.472656 537.734375 137.480469 537.734375 168.050781 C 537.734375 185.988281 544.714844 192.253906 549.734375 192.253906 C 553.816406 192.253906 559.140625 184.503906 560.121094 169.21875 L 560.222656 169.21875 C 560.222656 183.335938 563.457031 191.617188 567.300781 191.617188 C 570.605469 191.617188 573.300781 184.078125 573.773438 173.890625 L 573.773438 156.164062 L 571.785156 156.164062 L 571.785156 168.261719 C 571.785156 174.101562 571.449219 182.59375 569.222656 182.59375 C 566.996094 182.59375 566.828125 172.933594 566.828125 168.050781 L 566.828125 114.234375 C 566.15625 89.5 558.738281 81.007812 552.601562 81.007812 C 547.644531 81.007812 540.429688 89.183594 540.429688 109.351562 C 540.429688 116.675781 541.882812 121.453125 544.105469 121.453125 C 546.195312 121.453125 547.746094 116.355469 547.746094 109.882812 C 547.746094 103.511719 546.195312 98.417969 544.171875 98.417969 C 543.972656 98.417969 543.804688 98.628906 543.566406 98.628906 Z M 559.75 134.296875 L 559.75 156.691406 C 559.75 171.660156 556.75 186.203125 551.589844 186.734375 L 551.285156 186.734375 C 547.949219 186.734375 544.8125 178.664062 544.8125 167.839844 L 544.8125 167.308594 C 544.8125 143.742188 552.972656 135.570312 559.75 134.296875 Z M 559.75 134.296875 "/>
<path style=" stroke:none;fill-rule:nonzero;fill:rgb(74.901961%,74.901961%,74.901961%);fill-opacity:1;" d="M 576.535156 83.664062 L 576.535156 90.667969 L 578.320312 90.667969 C 580.242188 90.667969 582.03125 91.410156 582.03125 98.417969 L 582.03125 180.152344 C 582.03125 183.546875 581.320312 183.761719 580.714844 183.761719 L 576.535156 183.761719 L 576.535156 190.871094 L 594.570312 190.871094 L 594.570312 183.761719 L 590.425781 183.761719 C 589.785156 183.761719 589.109375 183.546875 589.109375 180.683594 L 589.109375 143.53125 C 589.109375 139.390625 589.007812 135.039062 589.007812 130.6875 C 589.007812 113.492188 591.167969 87.273438 599.191406 87.273438 C 603.875 87.273438 603.976562 106.167969 603.976562 114.660156 L 603.976562 180.683594 C 603.976562 183.546875 603.269531 183.761719 602.664062 183.761719 L 598.480469 183.761719 L 598.480469 190.871094 L 616.519531 190.871094 L 616.519531 183.761719 L 612.371094 183.761719 C 611.765625 183.761719 611.058594 183.546875 611.058594 180.683594 L 611.058594 143.53125 C 611.058594 139.390625 610.988281 135.039062 610.988281 130.6875 C 610.988281 113.492188 613.148438 87.273438 621.136719 87.273438 C 625.855469 87.273438 625.925781 106.167969 625.925781 114.660156 L 625.925781 180.683594 C 625.925781 183.546875 625.214844 183.761719 624.609375 183.761719 L 620.464844 183.761719 L 620.464844 190.871094 L 638.464844 190.871094 L 638.464844 183.761719 L 634.320312 183.761719 C 633.847656 183.546875 633.171875 183.761719 633.003906 181.851562 L 633.003906 118.265625 C 633.003906 110.09375 632.9375 101.601562 631.621094 94.597656 C 629.632812 84.085938 625.757812 81.644531 622.214844 81.644531 C 617.597656 81.644531 614.125 89.925781 612.066406 101.816406 C 611.664062 104.257812 611.226562 106.910156 611.058594 109.882812 L 610.988281 109.882812 C 610.515625 90.457031 606.503906 81.644531 600.4375 81.644531 C 594.738281 81.644531 590.085938 94.808594 588.875 112.003906 L 588.804688 81.644531 L 580.714844 82.921875 Z M 576.535156 83.664062 "/>
<path style=" stroke:none;fill-rule:nonzero;fill:rgb(74.901961%,74.901961%,74.901961%);fill-opacity:1;" d="M 658.496094 81.007812 C 655.191406 82.175781 652.023438 84.40625 649.257812 90.457031 C 644.402344 100.859375 642.246094 119.328125 642.246094 137.269531 C 642.246094 151.808594 643.628906 166.777344 646.933594 177.285156 C 650.269531 187.902344 655.191406 192.253906 659.878906 192.253906 C 670.296875 192.253906 677.308594 169.007812 677.308594 137.269531 C 677.308594 124.425781 676.296875 110.835938 673.667969 100.328125 C 670.296875 86.527344 664.800781 81.007812 659.339844 81.007812 Z M 649.628906 145.230469 L 649.628906 132.597656 C 649.628906 119.964844 649.730469 105 652.796875 95.234375 C 654.652344 89.5 657.28125 86.527344 659.8125 86.527344 C 665.746094 86.527344 669.046875 100.328125 669.757812 118.796875 C 669.890625 124.847656 669.890625 130.898438 669.890625 136.949219 C 669.890625 149.898438 669.890625 164.652344 667.296875 175.269531 C 665.441406 182.59375 662.675781 186.203125 659.8125 186.203125 C 654.046875 186.203125 650.40625 172.402344 649.796875 152.554688 C 649.730469 150.113281 649.730469 147.671875 649.628906 145.230469 Z M 649.628906 145.230469 "/>
<path style=" stroke:none;fill-rule:nonzero;fill:rgb(74.901961%,74.901961%,74.901961%);fill-opacity:1;" d="M 681.753906 83.664062 L 681.753906 90.667969 L 683.542969 90.667969 C 685.464844 90.667969 687.25 91.410156 687.25 98.417969 L 687.25 180.152344 C 687.25 183.546875 686.542969 183.761719 685.933594 183.761719 L 681.753906 183.761719 L 681.753906 190.871094 L 699.792969 190.871094 L 699.792969 183.761719 L 695.644531 183.761719 C 695.003906 183.761719 694.328125 183.546875 694.328125 180.683594 L 694.328125 143.105469 C 694.328125 138.964844 694.226562 134.613281 694.226562 130.472656 C 694.226562 113.277344 696.722656 87.273438 704.34375 87.273438 C 708.960938 87.273438 709.097656 105.210938 709.097656 114.660156 L 709.097656 180.683594 C 709.097656 183.546875 708.421875 183.761719 707.816406 183.761719 L 703.632812 183.761719 L 703.632812 190.871094 L 721.671875 190.871094 L 721.671875 183.761719 L 717.523438 183.761719 C 717.050781 183.546875 716.34375 183.761719 716.210938 181.851562 L 716.210938 118.265625 C 716.210938 110.09375 716.109375 101.601562 714.828125 94.597656 C 712.804688 83.875 708.960938 81.644531 705.320312 81.644531 C 699.792969 81.644531 694.867188 95.976562 694.09375 112.003906 L 694.027344 81.644531 L 685.933594 82.921875 Z M 681.753906 83.664062 "/>
<path style=" stroke:none;fill-rule:nonzero;fill:rgb(74.901961%,74.901961%,74.901961%);fill-opacity:1;" d="M 747.230469 24.433594 L 747.230469 31.4375 L 749.019531 31.4375 C 751.007812 31.4375 752.726562 32.179688 752.726562 39.929688 L 752.726562 95.019531 C 750.097656 86.742188 746.859375 81.644531 742.917969 81.644531 C 737.925781 81.644531 732.53125 88.015625 729.464844 100.859375 C 726.902344 111.261719 725.992188 124.847656 725.992188 137.480469 C 725.992188 163.167969 730.441406 192.253906 742.074219 192.253906 C 746.253906 192.253906 749.691406 186.734375 752.558594 177.710938 L 752.558594 192.253906 L 765.101562 192.253906 L 765.101562 183.761719 L 763.179688 183.761719 C 761.257812 183.761719 759.636719 183.125 759.636719 175.269531 L 759.636719 22.523438 L 751.414062 23.691406 Z M 733.375 146.925781 L 733.375 134.296875 C 733.375 119.964844 733.679688 103.511719 737.625 93.851562 C 739.375 89.5 741.636719 87.273438 743.792969 87.273438 C 746.996094 87.273438 749.792969 91.835938 751.953125 100.328125 C 752.1875 101.601562 752.492188 102.558594 752.558594 104.042969 L 752.558594 165.609375 C 752.558594 167.308594 752.558594 168.792969 752.253906 170.175781 C 750.164062 180.152344 746.691406 186.734375 743.019531 186.734375 C 737.523438 186.734375 734.386719 173.144531 733.613281 156.164062 C 733.542969 152.976562 733.542969 150.113281 733.375 146.925781 Z M 733.375 146.925781 "/>
<path style=" stroke:none;fill-rule:nonzero;fill:rgb(74.901961%,74.901961%,74.901961%);fill-opacity:1;" d="M 817.410156 152.660156 C 818.421875 151.171875 818.488281 150.21875 818.488281 149.050781 C 818.488281 147.988281 818.386719 146.820312 817.410156 145.441406 L 788.484375 103.511719 C 787.808594 102.558594 787.675781 102.34375 787.574219 102.34375 C 786.933594 102.34375 786.5625 104.042969 786.5625 105.421875 C 786.5625 107.441406 787 108.078125 787.675781 109.140625 L 815.183594 149.050781 L 787.640625 189.066406 C 786.5625 190.554688 786.5625 191.722656 786.5625 192.785156 C 786.5625 194.164062 786.933594 195.753906 787.574219 195.753906 C 787.675781 195.753906 787.742188 195.648438 788.484375 194.589844 Z M 817.410156 152.660156 "/>
<path style=" stroke:none;fill-rule:nonzero;fill:rgb(74.901961%,74.901961%,74.901961%);fill-opacity:1;" d="M 869.800781 152.023438 L 883.960938 152.023438 C 884.703125 152.023438 885.613281 152.023438 885.613281 149.15625 C 885.613281 146.183594 884.769531 146.183594 883.960938 146.183594 L 869.800781 146.183594 L 869.800781 101.496094 C 869.800781 99.160156 869.800781 96.292969 868.890625 96.292969 C 867.914062 96.292969 867.914062 98.949219 867.914062 101.496094 L 867.914062 146.183594 L 853.753906 146.183594 C 853.011719 146.183594 852.101562 146.183594 852.101562 149.050781 C 852.101562 152.023438 852.945312 152.023438 853.753906 152.023438 L 867.914062 152.023438 L 867.914062 196.605469 C 867.914062 199.046875 867.914062 201.914062 868.824219 201.914062 C 869.800781 201.914062 869.800781 199.152344 869.800781 196.605469 Z M 869.800781 152.023438 "/>
<path style=" stroke:none;fill-rule:nonzero;fill:rgb(74.901961%,74.901961%,74.901961%);fill-opacity:1;" d="M 906.675781 47.253906 L 906.675781 54.261719 C 910.113281 54.261719 913.585938 53.304688 916.890625 49.90625 L 916.890625 180.152344 L 916.753906 182.804688 L 915.980469 183.546875 L 907.046875 183.546875 L 907.046875 190.871094 L 933.914062 190.871094 L 933.914062 183.761719 L 925.6875 183.761719 C 924.847656 183.761719 924.136719 183.335938 924.136719 180.363281 L 924.136719 34.835938 C 924.136719 33.667969 924.136719 31.757812 923.597656 31.757812 C 922.453125 31.757812 921.070312 36.851562 919.824219 38.761719 C 915.8125 45.554688 911.191406 47.253906 906.675781 47.253906 Z M 906.675781 47.253906 "/>
<path style=" stroke:none;fill-rule:nonzero;fill:rgb(74.901961%,74.901961%,74.901961%);fill-opacity:1;" d="M 973.289062 9.148438 C 972.445312 10.101562 971.90625 17.214844 971.535156 20.824219 C 962.367188 93.324219 954.105469 166.566406 944.9375 238.851562 L 944.261719 244.902344 C 944.09375 245.859375 943.957031 247.132812 943.855469 248.300781 C 943.855469 249.785156 944.261719 251.269531 944.699219 251.269531 L 944.867188 251.269531 C 945.40625 250.953125 945.644531 249.574219 945.777344 248.085938 L 946.957031 238.640625 C 955.65625 165.398438 964.589844 92.578125 973.59375 19.65625 L 974.132812 14.984375 C 974.234375 14.03125 974.433594 13.074219 974.433594 11.800781 C 974.433594 10.101562 973.996094 9.148438 973.523438 9.148438 Z M 973.289062 9.148438 "/>
<path style=" stroke:none;fill-rule:nonzero;fill:rgb(74.901961%,74.901961%,74.901961%);fill-opacity:1;" d="M 1001.625 207.007812 C 1003.3125 207.007812 1003.34375 206.796875 1003.882812 203.613281 L 1033.148438 11.378906 C 1033.519531 9.148438 1033.519531 8.832031 1033.519531 8.300781 C 1033.519531 6.496094 1033.078125 5.011719 1032.4375 5.011719 C 1031.730469 5.011719 1031.527344 6.496094 1031.257812 8.300781 L 1003.683594 189.496094 L 992.285156 105.957031 L 984.835938 124 L 985.644531 126.65625 L 989.453125 117.632812 Z M 1001.625 207.007812 "/>
<path style="fill:none;stroke-width:9.99;stroke-linecap:butt;stroke-linejoin:miter;stroke:rgb(74.901961%,74.901961%,74.901961%);stroke-opacity:1;stroke-miterlimit:10;" d="M 4785.076083 357.7755 L 4968.054896 357.7755 " transform="matrix(0.215765,0,0,-0.679348,0.000000000000392475,251.358696)"/>
<path style=" stroke:none;fill-rule:nonzero;fill:rgb(74.901961%,74.901961%,74.901961%);fill-opacity:1;" d="M 1038.753906 62.753906 C 1040.539062 47.996094 1044.789062 38.761719 1049.476562 38.761719 C 1055.949219 38.761719 1060.195312 56.703125 1060.195312 76.339844 L 1060.195312 78.992188 C 1059.722656 101.390625 1054.9375 119.011719 1050.386719 135.039062 C 1046.542969 148.625 1042.632812 162.425781 1038.753906 176.011719 L 1037.304688 181.105469 C 1036.699219 183.125 1036.292969 184.503906 1036.292969 187.15625 C 1036.292969 188.429688 1036.394531 189.597656 1036.394531 190.871094 L 1066.128906 190.871094 L 1067.882812 144.0625 L 1065.894531 144.0625 C 1065.488281 153.507812 1065.589844 166.777344 1062.65625 166.777344 C 1060.734375 167.519531 1058.710938 167.839844 1056.789062 167.839844 C 1054.800781 167.839844 1052.878906 167.519531 1050.925781 167.519531 L 1043.304688 167.519531 C 1046.710938 157.648438 1050.015625 146.925781 1053.554688 137.480469 L 1058.171875 125.0625 C 1062.960938 112.21875 1067.882812 98.207031 1067.882812 76.125 L 1067.882812 73.683594 C 1067.105469 46.511719 1059.65625 31.757812 1051.398438 31.757812 C 1044.148438 31.757812 1036.394531 47.464844 1036.394531 73.683594 C 1036.394531 82.175781 1038.148438 86.742188 1040.304688 86.742188 C 1042.226562 86.742188 1044.25 82.390625 1044.25 74.640625 C 1044.25 67.636719 1042.632812 62.007812 1040.371094 62.007812 C 1039.832031 62.007812 1039.292969 62.328125 1038.753906 62.753906 Z M 1038.753906 62.753906 "/>
<path style=" stroke:none;fill-rule:nonzero;fill:rgb(74.901961%,74.901961%,74.901961%);fill-opacity:1;" d="M 1103.378906 70.925781 C 1103.378906 67.847656 1103.378906 64.875 1102.296875 64.875 C 1101.253906 64.875 1101.253906 67.847656 1101.253906 70.925781 L 1101.253906 227.070312 C 1101.253906 230.148438 1101.253906 233.121094 1102.296875 233.121094 C 1103.378906 233.121094 1103.378906 230.148438 1103.378906 227.070312 Z M 1103.378906 70.925781 "/>
<path style=" stroke:none;fill-rule:nonzero;fill:rgb(74.901961%,74.901961%,74.901961%);fill-opacity:1;" d="M 1123.527344 81.007812 C 1118.066406 82.707031 1112.367188 89.183594 1112.367188 111.582031 C 1112.367188 133.128906 1118.976562 140.878906 1124.773438 144.0625 C 1128.011719 145.972656 1133.84375 149.15625 1133.84375 166.140625 C 1133.84375 181.105469 1129.695312 186.734375 1125.515625 186.734375 C 1120.222656 186.734375 1115.671875 175.800781 1114.523438 153.507812 C 1114.289062 151.066406 1114.222656 150.535156 1113.277344 150.535156 C 1112.433594 150.535156 1112.367188 151.28125 1112.367188 152.976562 L 1112.367188 189.917969 C 1112.367188 190.871094 1112.433594 192.039062 1112.738281 192.039062 L 1112.90625 192.039062 C 1113.882812 192.039062 1115.671875 182.59375 1116.515625 181.851562 L 1116.582031 181.851562 C 1117.222656 181.851562 1118.976562 187.902344 1120.660156 189.917969 C 1122.210938 191.617188 1123.828125 192.253906 1125.449219 192.253906 C 1132.089844 192.253906 1138.15625 182.59375 1138.15625 158.816406 C 1138.15625 141.832031 1134.246094 128.457031 1128.988281 124.636719 C 1124.4375 121.027344 1116.683594 120.707031 1116.683594 103.511719 C 1116.683594 88.96875 1121.671875 86.316406 1124.773438 86.316406 C 1129.695312 86.316406 1133.066406 92.898438 1134.144531 112.746094 C 1134.144531 114.660156 1134.316406 116.144531 1135.089844 116.144531 C 1135.695312 116.144531 1136.167969 115.613281 1136.167969 113.703125 L 1136.167969 83.34375 C 1136.167969 82.175781 1136.066406 81.222656 1135.628906 81.222656 C 1134.617188 81.222656 1133.371094 87.804688 1132.628906 87.804688 C 1132.089844 87.804688 1130.707031 84.617188 1129.761719 83.34375 C 1128.144531 81.644531 1126.460938 80.691406 1124.773438 80.691406 C 1124.367188 80.691406 1123.898438 81.007812 1123.527344 81.007812 Z M 1123.527344 81.007812 "/>
<path style=" stroke:none;fill-rule:nonzero;fill:rgb(74.901961%,74.901961%,74.901961%);fill-opacity:1;" d="M 1170.058594 176.332031 L 1170.058594 226.539062 L 1169.820312 230.148438 L 1168.371094 230.890625 L 1164.597656 230.890625 L 1164.597656 237.894531 L 1182.597656 237.894531 L 1182.597656 230.890625 L 1178.621094 230.890625 C 1177.980469 230.359375 1177.136719 231.101562 1177.136719 227.707031 L 1177.136719 81.644531 L 1175.382812 82.175781 L 1171.070312 104.042969 C 1168.8125 91.410156 1165.371094 81.644531 1160.347656 81.644531 C 1151.414062 81.644531 1143.492188 100.859375 1143.492188 137.480469 C 1143.492188 165.398438 1148.785156 192.253906 1159.675781 192.253906 C 1163.886719 192.253906 1167.359375 186.203125 1170.058594 176.332031 Z M 1150.875 142.042969 L 1150.875 138.964844 C 1150.875 119.542969 1152.730469 87.484375 1161.425781 87.484375 C 1166.214844 87.484375 1170.292969 103.511719 1170.292969 117.628906 C 1170.292969 120.496094 1170.226562 123.363281 1170.226562 126.335938 L 1170.226562 163.167969 C 1170.226562 165.820312 1169.890625 167.308594 1169.519531 169.535156 C 1167.664062 178.984375 1164.359375 186.734375 1160.820312 186.734375 C 1154.886719 186.734375 1152.019531 168.261719 1151.179688 152.234375 C 1151.042969 148.839844 1151.042969 145.441406 1150.875 142.042969 Z M 1150.875 142.042969 "/>
<path style=" stroke:none;fill-rule:nonzero;fill:rgb(74.901961%,74.901961%,74.901961%);fill-opacity:1;" d="M 1184.761719 83.664062 L 1184.761719 90.667969 L 1186.683594 90.667969 C 1188.234375 90.667969 1190.089844 91.199219 1190.257812 96.71875 L 1190.257812 159.347656 C 1190.257812 166.566406 1190.394531 173.570312 1191.640625 179.941406 C 1193.695312 190.34375 1198.484375 192.570312 1201.890625 192.570312 C 1206.171875 192.570312 1210.824219 185.246094 1212.207031 168.050781 L 1212.273438 192.253906 L 1224.679688 192.253906 L 1224.679688 183.761719 L 1222.894531 183.761719 C 1220.972656 183.761719 1219.21875 183.125 1219.21875 175.800781 L 1219.21875 81.644531 L 1206.644531 83.664062 L 1206.644531 90.667969 L 1208.261719 90.667969 C 1210.351562 90.667969 1212.105469 91.410156 1212.105469 98.628906 L 1212.105469 154.675781 C 1211.667969 169.535156 1209.105469 186.734375 1203.339844 186.734375 C 1200.472656 186.734375 1197.777344 185.988281 1197.40625 171.449219 C 1197.339844 166.351562 1197.339844 161.46875 1197.339844 156.375 L 1197.339844 81.644531 L 1189.011719 82.921875 Z M 1184.761719 83.664062 "/>
<path style=" stroke:none;fill-rule:nonzero;fill:rgb(74.901961%,74.901961%,74.901961%);fill-opacity:1;" d="M 1235.070312 98.628906 C 1237.226562 91.199219 1240.160156 86.527344 1243.464844 86.527344 C 1248.789062 86.527344 1251.320312 100.859375 1251.320312 119.328125 C 1251.320312 123.148438 1251.253906 126.757812 1251.253906 130.472656 C 1242.621094 130.472656 1229.238281 137.480469 1229.238281 168.050781 C 1229.238281 185.988281 1236.214844 192.253906 1241.238281 192.253906 C 1245.320312 192.253906 1250.644531 184.503906 1251.621094 169.21875 L 1251.722656 169.21875 C 1251.722656 183.335938 1254.960938 191.617188 1258.804688 191.617188 C 1262.109375 191.617188 1264.804688 184.078125 1265.277344 173.890625 L 1265.277344 156.164062 L 1263.289062 156.164062 L 1263.289062 168.261719 C 1263.289062 174.101562 1262.949219 182.59375 1260.726562 182.59375 C 1258.5 182.59375 1258.332031 172.933594 1258.332031 168.050781 L 1258.332031 114.234375 C 1257.65625 89.5 1250.242188 81.007812 1244.105469 81.007812 C 1239.148438 81.007812 1231.933594 89.183594 1231.933594 109.351562 C 1231.933594 116.675781 1233.382812 121.453125 1235.609375 121.453125 C 1237.699219 121.453125 1239.25 116.355469 1239.25 109.882812 C 1239.25 103.511719 1237.699219 98.417969 1235.675781 98.417969 C 1235.472656 98.417969 1235.304688 98.628906 1235.070312 98.628906 Z M 1251.253906 134.296875 L 1251.253906 156.691406 C 1251.253906 171.660156 1248.25 186.203125 1243.09375 186.734375 L 1242.789062 186.734375 C 1239.453125 186.734375 1236.316406 178.664062 1236.316406 167.839844 L 1236.316406 167.308594 C 1236.316406 143.742188 1244.476562 135.570312 1251.253906 134.296875 Z M 1251.253906 134.296875 "/>
<path style=" stroke:none;fill-rule:nonzero;fill:rgb(74.901961%,74.901961%,74.901961%);fill-opacity:1;" d="M 1267.800781 83.664062 L 1267.800781 90.667969 L 1269.589844 90.667969 C 1271.511719 90.667969 1273.296875 91.410156 1273.296875 98.417969 L 1273.296875 180.152344 C 1273.296875 183.546875 1272.589844 183.761719 1271.980469 183.761719 L 1267.800781 183.761719 L 1267.800781 190.871094 L 1286.984375 190.871094 L 1286.984375 183.761719 L 1281.691406 183.761719 C 1280.914062 183.761719 1280.207031 183.761719 1280.207031 180.683594 L 1280.207031 156.375 C 1280.207031 150.855469 1280.140625 145.015625 1280.140625 139.390625 C 1280.140625 119.328125 1281.152344 87.273438 1288.769531 87.273438 C 1289.074219 87.273438 1289.445312 87.484375 1289.78125 87.484375 L 1289.78125 87.804688 C 1288.398438 89.5 1287.691406 93.851562 1287.691406 98.207031 C 1287.691406 104.46875 1289.242188 109.5625 1291.230469 109.5625 C 1293.625 109.5625 1294.941406 104.042969 1294.941406 98.207031 C 1294.941406 87.804688 1291.703125 81.644531 1288.769531 81.644531 C 1283.613281 81.644531 1280.445312 97.992188 1279.972656 112.21875 L 1279.90625 81.644531 L 1271.914062 82.921875 Z M 1267.800781 83.664062 "/>
<path style=" stroke:none;fill-rule:nonzero;fill:rgb(74.901961%,74.901961%,74.901961%);fill-opacity:1;" d="M 1306.707031 134.296875 L 1328.6875 134.296875 C 1328.824219 134.296875 1329.226562 134.613281 1329.53125 134.613281 C 1330.136719 134.613281 1330.441406 133.871094 1330.441406 132.171875 L 1330.441406 130.898438 C 1330.441406 118.265625 1329.597656 104.785156 1326.902344 94.597656 C 1324.273438 84.617188 1320.191406 81.007812 1316.179688 81.007812 C 1304.953125 81.007812 1299.324219 107.441406 1299.324219 136.3125 C 1299.324219 151.066406 1300.707031 165.820312 1304.011719 176.753906 C 1307.484375 187.902344 1312.40625 192.253906 1317.191406 192.253906 L 1317.597656 192.253906 C 1322.957031 192.039062 1328.148438 181.636719 1330.136719 165.398438 C 1330.207031 164.652344 1330.375 163.699219 1330.375 162.742188 C 1330.375 161.789062 1330.136719 161.046875 1329.835938 161.046875 L 1329.429688 161.046875 C 1328.148438 161.046875 1327.8125 167.308594 1327.203125 170.703125 C 1325.28125 180.363281 1321.980469 186.519531 1318.339844 186.519531 C 1307.71875 186.519531 1306.707031 156.164062 1306.707031 134.296875 Z M 1306.707031 129.730469 C 1306.707031 110.835938 1308.628906 86.527344 1315.878906 86.527344 C 1322.351562 86.527344 1323.902344 111.261719 1323.902344 129.730469 Z M 1306.707031 129.730469 "/>
<path style=" stroke:none;fill-rule:nonzero;fill:rgb(74.901961%,74.901961%,74.901961%);fill-opacity:1;" d="M 1382.828125 152.660156 C 1383.839844 151.171875 1383.910156 150.21875 1383.910156 149.050781 C 1383.910156 147.988281 1383.808594 146.820312 1382.828125 145.441406 L 1353.902344 103.511719 C 1353.230469 102.558594 1353.09375 102.34375 1352.992188 102.34375 C 1352.351562 102.34375 1351.980469 104.042969 1351.980469 105.421875 C 1351.980469 107.441406 1352.421875 108.078125 1353.09375 109.140625 L 1380.605469 149.050781 L 1353.0625 189.066406 C 1351.980469 190.554688 1351.980469 191.722656 1351.980469 192.785156 C 1351.980469 194.164062 1352.351562 195.753906 1352.992188 195.753906 C 1353.09375 195.753906 1353.160156 195.648438 1353.902344 194.589844 Z M 1382.828125 152.660156 "/>
<path style=" stroke:none;fill-rule:nonzero;fill:rgb(74.901961%,74.901961%,74.901961%);fill-opacity:1;" d="M 1580.5 70.925781 C 1580.5 67.847656 1580.5 64.875 1579.421875 64.875 C 1578.375 64.875 1578.375 67.847656 1578.375 70.925781 L 1578.375 227.070312 C 1578.375 230.148438 1578.375 233.121094 1579.421875 233.121094 C 1580.5 233.121094 1580.5 230.148438 1580.5 227.070312 Z M 1580.5 70.925781 "/>
<path style=" stroke:none;fill-rule:nonzero;fill:rgb(74.901961%,74.901961%,74.901961%);fill-opacity:1;" d="M 1588.847656 24.433594 L 1588.847656 31.4375 L 1590.804688 31.4375 C 1592.625 31.4375 1594.34375 32.179688 1594.34375 39.71875 L 1594.34375 190.871094 L 1596.332031 190.34375 L 1600.582031 175.269531 C 1602.738281 186.734375 1607.289062 192.253906 1611.269531 192.253906 C 1615.042969 192.253906 1619.054688 188.429688 1622.054688 180.894531 C 1626.304688 170.175781 1627.988281 153.296875 1627.988281 136.523438 C 1627.988281 110.835938 1623.371094 81.433594 1612.042969 81.433594 C 1608.03125 81.433594 1604.121094 87.058594 1601.253906 95.765625 L 1601.253906 22.523438 L 1593.027344 23.691406 Z M 1620.539062 146.714844 C 1620.539062 166.566406 1617.300781 186.734375 1610.121094 186.734375 C 1606.648438 186.734375 1603.648438 180.683594 1601.792969 171.660156 C 1601.421875 169.960938 1601.421875 168.261719 1601.421875 166.351562 L 1601.421875 105 C 1601.894531 96.292969 1607.1875 87.273438 1610.898438 87.273438 C 1612.886719 87.273438 1614.910156 89.183594 1616.59375 93.535156 C 1620.4375 103.089844 1620.605469 119.753906 1620.605469 133.871094 L 1620.605469 140.347656 C 1620.605469 142.574219 1620.605469 144.804688 1620.539062 146.714844 Z M 1620.539062 146.714844 "/>
<path style=" stroke:none;fill-rule:nonzero;fill:rgb(74.901961%,74.901961%,74.901961%);fill-opacity:1;" d="M 1633.019531 24.433594 L 1633.019531 31.4375 L 1634.941406 31.4375 C 1636.863281 31.4375 1638.480469 32.5 1638.480469 40.25 L 1638.480469 180.894531 C 1638.480469 183.761719 1637.636719 183.335938 1636.996094 183.761719 L 1633.019531 183.761719 L 1633.019531 190.871094 L 1650.886719 190.871094 L 1650.886719 183.761719 L 1646.875 183.761719 C 1646.269531 183.335938 1645.390625 184.078125 1645.390625 180.683594 L 1645.390625 22.523438 L 1637.167969 23.691406 Z M 1633.019531 24.433594 "/>
<path style=" stroke:none;fill-rule:nonzero;fill:rgb(74.901961%,74.901961%,74.901961%);fill-opacity:1;" d="M 1654.863281 83.664062 L 1654.863281 90.667969 L 1656.785156 90.667969 C 1658.335938 90.667969 1660.191406 91.199219 1660.359375 96.71875 L 1660.359375 159.347656 C 1660.359375 166.566406 1660.492188 173.570312 1661.742188 179.941406 C 1663.796875 190.34375 1668.585938 192.570312 1671.988281 192.570312 C 1676.273438 192.570312 1680.925781 185.246094 1682.304688 168.050781 L 1682.375 192.253906 L 1694.78125 192.253906 L 1694.78125 183.761719 L 1692.992188 183.761719 C 1691.070312 183.761719 1689.320312 183.125 1689.320312 175.800781 L 1689.320312 81.644531 L 1676.742188 83.664062 L 1676.742188 90.667969 L 1678.363281 90.667969 C 1680.453125 90.667969 1682.207031 91.410156 1682.207031 98.628906 L 1682.207031 154.675781 C 1681.765625 169.535156 1679.203125 186.734375 1673.441406 186.734375 C 1670.574219 186.734375 1667.878906 185.988281 1667.507812 171.449219 C 1667.4375 166.351562 1667.4375 161.46875 1667.4375 156.375 L 1667.4375 81.644531 L 1659.113281 82.921875 Z M 1654.863281 83.664062 "/>
<path style=" stroke:none;fill-rule:nonzero;fill:rgb(74.901961%,74.901961%,74.901961%);fill-opacity:1;" d="M 1706.011719 134.296875 L 1727.996094 134.296875 C 1728.128906 134.296875 1728.535156 134.613281 1728.835938 134.613281 C 1729.445312 134.613281 1729.746094 133.871094 1729.746094 132.171875 L 1729.746094 130.898438 C 1729.746094 118.265625 1728.90625 104.785156 1726.207031 94.597656 C 1723.578125 84.617188 1719.5 81.007812 1715.488281 81.007812 C 1704.261719 81.007812 1698.628906 107.441406 1698.628906 136.3125 C 1698.628906 151.066406 1700.011719 165.820312 1703.316406 176.753906 C 1706.789062 187.902344 1711.710938 192.253906 1716.5 192.253906 L 1716.902344 192.253906 C 1722.261719 192.039062 1727.453125 181.636719 1729.445312 165.398438 C 1729.511719 164.652344 1729.679688 163.699219 1729.679688 162.742188 C 1729.679688 161.789062 1729.445312 161.046875 1729.140625 161.046875 L 1728.734375 161.046875 C 1727.453125 161.046875 1727.117188 167.308594 1726.511719 170.703125 C 1724.589844 180.363281 1721.285156 186.519531 1717.644531 186.519531 C 1707.023438 186.519531 1706.011719 156.164062 1706.011719 134.296875 Z M 1706.011719 129.730469 C 1706.011719 110.835938 1707.933594 86.527344 1715.183594 86.527344 C 1721.65625 86.527344 1723.207031 111.261719 1723.207031 129.730469 Z M 1706.011719 129.730469 "/>
<path style=" stroke:none;fill-rule:nonzero;fill:rgb(74.901961%,74.901961%,74.901961%);fill-opacity:1;" d="M 1782.0625 152.660156 C 1783.074219 151.171875 1783.140625 150.21875 1783.140625 149.050781 C 1783.140625 147.988281 1783.039062 146.820312 1782.0625 145.441406 L 1753.136719 103.511719 C 1752.460938 102.558594 1752.328125 102.34375 1752.226562 102.34375 C 1751.585938 102.34375 1751.214844 104.042969 1751.214844 105.421875 C 1751.214844 107.441406 1751.652344 108.078125 1752.328125 109.140625 L 1779.839844 149.050781 L 1752.292969 189.066406 C 1751.214844 190.554688 1751.214844 191.722656 1751.214844 192.785156 C 1751.214844 194.164062 1751.585938 195.753906 1752.226562 195.753906 C 1752.328125 195.753906 1752.394531 195.648438 1753.136719 194.589844 Z M 1782.0625 152.660156 "/>
<path style=" stroke:none;fill-rule:nonzero;fill:rgb(74.901961%,74.901961%,74.901961%);fill-opacity:1;" d="M 1851.671875 137.054688 C 1852.480469 137.054688 1853.257812 137.054688 1853.257812 134.191406 C 1853.257812 131.113281 1852.347656 131.113281 1851.4375 131.113281 L 1821.566406 131.113281 C 1820.65625 131.113281 1819.746094 131.113281 1819.746094 134.191406 C 1819.746094 137.054688 1820.554688 137.054688 1821.363281 137.054688 Z M 1851.4375 166.988281 C 1852.347656 166.988281 1853.257812 166.988281 1853.257812 164.015625 C 1853.257812 161.152344 1852.480469 161.152344 1851.671875 161.152344 L 1821.363281 161.152344 C 1820.554688 161.152344 1819.746094 161.152344 1819.746094 164.015625 C 1819.746094 166.988281 1820.65625 166.988281 1821.566406 166.988281 Z M 1851.4375 166.988281 "/>
<path style=" stroke:none;fill-rule:nonzero;fill:rgb(74.901961%,74.901961%,74.901961%);fill-opacity:1;" d="M 1877.269531 47.253906 L 1877.269531 54.261719 C 1880.707031 54.261719 1884.179688 53.304688 1887.484375 49.90625 L 1887.484375 180.152344 L 1887.351562 182.804688 L 1886.574219 183.546875 L 1877.640625 183.546875 L 1877.640625 190.871094 L 1904.511719 190.871094 L 1904.511719 183.761719 L 1896.285156 183.761719 C 1895.441406 183.761719 1894.734375 183.335938 1894.734375 180.363281 L 1894.734375 34.835938 C 1894.734375 33.667969 1894.734375 31.757812 1894.195312 31.757812 C 1893.046875 31.757812 1891.664062 36.851562 1890.417969 38.761719 C 1886.40625 45.554688 1881.785156 47.253906 1877.269531 47.253906 Z M 1877.269531 47.253906 "/>
<path style=" stroke:none;fill-rule:nonzero;fill:rgb(74.901961%,74.901961%,74.901961%);fill-opacity:1;" d="M 1943.882812 9.148438 C 1943.039062 10.101562 1942.5 17.214844 1942.128906 20.824219 C 1932.960938 93.324219 1924.699219 166.566406 1915.53125 238.851562 L 1914.855469 244.902344 C 1914.6875 245.859375 1914.550781 247.132812 1914.453125 248.300781 C 1914.453125 249.785156 1914.855469 251.269531 1915.292969 251.269531 L 1915.460938 251.269531 C 1916.003906 250.953125 1916.238281 249.574219 1916.371094 248.085938 L 1917.554688 238.640625 C 1926.25 165.398438 1935.183594 92.578125 1944.1875 19.65625 L 1944.726562 14.984375 C 1944.828125 14.03125 1945.027344 13.074219 1945.027344 11.800781 C 1945.027344 10.101562 1944.589844 9.148438 1944.117188 9.148438 Z M 1943.882812 9.148438 "/>
<path style=" stroke:none;fill-rule:nonzero;fill:rgb(74.901961%,74.901961%,74.901961%);fill-opacity:1;" d="M 1972.238281 207.007812 C 1973.925781 207.007812 1973.960938 206.796875 1974.5 203.613281 L 2003.761719 11.378906 C 2004.132812 9.148438 2004.132812 8.832031 2004.132812 8.300781 C 2004.132812 6.496094 2003.695312 5.011719 2003.054688 5.011719 C 2002.347656 5.011719 2002.144531 6.496094 2001.875 8.300781 L 1974.296875 189.496094 L 1962.902344 105.957031 L 1955.449219 124 L 1956.261719 126.65625 L 1960.070312 117.632812 Z M 1972.238281 207.007812 "/>
<path style="fill:none;stroke-width:9.99;stroke-linecap:butt;stroke-linejoin:miter;stroke:rgb(74.901961%,74.901961%,74.901961%);stroke-opacity:1;stroke-miterlimit:10;" d="M 9283.508896 357.7755 L 9466.487708 357.7755 " transform="matrix(0.215765,0,0,-0.679348,0.000000000000392475,251.358696)"/>
<path style=" stroke:none;fill-rule:nonzero;fill:rgb(74.901961%,74.901961%,74.901961%);fill-opacity:1;" d="M 2009.367188 62.753906 C 2011.15625 47.996094 2015.402344 38.761719 2020.089844 38.761719 C 2026.5625 38.761719 2030.808594 56.703125 2030.808594 76.339844 L 2030.808594 78.992188 C 2030.335938 101.390625 2025.550781 119.011719 2021 135.039062 C 2017.15625 148.625 2013.246094 162.425781 2009.367188 176.011719 L 2007.917969 181.105469 C 2007.3125 183.125 2006.90625 184.503906 2006.90625 187.15625 C 2006.90625 188.429688 2007.007812 189.597656 2007.007812 190.871094 L 2036.742188 190.871094 L 2038.496094 144.0625 L 2036.507812 144.0625 C 2036.101562 153.507812 2036.203125 166.777344 2033.269531 166.777344 C 2031.347656 167.519531 2029.324219 167.839844 2027.402344 167.839844 C 2025.414062 167.839844 2023.492188 167.519531 2021.539062 167.519531 L 2013.917969 167.519531 C 2017.324219 157.648438 2020.628906 146.925781 2024.167969 137.480469 L 2028.785156 125.0625 C 2033.574219 112.21875 2038.496094 98.207031 2038.496094 76.125 L 2038.496094 73.683594 C 2037.71875 46.511719 2030.269531 31.757812 2022.011719 31.757812 C 2014.761719 31.757812 2007.007812 47.464844 2007.007812 73.683594 C 2007.007812 82.175781 2008.761719 86.742188 2010.917969 86.742188 C 2012.839844 86.742188 2014.863281 82.390625 2014.863281 74.640625 C 2014.863281 67.636719 2013.246094 62.007812 2010.984375 62.007812 C 2010.445312 62.007812 2009.90625 62.328125 2009.367188 62.753906 Z M 2009.367188 62.753906 "/>
<path style=" stroke:none;fill-rule:nonzero;fill:rgb(74.901961%,74.901961%,74.901961%);fill-opacity:1;" d="M 2073.992188 70.925781 C 2073.992188 67.847656 2073.992188 64.875 2072.914062 64.875 C 2071.867188 64.875 2071.867188 67.847656 2071.867188 70.925781 L 2071.867188 227.070312 C 2071.867188 230.148438 2071.867188 233.121094 2072.914062 233.121094 C 2073.992188 233.121094 2073.992188 230.148438 2073.992188 227.070312 Z M 2073.992188 70.925781 "/>
<path style=" stroke:none;fill-rule:nonzero;fill:rgb(74.901961%,74.901961%,74.901961%);fill-opacity:1;" d="M 2104.21875 24.433594 L 2104.21875 31.4375 L 2106.007812 31.4375 C 2107.996094 31.4375 2109.714844 32.179688 2109.714844 39.929688 L 2109.714844 95.019531 C 2107.085938 86.742188 2103.847656 81.644531 2099.90625 81.644531 C 2094.914062 81.644531 2089.519531 88.015625 2086.453125 100.859375 C 2083.890625 111.261719 2082.980469 124.847656 2082.980469 137.480469 C 2082.980469 163.167969 2087.429688 192.253906 2099.0625 192.253906 C 2103.242188 192.253906 2106.679688 186.734375 2109.546875 177.710938 L 2109.546875 192.253906 L 2122.089844 192.253906 L 2122.089844 183.761719 L 2120.167969 183.761719 C 2118.246094 183.761719 2116.625 183.125 2116.625 175.269531 L 2116.625 22.523438 L 2108.402344 23.691406 Z M 2090.363281 146.925781 L 2090.363281 134.296875 C 2090.363281 119.964844 2090.667969 103.511719 2094.613281 93.851562 C 2096.363281 89.5 2098.625 87.273438 2100.78125 87.273438 C 2103.984375 87.273438 2106.78125 91.835938 2108.941406 100.328125 C 2109.175781 101.601562 2109.480469 102.558594 2109.546875 104.042969 L 2109.546875 165.609375 C 2109.546875 167.308594 2109.546875 168.792969 2109.242188 170.175781 C 2107.152344 180.152344 2103.679688 186.734375 2100.007812 186.734375 C 2094.511719 186.734375 2091.375 173.144531 2090.601562 156.164062 C 2090.53125 152.976562 2090.53125 150.113281 2090.363281 146.925781 Z M 2090.363281 146.925781 "/>
<path style=" stroke:none;fill-rule:nonzero;fill:rgb(74.901961%,74.901961%,74.901961%);fill-opacity:1;" d="M 2126.8125 83.664062 L 2126.8125 90.667969 L 2128.332031 90.667969 C 2130.285156 90.667969 2131.972656 91.410156 2131.972656 98.628906 L 2131.972656 180.152344 C 2131.972656 183.546875 2131.265625 183.761719 2130.65625 183.761719 L 2126.511719 183.761719 L 2126.511719 190.871094 L 2143.839844 190.871094 L 2143.839844 183.761719 L 2140.300781 183.761719 C 2139.589844 183.761719 2138.882812 183.761719 2138.882812 180.152344 L 2138.882812 81.644531 L 2130.894531 82.921875 Z M 2134.027344 23.476562 C 2132.039062 24.433594 2130.421875 29.738281 2130.421875 36.535156 C 2130.421875 43.644531 2132.34375 49.90625 2134.667969 49.90625 C 2136.894531 49.90625 2138.882812 44.070312 2138.882812 36.535156 C 2138.882812 29.527344 2136.960938 23.265625 2134.667969 23.265625 C 2134.433594 23.265625 2134.265625 23.476562 2134.027344 23.476562 Z M 2134.027344 23.476562 "/>
<path style=" stroke:none;fill-rule:nonzero;fill:rgb(74.901961%,74.901961%,74.901961%);fill-opacity:1;" d="M 2154.828125 98.628906 C 2156.984375 91.199219 2159.917969 86.527344 2163.222656 86.527344 C 2168.550781 86.527344 2171.078125 100.859375 2171.078125 119.328125 C 2171.078125 123.148438 2171.011719 126.757812 2171.011719 130.472656 C 2162.378906 130.472656 2148.996094 137.480469 2148.996094 168.050781 C 2148.996094 185.988281 2155.972656 192.253906 2160.996094 192.253906 C 2165.078125 192.253906 2170.402344 184.503906 2171.382812 169.21875 L 2171.484375 169.21875 C 2171.484375 183.335938 2174.71875 191.617188 2178.5625 191.617188 C 2181.867188 191.617188 2184.5625 184.078125 2185.035156 173.890625 L 2185.035156 156.164062 L 2183.046875 156.164062 L 2183.046875 168.261719 C 2183.046875 174.101562 2182.710938 182.59375 2180.484375 182.59375 C 2178.257812 182.59375 2178.089844 172.933594 2178.089844 168.050781 L 2178.089844 114.234375 C 2177.417969 89.5 2170 81.007812 2163.863281 81.007812 C 2158.90625 81.007812 2151.691406 89.183594 2151.691406 109.351562 C 2151.691406 116.675781 2153.140625 121.453125 2155.367188 121.453125 C 2157.457031 121.453125 2159.007812 116.355469 2159.007812 109.882812 C 2159.007812 103.511719 2157.457031 98.417969 2155.433594 98.417969 C 2155.234375 98.417969 2155.0625 98.628906 2154.828125 98.628906 Z M 2171.011719 134.296875 L 2171.011719 156.691406 C 2171.011719 171.660156 2168.011719 186.203125 2162.851562 186.734375 L 2162.546875 186.734375 C 2159.210938 186.734375 2156.074219 178.664062 2156.074219 167.839844 L 2156.074219 167.308594 C 2156.074219 143.742188 2164.234375 135.570312 2171.011719 134.296875 Z M 2171.011719 134.296875 "/>
<path style=" stroke:none;fill-rule:nonzero;fill:rgb(74.901961%,74.901961%,74.901961%);fill-opacity:1;" d="M 2187.796875 83.664062 L 2187.796875 90.667969 L 2189.582031 90.667969 C 2191.503906 90.667969 2193.292969 91.410156 2193.292969 98.417969 L 2193.292969 180.152344 C 2193.292969 183.546875 2192.582031 183.761719 2191.976562 183.761719 L 2187.796875 183.761719 L 2187.796875 190.871094 L 2205.832031 190.871094 L 2205.832031 183.761719 L 2201.6875 183.761719 C 2201.046875 183.761719 2200.371094 183.546875 2200.371094 180.683594 L 2200.371094 143.53125 C 2200.371094 139.390625 2200.269531 135.039062 2200.269531 130.6875 C 2200.269531 113.492188 2202.425781 87.273438 2210.449219 87.273438 C 2215.136719 87.273438 2215.238281 106.167969 2215.238281 114.660156 L 2215.238281 180.683594 C 2215.238281 183.546875 2214.53125 183.761719 2213.921875 183.761719 L 2209.742188 183.761719 L 2209.742188 190.871094 L 2227.78125 190.871094 L 2227.78125 183.761719 L 2223.632812 183.761719 C 2223.027344 183.761719 2222.316406 183.546875 2222.316406 180.683594 L 2222.316406 143.53125 C 2222.316406 139.390625 2222.25 135.039062 2222.25 130.6875 C 2222.25 113.492188 2224.410156 87.273438 2232.398438 87.273438 C 2237.117188 87.273438 2237.1875 106.167969 2237.1875 114.660156 L 2237.1875 180.683594 C 2237.1875 183.546875 2236.476562 183.761719 2235.871094 183.761719 L 2231.722656 183.761719 L 2231.722656 190.871094 L 2249.726562 190.871094 L 2249.726562 183.761719 L 2245.582031 183.761719 C 2245.109375 183.546875 2244.433594 183.761719 2244.265625 181.851562 L 2244.265625 118.265625 C 2244.265625 110.09375 2244.199219 101.601562 2242.882812 94.597656 C 2240.894531 84.085938 2237.015625 81.644531 2233.476562 81.644531 C 2228.859375 81.644531 2225.386719 89.925781 2223.328125 101.816406 C 2222.925781 104.257812 2222.488281 106.910156 2222.316406 109.882812 L 2222.25 109.882812 C 2221.777344 90.457031 2217.765625 81.644531 2211.699219 81.644531 C 2206 81.644531 2201.347656 94.808594 2200.136719 112.003906 L 2200.066406 81.644531 L 2191.976562 82.921875 Z M 2187.796875 83.664062 "/>
<path style=" stroke:none;fill-rule:nonzero;fill:rgb(74.901961%,74.901961%,74.901961%);fill-opacity:1;" d="M 2269.757812 81.007812 C 2266.453125 82.175781 2263.285156 84.40625 2260.519531 90.457031 C 2255.664062 100.859375 2253.507812 119.328125 2253.507812 137.269531 C 2253.507812 151.808594 2254.890625 166.777344 2258.195312 177.285156 C 2261.53125 187.902344 2266.453125 192.253906 2271.140625 192.253906 C 2281.558594 192.253906 2288.570312 169.007812 2288.570312 137.269531 C 2288.570312 124.425781 2287.558594 110.835938 2284.929688 100.328125 C 2281.558594 86.527344 2276.0625 81.007812 2270.601562 81.007812 Z M 2260.890625 145.230469 L 2260.890625 132.597656 C 2260.890625 119.964844 2260.992188 105 2264.058594 95.234375 C 2265.914062 89.5 2268.542969 86.527344 2271.070312 86.527344 C 2277.003906 86.527344 2280.308594 100.328125 2281.015625 118.796875 C 2281.152344 124.847656 2281.152344 130.898438 2281.152344 136.949219 C 2281.152344 149.898438 2281.152344 164.652344 2278.554688 175.269531 C 2276.703125 182.59375 2273.9375 186.203125 2271.070312 186.203125 C 2265.308594 186.203125 2261.667969 172.402344 2261.058594 152.554688 C 2260.992188 150.113281 2260.992188 147.671875 2260.890625 145.230469 Z M 2260.890625 145.230469 "/>
<path style=" stroke:none;fill-rule:nonzero;fill:rgb(74.901961%,74.901961%,74.901961%);fill-opacity:1;" d="M 2293.015625 83.664062 L 2293.015625 90.667969 L 2294.800781 90.667969 C 2296.722656 90.667969 2298.511719 91.410156 2298.511719 98.417969 L 2298.511719 180.152344 C 2298.511719 183.546875 2297.804688 183.761719 2297.195312 183.761719 L 2293.015625 183.761719 L 2293.015625 190.871094 L 2311.050781 190.871094 L 2311.050781 183.761719 L 2306.90625 183.761719 C 2306.265625 183.761719 2305.589844 183.546875 2305.589844 180.683594 L 2305.589844 143.105469 C 2305.589844 138.964844 2305.488281 134.613281 2305.488281 130.472656 C 2305.488281 113.277344 2307.984375 87.273438 2315.605469 87.273438 C 2320.222656 87.273438 2320.355469 105.210938 2320.355469 114.660156 L 2320.355469 180.683594 C 2320.355469 183.546875 2319.683594 183.761719 2319.074219 183.761719 L 2314.894531 183.761719 L 2314.894531 190.871094 L 2332.933594 190.871094 L 2332.933594 183.761719 L 2328.785156 183.761719 C 2328.3125 183.546875 2327.605469 183.761719 2327.46875 181.851562 L 2327.46875 118.265625 C 2327.46875 110.09375 2327.371094 101.601562 2326.089844 94.597656 C 2324.066406 83.875 2320.222656 81.644531 2316.582031 81.644531 C 2311.050781 81.644531 2306.128906 95.976562 2305.355469 112.003906 L 2305.289062 81.644531 L 2297.195312 82.921875 Z M 2293.015625 83.664062 "/>
<path style=" stroke:none;fill-rule:nonzero;fill:rgb(74.901961%,74.901961%,74.901961%);fill-opacity:1;" d="M 2358.492188 24.433594 L 2358.492188 31.4375 L 2360.28125 31.4375 C 2362.269531 31.4375 2363.988281 32.179688 2363.988281 39.929688 L 2363.988281 95.019531 C 2361.359375 86.742188 2358.121094 81.644531 2354.175781 81.644531 C 2349.1875 81.644531 2343.792969 88.015625 2340.726562 100.859375 C 2338.164062 111.261719 2337.253906 124.847656 2337.253906 137.480469 C 2337.253906 163.167969 2341.703125 192.253906 2353.335938 192.253906 C 2357.515625 192.253906 2360.953125 186.734375 2363.820312 177.710938 L 2363.820312 192.253906 L 2376.359375 192.253906 L 2376.359375 183.761719 L 2374.4375 183.761719 C 2372.519531 183.761719 2370.898438 183.125 2370.898438 175.269531 L 2370.898438 22.523438 L 2362.671875 23.691406 Z M 2344.636719 146.925781 L 2344.636719 134.296875 C 2344.636719 119.964844 2344.941406 103.511719 2348.882812 93.851562 C 2350.636719 89.5 2352.898438 87.273438 2355.054688 87.273438 C 2358.257812 87.273438 2361.054688 91.835938 2363.210938 100.328125 C 2363.449219 101.601562 2363.753906 102.558594 2363.820312 104.042969 L 2363.820312 165.609375 C 2363.820312 167.308594 2363.820312 168.792969 2363.515625 170.175781 C 2361.425781 180.152344 2357.953125 186.734375 2354.277344 186.734375 C 2348.785156 186.734375 2345.648438 173.144531 2344.871094 156.164062 C 2344.804688 152.976562 2344.804688 150.113281 2344.636719 146.925781 Z M 2344.636719 146.925781 "/>
<path style=" stroke:none;fill-rule:nonzero;fill:rgb(74.901961%,74.901961%,74.901961%);fill-opacity:1;" d="M 2428.671875 152.660156 C 2429.683594 151.171875 2429.75 150.21875 2429.75 149.050781 C 2429.75 147.988281 2429.648438 146.820312 2428.671875 145.441406 L 2399.746094 103.511719 C 2399.070312 102.558594 2398.9375 102.34375 2398.835938 102.34375 C 2398.195312 102.34375 2397.824219 104.042969 2397.824219 105.421875 C 2397.824219 107.441406 2398.261719 108.078125 2398.9375 109.140625 L 2426.445312 149.050781 L 2398.902344 189.066406 C 2397.824219 190.554688 2397.824219 191.722656 2397.824219 192.785156 C 2397.824219 194.164062 2398.195312 195.753906 2398.835938 195.753906 C 2398.9375 195.753906 2399.003906 195.648438 2399.746094 194.589844 Z M 2428.671875 152.660156 "/>
<path style=" stroke:none;fill-rule:nonzero;fill:rgb(74.901961%,74.901961%,74.901961%);fill-opacity:1;" d="M 2496.132812 152.339844 C 2497.042969 152.339844 2498.019531 152.339844 2498.019531 149.050781 C 2498.019531 145.652344 2497.042969 145.652344 2496.132812 145.652344 L 2467.207031 145.652344 C 2466.296875 145.652344 2465.351562 145.652344 2465.351562 149.050781 C 2465.351562 152.339844 2466.296875 152.339844 2467.207031 152.339844 Z M 2496.132812 152.339844 "/>
<path style=" stroke:none;fill-rule:nonzero;fill:rgb(74.901961%,74.901961%,74.901961%);fill-opacity:1;" d="M 2521.023438 47.253906 L 2521.023438 54.261719 C 2524.460938 54.261719 2527.933594 53.304688 2531.238281 49.90625 L 2531.238281 180.152344 L 2531.105469 182.804688 L 2530.328125 183.546875 L 2521.394531 183.546875 L 2521.394531 190.871094 L 2548.265625 190.871094 L 2548.265625 183.761719 L 2540.039062 183.761719 C 2539.195312 183.761719 2538.488281 183.335938 2538.488281 180.363281 L 2538.488281 34.835938 C 2538.488281 33.667969 2538.488281 31.757812 2537.949219 31.757812 C 2536.800781 31.757812 2535.417969 36.851562 2534.171875 38.761719 C 2530.160156 45.554688 2525.542969 47.253906 2521.023438 47.253906 Z M 2521.023438 47.253906 "/>
<path style=" stroke:none;fill-rule:nonzero;fill:rgb(74.901961%,74.901961%,74.901961%);fill-opacity:1;" d="M 2587.636719 9.148438 C 2586.792969 10.101562 2586.253906 17.214844 2585.882812 20.824219 C 2576.714844 93.324219 2568.453125 166.566406 2559.285156 238.851562 L 2558.609375 244.902344 C 2558.441406 245.859375 2558.304688 247.132812 2558.207031 248.300781 C 2558.207031 249.785156 2558.609375 251.269531 2559.046875 251.269531 L 2559.214844 251.269531 C 2559.757812 250.953125 2559.992188 249.574219 2560.128906 248.085938 L 2561.308594 238.640625 C 2570.003906 165.398438 2578.9375 92.578125 2587.941406 19.65625 L 2588.480469 14.984375 C 2588.582031 14.03125 2588.785156 13.074219 2588.785156 11.800781 C 2588.785156 10.101562 2588.34375 9.148438 2587.871094 9.148438 Z M 2587.636719 9.148438 "/>
<path style=" stroke:none;fill-rule:nonzero;fill:rgb(74.901961%,74.901961%,74.901961%);fill-opacity:1;" d="M 2615.992188 207.007812 C 2617.679688 207.007812 2617.714844 206.796875 2618.253906 203.613281 L 2647.515625 11.378906 C 2647.886719 9.148438 2647.886719 8.832031 2647.886719 8.300781 C 2647.886719 6.496094 2647.449219 5.011719 2646.808594 5.011719 C 2646.101562 5.011719 2645.898438 6.496094 2645.628906 8.300781 L 2618.050781 189.496094 L 2606.65625 105.957031 L 2599.203125 124 L 2600.015625 126.65625 L 2603.824219 117.632812 Z M 2615.992188 207.007812 "/>
<path style="fill:none;stroke-width:9.99;stroke-linecap:butt;stroke-linejoin:miter;stroke:rgb(74.901961%,74.901961%,74.901961%);stroke-opacity:1;stroke-miterlimit:10;" d="M 12267.111771 357.7755 L 12450.108687 357.7755 " transform="matrix(0.215765,0,0,-0.679348,0.000000000000392475,251.358696)"/>
<path style=" stroke:none;fill-rule:nonzero;fill:rgb(74.901961%,74.901961%,74.901961%);fill-opacity:1;" d="M 2653.117188 62.753906 C 2654.90625 47.996094 2659.152344 38.761719 2663.839844 38.761719 C 2670.3125 38.761719 2674.558594 56.703125 2674.558594 76.339844 L 2674.558594 78.992188 C 2674.089844 101.390625 2669.300781 119.011719 2664.75 135.039062 C 2660.90625 148.625 2656.996094 162.425781 2653.117188 176.011719 L 2651.667969 181.105469 C 2651.0625 183.125 2650.65625 184.503906 2650.65625 187.15625 C 2650.65625 188.429688 2650.757812 189.597656 2650.757812 190.871094 L 2680.492188 190.871094 L 2682.246094 144.0625 L 2680.257812 144.0625 C 2679.851562 153.507812 2679.953125 166.777344 2677.019531 166.777344 C 2675.097656 167.519531 2673.078125 167.839844 2671.15625 167.839844 C 2669.164062 167.839844 2667.242188 167.519531 2665.289062 167.519531 L 2657.667969 167.519531 C 2661.074219 157.648438 2664.378906 146.925781 2667.917969 137.480469 L 2672.539062 125.0625 C 2677.324219 112.21875 2682.246094 98.207031 2682.246094 76.125 L 2682.246094 73.683594 C 2681.472656 46.511719 2674.019531 31.757812 2665.761719 31.757812 C 2658.511719 31.757812 2650.757812 47.464844 2650.757812 73.683594 C 2650.757812 82.175781 2652.511719 86.742188 2654.667969 86.742188 C 2656.589844 86.742188 2658.613281 82.390625 2658.613281 74.640625 C 2658.613281 67.636719 2656.996094 62.007812 2654.738281 62.007812 C 2654.195312 62.007812 2653.65625 62.328125 2653.117188 62.753906 Z M 2653.117188 62.753906 "/>
<path style=" stroke:none;fill-rule:nonzero;fill:rgb(74.901961%,74.901961%,74.901961%);fill-opacity:1;" d="M 2717.742188 70.925781 C 2717.742188 67.847656 2717.742188 64.875 2716.664062 64.875 C 2715.617188 64.875 2715.617188 67.847656 2715.617188 70.925781 L 2715.617188 227.070312 C 2715.617188 230.148438 2715.617188 233.121094 2716.664062 233.121094 C 2717.742188 233.121094 2717.742188 230.148438 2717.742188 227.070312 Z M 2717.742188 70.925781 "/>
<path style=" stroke:none;fill-rule:nonzero;fill:rgb(74.901961%,74.901961%,74.901961%);fill-opacity:1;" d="M 2737.890625 81.007812 C 2732.429688 82.707031 2726.730469 89.183594 2726.730469 111.582031 C 2726.730469 133.128906 2733.339844 140.878906 2739.136719 144.0625 C 2742.375 145.972656 2748.207031 149.15625 2748.207031 166.140625 C 2748.207031 181.105469 2744.058594 186.734375 2739.878906 186.734375 C 2734.585938 186.734375 2730.035156 175.800781 2728.890625 153.507812 C 2728.652344 151.066406 2728.585938 150.535156 2727.640625 150.535156 C 2726.796875 150.535156 2726.730469 151.28125 2726.730469 152.976562 L 2726.730469 189.917969 C 2726.730469 190.871094 2726.796875 192.039062 2727.101562 192.039062 L 2727.269531 192.039062 C 2728.25 192.039062 2730.035156 182.59375 2730.878906 181.851562 L 2730.945312 181.851562 C 2731.585938 181.851562 2733.339844 187.902344 2735.023438 189.917969 C 2736.574219 191.617188 2738.195312 192.253906 2739.8125 192.253906 C 2746.453125 192.253906 2752.523438 182.59375 2752.523438 158.816406 C 2752.523438 141.832031 2748.613281 128.457031 2743.351562 124.636719 C 2738.800781 121.027344 2731.046875 120.707031 2731.046875 103.511719 C 2731.046875 88.96875 2736.035156 86.316406 2739.136719 86.316406 C 2744.058594 86.316406 2747.429688 92.898438 2748.511719 112.746094 C 2748.511719 114.660156 2748.679688 116.144531 2749.453125 116.144531 C 2750.0625 116.144531 2750.53125 115.613281 2750.53125 113.703125 L 2750.53125 83.34375 C 2750.53125 82.175781 2750.433594 81.222656 2749.992188 81.222656 C 2748.980469 81.222656 2747.734375 87.804688 2746.992188 87.804688 C 2746.453125 87.804688 2745.070312 84.617188 2744.128906 83.34375 C 2742.507812 81.644531 2740.824219 80.691406 2739.136719 80.691406 C 2738.734375 80.691406 2738.261719 81.007812 2737.890625 81.007812 Z M 2737.890625 81.007812 "/>
<path style=" stroke:none;fill-rule:nonzero;fill:rgb(74.901961%,74.901961%,74.901961%);fill-opacity:1;" d="M 2784.421875 176.332031 L 2784.421875 226.539062 L 2784.1875 230.148438 L 2782.738281 230.890625 L 2778.960938 230.890625 L 2778.960938 237.894531 L 2796.964844 237.894531 L 2796.964844 230.890625 L 2792.984375 230.890625 C 2792.34375 230.359375 2791.503906 231.101562 2791.503906 227.707031 L 2791.503906 81.644531 L 2789.75 82.175781 L 2785.433594 104.042969 C 2783.175781 91.410156 2779.734375 81.644531 2774.710938 81.644531 C 2765.777344 81.644531 2757.855469 100.859375 2757.855469 137.480469 C 2757.855469 165.398438 2763.148438 192.253906 2774.039062 192.253906 C 2778.253906 192.253906 2781.726562 186.203125 2784.421875 176.332031 Z M 2765.238281 142.042969 L 2765.238281 138.964844 C 2765.238281 119.542969 2767.09375 87.484375 2775.792969 87.484375 C 2780.578125 87.484375 2784.65625 103.511719 2784.65625 117.628906 C 2784.65625 120.496094 2784.589844 123.363281 2784.589844 126.335938 L 2784.589844 163.167969 C 2784.589844 165.820312 2784.253906 167.308594 2783.882812 169.535156 C 2782.027344 178.984375 2778.726562 186.734375 2775.183594 186.734375 C 2769.25 186.734375 2766.386719 168.261719 2765.542969 152.234375 C 2765.40625 148.839844 2765.40625 145.441406 2765.238281 142.042969 Z M 2765.238281 142.042969 "/>
<path style=" stroke:none;fill-rule:nonzero;fill:rgb(74.901961%,74.901961%,74.901961%);fill-opacity:1;" d="M 2799.128906 83.664062 L 2799.128906 90.667969 L 2801.046875 90.667969 C 2802.601562 90.667969 2804.453125 91.199219 2804.621094 96.71875 L 2804.621094 159.347656 C 2804.621094 166.566406 2804.757812 173.570312 2806.003906 179.941406 C 2808.0625 190.34375 2812.847656 192.570312 2816.253906 192.570312 C 2820.535156 192.570312 2825.1875 185.246094 2826.570312 168.050781 L 2826.636719 192.253906 L 2839.042969 192.253906 L 2839.042969 183.761719 L 2837.257812 183.761719 C 2835.335938 183.761719 2833.582031 183.125 2833.582031 175.800781 L 2833.582031 81.644531 L 2821.007812 83.664062 L 2821.007812 90.667969 L 2822.625 90.667969 C 2824.714844 90.667969 2826.46875 91.410156 2826.46875 98.628906 L 2826.46875 154.675781 C 2826.03125 169.535156 2823.46875 186.734375 2817.703125 186.734375 C 2814.835938 186.734375 2812.140625 185.988281 2811.769531 171.449219 C 2811.703125 166.351562 2811.703125 161.46875 2811.703125 156.375 L 2811.703125 81.644531 L 2803.375 82.921875 Z M 2799.128906 83.664062 "/>
<path style=" stroke:none;fill-rule:nonzero;fill:rgb(74.901961%,74.901961%,74.901961%);fill-opacity:1;" d="M 2849.433594 98.628906 C 2851.589844 91.199219 2854.523438 86.527344 2857.828125 86.527344 C 2863.15625 86.527344 2865.683594 100.859375 2865.683594 119.328125 C 2865.683594 123.148438 2865.617188 126.757812 2865.617188 130.472656 C 2856.984375 130.472656 2843.601562 137.480469 2843.601562 168.050781 C 2843.601562 185.988281 2850.578125 192.253906 2855.601562 192.253906 C 2859.683594 192.253906 2865.007812 184.503906 2865.988281 169.21875 L 2866.089844 169.21875 C 2866.089844 183.335938 2869.324219 191.617188 2873.167969 191.617188 C 2876.472656 191.617188 2879.167969 184.078125 2879.640625 173.890625 L 2879.640625 156.164062 L 2877.652344 156.164062 L 2877.652344 168.261719 C 2877.652344 174.101562 2877.316406 182.59375 2875.089844 182.59375 C 2872.863281 182.59375 2872.695312 172.933594 2872.695312 168.050781 L 2872.695312 114.234375 C 2872.019531 89.5 2864.605469 81.007812 2858.46875 81.007812 C 2853.511719 81.007812 2846.296875 89.183594 2846.296875 109.351562 C 2846.296875 116.675781 2847.746094 121.453125 2849.972656 121.453125 C 2852.0625 121.453125 2853.613281 116.355469 2853.613281 109.882812 C 2853.613281 103.511719 2852.0625 98.417969 2850.039062 98.417969 C 2849.839844 98.417969 2849.667969 98.628906 2849.433594 98.628906 Z M 2865.617188 134.296875 L 2865.617188 156.691406 C 2865.617188 171.660156 2862.617188 186.203125 2857.457031 186.734375 L 2857.152344 186.734375 C 2853.816406 186.734375 2850.679688 178.664062 2850.679688 167.839844 L 2850.679688 167.308594 C 2850.679688 143.742188 2858.839844 135.570312 2865.617188 134.296875 Z M 2865.617188 134.296875 "/>
<path style=" stroke:none;fill-rule:nonzero;fill:rgb(74.901961%,74.901961%,74.901961%);fill-opacity:1;" d="M 2882.164062 83.664062 L 2882.164062 90.667969 L 2883.953125 90.667969 C 2885.875 90.667969 2887.660156 91.410156 2887.660156 98.417969 L 2887.660156 180.152344 C 2887.660156 183.546875 2886.953125 183.761719 2886.347656 183.761719 L 2882.164062 183.761719 L 2882.164062 190.871094 L 2901.347656 190.871094 L 2901.347656 183.761719 L 2896.054688 183.761719 C 2895.28125 183.761719 2894.570312 183.761719 2894.570312 180.683594 L 2894.570312 156.375 C 2894.570312 150.855469 2894.503906 145.015625 2894.503906 139.390625 C 2894.503906 119.328125 2895.515625 87.273438 2903.136719 87.273438 C 2903.4375 87.273438 2903.808594 87.484375 2904.144531 87.484375 L 2904.144531 87.804688 C 2902.765625 89.5 2902.054688 93.851562 2902.054688 98.207031 C 2902.054688 104.46875 2903.605469 109.5625 2905.597656 109.5625 C 2907.988281 109.5625 2909.304688 104.042969 2909.304688 98.207031 C 2909.304688 87.804688 2906.066406 81.644531 2903.136719 81.644531 C 2897.976562 81.644531 2894.808594 97.992188 2894.335938 112.21875 L 2894.269531 81.644531 L 2886.277344 82.921875 Z M 2882.164062 83.664062 "/>
<path style=" stroke:none;fill-rule:nonzero;fill:rgb(74.901961%,74.901961%,74.901961%);fill-opacity:1;" d="M 2921.070312 134.296875 L 2943.050781 134.296875 C 2943.1875 134.296875 2943.589844 134.613281 2943.894531 134.613281 C 2944.5 134.613281 2944.804688 133.871094 2944.804688 132.171875 L 2944.804688 130.898438 C 2944.804688 118.265625 2943.960938 104.785156 2941.265625 94.597656 C 2938.636719 84.617188 2934.554688 81.007812 2930.542969 81.007812 C 2919.316406 81.007812 2913.6875 107.441406 2913.6875 136.3125 C 2913.6875 151.066406 2915.070312 165.820312 2918.375 176.753906 C 2921.847656 187.902344 2926.769531 192.253906 2931.554688 192.253906 L 2931.960938 192.253906 C 2937.320312 192.039062 2942.511719 181.636719 2944.5 165.398438 C 2944.570312 164.652344 2944.738281 163.699219 2944.738281 162.742188 C 2944.738281 161.789062 2944.5 161.046875 2944.199219 161.046875 L 2943.792969 161.046875 C 2942.511719 161.046875 2942.175781 167.308594 2941.570312 170.703125 C 2939.648438 180.363281 2936.34375 186.519531 2932.703125 186.519531 C 2922.082031 186.519531 2921.070312 156.164062 2921.070312 134.296875 Z M 2921.070312 129.730469 C 2921.070312 110.835938 2922.992188 86.527344 2930.242188 86.527344 C 2936.714844 86.527344 2938.265625 111.261719 2938.265625 129.730469 Z M 2921.070312 129.730469 "/>
<path style=" stroke:none;fill-rule:nonzero;fill:rgb(74.901961%,74.901961%,74.901961%);fill-opacity:1;" d="M 2997.175781 152.660156 C 2998.1875 151.171875 2998.253906 150.21875 2998.253906 149.050781 C 2998.253906 147.988281 2998.152344 146.820312 2997.175781 145.441406 L 2968.25 103.511719 C 2967.574219 102.558594 2967.4375 102.34375 2967.339844 102.34375 C 2966.699219 102.34375 2966.328125 104.042969 2966.328125 105.421875 C 2966.328125 107.441406 2966.765625 108.078125 2967.4375 109.140625 L 2994.949219 149.050781 L 2967.40625 189.066406 C 2966.328125 190.554688 2966.328125 191.722656 2966.328125 192.785156 C 2966.328125 194.164062 2966.699219 195.753906 2967.339844 195.753906 C 2967.4375 195.753906 2967.507812 195.648438 2968.25 194.589844 Z M 2997.175781 152.660156 "/>
</g>
</svg>
