<?xml version="1.0" encoding="UTF-8"?>
<svg xmlns="http://www.w3.org/2000/svg" xmlns:xlink="http://www.w3.org/1999/xlink" width="3000px" height="300px" viewBox="0 0 3000 300" version="1.1">
<g id="surface1">
<path style=" stroke:none;fill-rule:nonzero;fill:rgb(74.901961%,74.901961%,74.901961%);fill-opacity:1;" d="M 3.648438 85.113281 C 3.648438 81.417969 3.648438 77.851562 2.570312 77.851562 C 1.523438 77.851562 1.523438 81.417969 1.523438 85.113281 L 1.523438 272.488281 C 1.523438 276.179688 1.523438 279.746094 2.570312 279.746094 C 3.648438 279.746094 3.648438 276.179688 3.648438 272.488281 Z M 3.648438 85.113281 "/>
<path style=" stroke:none;fill-rule:nonzero;fill:rgb(74.901961%,74.901961%,74.901961%);fill-opacity:1;" d="M 11.996094 100.398438 L 11.996094 108.804688 L 13.785156 108.804688 C 15.707031 108.804688 17.492188 109.699219 17.492188 118.105469 L 17.492188 216.183594 C 17.492188 220.261719 16.785156 220.515625 16.175781 220.515625 L 11.996094 220.515625 L 11.996094 229.050781 L 31.179688 229.050781 L 31.179688 220.515625 L 25.886719 220.515625 C 25.113281 220.515625 24.402344 220.515625 24.402344 216.824219 L 24.402344 187.652344 C 24.402344 181.027344 24.335938 174.023438 24.335938 167.273438 C 24.335938 143.199219 25.347656 104.730469 32.964844 104.730469 C 33.269531 104.730469 33.640625 104.984375 33.976562 104.984375 L 33.976562 105.367188 C 32.597656 107.40625 31.886719 112.628906 31.886719 117.851562 C 31.886719 125.363281 33.4375 131.480469 35.425781 131.480469 C 37.820312 131.480469 39.136719 124.855469 39.136719 117.851562 C 39.136719 105.367188 35.898438 97.980469 32.964844 97.980469 C 27.808594 97.980469 24.640625 117.59375 24.167969 134.664062 L 24.101562 97.980469 L 16.109375 99.507812 Z M 11.996094 100.398438 "/>
<path style=" stroke:none;fill-rule:nonzero;fill:rgb(74.901961%,74.901961%,74.901961%);fill-opacity:1;" d="M 50.902344 161.160156 L 72.882812 161.160156 C 73.019531 161.160156 73.421875 161.539062 73.726562 161.539062 C 74.332031 161.539062 74.636719 160.648438 74.636719 158.609375 L 74.636719 157.082031 C 74.636719 141.925781 73.792969 125.746094 71.097656 113.519531 C 68.46875 101.546875 64.386719 97.214844 60.375 97.214844 C 49.148438 97.214844 43.519531 128.933594 43.519531 163.578125 C 43.519531 181.285156 44.902344 198.988281 48.207031 212.109375 C 51.679688 225.484375 56.601562 230.707031 61.386719 230.707031 L 61.792969 230.707031 C 67.152344 230.453125 72.34375 217.96875 74.332031 198.480469 C 74.402344 197.589844 74.570312 196.441406 74.570312 195.296875 C 74.570312 194.148438 74.332031 193.257812 74.03125 193.257812 L 73.625 193.257812 C 72.34375 193.257812 72.007812 200.773438 71.398438 204.847656 C 69.480469 216.441406 66.175781 223.828125 62.535156 223.828125 C 51.914062 223.828125 50.902344 187.398438 50.902344 161.160156 Z M 50.902344 155.679688 C 50.902344 133.007812 52.824219 103.839844 60.074219 103.839844 C 66.546875 103.839844 68.097656 133.515625 68.097656 155.679688 Z M 50.902344 155.679688 "/>
<path style=" stroke:none;fill-rule:nonzero;fill:rgb(74.901961%,74.901961%,74.901961%);fill-opacity:1;" d="M 100.730469 29.324219 L 100.730469 37.730469 L 102.519531 37.730469 C 104.507812 37.730469 106.226562 38.621094 106.226562 47.917969 L 106.226562 114.027344 C 103.597656 104.09375 100.359375 97.980469 96.417969 97.980469 C 91.425781 97.980469 86.03125 105.621094 82.964844 121.035156 C 80.402344 133.515625 79.492188 149.820312 79.492188 164.980469 C 79.492188 195.804688 83.941406 230.707031 95.574219 230.707031 C 99.753906 230.707031 103.191406 224.082031 106.058594 213.253906 L 106.058594 230.707031 L 118.601562 230.707031 L 118.601562 220.515625 L 116.679688 220.515625 C 114.757812 220.515625 113.136719 219.753906 113.136719 210.324219 L 113.136719 27.03125 L 104.914062 28.429688 Z M 86.875 176.316406 L 86.875 161.160156 C 86.875 143.960938 87.179688 124.21875 91.125 112.628906 C 92.878906 107.40625 95.136719 104.730469 97.292969 104.730469 C 100.496094 104.730469 103.292969 110.207031 105.453125 120.398438 C 105.6875 121.925781 105.992188 123.074219 106.058594 124.855469 L 106.058594 198.734375 C 106.058594 200.773438 106.058594 202.554688 105.753906 204.210938 C 103.664062 216.183594 100.191406 224.082031 96.519531 224.082031 C 91.023438 224.082031 87.886719 207.777344 87.113281 187.398438 C 87.042969 183.578125 87.042969 180.136719 86.875 176.316406 Z M 86.875 176.316406 "/>
<path style=" stroke:none;fill-rule:nonzero;fill:rgb(74.901961%,74.901961%,74.901961%);fill-opacity:1;" d="M 170.800781 183.195312 C 171.8125 181.410156 171.878906 180.265625 171.878906 178.863281 C 171.878906 177.589844 171.777344 176.1875 170.800781 174.53125 L 141.875 124.21875 C 141.199219 123.074219 141.066406 122.816406 140.964844 122.816406 C 140.324219 122.816406 139.953125 124.855469 139.953125 126.511719 C 139.953125 128.933594 140.390625 129.695312 141.066406 130.96875 L 168.574219 178.863281 L 141.03125 226.886719 C 139.953125 228.667969 139.953125 230.070312 139.953125 231.34375 C 139.953125 233 140.324219 234.910156 140.964844 234.910156 C 141.066406 234.910156 141.132812 234.78125 141.875 233.507812 Z M 170.800781 183.195312 "/>
<path style=" stroke:none;fill-rule:nonzero;fill:rgb(74.901961%,74.901961%,74.901961%);fill-opacity:1;" d="M 240.410156 164.46875 C 241.21875 164.46875 241.996094 164.46875 241.996094 161.03125 C 241.996094 157.335938 241.082031 157.335938 240.171875 157.335938 L 210.304688 157.335938 C 209.394531 157.335938 208.484375 157.335938 208.484375 161.03125 C 208.484375 164.46875 209.292969 164.46875 210.101562 164.46875 Z M 240.171875 200.390625 C 241.082031 200.390625 241.996094 200.390625 241.996094 196.824219 C 241.996094 193.386719 241.21875 193.386719 240.410156 193.386719 L 210.101562 193.386719 C 209.292969 193.386719 208.484375 193.386719 208.484375 196.824219 C 208.484375 200.390625 209.394531 200.390625 210.304688 200.390625 Z M 240.171875 200.390625 "/>
<path style=" stroke:none;fill-rule:nonzero;fill:rgb(74.901961%,74.901961%,74.901961%);fill-opacity:1;" d="M 266.007812 56.707031 L 266.007812 65.117188 C 269.445312 65.117188 272.917969 63.96875 276.222656 59.894531 L 276.222656 216.183594 L 276.085938 219.371094 L 275.3125 220.261719 L 266.378906 220.261719 L 266.378906 229.050781 L 293.246094 229.050781 L 293.246094 220.515625 L 285.023438 220.515625 C 284.179688 220.515625 283.472656 220.007812 283.472656 216.441406 L 283.472656 41.804688 C 283.472656 40.402344 283.472656 38.113281 282.929688 38.113281 C 281.785156 38.113281 280.402344 44.226562 279.15625 46.519531 C 275.144531 54.671875 270.523438 56.707031 266.007812 56.707031 Z M 266.007812 56.707031 "/>
<path style=" stroke:none;fill-rule:nonzero;fill:rgb(74.901961%,74.901961%,74.901961%);fill-opacity:1;" d="M 332.621094 10.980469 C 331.777344 12.125 331.238281 20.660156 330.867188 24.992188 C 321.699219 111.992188 313.4375 199.882812 304.269531 286.625 L 303.59375 293.886719 C 303.425781 295.03125 303.289062 296.5625 303.1875 297.960938 C 303.1875 299.746094 303.59375 301.527344 304.03125 301.527344 L 304.199219 301.527344 C 304.738281 301.144531 304.976562 299.492188 305.109375 297.707031 L 306.289062 286.371094 C 314.988281 198.480469 323.921875 111.097656 332.925781 23.589844 L 333.464844 17.984375 C 333.566406 16.839844 333.765625 15.691406 333.765625 14.164062 C 333.765625 12.125 333.328125 10.980469 332.855469 10.980469 Z M 332.621094 10.980469 "/>
<path style=" stroke:none;fill-rule:nonzero;fill:rgb(74.901961%,74.901961%,74.901961%);fill-opacity:1;" d="M 360.976562 248.414062 C 362.664062 248.414062 362.695312 248.15625 363.238281 244.335938 L 392.5 13.65625 C 392.871094 10.980469 392.871094 10.597656 392.871094 9.960938 C 392.871094 7.796875 392.433594 6.011719 391.792969 6.011719 C 391.082031 6.011719 390.882812 7.796875 390.613281 9.960938 L 363.035156 227.394531 L 351.640625 127.148438 L 344.1875 148.804688 L 344.996094 151.988281 L 348.808594 141.160156 Z M 360.976562 248.414062 "/>
<path style="fill:none;stroke-width:9.99;stroke-linecap:butt;stroke-linejoin:miter;stroke:rgb(74.901961%,74.901961%,74.901961%);stroke-opacity:1;stroke-miterlimit:10;" d="M 1815.866021 357.771667 L 1998.826729 357.771667 " transform="matrix(0.215765,0,0,-0.815217,0.000000000000392475,301.630435)"/>
<path style=" stroke:none;fill-rule:nonzero;fill:rgb(74.901961%,74.901961%,74.901961%);fill-opacity:1;" d="M 398.105469 75.300781 C 399.894531 57.597656 404.140625 46.515625 408.828125 46.515625 C 415.300781 46.515625 419.546875 68.042969 419.546875 91.605469 L 419.546875 94.792969 C 419.074219 121.667969 414.289062 142.8125 409.738281 162.046875 C 405.894531 178.351562 401.984375 194.910156 398.105469 211.214844 L 396.65625 217.328125 C 396.050781 219.75 395.644531 221.40625 395.644531 224.589844 C 395.644531 226.117188 395.746094 227.519531 395.746094 229.046875 L 425.480469 229.046875 L 427.234375 172.875 L 425.246094 172.875 C 424.839844 184.210938 424.941406 200.132812 422.007812 200.132812 C 420.085938 201.023438 418.0625 201.40625 416.144531 201.40625 C 414.152344 201.40625 412.230469 201.023438 410.277344 201.023438 L 402.65625 201.023438 C 406.0625 189.179688 409.367188 176.3125 412.90625 164.976562 L 417.523438 150.074219 C 422.3125 134.660156 427.234375 117.847656 427.234375 91.351562 L 427.234375 88.421875 C 426.457031 55.8125 419.007812 38.109375 410.75 38.109375 C 403.5 38.109375 395.746094 56.960938 395.746094 88.421875 C 395.746094 98.613281 397.5 104.089844 399.65625 104.089844 C 401.578125 104.089844 403.601562 98.867188 403.601562 89.570312 C 403.601562 81.160156 401.984375 74.410156 399.722656 74.410156 C 399.183594 74.410156 398.644531 74.792969 398.105469 75.300781 Z M 398.105469 75.300781 "/>
<path style=" stroke:none;fill-rule:nonzero;fill:rgb(74.901961%,74.901961%,74.901961%);fill-opacity:1;" d="M 462.730469 85.109375 C 462.730469 81.417969 462.730469 77.851562 461.652344 77.851562 C 460.605469 77.851562 460.605469 81.417969 460.605469 85.109375 L 460.605469 272.484375 C 460.605469 276.175781 460.605469 279.742188 461.652344 279.742188 C 462.730469 279.742188 462.730469 276.175781 462.730469 272.484375 Z M 462.730469 85.109375 "/>
<path style=" stroke:none;fill-rule:nonzero;fill:rgb(74.901961%,74.901961%,74.901961%);fill-opacity:1;" d="M 492.957031 29.320312 L 492.957031 37.726562 L 494.746094 37.726562 C 496.734375 37.726562 498.453125 38.617188 498.453125 47.917969 L 498.453125 114.023438 C 495.824219 104.089844 492.585938 97.976562 488.644531 97.976562 C 483.652344 97.976562 478.257812 105.617188 475.191406 121.03125 C 472.628906 133.515625 471.71875 149.820312 471.71875 164.976562 C 471.71875 195.800781 476.167969 230.703125 487.800781 230.703125 C 491.980469 230.703125 495.417969 224.078125 498.285156 213.253906 L 498.285156 230.703125 L 510.828125 230.703125 L 510.828125 220.511719 L 508.90625 220.511719 C 506.984375 220.511719 505.363281 219.75 505.363281 210.324219 L 505.363281 27.027344 L 497.140625 28.425781 Z M 479.101562 176.3125 L 479.101562 161.15625 C 479.101562 143.960938 479.40625 124.214844 483.351562 112.625 C 485.101562 107.402344 487.363281 104.726562 489.519531 104.726562 C 492.722656 104.726562 495.519531 110.203125 497.679688 120.394531 C 497.914062 121.921875 498.21875 123.070312 498.285156 124.851562 L 498.285156 198.730469 C 498.285156 200.769531 498.285156 202.554688 497.980469 204.207031 C 495.890625 216.183594 492.417969 224.078125 488.746094 224.078125 C 483.25 224.078125 480.113281 207.773438 479.339844 187.394531 C 479.269531 183.574219 479.269531 180.132812 479.101562 176.3125 Z M 479.101562 176.3125 "/>
<path style=" stroke:none;fill-rule:nonzero;fill:rgb(74.901961%,74.901961%,74.901961%);fill-opacity:1;" d="M 515.554688 100.394531 L 515.554688 108.804688 L 517.070312 108.804688 C 519.023438 108.804688 520.710938 109.695312 520.710938 118.355469 L 520.710938 216.183594 C 520.710938 220.257812 520.003906 220.511719 519.394531 220.511719 L 515.25 220.511719 L 515.25 229.046875 L 532.578125 229.046875 L 532.578125 220.511719 L 529.039062 220.511719 C 528.332031 220.511719 527.621094 220.511719 527.621094 216.183594 L 527.621094 97.976562 L 519.632812 99.503906 Z M 522.765625 28.171875 C 520.777344 29.320312 519.160156 35.6875 519.160156 43.839844 C 519.160156 52.375 521.082031 59.890625 523.40625 59.890625 C 525.632812 59.890625 527.621094 52.882812 527.621094 43.839844 C 527.621094 35.433594 525.699219 27.917969 523.40625 27.917969 C 523.171875 27.917969 523.003906 28.171875 522.765625 28.171875 Z M 522.765625 28.171875 "/>
<path style=" stroke:none;fill-rule:nonzero;fill:rgb(74.901961%,74.901961%,74.901961%);fill-opacity:1;" d="M 543.566406 118.355469 C 545.722656 109.441406 548.65625 103.835938 551.960938 103.835938 C 557.289062 103.835938 559.816406 121.03125 559.816406 143.195312 C 559.816406 147.78125 559.75 152.109375 559.75 156.570312 C 551.117188 156.570312 537.734375 164.976562 537.734375 201.660156 C 537.734375 223.1875 544.714844 230.703125 549.734375 230.703125 C 553.816406 230.703125 559.140625 221.40625 560.121094 203.0625 L 560.222656 203.0625 C 560.222656 220.003906 563.457031 229.9375 567.300781 229.9375 C 570.605469 229.9375 573.300781 220.894531 573.773438 208.667969 L 573.773438 187.394531 L 571.785156 187.394531 L 571.785156 201.914062 C 571.785156 208.921875 571.449219 219.113281 569.222656 219.113281 C 566.996094 219.113281 566.828125 207.519531 566.828125 201.660156 L 566.828125 137.082031 C 566.15625 107.402344 558.738281 97.210938 552.601562 97.210938 C 547.644531 97.210938 540.429688 107.019531 540.429688 131.222656 C 540.429688 140.011719 541.882812 145.742188 544.105469 145.742188 C 546.195312 145.742188 547.746094 139.628906 547.746094 131.859375 C 547.746094 124.214844 546.195312 118.101562 544.171875 118.101562 C 543.972656 118.101562 543.804688 118.355469 543.566406 118.355469 Z M 559.75 161.15625 L 559.75 188.03125 C 559.75 205.992188 556.75 223.441406 551.589844 224.078125 L 551.285156 224.078125 C 547.949219 224.078125 544.8125 214.398438 544.8125 201.40625 L 544.8125 200.769531 C 544.8125 172.492188 552.972656 162.683594 559.75 161.15625 Z M 559.75 161.15625 "/>
<path style=" stroke:none;fill-rule:nonzero;fill:rgb(74.901961%,74.901961%,74.901961%);fill-opacity:1;" d="M 576.535156 100.394531 L 576.535156 108.804688 L 578.320312 108.804688 C 580.242188 108.804688 582.03125 109.695312 582.03125 118.101562 L 582.03125 216.183594 C 582.03125 220.257812 581.320312 220.511719 580.714844 220.511719 L 576.535156 220.511719 L 576.535156 229.046875 L 594.570312 229.046875 L 594.570312 220.511719 L 590.425781 220.511719 C 589.785156 220.511719 589.109375 220.257812 589.109375 216.820312 L 589.109375 172.238281 C 589.109375 167.269531 589.007812 162.046875 589.007812 156.824219 C 589.007812 136.1875 591.167969 104.726562 599.191406 104.726562 C 603.875 104.726562 603.976562 127.398438 603.976562 137.589844 L 603.976562 216.820312 C 603.976562 220.257812 603.269531 220.511719 602.664062 220.511719 L 598.480469 220.511719 L 598.480469 229.046875 L 616.519531 229.046875 L 616.519531 220.511719 L 612.371094 220.511719 C 611.765625 220.511719 611.058594 220.257812 611.058594 216.820312 L 611.058594 172.238281 C 611.058594 167.269531 610.988281 162.046875 610.988281 156.824219 C 610.988281 136.1875 613.148438 104.726562 621.136719 104.726562 C 625.855469 104.726562 625.925781 127.398438 625.925781 137.589844 L 625.925781 216.820312 C 625.925781 220.257812 625.214844 220.511719 624.609375 220.511719 L 620.464844 220.511719 L 620.464844 229.046875 L 638.464844 229.046875 L 638.464844 220.511719 L 634.320312 220.511719 C 633.847656 220.257812 633.171875 220.511719 633.003906 218.21875 L 633.003906 141.921875 C 633.003906 132.113281 632.9375 121.921875 631.621094 113.515625 C 629.632812 100.90625 625.757812 97.976562 622.214844 97.976562 C 617.597656 97.976562 614.125 107.910156 612.066406 122.175781 C 611.664062 125.105469 611.226562 128.292969 611.058594 131.859375 L 610.988281 131.859375 C 610.515625 108.546875 606.503906 97.976562 600.4375 97.976562 C 594.738281 97.976562 590.085938 113.769531 588.875 134.40625 L 588.804688 97.976562 L 580.714844 99.503906 Z M 576.535156 100.394531 "/>
<path style=" stroke:none;fill-rule:nonzero;fill:rgb(74.901961%,74.901961%,74.901961%);fill-opacity:1;" d="M 658.496094 97.210938 C 655.191406 98.613281 652.023438 101.289062 649.257812 108.546875 C 644.402344 121.03125 642.246094 143.195312 642.246094 164.722656 C 642.246094 182.171875 643.628906 200.132812 646.933594 212.742188 C 650.269531 225.480469 655.191406 230.703125 659.878906 230.703125 C 670.296875 230.703125 677.308594 202.808594 677.308594 164.722656 C 677.308594 149.308594 676.296875 133.003906 673.667969 120.394531 C 670.296875 103.835938 664.800781 97.210938 659.339844 97.210938 Z M 649.628906 174.273438 L 649.628906 159.117188 C 649.628906 143.960938 649.730469 126 652.796875 114.28125 C 654.652344 107.402344 657.28125 103.835938 659.8125 103.835938 C 665.746094 103.835938 669.046875 120.394531 669.757812 142.558594 C 669.890625 149.820312 669.890625 157.078125 669.890625 164.339844 C 669.890625 179.878906 669.890625 197.585938 667.296875 210.324219 C 665.441406 219.113281 662.675781 223.441406 659.8125 223.441406 C 654.046875 223.441406 650.40625 206.882812 649.796875 183.0625 C 649.730469 180.132812 649.730469 177.203125 649.628906 174.273438 Z M 649.628906 174.273438 "/>
<path style=" stroke:none;fill-rule:nonzero;fill:rgb(74.901961%,74.901961%,74.901961%);fill-opacity:1;" d="M 681.753906 100.394531 L 681.753906 108.804688 L 683.542969 108.804688 C 685.464844 108.804688 687.25 109.695312 687.25 118.101562 L 687.25 216.183594 C 687.25 220.257812 686.542969 220.511719 685.933594 220.511719 L 681.753906 220.511719 L 681.753906 229.046875 L 699.792969 229.046875 L 699.792969 220.511719 L 695.644531 220.511719 C 695.003906 220.511719 694.328125 220.257812 694.328125 216.820312 L 694.328125 171.726562 C 694.328125 166.757812 694.226562 161.539062 694.226562 156.570312 C 694.226562 135.933594 696.722656 104.726562 704.34375 104.726562 C 708.960938 104.726562 709.097656 126.253906 709.097656 137.589844 L 709.097656 216.820312 C 709.097656 220.257812 708.421875 220.511719 707.816406 220.511719 L 703.632812 220.511719 L 703.632812 229.046875 L 721.671875 229.046875 L 721.671875 220.511719 L 717.523438 220.511719 C 717.050781 220.257812 716.34375 220.511719 716.210938 218.21875 L 716.210938 141.921875 C 716.210938 132.113281 716.109375 121.921875 714.828125 113.515625 C 712.804688 100.652344 708.960938 97.976562 705.320312 97.976562 C 699.792969 97.976562 694.867188 115.171875 694.09375 134.40625 L 694.027344 97.976562 L 685.933594 99.503906 Z M 681.753906 100.394531 "/>
<path style=" stroke:none;fill-rule:nonzero;fill:rgb(74.901961%,74.901961%,74.901961%);fill-opacity:1;" d="M 747.230469 29.320312 L 747.230469 37.726562 L 749.019531 37.726562 C 751.007812 37.726562 752.726562 38.617188 752.726562 47.917969 L 752.726562 114.023438 C 750.097656 104.089844 746.859375 97.976562 742.917969 97.976562 C 737.925781 97.976562 732.53125 105.617188 729.464844 121.03125 C 726.902344 133.515625 725.992188 149.820312 725.992188 164.976562 C 725.992188 195.800781 730.441406 230.703125 742.074219 230.703125 C 746.253906 230.703125 749.691406 224.078125 752.558594 213.253906 L 752.558594 230.703125 L 765.101562 230.703125 L 765.101562 220.511719 L 763.179688 220.511719 C 761.257812 220.511719 759.636719 219.75 759.636719 210.324219 L 759.636719 27.027344 L 751.414062 28.425781 Z M 733.375 176.3125 L 733.375 161.15625 C 733.375 143.960938 733.679688 124.214844 737.625 112.625 C 739.375 107.402344 741.636719 104.726562 743.792969 104.726562 C 746.996094 104.726562 749.792969 110.203125 751.953125 120.394531 C 752.1875 121.921875 752.492188 123.070312 752.558594 124.851562 L 752.558594 198.730469 C 752.558594 200.769531 752.558594 202.554688 752.253906 204.207031 C 750.164062 216.183594 746.691406 224.078125 743.019531 224.078125 C 737.523438 224.078125 734.386719 207.773438 733.613281 187.394531 C 733.542969 183.574219 733.542969 180.132812 733.375 176.3125 Z M 733.375 176.3125 "/>
<path style=" stroke:none;fill-rule:nonzero;fill:rgb(74.901961%,74.901961%,74.901961%);fill-opacity:1;" d="M 817.410156 183.191406 C 818.421875 181.40625 818.488281 180.261719 818.488281 178.859375 C 818.488281 177.585938 818.386719 176.1875 817.410156 174.53125 L 788.484375 124.214844 C 787.808594 123.070312 787.675781 122.8125 787.574219 122.8125 C 786.933594 122.8125 786.5625 124.851562 786.5625 126.507812 C 786.5625 128.929688 787 129.691406 787.675781 130.964844 L 815.183594 178.859375 L 787.640625 226.882812 C 786.5625 228.664062 786.5625 230.066406 786.5625 231.339844 C 786.5625 232.996094 786.933594 234.90625 787.574219 234.90625 C 787.675781 234.90625 787.742188 234.78125 788.484375 233.503906 Z M 817.410156 183.191406 "/>
<path style=" stroke:none;fill-rule:nonzero;fill:rgb(74.901961%,74.901961%,74.901961%);fill-opacity:1;" d="M 869.800781 182.425781 L 883.960938 182.425781 C 884.703125 182.425781 885.613281 182.425781 885.613281 178.988281 C 885.613281 175.421875 884.769531 175.421875 883.960938 175.421875 L 869.800781 175.421875 L 869.800781 121.796875 C 869.800781 118.992188 869.800781 115.554688 868.890625 115.554688 C 867.914062 115.554688 867.914062 118.738281 867.914062 121.796875 L 867.914062 175.421875 L 853.753906 175.421875 C 853.011719 175.421875 852.101562 175.421875 852.101562 178.859375 C 852.101562 182.425781 852.945312 182.425781 853.753906 182.425781 L 867.914062 182.425781 L 867.914062 235.925781 C 867.914062 238.855469 867.914062 242.292969 868.824219 242.292969 C 869.800781 242.292969 869.800781 238.984375 869.800781 235.925781 Z M 869.800781 182.425781 "/>
<path style=" stroke:none;fill-rule:nonzero;fill:rgb(74.901961%,74.901961%,74.901961%);fill-opacity:1;" d="M 906.675781 56.707031 L 906.675781 65.113281 C 910.113281 65.113281 913.585938 63.964844 916.890625 59.890625 L 916.890625 216.183594 L 916.753906 219.367188 L 915.980469 220.257812 L 907.046875 220.257812 L 907.046875 229.046875 L 933.914062 229.046875 L 933.914062 220.511719 L 925.6875 220.511719 C 924.847656 220.511719 924.136719 220.003906 924.136719 216.4375 L 924.136719 41.800781 C 924.136719 40.402344 924.136719 38.109375 923.597656 38.109375 C 922.453125 38.109375 921.070312 44.222656 919.824219 46.515625 C 915.8125 54.667969 911.191406 56.707031 906.675781 56.707031 Z M 906.675781 56.707031 "/>
<path style=" stroke:none;fill-rule:nonzero;fill:rgb(74.901961%,74.901961%,74.901961%);fill-opacity:1;" d="M 973.289062 10.976562 C 972.445312 12.125 971.90625 20.65625 971.535156 24.988281 C 962.367188 111.988281 954.105469 199.878906 944.9375 286.621094 L 944.261719 293.882812 C 944.09375 295.027344 943.957031 296.558594 943.855469 297.957031 C 943.855469 299.742188 944.261719 301.523438 944.699219 301.523438 L 944.867188 301.523438 C 945.40625 301.144531 945.644531 299.488281 945.777344 297.703125 L 946.957031 286.367188 C 955.65625 198.476562 964.589844 111.09375 973.59375 23.585938 L 974.132812 17.984375 C 974.234375 16.835938 974.433594 15.691406 974.433594 14.160156 C 974.433594 12.125 973.996094 10.976562 973.523438 10.976562 Z M 973.289062 10.976562 "/>
<path style=" stroke:none;fill-rule:nonzero;fill:rgb(74.901961%,74.901961%,74.901961%);fill-opacity:1;" d="M 1001.625 248.410156 C 1003.3125 248.410156 1003.34375 248.15625 1003.882812 244.335938 L 1033.148438 13.65625 C 1033.519531 10.980469 1033.519531 10.597656 1033.519531 9.960938 C 1033.519531 7.796875 1033.078125 6.011719 1032.4375 6.011719 C 1031.730469 6.011719 1031.527344 7.796875 1031.257812 9.960938 L 1003.683594 227.394531 L 992.285156 127.148438 L 984.835938 148.800781 L 985.644531 151.988281 L 989.453125 141.160156 Z M 1001.625 248.410156 "/>
<path style="fill:none;stroke-width:9.99;stroke-linecap:butt;stroke-linejoin:miter;stroke:rgb(74.901961%,74.901961%,74.901961%);stroke-opacity:1;stroke-miterlimit:10;" d="M 4785.076083 357.771667 L 4968.054896 357.771667 " transform="matrix(0.215765,0,0,-0.815217,0.000000000000392475,301.630435)"/>
<path style=" stroke:none;fill-rule:nonzero;fill:rgb(74.901961%,74.901961%,74.901961%);fill-opacity:1;" d="M 1038.753906 75.300781 C 1040.539062 57.597656 1044.789062 46.515625 1049.476562 46.515625 C 1055.949219 46.515625 1060.195312 68.042969 1060.195312 91.605469 L 1060.195312 94.792969 C 1059.722656 121.667969 1054.9375 142.8125 1050.386719 162.046875 C 1046.542969 178.351562 1042.632812 194.910156 1038.753906 211.214844 L 1037.304688 217.328125 C 1036.699219 219.75 1036.292969 221.40625 1036.292969 224.589844 C 1036.292969 226.117188 1036.394531 227.519531 1036.394531 229.046875 L 1066.128906 229.046875 L 1067.882812 172.875 L 1065.894531 172.875 C 1065.488281 184.210938 1065.589844 200.132812 1062.65625 200.132812 C 1060.734375 201.023438 1058.710938 201.40625 1056.789062 201.40625 C 1054.800781 201.40625 1052.878906 201.023438 1050.925781 201.023438 L 1043.304688 201.023438 C 1046.710938 189.179688 1050.015625 176.3125 1053.554688 164.976562 L 1058.171875 150.074219 C 1062.960938 134.660156 1067.882812 117.847656 1067.882812 91.351562 L 1067.882812 88.421875 C 1067.105469 55.8125 1059.65625 38.109375 1051.398438 38.109375 C 1044.148438 38.109375 1036.394531 56.960938 1036.394531 88.421875 C 1036.394531 98.613281 1038.148438 104.089844 1040.304688 104.089844 C 1042.226562 104.089844 1044.25 98.867188 1044.25 89.570312 C 1044.25 81.160156 1042.632812 74.410156 1040.371094 74.410156 C 1039.832031 74.410156 1039.292969 74.792969 1038.753906 75.300781 Z M 1038.753906 75.300781 "/>
<path style=" stroke:none;fill-rule:nonzero;fill:rgb(74.901961%,74.901961%,74.901961%);fill-opacity:1;" d="M 1103.378906 85.109375 C 1103.378906 81.417969 1103.378906 77.851562 1102.296875 77.851562 C 1101.253906 77.851562 1101.253906 81.417969 1101.253906 85.109375 L 1101.253906 272.484375 C 1101.253906 276.175781 1101.253906 279.742188 1102.296875 279.742188 C 1103.378906 279.742188 1103.378906 276.175781 1103.378906 272.484375 Z M 1103.378906 85.109375 "/>
<path style=" stroke:none;fill-rule:nonzero;fill:rgb(74.901961%,74.901961%,74.901961%);fill-opacity:1;" d="M 1123.527344 97.210938 C 1118.066406 99.25 1112.367188 107.019531 1112.367188 133.894531 C 1112.367188 159.753906 1118.976562 169.050781 1124.773438 172.875 C 1128.011719 175.167969 1133.84375 178.988281 1133.84375 199.367188 C 1133.84375 217.328125 1129.695312 224.078125 1125.515625 224.078125 C 1120.222656 224.078125 1115.671875 210.960938 1114.523438 184.210938 C 1114.289062 181.28125 1114.222656 180.644531 1113.277344 180.644531 C 1112.433594 180.644531 1112.367188 181.535156 1112.367188 183.574219 L 1112.367188 227.902344 C 1112.367188 229.046875 1112.433594 230.449219 1112.738281 230.449219 L 1112.90625 230.449219 C 1113.882812 230.449219 1115.671875 219.113281 1116.515625 218.21875 L 1116.582031 218.21875 C 1117.222656 218.21875 1118.976562 225.480469 1120.660156 227.902344 C 1122.210938 229.9375 1123.828125 230.703125 1125.449219 230.703125 C 1132.089844 230.703125 1138.15625 219.113281 1138.15625 190.578125 C 1138.15625 170.199219 1134.246094 154.148438 1128.988281 149.5625 C 1124.4375 145.234375 1116.683594 144.851562 1116.683594 124.214844 C 1116.683594 106.765625 1121.671875 103.582031 1124.773438 103.582031 C 1129.695312 103.582031 1133.066406 111.476562 1134.144531 135.296875 C 1134.144531 137.589844 1134.316406 139.375 1135.089844 139.375 C 1135.695312 139.375 1136.167969 138.738281 1136.167969 136.445312 L 1136.167969 100.015625 C 1136.167969 98.613281 1136.066406 97.464844 1135.628906 97.464844 C 1134.617188 97.464844 1133.371094 105.363281 1132.628906 105.363281 C 1132.089844 105.363281 1130.707031 101.542969 1129.761719 100.015625 C 1128.144531 97.976562 1126.460938 96.828125 1124.773438 96.828125 C 1124.367188 96.828125 1123.898438 97.210938 1123.527344 97.210938 Z M 1123.527344 97.210938 "/>
<path style=" stroke:none;fill-rule:nonzero;fill:rgb(74.901961%,74.901961%,74.901961%);fill-opacity:1;" d="M 1170.058594 211.597656 L 1170.058594 271.847656 L 1169.820312 276.175781 L 1168.371094 277.070312 L 1164.597656 277.070312 L 1164.597656 285.476562 L 1182.597656 285.476562 L 1182.597656 277.070312 L 1178.621094 277.070312 C 1177.980469 276.433594 1177.136719 277.324219 1177.136719 273.246094 L 1177.136719 97.976562 L 1175.382812 98.613281 L 1171.070312 124.851562 C 1168.8125 109.695312 1165.371094 97.976562 1160.347656 97.976562 C 1151.414062 97.976562 1143.492188 121.03125 1143.492188 164.976562 C 1143.492188 198.476562 1148.785156 230.703125 1159.675781 230.703125 C 1163.886719 230.703125 1167.359375 223.441406 1170.058594 211.597656 Z M 1150.875 170.453125 L 1150.875 166.757812 C 1150.875 143.449219 1152.730469 104.980469 1161.425781 104.980469 C 1166.214844 104.980469 1170.292969 124.214844 1170.292969 141.15625 C 1170.292969 144.597656 1170.226562 148.035156 1170.226562 151.601562 L 1170.226562 195.800781 C 1170.226562 198.984375 1169.890625 200.769531 1169.519531 203.445312 C 1167.664062 214.78125 1164.359375 224.078125 1160.820312 224.078125 C 1154.886719 224.078125 1152.019531 201.914062 1151.179688 182.683594 C 1151.042969 178.605469 1151.042969 174.53125 1150.875 170.453125 Z M 1150.875 170.453125 "/>
<path style=" stroke:none;fill-rule:nonzero;fill:rgb(74.901961%,74.901961%,74.901961%);fill-opacity:1;" d="M 1184.761719 100.394531 L 1184.761719 108.804688 L 1186.683594 108.804688 C 1188.234375 108.804688 1190.089844 109.441406 1190.257812 116.0625 L 1190.257812 191.214844 C 1190.257812 199.878906 1190.394531 208.285156 1191.640625 215.925781 C 1193.695312 228.410156 1198.484375 231.085938 1201.890625 231.085938 C 1206.171875 231.085938 1210.824219 222.296875 1212.207031 201.660156 L 1212.273438 230.703125 L 1224.679688 230.703125 L 1224.679688 220.511719 L 1222.894531 220.511719 C 1220.972656 220.511719 1219.21875 219.75 1219.21875 210.960938 L 1219.21875 97.976562 L 1206.644531 100.394531 L 1206.644531 108.804688 L 1208.261719 108.804688 C 1210.351562 108.804688 1212.105469 109.695312 1212.105469 118.355469 L 1212.105469 185.613281 C 1211.667969 203.445312 1209.105469 224.078125 1203.339844 224.078125 C 1200.472656 224.078125 1197.777344 223.1875 1197.40625 205.738281 C 1197.339844 199.625 1197.339844 193.765625 1197.339844 187.648438 L 1197.339844 97.976562 L 1189.011719 99.503906 Z M 1184.761719 100.394531 "/>
<path style=" stroke:none;fill-rule:nonzero;fill:rgb(74.901961%,74.901961%,74.901961%);fill-opacity:1;" d="M 1235.070312 118.355469 C 1237.226562 109.441406 1240.160156 103.835938 1243.464844 103.835938 C 1248.789062 103.835938 1251.320312 121.03125 1251.320312 143.195312 C 1251.320312 147.78125 1251.253906 152.109375 1251.253906 156.570312 C 1242.621094 156.570312 1229.238281 164.976562 1229.238281 201.660156 C 1229.238281 223.1875 1236.214844 230.703125 1241.238281 230.703125 C 1245.320312 230.703125 1250.644531 221.40625 1251.621094 203.0625 L 1251.722656 203.0625 C 1251.722656 220.003906 1254.960938 229.9375 1258.804688 229.9375 C 1262.109375 229.9375 1264.804688 220.894531 1265.277344 208.667969 L 1265.277344 187.394531 L 1263.289062 187.394531 L 1263.289062 201.914062 C 1263.289062 208.921875 1262.949219 219.113281 1260.726562 219.113281 C 1258.5 219.113281 1258.332031 207.519531 1258.332031 201.660156 L 1258.332031 137.082031 C 1257.65625 107.402344 1250.242188 97.210938 1244.105469 97.210938 C 1239.148438 97.210938 1231.933594 107.019531 1231.933594 131.222656 C 1231.933594 140.011719 1233.382812 145.742188 1235.609375 145.742188 C 1237.699219 145.742188 1239.25 139.628906 1239.25 131.859375 C 1239.25 124.214844 1237.699219 118.101562 1235.675781 118.101562 C 1235.472656 118.101562 1235.304688 118.355469 1235.070312 118.355469 Z M 1251.253906 161.15625 L 1251.253906 188.03125 C 1251.253906 205.992188 1248.25 223.441406 1243.09375 224.078125 L 1242.789062 224.078125 C 1239.453125 224.078125 1236.316406 214.398438 1236.316406 201.40625 L 1236.316406 200.769531 C 1236.316406 172.492188 1244.476562 162.683594 1251.253906 161.15625 Z M 1251.253906 161.15625 "/>
<path style=" stroke:none;fill-rule:nonzero;fill:rgb(74.901961%,74.901961%,74.901961%);fill-opacity:1;" d="M 1267.800781 100.394531 L 1267.800781 108.804688 L 1269.589844 108.804688 C 1271.511719 108.804688 1273.296875 109.695312 1273.296875 118.101562 L 1273.296875 216.183594 C 1273.296875 220.257812 1272.589844 220.511719 1271.980469 220.511719 L 1267.800781 220.511719 L 1267.800781 229.046875 L 1286.984375 229.046875 L 1286.984375 220.511719 L 1281.691406 220.511719 C 1280.914062 220.511719 1280.207031 220.511719 1280.207031 216.820312 L 1280.207031 187.648438 C 1280.207031 181.027344 1280.140625 174.019531 1280.140625 167.269531 C 1280.140625 143.195312 1281.152344 104.726562 1288.769531 104.726562 C 1289.074219 104.726562 1289.445312 104.980469 1289.78125 104.980469 L 1289.78125 105.363281 C 1288.398438 107.402344 1287.691406 112.625 1287.691406 117.847656 C 1287.691406 125.363281 1289.242188 131.476562 1291.230469 131.476562 C 1293.625 131.476562 1294.941406 124.851562 1294.941406 117.847656 C 1294.941406 105.363281 1291.703125 97.976562 1288.769531 97.976562 C 1283.613281 97.976562 1280.445312 117.59375 1279.972656 134.660156 L 1279.90625 97.976562 L 1271.914062 99.503906 Z M 1267.800781 100.394531 "/>
<path style=" stroke:none;fill-rule:nonzero;fill:rgb(74.901961%,74.901961%,74.901961%);fill-opacity:1;" d="M 1306.707031 161.15625 L 1328.6875 161.15625 C 1328.824219 161.15625 1329.226562 161.539062 1329.53125 161.539062 C 1330.136719 161.539062 1330.441406 160.644531 1330.441406 158.609375 L 1330.441406 157.078125 C 1330.441406 141.921875 1329.597656 125.742188 1326.902344 113.515625 C 1324.273438 101.542969 1320.191406 97.210938 1316.179688 97.210938 C 1304.953125 97.210938 1299.324219 128.929688 1299.324219 163.574219 C 1299.324219 181.28125 1300.707031 198.984375 1304.011719 212.105469 C 1307.484375 225.480469 1312.40625 230.703125 1317.191406 230.703125 L 1317.597656 230.703125 C 1322.957031 230.449219 1328.148438 217.964844 1330.136719 198.476562 C 1330.207031 197.585938 1330.375 196.4375 1330.375 195.292969 C 1330.375 194.144531 1330.136719 193.253906 1329.835938 193.253906 L 1329.429688 193.253906 C 1328.148438 193.253906 1327.8125 200.769531 1327.203125 204.84375 C 1325.28125 216.4375 1321.980469 223.824219 1318.339844 223.824219 C 1307.71875 223.824219 1306.707031 187.394531 1306.707031 161.15625 Z M 1306.707031 155.679688 C 1306.707031 133.003906 1308.628906 103.835938 1315.878906 103.835938 C 1322.351562 103.835938 1323.902344 133.515625 1323.902344 155.679688 Z M 1306.707031 155.679688 "/>
<path style=" stroke:none;fill-rule:nonzero;fill:rgb(74.901961%,74.901961%,74.901961%);fill-opacity:1;" d="M 1382.828125 183.191406 C 1383.839844 181.40625 1383.910156 180.261719 1383.910156 178.859375 C 1383.910156 177.585938 1383.808594 176.1875 1382.828125 174.53125 L 1353.902344 124.214844 C 1353.230469 123.070312 1353.09375 122.8125 1352.992188 122.8125 C 1352.351562 122.8125 1351.980469 124.851562 1351.980469 126.507812 C 1351.980469 128.929688 1352.421875 129.691406 1353.09375 130.964844 L 1380.605469 178.859375 L 1353.0625 226.882812 C 1351.980469 228.664062 1351.980469 230.066406 1351.980469 231.339844 C 1351.980469 232.996094 1352.351562 234.90625 1352.992188 234.90625 C 1353.09375 234.90625 1353.160156 234.78125 1353.902344 233.503906 Z M 1382.828125 183.191406 "/>
<path style=" stroke:none;fill-rule:nonzero;fill:rgb(74.901961%,74.901961%,74.901961%);fill-opacity:1;" d="M 1580.5 85.109375 C 1580.5 81.417969 1580.5 77.851562 1579.421875 77.851562 C 1578.375 77.851562 1578.375 81.417969 1578.375 85.109375 L 1578.375 272.484375 C 1578.375 276.175781 1578.375 279.742188 1579.421875 279.742188 C 1580.5 279.742188 1580.5 276.175781 1580.5 272.484375 Z M 1580.5 85.109375 "/>
<path style=" stroke:none;fill-rule:nonzero;fill:rgb(74.901961%,74.901961%,74.901961%);fill-opacity:1;" d="M 1588.847656 29.320312 L 1588.847656 37.726562 L 1590.804688 37.726562 C 1592.625 37.726562 1594.34375 38.617188 1594.34375 47.660156 L 1594.34375 229.046875 L 1596.332031 228.410156 L 1600.582031 210.324219 C 1602.738281 224.078125 1607.289062 230.703125 1611.269531 230.703125 C 1615.042969 230.703125 1619.054688 226.117188 1622.054688 217.074219 C 1626.304688 204.207031 1627.988281 183.957031 1627.988281 163.828125 C 1627.988281 133.003906 1623.371094 97.722656 1612.042969 97.722656 C 1608.03125 97.722656 1604.121094 104.472656 1601.253906 114.917969 L 1601.253906 27.027344 L 1593.027344 28.425781 Z M 1620.539062 176.058594 C 1620.539062 199.878906 1617.300781 224.078125 1610.121094 224.078125 C 1606.648438 224.078125 1603.648438 216.820312 1601.792969 205.992188 C 1601.421875 203.953125 1601.421875 201.914062 1601.421875 199.625 L 1601.421875 126 C 1601.894531 115.554688 1607.1875 104.726562 1610.898438 104.726562 C 1612.886719 104.726562 1614.910156 107.019531 1616.59375 112.242188 C 1620.4375 123.707031 1620.605469 143.703125 1620.605469 160.644531 L 1620.605469 168.414062 C 1620.605469 171.089844 1620.605469 173.765625 1620.539062 176.058594 Z M 1620.539062 176.058594 "/>
<path style=" stroke:none;fill-rule:nonzero;fill:rgb(74.901961%,74.901961%,74.901961%);fill-opacity:1;" d="M 1633.019531 29.320312 L 1633.019531 37.726562 L 1634.941406 37.726562 C 1636.863281 37.726562 1638.480469 39 1638.480469 48.296875 L 1638.480469 217.074219 C 1638.480469 220.511719 1637.636719 220.003906 1636.996094 220.511719 L 1633.019531 220.511719 L 1633.019531 229.046875 L 1650.886719 229.046875 L 1650.886719 220.511719 L 1646.875 220.511719 C 1646.269531 220.003906 1645.390625 220.894531 1645.390625 216.820312 L 1645.390625 27.027344 L 1637.167969 28.425781 Z M 1633.019531 29.320312 "/>
<path style=" stroke:none;fill-rule:nonzero;fill:rgb(74.901961%,74.901961%,74.901961%);fill-opacity:1;" d="M 1654.863281 100.394531 L 1654.863281 108.804688 L 1656.785156 108.804688 C 1658.335938 108.804688 1660.191406 109.441406 1660.359375 116.0625 L 1660.359375 191.214844 C 1660.359375 199.878906 1660.492188 208.285156 1661.742188 215.925781 C 1663.796875 228.410156 1668.585938 231.085938 1671.988281 231.085938 C 1676.273438 231.085938 1680.925781 222.296875 1682.304688 201.660156 L 1682.375 230.703125 L 1694.78125 230.703125 L 1694.78125 220.511719 L 1692.992188 220.511719 C 1691.070312 220.511719 1689.320312 219.75 1689.320312 210.960938 L 1689.320312 97.976562 L 1676.742188 100.394531 L 1676.742188 108.804688 L 1678.363281 108.804688 C 1680.453125 108.804688 1682.207031 109.695312 1682.207031 118.355469 L 1682.207031 185.613281 C 1681.765625 203.445312 1679.203125 224.078125 1673.441406 224.078125 C 1670.574219 224.078125 1667.878906 223.1875 1667.507812 205.738281 C 1667.4375 199.625 1667.4375 193.765625 1667.4375 187.648438 L 1667.4375 97.976562 L 1659.113281 99.503906 Z M 1654.863281 100.394531 "/>
<path style=" stroke:none;fill-rule:nonzero;fill:rgb(74.901961%,74.901961%,74.901961%);fill-opacity:1;" d="M 1706.011719 161.15625 L 1727.996094 161.15625 C 1728.128906 161.15625 1728.535156 161.539062 1728.835938 161.539062 C 1729.445312 161.539062 1729.746094 160.644531 1729.746094 158.609375 L 1729.746094 157.078125 C 1729.746094 141.921875 1728.90625 125.742188 1726.207031 113.515625 C 1723.578125 101.542969 1719.5 97.210938 1715.488281 97.210938 C 1704.261719 97.210938 1698.628906 128.929688 1698.628906 163.574219 C 1698.628906 181.28125 1700.011719 198.984375 1703.316406 212.105469 C 1706.789062 225.480469 1711.710938 230.703125 1716.5 230.703125 L 1716.902344 230.703125 C 1722.261719 230.449219 1727.453125 217.964844 1729.445312 198.476562 C 1729.511719 197.585938 1729.679688 196.4375 1729.679688 195.292969 C 1729.679688 194.144531 1729.445312 193.253906 1729.140625 193.253906 L 1728.734375 193.253906 C 1727.453125 193.253906 1727.117188 200.769531 1726.511719 204.84375 C 1724.589844 216.4375 1721.285156 223.824219 1717.644531 223.824219 C 1707.023438 223.824219 1706.011719 187.394531 1706.011719 161.15625 Z M 1706.011719 155.679688 C 1706.011719 133.003906 1707.933594 103.835938 1715.183594 103.835938 C 1721.65625 103.835938 1723.207031 133.515625 1723.207031 155.679688 Z M 1706.011719 155.679688 "/>
<path style=" stroke:none;fill-rule:nonzero;fill:rgb(74.901961%,74.901961%,74.901961%);fill-opacity:1;" d="M 1782.0625 183.191406 C 1783.074219 181.40625 1783.140625 180.261719 1783.140625 178.859375 C 1783.140625 177.585938 1783.039062 176.1875 1782.0625 174.53125 L 1753.136719 124.214844 C 1752.460938 123.070312 1752.328125 122.8125 1752.226562 122.8125 C 1751.585938 122.8125 1751.214844 124.851562 1751.214844 126.507812 C 1751.214844 128.929688 1751.652344 129.691406 1752.328125 130.964844 L 1779.839844 178.859375 L 1752.292969 226.882812 C 1751.214844 228.664062 1751.214844 230.066406 1751.214844 231.339844 C 1751.214844 232.996094 1751.585938 234.90625 1752.226562 234.90625 C 1752.328125 234.90625 1752.394531 234.78125 1753.136719 233.503906 Z M 1782.0625 183.191406 "/>
<path style=" stroke:none;fill-rule:nonzero;fill:rgb(74.901961%,74.901961%,74.901961%);fill-opacity:1;" d="M 1851.671875 164.46875 C 1852.480469 164.46875 1853.257812 164.46875 1853.257812 161.027344 C 1853.257812 157.332031 1852.347656 157.332031 1851.4375 157.332031 L 1821.566406 157.332031 C 1820.65625 157.332031 1819.746094 157.332031 1819.746094 161.027344 C 1819.746094 164.46875 1820.554688 164.46875 1821.363281 164.46875 Z M 1851.4375 200.386719 C 1852.347656 200.386719 1853.257812 200.386719 1853.257812 196.820312 C 1853.257812 193.382812 1852.480469 193.382812 1851.671875 193.382812 L 1821.363281 193.382812 C 1820.554688 193.382812 1819.746094 193.382812 1819.746094 196.820312 C 1819.746094 200.386719 1820.65625 200.386719 1821.566406 200.386719 Z M 1851.4375 200.386719 "/>
<path style=" stroke:none;fill-rule:nonzero;fill:rgb(74.901961%,74.901961%,74.901961%);fill-opacity:1;" d="M 1877.269531 56.707031 L 1877.269531 65.113281 C 1880.707031 65.113281 1884.179688 63.964844 1887.484375 59.890625 L 1887.484375 216.183594 L 1887.351562 219.367188 L 1886.574219 220.257812 L 1877.640625 220.257812 L 1877.640625 229.046875 L 1904.511719 229.046875 L 1904.511719 220.511719 L 1896.285156 220.511719 C 1895.441406 220.511719 1894.734375 220.003906 1894.734375 216.4375 L 1894.734375 41.800781 C 1894.734375 40.402344 1894.734375 38.109375 1894.195312 38.109375 C 1893.046875 38.109375 1891.664062 44.222656 1890.417969 46.515625 C 1886.40625 54.667969 1881.785156 56.707031 1877.269531 56.707031 Z M 1877.269531 56.707031 "/>
<path style=" stroke:none;fill-rule:nonzero;fill:rgb(74.901961%,74.901961%,74.901961%);fill-opacity:1;" d="M 1943.882812 10.976562 C 1943.039062 12.125 1942.5 20.65625 1942.128906 24.988281 C 1932.960938 111.988281 1924.699219 199.878906 1915.53125 286.621094 L 1914.855469 293.882812 C 1914.6875 295.027344 1914.550781 296.558594 1914.453125 297.957031 C 1914.453125 299.742188 1914.855469 301.523438 1915.292969 301.523438 L 1915.460938 301.523438 C 1916.003906 301.144531 1916.238281 299.488281 1916.371094 297.703125 L 1917.554688 286.367188 C 1926.25 198.476562 1935.183594 111.09375 1944.1875 23.585938 L 1944.726562 17.984375 C 1944.828125 16.835938 1945.027344 15.691406 1945.027344 14.160156 C 1945.027344 12.125 1944.589844 10.976562 1944.117188 10.976562 Z M 1943.882812 10.976562 "/>
<path style=" stroke:none;fill-rule:nonzero;fill:rgb(74.901961%,74.901961%,74.901961%);fill-opacity:1;" d="M 1972.238281 248.410156 C 1973.925781 248.410156 1973.960938 248.15625 1974.5 244.335938 L 2003.761719 13.65625 C 2004.132812 10.980469 2004.132812 10.597656 2004.132812 9.960938 C 2004.132812 7.796875 2003.695312 6.011719 2003.054688 6.011719 C 2002.347656 6.011719 2002.144531 7.796875 2001.875 9.960938 L 1974.296875 227.394531 L 1962.902344 127.148438 L 1955.449219 148.800781 L 1956.261719 151.988281 L 1960.070312 141.160156 Z M 1972.238281 248.410156 "/>
<path style="fill:none;stroke-width:9.99;stroke-linecap:butt;stroke-linejoin:miter;stroke:rgb(74.901961%,74.901961%,74.901961%);stroke-opacity:1;stroke-miterlimit:10;" d="M 9283.508896 357.771667 L 9466.487708 357.771667 " transform="matrix(0.215765,0,0,-0.815217,0.000000000000392475,301.630435)"/>
<path style=" stroke:none;fill-rule:nonzero;fill:rgb(74.901961%,74.901961%,74.901961%);fill-opacity:1;" d="M 2009.367188 75.300781 C 2011.15625 57.597656 2015.402344 46.515625 2020.089844 46.515625 C 2026.5625 46.515625 2030.808594 68.042969 2030.808594 91.605469 L 2030.808594 94.792969 C 2030.335938 121.667969 2025.550781 142.8125 2021 162.046875 C 2017.15625 178.351562 2013.246094 194.910156 2009.367188 211.214844 L 2007.917969 217.328125 C 2007.3125 219.75 2006.90625 221.40625 2006.90625 224.589844 C 2006.90625 226.117188 2007.007812 227.519531 2007.007812 229.046875 L 2036.742188 229.046875 L 2038.496094 172.875 L 2036.507812 172.875 C 2036.101562 184.210938 2036.203125 200.132812 2033.269531 200.132812 C 2031.347656 201.023438 2029.324219 201.40625 2027.402344 201.40625 C 2025.414062 201.40625 2023.492188 201.023438 2021.539062 201.023438 L 2013.917969 201.023438 C 2017.324219 189.179688 2020.628906 176.3125 2024.167969 164.976562 L 2028.785156 150.074219 C 2033.574219 134.660156 2038.496094 117.847656 2038.496094 91.351562 L 2038.496094 88.421875 C 2037.71875 55.8125 2030.269531 38.109375 2022.011719 38.109375 C 2014.761719 38.109375 2007.007812 56.960938 2007.007812 88.421875 C 2007.007812 98.613281 2008.761719 104.089844 2010.917969 104.089844 C 2012.839844 104.089844 2014.863281 98.867188 2014.863281 89.570312 C 2014.863281 81.160156 2013.246094 74.410156 2010.984375 74.410156 C 2010.445312 74.410156 2009.90625 74.792969 2009.367188 75.300781 Z M 2009.367188 75.300781 "/>
<path style=" stroke:none;fill-rule:nonzero;fill:rgb(74.901961%,74.901961%,74.901961%);fill-opacity:1;" d="M 2073.992188 85.109375 C 2073.992188 81.417969 2073.992188 77.851562 2072.914062 77.851562 C 2071.867188 77.851562 2071.867188 81.417969 2071.867188 85.109375 L 2071.867188 272.484375 C 2071.867188 276.175781 2071.867188 279.742188 2072.914062 279.742188 C 2073.992188 279.742188 2073.992188 276.175781 2073.992188 272.484375 Z M 2073.992188 85.109375 "/>
<path style=" stroke:none;fill-rule:nonzero;fill:rgb(74.901961%,74.901961%,74.901961%);fill-opacity:1;" d="M 2104.21875 29.320312 L 2104.21875 37.726562 L 2106.007812 37.726562 C 2107.996094 37.726562 2109.714844 38.617188 2109.714844 47.917969 L 2109.714844 114.023438 C 2107.085938 104.089844 2103.847656 97.976562 2099.90625 97.976562 C 2094.914062 97.976562 2089.519531 105.617188 2086.453125 121.03125 C 2083.890625 133.515625 2082.980469 149.820312 2082.980469 164.976562 C 2082.980469 195.800781 2087.429688 230.703125 2099.0625 230.703125 C 2103.242188 230.703125 2106.679688 224.078125 2109.546875 213.253906 L 2109.546875 230.703125 L 2122.089844 230.703125 L 2122.089844 220.511719 L 2120.167969 220.511719 C 2118.246094 220.511719 2116.625 219.75 2116.625 210.324219 L 2116.625 27.027344 L 2108.402344 28.425781 Z M 2090.363281 176.3125 L 2090.363281 161.15625 C 2090.363281 143.960938 2090.667969 124.214844 2094.613281 112.625 C 2096.363281 107.402344 2098.625 104.726562 2100.78125 104.726562 C 2103.984375 104.726562 2106.78125 110.203125 2108.941406 120.394531 C 2109.175781 121.921875 2109.480469 123.070312 2109.546875 124.851562 L 2109.546875 198.730469 C 2109.546875 200.769531 2109.546875 202.554688 2109.242188 204.207031 C 2107.152344 216.183594 2103.679688 224.078125 2100.007812 224.078125 C 2094.511719 224.078125 2091.375 207.773438 2090.601562 187.394531 C 2090.53125 183.574219 2090.53125 180.132812 2090.363281 176.3125 Z M 2090.363281 176.3125 "/>
<path style=" stroke:none;fill-rule:nonzero;fill:rgb(74.901961%,74.901961%,74.901961%);fill-opacity:1;" d="M 2126.8125 100.394531 L 2126.8125 108.804688 L 2128.332031 108.804688 C 2130.285156 108.804688 2131.972656 109.695312 2131.972656 118.355469 L 2131.972656 216.183594 C 2131.972656 220.257812 2131.265625 220.511719 2130.65625 220.511719 L 2126.511719 220.511719 L 2126.511719 229.046875 L 2143.839844 229.046875 L 2143.839844 220.511719 L 2140.300781 220.511719 C 2139.589844 220.511719 2138.882812 220.511719 2138.882812 216.183594 L 2138.882812 97.976562 L 2130.894531 99.503906 Z M 2134.027344 28.171875 C 2132.039062 29.320312 2130.421875 35.6875 2130.421875 43.839844 C 2130.421875 52.375 2132.34375 59.890625 2134.667969 59.890625 C 2136.894531 59.890625 2138.882812 52.882812 2138.882812 43.839844 C 2138.882812 35.433594 2136.960938 27.917969 2134.667969 27.917969 C 2134.433594 27.917969 2134.265625 28.171875 2134.027344 28.171875 Z M 2134.027344 28.171875 "/>
<path style=" stroke:none;fill-rule:nonzero;fill:rgb(74.901961%,74.901961%,74.901961%);fill-opacity:1;" d="M 2154.828125 118.355469 C 2156.984375 109.441406 2159.917969 103.835938 2163.222656 103.835938 C 2168.550781 103.835938 2171.078125 121.03125 2171.078125 143.195312 C 2171.078125 147.78125 2171.011719 152.109375 2171.011719 156.570312 C 2162.378906 156.570312 2148.996094 164.976562 2148.996094 201.660156 C 2148.996094 223.1875 2155.972656 230.703125 2160.996094 230.703125 C 2165.078125 230.703125 2170.402344 221.40625 2171.382812 203.0625 L 2171.484375 203.0625 C 2171.484375 220.003906 2174.71875 229.9375 2178.5625 229.9375 C 2181.867188 229.9375 2184.5625 220.894531 2185.035156 208.667969 L 2185.035156 187.394531 L 2183.046875 187.394531 L 2183.046875 201.914062 C 2183.046875 208.921875 2182.710938 219.113281 2180.484375 219.113281 C 2178.257812 219.113281 2178.089844 207.519531 2178.089844 201.660156 L 2178.089844 137.082031 C 2177.417969 107.402344 2170 97.210938 2163.863281 97.210938 C 2158.90625 97.210938 2151.691406 107.019531 2151.691406 131.222656 C 2151.691406 140.011719 2153.140625 145.742188 2155.367188 145.742188 C 2157.457031 145.742188 2159.007812 139.628906 2159.007812 131.859375 C 2159.007812 124.214844 2157.457031 118.101562 2155.433594 118.101562 C 2155.234375 118.101562 2155.0625 118.355469 2154.828125 118.355469 Z M 2171.011719 161.15625 L 2171.011719 188.03125 C 2171.011719 205.992188 2168.011719 223.441406 2162.851562 224.078125 L 2162.546875 224.078125 C 2159.210938 224.078125 2156.074219 214.398438 2156.074219 201.40625 L 2156.074219 200.769531 C 2156.074219 172.492188 2164.234375 162.683594 2171.011719 161.15625 Z M 2171.011719 161.15625 "/>
<path style=" stroke:none;fill-rule:nonzero;fill:rgb(74.901961%,74.901961%,74.901961%);fill-opacity:1;" d="M 2187.796875 100.394531 L 2187.796875 108.804688 L 2189.582031 108.804688 C 2191.503906 108.804688 2193.292969 109.695312 2193.292969 118.101562 L 2193.292969 216.183594 C 2193.292969 220.257812 2192.582031 220.511719 2191.976562 220.511719 L 2187.796875 220.511719 L 2187.796875 229.046875 L 2205.832031 229.046875 L 2205.832031 220.511719 L 2201.6875 220.511719 C 2201.046875 220.511719 2200.371094 220.257812 2200.371094 216.820312 L 2200.371094 172.238281 C 2200.371094 167.269531 2200.269531 162.046875 2200.269531 156.824219 C 2200.269531 136.1875 2202.425781 104.726562 2210.449219 104.726562 C 2215.136719 104.726562 2215.238281 127.398438 2215.238281 137.589844 L 2215.238281 216.820312 C 2215.238281 220.257812 2214.53125 220.511719 2213.921875 220.511719 L 2209.742188 220.511719 L 2209.742188 229.046875 L 2227.78125 229.046875 L 2227.78125 220.511719 L 2223.632812 220.511719 C 2223.027344 220.511719 2222.316406 220.257812 2222.316406 216.820312 L 2222.316406 172.238281 C 2222.316406 167.269531 2222.25 162.046875 2222.25 156.824219 C 2222.25 136.1875 2224.410156 104.726562 2232.398438 104.726562 C 2237.117188 104.726562 2237.1875 127.398438 2237.1875 137.589844 L 2237.1875 216.820312 C 2237.1875 220.257812 2236.476562 220.511719 2235.871094 220.511719 L 2231.722656 220.511719 L 2231.722656 229.046875 L 2249.726562 229.046875 L 2249.726562 220.511719 L 2245.582031 220.511719 C 2245.109375 220.257812 2244.433594 220.511719 2244.265625 218.21875 L 2244.265625 141.921875 C 2244.265625 132.113281 2244.199219 121.921875 2242.882812 113.515625 C 2240.894531 100.90625 2237.015625 97.976562 2233.476562 97.976562 C 2228.859375 97.976562 2225.386719 107.910156 2223.328125 122.175781 C 2222.925781 125.105469 2222.488281 128.292969 2222.316406 131.859375 L 2222.25 131.859375 C 2221.777344 108.546875 2217.765625 97.976562 2211.699219 97.976562 C 2206 97.976562 2201.347656 113.769531 2200.136719 134.40625 L 2200.066406 97.976562 L 2191.976562 99.503906 Z M 2187.796875 100.394531 "/>
<path style=" stroke:none;fill-rule:nonzero;fill:rgb(74.901961%,74.901961%,74.901961%);fill-opacity:1;" d="M 2269.757812 97.210938 C 2266.453125 98.613281 2263.285156 101.289062 2260.519531 108.546875 C 2255.664062 121.03125 2253.507812 143.195312 2253.507812 164.722656 C 2253.507812 182.171875 2254.890625 200.132812 2258.195312 212.742188 C 2261.53125 225.480469 2266.453125 230.703125 2271.140625 230.703125 C 2281.558594 230.703125 2288.570312 202.808594 2288.570312 164.722656 C 2288.570312 149.308594 2287.558594 133.003906 2284.929688 120.394531 C 2281.558594 103.835938 2276.0625 97.210938 2270.601562 97.210938 Z M 2260.890625 174.273438 L 2260.890625 159.117188 C 2260.890625 143.960938 2260.992188 126 2264.058594 114.28125 C 2265.914062 107.402344 2268.542969 103.835938 2271.070312 103.835938 C 2277.003906 103.835938 2280.308594 120.394531 2281.015625 142.558594 C 2281.152344 149.820312 2281.152344 157.078125 2281.152344 164.339844 C 2281.152344 179.878906 2281.152344 197.585938 2278.554688 210.324219 C 2276.703125 219.113281 2273.9375 223.441406 2271.070312 223.441406 C 2265.308594 223.441406 2261.667969 206.882812 2261.058594 183.0625 C 2260.992188 180.132812 2260.992188 177.203125 2260.890625 174.273438 Z M 2260.890625 174.273438 "/>
<path style=" stroke:none;fill-rule:nonzero;fill:rgb(74.901961%,74.901961%,74.901961%);fill-opacity:1;" d="M 2293.015625 100.394531 L 2293.015625 108.804688 L 2294.800781 108.804688 C 2296.722656 108.804688 2298.511719 109.695312 2298.511719 118.101562 L 2298.511719 216.183594 C 2298.511719 220.257812 2297.804688 220.511719 2297.195312 220.511719 L 2293.015625 220.511719 L 2293.015625 229.046875 L 2311.050781 229.046875 L 2311.050781 220.511719 L 2306.90625 220.511719 C 2306.265625 220.511719 2305.589844 220.257812 2305.589844 216.820312 L 2305.589844 171.726562 C 2305.589844 166.757812 2305.488281 161.539062 2305.488281 156.570312 C 2305.488281 135.933594 2307.984375 104.726562 2315.605469 104.726562 C 2320.222656 104.726562 2320.355469 126.253906 2320.355469 137.589844 L 2320.355469 216.820312 C 2320.355469 220.257812 2319.683594 220.511719 2319.074219 220.511719 L 2314.894531 220.511719 L 2314.894531 229.046875 L 2332.933594 229.046875 L 2332.933594 220.511719 L 2328.785156 220.511719 C 2328.3125 220.257812 2327.605469 220.511719 2327.46875 218.21875 L 2327.46875 141.921875 C 2327.46875 132.113281 2327.371094 121.921875 2326.089844 113.515625 C 2324.066406 100.652344 2320.222656 97.976562 2316.582031 97.976562 C 2311.050781 97.976562 2306.128906 115.171875 2305.355469 134.40625 L 2305.289062 97.976562 L 2297.195312 99.503906 Z M 2293.015625 100.394531 "/>
<path style=" stroke:none;fill-rule:nonzero;fill:rgb(74.901961%,74.901961%,74.901961%);fill-opacity:1;" d="M 2358.492188 29.320312 L 2358.492188 37.726562 L 2360.28125 37.726562 C 2362.269531 37.726562 2363.988281 38.617188 2363.988281 47.917969 L 2363.988281 114.023438 C 2361.359375 104.089844 2358.121094 97.976562 2354.175781 97.976562 C 2349.1875 97.976562 2343.792969 105.617188 2340.726562 121.03125 C 2338.164062 133.515625 2337.253906 149.820312 2337.253906 164.976562 C 2337.253906 195.800781 2341.703125 230.703125 2353.335938 230.703125 C 2357.515625 230.703125 2360.953125 224.078125 2363.820312 213.253906 L 2363.820312 230.703125 L 2376.359375 230.703125 L 2376.359375 220.511719 L 2374.4375 220.511719 C 2372.519531 220.511719 2370.898438 219.75 2370.898438 210.324219 L 2370.898438 27.027344 L 2362.671875 28.425781 Z M 2344.636719 176.3125 L 2344.636719 161.15625 C 2344.636719 143.960938 2344.941406 124.214844 2348.882812 112.625 C 2350.636719 107.402344 2352.898438 104.726562 2355.054688 104.726562 C 2358.257812 104.726562 2361.054688 110.203125 2363.210938 120.394531 C 2363.449219 121.921875 2363.753906 123.070312 2363.820312 124.851562 L 2363.820312 198.730469 C 2363.820312 200.769531 2363.820312 202.554688 2363.515625 204.207031 C 2361.425781 216.183594 2357.953125 224.078125 2354.277344 224.078125 C 2348.785156 224.078125 2345.648438 207.773438 2344.871094 187.394531 C 2344.804688 183.574219 2344.804688 180.132812 2344.636719 176.3125 Z M 2344.636719 176.3125 "/>
<path style=" stroke:none;fill-rule:nonzero;fill:rgb(74.901961%,74.901961%,74.901961%);fill-opacity:1;" d="M 2428.671875 183.191406 C 2429.683594 181.40625 2429.75 180.261719 2429.75 178.859375 C 2429.75 177.585938 2429.648438 176.1875 2428.671875 174.53125 L 2399.746094 124.214844 C 2399.070312 123.070312 2398.9375 122.8125 2398.835938 122.8125 C 2398.195312 122.8125 2397.824219 124.851562 2397.824219 126.507812 C 2397.824219 128.929688 2398.261719 129.691406 2398.9375 130.964844 L 2426.445312 178.859375 L 2398.902344 226.882812 C 2397.824219 228.664062 2397.824219 230.066406 2397.824219 231.339844 C 2397.824219 232.996094 2398.195312 234.90625 2398.835938 234.90625 C 2398.9375 234.90625 2399.003906 234.78125 2399.746094 233.503906 Z M 2428.671875 183.191406 "/>
<path style=" stroke:none;fill-rule:nonzero;fill:rgb(74.901961%,74.901961%,74.901961%);fill-opacity:1;" d="M 2496.132812 182.808594 C 2497.042969 182.808594 2498.019531 182.808594 2498.019531 178.859375 C 2498.019531 174.785156 2497.042969 174.785156 2496.132812 174.785156 L 2467.207031 174.785156 C 2466.296875 174.785156 2465.351562 174.785156 2465.351562 178.859375 C 2465.351562 182.808594 2466.296875 182.808594 2467.207031 182.808594 Z M 2496.132812 182.808594 "/>
<path style=" stroke:none;fill-rule:nonzero;fill:rgb(74.901961%,74.901961%,74.901961%);fill-opacity:1;" d="M 2521.023438 56.707031 L 2521.023438 65.113281 C 2524.460938 65.113281 2527.933594 63.964844 2531.238281 59.890625 L 2531.238281 216.183594 L 2531.105469 219.367188 L 2530.328125 220.257812 L 2521.394531 220.257812 L 2521.394531 229.046875 L 2548.265625 229.046875 L 2548.265625 220.511719 L 2540.039062 220.511719 C 2539.195312 220.511719 2538.488281 220.003906 2538.488281 216.4375 L 2538.488281 41.800781 C 2538.488281 40.402344 2538.488281 38.109375 2537.949219 38.109375 C 2536.800781 38.109375 2535.417969 44.222656 2534.171875 46.515625 C 2530.160156 54.667969 2525.542969 56.707031 2521.023438 56.707031 Z M 2521.023438 56.707031 "/>
<path style=" stroke:none;fill-rule:nonzero;fill:rgb(74.901961%,74.901961%,74.901961%);fill-opacity:1;" d="M 2587.636719 10.976562 C 2586.792969 12.125 2586.253906 20.65625 2585.882812 24.988281 C 2576.714844 111.988281 2568.453125 199.878906 2559.285156 286.621094 L 2558.609375 293.882812 C 2558.441406 295.027344 2558.304688 296.558594 2558.207031 297.957031 C 2558.207031 299.742188 2558.609375 301.523438 2559.046875 301.523438 L 2559.214844 301.523438 C 2559.757812 301.144531 2559.992188 299.488281 2560.128906 297.703125 L 2561.308594 286.367188 C 2570.003906 198.476562 2578.9375 111.09375 2587.941406 23.585938 L 2588.480469 17.984375 C 2588.582031 16.835938 2588.785156 15.691406 2588.785156 14.160156 C 2588.785156 12.125 2588.34375 10.976562 2587.871094 10.976562 Z M 2587.636719 10.976562 "/>
<path style=" stroke:none;fill-rule:nonzero;fill:rgb(74.901961%,74.901961%,74.901961%);fill-opacity:1;" d="M 2615.992188 248.410156 C 2617.679688 248.410156 2617.714844 248.15625 2618.253906 244.335938 L 2647.515625 13.65625 C 2647.886719 10.980469 2647.886719 10.597656 2647.886719 9.960938 C 2647.886719 7.796875 2647.449219 6.011719 2646.808594 6.011719 C 2646.101562 6.011719 2645.898438 7.796875 2645.628906 9.960938 L 2618.050781 227.394531 L 2606.65625 127.148438 L 2599.203125 148.800781 L 2600.015625 151.988281 L 2603.824219 141.160156 Z M 2615.992188 248.410156 "/>
<path style="fill:none;stroke-width:9.99;stroke-linecap:butt;stroke-linejoin:miter;stroke:rgb(74.901961%,74.901961%,74.901961%);stroke-opacity:1;stroke-miterlimit:10;" d="M 12267.111771 357.771667 L 12450.108687 357.771667 " transform="matrix(0.215765,0,0,-0.815217,0.000000000000392475,301.630435)"/>
<path style=" stroke:none;fill-rule:nonzero;fill:rgb(74.901961%,74.901961%,74.901961%);fill-opacity:1;" d="M 2653.117188 75.300781 C 2654.90625 57.597656 2659.152344 46.515625 2663.839844 46.515625 C 2670.3125 46.515625 2674.558594 68.042969 2674.558594 91.605469 L 2674.558594 94.792969 C 2674.089844 121.667969 2669.300781 142.8125 2664.75 162.046875 C 2660.90625 178.351562 2656.996094 194.910156 2653.117188 211.214844 L 2651.667969 217.328125 C 2651.0625 219.75 2650.65625 221.40625 2650.65625 224.589844 C 2650.65625 226.117188 2650.757812 227.519531 2650.757812 229.046875 L 2680.492188 229.046875 L 2682.246094 172.875 L 2680.257812 172.875 C 2679.851562 184.210938 2679.953125 200.132812 2677.019531 200.132812 C 2675.097656 201.023438 2673.078125 201.40625 2671.15625 201.40625 C 2669.164062 201.40625 2667.242188 201.023438 2665.289062 201.023438 L 2657.667969 201.023438 C 2661.074219 189.179688 2664.378906 176.3125 2667.917969 164.976562 L 2672.539062 150.074219 C 2677.324219 134.660156 2682.246094 117.847656 2682.246094 91.351562 L 2682.246094 88.421875 C 2681.472656 55.8125 2674.019531 38.109375 2665.761719 38.109375 C 2658.511719 38.109375 2650.757812 56.960938 2650.757812 88.421875 C 2650.757812 98.613281 2652.511719 104.089844 2654.667969 104.089844 C 2656.589844 104.089844 2658.613281 98.867188 2658.613281 89.570312 C 2658.613281 81.160156 2656.996094 74.410156 2654.738281 74.410156 C 2654.195312 74.410156 2653.65625 74.792969 2653.117188 75.300781 Z M 2653.117188 75.300781 "/>
<path style=" stroke:none;fill-rule:nonzero;fill:rgb(74.901961%,74.901961%,74.901961%);fill-opacity:1;" d="M 2717.742188 85.109375 C 2717.742188 81.417969 2717.742188 77.851562 2716.664062 77.851562 C 2715.617188 77.851562 2715.617188 81.417969 2715.617188 85.109375 L 2715.617188 272.484375 C 2715.617188 276.175781 2715.617188 279.742188 2716.664062 279.742188 C 2717.742188 279.742188 2717.742188 276.175781 2717.742188 272.484375 Z M 2717.742188 85.109375 "/>
<path style=" stroke:none;fill-rule:nonzero;fill:rgb(74.901961%,74.901961%,74.901961%);fill-opacity:1;" d="M 2737.890625 97.210938 C 2732.429688 99.25 2726.730469 107.019531 2726.730469 133.894531 C 2726.730469 159.753906 2733.339844 169.050781 2739.136719 172.875 C 2742.375 175.167969 2748.207031 178.988281 2748.207031 199.367188 C 2748.207031 217.328125 2744.058594 224.078125 2739.878906 224.078125 C 2734.585938 224.078125 2730.035156 210.960938 2728.890625 184.210938 C 2728.652344 181.28125 2728.585938 180.644531 2727.640625 180.644531 C 2726.796875 180.644531 2726.730469 181.535156 2726.730469 183.574219 L 2726.730469 227.902344 C 2726.730469 229.046875 2726.796875 230.449219 2727.101562 230.449219 L 2727.269531 230.449219 C 2728.25 230.449219 2730.035156 219.113281 2730.878906 218.21875 L 2730.945312 218.21875 C 2731.585938 218.21875 2733.339844 225.480469 2735.023438 227.902344 C 2736.574219 229.9375 2738.195312 230.703125 2739.8125 230.703125 C 2746.453125 230.703125 2752.523438 219.113281 2752.523438 190.578125 C 2752.523438 170.199219 2748.613281 154.148438 2743.351562 149.5625 C 2738.800781 145.234375 2731.046875 144.851562 2731.046875 124.214844 C 2731.046875 106.765625 2736.035156 103.582031 2739.136719 103.582031 C 2744.058594 103.582031 2747.429688 111.476562 2748.511719 135.296875 C 2748.511719 137.589844 2748.679688 139.375 2749.453125 139.375 C 2750.0625 139.375 2750.53125 138.738281 2750.53125 136.445312 L 2750.53125 100.015625 C 2750.53125 98.613281 2750.433594 97.464844 2749.992188 97.464844 C 2748.980469 97.464844 2747.734375 105.363281 2746.992188 105.363281 C 2746.453125 105.363281 2745.070312 101.542969 2744.128906 100.015625 C 2742.507812 97.976562 2740.824219 96.828125 2739.136719 96.828125 C 2738.734375 96.828125 2738.261719 97.210938 2737.890625 97.210938 Z M 2737.890625 97.210938 "/>
<path style=" stroke:none;fill-rule:nonzero;fill:rgb(74.901961%,74.901961%,74.901961%);fill-opacity:1;" d="M 2784.421875 211.597656 L 2784.421875 271.847656 L 2784.1875 276.175781 L 2782.738281 277.070312 L 2778.960938 277.070312 L 2778.960938 285.476562 L 2796.964844 285.476562 L 2796.964844 277.070312 L 2792.984375 277.070312 C 2792.34375 276.433594 2791.503906 277.324219 2791.503906 273.246094 L 2791.503906 97.976562 L 2789.75 98.613281 L 2785.433594 124.851562 C 2783.175781 109.695312 2779.734375 97.976562 2774.710938 97.976562 C 2765.777344 97.976562 2757.855469 121.03125 2757.855469 164.976562 C 2757.855469 198.476562 2763.148438 230.703125 2774.039062 230.703125 C 2778.253906 230.703125 2781.726562 223.441406 2784.421875 211.597656 Z M 2765.238281 170.453125 L 2765.238281 166.757812 C 2765.238281 143.449219 2767.09375 104.980469 2775.792969 104.980469 C 2780.578125 104.980469 2784.65625 124.214844 2784.65625 141.15625 C 2784.65625 144.597656 2784.589844 148.035156 2784.589844 151.601562 L 2784.589844 195.800781 C 2784.589844 198.984375 2784.253906 200.769531 2783.882812 203.445312 C 2782.027344 214.78125 2778.726562 224.078125 2775.183594 224.078125 C 2769.25 224.078125 2766.386719 201.914062 2765.542969 182.683594 C 2765.40625 178.605469 2765.40625 174.53125 2765.238281 170.453125 Z M 2765.238281 170.453125 "/>
<path style=" stroke:none;fill-rule:nonzero;fill:rgb(74.901961%,74.901961%,74.901961%);fill-opacity:1;" d="M 2799.128906 100.394531 L 2799.128906 108.804688 L 2801.046875 108.804688 C 2802.601562 108.804688 2804.453125 109.441406 2804.621094 116.0625 L 2804.621094 191.214844 C 2804.621094 199.878906 2804.757812 208.285156 2806.003906 215.925781 C 2808.0625 228.410156 2812.847656 231.085938 2816.253906 231.085938 C 2820.535156 231.085938 2825.1875 222.296875 2826.570312 201.660156 L 2826.636719 230.703125 L 2839.042969 230.703125 L 2839.042969 220.511719 L 2837.257812 220.511719 C 2835.335938 220.511719 2833.582031 219.75 2833.582031 210.960938 L 2833.582031 97.976562 L 2821.007812 100.394531 L 2821.007812 108.804688 L 2822.625 108.804688 C 2824.714844 108.804688 2826.46875 109.695312 2826.46875 118.355469 L 2826.46875 185.613281 C 2826.03125 203.445312 2823.46875 224.078125 2817.703125 224.078125 C 2814.835938 224.078125 2812.140625 223.1875 2811.769531 205.738281 C 2811.703125 199.625 2811.703125 193.765625 2811.703125 187.648438 L 2811.703125 97.976562 L 2803.375 99.503906 Z M 2799.128906 100.394531 "/>
<path style=" stroke:none;fill-rule:nonzero;fill:rgb(74.901961%,74.901961%,74.901961%);fill-opacity:1;" d="M 2849.433594 118.355469 C 2851.589844 109.441406 2854.523438 103.835938 2857.828125 103.835938 C 2863.15625 103.835938 2865.683594 121.03125 2865.683594 143.195312 C 2865.683594 147.78125 2865.617188 152.109375 2865.617188 156.570312 C 2856.984375 156.570312 2843.601562 164.976562 2843.601562 201.660156 C 2843.601562 223.1875 2850.578125 230.703125 2855.601562 230.703125 C 2859.683594 230.703125 2865.007812 221.40625 2865.988281 203.0625 L 2866.089844 203.0625 C 2866.089844 220.003906 2869.324219 229.9375 2873.167969 229.9375 C 2876.472656 229.9375 2879.167969 220.894531 2879.640625 208.667969 L 2879.640625 187.394531 L 2877.652344 187.394531 L 2877.652344 201.914062 C 2877.652344 208.921875 2877.316406 219.113281 2875.089844 219.113281 C 2872.863281 219.113281 2872.695312 207.519531 2872.695312 201.660156 L 2872.695312 137.082031 C 2872.019531 107.402344 2864.605469 97.210938 2858.46875 97.210938 C 2853.511719 97.210938 2846.296875 107.019531 2846.296875 131.222656 C 2846.296875 140.011719 2847.746094 145.742188 2849.972656 145.742188 C 2852.0625 145.742188 2853.613281 139.628906 2853.613281 131.859375 C 2853.613281 124.214844 2852.0625 118.101562 2850.039062 118.101562 C 2849.839844 118.101562 2849.667969 118.355469 2849.433594 118.355469 Z M 2865.617188 161.15625 L 2865.617188 188.03125 C 2865.617188 205.992188 2862.617188 223.441406 2857.457031 224.078125 L 2857.152344 224.078125 C 2853.816406 224.078125 2850.679688 214.398438 2850.679688 201.40625 L 2850.679688 200.769531 C 2850.679688 172.492188 2858.839844 162.683594 2865.617188 161.15625 Z M 2865.617188 161.15625 "/>
<path style=" stroke:none;fill-rule:nonzero;fill:rgb(74.901961%,74.901961%,74.901961%);fill-opacity:1;" d="M 2882.164062 100.394531 L 2882.164062 108.804688 L 2883.953125 108.804688 C 2885.875 108.804688 2887.660156 109.695312 2887.660156 118.101562 L 2887.660156 216.183594 C 2887.660156 220.257812 2886.953125 220.511719 2886.347656 220.511719 L 2882.164062 220.511719 L 2882.164062 229.046875 L 2901.347656 229.046875 L 2901.347656 220.511719 L 2896.054688 220.511719 C 2895.28125 220.511719 2894.570312 220.511719 2894.570312 216.820312 L 2894.570312 187.648438 C 2894.570312 181.027344 2894.503906 174.019531 2894.503906 167.269531 C 2894.503906 143.195312 2895.515625 104.726562 2903.136719 104.726562 C 2903.4375 104.726562 2903.808594 104.980469 2904.144531 104.980469 L 2904.144531 105.363281 C 2902.765625 107.402344 2902.054688 112.625 2902.054688 117.847656 C 2902.054688 125.363281 2903.605469 131.476562 2905.597656 131.476562 C 2907.988281 131.476562 2909.304688 124.851562 2909.304688 117.847656 C 2909.304688 105.363281 2906.066406 97.976562 2903.136719 97.976562 C 2897.976562 97.976562 2894.808594 117.59375 2894.335938 134.660156 L 2894.269531 97.976562 L 2886.277344 99.503906 Z M 2882.164062 100.394531 "/>
<path style=" stroke:none;fill-rule:nonzero;fill:rgb(74.901961%,74.901961%,74.901961%);fill-opacity:1;" d="M 2921.070312 161.15625 L 2943.050781 161.15625 C 2943.1875 161.15625 2943.589844 161.539062 2943.894531 161.539062 C 2944.5 161.539062 2944.804688 160.644531 2944.804688 158.609375 L 2944.804688 157.078125 C 2944.804688 141.921875 2943.960938 125.742188 2941.265625 113.515625 C 2938.636719 101.542969 2934.554688 97.210938 2930.542969 97.210938 C 2919.316406 97.210938 2913.6875 128.929688 2913.6875 163.574219 C 2913.6875 181.28125 2915.070312 198.984375 2918.375 212.105469 C 2921.847656 225.480469 2926.769531 230.703125 2931.554688 230.703125 L 2931.960938 230.703125 C 2937.320312 230.449219 2942.511719 217.964844 2944.5 198.476562 C 2944.570312 197.585938 2944.738281 196.4375 2944.738281 195.292969 C 2944.738281 194.144531 2944.5 193.253906 2944.199219 193.253906 L 2943.792969 193.253906 C 2942.511719 193.253906 2942.175781 200.769531 2941.570312 204.84375 C 2939.648438 216.4375 2936.34375 223.824219 2932.703125 223.824219 C 2922.082031 223.824219 2921.070312 187.394531 2921.070312 161.15625 Z M 2921.070312 155.679688 C 2921.070312 133.003906 2922.992188 103.835938 2930.242188 103.835938 C 2936.714844 103.835938 2938.265625 133.515625 2938.265625 155.679688 Z M 2921.070312 155.679688 "/>
<path style=" stroke:none;fill-rule:nonzero;fill:rgb(74.901961%,74.901961%,74.901961%);fill-opacity:1;" d="M 2997.175781 183.191406 C 2998.1875 181.40625 2998.253906 180.261719 2998.253906 178.859375 C 2998.253906 177.585938 2998.152344 176.1875 2997.175781 174.53125 L 2968.25 124.214844 C 2967.574219 123.070312 2967.4375 122.8125 2967.339844 122.8125 C 2966.699219 122.8125 2966.328125 124.851562 2966.328125 126.507812 C 2966.328125 128.929688 2966.765625 129.691406 2967.4375 130.964844 L 2994.949219 178.859375 L 2967.40625 226.882812 C 2966.328125 228.664062 2966.328125 230.066406 2966.328125 231.339844 C 2966.328125 232.996094 2966.699219 234.90625 2967.339844 234.90625 C 2967.4375 234.90625 2967.507812 234.78125 2968.25 233.503906 Z M 2997.175781 183.191406 "/>
</g>
</svg>
