<?xml version="1.0" encoding="UTF-8"?>
<svg xmlns="http://www.w3.org/2000/svg" xmlns:xlink="http://www.w3.org/1999/xlink" width="2445px" height="300px" viewBox="0 0 2445 300" version="1.1">
<g id="surface1">
<path style=" stroke:none;fill-rule:nonzero;fill:rgb(74.901961%,74.901961%,74.901961%);fill-opacity:1;" d="M 1.769531 60.707031 L 5.394531 60.707031 L 5.394531 3.304688 L 19.328125 3.304688 L 19.328125 1.003906 L 1.769531 1.003906 Z M 1.769531 60.707031 "/>
<path style=" stroke:none;fill-rule:nonzero;fill:rgb(74.901961%,74.901961%,74.901961%);fill-opacity:1;" d="M 1.769531 80.667969 L 5.394531 80.667969 L 5.394531 60.683594 L 1.769531 60.683594 Z M 1.769531 80.667969 "/>
<path style=" stroke:none;fill-rule:nonzero;fill:rgb(74.901961%,74.901961%,74.901961%);fill-opacity:1;" d="M 1.769531 100.578125 L 5.394531 100.578125 L 5.394531 80.59375 L 1.769531 80.59375 Z M 1.769531 100.578125 "/>
<path style=" stroke:none;fill-rule:nonzero;fill:rgb(74.901961%,74.901961%,74.901961%);fill-opacity:1;" d="M 1.769531 120.503906 L 5.394531 120.503906 L 5.394531 100.519531 L 1.769531 100.519531 Z M 1.769531 120.503906 "/>
<path style=" stroke:none;fill-rule:nonzero;fill:rgb(74.901961%,74.901961%,74.901961%);fill-opacity:1;" d="M 1.769531 140.417969 L 5.394531 140.417969 L 5.394531 120.433594 L 1.769531 120.433594 Z M 1.769531 140.417969 "/>
<path style=" stroke:none;fill-rule:nonzero;fill:rgb(74.901961%,74.901961%,74.901961%);fill-opacity:1;" d="M 1.769531 160.339844 L 5.394531 160.339844 L 5.394531 140.355469 L 1.769531 140.355469 Z M 1.769531 160.339844 "/>
<path style=" stroke:none;fill-rule:nonzero;fill:rgb(74.901961%,74.901961%,74.901961%);fill-opacity:1;" d="M 1.769531 180.253906 L 5.394531 180.253906 L 5.394531 160.269531 L 1.769531 160.269531 Z M 1.769531 180.253906 "/>
<path style=" stroke:none;fill-rule:nonzero;fill:rgb(74.901961%,74.901961%,74.901961%);fill-opacity:1;" d="M 1.769531 200.179688 L 5.394531 200.179688 L 5.394531 180.195312 L 1.769531 180.195312 Z M 1.769531 200.179688 "/>
<path style=" stroke:none;fill-rule:nonzero;fill:rgb(74.901961%,74.901961%,74.901961%);fill-opacity:1;" d="M 1.769531 220.089844 L 5.394531 220.089844 L 5.394531 200.105469 L 1.769531 200.105469 Z M 1.769531 220.089844 "/>
<path style=" stroke:none;fill-rule:nonzero;fill:rgb(74.901961%,74.901961%,74.901961%);fill-opacity:1;" d="M 1.769531 240.015625 L 5.394531 240.015625 L 5.394531 220.03125 L 1.769531 220.03125 Z M 1.769531 240.015625 "/>
<path style=" stroke:none;fill-rule:nonzero;fill:rgb(74.901961%,74.901961%,74.901961%);fill-opacity:1;" d="M 1.769531 299.695312 L 19.328125 299.695312 L 19.328125 297.394531 L 5.394531 297.394531 L 5.394531 239.992188 L 1.769531 239.992188 Z M 1.769531 299.695312 "/>
<path style=" stroke:none;fill-rule:nonzero;fill:rgb(74.901961%,74.901961%,74.901961%);fill-opacity:1;" d="M 52.25 78.605469 L 52.25 79.988281 C 55.640625 79.988281 59.066406 79.800781 62.328125 79.128906 L 62.328125 104.808594 L 62.191406 105.328125 L 61.429688 105.476562 L 52.617188 105.476562 L 52.617188 106.921875 L 79.121094 106.921875 L 79.121094 105.519531 L 71.003906 105.519531 C 70.175781 105.519531 69.476562 105.433594 69.476562 104.847656 L 69.476562 76.160156 C 69.476562 75.929688 69.476562 75.550781 68.945312 75.550781 C 67.8125 75.550781 66.449219 76.554688 65.21875 76.933594 C 61.261719 78.273438 56.707031 78.605469 52.25 78.605469 Z M 52.25 78.605469 "/>
<path style=" stroke:none;fill-rule:nonzero;fill:rgb(74.901961%,74.901961%,74.901961%);fill-opacity:1;" d="M 302.152344 75.550781 C 287.488281 76.554688 286.953125 85.679688 286.953125 92.144531 C 286.953125 97.878906 287.953125 107.484375 303.449219 107.484375 C 314.921875 107.484375 319.710938 101.125 319.710938 93.191406 L 319.710938 90.410156 C 319.710938 83.964844 317.148438 75.488281 303.546875 75.488281 C 303.082031 75.488281 302.617188 75.488281 302.152344 75.550781 Z M 294.269531 94.617188 C 294.171875 94.238281 294.171875 93.863281 294.171875 93.484375 C 294.171875 90.554688 294.171875 87.648438 294.503906 84.71875 C 294.636719 82.855469 294.867188 80.761719 296.464844 79.128906 C 298.0625 77.601562 300.722656 76.703125 303.449219 76.703125 C 311.730469 76.703125 312.425781 82.917969 312.425781 87.648438 L 312.425781 90.410156 C 312.425781 91.75 312.492188 93.234375 312.492188 94.761719 C 312.492188 97.878906 312.195312 101.125 310.53125 103.382812 C 309.070312 105.058594 306.34375 106.398438 303.316406 106.398438 L 303.148438 106.398438 C 298.359375 106.398438 295.632812 103.425781 295.035156 100.789062 C 294.402344 98.738281 294.570312 96.6875 294.269531 94.617188 Z M 294.269531 94.617188 "/>
<path style=" stroke:none;fill-rule:nonzero;fill:rgb(74.901961%,74.901961%,74.901961%);fill-opacity:1;" d="M 75.242188 220.195312 C 60.578125 221.199219 60.046875 230.324219 60.046875 236.789062 C 60.046875 242.523438 61.042969 252.128906 76.539062 252.128906 C 88.011719 252.128906 92.800781 245.765625 92.800781 237.835938 L 92.800781 235.050781 C 92.800781 228.605469 90.242188 220.132812 76.640625 220.132812 C 76.175781 220.132812 75.707031 220.132812 75.242188 220.195312 Z M 67.363281 239.257812 C 67.261719 238.882812 67.261719 238.503906 67.261719 238.128906 C 67.261719 235.199219 67.261719 232.289062 67.59375 229.359375 C 67.726562 227.496094 67.960938 225.40625 69.558594 223.773438 C 71.152344 222.246094 73.8125 221.34375 76.539062 221.34375 C 84.820312 221.34375 85.519531 227.5625 85.519531 232.289062 L 85.519531 235.050781 C 85.519531 236.390625 85.585938 237.878906 85.585938 239.40625 C 85.585938 242.523438 85.285156 245.765625 83.625 248.027344 C 82.160156 249.699219 79.433594 251.039062 76.40625 251.039062 L 76.242188 251.039062 C 71.453125 251.039062 68.726562 248.070312 68.125 245.433594 C 67.496094 243.382812 67.660156 241.332031 67.363281 239.257812 Z M 67.363281 239.257812 "/>
<path style=" stroke:none;fill-rule:nonzero;fill:rgb(74.901961%,74.901961%,74.901961%);fill-opacity:1;" d="M 271.773438 239.132812 L 271.773438 242.710938 L 292.523438 242.710938 L 292.523438 239.132812 Z M 271.773438 239.132812 "/>
<path style=" stroke:none;fill-rule:nonzero;fill:rgb(74.901961%,74.901961%,74.901961%);fill-opacity:1;" d="M 303.472656 223.25 L 303.472656 224.632812 C 306.863281 224.632812 310.289062 224.441406 313.550781 223.773438 L 313.550781 249.449219 L 313.417969 249.972656 L 312.652344 250.121094 L 303.839844 250.121094 L 303.839844 251.5625 L 330.34375 251.5625 L 330.34375 250.160156 L 322.230469 250.160156 C 321.398438 250.160156 320.699219 250.078125 320.699219 249.492188 L 320.699219 220.800781 C 320.699219 220.570312 320.699219 220.195312 320.167969 220.195312 C 319.035156 220.195312 317.671875 221.199219 316.441406 221.574219 C 312.484375 222.914062 307.929688 223.25 303.472656 223.25 Z M 303.472656 223.25 "/>
<path style=" stroke:none;fill-rule:nonzero;fill:rgb(74.901961%,74.901961%,74.901961%);fill-opacity:1;" d="M 376.128906 60.707031 L 379.753906 60.707031 L 379.753906 1.003906 L 362.195312 1.003906 L 362.195312 3.304688 L 376.128906 3.304688 Z M 376.128906 60.707031 "/>
<path style=" stroke:none;fill-rule:nonzero;fill:rgb(74.901961%,74.901961%,74.901961%);fill-opacity:1;" d="M 376.128906 80.667969 L 379.753906 80.667969 L 379.753906 60.683594 L 376.128906 60.683594 Z M 376.128906 80.667969 "/>
<path style=" stroke:none;fill-rule:nonzero;fill:rgb(74.901961%,74.901961%,74.901961%);fill-opacity:1;" d="M 376.128906 100.578125 L 379.753906 100.578125 L 379.753906 80.59375 L 376.128906 80.59375 Z M 376.128906 100.578125 "/>
<path style=" stroke:none;fill-rule:nonzero;fill:rgb(74.901961%,74.901961%,74.901961%);fill-opacity:1;" d="M 376.128906 120.503906 L 379.753906 120.503906 L 379.753906 100.519531 L 376.128906 100.519531 Z M 376.128906 120.503906 "/>
<path style=" stroke:none;fill-rule:nonzero;fill:rgb(74.901961%,74.901961%,74.901961%);fill-opacity:1;" d="M 376.128906 140.417969 L 379.753906 140.417969 L 379.753906 120.433594 L 376.128906 120.433594 Z M 376.128906 140.417969 "/>
<path style=" stroke:none;fill-rule:nonzero;fill:rgb(74.901961%,74.901961%,74.901961%);fill-opacity:1;" d="M 376.128906 160.339844 L 379.753906 160.339844 L 379.753906 140.355469 L 376.128906 140.355469 Z M 376.128906 160.339844 "/>
<path style=" stroke:none;fill-rule:nonzero;fill:rgb(74.901961%,74.901961%,74.901961%);fill-opacity:1;" d="M 376.128906 180.253906 L 379.753906 180.253906 L 379.753906 160.269531 L 376.128906 160.269531 Z M 376.128906 180.253906 "/>
<path style=" stroke:none;fill-rule:nonzero;fill:rgb(74.901961%,74.901961%,74.901961%);fill-opacity:1;" d="M 376.128906 200.179688 L 379.753906 200.179688 L 379.753906 180.195312 L 376.128906 180.195312 Z M 376.128906 200.179688 "/>
<path style=" stroke:none;fill-rule:nonzero;fill:rgb(74.901961%,74.901961%,74.901961%);fill-opacity:1;" d="M 376.128906 220.089844 L 379.753906 220.089844 L 379.753906 200.105469 L 376.128906 200.105469 Z M 376.128906 220.089844 "/>
<path style=" stroke:none;fill-rule:nonzero;fill:rgb(74.901961%,74.901961%,74.901961%);fill-opacity:1;" d="M 376.128906 240.015625 L 379.753906 240.015625 L 379.753906 220.03125 L 376.128906 220.03125 Z M 376.128906 240.015625 "/>
<path style=" stroke:none;fill-rule:nonzero;fill:rgb(74.901961%,74.901961%,74.901961%);fill-opacity:1;" d="M 376.128906 297.394531 L 362.195312 297.394531 L 362.195312 299.695312 L 379.753906 299.695312 L 379.753906 239.992188 L 376.128906 239.992188 Z M 376.128906 297.394531 "/>
<path style=" stroke:none;fill-rule:nonzero;fill:rgb(74.901961%,74.901961%,74.901961%);fill-opacity:1;" d="M 422.984375 60.707031 L 426.605469 60.707031 L 426.605469 3.304688 L 440.542969 3.304688 L 440.542969 1.003906 L 422.984375 1.003906 Z M 422.984375 60.707031 "/>
<path style=" stroke:none;fill-rule:nonzero;fill:rgb(74.901961%,74.901961%,74.901961%);fill-opacity:1;" d="M 422.984375 80.667969 L 426.605469 80.667969 L 426.605469 60.683594 L 422.984375 60.683594 Z M 422.984375 80.667969 "/>
<path style=" stroke:none;fill-rule:nonzero;fill:rgb(74.901961%,74.901961%,74.901961%);fill-opacity:1;" d="M 422.984375 100.582031 L 426.605469 100.582031 L 426.605469 80.59375 L 422.984375 80.59375 Z M 422.984375 100.582031 "/>
<path style=" stroke:none;fill-rule:nonzero;fill:rgb(74.901961%,74.901961%,74.901961%);fill-opacity:1;" d="M 422.984375 120.503906 L 426.605469 120.503906 L 426.605469 100.519531 L 422.984375 100.519531 Z M 422.984375 120.503906 "/>
<path style=" stroke:none;fill-rule:nonzero;fill:rgb(74.901961%,74.901961%,74.901961%);fill-opacity:1;" d="M 422.984375 140.417969 L 426.605469 140.417969 L 426.605469 120.433594 L 422.984375 120.433594 Z M 422.984375 140.417969 "/>
<path style=" stroke:none;fill-rule:nonzero;fill:rgb(74.901961%,74.901961%,74.901961%);fill-opacity:1;" d="M 422.984375 160.339844 L 426.605469 160.339844 L 426.605469 140.355469 L 422.984375 140.355469 Z M 422.984375 160.339844 "/>
<path style=" stroke:none;fill-rule:nonzero;fill:rgb(74.901961%,74.901961%,74.901961%);fill-opacity:1;" d="M 422.984375 180.253906 L 426.605469 180.253906 L 426.605469 160.269531 L 422.984375 160.269531 Z M 422.984375 180.253906 "/>
<path style=" stroke:none;fill-rule:nonzero;fill:rgb(74.901961%,74.901961%,74.901961%);fill-opacity:1;" d="M 422.984375 200.179688 L 426.605469 200.179688 L 426.605469 180.195312 L 422.984375 180.195312 Z M 422.984375 200.179688 "/>
<path style=" stroke:none;fill-rule:nonzero;fill:rgb(74.901961%,74.901961%,74.901961%);fill-opacity:1;" d="M 422.984375 220.089844 L 426.605469 220.089844 L 426.605469 200.105469 L 422.984375 200.105469 Z M 422.984375 220.089844 "/>
<path style=" stroke:none;fill-rule:nonzero;fill:rgb(74.901961%,74.901961%,74.901961%);fill-opacity:1;" d="M 422.984375 240.015625 L 426.605469 240.015625 L 426.605469 220.03125 L 422.984375 220.03125 Z M 422.984375 240.015625 "/>
<path style=" stroke:none;fill-rule:nonzero;fill:rgb(74.901961%,74.901961%,74.901961%);fill-opacity:1;" d="M 422.984375 299.695312 L 440.542969 299.695312 L 440.542969 297.394531 L 426.605469 297.394531 L 426.605469 239.992188 L 422.984375 239.992188 Z M 422.984375 299.695312 "/>
<path style=" stroke:none;fill-rule:nonzero;fill:rgb(74.901961%,74.901961%,74.901961%);fill-opacity:1;" d="M 470.167969 78.605469 L 470.167969 79.988281 C 473.5625 79.988281 476.988281 79.800781 480.246094 79.128906 L 480.246094 104.808594 L 480.113281 105.332031 L 479.347656 105.476562 L 470.535156 105.476562 L 470.535156 106.921875 L 497.039062 106.921875 L 497.039062 105.519531 L 488.925781 105.519531 C 488.09375 105.519531 487.394531 105.433594 487.394531 104.847656 L 487.394531 76.160156 C 487.394531 75.929688 487.394531 75.550781 486.863281 75.550781 C 485.734375 75.550781 484.371094 76.554688 483.140625 76.933594 C 479.179688 78.273438 474.625 78.605469 470.167969 78.605469 Z M 470.167969 78.605469 "/>
<path style=" stroke:none;fill-rule:nonzero;fill:rgb(74.901961%,74.901961%,74.901961%);fill-opacity:1;" d="M 535.878906 71.09375 C 535.046875 71.28125 534.515625 72.683594 534.148438 73.398438 C 525.101562 87.6875 516.957031 102.128906 507.910156 116.378906 L 507.246094 117.570312 C 507.078125 117.761719 506.945312 118.011719 506.847656 118.242188 C 506.847656 118.535156 507.246094 118.828125 507.675781 118.828125 L 507.84375 118.828125 C 508.375 118.765625 508.609375 118.492188 508.742188 118.199219 L 509.90625 116.335938 C 518.484375 101.898438 527.296875 87.542969 536.175781 73.167969 L 536.707031 72.246094 C 536.808594 72.058594 537.007812 71.867188 537.007812 71.617188 C 537.007812 71.28125 536.574219 71.09375 536.109375 71.09375 Z M 535.878906 71.09375 "/>
<path style=" stroke:none;fill-rule:nonzero;fill:rgb(74.901961%,74.901961%,74.901961%);fill-opacity:1;" d="M 563.832031 110.101562 C 565.492188 110.101562 565.527344 110.058594 566.058594 109.433594 L 594.921875 71.535156 C 595.289062 71.09375 595.289062 71.03125 595.289062 70.929688 C 595.289062 70.570312 594.855469 70.277344 594.226562 70.277344 C 593.527344 70.277344 593.328125 70.570312 593.0625 70.929688 L 565.859375 106.648438 L 554.617188 90.179688 L 547.269531 93.738281 L 548.066406 94.261719 L 551.824219 92.480469 Z M 563.832031 110.101562 "/>
<path style="fill:none;stroke-width:9.99;stroke-linecap:butt;stroke-linejoin:miter;stroke:rgb(74.901961%,74.901961%,74.901961%);stroke-opacity:1;stroke-miterlimit:10;" d="M 2792.032566 1710.391667 L 2975.038139 1710.391667 " transform="matrix(0.212831,0,0,-0.133929,0,300)"/>
<path style=" stroke:none;fill-rule:nonzero;fill:rgb(74.901961%,74.901961%,74.901961%);fill-opacity:1;" d="M 600.453125 81.660156 C 602.214844 78.753906 606.40625 76.933594 611.027344 76.933594 C 617.414062 76.933594 621.601562 80.46875 621.601562 84.339844 L 621.601562 84.863281 C 621.136719 89.277344 616.414062 92.753906 611.925781 95.914062 C 608.132812 98.589844 604.277344 101.3125 600.453125 103.992188 L 599.023438 104.996094 C 598.425781 105.390625 598.023438 105.664062 598.023438 106.1875 C 598.023438 106.4375 598.125 106.667969 598.125 106.921875 L 627.457031 106.921875 L 629.183594 97.691406 L 627.222656 97.691406 C 626.824219 99.554688 626.921875 102.167969 624.03125 102.167969 C 622.136719 102.316406 620.140625 102.378906 618.246094 102.378906 C 616.28125 102.378906 614.386719 102.316406 612.457031 102.316406 L 604.941406 102.316406 C 608.300781 100.371094 611.558594 98.257812 615.050781 96.394531 L 619.609375 93.945312 C 624.328125 91.414062 629.183594 88.652344 629.183594 84.296875 L 629.183594 83.816406 C 628.421875 78.460938 621.070312 75.550781 612.921875 75.550781 C 605.773438 75.550781 598.125 78.648438 598.125 83.816406 C 598.125 85.492188 599.855469 86.390625 601.984375 86.390625 C 603.878906 86.390625 605.875 85.535156 605.875 84.003906 C 605.875 82.625 604.277344 81.515625 602.050781 81.515625 C 601.515625 81.515625 600.984375 81.578125 600.453125 81.660156 Z M 600.453125 81.660156 "/>
<path style=" stroke:none;fill-rule:nonzero;fill:rgb(74.901961%,74.901961%,74.901961%);fill-opacity:1;" d="M 470.167969 223.25 L 470.167969 224.632812 C 473.5625 224.632812 476.984375 224.441406 480.246094 223.773438 L 480.246094 249.449219 L 480.113281 249.972656 L 479.347656 250.117188 L 470.535156 250.117188 L 470.535156 251.5625 L 497.039062 251.5625 L 497.039062 250.160156 L 488.925781 250.160156 C 488.09375 250.160156 487.394531 250.078125 487.394531 249.492188 L 487.394531 220.800781 C 487.394531 220.570312 487.394531 220.195312 486.863281 220.195312 C 485.730469 220.195312 484.367188 221.199219 483.136719 221.574219 C 479.179688 222.914062 474.625 223.25 470.167969 223.25 Z M 470.167969 223.25 "/>
<path style=" stroke:none;fill-rule:nonzero;fill:rgb(74.901961%,74.901961%,74.901961%);fill-opacity:1;" d="M 535.875 215.738281 C 535.046875 215.925781 534.511719 217.328125 534.148438 218.039062 C 525.101562 232.332031 516.953125 246.769531 507.910156 261.023438 L 507.242188 262.214844 C 507.078125 262.402344 506.945312 262.652344 506.84375 262.882812 C 506.84375 263.175781 507.242188 263.46875 507.675781 263.46875 L 507.84375 263.46875 C 508.375 263.40625 508.609375 263.136719 508.742188 262.84375 L 509.90625 260.980469 C 518.484375 246.539062 527.296875 232.183594 536.175781 217.808594 L 536.707031 216.886719 C 536.808594 216.699219 537.007812 216.511719 537.007812 216.261719 C 537.007812 215.925781 536.574219 215.738281 536.109375 215.738281 Z M 535.875 215.738281 "/>
<path style=" stroke:none;fill-rule:nonzero;fill:rgb(74.901961%,74.901961%,74.901961%);fill-opacity:1;" d="M 563.828125 254.746094 C 565.492188 254.746094 565.523438 254.703125 566.058594 254.074219 L 594.921875 216.175781 C 595.289062 215.738281 595.289062 215.675781 595.289062 215.570312 C 595.289062 215.214844 594.855469 214.921875 594.222656 214.921875 C 593.527344 214.921875 593.328125 215.214844 593.058594 215.570312 L 565.859375 251.292969 L 554.617188 234.824219 L 547.269531 238.378906 L 548.066406 238.902344 L 551.824219 237.125 Z M 563.828125 254.746094 "/>
<path style="fill:none;stroke-width:9.99;stroke-linecap:butt;stroke-linejoin:miter;stroke:rgb(74.901961%,74.901961%,74.901961%);stroke-opacity:1;stroke-miterlimit:10;" d="M 2792.032566 630.379167 L 2975.038139 630.379167 " transform="matrix(0.212831,0,0,-0.133929,0,300)"/>
<path style=" stroke:none;fill-rule:nonzero;fill:rgb(74.901961%,74.901961%,74.901961%);fill-opacity:1;" d="M 600.453125 226.304688 C 602.214844 223.394531 606.40625 221.574219 611.027344 221.574219 C 617.414062 221.574219 621.601562 225.113281 621.601562 228.984375 L 621.601562 229.507812 C 621.136719 233.921875 616.414062 237.394531 611.925781 240.554688 C 608.132812 243.234375 604.277344 245.953125 600.453125 248.632812 L 599.023438 249.636719 C 598.425781 250.035156 598.023438 250.308594 598.023438 250.832031 C 598.023438 251.082031 598.125 251.3125 598.125 251.5625 L 627.457031 251.5625 L 629.183594 242.335938 L 627.222656 242.335938 C 626.824219 244.195312 626.921875 246.8125 624.03125 246.8125 C 622.136719 246.960938 620.140625 247.023438 618.246094 247.023438 C 616.28125 247.023438 614.386719 246.960938 612.457031 246.960938 L 604.941406 246.960938 C 608.300781 245.011719 611.558594 242.898438 615.050781 241.035156 L 619.609375 238.589844 C 624.328125 236.054688 629.183594 233.292969 629.183594 228.941406 L 629.183594 228.460938 C 628.421875 223.101562 621.070312 220.195312 612.921875 220.195312 C 605.773438 220.195312 598.125 223.292969 598.125 228.460938 C 598.125 230.132812 599.855469 231.035156 601.984375 231.035156 C 603.878906 231.035156 605.875 230.175781 605.875 228.648438 C 605.875 227.265625 604.277344 226.160156 602.050781 226.160156 C 601.515625 226.160156 600.984375 226.222656 600.453125 226.304688 Z M 600.453125 226.304688 "/>
<path style=" stroke:none;fill-rule:nonzero;fill:rgb(74.901961%,74.901961%,74.901961%);fill-opacity:1;" d="M 673.429688 60.707031 L 677.054688 60.707031 L 677.054688 1.003906 L 659.496094 1.003906 L 659.496094 3.304688 L 673.429688 3.304688 Z M 673.429688 60.707031 "/>
<path style=" stroke:none;fill-rule:nonzero;fill:rgb(74.901961%,74.901961%,74.901961%);fill-opacity:1;" d="M 673.429688 80.667969 L 677.054688 80.667969 L 677.054688 60.683594 L 673.429688 60.683594 Z M 673.429688 80.667969 "/>
<path style=" stroke:none;fill-rule:nonzero;fill:rgb(74.901961%,74.901961%,74.901961%);fill-opacity:1;" d="M 673.429688 100.578125 L 677.054688 100.578125 L 677.054688 80.59375 L 673.429688 80.59375 Z M 673.429688 100.578125 "/>
<path style=" stroke:none;fill-rule:nonzero;fill:rgb(74.901961%,74.901961%,74.901961%);fill-opacity:1;" d="M 673.429688 120.503906 L 677.054688 120.503906 L 677.054688 100.519531 L 673.429688 100.519531 Z M 673.429688 120.503906 "/>
<path style=" stroke:none;fill-rule:nonzero;fill:rgb(74.901961%,74.901961%,74.901961%);fill-opacity:1;" d="M 673.429688 140.417969 L 677.054688 140.417969 L 677.054688 120.433594 L 673.429688 120.433594 Z M 673.429688 140.417969 "/>
<path style=" stroke:none;fill-rule:nonzero;fill:rgb(74.901961%,74.901961%,74.901961%);fill-opacity:1;" d="M 673.429688 160.339844 L 677.054688 160.339844 L 677.054688 140.355469 L 673.429688 140.355469 Z M 673.429688 160.339844 "/>
<path style=" stroke:none;fill-rule:nonzero;fill:rgb(74.901961%,74.901961%,74.901961%);fill-opacity:1;" d="M 673.429688 180.253906 L 677.054688 180.253906 L 677.054688 160.269531 L 673.429688 160.269531 Z M 673.429688 180.253906 "/>
<path style=" stroke:none;fill-rule:nonzero;fill:rgb(74.901961%,74.901961%,74.901961%);fill-opacity:1;" d="M 673.429688 200.179688 L 677.054688 200.179688 L 677.054688 180.195312 L 673.429688 180.195312 Z M 673.429688 200.179688 "/>
<path style=" stroke:none;fill-rule:nonzero;fill:rgb(74.901961%,74.901961%,74.901961%);fill-opacity:1;" d="M 673.429688 220.089844 L 677.054688 220.089844 L 677.054688 200.105469 L 673.429688 200.105469 Z M 673.429688 220.089844 "/>
<path style=" stroke:none;fill-rule:nonzero;fill:rgb(74.901961%,74.901961%,74.901961%);fill-opacity:1;" d="M 673.429688 240.015625 L 677.054688 240.015625 L 677.054688 220.03125 L 673.429688 220.03125 Z M 673.429688 240.015625 "/>
<path style=" stroke:none;fill-rule:nonzero;fill:rgb(74.901961%,74.901961%,74.901961%);fill-opacity:1;" d="M 673.429688 297.394531 L 659.496094 297.394531 L 659.496094 299.695312 L 677.054688 299.695312 L 677.054688 239.992188 L 673.429688 239.992188 Z M 673.429688 297.394531 "/>
<path style=" stroke:none;fill-rule:nonzero;fill:rgb(74.901961%,74.901961%,74.901961%);fill-opacity:1;" d="M 932.902344 60.707031 L 936.527344 60.707031 L 936.527344 3.304688 L 950.460938 3.304688 L 950.460938 1.003906 L 932.902344 1.003906 Z M 932.902344 60.707031 "/>
<path style=" stroke:none;fill-rule:nonzero;fill:rgb(74.901961%,74.901961%,74.901961%);fill-opacity:1;" d="M 932.902344 80.667969 L 936.527344 80.667969 L 936.527344 60.683594 L 932.902344 60.683594 Z M 932.902344 80.667969 "/>
<path style=" stroke:none;fill-rule:nonzero;fill:rgb(74.901961%,74.901961%,74.901961%);fill-opacity:1;" d="M 932.902344 100.578125 L 936.527344 100.578125 L 936.527344 80.59375 L 932.902344 80.59375 Z M 932.902344 100.578125 "/>
<path style=" stroke:none;fill-rule:nonzero;fill:rgb(74.901961%,74.901961%,74.901961%);fill-opacity:1;" d="M 932.902344 120.503906 L 936.527344 120.503906 L 936.527344 100.519531 L 932.902344 100.519531 Z M 932.902344 120.503906 "/>
<path style=" stroke:none;fill-rule:nonzero;fill:rgb(74.901961%,74.901961%,74.901961%);fill-opacity:1;" d="M 932.902344 140.417969 L 936.527344 140.417969 L 936.527344 120.433594 L 932.902344 120.433594 Z M 932.902344 140.417969 "/>
<path style=" stroke:none;fill-rule:nonzero;fill:rgb(74.901961%,74.901961%,74.901961%);fill-opacity:1;" d="M 932.902344 160.339844 L 936.527344 160.339844 L 936.527344 140.355469 L 932.902344 140.355469 Z M 932.902344 160.339844 "/>
<path style=" stroke:none;fill-rule:nonzero;fill:rgb(74.901961%,74.901961%,74.901961%);fill-opacity:1;" d="M 932.902344 180.253906 L 936.527344 180.253906 L 936.527344 160.269531 L 932.902344 160.269531 Z M 932.902344 180.253906 "/>
<path style=" stroke:none;fill-rule:nonzero;fill:rgb(74.901961%,74.901961%,74.901961%);fill-opacity:1;" d="M 932.902344 200.179688 L 936.527344 200.179688 L 936.527344 180.195312 L 932.902344 180.195312 Z M 932.902344 200.179688 "/>
<path style=" stroke:none;fill-rule:nonzero;fill:rgb(74.901961%,74.901961%,74.901961%);fill-opacity:1;" d="M 932.902344 220.089844 L 936.527344 220.089844 L 936.527344 200.105469 L 932.902344 200.105469 Z M 932.902344 220.089844 "/>
<path style=" stroke:none;fill-rule:nonzero;fill:rgb(74.901961%,74.901961%,74.901961%);fill-opacity:1;" d="M 932.902344 240.015625 L 936.527344 240.015625 L 936.527344 220.03125 L 932.902344 220.03125 Z M 932.902344 240.015625 "/>
<path style=" stroke:none;fill-rule:nonzero;fill:rgb(74.901961%,74.901961%,74.901961%);fill-opacity:1;" d="M 932.902344 299.695312 L 950.460938 299.695312 L 950.460938 297.394531 L 936.527344 297.394531 L 936.527344 239.992188 L 932.902344 239.992188 Z M 932.902344 299.695312 "/>
<path style=" stroke:none;fill-rule:nonzero;fill:rgb(74.901961%,74.901961%,74.901961%);fill-opacity:1;" d="M 980.070312 78.605469 L 980.070312 79.988281 C 983.460938 79.988281 986.886719 79.800781 990.144531 79.128906 L 990.144531 104.804688 L 990.011719 105.328125 L 989.246094 105.476562 L 980.433594 105.476562 L 980.433594 106.921875 L 1006.9375 106.921875 L 1006.9375 105.519531 L 998.824219 105.519531 C 997.992188 105.519531 997.292969 105.433594 997.292969 104.847656 L 997.292969 76.160156 C 997.292969 75.929688 997.292969 75.550781 996.761719 75.550781 C 995.632812 75.550781 994.269531 76.554688 993.039062 76.933594 C 989.082031 78.273438 984.523438 78.605469 980.070312 78.605469 Z M 980.070312 78.605469 "/>
<path style=" stroke:none;fill-rule:nonzero;fill:rgb(74.901961%,74.901961%,74.901961%);fill-opacity:1;" d="M 1045.777344 71.09375 C 1044.945312 71.28125 1044.414062 72.683594 1044.046875 73.394531 C 1035 87.6875 1026.855469 102.128906 1017.808594 116.378906 L 1017.144531 117.570312 C 1016.976562 117.761719 1016.84375 118.011719 1016.746094 118.242188 C 1016.746094 118.535156 1017.144531 118.828125 1017.578125 118.828125 L 1017.742188 118.828125 C 1018.273438 118.765625 1018.507812 118.492188 1018.640625 118.199219 L 1019.804688 116.335938 C 1028.382812 101.898438 1037.195312 87.542969 1046.074219 73.164062 L 1046.609375 72.246094 C 1046.707031 72.058594 1046.90625 71.867188 1046.90625 71.617188 C 1046.90625 71.28125 1046.476562 71.09375 1046.007812 71.09375 Z M 1045.777344 71.09375 "/>
<path style=" stroke:none;fill-rule:nonzero;fill:rgb(74.901961%,74.901961%,74.901961%);fill-opacity:1;" d="M 1073.746094 110.101562 C 1075.410156 110.101562 1075.445312 110.058594 1075.976562 109.433594 L 1104.839844 71.535156 C 1105.207031 71.09375 1105.207031 71.03125 1105.207031 70.925781 C 1105.207031 70.570312 1104.773438 70.277344 1104.140625 70.277344 C 1103.445312 70.277344 1103.246094 70.570312 1102.980469 70.925781 L 1075.777344 106.648438 L 1064.535156 90.179688 L 1057.1875 93.738281 L 1057.984375 94.261719 L 1061.742188 92.480469 Z M 1073.746094 110.101562 "/>
<path style="fill:none;stroke-width:9.99;stroke-linecap:butt;stroke-linejoin:miter;stroke:rgb(74.901961%,74.901961%,74.901961%);stroke-opacity:1;stroke-miterlimit:10;" d="M 5187.935429 1710.391667 L 5370.904294 1710.391667 " transform="matrix(0.212831,0,0,-0.133929,0,300)"/>
<path style=" stroke:none;fill-rule:nonzero;fill:rgb(74.901961%,74.901961%,74.901961%);fill-opacity:1;" d="M 1110.371094 81.660156 C 1112.132812 78.753906 1116.324219 76.933594 1120.945312 76.933594 C 1127.332031 76.933594 1131.523438 80.46875 1131.523438 84.339844 L 1131.523438 84.863281 C 1131.054688 89.277344 1126.335938 92.753906 1121.84375 95.914062 C 1118.054688 98.589844 1114.195312 101.3125 1110.371094 103.992188 L 1108.941406 104.996094 C 1108.34375 105.390625 1107.945312 105.664062 1107.945312 106.1875 C 1107.945312 106.4375 1108.042969 106.667969 1108.042969 106.921875 L 1137.375 106.921875 L 1139.105469 97.691406 L 1137.140625 97.691406 C 1136.742188 99.554688 1136.84375 102.167969 1133.949219 102.167969 C 1132.054688 102.316406 1130.058594 102.378906 1128.164062 102.378906 C 1126.203125 102.378906 1124.304688 102.316406 1122.375 102.316406 L 1114.863281 102.316406 C 1118.21875 100.371094 1121.480469 98.257812 1124.972656 96.394531 L 1129.527344 93.945312 C 1134.25 91.414062 1139.105469 88.652344 1139.105469 84.296875 L 1139.105469 83.816406 C 1138.339844 78.460938 1130.988281 75.550781 1122.84375 75.550781 C 1115.691406 75.550781 1108.042969 78.648438 1108.042969 83.816406 C 1108.042969 85.492188 1109.773438 86.390625 1111.902344 86.390625 C 1113.796875 86.390625 1115.792969 85.535156 1115.792969 84.003906 C 1115.792969 82.625 1114.195312 81.515625 1111.96875 81.515625 C 1111.4375 81.515625 1110.902344 81.578125 1110.371094 81.660156 Z M 1110.371094 81.660156 "/>
<path style=" stroke:none;fill-rule:nonzero;fill:rgb(74.901961%,74.901961%,74.901961%);fill-opacity:1;" d="M 980.070312 223.25 L 980.070312 224.632812 C 983.460938 224.632812 986.886719 224.441406 990.144531 223.773438 L 990.144531 249.449219 L 990.011719 249.972656 L 989.246094 250.117188 L 980.433594 250.117188 L 980.433594 251.5625 L 1006.941406 251.5625 L 1006.941406 250.160156 L 998.824219 250.160156 C 997.992188 250.160156 997.296875 250.078125 997.296875 249.492188 L 997.296875 220.800781 C 997.296875 220.570312 997.296875 220.195312 996.761719 220.195312 C 995.632812 220.195312 994.269531 221.199219 993.039062 221.574219 C 989.082031 222.914062 984.527344 223.25 980.070312 223.25 Z M 980.070312 223.25 "/>
<path style=" stroke:none;fill-rule:nonzero;fill:rgb(74.901961%,74.901961%,74.901961%);fill-opacity:1;" d="M 1045.777344 215.738281 C 1044.945312 215.925781 1044.414062 217.328125 1044.046875 218.039062 C 1035.003906 232.332031 1026.855469 246.769531 1017.808594 261.023438 L 1017.144531 262.214844 C 1016.980469 262.402344 1016.84375 262.652344 1016.746094 262.882812 C 1016.746094 263.175781 1017.144531 263.46875 1017.578125 263.46875 L 1017.742188 263.46875 C 1018.277344 263.40625 1018.507812 263.136719 1018.640625 262.84375 L 1019.804688 260.980469 C 1028.386719 246.539062 1037.199219 232.183594 1046.078125 217.808594 L 1046.609375 216.886719 C 1046.707031 216.699219 1046.90625 216.511719 1046.90625 216.261719 C 1046.90625 215.925781 1046.476562 215.738281 1046.011719 215.738281 Z M 1045.777344 215.738281 "/>
<path style=" stroke:none;fill-rule:nonzero;fill:rgb(74.901961%,74.901961%,74.901961%);fill-opacity:1;" d="M 1073.75 254.746094 C 1075.410156 254.746094 1075.445312 254.703125 1075.976562 254.074219 L 1104.839844 216.175781 C 1105.207031 215.738281 1105.207031 215.675781 1105.207031 215.570312 C 1105.207031 215.214844 1104.773438 214.921875 1104.144531 214.921875 C 1103.445312 214.921875 1103.246094 215.214844 1102.980469 215.570312 L 1075.777344 251.292969 L 1064.535156 234.824219 L 1057.1875 238.378906 L 1057.984375 238.902344 L 1061.742188 237.125 Z M 1073.75 254.746094 "/>
<path style="fill:none;stroke-width:9.99;stroke-linecap:butt;stroke-linejoin:miter;stroke:rgb(74.901961%,74.901961%,74.901961%);stroke-opacity:1;stroke-miterlimit:10;" d="M 5187.935429 630.379167 L 5370.904294 630.379167 " transform="matrix(0.212831,0,0,-0.133929,0,300)"/>
<path style=" stroke:none;fill-rule:nonzero;fill:rgb(74.901961%,74.901961%,74.901961%);fill-opacity:1;" d="M 1110.371094 226.304688 C 1112.132812 223.394531 1116.324219 221.574219 1120.945312 221.574219 C 1127.332031 221.574219 1131.523438 225.113281 1131.523438 228.984375 L 1131.523438 229.507812 C 1131.054688 233.921875 1126.335938 237.394531 1121.84375 240.554688 C 1118.054688 243.234375 1114.195312 245.953125 1110.371094 248.632812 L 1108.941406 249.636719 C 1108.34375 250.035156 1107.945312 250.308594 1107.945312 250.832031 C 1107.945312 251.082031 1108.042969 251.3125 1108.042969 251.5625 L 1137.375 251.5625 L 1139.105469 242.335938 L 1137.140625 242.335938 C 1136.742188 244.195312 1136.84375 246.8125 1133.949219 246.8125 C 1132.054688 246.960938 1130.058594 247.023438 1128.164062 247.023438 C 1126.203125 247.023438 1124.304688 246.960938 1122.375 246.960938 L 1114.863281 246.960938 C 1118.21875 245.011719 1121.480469 242.898438 1124.972656 241.035156 L 1129.527344 238.589844 C 1134.25 236.054688 1139.105469 233.292969 1139.105469 228.941406 L 1139.105469 228.460938 C 1138.339844 223.101562 1130.988281 220.195312 1122.84375 220.195312 C 1115.691406 220.195312 1108.042969 223.292969 1108.042969 228.460938 C 1108.042969 230.132812 1109.773438 231.035156 1111.902344 231.035156 C 1113.796875 231.035156 1115.792969 230.175781 1115.792969 228.648438 C 1115.792969 227.265625 1114.195312 226.160156 1111.96875 226.160156 C 1111.4375 226.160156 1110.902344 226.222656 1110.371094 226.304688 Z M 1110.371094 226.304688 "/>
<path style=" stroke:none;fill-rule:nonzero;fill:rgb(74.901961%,74.901961%,74.901961%);fill-opacity:1;" d="M 1183.351562 60.707031 L 1186.972656 60.707031 L 1186.972656 1.003906 L 1169.414062 1.003906 L 1169.414062 3.304688 L 1183.351562 3.304688 Z M 1183.351562 60.707031 "/>
<path style=" stroke:none;fill-rule:nonzero;fill:rgb(74.901961%,74.901961%,74.901961%);fill-opacity:1;" d="M 1183.351562 80.667969 L 1186.972656 80.667969 L 1186.972656 60.683594 L 1183.351562 60.683594 Z M 1183.351562 80.667969 "/>
<path style=" stroke:none;fill-rule:nonzero;fill:rgb(74.901961%,74.901961%,74.901961%);fill-opacity:1;" d="M 1183.351562 100.578125 L 1186.972656 100.578125 L 1186.972656 80.59375 L 1183.351562 80.59375 Z M 1183.351562 100.578125 "/>
<path style=" stroke:none;fill-rule:nonzero;fill:rgb(74.901961%,74.901961%,74.901961%);fill-opacity:1;" d="M 1183.351562 120.503906 L 1186.972656 120.503906 L 1186.972656 100.519531 L 1183.351562 100.519531 Z M 1183.351562 120.503906 "/>
<path style=" stroke:none;fill-rule:nonzero;fill:rgb(74.901961%,74.901961%,74.901961%);fill-opacity:1;" d="M 1183.351562 140.417969 L 1186.972656 140.417969 L 1186.972656 120.433594 L 1183.351562 120.433594 Z M 1183.351562 140.417969 "/>
<path style=" stroke:none;fill-rule:nonzero;fill:rgb(74.901961%,74.901961%,74.901961%);fill-opacity:1;" d="M 1183.351562 160.339844 L 1186.972656 160.339844 L 1186.972656 140.355469 L 1183.351562 140.355469 Z M 1183.351562 160.339844 "/>
<path style=" stroke:none;fill-rule:nonzero;fill:rgb(74.901961%,74.901961%,74.901961%);fill-opacity:1;" d="M 1183.351562 180.253906 L 1186.972656 180.253906 L 1186.972656 160.269531 L 1183.351562 160.269531 Z M 1183.351562 180.253906 "/>
<path style=" stroke:none;fill-rule:nonzero;fill:rgb(74.901961%,74.901961%,74.901961%);fill-opacity:1;" d="M 1183.351562 200.179688 L 1186.972656 200.179688 L 1186.972656 180.195312 L 1183.351562 180.195312 Z M 1183.351562 200.179688 "/>
<path style=" stroke:none;fill-rule:nonzero;fill:rgb(74.901961%,74.901961%,74.901961%);fill-opacity:1;" d="M 1183.351562 220.089844 L 1186.972656 220.089844 L 1186.972656 200.105469 L 1183.351562 200.105469 Z M 1183.351562 220.089844 "/>
<path style=" stroke:none;fill-rule:nonzero;fill:rgb(74.901961%,74.901961%,74.901961%);fill-opacity:1;" d="M 1183.351562 240.015625 L 1186.972656 240.015625 L 1186.972656 220.03125 L 1183.351562 220.03125 Z M 1183.351562 240.015625 "/>
<path style=" stroke:none;fill-rule:nonzero;fill:rgb(74.901961%,74.901961%,74.901961%);fill-opacity:1;" d="M 1183.351562 297.394531 L 1169.414062 297.394531 L 1169.414062 299.695312 L 1186.972656 299.695312 L 1186.972656 239.992188 L 1183.351562 239.992188 Z M 1183.351562 297.394531 "/>
<path style=" stroke:none;fill-rule:nonzero;fill:rgb(0%,0%,0%);fill-opacity:1;" d="M 1547.253906 60.707031 L 1550.878906 60.707031 L 1550.878906 3.304688 L 1564.8125 3.304688 L 1564.8125 1.003906 L 1547.253906 1.003906 Z M 1547.253906 60.707031 "/>
<path style=" stroke:none;fill-rule:nonzero;fill:rgb(0%,0%,0%);fill-opacity:1;" d="M 1547.253906 80.667969 L 1550.878906 80.667969 L 1550.878906 60.683594 L 1547.253906 60.683594 Z M 1547.253906 80.667969 "/>
<path style=" stroke:none;fill-rule:nonzero;fill:rgb(0%,0%,0%);fill-opacity:1;" d="M 1547.253906 100.578125 L 1550.878906 100.578125 L 1550.878906 80.59375 L 1547.253906 80.59375 Z M 1547.253906 100.578125 "/>
<path style=" stroke:none;fill-rule:nonzero;fill:rgb(0%,0%,0%);fill-opacity:1;" d="M 1547.253906 120.503906 L 1550.878906 120.503906 L 1550.878906 100.519531 L 1547.253906 100.519531 Z M 1547.253906 120.503906 "/>
<path style=" stroke:none;fill-rule:nonzero;fill:rgb(0%,0%,0%);fill-opacity:1;" d="M 1547.253906 140.417969 L 1550.878906 140.417969 L 1550.878906 120.433594 L 1547.253906 120.433594 Z M 1547.253906 140.417969 "/>
<path style=" stroke:none;fill-rule:nonzero;fill:rgb(0%,0%,0%);fill-opacity:1;" d="M 1547.253906 160.339844 L 1550.878906 160.339844 L 1550.878906 140.355469 L 1547.253906 140.355469 Z M 1547.253906 160.339844 "/>
<path style=" stroke:none;fill-rule:nonzero;fill:rgb(0%,0%,0%);fill-opacity:1;" d="M 1547.253906 180.253906 L 1550.878906 180.253906 L 1550.878906 160.269531 L 1547.253906 160.269531 Z M 1547.253906 180.253906 "/>
<path style=" stroke:none;fill-rule:nonzero;fill:rgb(0%,0%,0%);fill-opacity:1;" d="M 1547.253906 200.179688 L 1550.878906 200.179688 L 1550.878906 180.195312 L 1547.253906 180.195312 Z M 1547.253906 200.179688 "/>
<path style=" stroke:none;fill-rule:nonzero;fill:rgb(0%,0%,0%);fill-opacity:1;" d="M 1547.253906 220.089844 L 1550.878906 220.089844 L 1550.878906 200.105469 L 1547.253906 200.105469 Z M 1547.253906 220.089844 "/>
<path style=" stroke:none;fill-rule:nonzero;fill:rgb(0%,0%,0%);fill-opacity:1;" d="M 1547.253906 240.015625 L 1550.878906 240.015625 L 1550.878906 220.03125 L 1547.253906 220.03125 Z M 1547.253906 240.015625 "/>
<path style=" stroke:none;fill-rule:nonzero;fill:rgb(0%,0%,0%);fill-opacity:1;" d="M 1547.253906 299.695312 L 1564.8125 299.695312 L 1564.8125 297.394531 L 1550.878906 297.394531 L 1550.878906 239.992188 L 1547.253906 239.992188 Z M 1547.253906 299.695312 "/>
<path style=" stroke:none;fill-rule:nonzero;fill:rgb(0%,0%,0%);fill-opacity:1;" d="M 1609.40625 75.550781 C 1594.742188 76.554688 1594.207031 85.679688 1594.207031 92.144531 C 1594.207031 97.878906 1595.207031 107.484375 1610.703125 107.484375 C 1622.175781 107.484375 1626.964844 101.125 1626.964844 93.191406 L 1626.964844 90.410156 C 1626.964844 83.964844 1624.402344 75.488281 1610.804688 75.488281 C 1610.335938 75.488281 1609.871094 75.488281 1609.40625 75.550781 Z M 1601.523438 94.617188 C 1601.425781 94.238281 1601.425781 93.863281 1601.425781 93.484375 C 1601.425781 90.554688 1601.425781 87.648438 1601.757812 84.71875 C 1601.890625 82.855469 1602.125 80.761719 1603.71875 79.128906 C 1605.316406 77.601562 1607.976562 76.703125 1610.703125 76.703125 C 1618.984375 76.703125 1619.683594 82.917969 1619.683594 87.648438 L 1619.683594 90.410156 C 1619.683594 91.75 1619.75 93.234375 1619.75 94.761719 C 1619.75 97.878906 1619.449219 101.125 1617.785156 103.382812 C 1616.324219 105.058594 1613.597656 106.398438 1610.570312 106.398438 L 1610.402344 106.398438 C 1605.617188 106.398438 1602.886719 103.425781 1602.289062 100.789062 C 1601.65625 98.738281 1601.824219 96.6875 1601.523438 94.617188 Z M 1601.523438 94.617188 "/>
<path style=" stroke:none;fill-rule:nonzero;fill:rgb(0%,0%,0%);fill-opacity:1;" d="M 1822.996094 78.605469 L 1822.996094 79.988281 C 1826.386719 79.988281 1829.8125 79.800781 1833.070312 79.128906 L 1833.070312 104.808594 L 1832.9375 105.328125 L 1832.171875 105.476562 L 1823.359375 105.476562 L 1823.359375 106.921875 L 1849.863281 106.921875 L 1849.863281 105.519531 L 1841.75 105.519531 C 1840.917969 105.519531 1840.21875 105.433594 1840.21875 104.847656 L 1840.21875 76.160156 C 1840.21875 75.929688 1840.21875 75.550781 1839.6875 75.550781 C 1838.558594 75.550781 1837.195312 76.554688 1835.964844 76.933594 C 1832.007812 78.273438 1827.449219 78.605469 1822.996094 78.605469 Z M 1822.996094 78.605469 "/>
<path style=" stroke:none;fill-rule:nonzero;fill:rgb(0%,0%,0%);fill-opacity:1;" d="M 1609.074219 223.25 L 1609.074219 224.632812 C 1612.464844 224.632812 1615.890625 224.441406 1619.148438 223.773438 L 1619.148438 249.449219 L 1619.015625 249.972656 L 1618.25 250.121094 L 1609.4375 250.121094 L 1609.4375 251.5625 L 1635.941406 251.5625 L 1635.941406 250.160156 L 1627.828125 250.160156 C 1626.996094 250.160156 1626.300781 250.078125 1626.300781 249.492188 L 1626.300781 220.800781 C 1626.300781 220.570312 1626.300781 220.195312 1625.765625 220.195312 C 1624.636719 220.195312 1623.273438 221.199219 1622.042969 221.574219 C 1618.085938 222.914062 1613.527344 223.25 1609.074219 223.25 Z M 1609.074219 223.25 "/>
<path style=" stroke:none;fill-rule:nonzero;fill:rgb(0%,0%,0%);fill-opacity:1;" d="M 1847.652344 220.195312 C 1832.988281 221.199219 1832.457031 230.324219 1832.457031 236.789062 C 1832.457031 242.523438 1833.453125 252.128906 1848.949219 252.128906 C 1860.425781 252.128906 1865.210938 245.765625 1865.210938 237.835938 L 1865.210938 235.050781 C 1865.210938 228.605469 1862.652344 220.132812 1849.050781 220.132812 C 1848.585938 220.132812 1848.121094 220.132812 1847.652344 220.195312 Z M 1839.773438 239.257812 C 1839.671875 238.882812 1839.671875 238.503906 1839.671875 238.128906 C 1839.671875 235.199219 1839.671875 232.289062 1840.003906 229.359375 C 1840.136719 227.496094 1840.371094 225.40625 1841.96875 223.773438 C 1843.5625 222.246094 1846.222656 221.34375 1848.949219 221.34375 C 1857.230469 221.34375 1857.929688 227.5625 1857.929688 232.289062 L 1857.929688 235.050781 C 1857.929688 236.390625 1857.996094 237.878906 1857.996094 239.40625 C 1857.996094 242.523438 1857.695312 245.765625 1856.035156 248.027344 C 1854.570312 249.699219 1851.84375 251.039062 1848.816406 251.039062 L 1848.652344 251.039062 C 1843.863281 251.039062 1841.136719 248.070312 1840.539062 245.433594 C 1839.90625 243.382812 1840.070312 241.332031 1839.773438 239.257812 Z M 1839.773438 239.257812 "/>
<path style=" stroke:none;fill-rule:nonzero;fill:rgb(0%,0%,0%);fill-opacity:1;" d="M 1895.675781 60.707031 L 1899.300781 60.707031 L 1899.300781 1.003906 L 1881.742188 1.003906 L 1881.742188 3.304688 L 1895.675781 3.304688 Z M 1895.675781 60.707031 "/>
<path style=" stroke:none;fill-rule:nonzero;fill:rgb(0%,0%,0%);fill-opacity:1;" d="M 1895.675781 80.667969 L 1899.300781 80.667969 L 1899.300781 60.683594 L 1895.675781 60.683594 Z M 1895.675781 80.667969 "/>
<path style=" stroke:none;fill-rule:nonzero;fill:rgb(0%,0%,0%);fill-opacity:1;" d="M 1895.675781 100.578125 L 1899.300781 100.578125 L 1899.300781 80.59375 L 1895.675781 80.59375 Z M 1895.675781 100.578125 "/>
<path style=" stroke:none;fill-rule:nonzero;fill:rgb(0%,0%,0%);fill-opacity:1;" d="M 1895.675781 120.503906 L 1899.300781 120.503906 L 1899.300781 100.519531 L 1895.675781 100.519531 Z M 1895.675781 120.503906 "/>
<path style=" stroke:none;fill-rule:nonzero;fill:rgb(0%,0%,0%);fill-opacity:1;" d="M 1895.675781 140.417969 L 1899.300781 140.417969 L 1899.300781 120.433594 L 1895.675781 120.433594 Z M 1895.675781 140.417969 "/>
<path style=" stroke:none;fill-rule:nonzero;fill:rgb(0%,0%,0%);fill-opacity:1;" d="M 1895.675781 160.339844 L 1899.300781 160.339844 L 1899.300781 140.355469 L 1895.675781 140.355469 Z M 1895.675781 160.339844 "/>
<path style=" stroke:none;fill-rule:nonzero;fill:rgb(0%,0%,0%);fill-opacity:1;" d="M 1895.675781 180.253906 L 1899.300781 180.253906 L 1899.300781 160.269531 L 1895.675781 160.269531 Z M 1895.675781 180.253906 "/>
<path style=" stroke:none;fill-rule:nonzero;fill:rgb(0%,0%,0%);fill-opacity:1;" d="M 1895.675781 200.179688 L 1899.300781 200.179688 L 1899.300781 180.195312 L 1895.675781 180.195312 Z M 1895.675781 200.179688 "/>
<path style=" stroke:none;fill-rule:nonzero;fill:rgb(0%,0%,0%);fill-opacity:1;" d="M 1895.675781 220.089844 L 1899.300781 220.089844 L 1899.300781 200.105469 L 1895.675781 200.105469 Z M 1895.675781 220.089844 "/>
<path style=" stroke:none;fill-rule:nonzero;fill:rgb(0%,0%,0%);fill-opacity:1;" d="M 1895.675781 240.015625 L 1899.300781 240.015625 L 1899.300781 220.03125 L 1895.675781 220.03125 Z M 1895.675781 240.015625 "/>
<path style=" stroke:none;fill-rule:nonzero;fill:rgb(0%,0%,0%);fill-opacity:1;" d="M 1895.675781 297.394531 L 1881.742188 297.394531 L 1881.742188 299.695312 L 1899.300781 299.695312 L 1899.300781 239.992188 L 1895.675781 239.992188 Z M 1895.675781 297.394531 "/>
<path style=" stroke:none;fill-rule:nonzero;fill:rgb(0%,0%,0%);fill-opacity:1;" d="M 1942.527344 60.707031 L 1946.152344 60.707031 L 1946.152344 3.304688 L 1960.085938 3.304688 L 1960.085938 1.003906 L 1942.527344 1.003906 Z M 1942.527344 60.707031 "/>
<path style=" stroke:none;fill-rule:nonzero;fill:rgb(0%,0%,0%);fill-opacity:1;" d="M 1942.527344 80.667969 L 1946.152344 80.667969 L 1946.152344 60.683594 L 1942.527344 60.683594 Z M 1942.527344 80.667969 "/>
<path style=" stroke:none;fill-rule:nonzero;fill:rgb(0%,0%,0%);fill-opacity:1;" d="M 1942.527344 100.582031 L 1946.152344 100.582031 L 1946.152344 80.59375 L 1942.527344 80.59375 Z M 1942.527344 100.582031 "/>
<path style=" stroke:none;fill-rule:nonzero;fill:rgb(0%,0%,0%);fill-opacity:1;" d="M 1942.527344 120.503906 L 1946.152344 120.503906 L 1946.152344 100.519531 L 1942.527344 100.519531 Z M 1942.527344 120.503906 "/>
<path style=" stroke:none;fill-rule:nonzero;fill:rgb(0%,0%,0%);fill-opacity:1;" d="M 1942.527344 140.417969 L 1946.152344 140.417969 L 1946.152344 120.433594 L 1942.527344 120.433594 Z M 1942.527344 140.417969 "/>
<path style=" stroke:none;fill-rule:nonzero;fill:rgb(0%,0%,0%);fill-opacity:1;" d="M 1942.527344 160.339844 L 1946.152344 160.339844 L 1946.152344 140.355469 L 1942.527344 140.355469 Z M 1942.527344 160.339844 "/>
<path style=" stroke:none;fill-rule:nonzero;fill:rgb(0%,0%,0%);fill-opacity:1;" d="M 1942.527344 180.253906 L 1946.152344 180.253906 L 1946.152344 160.269531 L 1942.527344 160.269531 Z M 1942.527344 180.253906 "/>
<path style=" stroke:none;fill-rule:nonzero;fill:rgb(0%,0%,0%);fill-opacity:1;" d="M 1942.527344 200.179688 L 1946.152344 200.179688 L 1946.152344 180.195312 L 1942.527344 180.195312 Z M 1942.527344 200.179688 "/>
<path style=" stroke:none;fill-rule:nonzero;fill:rgb(0%,0%,0%);fill-opacity:1;" d="M 1942.527344 220.089844 L 1946.152344 220.089844 L 1946.152344 200.105469 L 1942.527344 200.105469 Z M 1942.527344 220.089844 "/>
<path style=" stroke:none;fill-rule:nonzero;fill:rgb(0%,0%,0%);fill-opacity:1;" d="M 1942.527344 240.015625 L 1946.152344 240.015625 L 1946.152344 220.03125 L 1942.527344 220.03125 Z M 1942.527344 240.015625 "/>
<path style=" stroke:none;fill-rule:nonzero;fill:rgb(0%,0%,0%);fill-opacity:1;" d="M 1942.527344 299.695312 L 1960.085938 299.695312 L 1960.085938 297.394531 L 1946.152344 297.394531 L 1946.152344 239.992188 L 1942.527344 239.992188 Z M 1942.527344 299.695312 "/>
<path style=" stroke:none;fill-rule:nonzero;fill:rgb(0%,0%,0%);fill-opacity:1;" d="M 1989.695312 78.605469 L 1989.695312 79.988281 C 1993.089844 79.988281 1996.515625 79.800781 1999.773438 79.128906 L 1999.773438 104.808594 L 1999.640625 105.332031 L 1998.875 105.476562 L 1990.0625 105.476562 L 1990.0625 106.921875 L 2016.566406 106.921875 L 2016.566406 105.519531 L 2008.453125 105.519531 C 2007.621094 105.519531 2006.921875 105.433594 2006.921875 104.847656 L 2006.921875 76.160156 C 2006.921875 75.929688 2006.921875 75.550781 2006.390625 75.550781 C 2005.261719 75.550781 2003.898438 76.554688 2002.667969 76.933594 C 1998.710938 78.273438 1994.152344 78.605469 1989.695312 78.605469 Z M 1989.695312 78.605469 "/>
<path style=" stroke:none;fill-rule:nonzero;fill:rgb(0%,0%,0%);fill-opacity:1;" d="M 2001.371094 220.195312 C 1986.703125 221.199219 1986.171875 230.324219 1986.171875 236.789062 C 1986.171875 242.523438 1987.167969 252.128906 2002.667969 252.128906 C 2014.140625 252.128906 2018.929688 245.765625 2018.929688 237.835938 L 2018.929688 235.050781 C 2018.929688 228.605469 2016.367188 220.132812 2002.765625 220.132812 C 2002.300781 220.132812 2001.835938 220.132812 2001.371094 220.195312 Z M 1993.488281 239.257812 C 1993.386719 238.882812 1993.386719 238.503906 1993.386719 238.128906 C 1993.386719 235.199219 1993.386719 232.289062 1993.722656 229.359375 C 1993.855469 227.5 1994.085938 225.40625 1995.683594 223.773438 C 1997.277344 222.246094 1999.941406 221.347656 2002.667969 221.347656 C 2010.945312 221.347656 2011.644531 227.5625 2011.644531 232.289062 L 2011.644531 235.050781 C 2011.644531 236.390625 2011.710938 237.878906 2011.710938 239.40625 C 2011.710938 242.523438 2011.414062 245.765625 2009.75 248.027344 C 2008.285156 249.699219 2005.558594 251.039062 2002.535156 251.039062 L 2002.367188 251.039062 C 1997.578125 251.039062 1994.851562 248.070312 1994.253906 245.433594 C 1993.621094 243.382812 1993.789062 241.332031 1993.488281 239.257812 Z M 1993.488281 239.257812 "/>
<path style=" stroke:none;fill-rule:nonzero;fill:rgb(0%,0%,0%);fill-opacity:1;" d="M 2062.34375 60.707031 L 2065.96875 60.707031 L 2065.96875 1.003906 L 2048.410156 1.003906 L 2048.410156 3.304688 L 2062.34375 3.304688 Z M 2062.34375 60.707031 "/>
<path style=" stroke:none;fill-rule:nonzero;fill:rgb(0%,0%,0%);fill-opacity:1;" d="M 2062.34375 80.667969 L 2065.96875 80.667969 L 2065.96875 60.683594 L 2062.34375 60.683594 Z M 2062.34375 80.667969 "/>
<path style=" stroke:none;fill-rule:nonzero;fill:rgb(0%,0%,0%);fill-opacity:1;" d="M 2062.34375 100.582031 L 2065.96875 100.582031 L 2065.96875 80.59375 L 2062.34375 80.59375 Z M 2062.34375 100.582031 "/>
<path style=" stroke:none;fill-rule:nonzero;fill:rgb(0%,0%,0%);fill-opacity:1;" d="M 2062.34375 120.503906 L 2065.96875 120.503906 L 2065.96875 100.519531 L 2062.34375 100.519531 Z M 2062.34375 120.503906 "/>
<path style=" stroke:none;fill-rule:nonzero;fill:rgb(0%,0%,0%);fill-opacity:1;" d="M 2062.34375 140.417969 L 2065.96875 140.417969 L 2065.96875 120.433594 L 2062.34375 120.433594 Z M 2062.34375 140.417969 "/>
<path style=" stroke:none;fill-rule:nonzero;fill:rgb(0%,0%,0%);fill-opacity:1;" d="M 2062.34375 160.34375 L 2065.96875 160.34375 L 2065.96875 140.355469 L 2062.34375 140.355469 Z M 2062.34375 160.34375 "/>
<path style=" stroke:none;fill-rule:nonzero;fill:rgb(0%,0%,0%);fill-opacity:1;" d="M 2062.34375 180.253906 L 2065.96875 180.253906 L 2065.96875 160.269531 L 2062.34375 160.269531 Z M 2062.34375 180.253906 "/>
<path style=" stroke:none;fill-rule:nonzero;fill:rgb(0%,0%,0%);fill-opacity:1;" d="M 2062.34375 200.179688 L 2065.96875 200.179688 L 2065.96875 180.195312 L 2062.34375 180.195312 Z M 2062.34375 200.179688 "/>
<path style=" stroke:none;fill-rule:nonzero;fill:rgb(0%,0%,0%);fill-opacity:1;" d="M 2062.34375 220.09375 L 2065.96875 220.09375 L 2065.96875 200.105469 L 2062.34375 200.105469 Z M 2062.34375 220.09375 "/>
<path style=" stroke:none;fill-rule:nonzero;fill:rgb(0%,0%,0%);fill-opacity:1;" d="M 2062.34375 240.015625 L 2065.96875 240.015625 L 2065.96875 220.03125 L 2062.34375 220.03125 Z M 2062.34375 240.015625 "/>
<path style=" stroke:none;fill-rule:nonzero;fill:rgb(0%,0%,0%);fill-opacity:1;" d="M 2062.34375 297.394531 L 2048.410156 297.394531 L 2048.410156 299.695312 L 2065.96875 299.695312 L 2065.96875 239.992188 L 2062.34375 239.992188 Z M 2062.34375 297.394531 "/>
<path style=" stroke:none;fill-rule:nonzero;fill:rgb(0%,0%,0%);fill-opacity:1;" d="M 2321.8125 60.707031 L 2325.4375 60.707031 L 2325.4375 3.304688 L 2339.371094 3.304688 L 2339.371094 1.003906 L 2321.8125 1.003906 Z M 2321.8125 60.707031 "/>
<path style=" stroke:none;fill-rule:nonzero;fill:rgb(0%,0%,0%);fill-opacity:1;" d="M 2321.8125 80.667969 L 2325.4375 80.667969 L 2325.4375 60.683594 L 2321.8125 60.683594 Z M 2321.8125 80.667969 "/>
<path style=" stroke:none;fill-rule:nonzero;fill:rgb(0%,0%,0%);fill-opacity:1;" d="M 2321.8125 100.582031 L 2325.4375 100.582031 L 2325.4375 80.597656 L 2321.8125 80.597656 Z M 2321.8125 100.582031 "/>
<path style=" stroke:none;fill-rule:nonzero;fill:rgb(0%,0%,0%);fill-opacity:1;" d="M 2321.8125 120.503906 L 2325.4375 120.503906 L 2325.4375 100.519531 L 2321.8125 100.519531 Z M 2321.8125 120.503906 "/>
<path style=" stroke:none;fill-rule:nonzero;fill:rgb(0%,0%,0%);fill-opacity:1;" d="M 2321.8125 140.417969 L 2325.4375 140.417969 L 2325.4375 120.433594 L 2321.8125 120.433594 Z M 2321.8125 140.417969 "/>
<path style=" stroke:none;fill-rule:nonzero;fill:rgb(0%,0%,0%);fill-opacity:1;" d="M 2321.8125 160.34375 L 2325.4375 160.34375 L 2325.4375 140.355469 L 2321.8125 140.355469 Z M 2321.8125 160.34375 "/>
<path style=" stroke:none;fill-rule:nonzero;fill:rgb(0%,0%,0%);fill-opacity:1;" d="M 2321.8125 180.253906 L 2325.4375 180.253906 L 2325.4375 160.269531 L 2321.8125 160.269531 Z M 2321.8125 180.253906 "/>
<path style=" stroke:none;fill-rule:nonzero;fill:rgb(0%,0%,0%);fill-opacity:1;" d="M 2321.8125 200.179688 L 2325.4375 200.179688 L 2325.4375 180.195312 L 2321.8125 180.195312 Z M 2321.8125 200.179688 "/>
<path style=" stroke:none;fill-rule:nonzero;fill:rgb(0%,0%,0%);fill-opacity:1;" d="M 2321.8125 220.09375 L 2325.4375 220.09375 L 2325.4375 200.105469 L 2321.8125 200.105469 Z M 2321.8125 220.09375 "/>
<path style=" stroke:none;fill-rule:nonzero;fill:rgb(0%,0%,0%);fill-opacity:1;" d="M 2321.8125 240.015625 L 2325.4375 240.015625 L 2325.4375 220.03125 L 2321.8125 220.03125 Z M 2321.8125 240.015625 "/>
<path style=" stroke:none;fill-rule:nonzero;fill:rgb(0%,0%,0%);fill-opacity:1;" d="M 2321.8125 299.695312 L 2339.371094 299.695312 L 2339.371094 297.394531 L 2325.4375 297.394531 L 2325.4375 239.992188 L 2321.8125 239.992188 Z M 2321.8125 299.695312 "/>
<path style=" stroke:none;fill-rule:nonzero;fill:rgb(0%,0%,0%);fill-opacity:1;" d="M 2368.980469 78.609375 L 2368.980469 79.988281 C 2372.371094 79.988281 2375.796875 79.800781 2379.054688 79.128906 L 2379.054688 104.808594 L 2378.921875 105.332031 L 2378.160156 105.476562 L 2369.347656 105.476562 L 2369.347656 106.921875 L 2395.851562 106.921875 L 2395.851562 105.519531 L 2387.734375 105.519531 C 2386.90625 105.519531 2386.207031 105.433594 2386.207031 104.847656 L 2386.207031 76.160156 C 2386.207031 75.929688 2386.207031 75.550781 2385.675781 75.550781 C 2384.542969 75.550781 2383.179688 76.558594 2381.949219 76.933594 C 2377.992188 78.273438 2373.4375 78.609375 2368.980469 78.609375 Z M 2368.980469 78.609375 "/>
<path style=" stroke:none;fill-rule:nonzero;fill:rgb(0%,0%,0%);fill-opacity:1;" d="M 2380.652344 220.195312 C 2365.988281 221.199219 2365.457031 230.324219 2365.457031 236.789062 C 2365.457031 242.523438 2366.453125 252.128906 2381.949219 252.128906 C 2393.421875 252.128906 2398.210938 245.765625 2398.210938 237.835938 L 2398.210938 235.054688 C 2398.210938 228.609375 2395.652344 220.132812 2382.050781 220.132812 C 2381.582031 220.132812 2381.117188 220.132812 2380.652344 220.195312 Z M 2372.769531 239.257812 C 2372.671875 238.882812 2372.671875 238.503906 2372.671875 238.128906 C 2372.671875 235.199219 2372.671875 232.289062 2373.003906 229.359375 C 2373.136719 227.5 2373.371094 225.40625 2374.964844 223.773438 C 2376.5625 222.246094 2379.222656 221.347656 2381.949219 221.347656 C 2390.230469 221.347656 2390.929688 227.5625 2390.929688 232.289062 L 2390.929688 235.054688 C 2390.929688 236.390625 2390.996094 237.878906 2390.996094 239.40625 C 2390.996094 242.523438 2390.695312 245.765625 2389.03125 248.027344 C 2387.570312 249.703125 2384.84375 251.039062 2381.816406 251.039062 L 2381.652344 251.039062 C 2376.863281 251.039062 2374.136719 248.070312 2373.535156 245.433594 C 2372.90625 243.382812 2373.070312 241.332031 2372.769531 239.257812 Z M 2372.769531 239.257812 "/>
<path style=" stroke:none;fill-rule:nonzero;fill:rgb(0%,0%,0%);fill-opacity:1;" d="M 2441.625 60.707031 L 2445.25 60.707031 L 2445.25 1.003906 L 2427.691406 1.003906 L 2427.691406 3.304688 L 2441.625 3.304688 Z M 2441.625 60.707031 "/>
<path style=" stroke:none;fill-rule:nonzero;fill:rgb(0%,0%,0%);fill-opacity:1;" d="M 2441.625 80.667969 L 2445.25 80.667969 L 2445.25 60.683594 L 2441.625 60.683594 Z M 2441.625 80.667969 "/>
<path style=" stroke:none;fill-rule:nonzero;fill:rgb(0%,0%,0%);fill-opacity:1;" d="M 2441.625 100.582031 L 2445.25 100.582031 L 2445.25 80.597656 L 2441.625 80.597656 Z M 2441.625 100.582031 "/>
<path style=" stroke:none;fill-rule:nonzero;fill:rgb(0%,0%,0%);fill-opacity:1;" d="M 2441.625 120.503906 L 2445.25 120.503906 L 2445.25 100.519531 L 2441.625 100.519531 Z M 2441.625 120.503906 "/>
<path style=" stroke:none;fill-rule:nonzero;fill:rgb(0%,0%,0%);fill-opacity:1;" d="M 2441.625 140.417969 L 2445.25 140.417969 L 2445.25 120.433594 L 2441.625 120.433594 Z M 2441.625 140.417969 "/>
<path style=" stroke:none;fill-rule:nonzero;fill:rgb(0%,0%,0%);fill-opacity:1;" d="M 2441.625 160.34375 L 2445.25 160.34375 L 2445.25 140.359375 L 2441.625 140.359375 Z M 2441.625 160.34375 "/>
<path style=" stroke:none;fill-rule:nonzero;fill:rgb(0%,0%,0%);fill-opacity:1;" d="M 2441.625 180.253906 L 2445.25 180.253906 L 2445.25 160.269531 L 2441.625 160.269531 Z M 2441.625 180.253906 "/>
<path style=" stroke:none;fill-rule:nonzero;fill:rgb(0%,0%,0%);fill-opacity:1;" d="M 2441.625 200.179688 L 2445.25 200.179688 L 2445.25 180.195312 L 2441.625 180.195312 Z M 2441.625 200.179688 "/>
<path style=" stroke:none;fill-rule:nonzero;fill:rgb(0%,0%,0%);fill-opacity:1;" d="M 2441.625 220.09375 L 2445.25 220.09375 L 2445.25 200.109375 L 2441.625 200.109375 Z M 2441.625 220.09375 "/>
<path style=" stroke:none;fill-rule:nonzero;fill:rgb(0%,0%,0%);fill-opacity:1;" d="M 2441.625 240.015625 L 2445.25 240.015625 L 2445.25 220.03125 L 2441.625 220.03125 Z M 2441.625 240.015625 "/>
<path style=" stroke:none;fill-rule:nonzero;fill:rgb(0%,0%,0%);fill-opacity:1;" d="M 2441.625 297.394531 L 2427.691406 297.394531 L 2427.691406 299.695312 L 2445.25 299.695312 L 2445.25 239.992188 L 2441.625 239.992188 Z M 2441.625 297.394531 "/>
</g>
</svg>
