<?xml version="1.0" encoding="UTF-8"?>
<svg xmlns="http://www.w3.org/2000/svg" xmlns:xlink="http://www.w3.org/1999/xlink" width="200px" height="300px" viewBox="0 0 200 300" version="1.1">
<g id="surface1">
<path style=" stroke:none;fill-rule:nonzero;fill:rgb(74.901961%,74.901961%,74.901961%);fill-opacity:1;" d="M 77.039062 12.308594 C 78.097656 8.011719 78.097656 7.425781 78.097656 6.449219 C 78.097656 4.300781 77.28125 0.199219 75.492188 0.199219 C 73.945312 0.199219 73.539062 2.152344 72.644531 6.449219 L 14.703125 276.957031 C 13.644531 281.253906 13.644531 281.839844 13.644531 282.816406 C 13.644531 285.355469 14.621094 289.066406 16.246094 289.066406 C 17.792969 289.066406 18.199219 287.113281 19.097656 282.816406 Z M 77.039062 12.308594 "/>
<path style=" stroke:none;fill-rule:nonzero;fill:rgb(74.901961%,74.901961%,74.901961%);fill-opacity:1;" d="M 78.746094 122.660156 C 80.699219 122.660156 82.574219 122.660156 82.574219 117.386719 C 82.574219 111.722656 80.375 111.722656 78.179688 111.722656 L 6.074219 111.722656 C 3.878906 111.722656 1.679688 111.722656 1.679688 117.386719 C 1.679688 122.660156 3.632812 122.660156 5.585938 122.660156 Z M 78.179688 177.738281 C 80.375 177.738281 82.574219 177.738281 82.574219 172.269531 C 82.574219 166.996094 80.699219 166.996094 78.746094 166.996094 L 5.585938 166.996094 C 3.632812 166.996094 1.679688 166.996094 1.679688 172.269531 C 1.679688 177.738281 3.878906 177.738281 6.074219 177.738281 Z M 78.179688 177.738281 "/>
<path style=" stroke:none;fill-rule:nonzero;fill:rgb(74.901961%,74.901961%,74.901961%);fill-opacity:1;" d="M 164.382812 29.105469 C 161.125 7.035156 150.953125 7.035156 149.328125 7.035156 C 148.511719 7.035156 147.128906 7.035156 147.128906 10.160156 C 147.128906 12.699219 147.863281 12.894531 148.511719 13.285156 C 150.464844 13.871094 152.011719 14.457031 154.046875 23.441406 C 155.347656 29.496094 168.613281 122.074219 168.613281 122.660156 C 168.613281 122.855469 168.53125 123.246094 167.472656 125.785156 L 133.945312 207.230469 C 132.398438 210.941406 131.339844 213.480469 131.339844 217.386719 C 131.339844 221.683594 132.886719 225.394531 134.921875 225.394531 C 135.492188 225.394531 136.875 224.808594 137.6875 223.050781 C 139.722656 218.363281 158.195312 164.066406 169.914062 130.667969 C 173.332031 154.886719 177.402344 183.402344 181.390625 209.378906 C 182.042969 214.066406 182.691406 218.363281 184.484375 222.464844 C 185.785156 225.199219 186.109375 225.199219 189.691406 225.199219 L 192.132812 225.199219 C 192.621094 225.199219 193.597656 225.199219 193.597656 222.660156 C 193.597656 221.488281 193.433594 221.097656 192.945312 219.925781 C 191.726562 216.410156 190.832031 210.941406 190.34375 207.230469 Z M 164.382812 29.105469 "/>
</g>
</svg>
