<?xml version="1.0" encoding="UTF-8"?>
<svg xmlns="http://www.w3.org/2000/svg" xmlns:xlink="http://www.w3.org/1999/xlink" width="1225px" height="250px" viewBox="0 0 1225 250" version="1.1">
<g id="surface1">
<path style=" stroke:none;fill-rule:nonzero;fill:rgb(74.901961%,74.901961%,74.901961%);fill-opacity:1;" d="M 2.089844 50.589844 L 6.371094 50.589844 L 6.371094 2.753906 L 22.832031 2.753906 L 22.832031 0.835938 L 2.089844 0.835938 Z M 2.089844 50.589844 "/>
<path style=" stroke:none;fill-rule:nonzero;fill:rgb(74.901961%,74.901961%,74.901961%);fill-opacity:1;" d="M 2.089844 67.222656 L 6.371094 67.222656 L 6.371094 50.570312 L 2.089844 50.570312 Z M 2.089844 67.222656 "/>
<path style=" stroke:none;fill-rule:nonzero;fill:rgb(74.901961%,74.901961%,74.901961%);fill-opacity:1;" d="M 2.089844 83.816406 L 6.371094 83.816406 L 6.371094 67.164062 L 2.089844 67.164062 Z M 2.089844 83.816406 "/>
<path style=" stroke:none;fill-rule:nonzero;fill:rgb(74.901961%,74.901961%,74.901961%);fill-opacity:1;" d="M 2.089844 100.421875 L 6.371094 100.421875 L 6.371094 83.765625 L 2.089844 83.765625 Z M 2.089844 100.421875 "/>
<path style=" stroke:none;fill-rule:nonzero;fill:rgb(74.901961%,74.901961%,74.901961%);fill-opacity:1;" d="M 2.089844 117.015625 L 6.371094 117.015625 L 6.371094 100.359375 L 2.089844 100.359375 Z M 2.089844 117.015625 "/>
<path style=" stroke:none;fill-rule:nonzero;fill:rgb(74.901961%,74.901961%,74.901961%);fill-opacity:1;" d="M 2.089844 133.617188 L 6.371094 133.617188 L 6.371094 116.964844 L 2.089844 116.964844 Z M 2.089844 133.617188 "/>
<path style=" stroke:none;fill-rule:nonzero;fill:rgb(74.901961%,74.901961%,74.901961%);fill-opacity:1;" d="M 2.089844 150.210938 L 6.371094 150.210938 L 6.371094 133.558594 L 2.089844 133.558594 Z M 2.089844 150.210938 "/>
<path style=" stroke:none;fill-rule:nonzero;fill:rgb(74.901961%,74.901961%,74.901961%);fill-opacity:1;" d="M 2.089844 166.816406 L 6.371094 166.816406 L 6.371094 150.160156 L 2.089844 150.160156 Z M 2.089844 166.816406 "/>
<path style=" stroke:none;fill-rule:nonzero;fill:rgb(74.901961%,74.901961%,74.901961%);fill-opacity:1;" d="M 2.089844 183.410156 L 6.371094 183.410156 L 6.371094 166.753906 L 2.089844 166.753906 Z M 2.089844 183.410156 "/>
<path style=" stroke:none;fill-rule:nonzero;fill:rgb(74.901961%,74.901961%,74.901961%);fill-opacity:1;" d="M 2.089844 200.011719 L 6.371094 200.011719 L 6.371094 183.359375 L 2.089844 183.359375 Z M 2.089844 200.011719 "/>
<path style=" stroke:none;fill-rule:nonzero;fill:rgb(74.901961%,74.901961%,74.901961%);fill-opacity:1;" d="M 2.089844 249.746094 L 22.832031 249.746094 L 22.832031 247.828125 L 6.371094 247.828125 L 6.371094 199.992188 L 2.089844 199.992188 Z M 2.089844 249.746094 "/>
<path style=" stroke:none;fill-rule:nonzero;fill:rgb(74.901961%,74.901961%,74.901961%);fill-opacity:1;" d="M 75.519531 62.960938 C 58.191406 63.796875 57.5625 71.398438 57.5625 76.789062 C 57.5625 81.566406 58.742188 89.570312 77.050781 89.570312 C 90.605469 89.570312 96.261719 84.269531 96.261719 77.660156 L 96.261719 75.339844 C 96.261719 69.96875 93.234375 62.90625 77.167969 62.90625 C 76.617188 62.90625 76.066406 62.90625 75.519531 62.960938 Z M 66.207031 78.847656 C 66.089844 78.53125 66.089844 78.21875 66.089844 77.90625 C 66.089844 75.464844 66.089844 73.039062 66.480469 70.597656 C 66.640625 69.046875 66.914062 67.300781 68.800781 65.941406 C 70.683594 64.667969 73.828125 63.917969 77.050781 63.917969 C 86.832031 63.917969 87.65625 69.097656 87.65625 73.039062 L 87.65625 75.339844 C 87.65625 76.457031 87.734375 77.695312 87.734375 78.96875 C 87.734375 81.566406 87.382812 84.269531 85.417969 86.152344 C 83.6875 87.546875 80.46875 88.664062 76.894531 88.664062 L 76.695312 88.664062 C 71.039062 88.664062 67.816406 86.1875 67.109375 83.992188 C 66.363281 82.28125 66.558594 80.574219 66.207031 78.847656 Z M 66.207031 78.847656 "/>
<path style=" stroke:none;fill-rule:nonzero;fill:rgb(74.901961%,74.901961%,74.901961%);fill-opacity:1;" d="M 327.828125 65.503906 L 327.828125 66.65625 C 331.835938 66.65625 335.878906 66.5 339.730469 65.941406 L 339.730469 87.339844 L 339.574219 87.773438 L 338.671875 87.898438 L 328.257812 87.898438 L 328.257812 89.101562 L 359.570312 89.101562 L 359.570312 87.933594 L 349.984375 87.933594 C 349.003906 87.933594 348.175781 87.863281 348.175781 87.375 L 348.175781 63.464844 C 348.175781 63.273438 348.175781 62.960938 347.550781 62.960938 C 346.214844 62.960938 344.601562 63.796875 343.148438 64.109375 C 338.472656 65.226562 333.089844 65.503906 327.828125 65.503906 Z M 327.828125 65.503906 "/>
<path style=" stroke:none;fill-rule:nonzero;fill:rgb(74.901961%,74.901961%,74.901961%);fill-opacity:1;" d="M 75.101562 186.042969 L 75.101562 187.191406 C 79.109375 187.191406 83.15625 187.035156 87.007812 186.476562 L 87.007812 207.875 L 86.847656 208.3125 L 85.945312 208.433594 L 75.535156 208.433594 L 75.535156 209.636719 L 106.847656 209.636719 L 106.847656 208.46875 L 97.261719 208.46875 C 96.277344 208.46875 95.453125 208.398438 95.453125 207.910156 L 95.453125 184 C 95.453125 183.808594 95.453125 183.496094 94.824219 183.496094 C 93.488281 183.496094 91.878906 184.332031 90.425781 184.644531 C 85.75 185.761719 80.367188 186.042969 75.101562 186.042969 Z M 75.101562 186.042969 "/>
<path style=" stroke:none;fill-rule:nonzero;fill:rgb(74.901961%,74.901961%,74.901961%);fill-opacity:1;" d="M 356.960938 183.496094 C 339.632812 184.332031 339.007812 191.9375 339.007812 197.324219 C 339.007812 202.101562 340.183594 210.105469 358.492188 210.105469 C 372.046875 210.105469 377.703125 204.804688 377.703125 198.195312 L 377.703125 195.875 C 377.703125 190.503906 374.679688 183.441406 358.609375 183.441406 C 358.058594 183.441406 357.511719 183.441406 356.960938 183.496094 Z M 347.648438 199.382812 C 347.53125 199.066406 347.53125 198.753906 347.53125 198.441406 C 347.53125 196 347.53125 193.574219 347.925781 191.132812 C 348.082031 189.582031 348.355469 187.835938 350.242188 186.476562 C 352.128906 185.203125 355.269531 184.453125 358.492188 184.453125 C 368.273438 184.453125 369.101562 189.632812 369.101562 193.574219 L 369.101562 195.875 C 369.101562 196.992188 369.179688 198.230469 369.179688 199.503906 C 369.179688 202.101562 368.824219 204.804688 366.859375 206.6875 C 365.132812 208.082031 361.910156 209.199219 358.335938 209.199219 L 358.136719 209.199219 C 352.480469 209.199219 349.261719 206.722656 348.550781 204.527344 C 347.804688 202.816406 348.003906 201.109375 347.648438 199.382812 Z M 347.648438 199.382812 "/>
<path style=" stroke:none;fill-rule:nonzero;fill:rgb(74.901961%,74.901961%,74.901961%);fill-opacity:1;" d="M 413.695312 50.589844 L 417.976562 50.589844 L 417.976562 0.835938 L 397.230469 0.835938 L 397.230469 2.753906 L 413.695312 2.753906 Z M 413.695312 50.589844 "/>
<path style=" stroke:none;fill-rule:nonzero;fill:rgb(74.901961%,74.901961%,74.901961%);fill-opacity:1;" d="M 413.695312 67.222656 L 417.976562 67.222656 L 417.976562 50.570312 L 413.695312 50.570312 Z M 413.695312 67.222656 "/>
<path style=" stroke:none;fill-rule:nonzero;fill:rgb(74.901961%,74.901961%,74.901961%);fill-opacity:1;" d="M 413.695312 83.816406 L 417.976562 83.816406 L 417.976562 67.164062 L 413.695312 67.164062 Z M 413.695312 83.816406 "/>
<path style=" stroke:none;fill-rule:nonzero;fill:rgb(74.901961%,74.901961%,74.901961%);fill-opacity:1;" d="M 413.695312 100.421875 L 417.976562 100.421875 L 417.976562 83.765625 L 413.695312 83.765625 Z M 413.695312 100.421875 "/>
<path style=" stroke:none;fill-rule:nonzero;fill:rgb(74.901961%,74.901961%,74.901961%);fill-opacity:1;" d="M 413.695312 117.015625 L 417.976562 117.015625 L 417.976562 100.359375 L 413.695312 100.359375 Z M 413.695312 117.015625 "/>
<path style=" stroke:none;fill-rule:nonzero;fill:rgb(74.901961%,74.901961%,74.901961%);fill-opacity:1;" d="M 413.695312 133.617188 L 417.976562 133.617188 L 417.976562 116.964844 L 413.695312 116.964844 Z M 413.695312 133.617188 "/>
<path style=" stroke:none;fill-rule:nonzero;fill:rgb(74.901961%,74.901961%,74.901961%);fill-opacity:1;" d="M 413.695312 150.210938 L 417.976562 150.210938 L 417.976562 133.558594 L 413.695312 133.558594 Z M 413.695312 150.210938 "/>
<path style=" stroke:none;fill-rule:nonzero;fill:rgb(74.901961%,74.901961%,74.901961%);fill-opacity:1;" d="M 413.695312 166.816406 L 417.976562 166.816406 L 417.976562 150.160156 L 413.695312 150.160156 Z M 413.695312 166.816406 "/>
<path style=" stroke:none;fill-rule:nonzero;fill:rgb(74.901961%,74.901961%,74.901961%);fill-opacity:1;" d="M 413.695312 183.410156 L 417.976562 183.410156 L 417.976562 166.753906 L 413.695312 166.753906 Z M 413.695312 183.410156 "/>
<path style=" stroke:none;fill-rule:nonzero;fill:rgb(74.901961%,74.901961%,74.901961%);fill-opacity:1;" d="M 413.695312 200.011719 L 417.976562 200.011719 L 417.976562 183.359375 L 413.695312 183.359375 Z M 413.695312 200.011719 "/>
<path style=" stroke:none;fill-rule:nonzero;fill:rgb(74.901961%,74.901961%,74.901961%);fill-opacity:1;" d="M 413.695312 247.828125 L 397.230469 247.828125 L 397.230469 249.746094 L 417.976562 249.746094 L 417.976562 199.996094 L 413.695312 199.996094 Z M 413.695312 247.828125 "/>
<path style=" stroke:none;fill-rule:nonzero;fill:rgb(74.901961%,74.901961%,74.901961%);fill-opacity:1;" d="M 469.046875 50.589844 L 473.328125 50.589844 L 473.328125 2.753906 L 489.789062 2.753906 L 489.789062 0.835938 L 469.046875 0.835938 Z M 469.046875 50.589844 "/>
<path style=" stroke:none;fill-rule:nonzero;fill:rgb(74.901961%,74.901961%,74.901961%);fill-opacity:1;" d="M 469.046875 67.222656 L 473.328125 67.222656 L 473.328125 50.570312 L 469.046875 50.570312 Z M 469.046875 67.222656 "/>
<path style=" stroke:none;fill-rule:nonzero;fill:rgb(74.901961%,74.901961%,74.901961%);fill-opacity:1;" d="M 469.046875 83.816406 L 473.328125 83.816406 L 473.328125 67.164062 L 469.046875 67.164062 Z M 469.046875 83.816406 "/>
<path style=" stroke:none;fill-rule:nonzero;fill:rgb(74.901961%,74.901961%,74.901961%);fill-opacity:1;" d="M 469.046875 100.421875 L 473.328125 100.421875 L 473.328125 83.765625 L 469.046875 83.765625 Z M 469.046875 100.421875 "/>
<path style=" stroke:none;fill-rule:nonzero;fill:rgb(74.901961%,74.901961%,74.901961%);fill-opacity:1;" d="M 469.046875 117.015625 L 473.328125 117.015625 L 473.328125 100.359375 L 469.046875 100.359375 Z M 469.046875 117.015625 "/>
<path style=" stroke:none;fill-rule:nonzero;fill:rgb(74.901961%,74.901961%,74.901961%);fill-opacity:1;" d="M 469.046875 133.617188 L 473.328125 133.617188 L 473.328125 116.964844 L 469.046875 116.964844 Z M 469.046875 133.617188 "/>
<path style=" stroke:none;fill-rule:nonzero;fill:rgb(74.901961%,74.901961%,74.901961%);fill-opacity:1;" d="M 469.046875 150.210938 L 473.328125 150.210938 L 473.328125 133.558594 L 469.046875 133.558594 Z M 469.046875 150.210938 "/>
<path style=" stroke:none;fill-rule:nonzero;fill:rgb(74.901961%,74.901961%,74.901961%);fill-opacity:1;" d="M 469.046875 166.816406 L 473.328125 166.816406 L 473.328125 150.164062 L 469.046875 150.164062 Z M 469.046875 166.816406 "/>
<path style=" stroke:none;fill-rule:nonzero;fill:rgb(74.901961%,74.901961%,74.901961%);fill-opacity:1;" d="M 469.046875 183.410156 L 473.328125 183.410156 L 473.328125 166.757812 L 469.046875 166.757812 Z M 469.046875 183.410156 "/>
<path style=" stroke:none;fill-rule:nonzero;fill:rgb(74.901961%,74.901961%,74.901961%);fill-opacity:1;" d="M 469.046875 200.011719 L 473.328125 200.011719 L 473.328125 183.359375 L 469.046875 183.359375 Z M 469.046875 200.011719 "/>
<path style=" stroke:none;fill-rule:nonzero;fill:rgb(74.901961%,74.901961%,74.901961%);fill-opacity:1;" d="M 469.046875 249.746094 L 489.789062 249.746094 L 489.789062 247.828125 L 473.328125 247.828125 L 473.328125 199.996094 L 469.046875 199.996094 Z M 469.046875 249.746094 "/>
<path style=" stroke:none;fill-rule:nonzero;fill:rgb(74.901961%,74.901961%,74.901961%);fill-opacity:1;" d="M 524.792969 65.507812 L 524.792969 66.65625 C 528.800781 66.65625 532.847656 66.5 536.695312 65.941406 L 536.695312 87.339844 L 536.539062 87.773438 L 535.636719 87.898438 L 525.222656 87.898438 L 525.222656 89.101562 L 556.535156 89.101562 L 556.535156 87.933594 L 546.949219 87.933594 C 545.96875 87.933594 545.144531 87.863281 545.144531 87.375 L 545.144531 63.464844 C 545.144531 63.273438 545.144531 62.960938 544.515625 62.960938 C 543.179688 62.960938 541.566406 63.796875 540.113281 64.109375 C 535.4375 65.226562 530.058594 65.507812 524.792969 65.507812 Z M 524.792969 65.507812 "/>
<path style=" stroke:none;fill-rule:nonzero;fill:rgb(74.901961%,74.901961%,74.901961%);fill-opacity:1;" d="M 538.582031 183.496094 C 521.257812 184.332031 520.628906 191.9375 520.628906 197.324219 C 520.628906 202.101562 521.804688 210.105469 540.113281 210.105469 C 553.667969 210.105469 559.324219 204.804688 559.324219 198.195312 L 559.324219 195.878906 C 559.324219 190.507812 556.300781 183.445312 540.230469 183.445312 C 539.683594 183.445312 539.132812 183.445312 538.582031 183.496094 Z M 529.269531 199.382812 C 529.152344 199.070312 529.152344 198.753906 529.152344 198.441406 C 529.152344 196 529.152344 193.574219 529.546875 191.132812 C 529.703125 189.582031 529.976562 187.839844 531.863281 186.476562 C 533.75 185.203125 536.894531 184.453125 540.113281 184.453125 C 549.898438 184.453125 550.722656 189.632812 550.722656 193.574219 L 550.722656 195.878906 C 550.722656 196.992188 550.800781 198.230469 550.800781 199.503906 C 550.800781 202.101562 550.445312 204.804688 548.480469 206.6875 C 546.753906 208.085938 543.53125 209.199219 539.957031 209.199219 L 539.761719 209.199219 C 534.101562 209.199219 530.882812 206.722656 530.175781 204.527344 C 529.429688 202.816406 529.625 201.109375 529.269531 199.382812 Z M 529.269531 199.382812 "/>
<path style=" stroke:none;fill-rule:nonzero;fill:rgb(74.901961%,74.901961%,74.901961%);fill-opacity:1;" d="M 610.589844 50.589844 L 614.875 50.589844 L 614.875 0.835938 L 594.128906 0.835938 L 594.128906 2.753906 L 610.589844 2.753906 Z M 610.589844 50.589844 "/>
<path style=" stroke:none;fill-rule:nonzero;fill:rgb(74.901961%,74.901961%,74.901961%);fill-opacity:1;" d="M 610.589844 67.222656 L 614.875 67.222656 L 614.875 50.570312 L 610.589844 50.570312 Z M 610.589844 67.222656 "/>
<path style=" stroke:none;fill-rule:nonzero;fill:rgb(74.901961%,74.901961%,74.901961%);fill-opacity:1;" d="M 610.589844 83.816406 L 614.875 83.816406 L 614.875 67.164062 L 610.589844 67.164062 Z M 610.589844 83.816406 "/>
<path style=" stroke:none;fill-rule:nonzero;fill:rgb(74.901961%,74.901961%,74.901961%);fill-opacity:1;" d="M 610.589844 100.421875 L 614.875 100.421875 L 614.875 83.765625 L 610.589844 83.765625 Z M 610.589844 100.421875 "/>
<path style=" stroke:none;fill-rule:nonzero;fill:rgb(74.901961%,74.901961%,74.901961%);fill-opacity:1;" d="M 610.589844 117.015625 L 614.875 117.015625 L 614.875 100.359375 L 610.589844 100.359375 Z M 610.589844 117.015625 "/>
<path style=" stroke:none;fill-rule:nonzero;fill:rgb(74.901961%,74.901961%,74.901961%);fill-opacity:1;" d="M 610.589844 133.617188 L 614.875 133.617188 L 614.875 116.964844 L 610.589844 116.964844 Z M 610.589844 133.617188 "/>
<path style=" stroke:none;fill-rule:nonzero;fill:rgb(74.901961%,74.901961%,74.901961%);fill-opacity:1;" d="M 610.589844 150.210938 L 614.875 150.210938 L 614.875 133.558594 L 610.589844 133.558594 Z M 610.589844 150.210938 "/>
<path style=" stroke:none;fill-rule:nonzero;fill:rgb(74.901961%,74.901961%,74.901961%);fill-opacity:1;" d="M 610.589844 166.816406 L 614.875 166.816406 L 614.875 150.164062 L 610.589844 150.164062 Z M 610.589844 166.816406 "/>
<path style=" stroke:none;fill-rule:nonzero;fill:rgb(74.901961%,74.901961%,74.901961%);fill-opacity:1;" d="M 610.589844 183.410156 L 614.875 183.410156 L 614.875 166.757812 L 610.589844 166.757812 Z M 610.589844 183.410156 "/>
<path style=" stroke:none;fill-rule:nonzero;fill:rgb(74.901961%,74.901961%,74.901961%);fill-opacity:1;" d="M 610.589844 200.011719 L 614.875 200.011719 L 614.875 183.359375 L 610.589844 183.359375 Z M 610.589844 200.011719 "/>
<path style=" stroke:none;fill-rule:nonzero;fill:rgb(74.901961%,74.901961%,74.901961%);fill-opacity:1;" d="M 610.589844 247.828125 L 594.128906 247.828125 L 594.128906 249.746094 L 614.875 249.746094 L 614.875 199.996094 L 610.589844 199.996094 Z M 610.589844 247.828125 "/>
<path style=" stroke:none;fill-rule:nonzero;fill:rgb(74.901961%,74.901961%,74.901961%);fill-opacity:1;" d="M 1077.660156 50.589844 L 1081.941406 50.589844 L 1081.941406 2.753906 L 1098.40625 2.753906 L 1098.40625 0.835938 L 1077.660156 0.835938 Z M 1077.660156 50.589844 "/>
<path style=" stroke:none;fill-rule:nonzero;fill:rgb(74.901961%,74.901961%,74.901961%);fill-opacity:1;" d="M 1077.660156 67.222656 L 1081.941406 67.222656 L 1081.941406 50.570312 L 1077.660156 50.570312 Z M 1077.660156 67.222656 "/>
<path style=" stroke:none;fill-rule:nonzero;fill:rgb(74.901961%,74.901961%,74.901961%);fill-opacity:1;" d="M 1077.660156 83.816406 L 1081.941406 83.816406 L 1081.941406 67.164062 L 1077.660156 67.164062 Z M 1077.660156 83.816406 "/>
<path style=" stroke:none;fill-rule:nonzero;fill:rgb(74.901961%,74.901961%,74.901961%);fill-opacity:1;" d="M 1077.660156 100.421875 L 1081.941406 100.421875 L 1081.941406 83.765625 L 1077.660156 83.765625 Z M 1077.660156 100.421875 "/>
<path style=" stroke:none;fill-rule:nonzero;fill:rgb(74.901961%,74.901961%,74.901961%);fill-opacity:1;" d="M 1077.660156 117.015625 L 1081.941406 117.015625 L 1081.941406 100.359375 L 1077.660156 100.359375 Z M 1077.660156 117.015625 "/>
<path style=" stroke:none;fill-rule:nonzero;fill:rgb(74.901961%,74.901961%,74.901961%);fill-opacity:1;" d="M 1077.660156 133.617188 L 1081.941406 133.617188 L 1081.941406 116.964844 L 1077.660156 116.964844 Z M 1077.660156 133.617188 "/>
<path style=" stroke:none;fill-rule:nonzero;fill:rgb(74.901961%,74.901961%,74.901961%);fill-opacity:1;" d="M 1077.660156 150.210938 L 1081.941406 150.210938 L 1081.941406 133.558594 L 1077.660156 133.558594 Z M 1077.660156 150.210938 "/>
<path style=" stroke:none;fill-rule:nonzero;fill:rgb(74.901961%,74.901961%,74.901961%);fill-opacity:1;" d="M 1077.660156 166.816406 L 1081.941406 166.816406 L 1081.941406 150.164062 L 1077.660156 150.164062 Z M 1077.660156 166.816406 "/>
<path style=" stroke:none;fill-rule:nonzero;fill:rgb(74.901961%,74.901961%,74.901961%);fill-opacity:1;" d="M 1077.660156 183.410156 L 1081.941406 183.410156 L 1081.941406 166.757812 L 1077.660156 166.757812 Z M 1077.660156 183.410156 "/>
<path style=" stroke:none;fill-rule:nonzero;fill:rgb(74.901961%,74.901961%,74.901961%);fill-opacity:1;" d="M 1077.660156 200.015625 L 1081.941406 200.015625 L 1081.941406 183.359375 L 1077.660156 183.359375 Z M 1077.660156 200.015625 "/>
<path style=" stroke:none;fill-rule:nonzero;fill:rgb(74.901961%,74.901961%,74.901961%);fill-opacity:1;" d="M 1077.660156 249.746094 L 1098.40625 249.746094 L 1098.40625 247.828125 L 1081.941406 247.828125 L 1081.941406 199.996094 L 1077.660156 199.996094 Z M 1077.660156 249.746094 "/>
<path style=" stroke:none;fill-rule:nonzero;fill:rgb(74.901961%,74.901961%,74.901961%);fill-opacity:1;" d="M 1133.40625 65.507812 L 1133.40625 66.65625 C 1137.414062 66.65625 1141.460938 66.5 1145.3125 65.941406 L 1145.3125 87.339844 L 1145.152344 87.773438 L 1144.25 87.898438 L 1133.839844 87.898438 L 1133.839844 89.101562 L 1165.152344 89.101562 L 1165.152344 87.933594 L 1155.566406 87.933594 C 1154.582031 87.933594 1153.757812 87.863281 1153.757812 87.375 L 1153.757812 63.464844 C 1153.757812 63.273438 1153.757812 62.960938 1153.128906 62.960938 C 1151.792969 62.960938 1150.183594 63.796875 1148.730469 64.109375 C 1144.054688 65.226562 1138.671875 65.507812 1133.40625 65.507812 Z M 1133.40625 65.507812 "/>
<path style=" stroke:none;fill-rule:nonzero;fill:rgb(74.901961%,74.901961%,74.901961%);fill-opacity:1;" d="M 1147.195312 183.496094 C 1129.871094 184.332031 1129.242188 191.9375 1129.242188 197.324219 C 1129.242188 202.101562 1130.421875 210.105469 1148.730469 210.105469 C 1162.285156 210.105469 1167.941406 204.804688 1167.941406 198.195312 L 1167.941406 195.878906 C 1167.941406 190.507812 1164.914062 183.445312 1148.847656 183.445312 C 1148.296875 183.445312 1147.746094 183.445312 1147.195312 183.496094 Z M 1137.886719 199.382812 C 1137.769531 199.070312 1137.769531 198.753906 1137.769531 198.441406 C 1137.769531 196 1137.769531 193.574219 1138.160156 191.132812 C 1138.316406 189.582031 1138.59375 187.839844 1140.480469 186.476562 C 1142.363281 185.203125 1145.507812 184.453125 1148.730469 184.453125 C 1158.511719 184.453125 1159.335938 189.632812 1159.335938 193.574219 L 1159.335938 195.878906 C 1159.335938 196.992188 1159.414062 198.230469 1159.414062 199.503906 C 1159.414062 202.101562 1159.0625 204.804688 1157.097656 206.6875 C 1155.367188 208.085938 1152.148438 209.199219 1148.570312 209.199219 L 1148.375 209.199219 C 1142.71875 209.199219 1139.496094 206.722656 1138.789062 204.527344 C 1138.042969 202.816406 1138.238281 201.109375 1137.886719 199.382812 Z M 1137.886719 199.382812 "/>
<path style=" stroke:none;fill-rule:nonzero;fill:rgb(74.901961%,74.901961%,74.901961%);fill-opacity:1;" d="M 1219.230469 50.589844 L 1223.511719 50.589844 L 1223.511719 0.835938 L 1202.765625 0.835938 L 1202.765625 2.753906 L 1219.230469 2.753906 Z M 1219.230469 50.589844 "/>
<path style=" stroke:none;fill-rule:nonzero;fill:rgb(74.901961%,74.901961%,74.901961%);fill-opacity:1;" d="M 1219.230469 67.222656 L 1223.511719 67.222656 L 1223.511719 50.570312 L 1219.230469 50.570312 Z M 1219.230469 67.222656 "/>
<path style=" stroke:none;fill-rule:nonzero;fill:rgb(74.901961%,74.901961%,74.901961%);fill-opacity:1;" d="M 1219.230469 83.816406 L 1223.511719 83.816406 L 1223.511719 67.164062 L 1219.230469 67.164062 Z M 1219.230469 83.816406 "/>
<path style=" stroke:none;fill-rule:nonzero;fill:rgb(74.901961%,74.901961%,74.901961%);fill-opacity:1;" d="M 1219.230469 100.421875 L 1223.511719 100.421875 L 1223.511719 83.765625 L 1219.230469 83.765625 Z M 1219.230469 100.421875 "/>
<path style=" stroke:none;fill-rule:nonzero;fill:rgb(74.901961%,74.901961%,74.901961%);fill-opacity:1;" d="M 1219.230469 117.015625 L 1223.511719 117.015625 L 1223.511719 100.359375 L 1219.230469 100.359375 Z M 1219.230469 117.015625 "/>
<path style=" stroke:none;fill-rule:nonzero;fill:rgb(74.901961%,74.901961%,74.901961%);fill-opacity:1;" d="M 1219.230469 133.617188 L 1223.511719 133.617188 L 1223.511719 116.964844 L 1219.230469 116.964844 Z M 1219.230469 133.617188 "/>
<path style=" stroke:none;fill-rule:nonzero;fill:rgb(74.901961%,74.901961%,74.901961%);fill-opacity:1;" d="M 1219.230469 150.210938 L 1223.511719 150.210938 L 1223.511719 133.558594 L 1219.230469 133.558594 Z M 1219.230469 150.210938 "/>
<path style=" stroke:none;fill-rule:nonzero;fill:rgb(74.901961%,74.901961%,74.901961%);fill-opacity:1;" d="M 1219.230469 166.816406 L 1223.511719 166.816406 L 1223.511719 150.164062 L 1219.230469 150.164062 Z M 1219.230469 166.816406 "/>
<path style=" stroke:none;fill-rule:nonzero;fill:rgb(74.901961%,74.901961%,74.901961%);fill-opacity:1;" d="M 1219.230469 183.410156 L 1223.511719 183.410156 L 1223.511719 166.757812 L 1219.230469 166.757812 Z M 1219.230469 183.410156 "/>
<path style=" stroke:none;fill-rule:nonzero;fill:rgb(74.901961%,74.901961%,74.901961%);fill-opacity:1;" d="M 1219.230469 200.015625 L 1223.511719 200.015625 L 1223.511719 183.359375 L 1219.230469 183.359375 Z M 1219.230469 200.015625 "/>
<path style=" stroke:none;fill-rule:nonzero;fill:rgb(74.901961%,74.901961%,74.901961%);fill-opacity:1;" d="M 1219.230469 247.828125 L 1202.765625 247.828125 L 1202.765625 249.746094 L 1223.511719 249.746094 L 1223.511719 199.996094 L 1219.230469 199.996094 Z M 1219.230469 247.828125 "/>
</g>
</svg>
