<?xml version="1.0" encoding="UTF-8"?>
<svg xmlns="http://www.w3.org/2000/svg" xmlns:xlink="http://www.w3.org/1999/xlink" width="1500px" height="375px" viewBox="0 0 1500 375" version="1.1">
<g id="surface1">
<path style=" stroke:none;fill-rule:nonzero;fill:rgb(74.901961%,74.901961%,74.901961%);fill-opacity:1;" d="M 2.558594 75.882812 L 7.804688 75.882812 L 7.804688 4.132812 L 27.960938 4.132812 L 27.960938 1.253906 L 2.558594 1.253906 Z M 2.558594 75.882812 "/>
<path style=" stroke:none;fill-rule:nonzero;fill:rgb(74.901961%,74.901961%,74.901961%);fill-opacity:1;" d="M 2.558594 100.835938 L 7.804688 100.835938 L 7.804688 75.851562 L 2.558594 75.851562 Z M 2.558594 100.835938 "/>
<path style=" stroke:none;fill-rule:nonzero;fill:rgb(74.901961%,74.901961%,74.901961%);fill-opacity:1;" d="M 2.558594 125.726562 L 7.804688 125.726562 L 7.804688 100.742188 L 2.558594 100.742188 Z M 2.558594 125.726562 "/>
<path style=" stroke:none;fill-rule:nonzero;fill:rgb(74.901961%,74.901961%,74.901961%);fill-opacity:1;" d="M 2.558594 150.628906 L 7.804688 150.628906 L 7.804688 125.648438 L 2.558594 125.648438 Z M 2.558594 150.628906 "/>
<path style=" stroke:none;fill-rule:nonzero;fill:rgb(74.901961%,74.901961%,74.901961%);fill-opacity:1;" d="M 2.558594 175.519531 L 7.804688 175.519531 L 7.804688 150.539062 L 2.558594 150.539062 Z M 2.558594 175.519531 "/>
<path style=" stroke:none;fill-rule:nonzero;fill:rgb(74.901961%,74.901961%,74.901961%);fill-opacity:1;" d="M 2.558594 200.425781 L 7.804688 200.425781 L 7.804688 175.445312 L 2.558594 175.445312 Z M 2.558594 200.425781 "/>
<path style=" stroke:none;fill-rule:nonzero;fill:rgb(74.901961%,74.901961%,74.901961%);fill-opacity:1;" d="M 2.558594 225.316406 L 7.804688 225.316406 L 7.804688 200.335938 L 2.558594 200.335938 Z M 2.558594 225.316406 "/>
<path style=" stroke:none;fill-rule:nonzero;fill:rgb(74.901961%,74.901961%,74.901961%);fill-opacity:1;" d="M 2.558594 250.222656 L 7.804688 250.222656 L 7.804688 225.242188 L 2.558594 225.242188 Z M 2.558594 250.222656 "/>
<path style=" stroke:none;fill-rule:nonzero;fill:rgb(74.901961%,74.901961%,74.901961%);fill-opacity:1;" d="M 2.558594 275.113281 L 7.804688 275.113281 L 7.804688 250.132812 L 2.558594 250.132812 Z M 2.558594 275.113281 "/>
<path style=" stroke:none;fill-rule:nonzero;fill:rgb(74.901961%,74.901961%,74.901961%);fill-opacity:1;" d="M 2.558594 300.019531 L 7.804688 300.019531 L 7.804688 275.039062 L 2.558594 275.039062 Z M 2.558594 300.019531 "/>
<path style=" stroke:none;fill-rule:nonzero;fill:rgb(74.901961%,74.901961%,74.901961%);fill-opacity:1;" d="M 2.558594 374.621094 L 27.960938 374.621094 L 27.960938 371.742188 L 7.804688 371.742188 L 7.804688 299.992188 L 2.558594 299.992188 Z M 2.558594 374.621094 "/>
<path style=" stroke:none;fill-rule:nonzero;fill:rgb(74.901961%,74.901961%,74.901961%);fill-opacity:1;" d="M 92.46875 94.441406 C 71.253906 95.695312 70.484375 107.101562 70.484375 115.183594 C 70.484375 122.351562 71.929688 134.355469 94.347656 134.355469 C 110.945312 134.355469 117.871094 126.40625 117.871094 116.492188 L 117.871094 113.011719 C 117.871094 104.957031 114.167969 94.359375 94.492188 94.359375 C 93.816406 94.359375 93.144531 94.359375 92.46875 94.441406 Z M 81.070312 118.269531 C 80.925781 117.796875 80.925781 117.328125 80.925781 116.855469 C 80.925781 113.195312 80.925781 109.558594 81.40625 105.898438 C 81.597656 103.570312 81.933594 100.953125 84.246094 98.914062 C 86.554688 97.003906 90.402344 95.878906 94.347656 95.878906 C 106.324219 95.878906 107.335938 103.648438 107.335938 109.558594 L 107.335938 113.011719 C 107.335938 114.6875 107.429688 116.542969 107.429688 118.453125 C 107.429688 122.351562 107 126.40625 104.59375 129.230469 C 102.476562 131.324219 98.53125 132.996094 94.152344 132.996094 L 93.914062 132.996094 C 86.988281 132.996094 83.042969 129.28125 82.175781 125.984375 C 81.261719 123.421875 81.503906 120.859375 81.070312 118.269531 Z M 81.070312 118.269531 "/>
<path style=" stroke:none;fill-rule:nonzero;fill:rgb(74.901961%,74.901961%,74.901961%);fill-opacity:1;" d="M 401.421875 98.257812 L 401.421875 99.984375 C 406.328125 99.984375 411.28125 99.75 415.996094 98.914062 L 415.996094 131.007812 L 415.804688 131.664062 L 414.699219 131.84375 L 401.949219 131.84375 L 401.949219 133.652344 L 440.289062 133.652344 L 440.289062 131.898438 L 428.550781 131.898438 C 427.351562 131.898438 426.339844 131.792969 426.339844 131.0625 L 426.339844 95.199219 C 426.339844 94.910156 426.339844 94.441406 425.570312 94.441406 C 423.933594 94.441406 421.960938 95.695312 420.183594 96.167969 C 414.457031 97.839844 407.867188 98.257812 401.421875 98.257812 Z M 401.421875 98.257812 "/>
<path style=" stroke:none;fill-rule:nonzero;fill:rgb(74.901961%,74.901961%,74.901961%);fill-opacity:1;" d="M 91.960938 279.0625 L 91.960938 280.789062 C 96.867188 280.789062 101.824219 280.554688 106.539062 279.714844 L 106.539062 311.8125 L 106.34375 312.464844 L 105.238281 312.648438 L 92.492188 312.648438 L 92.492188 314.453125 L 130.832031 314.453125 L 130.832031 312.703125 L 119.09375 312.703125 C 117.890625 312.703125 116.882812 312.597656 116.882812 311.863281 L 116.882812 276 C 116.882812 275.714844 116.882812 275.242188 116.109375 275.242188 C 114.476562 275.242188 112.503906 276.5 110.722656 276.96875 C 105 278.644531 98.40625 279.0625 91.960938 279.0625 Z M 91.960938 279.0625 "/>
<path style=" stroke:none;fill-rule:nonzero;fill:rgb(74.901961%,74.901961%,74.901961%);fill-opacity:1;" d="M 437.09375 275.242188 C 415.878906 276.5 415.109375 287.902344 415.109375 295.988281 C 415.109375 303.152344 416.550781 315.160156 438.96875 315.160156 C 455.566406 315.160156 462.496094 307.207031 462.496094 297.292969 L 462.496094 293.816406 C 462.496094 285.757812 458.789062 275.164062 439.113281 275.164062 C 438.441406 275.164062 437.765625 275.164062 437.09375 275.242188 Z M 425.691406 299.074219 C 425.546875 298.601562 425.546875 298.132812 425.546875 297.660156 C 425.546875 294 425.546875 290.363281 426.03125 286.699219 C 426.222656 284.371094 426.558594 281.757812 428.867188 279.714844 C 431.175781 277.808594 435.023438 276.683594 438.96875 276.683594 C 450.949219 276.683594 451.957031 284.449219 451.957031 290.363281 L 451.957031 293.816406 C 451.957031 295.488281 452.054688 297.347656 452.054688 299.257812 C 452.054688 303.152344 451.621094 307.207031 449.214844 310.035156 C 447.101562 312.125 443.15625 313.800781 438.777344 313.800781 L 438.539062 313.800781 C 431.609375 313.800781 427.664062 310.085938 426.800781 306.789062 C 425.886719 304.226562 426.125 301.664062 425.691406 299.074219 Z M 425.691406 299.074219 "/>
<path style=" stroke:none;fill-rule:nonzero;fill:rgb(74.901961%,74.901961%,74.901961%);fill-opacity:1;" d="M 506.5625 75.882812 L 511.808594 75.882812 L 511.808594 1.253906 L 486.40625 1.253906 L 486.40625 4.132812 L 506.5625 4.132812 Z M 506.5625 75.882812 "/>
<path style=" stroke:none;fill-rule:nonzero;fill:rgb(74.901961%,74.901961%,74.901961%);fill-opacity:1;" d="M 506.5625 100.835938 L 511.808594 100.835938 L 511.808594 75.855469 L 506.5625 75.855469 Z M 506.5625 100.835938 "/>
<path style=" stroke:none;fill-rule:nonzero;fill:rgb(74.901961%,74.901961%,74.901961%);fill-opacity:1;" d="M 506.5625 125.726562 L 511.808594 125.726562 L 511.808594 100.746094 L 506.5625 100.746094 Z M 506.5625 125.726562 "/>
<path style=" stroke:none;fill-rule:nonzero;fill:rgb(74.901961%,74.901961%,74.901961%);fill-opacity:1;" d="M 506.5625 150.628906 L 511.808594 150.628906 L 511.808594 125.648438 L 506.5625 125.648438 Z M 506.5625 150.628906 "/>
<path style=" stroke:none;fill-rule:nonzero;fill:rgb(74.901961%,74.901961%,74.901961%);fill-opacity:1;" d="M 506.5625 175.519531 L 511.808594 175.519531 L 511.808594 150.539062 L 506.5625 150.539062 Z M 506.5625 175.519531 "/>
<path style=" stroke:none;fill-rule:nonzero;fill:rgb(74.901961%,74.901961%,74.901961%);fill-opacity:1;" d="M 506.5625 200.425781 L 511.808594 200.425781 L 511.808594 175.445312 L 506.5625 175.445312 Z M 506.5625 200.425781 "/>
<path style=" stroke:none;fill-rule:nonzero;fill:rgb(74.901961%,74.901961%,74.901961%);fill-opacity:1;" d="M 506.5625 225.316406 L 511.808594 225.316406 L 511.808594 200.335938 L 506.5625 200.335938 Z M 506.5625 225.316406 "/>
<path style=" stroke:none;fill-rule:nonzero;fill:rgb(74.901961%,74.901961%,74.901961%);fill-opacity:1;" d="M 506.5625 250.222656 L 511.808594 250.222656 L 511.808594 225.242188 L 506.5625 225.242188 Z M 506.5625 250.222656 "/>
<path style=" stroke:none;fill-rule:nonzero;fill:rgb(74.901961%,74.901961%,74.901961%);fill-opacity:1;" d="M 506.5625 275.113281 L 511.808594 275.113281 L 511.808594 250.132812 L 506.5625 250.132812 Z M 506.5625 275.113281 "/>
<path style=" stroke:none;fill-rule:nonzero;fill:rgb(74.901961%,74.901961%,74.901961%);fill-opacity:1;" d="M 506.5625 300.019531 L 511.808594 300.019531 L 511.808594 275.039062 L 506.5625 275.039062 Z M 506.5625 300.019531 "/>
<path style=" stroke:none;fill-rule:nonzero;fill:rgb(74.901961%,74.901961%,74.901961%);fill-opacity:1;" d="M 506.5625 371.742188 L 486.40625 371.742188 L 486.40625 374.621094 L 511.808594 374.621094 L 511.808594 299.992188 L 506.5625 299.992188 Z M 506.5625 371.742188 "/>
<path style=" stroke:none;fill-rule:nonzero;fill:rgb(74.901961%,74.901961%,74.901961%);fill-opacity:1;" d="M 574.34375 75.882812 L 579.585938 75.882812 L 579.585938 4.132812 L 599.742188 4.132812 L 599.742188 1.253906 L 574.34375 1.253906 Z M 574.34375 75.882812 "/>
<path style=" stroke:none;fill-rule:nonzero;fill:rgb(74.901961%,74.901961%,74.901961%);fill-opacity:1;" d="M 574.34375 100.835938 L 579.585938 100.835938 L 579.585938 75.855469 L 574.34375 75.855469 Z M 574.34375 100.835938 "/>
<path style=" stroke:none;fill-rule:nonzero;fill:rgb(74.901961%,74.901961%,74.901961%);fill-opacity:1;" d="M 574.34375 125.726562 L 579.585938 125.726562 L 579.585938 100.746094 L 574.34375 100.746094 Z M 574.34375 125.726562 "/>
<path style=" stroke:none;fill-rule:nonzero;fill:rgb(74.901961%,74.901961%,74.901961%);fill-opacity:1;" d="M 574.34375 150.628906 L 579.585938 150.628906 L 579.585938 125.648438 L 574.34375 125.648438 Z M 574.34375 150.628906 "/>
<path style=" stroke:none;fill-rule:nonzero;fill:rgb(74.901961%,74.901961%,74.901961%);fill-opacity:1;" d="M 574.34375 175.519531 L 579.585938 175.519531 L 579.585938 150.539062 L 574.34375 150.539062 Z M 574.34375 175.519531 "/>
<path style=" stroke:none;fill-rule:nonzero;fill:rgb(74.901961%,74.901961%,74.901961%);fill-opacity:1;" d="M 574.34375 200.425781 L 579.585938 200.425781 L 579.585938 175.445312 L 574.34375 175.445312 Z M 574.34375 200.425781 "/>
<path style=" stroke:none;fill-rule:nonzero;fill:rgb(74.901961%,74.901961%,74.901961%);fill-opacity:1;" d="M 574.34375 225.316406 L 579.585938 225.316406 L 579.585938 200.335938 L 574.34375 200.335938 Z M 574.34375 225.316406 "/>
<path style=" stroke:none;fill-rule:nonzero;fill:rgb(74.901961%,74.901961%,74.901961%);fill-opacity:1;" d="M 574.34375 250.222656 L 579.585938 250.222656 L 579.585938 225.242188 L 574.34375 225.242188 Z M 574.34375 250.222656 "/>
<path style=" stroke:none;fill-rule:nonzero;fill:rgb(74.901961%,74.901961%,74.901961%);fill-opacity:1;" d="M 574.34375 275.113281 L 579.585938 275.113281 L 579.585938 250.132812 L 574.34375 250.132812 Z M 574.34375 275.113281 "/>
<path style=" stroke:none;fill-rule:nonzero;fill:rgb(74.901961%,74.901961%,74.901961%);fill-opacity:1;" d="M 574.34375 300.019531 L 579.585938 300.019531 L 579.585938 275.039062 L 574.34375 275.039062 Z M 574.34375 300.019531 "/>
<path style=" stroke:none;fill-rule:nonzero;fill:rgb(74.901961%,74.901961%,74.901961%);fill-opacity:1;" d="M 574.34375 374.621094 L 599.742188 374.621094 L 599.742188 371.742188 L 579.585938 371.742188 L 579.585938 299.992188 L 574.34375 299.992188 Z M 574.34375 374.621094 "/>
<path style=" stroke:none;fill-rule:nonzero;fill:rgb(74.901961%,74.901961%,74.901961%);fill-opacity:1;" d="M 642.601562 98.257812 L 642.601562 99.984375 C 647.507812 99.984375 652.464844 99.75 657.179688 98.914062 L 657.179688 131.007812 L 656.988281 131.664062 L 655.878906 131.847656 L 643.132812 131.847656 L 643.132812 133.652344 L 681.472656 133.652344 L 681.472656 131.898438 L 669.734375 131.898438 C 668.53125 131.898438 667.523438 131.792969 667.523438 131.0625 L 667.523438 95.199219 C 667.523438 94.910156 667.523438 94.441406 666.753906 94.441406 C 665.117188 94.441406 663.144531 95.695312 661.363281 96.167969 C 655.640625 97.839844 649.050781 98.257812 642.601562 98.257812 Z M 642.601562 98.257812 "/>
<path style=" stroke:none;fill-rule:nonzero;fill:rgb(74.901961%,74.901961%,74.901961%);fill-opacity:1;" d="M 659.488281 275.242188 C 638.273438 276.5 637.503906 287.902344 637.503906 295.988281 C 637.503906 303.152344 638.945312 315.160156 661.363281 315.160156 C 677.960938 315.160156 684.886719 307.207031 684.886719 297.292969 L 684.886719 293.816406 C 684.886719 285.757812 681.183594 275.164062 661.507812 275.164062 C 660.835938 275.164062 660.160156 275.164062 659.488281 275.242188 Z M 648.085938 299.074219 C 647.941406 298.601562 647.941406 298.132812 647.941406 297.660156 C 647.941406 294 647.941406 290.363281 648.421875 286.699219 C 648.617188 284.371094 648.953125 281.757812 651.261719 279.714844 C 653.570312 277.808594 657.417969 276.683594 661.363281 276.683594 C 673.34375 276.683594 674.351562 284.453125 674.351562 290.363281 L 674.351562 293.816406 C 674.351562 295.488281 674.449219 297.347656 674.449219 299.257812 C 674.449219 303.152344 674.015625 307.207031 671.609375 310.035156 C 669.496094 312.125 665.550781 313.800781 661.171875 313.800781 L 660.929688 313.800781 C 654.003906 313.800781 650.058594 310.085938 649.195312 306.789062 C 648.28125 304.226562 648.519531 301.664062 648.085938 299.074219 Z M 648.085938 299.074219 "/>
<path style=" stroke:none;fill-rule:nonzero;fill:rgb(74.901961%,74.901961%,74.901961%);fill-opacity:1;" d="M 747.664062 75.882812 L 752.90625 75.882812 L 752.90625 1.253906 L 727.507812 1.253906 L 727.507812 4.132812 L 747.664062 4.132812 Z M 747.664062 75.882812 "/>
<path style=" stroke:none;fill-rule:nonzero;fill:rgb(74.901961%,74.901961%,74.901961%);fill-opacity:1;" d="M 747.664062 100.835938 L 752.90625 100.835938 L 752.90625 75.855469 L 747.664062 75.855469 Z M 747.664062 100.835938 "/>
<path style=" stroke:none;fill-rule:nonzero;fill:rgb(74.901961%,74.901961%,74.901961%);fill-opacity:1;" d="M 747.664062 125.726562 L 752.90625 125.726562 L 752.90625 100.746094 L 747.664062 100.746094 Z M 747.664062 125.726562 "/>
<path style=" stroke:none;fill-rule:nonzero;fill:rgb(74.901961%,74.901961%,74.901961%);fill-opacity:1;" d="M 747.664062 150.632812 L 752.90625 150.632812 L 752.90625 125.648438 L 747.664062 125.648438 Z M 747.664062 150.632812 "/>
<path style=" stroke:none;fill-rule:nonzero;fill:rgb(74.901961%,74.901961%,74.901961%);fill-opacity:1;" d="M 747.664062 175.523438 L 752.90625 175.523438 L 752.90625 150.539062 L 747.664062 150.539062 Z M 747.664062 175.523438 "/>
<path style=" stroke:none;fill-rule:nonzero;fill:rgb(74.901961%,74.901961%,74.901961%);fill-opacity:1;" d="M 747.664062 200.425781 L 752.90625 200.425781 L 752.90625 175.445312 L 747.664062 175.445312 Z M 747.664062 200.425781 "/>
<path style=" stroke:none;fill-rule:nonzero;fill:rgb(74.901961%,74.901961%,74.901961%);fill-opacity:1;" d="M 747.664062 225.316406 L 752.90625 225.316406 L 752.90625 200.335938 L 747.664062 200.335938 Z M 747.664062 225.316406 "/>
<path style=" stroke:none;fill-rule:nonzero;fill:rgb(74.901961%,74.901961%,74.901961%);fill-opacity:1;" d="M 747.664062 250.222656 L 752.90625 250.222656 L 752.90625 225.242188 L 747.664062 225.242188 Z M 747.664062 250.222656 "/>
<path style=" stroke:none;fill-rule:nonzero;fill:rgb(74.901961%,74.901961%,74.901961%);fill-opacity:1;" d="M 747.664062 275.113281 L 752.90625 275.113281 L 752.90625 250.132812 L 747.664062 250.132812 Z M 747.664062 275.113281 "/>
<path style=" stroke:none;fill-rule:nonzero;fill:rgb(74.901961%,74.901961%,74.901961%);fill-opacity:1;" d="M 747.664062 300.019531 L 752.90625 300.019531 L 752.90625 275.039062 L 747.664062 275.039062 Z M 747.664062 300.019531 "/>
<path style=" stroke:none;fill-rule:nonzero;fill:rgb(74.901961%,74.901961%,74.901961%);fill-opacity:1;" d="M 747.664062 371.742188 L 727.507812 371.742188 L 727.507812 374.621094 L 752.90625 374.621094 L 752.90625 299.992188 L 747.664062 299.992188 Z M 747.664062 371.742188 "/>
<path style=" stroke:none;fill-rule:nonzero;fill:rgb(74.901961%,74.901961%,74.901961%);fill-opacity:1;" d="M 1319.585938 75.882812 L 1324.828125 75.882812 L 1324.828125 4.132812 L 1344.984375 4.132812 L 1344.984375 1.253906 L 1319.585938 1.253906 Z M 1319.585938 75.882812 "/>
<path style=" stroke:none;fill-rule:nonzero;fill:rgb(74.901961%,74.901961%,74.901961%);fill-opacity:1;" d="M 1319.585938 100.835938 L 1324.828125 100.835938 L 1324.828125 75.855469 L 1319.585938 75.855469 Z M 1319.585938 100.835938 "/>
<path style=" stroke:none;fill-rule:nonzero;fill:rgb(74.901961%,74.901961%,74.901961%);fill-opacity:1;" d="M 1319.585938 125.726562 L 1324.828125 125.726562 L 1324.828125 100.746094 L 1319.585938 100.746094 Z M 1319.585938 125.726562 "/>
<path style=" stroke:none;fill-rule:nonzero;fill:rgb(74.901961%,74.901961%,74.901961%);fill-opacity:1;" d="M 1319.585938 150.632812 L 1324.828125 150.632812 L 1324.828125 125.648438 L 1319.585938 125.648438 Z M 1319.585938 150.632812 "/>
<path style=" stroke:none;fill-rule:nonzero;fill:rgb(74.901961%,74.901961%,74.901961%);fill-opacity:1;" d="M 1319.585938 175.523438 L 1324.828125 175.523438 L 1324.828125 150.539062 L 1319.585938 150.539062 Z M 1319.585938 175.523438 "/>
<path style=" stroke:none;fill-rule:nonzero;fill:rgb(74.901961%,74.901961%,74.901961%);fill-opacity:1;" d="M 1319.585938 200.425781 L 1324.828125 200.425781 L 1324.828125 175.445312 L 1319.585938 175.445312 Z M 1319.585938 200.425781 "/>
<path style=" stroke:none;fill-rule:nonzero;fill:rgb(74.901961%,74.901961%,74.901961%);fill-opacity:1;" d="M 1319.585938 225.316406 L 1324.828125 225.316406 L 1324.828125 200.335938 L 1319.585938 200.335938 Z M 1319.585938 225.316406 "/>
<path style=" stroke:none;fill-rule:nonzero;fill:rgb(74.901961%,74.901961%,74.901961%);fill-opacity:1;" d="M 1319.585938 250.222656 L 1324.828125 250.222656 L 1324.828125 225.242188 L 1319.585938 225.242188 Z M 1319.585938 250.222656 "/>
<path style=" stroke:none;fill-rule:nonzero;fill:rgb(74.901961%,74.901961%,74.901961%);fill-opacity:1;" d="M 1319.585938 275.113281 L 1324.828125 275.113281 L 1324.828125 250.132812 L 1319.585938 250.132812 Z M 1319.585938 275.113281 "/>
<path style=" stroke:none;fill-rule:nonzero;fill:rgb(74.901961%,74.901961%,74.901961%);fill-opacity:1;" d="M 1319.585938 300.019531 L 1324.828125 300.019531 L 1324.828125 275.039062 L 1319.585938 275.039062 Z M 1319.585938 300.019531 "/>
<path style=" stroke:none;fill-rule:nonzero;fill:rgb(74.901961%,74.901961%,74.901961%);fill-opacity:1;" d="M 1319.585938 374.621094 L 1344.984375 374.621094 L 1344.984375 371.742188 L 1324.828125 371.742188 L 1324.828125 299.992188 L 1319.585938 299.992188 Z M 1319.585938 374.621094 "/>
<path style=" stroke:none;fill-rule:nonzero;fill:rgb(74.901961%,74.901961%,74.901961%);fill-opacity:1;" d="M 1387.847656 98.257812 L 1387.847656 99.984375 C 1392.753906 99.984375 1397.707031 99.75 1402.421875 98.914062 L 1402.421875 131.007812 L 1402.230469 131.664062 L 1401.125 131.847656 L 1388.375 131.847656 L 1388.375 133.652344 L 1426.714844 133.652344 L 1426.714844 131.898438 L 1414.976562 131.898438 C 1413.773438 131.898438 1412.765625 131.792969 1412.765625 131.0625 L 1412.765625 95.199219 C 1412.765625 94.910156 1412.765625 94.441406 1411.996094 94.441406 C 1410.359375 94.441406 1408.386719 95.695312 1406.605469 96.167969 C 1400.882812 97.839844 1394.292969 98.257812 1387.847656 98.257812 Z M 1387.847656 98.257812 "/>
<path style=" stroke:none;fill-rule:nonzero;fill:rgb(74.901961%,74.901961%,74.901961%);fill-opacity:1;" d="M 1404.730469 275.242188 C 1383.515625 276.5 1382.746094 287.90625 1382.746094 295.988281 C 1382.746094 303.15625 1384.191406 315.160156 1406.605469 315.160156 C 1423.203125 315.160156 1430.132812 307.207031 1430.132812 297.296875 L 1430.132812 293.816406 C 1430.132812 285.757812 1426.425781 275.164062 1406.75 275.164062 C 1406.078125 275.164062 1405.40625 275.164062 1404.730469 275.242188 Z M 1393.328125 299.074219 C 1393.183594 298.601562 1393.183594 298.132812 1393.183594 297.660156 C 1393.183594 294 1393.183594 290.363281 1393.667969 286.699219 C 1393.859375 284.375 1394.195312 281.757812 1396.503906 279.71875 C 1398.8125 277.808594 1402.664062 276.683594 1406.605469 276.683594 C 1418.585938 276.683594 1419.597656 284.453125 1419.597656 290.363281 L 1419.597656 293.816406 C 1419.597656 295.488281 1419.691406 297.347656 1419.691406 299.257812 C 1419.691406 303.15625 1419.257812 307.207031 1416.855469 310.035156 C 1414.738281 312.125 1410.792969 313.800781 1406.414062 313.800781 L 1406.175781 313.800781 C 1399.246094 313.800781 1395.300781 310.085938 1394.4375 306.789062 C 1393.523438 304.226562 1393.761719 301.664062 1393.328125 299.074219 Z M 1393.328125 299.074219 "/>
<path style=" stroke:none;fill-rule:nonzero;fill:rgb(74.901961%,74.901961%,74.901961%);fill-opacity:1;" d="M 1492.933594 75.882812 L 1498.175781 75.882812 L 1498.175781 1.253906 L 1472.777344 1.253906 L 1472.777344 4.132812 L 1492.933594 4.132812 Z M 1492.933594 75.882812 "/>
<path style=" stroke:none;fill-rule:nonzero;fill:rgb(74.901961%,74.901961%,74.901961%);fill-opacity:1;" d="M 1492.933594 100.835938 L 1498.175781 100.835938 L 1498.175781 75.855469 L 1492.933594 75.855469 Z M 1492.933594 100.835938 "/>
<path style=" stroke:none;fill-rule:nonzero;fill:rgb(74.901961%,74.901961%,74.901961%);fill-opacity:1;" d="M 1492.933594 125.726562 L 1498.175781 125.726562 L 1498.175781 100.746094 L 1492.933594 100.746094 Z M 1492.933594 125.726562 "/>
<path style=" stroke:none;fill-rule:nonzero;fill:rgb(74.901961%,74.901961%,74.901961%);fill-opacity:1;" d="M 1492.933594 150.632812 L 1498.175781 150.632812 L 1498.175781 125.652344 L 1492.933594 125.652344 Z M 1492.933594 150.632812 "/>
<path style=" stroke:none;fill-rule:nonzero;fill:rgb(74.901961%,74.901961%,74.901961%);fill-opacity:1;" d="M 1492.933594 175.523438 L 1498.175781 175.523438 L 1498.175781 150.542969 L 1492.933594 150.542969 Z M 1492.933594 175.523438 "/>
<path style=" stroke:none;fill-rule:nonzero;fill:rgb(74.901961%,74.901961%,74.901961%);fill-opacity:1;" d="M 1492.933594 200.425781 L 1498.175781 200.425781 L 1498.175781 175.445312 L 1492.933594 175.445312 Z M 1492.933594 200.425781 "/>
<path style=" stroke:none;fill-rule:nonzero;fill:rgb(74.901961%,74.901961%,74.901961%);fill-opacity:1;" d="M 1492.933594 225.316406 L 1498.175781 225.316406 L 1498.175781 200.335938 L 1492.933594 200.335938 Z M 1492.933594 225.316406 "/>
<path style=" stroke:none;fill-rule:nonzero;fill:rgb(74.901961%,74.901961%,74.901961%);fill-opacity:1;" d="M 1492.933594 250.222656 L 1498.175781 250.222656 L 1498.175781 225.242188 L 1492.933594 225.242188 Z M 1492.933594 250.222656 "/>
<path style=" stroke:none;fill-rule:nonzero;fill:rgb(74.901961%,74.901961%,74.901961%);fill-opacity:1;" d="M 1492.933594 275.113281 L 1498.175781 275.113281 L 1498.175781 250.132812 L 1492.933594 250.132812 Z M 1492.933594 275.113281 "/>
<path style=" stroke:none;fill-rule:nonzero;fill:rgb(74.901961%,74.901961%,74.901961%);fill-opacity:1;" d="M 1492.933594 300.019531 L 1498.175781 300.019531 L 1498.175781 275.039062 L 1492.933594 275.039062 Z M 1492.933594 300.019531 "/>
<path style=" stroke:none;fill-rule:nonzero;fill:rgb(74.901961%,74.901961%,74.901961%);fill-opacity:1;" d="M 1492.933594 371.742188 L 1472.777344 371.742188 L 1472.777344 374.621094 L 1498.175781 374.621094 L 1498.175781 299.992188 L 1492.933594 299.992188 Z M 1492.933594 371.742188 "/>
</g>
</svg>
