<?xml version="1.0" encoding="UTF-8"?>
<svg xmlns="http://www.w3.org/2000/svg" xmlns:xlink="http://www.w3.org/1999/xlink" width="3000px" height="200px" viewBox="0 0 3000 200" version="1.1">
<g id="surface1">
<path style=" stroke:none;fill-rule:nonzero;fill:rgb(74.901961%,74.901961%,74.901961%);fill-opacity:1;" d="M 4.003906 56.742188 C 4.003906 54.28125 4.003906 51.902344 2.820312 51.902344 C 1.671875 51.902344 1.671875 54.28125 1.671875 56.742188 L 1.671875 181.65625 C 1.671875 184.121094 1.671875 186.496094 2.820312 186.496094 C 4.003906 186.496094 4.003906 184.121094 4.003906 181.65625 Z M 4.003906 56.742188 "/>
<path style=" stroke:none;fill-rule:nonzero;fill:rgb(74.901961%,74.901961%,74.901961%);fill-opacity:1;" d="M 37.171875 19.546875 L 37.171875 25.152344 L 39.132812 25.152344 C 41.3125 25.152344 43.199219 25.746094 43.199219 31.945312 L 43.199219 76.019531 C 40.316406 69.394531 36.761719 65.320312 32.4375 65.320312 C 26.960938 65.320312 21.042969 70.414062 17.675781 80.691406 C 14.863281 89.011719 13.867188 99.882812 13.867188 109.988281 C 13.867188 130.535156 18.75 153.804688 31.511719 153.804688 C 36.097656 153.804688 39.871094 149.386719 43.015625 142.171875 L 43.015625 153.804688 L 56.777344 153.804688 L 56.777344 147.011719 L 54.667969 147.011719 C 52.558594 147.011719 50.78125 146.5 50.78125 140.21875 L 50.78125 18.019531 L 41.757812 18.953125 Z M 21.96875 117.542969 L 21.96875 107.4375 C 21.96875 95.976562 22.300781 82.8125 26.628906 75.085938 C 28.550781 71.601562 31.03125 69.820312 33.398438 69.820312 C 36.910156 69.820312 39.980469 73.472656 42.347656 80.265625 C 42.609375 81.285156 42.941406 82.046875 43.015625 83.238281 L 43.015625 132.488281 C 43.015625 133.847656 43.015625 135.039062 42.683594 136.140625 C 40.386719 144.125 36.578125 149.386719 32.546875 149.386719 C 26.515625 149.386719 23.078125 138.519531 22.226562 124.933594 C 22.152344 122.382812 22.152344 120.089844 21.96875 117.542969 Z M 21.96875 117.542969 "/>
<path style=" stroke:none;fill-rule:nonzero;fill:rgb(74.901961%,74.901961%,74.901961%);fill-opacity:1;" d="M 61.960938 66.933594 L 61.960938 72.539062 L 63.625 72.539062 C 65.769531 72.539062 67.621094 73.132812 67.621094 78.90625 L 67.621094 144.125 C 67.621094 146.839844 66.84375 147.011719 66.179688 147.011719 L 61.628906 147.011719 L 61.628906 152.699219 L 80.640625 152.699219 L 80.640625 147.011719 L 76.757812 147.011719 C 75.980469 147.011719 75.203125 147.011719 75.203125 144.125 L 75.203125 65.320312 L 66.4375 66.339844 Z M 69.878906 18.785156 C 67.695312 19.546875 65.917969 23.792969 65.917969 29.230469 C 65.917969 34.917969 68.027344 39.929688 70.582031 39.929688 C 73.023438 39.929688 75.203125 35.257812 75.203125 29.230469 C 75.203125 23.625 73.09375 18.613281 70.582031 18.613281 C 70.320312 18.613281 70.136719 18.785156 69.878906 18.785156 Z M 69.878906 18.785156 "/>
<path style=" stroke:none;fill-rule:nonzero;fill:rgb(74.901961%,74.901961%,74.901961%);fill-opacity:1;" d="M 92.699219 78.90625 C 95.066406 72.960938 98.285156 69.226562 101.910156 69.226562 C 107.753906 69.226562 110.527344 80.691406 110.527344 95.464844 C 110.527344 98.523438 110.453125 101.410156 110.453125 104.382812 C 100.984375 104.382812 86.300781 109.988281 86.300781 134.441406 C 86.300781 148.792969 93.957031 153.804688 99.46875 153.804688 C 103.945312 153.804688 109.789062 147.605469 110.863281 135.378906 L 110.972656 135.378906 C 110.972656 146.671875 114.523438 153.292969 118.742188 153.292969 C 122.367188 153.292969 125.324219 147.265625 125.84375 139.113281 L 125.84375 124.933594 L 123.660156 124.933594 L 123.660156 134.613281 C 123.660156 139.285156 123.289062 146.078125 120.847656 146.078125 C 118.40625 146.078125 118.222656 138.347656 118.222656 134.441406 L 118.222656 91.390625 C 117.484375 71.601562 109.34375 64.808594 102.613281 64.808594 C 97.175781 64.808594 89.257812 71.347656 89.257812 87.484375 C 89.257812 93.34375 90.847656 97.164062 93.289062 97.164062 C 95.585938 97.164062 97.285156 93.085938 97.285156 87.90625 C 97.285156 82.8125 95.585938 78.738281 93.363281 78.738281 C 93.144531 78.738281 92.957031 78.90625 92.699219 78.90625 Z M 110.453125 107.4375 L 110.453125 125.355469 C 110.453125 137.332031 107.164062 148.964844 101.503906 149.386719 L 101.167969 149.386719 C 97.507812 149.386719 94.066406 142.933594 94.066406 134.273438 L 94.066406 133.847656 C 94.066406 114.996094 103.019531 108.457031 110.453125 107.4375 Z M 110.453125 107.4375 "/>
<path style=" stroke:none;fill-rule:nonzero;fill:rgb(74.901961%,74.901961%,74.901961%);fill-opacity:1;" d="M 128.871094 66.933594 L 128.871094 72.539062 L 130.832031 72.539062 C 132.941406 72.539062 134.902344 73.132812 134.902344 78.738281 L 134.902344 144.125 C 134.902344 146.839844 134.125 147.011719 133.457031 147.011719 L 128.871094 147.011719 L 128.871094 152.699219 L 148.660156 152.699219 L 148.660156 147.011719 L 144.113281 147.011719 C 143.410156 147.011719 142.667969 146.839844 142.667969 144.546875 L 142.667969 114.828125 C 142.667969 111.515625 142.558594 108.035156 142.558594 104.550781 C 142.558594 90.792969 144.925781 69.820312 153.730469 69.820312 C 158.871094 69.820312 158.984375 84.933594 158.984375 91.730469 L 158.984375 144.546875 C 158.984375 146.839844 158.207031 147.011719 157.539062 147.011719 L 152.953125 147.011719 L 152.953125 152.699219 L 172.742188 152.699219 L 172.742188 147.011719 L 168.191406 147.011719 C 167.527344 147.011719 166.75 146.839844 166.75 144.546875 L 166.75 114.828125 C 166.75 111.515625 166.675781 108.035156 166.675781 104.550781 C 166.675781 90.792969 169.042969 69.820312 177.8125 69.820312 C 182.988281 69.820312 183.0625 84.933594 183.0625 91.730469 L 183.0625 144.546875 C 183.0625 146.839844 182.285156 147.011719 181.621094 147.011719 L 177.070312 147.011719 L 177.070312 152.699219 L 196.824219 152.699219 L 196.824219 147.011719 L 192.273438 147.011719 C 191.757812 146.839844 191.015625 147.011719 190.832031 145.480469 L 190.832031 94.617188 C 190.832031 88.078125 190.757812 81.285156 189.316406 75.679688 C 187.132812 67.273438 182.878906 65.320312 178.996094 65.320312 C 173.925781 65.320312 170.117188 71.941406 167.859375 81.453125 C 167.417969 83.40625 166.933594 85.53125 166.75 87.90625 L 166.675781 87.90625 C 166.160156 72.367188 161.757812 65.320312 155.097656 65.320312 C 148.847656 65.320312 143.742188 75.847656 142.410156 89.605469 L 142.335938 65.320312 L 133.457031 66.339844 Z M 128.871094 66.933594 "/>
<path style=" stroke:none;fill-rule:nonzero;fill:rgb(74.901961%,74.901961%,74.901961%);fill-opacity:1;" d="M 218.800781 64.808594 C 215.175781 65.742188 211.699219 67.527344 208.667969 72.367188 C 203.339844 80.691406 200.972656 95.464844 200.972656 109.816406 C 200.972656 121.449219 202.488281 133.425781 206.113281 141.832031 C 209.777344 150.324219 215.175781 153.804688 220.320312 153.804688 C 231.75 153.804688 239.441406 135.207031 239.441406 109.816406 C 239.441406 99.542969 238.332031 88.671875 235.449219 80.265625 C 231.75 69.226562 225.71875 64.808594 219.726562 64.808594 Z M 209.074219 116.183594 L 209.074219 106.082031 C 209.074219 95.976562 209.183594 84 212.550781 76.1875 C 214.585938 71.601562 217.46875 69.226562 220.246094 69.226562 C 226.753906 69.226562 230.378906 80.265625 231.15625 95.039062 C 231.304688 99.882812 231.304688 104.722656 231.304688 109.5625 C 231.304688 119.921875 231.304688 131.726562 228.457031 140.21875 C 226.421875 146.078125 223.390625 148.964844 220.246094 148.964844 C 213.917969 148.964844 209.925781 137.925781 209.257812 122.042969 C 209.183594 120.089844 209.183594 118.136719 209.074219 116.183594 Z M 209.074219 116.183594 "/>
<path style=" stroke:none;fill-rule:nonzero;fill:rgb(74.901961%,74.901961%,74.901961%);fill-opacity:1;" d="M 244.320312 66.933594 L 244.320312 72.539062 L 246.28125 72.539062 C 248.390625 72.539062 250.351562 73.132812 250.351562 78.738281 L 250.351562 144.125 C 250.351562 146.839844 249.574219 147.011719 248.910156 147.011719 L 244.320312 147.011719 L 244.320312 152.699219 L 264.113281 152.699219 L 264.113281 147.011719 L 259.5625 147.011719 C 258.859375 147.011719 258.117188 146.839844 258.117188 144.546875 L 258.117188 114.488281 C 258.117188 111.175781 258.007812 107.695312 258.007812 104.382812 C 258.007812 90.625 260.746094 69.820312 269.105469 69.820312 C 274.171875 69.820312 274.320312 84.171875 274.320312 91.730469 L 274.320312 144.546875 C 274.320312 146.839844 273.582031 147.011719 272.914062 147.011719 L 268.328125 147.011719 L 268.328125 152.699219 L 288.117188 152.699219 L 288.117188 147.011719 L 283.570312 147.011719 C 283.050781 146.839844 282.273438 147.011719 282.125 145.480469 L 282.125 94.617188 C 282.125 88.078125 282.015625 81.285156 280.609375 75.679688 C 278.390625 67.101562 274.171875 65.320312 270.179688 65.320312 C 264.113281 65.320312 258.710938 76.785156 257.859375 89.605469 L 257.785156 65.320312 L 248.910156 66.339844 Z M 244.320312 66.933594 "/>
<path style=" stroke:none;fill-rule:nonzero;fill:rgb(74.901961%,74.901961%,74.901961%);fill-opacity:1;" d="M 316.164062 19.546875 L 316.164062 25.152344 L 318.125 25.152344 C 320.308594 25.152344 322.195312 25.746094 322.195312 31.945312 L 322.195312 76.019531 C 319.308594 69.394531 315.757812 65.320312 311.429688 65.320312 C 305.957031 65.320312 300.035156 70.414062 296.671875 80.691406 C 293.859375 89.011719 292.859375 99.882812 292.859375 109.988281 C 292.859375 130.535156 297.742188 153.804688 310.503906 153.804688 C 315.09375 153.804688 318.863281 149.386719 322.007812 142.171875 L 322.007812 153.804688 L 335.769531 153.804688 L 335.769531 147.011719 L 333.660156 147.011719 C 331.554688 147.011719 329.777344 146.5 329.777344 140.21875 L 329.777344 18.019531 L 320.75 18.953125 Z M 300.960938 117.542969 L 300.960938 107.4375 C 300.960938 95.976562 301.292969 82.8125 305.621094 75.085938 C 307.546875 71.601562 310.023438 69.820312 312.390625 69.820312 C 315.90625 69.820312 318.976562 73.472656 321.34375 80.265625 C 321.601562 81.285156 321.933594 82.046875 322.007812 83.238281 L 322.007812 132.488281 C 322.007812 133.847656 322.007812 135.039062 321.675781 136.140625 C 319.382812 144.125 315.574219 149.386719 311.539062 149.386719 C 305.511719 149.386719 302.070312 138.519531 301.21875 124.933594 C 301.144531 122.382812 301.144531 120.089844 300.960938 117.542969 Z M 300.960938 117.542969 "/>
<path style=" stroke:none;fill-rule:nonzero;fill:rgb(74.901961%,74.901961%,74.901961%);fill-opacity:1;" d="M 393.167969 122.128906 C 394.277344 120.941406 394.351562 120.175781 394.351562 119.242188 C 394.351562 118.394531 394.238281 117.460938 393.167969 116.355469 L 361.429688 82.8125 C 360.6875 82.046875 360.539062 81.878906 360.429688 81.878906 C 359.726562 81.878906 359.320312 83.238281 359.320312 84.339844 C 359.320312 85.953125 359.800781 86.464844 360.539062 87.3125 L 390.726562 119.242188 L 360.503906 151.257812 C 359.320312 152.445312 359.320312 153.378906 359.320312 154.230469 C 359.320312 155.332031 359.726562 156.605469 360.429688 156.605469 C 360.539062 156.605469 360.613281 156.523438 361.429688 155.671875 Z M 393.167969 122.128906 "/>
<path style=" stroke:none;fill-rule:nonzero;fill:rgb(74.901961%,74.901961%,74.901961%);fill-opacity:1;" d="M 469.519531 109.648438 C 470.410156 109.648438 471.261719 109.648438 471.261719 107.355469 C 471.261719 104.890625 470.261719 104.890625 469.261719 104.890625 L 436.488281 104.890625 C 435.488281 104.890625 434.492188 104.890625 434.492188 107.355469 C 434.492188 109.648438 435.378906 109.648438 436.265625 109.648438 Z M 469.261719 133.59375 C 470.261719 133.59375 471.261719 133.59375 471.261719 131.214844 C 471.261719 128.921875 470.410156 128.921875 469.519531 128.921875 L 436.265625 128.921875 C 435.378906 128.921875 434.492188 128.921875 434.492188 131.214844 C 434.492188 133.59375 435.488281 133.59375 436.488281 133.59375 Z M 469.261719 133.59375 "/>
<path style=" stroke:none;fill-rule:nonzero;fill:rgb(74.901961%,74.901961%,74.901961%);fill-opacity:1;" d="M 497.628906 37.804688 L 497.628906 43.410156 C 501.402344 43.410156 505.210938 42.644531 508.835938 39.929688 L 508.835938 144.125 L 508.6875 146.246094 L 507.839844 146.839844 L 498.035156 146.839844 L 498.035156 152.699219 L 527.515625 152.699219 L 527.515625 147.011719 L 518.492188 147.011719 C 517.566406 147.011719 516.789062 146.671875 516.789062 144.292969 L 516.789062 27.871094 C 516.789062 26.9375 516.789062 25.40625 516.199219 25.40625 C 514.941406 25.40625 513.425781 29.484375 512.054688 31.011719 C 507.652344 36.445312 502.585938 37.804688 497.628906 37.804688 Z M 497.628906 37.804688 "/>
<path style=" stroke:none;fill-rule:nonzero;fill:rgb(74.901961%,74.901961%,74.901961%);fill-opacity:1;" d="M 570.71875 7.320312 C 569.792969 8.085938 569.203125 13.773438 568.796875 16.660156 C 558.734375 74.660156 549.671875 133.253906 539.609375 191.082031 L 538.871094 195.925781 C 538.683594 196.6875 538.535156 197.707031 538.425781 198.640625 C 538.425781 199.832031 538.871094 201.019531 539.351562 201.019531 L 539.535156 201.019531 C 540.128906 200.765625 540.386719 199.660156 540.535156 198.472656 L 541.828125 190.914062 C 551.371094 132.320312 561.175781 74.066406 571.050781 15.726562 L 571.644531 11.992188 C 571.753906 11.226562 571.976562 10.460938 571.976562 9.441406 C 571.976562 8.085938 571.496094 7.320312 570.976562 7.320312 Z M 570.71875 7.320312 "/>
<path style=" stroke:none;fill-rule:nonzero;fill:rgb(74.901961%,74.901961%,74.901961%);fill-opacity:1;" d="M 601.8125 165.609375 C 603.660156 165.609375 603.699219 165.4375 604.289062 162.890625 L 636.398438 9.101562 C 636.804688 7.320312 636.804688 7.066406 636.804688 6.640625 C 636.804688 5.195312 636.324219 4.007812 635.621094 4.007812 C 634.84375 4.007812 634.621094 5.195312 634.328125 6.640625 L 604.066406 151.597656 L 591.566406 84.765625 L 583.390625 99.203125 L 584.277344 101.324219 L 588.457031 94.105469 Z M 601.8125 165.609375 "/>
<path style="fill:none;stroke-width:9.99;stroke-linecap:butt;stroke-linejoin:miter;stroke:rgb(74.901961%,74.901961%,74.901961%);stroke-opacity:1;stroke-miterlimit:10;" d="M 2684.9295 357.774063 L 2867.898 357.774063 " transform="matrix(0.236742,0,0,-0.543478,0.000000000000215316,201.086957)"/>
<path style=" stroke:none;fill-rule:nonzero;fill:rgb(74.901961%,74.901961%,74.901961%);fill-opacity:1;" d="M 642.550781 50.203125 C 644.511719 38.398438 649.171875 31.011719 654.3125 31.011719 C 661.414062 31.011719 666.074219 45.359375 666.074219 61.070312 L 666.074219 63.195312 C 665.558594 81.113281 660.304688 95.207031 655.3125 108.03125 C 651.09375 118.902344 646.804688 129.941406 642.550781 140.808594 L 640.957031 144.886719 C 640.292969 146.5 639.847656 147.601562 639.847656 149.726562 C 639.847656 150.746094 639.960938 151.679688 639.960938 152.699219 L 672.585938 152.699219 L 674.507812 115.25 L 672.328125 115.25 C 671.882812 122.808594 671.996094 133.421875 668.777344 133.421875 C 666.667969 134.015625 664.449219 134.269531 662.339844 134.269531 C 660.15625 134.269531 658.046875 134.015625 655.902344 134.015625 L 647.542969 134.015625 C 651.28125 126.117188 654.90625 117.542969 658.789062 109.984375 L 663.855469 100.046875 C 669.109375 89.773438 674.507812 78.5625 674.507812 60.902344 L 674.507812 58.949219 C 673.660156 37.210938 665.484375 25.40625 656.421875 25.40625 C 648.46875 25.40625 639.960938 37.972656 639.960938 58.949219 C 639.960938 65.742188 641.882812 69.394531 644.25 69.394531 C 646.359375 69.394531 648.578125 65.910156 648.578125 59.710938 C 648.578125 54.109375 646.804688 49.605469 644.324219 49.605469 C 643.734375 49.605469 643.140625 49.863281 642.550781 50.203125 Z M 642.550781 50.203125 "/>
<path style=" stroke:none;fill-rule:nonzero;fill:rgb(74.901961%,74.901961%,74.901961%);fill-opacity:1;" d="M 713.457031 56.742188 C 713.457031 54.277344 713.457031 51.898438 712.273438 51.898438 C 711.125 51.898438 711.125 54.277344 711.125 56.742188 L 711.125 181.65625 C 711.125 184.117188 711.125 186.496094 712.273438 186.496094 C 713.457031 186.496094 713.457031 184.117188 713.457031 181.65625 Z M 713.457031 56.742188 "/>
<path style=" stroke:none;fill-rule:nonzero;fill:rgb(74.901961%,74.901961%,74.901961%);fill-opacity:1;" d="M 722.617188 66.929688 L 722.617188 72.535156 L 724.578125 72.535156 C 726.6875 72.535156 728.644531 73.128906 728.644531 78.734375 L 728.644531 144.121094 C 728.644531 146.839844 727.871094 147.007812 727.203125 147.007812 L 722.617188 147.007812 L 722.617188 152.699219 L 743.664062 152.699219 L 743.664062 147.007812 L 737.855469 147.007812 C 737.007812 147.007812 736.230469 147.007812 736.230469 144.546875 L 736.230469 125.101562 C 736.230469 120.683594 736.15625 116.011719 736.15625 111.511719 C 736.15625 95.464844 737.265625 69.816406 745.625 69.816406 C 745.957031 69.816406 746.363281 69.988281 746.734375 69.988281 L 746.734375 70.242188 C 745.21875 71.601562 744.441406 75.082031 744.441406 78.5625 C 744.441406 83.574219 746.144531 87.652344 748.324219 87.652344 C 750.953125 87.652344 752.394531 83.234375 752.394531 78.5625 C 752.394531 70.242188 748.84375 65.316406 745.625 65.316406 C 739.964844 65.316406 736.488281 78.394531 735.96875 89.773438 L 735.894531 65.316406 L 727.128906 66.335938 Z M 722.617188 66.929688 "/>
<path style=" stroke:none;fill-rule:nonzero;fill:rgb(74.901961%,74.901961%,74.901961%);fill-opacity:1;" d="M 765.304688 107.4375 L 789.421875 107.4375 C 789.570312 107.4375 790.015625 107.691406 790.347656 107.691406 C 791.011719 107.691406 791.347656 107.097656 791.347656 105.738281 L 791.347656 104.71875 C 791.347656 94.613281 790.421875 83.828125 787.460938 75.675781 C 784.578125 67.695312 780.101562 64.808594 775.699219 64.808594 C 763.382812 64.808594 757.203125 85.953125 757.203125 109.050781 C 757.203125 120.855469 758.71875 132.65625 762.34375 141.402344 C 766.15625 150.320312 771.554688 153.800781 776.808594 153.800781 L 777.253906 153.800781 C 783.132812 153.632812 788.832031 145.308594 791.011719 132.316406 C 791.085938 131.722656 791.273438 130.960938 791.273438 130.195312 C 791.273438 129.429688 791.011719 128.835938 790.679688 128.835938 L 790.238281 128.835938 C 788.832031 128.835938 788.460938 133.847656 787.796875 136.5625 C 785.6875 144.292969 782.0625 149.214844 778.066406 149.214844 C 766.414062 149.214844 765.304688 124.929688 765.304688 107.4375 Z M 765.304688 103.785156 C 765.304688 88.667969 767.414062 69.222656 775.367188 69.222656 C 782.46875 69.222656 784.171875 89.007812 784.171875 103.785156 Z M 765.304688 103.785156 "/>
<path style=" stroke:none;fill-rule:nonzero;fill:rgb(74.901961%,74.901961%,74.901961%);fill-opacity:1;" d="M 819.980469 19.546875 L 819.980469 25.152344 L 821.9375 25.152344 C 824.121094 25.152344 826.007812 25.746094 826.007812 31.945312 L 826.007812 76.015625 C 823.125 69.394531 819.570312 65.316406 815.242188 65.316406 C 809.769531 65.316406 803.851562 70.414062 800.484375 80.6875 C 797.671875 89.007812 796.675781 99.878906 796.675781 109.984375 C 796.675781 130.535156 801.558594 153.800781 814.320312 153.800781 C 818.90625 153.800781 822.679688 149.386719 825.824219 142.167969 L 825.824219 153.800781 L 839.585938 153.800781 L 839.585938 147.007812 L 837.476562 147.007812 C 835.367188 147.007812 833.589844 146.5 833.589844 140.214844 L 833.589844 18.015625 L 824.566406 18.953125 Z M 804.777344 117.542969 L 804.777344 107.4375 C 804.777344 95.972656 805.109375 82.808594 809.4375 75.082031 C 811.359375 71.601562 813.839844 69.816406 816.207031 69.816406 C 819.71875 69.816406 822.789062 73.46875 825.15625 80.261719 C 825.417969 81.28125 825.75 82.046875 825.824219 83.234375 L 825.824219 132.488281 C 825.824219 133.847656 825.824219 135.035156 825.492188 136.140625 C 823.195312 144.121094 819.386719 149.386719 815.355469 149.386719 C 809.324219 149.386719 805.886719 138.515625 805.035156 124.929688 C 804.960938 122.382812 804.960938 120.089844 804.777344 117.542969 Z M 804.777344 117.542969 "/>
<path style=" stroke:none;fill-rule:nonzero;fill:rgb(74.901961%,74.901961%,74.901961%);fill-opacity:1;" d="M 896.882812 122.128906 C 897.992188 120.9375 898.066406 120.175781 898.066406 119.242188 C 898.066406 118.390625 897.953125 117.457031 896.882812 116.351562 L 865.144531 82.808594 C 864.402344 82.046875 864.253906 81.875 864.144531 81.875 C 863.441406 81.875 863.035156 83.234375 863.035156 84.339844 C 863.035156 85.953125 863.515625 86.460938 864.253906 87.3125 L 894.441406 119.242188 L 864.21875 151.253906 C 863.035156 152.445312 863.035156 153.378906 863.035156 154.226562 C 863.035156 155.332031 863.441406 156.605469 864.144531 156.605469 C 864.253906 156.605469 864.328125 156.519531 865.144531 155.671875 Z M 896.882812 122.128906 "/>
<path style=" stroke:none;fill-rule:nonzero;fill:rgb(74.901961%,74.901961%,74.901961%);fill-opacity:1;" d="M 954.367188 121.617188 L 969.902344 121.617188 C 970.714844 121.617188 971.714844 121.617188 971.714844 119.324219 C 971.714844 116.949219 970.789062 116.949219 969.902344 116.949219 L 954.367188 116.949219 L 954.367188 81.195312 C 954.367188 79.328125 954.367188 77.035156 953.367188 77.035156 C 952.292969 77.035156 952.292969 79.160156 952.292969 81.195312 L 952.292969 116.949219 L 936.757812 116.949219 C 935.945312 116.949219 934.945312 116.949219 934.945312 119.242188 C 934.945312 121.617188 935.871094 121.617188 936.757812 121.617188 L 952.292969 121.617188 L 952.292969 157.285156 C 952.292969 159.238281 952.292969 161.53125 953.292969 161.53125 C 954.367188 161.53125 954.367188 159.320312 954.367188 157.285156 Z M 954.367188 121.617188 "/>
<path style=" stroke:none;fill-rule:nonzero;fill:rgb(74.901961%,74.901961%,74.901961%);fill-opacity:1;" d="M 994.824219 37.804688 L 994.824219 43.40625 C 998.597656 43.40625 1002.40625 42.644531 1006.03125 39.925781 L 1006.03125 144.121094 L 1005.882812 146.246094 L 1005.035156 146.839844 L 995.230469 146.839844 L 995.230469 152.699219 L 1024.710938 152.699219 L 1024.710938 147.007812 L 1015.6875 147.007812 C 1014.761719 147.007812 1013.984375 146.667969 1013.984375 144.292969 L 1013.984375 27.867188 C 1013.984375 26.933594 1013.984375 25.40625 1013.394531 25.40625 C 1012.136719 25.40625 1010.621094 29.480469 1009.25 31.011719 C 1004.847656 36.445312 999.78125 37.804688 994.824219 37.804688 Z M 994.824219 37.804688 "/>
<path style=" stroke:none;fill-rule:nonzero;fill:rgb(74.901961%,74.901961%,74.901961%);fill-opacity:1;" d="M 1067.914062 7.316406 C 1066.988281 8.082031 1066.398438 13.773438 1065.992188 16.660156 C 1055.929688 74.65625 1046.867188 133.25 1036.804688 191.082031 L 1036.066406 195.921875 C 1035.878906 196.6875 1035.730469 197.703125 1035.621094 198.640625 C 1035.621094 199.828125 1036.066406 201.015625 1036.546875 201.015625 L 1036.730469 201.015625 C 1037.324219 200.761719 1037.582031 199.65625 1037.730469 198.46875 L 1039.023438 190.910156 C 1048.566406 132.316406 1058.371094 74.0625 1068.246094 15.726562 L 1068.839844 11.988281 C 1068.949219 11.222656 1069.171875 10.460938 1069.171875 9.441406 C 1069.171875 8.082031 1068.691406 7.316406 1068.171875 7.316406 Z M 1067.914062 7.316406 "/>
<path style=" stroke:none;fill-rule:nonzero;fill:rgb(74.901961%,74.901961%,74.901961%);fill-opacity:1;" d="M 1099.003906 165.609375 C 1100.855469 165.609375 1100.890625 165.4375 1101.484375 162.890625 L 1133.59375 9.101562 C 1134 7.320312 1134 7.066406 1134 6.640625 C 1134 5.195312 1133.519531 4.007812 1132.816406 4.007812 C 1132.039062 4.007812 1131.816406 5.195312 1131.519531 6.640625 L 1101.261719 151.597656 L 1088.757812 84.765625 L 1080.585938 99.203125 L 1081.472656 101.324219 L 1085.652344 94.105469 Z M 1099.003906 165.609375 "/>
<path style="fill:none;stroke-width:9.99;stroke-linecap:butt;stroke-linejoin:miter;stroke:rgb(74.901961%,74.901961%,74.901961%);stroke-opacity:1;stroke-miterlimit:10;" d="M 4785.0825 357.774063 L 4968.051 357.774063 " transform="matrix(0.236742,0,0,-0.543478,0.000000000000215316,201.086957)"/>
<path style=" stroke:none;fill-rule:nonzero;fill:rgb(74.901961%,74.901961%,74.901961%);fill-opacity:1;" d="M 1139.742188 50.203125 C 1141.703125 38.398438 1146.367188 31.011719 1151.507812 31.011719 C 1158.609375 31.011719 1163.269531 45.359375 1163.269531 61.070312 L 1163.269531 63.195312 C 1162.753906 81.113281 1157.5 95.207031 1152.507812 108.03125 C 1148.289062 118.902344 1143.996094 129.941406 1139.742188 140.808594 L 1138.152344 144.886719 C 1137.488281 146.5 1137.042969 147.601562 1137.042969 149.726562 C 1137.042969 150.746094 1137.15625 151.679688 1137.15625 152.699219 L 1169.78125 152.699219 L 1171.703125 115.25 L 1169.523438 115.25 C 1169.078125 122.808594 1169.1875 133.421875 1165.96875 133.421875 C 1163.863281 134.015625 1161.644531 134.269531 1159.535156 134.269531 C 1157.351562 134.269531 1155.242188 134.015625 1153.097656 134.015625 L 1144.738281 134.015625 C 1148.472656 126.117188 1152.097656 117.542969 1155.984375 109.984375 L 1161.050781 100.046875 C 1166.304688 89.773438 1171.703125 78.5625 1171.703125 60.902344 L 1171.703125 58.949219 C 1170.851562 37.210938 1162.679688 25.40625 1153.617188 25.40625 C 1145.664062 25.40625 1137.15625 37.972656 1137.15625 58.949219 C 1137.15625 65.742188 1139.078125 69.394531 1141.445312 69.394531 C 1143.554688 69.394531 1145.773438 65.910156 1145.773438 59.710938 C 1145.773438 54.109375 1143.996094 49.605469 1141.519531 49.605469 C 1140.929688 49.605469 1140.335938 49.863281 1139.742188 50.203125 Z M 1139.742188 50.203125 "/>
<path style=" stroke:none;fill-rule:nonzero;fill:rgb(74.901961%,74.901961%,74.901961%);fill-opacity:1;" d="M 1210.648438 56.742188 C 1210.648438 54.277344 1210.648438 51.898438 1209.464844 51.898438 C 1208.320312 51.898438 1208.320312 54.277344 1208.320312 56.742188 L 1208.320312 181.65625 C 1208.320312 184.117188 1208.320312 186.496094 1209.464844 186.496094 C 1210.648438 186.496094 1210.648438 184.117188 1210.648438 181.65625 Z M 1210.648438 56.742188 "/>
<path style=" stroke:none;fill-rule:nonzero;fill:rgb(74.901961%,74.901961%,74.901961%);fill-opacity:1;" d="M 1219.8125 19.546875 L 1219.8125 25.152344 L 1221.957031 25.152344 C 1223.953125 25.152344 1225.839844 25.746094 1225.839844 31.773438 L 1225.839844 152.699219 L 1228.023438 152.273438 L 1232.683594 140.214844 C 1235.050781 149.386719 1240.046875 153.800781 1244.410156 153.800781 C 1248.554688 153.800781 1252.957031 150.746094 1256.246094 144.714844 C 1260.90625 136.140625 1262.757812 122.636719 1262.757812 109.21875 C 1262.757812 88.667969 1257.691406 65.148438 1245.261719 65.148438 C 1240.859375 65.148438 1236.566406 69.648438 1233.425781 76.609375 L 1233.425781 18.015625 L 1224.398438 18.953125 Z M 1254.582031 117.371094 C 1254.582031 133.25 1251.03125 149.386719 1243.152344 149.386719 C 1239.34375 149.386719 1236.050781 144.546875 1234.015625 137.328125 C 1233.609375 135.96875 1233.609375 134.609375 1233.609375 133.082031 L 1233.609375 84 C 1234.125 77.035156 1239.933594 69.816406 1244.003906 69.816406 C 1246.1875 69.816406 1248.40625 71.347656 1250.253906 74.828125 C 1254.472656 82.46875 1254.65625 95.804688 1254.65625 107.097656 L 1254.65625 112.277344 C 1254.65625 114.058594 1254.65625 115.84375 1254.582031 117.371094 Z M 1254.582031 117.371094 "/>
<path style=" stroke:none;fill-rule:nonzero;fill:rgb(74.901961%,74.901961%,74.901961%);fill-opacity:1;" d="M 1268.277344 19.546875 L 1268.277344 25.152344 L 1270.386719 25.152344 C 1272.492188 25.152344 1274.269531 26 1274.269531 32.199219 L 1274.269531 144.714844 C 1274.269531 147.007812 1273.34375 146.667969 1272.640625 147.007812 L 1268.277344 147.007812 L 1268.277344 152.699219 L 1287.882812 152.699219 L 1287.882812 147.007812 L 1283.480469 147.007812 C 1282.8125 146.667969 1281.851562 147.261719 1281.851562 144.546875 L 1281.851562 18.015625 L 1272.828125 18.953125 Z M 1268.277344 19.546875 "/>
<path style=" stroke:none;fill-rule:nonzero;fill:rgb(74.901961%,74.901961%,74.901961%);fill-opacity:1;" d="M 1292.246094 66.929688 L 1292.246094 72.535156 L 1294.351562 72.535156 C 1296.054688 72.535156 1298.089844 72.960938 1298.273438 77.375 L 1298.273438 127.476562 C 1298.273438 133.25 1298.421875 138.855469 1299.789062 143.953125 C 1302.046875 152.273438 1307.300781 154.058594 1311.035156 154.058594 C 1315.734375 154.058594 1320.839844 148.199219 1322.355469 134.441406 L 1322.429688 153.800781 L 1336.042969 153.800781 L 1336.042969 147.007812 L 1334.082031 147.007812 C 1331.972656 147.007812 1330.050781 146.5 1330.050781 140.640625 L 1330.050781 65.316406 L 1316.25 66.929688 L 1316.25 72.535156 L 1318.027344 72.535156 C 1320.320312 72.535156 1322.246094 73.128906 1322.246094 78.902344 L 1322.246094 123.742188 C 1321.761719 135.628906 1318.953125 149.386719 1312.625 149.386719 C 1309.480469 149.386719 1306.523438 148.792969 1306.117188 137.15625 C 1306.042969 133.082031 1306.042969 129.175781 1306.042969 125.101562 L 1306.042969 65.316406 L 1296.90625 66.335938 Z M 1292.246094 66.929688 "/>
<path style=" stroke:none;fill-rule:nonzero;fill:rgb(74.901961%,74.901961%,74.901961%);fill-opacity:1;" d="M 1348.367188 107.4375 L 1372.484375 107.4375 C 1372.632812 107.4375 1373.078125 107.691406 1373.410156 107.691406 C 1374.074219 107.691406 1374.410156 107.097656 1374.410156 105.738281 L 1374.410156 104.71875 C 1374.410156 94.613281 1373.484375 83.828125 1370.523438 75.675781 C 1367.640625 67.695312 1363.164062 64.808594 1358.761719 64.808594 C 1346.441406 64.808594 1340.265625 85.953125 1340.265625 109.050781 C 1340.265625 120.855469 1341.78125 132.65625 1345.40625 141.402344 C 1349.21875 150.320312 1354.617188 153.800781 1359.871094 153.800781 L 1360.316406 153.800781 C 1366.195312 153.632812 1371.894531 145.308594 1374.074219 132.316406 C 1374.148438 131.722656 1374.335938 130.960938 1374.335938 130.195312 C 1374.335938 129.429688 1374.074219 128.835938 1373.742188 128.835938 L 1373.296875 128.835938 C 1371.894531 128.835938 1371.523438 133.847656 1370.855469 136.5625 C 1368.75 144.292969 1365.125 149.214844 1361.128906 149.214844 C 1349.476562 149.214844 1348.367188 124.929688 1348.367188 107.4375 Z M 1348.367188 103.785156 C 1348.367188 88.667969 1350.476562 69.222656 1358.429688 69.222656 C 1365.53125 69.222656 1367.230469 89.007812 1367.230469 103.785156 Z M 1348.367188 103.785156 "/>
<path style=" stroke:none;fill-rule:nonzero;fill:rgb(74.901961%,74.901961%,74.901961%);fill-opacity:1;" d="M 1431.832031 122.128906 C 1432.941406 120.9375 1433.015625 120.175781 1433.015625 119.242188 C 1433.015625 118.390625 1432.90625 117.457031 1431.832031 116.351562 L 1400.09375 82.808594 C 1399.355469 82.046875 1399.207031 81.875 1399.09375 81.875 C 1398.390625 81.875 1397.984375 83.234375 1397.984375 84.339844 C 1397.984375 85.953125 1398.464844 86.460938 1399.207031 87.3125 L 1429.390625 119.242188 L 1399.167969 151.253906 C 1397.984375 152.445312 1397.984375 153.378906 1397.984375 154.226562 C 1397.984375 155.332031 1398.390625 156.605469 1399.09375 156.605469 C 1399.207031 156.605469 1399.28125 156.519531 1400.09375 155.671875 Z M 1431.832031 122.128906 "/>
<path style=" stroke:none;fill-rule:nonzero;fill:rgb(74.901961%,74.901961%,74.901961%);fill-opacity:1;" d="M 1648.71875 56.742188 C 1648.71875 54.277344 1648.71875 51.898438 1647.535156 51.898438 C 1646.390625 51.898438 1646.390625 54.277344 1646.390625 56.742188 L 1646.390625 181.65625 C 1646.390625 184.117188 1646.390625 186.496094 1647.535156 186.496094 C 1648.71875 186.496094 1648.71875 184.117188 1648.71875 181.65625 Z M 1648.71875 56.742188 "/>
<path style=" stroke:none;fill-rule:nonzero;fill:rgb(74.901961%,74.901961%,74.901961%);fill-opacity:1;" d="M 1670.828125 64.808594 C 1664.835938 66.167969 1658.582031 71.347656 1658.582031 89.265625 C 1658.582031 106.503906 1665.832031 112.703125 1672.195312 115.25 C 1675.746094 116.777344 1682.144531 119.324219 1682.144531 132.914062 C 1682.144531 144.886719 1677.597656 149.386719 1673.007812 149.386719 C 1667.203125 149.386719 1662.207031 140.640625 1660.949219 122.808594 C 1660.691406 120.855469 1660.617188 120.429688 1659.582031 120.429688 C 1658.65625 120.429688 1658.582031 121.023438 1658.582031 122.382812 L 1658.582031 151.933594 C 1658.582031 152.699219 1658.65625 153.632812 1658.988281 153.632812 L 1659.175781 153.632812 C 1660.246094 153.632812 1662.207031 146.074219 1663.132812 145.480469 L 1663.207031 145.480469 C 1663.910156 145.480469 1665.832031 150.320312 1667.683594 151.933594 C 1669.382812 153.292969 1671.160156 153.800781 1672.933594 153.800781 C 1680.222656 153.800781 1686.882812 146.074219 1686.882812 127.054688 C 1686.882812 113.464844 1682.589844 102.765625 1676.820312 99.710938 C 1671.824219 96.820312 1663.316406 96.566406 1663.316406 82.808594 C 1663.316406 71.175781 1668.792969 69.054688 1672.195312 69.054688 C 1677.597656 69.054688 1681.296875 74.320312 1682.480469 90.199219 C 1682.480469 91.726562 1682.664062 92.914062 1683.515625 92.914062 C 1684.179688 92.914062 1684.699219 92.492188 1684.699219 90.960938 L 1684.699219 66.675781 C 1684.699219 65.742188 1684.585938 64.976562 1684.105469 64.976562 C 1682.996094 64.976562 1681.628906 70.242188 1680.816406 70.242188 C 1680.222656 70.242188 1678.707031 67.695312 1677.671875 66.675781 C 1675.894531 65.316406 1674.046875 64.554688 1672.195312 64.554688 C 1671.75 64.554688 1671.234375 64.808594 1670.828125 64.808594 Z M 1670.828125 64.808594 "/>
<path style=" stroke:none;fill-rule:nonzero;fill:rgb(74.901961%,74.901961%,74.901961%);fill-opacity:1;" d="M 1721.882812 141.0625 L 1721.882812 181.230469 L 1721.625 184.117188 L 1720.03125 184.710938 L 1715.890625 184.710938 L 1715.890625 190.316406 L 1735.644531 190.316406 L 1735.644531 184.710938 L 1731.277344 184.710938 C 1730.574219 184.289062 1729.652344 184.882812 1729.652344 182.164062 L 1729.652344 65.316406 L 1727.726562 65.742188 L 1722.992188 83.234375 C 1720.515625 73.128906 1716.742188 65.316406 1711.230469 65.316406 C 1701.425781 65.316406 1692.734375 80.6875 1692.734375 109.984375 C 1692.734375 132.316406 1698.542969 153.800781 1710.488281 153.800781 C 1715.113281 153.800781 1718.921875 148.960938 1721.882812 141.0625 Z M 1700.835938 113.636719 L 1700.835938 111.171875 C 1700.835938 95.632812 1702.871094 69.988281 1712.414062 69.988281 C 1717.664062 69.988281 1722.140625 82.808594 1722.140625 94.105469 C 1722.140625 96.398438 1722.066406 98.691406 1722.066406 101.066406 L 1722.066406 130.535156 C 1722.066406 132.65625 1721.699219 133.847656 1721.289062 135.628906 C 1719.257812 143.1875 1715.632812 149.386719 1711.746094 149.386719 C 1705.238281 149.386719 1702.09375 134.609375 1701.167969 121.789062 C 1701.019531 119.070312 1701.019531 116.351562 1700.835938 113.636719 Z M 1700.835938 113.636719 "/>
<path style=" stroke:none;fill-rule:nonzero;fill:rgb(74.901961%,74.901961%,74.901961%);fill-opacity:1;" d="M 1738.015625 66.929688 L 1738.015625 72.535156 L 1740.125 72.535156 C 1741.828125 72.535156 1743.863281 72.960938 1744.046875 77.375 L 1744.046875 127.476562 C 1744.046875 133.25 1744.195312 138.855469 1745.5625 143.953125 C 1747.820312 152.273438 1753.074219 154.058594 1756.808594 154.058594 C 1761.507812 154.058594 1766.613281 148.199219 1768.128906 134.441406 L 1768.203125 153.800781 L 1781.816406 153.800781 L 1781.816406 147.007812 L 1779.855469 147.007812 C 1777.746094 147.007812 1775.820312 146.5 1775.820312 140.640625 L 1775.820312 65.316406 L 1762.023438 66.929688 L 1762.023438 72.535156 L 1763.800781 72.535156 C 1766.09375 72.535156 1768.015625 73.128906 1768.015625 78.902344 L 1768.015625 123.742188 C 1767.535156 135.628906 1764.726562 149.386719 1758.398438 149.386719 C 1755.253906 149.386719 1752.296875 148.792969 1751.890625 137.15625 C 1751.816406 133.082031 1751.816406 129.175781 1751.816406 125.101562 L 1751.816406 65.316406 L 1742.679688 66.335938 Z M 1738.015625 66.929688 "/>
<path style=" stroke:none;fill-rule:nonzero;fill:rgb(74.901961%,74.901961%,74.901961%);fill-opacity:1;" d="M 1793.214844 78.902344 C 1795.582031 72.960938 1798.800781 69.222656 1802.425781 69.222656 C 1808.269531 69.222656 1811.042969 80.6875 1811.042969 95.464844 C 1811.042969 98.519531 1810.96875 101.40625 1810.96875 104.378906 C 1801.5 104.378906 1786.816406 109.984375 1786.816406 134.441406 C 1786.816406 148.792969 1794.472656 153.800781 1799.984375 153.800781 C 1804.460938 153.800781 1810.304688 147.601562 1811.378906 135.375 L 1811.488281 135.375 C 1811.488281 146.667969 1815.039062 153.292969 1819.257812 153.292969 C 1822.882812 153.292969 1825.839844 147.261719 1826.359375 139.109375 L 1826.359375 124.929688 L 1824.175781 124.929688 L 1824.175781 134.609375 C 1824.175781 139.28125 1823.804688 146.074219 1821.363281 146.074219 C 1818.921875 146.074219 1818.738281 138.347656 1818.738281 134.441406 L 1818.738281 91.386719 C 1818 71.601562 1809.859375 64.808594 1803.128906 64.808594 C 1797.691406 64.808594 1789.773438 71.347656 1789.773438 87.480469 C 1789.773438 93.339844 1791.367188 97.160156 1793.808594 97.160156 C 1796.101562 97.160156 1797.800781 93.085938 1797.800781 87.90625 C 1797.800781 82.808594 1796.101562 78.734375 1793.878906 78.734375 C 1793.660156 78.734375 1793.472656 78.902344 1793.214844 78.902344 Z M 1810.96875 107.4375 L 1810.96875 125.355469 C 1810.96875 137.328125 1807.679688 148.960938 1802.019531 149.386719 L 1801.6875 149.386719 C 1798.023438 149.386719 1794.582031 142.933594 1794.582031 134.269531 L 1794.582031 133.847656 C 1794.582031 114.996094 1803.535156 108.457031 1810.96875 107.4375 Z M 1810.96875 107.4375 "/>
<path style=" stroke:none;fill-rule:nonzero;fill:rgb(74.901961%,74.901961%,74.901961%);fill-opacity:1;" d="M 1829.128906 66.929688 L 1829.128906 72.535156 L 1831.089844 72.535156 C 1833.199219 72.535156 1835.160156 73.128906 1835.160156 78.734375 L 1835.160156 144.121094 C 1835.160156 146.839844 1834.382812 147.007812 1833.714844 147.007812 L 1829.128906 147.007812 L 1829.128906 152.699219 L 1850.175781 152.699219 L 1850.175781 147.007812 L 1844.371094 147.007812 C 1843.519531 147.007812 1842.742188 147.007812 1842.742188 144.546875 L 1842.742188 125.101562 C 1842.742188 120.683594 1842.667969 116.011719 1842.667969 111.511719 C 1842.667969 95.464844 1843.777344 69.816406 1852.136719 69.816406 C 1852.46875 69.816406 1852.878906 69.988281 1853.246094 69.988281 L 1853.246094 70.242188 C 1851.730469 71.601562 1850.953125 75.082031 1850.953125 78.5625 C 1850.953125 83.574219 1852.65625 87.652344 1854.835938 87.652344 C 1857.464844 87.652344 1858.90625 83.234375 1858.90625 78.5625 C 1858.90625 70.242188 1855.355469 65.316406 1852.136719 65.316406 C 1846.476562 65.316406 1843 78.394531 1842.484375 89.773438 L 1842.410156 65.316406 L 1833.640625 66.335938 Z M 1829.128906 66.929688 "/>
<path style=" stroke:none;fill-rule:nonzero;fill:rgb(74.901961%,74.901961%,74.901961%);fill-opacity:1;" d="M 1871.816406 107.4375 L 1895.933594 107.4375 C 1896.082031 107.4375 1896.527344 107.691406 1896.859375 107.691406 C 1897.527344 107.691406 1897.859375 107.097656 1897.859375 105.738281 L 1897.859375 104.71875 C 1897.859375 94.613281 1896.933594 83.828125 1893.976562 75.675781 C 1891.089844 67.695312 1886.613281 64.808594 1882.210938 64.808594 C 1869.894531 64.808594 1863.714844 85.953125 1863.714844 109.050781 C 1863.714844 120.855469 1865.234375 132.65625 1868.859375 141.402344 C 1872.667969 150.320312 1878.070312 153.800781 1883.320312 153.800781 L 1883.765625 153.800781 C 1889.648438 153.632812 1895.34375 145.308594 1897.527344 132.316406 C 1897.601562 131.722656 1897.785156 130.960938 1897.785156 130.195312 C 1897.785156 129.429688 1897.527344 128.835938 1897.191406 128.835938 L 1896.75 128.835938 C 1895.34375 128.835938 1894.972656 133.847656 1894.308594 136.5625 C 1892.199219 144.292969 1888.574219 149.214844 1884.578125 149.214844 C 1872.925781 149.214844 1871.816406 124.929688 1871.816406 107.4375 Z M 1871.816406 103.785156 C 1871.816406 88.667969 1873.925781 69.222656 1881.878906 69.222656 C 1888.980469 69.222656 1890.683594 89.007812 1890.683594 103.785156 Z M 1871.816406 103.785156 "/>
<path style=" stroke:none;fill-rule:nonzero;fill:rgb(74.901961%,74.901961%,74.901961%);fill-opacity:1;" d="M 1955.320312 122.128906 C 1956.429688 120.9375 1956.503906 120.175781 1956.503906 119.242188 C 1956.503906 118.390625 1956.390625 117.457031 1955.320312 116.351562 L 1923.582031 82.808594 C 1922.839844 82.046875 1922.691406 81.875 1922.582031 81.875 C 1921.878906 81.875 1921.472656 83.234375 1921.472656 84.339844 C 1921.472656 85.953125 1921.953125 86.460938 1922.691406 87.3125 L 1952.878906 119.242188 L 1922.65625 151.253906 C 1921.472656 152.445312 1921.472656 153.378906 1921.472656 154.226562 C 1921.472656 155.332031 1921.878906 156.605469 1922.582031 156.605469 C 1922.691406 156.605469 1922.765625 156.519531 1923.582031 155.671875 Z M 1955.320312 122.128906 "/>
<path style=" stroke:none;fill-rule:nonzero;fill:rgb(74.901961%,74.901961%,74.901961%);fill-opacity:1;" d="M 2031.695312 109.644531 C 2032.582031 109.644531 2033.433594 109.644531 2033.433594 107.351562 C 2033.433594 104.890625 2032.433594 104.890625 2031.4375 104.890625 L 1998.664062 104.890625 C 1997.664062 104.890625 1996.664062 104.890625 1996.664062 107.351562 C 1996.664062 109.644531 1997.554688 109.644531 1998.441406 109.644531 Z M 2031.4375 133.589844 C 2032.433594 133.589844 2033.433594 133.589844 2033.433594 131.214844 C 2033.433594 128.921875 2032.582031 128.921875 2031.695312 128.921875 L 1998.441406 128.921875 C 1997.554688 128.921875 1996.664062 128.921875 1996.664062 131.214844 C 1996.664062 133.589844 1997.664062 133.589844 1998.664062 133.589844 Z M 2031.4375 133.589844 "/>
<path style=" stroke:none;fill-rule:nonzero;fill:rgb(74.901961%,74.901961%,74.901961%);fill-opacity:1;" d="M 2059.78125 37.804688 L 2059.78125 43.40625 C 2063.554688 43.40625 2067.363281 42.644531 2070.988281 39.925781 L 2070.988281 144.121094 L 2070.84375 146.246094 L 2069.992188 146.839844 L 2060.1875 146.839844 L 2060.1875 152.699219 L 2089.671875 152.699219 L 2089.671875 147.007812 L 2080.644531 147.007812 C 2079.71875 147.007812 2078.941406 146.667969 2078.941406 144.292969 L 2078.941406 27.867188 C 2078.941406 26.933594 2078.941406 25.40625 2078.351562 25.40625 C 2077.09375 25.40625 2075.578125 29.480469 2074.207031 31.011719 C 2069.804688 36.445312 2064.738281 37.804688 2059.78125 37.804688 Z M 2059.78125 37.804688 "/>
<path style=" stroke:none;fill-rule:nonzero;fill:rgb(74.901961%,74.901961%,74.901961%);fill-opacity:1;" d="M 2132.871094 7.316406 C 2131.945312 8.082031 2131.355469 13.773438 2130.949219 16.660156 C 2120.886719 74.65625 2111.824219 133.25 2101.761719 191.082031 L 2101.023438 195.921875 C 2100.835938 196.6875 2100.691406 197.703125 2100.578125 198.640625 C 2100.578125 199.828125 2101.023438 201.015625 2101.503906 201.015625 L 2101.6875 201.015625 C 2102.28125 200.761719 2102.539062 199.65625 2102.6875 198.46875 L 2103.980469 190.910156 C 2113.523438 132.316406 2123.328125 74.0625 2133.203125 15.726562 L 2133.796875 11.988281 C 2133.90625 11.222656 2134.128906 10.460938 2134.128906 9.441406 C 2134.128906 8.082031 2133.648438 7.316406 2133.128906 7.316406 Z M 2132.871094 7.316406 "/>
<path style=" stroke:none;fill-rule:nonzero;fill:rgb(74.901961%,74.901961%,74.901961%);fill-opacity:1;" d="M 2163.984375 165.609375 C 2165.835938 165.609375 2165.871094 165.4375 2166.464844 162.890625 L 2198.570312 9.101562 C 2198.980469 7.320312 2198.980469 7.066406 2198.980469 6.640625 C 2198.980469 5.195312 2198.5 4.007812 2197.796875 4.007812 C 2197.019531 4.007812 2196.796875 5.195312 2196.5 6.640625 L 2166.242188 151.597656 L 2153.738281 84.765625 L 2145.5625 99.203125 L 2146.453125 101.324219 L 2150.632812 94.105469 Z M 2163.984375 165.609375 "/>
<path style="fill:none;stroke-width:9.99;stroke-linecap:butt;stroke-linejoin:miter;stroke:rgb(74.901961%,74.901961%,74.901961%);stroke-opacity:1;stroke-miterlimit:10;" d="M 9283.5105 357.774063 L 9466.479 357.774063 " transform="matrix(0.236742,0,0,-0.543478,0.000000000000215316,201.086957)"/>
<path style=" stroke:none;fill-rule:nonzero;fill:rgb(74.901961%,74.901961%,74.901961%);fill-opacity:1;" d="M 2204.722656 50.203125 C 2206.683594 38.398438 2211.34375 31.011719 2216.484375 31.011719 C 2223.589844 31.011719 2228.25 45.359375 2228.25 61.070312 L 2228.25 63.195312 C 2227.730469 81.113281 2222.476562 95.207031 2217.484375 108.03125 C 2213.269531 118.902344 2208.976562 129.941406 2204.722656 140.808594 L 2203.132812 144.886719 C 2202.464844 146.5 2202.023438 147.601562 2202.023438 149.726562 C 2202.023438 150.746094 2202.132812 151.679688 2202.132812 152.699219 L 2234.757812 152.699219 L 2236.683594 115.25 L 2234.5 115.25 C 2234.054688 122.808594 2234.167969 133.421875 2230.949219 133.421875 C 2228.839844 134.015625 2226.621094 134.269531 2224.511719 134.269531 C 2222.332031 134.269531 2220.222656 134.015625 2218.078125 134.015625 L 2209.714844 134.015625 C 2213.453125 126.117188 2217.078125 117.542969 2220.960938 109.984375 L 2226.03125 100.046875 C 2231.28125 89.773438 2236.683594 78.5625 2236.683594 60.902344 L 2236.683594 58.949219 C 2235.832031 37.210938 2227.65625 25.40625 2218.59375 25.40625 C 2210.640625 25.40625 2202.132812 37.972656 2202.132812 58.949219 C 2202.132812 65.742188 2204.058594 69.394531 2206.425781 69.394531 C 2208.53125 69.394531 2210.753906 65.910156 2210.753906 59.710938 C 2210.753906 54.109375 2208.976562 49.605469 2206.5 49.605469 C 2205.90625 49.605469 2205.316406 49.863281 2204.722656 50.203125 Z M 2204.722656 50.203125 "/>
<path style=" stroke:none;fill-rule:nonzero;fill:rgb(74.901961%,74.901961%,74.901961%);fill-opacity:1;" d="M 2275.628906 56.742188 C 2275.628906 54.277344 2275.628906 51.898438 2274.445312 51.898438 C 2273.296875 51.898438 2273.296875 54.277344 2273.296875 56.742188 L 2273.296875 181.65625 C 2273.296875 184.117188 2273.296875 186.496094 2274.445312 186.496094 C 2275.628906 186.496094 2275.628906 184.117188 2275.628906 181.65625 Z M 2275.628906 56.742188 "/>
<path style=" stroke:none;fill-rule:nonzero;fill:rgb(74.901961%,74.901961%,74.901961%);fill-opacity:1;" d="M 2284.789062 66.929688 L 2284.789062 72.535156 L 2286.75 72.535156 C 2288.859375 72.535156 2290.820312 73.128906 2290.820312 78.734375 L 2290.820312 144.121094 C 2290.820312 146.839844 2290.042969 147.007812 2289.375 147.007812 L 2284.789062 147.007812 L 2284.789062 152.699219 L 2305.835938 152.699219 L 2305.835938 147.007812 L 2300.03125 147.007812 C 2299.179688 147.007812 2298.402344 147.007812 2298.402344 144.546875 L 2298.402344 125.101562 C 2298.402344 120.683594 2298.328125 116.011719 2298.328125 111.511719 C 2298.328125 95.464844 2299.4375 69.816406 2307.796875 69.816406 C 2308.132812 69.816406 2308.539062 69.988281 2308.90625 69.988281 L 2308.90625 70.242188 C 2307.390625 71.601562 2306.613281 75.082031 2306.613281 78.5625 C 2306.613281 83.574219 2308.316406 87.652344 2310.5 87.652344 C 2313.125 87.652344 2314.566406 83.234375 2314.566406 78.5625 C 2314.566406 70.242188 2311.015625 65.316406 2307.796875 65.316406 C 2302.136719 65.316406 2298.660156 78.394531 2298.144531 89.773438 L 2298.070312 65.316406 L 2289.304688 66.335938 Z M 2284.789062 66.929688 "/>
<path style=" stroke:none;fill-rule:nonzero;fill:rgb(74.901961%,74.901961%,74.901961%);fill-opacity:1;" d="M 2327.476562 107.4375 L 2351.597656 107.4375 C 2351.742188 107.4375 2352.1875 107.691406 2352.519531 107.691406 C 2353.1875 107.691406 2353.519531 107.097656 2353.519531 105.738281 L 2353.519531 104.71875 C 2353.519531 94.613281 2352.59375 83.828125 2349.636719 75.675781 C 2346.75 67.695312 2342.273438 64.808594 2337.871094 64.808594 C 2325.554688 64.808594 2319.378906 85.953125 2319.378906 109.050781 C 2319.378906 120.855469 2320.894531 132.65625 2324.519531 141.402344 C 2328.328125 150.320312 2333.730469 153.800781 2338.980469 153.800781 L 2339.425781 153.800781 C 2345.308594 153.632812 2351.003906 145.308594 2353.1875 132.316406 C 2353.261719 131.722656 2353.445312 130.960938 2353.445312 130.195312 C 2353.445312 129.429688 2353.1875 128.835938 2352.855469 128.835938 L 2352.410156 128.835938 C 2351.003906 128.835938 2350.632812 133.847656 2349.96875 136.5625 C 2347.859375 144.292969 2344.234375 149.214844 2340.238281 149.214844 C 2328.585938 149.214844 2327.476562 124.929688 2327.476562 107.4375 Z M 2327.476562 103.785156 C 2327.476562 88.667969 2329.585938 69.222656 2337.539062 69.222656 C 2344.640625 69.222656 2346.34375 89.007812 2346.34375 103.785156 Z M 2327.476562 103.785156 "/>
<path style=" stroke:none;fill-rule:nonzero;fill:rgb(74.901961%,74.901961%,74.901961%);fill-opacity:1;" d="M 2382.152344 19.546875 L 2382.152344 25.152344 L 2384.113281 25.152344 C 2386.296875 25.152344 2388.179688 25.746094 2388.179688 31.945312 L 2388.179688 76.015625 C 2385.296875 69.394531 2381.746094 65.316406 2377.417969 65.316406 C 2371.941406 65.316406 2366.023438 70.414062 2362.65625 80.6875 C 2359.847656 89.007812 2358.847656 99.878906 2358.847656 109.984375 C 2358.847656 130.535156 2363.730469 153.800781 2376.492188 153.800781 C 2381.078125 153.800781 2384.851562 149.386719 2387.996094 142.167969 L 2387.996094 153.800781 L 2401.757812 153.800781 L 2401.757812 147.007812 L 2399.648438 147.007812 C 2397.539062 147.007812 2395.765625 146.5 2395.765625 140.214844 L 2395.765625 18.015625 L 2386.738281 18.953125 Z M 2366.949219 117.542969 L 2366.949219 107.4375 C 2366.949219 95.972656 2367.28125 82.808594 2371.609375 75.082031 C 2373.53125 71.601562 2376.011719 69.816406 2378.378906 69.816406 C 2381.894531 69.816406 2384.964844 73.46875 2387.332031 80.261719 C 2387.589844 81.28125 2387.921875 82.046875 2387.996094 83.234375 L 2387.996094 132.488281 C 2387.996094 133.847656 2387.996094 135.035156 2387.664062 136.140625 C 2385.371094 144.121094 2381.558594 149.386719 2377.527344 149.386719 C 2371.5 149.386719 2368.058594 138.515625 2367.207031 124.929688 C 2367.132812 122.382812 2367.132812 120.089844 2366.949219 117.542969 Z M 2366.949219 117.542969 "/>
<path style=" stroke:none;fill-rule:nonzero;fill:rgb(74.901961%,74.901961%,74.901961%);fill-opacity:1;" d="M 2459.03125 122.128906 C 2460.144531 120.9375 2460.21875 120.175781 2460.21875 119.242188 C 2460.21875 118.390625 2460.105469 117.457031 2459.03125 116.351562 L 2427.292969 82.808594 C 2426.554688 82.046875 2426.40625 81.875 2426.296875 81.875 C 2425.59375 81.875 2425.1875 83.234375 2425.1875 84.339844 C 2425.1875 85.953125 2425.667969 86.460938 2426.40625 87.3125 L 2456.589844 119.242188 L 2426.371094 151.253906 C 2425.1875 152.445312 2425.1875 153.378906 2425.1875 154.226562 C 2425.1875 155.332031 2425.59375 156.605469 2426.296875 156.605469 C 2426.40625 156.605469 2426.480469 156.519531 2427.292969 155.671875 Z M 2459.03125 122.128906 "/>
<path style=" stroke:none;fill-rule:nonzero;fill:rgb(74.901961%,74.901961%,74.901961%);fill-opacity:1;" d="M 2533.074219 121.871094 C 2534.074219 121.871094 2535.144531 121.871094 2535.144531 119.242188 C 2535.144531 116.523438 2534.074219 116.523438 2533.074219 116.523438 L 2501.335938 116.523438 C 2500.335938 116.523438 2499.300781 116.523438 2499.300781 119.242188 C 2499.300781 121.871094 2500.335938 121.871094 2501.335938 121.871094 Z M 2533.074219 121.871094 "/>
<path style=" stroke:none;fill-rule:nonzero;fill:rgb(74.901961%,74.901961%,74.901961%);fill-opacity:1;" d="M 2560.382812 37.804688 L 2560.382812 43.40625 C 2564.15625 43.40625 2567.96875 42.644531 2571.59375 39.925781 L 2571.59375 144.121094 L 2571.445312 146.246094 L 2570.59375 146.839844 L 2560.792969 146.839844 L 2560.792969 152.699219 L 2590.273438 152.699219 L 2590.273438 147.007812 L 2581.246094 147.007812 C 2580.324219 147.007812 2579.546875 146.667969 2579.546875 144.292969 L 2579.546875 27.867188 C 2579.546875 26.933594 2579.546875 25.40625 2578.953125 25.40625 C 2577.695312 25.40625 2576.179688 29.480469 2574.8125 31.011719 C 2570.410156 36.445312 2565.339844 37.804688 2560.382812 37.804688 Z M 2560.382812 37.804688 "/>
<path style=" stroke:none;fill-rule:nonzero;fill:rgb(74.901961%,74.901961%,74.901961%);fill-opacity:1;" d="M 2633.472656 7.316406 C 2632.550781 8.082031 2631.957031 13.773438 2631.550781 16.660156 C 2621.488281 74.65625 2612.425781 133.25 2602.363281 191.082031 L 2601.625 195.921875 C 2601.441406 196.6875 2601.292969 197.703125 2601.179688 198.640625 C 2601.179688 199.828125 2601.625 201.015625 2602.105469 201.015625 L 2602.292969 201.015625 C 2602.882812 200.761719 2603.140625 199.65625 2603.289062 198.46875 L 2604.585938 190.910156 C 2614.128906 132.316406 2623.929688 74.0625 2633.808594 15.726562 L 2634.398438 11.988281 C 2634.511719 11.222656 2634.730469 10.460938 2634.730469 9.441406 C 2634.730469 8.082031 2634.25 7.316406 2633.734375 7.316406 Z M 2633.472656 7.316406 "/>
<path style=" stroke:none;fill-rule:nonzero;fill:rgb(74.901961%,74.901961%,74.901961%);fill-opacity:1;" d="M 2664.566406 165.609375 C 2666.414062 165.609375 2666.453125 165.4375 2667.042969 162.890625 L 2699.152344 9.101562 C 2699.558594 7.320312 2699.558594 7.066406 2699.558594 6.640625 C 2699.558594 5.195312 2699.078125 4.007812 2698.375 4.007812 C 2697.597656 4.007812 2697.378906 5.195312 2697.082031 6.640625 L 2666.824219 151.597656 L 2654.320312 84.765625 L 2646.144531 99.203125 L 2647.03125 101.324219 L 2651.210938 94.105469 Z M 2664.566406 165.609375 "/>
<path style="fill:none;stroke-width:9.99;stroke-linecap:butt;stroke-linejoin:miter;stroke:rgb(74.901961%,74.901961%,74.901961%);stroke-opacity:1;stroke-miterlimit:10;" d="M 11398.002 357.774063 L 11581.02 357.774063 " transform="matrix(0.236742,0,0,-0.543478,0.000000000000215316,201.086957)"/>
<path style=" stroke:none;fill-rule:nonzero;fill:rgb(74.901961%,74.901961%,74.901961%);fill-opacity:1;" d="M 2705.308594 50.203125 C 2707.269531 38.398438 2711.929688 31.011719 2717.070312 31.011719 C 2724.171875 31.011719 2728.832031 45.359375 2728.832031 61.070312 L 2728.832031 63.195312 C 2728.316406 81.113281 2723.0625 95.207031 2718.070312 108.03125 C 2713.851562 118.902344 2709.5625 129.941406 2705.308594 140.808594 L 2703.71875 144.886719 C 2703.050781 146.5 2702.605469 147.601562 2702.605469 149.726562 C 2702.605469 150.746094 2702.71875 151.679688 2702.71875 152.699219 L 2735.34375 152.699219 L 2737.269531 115.25 L 2735.085938 115.25 C 2734.640625 122.808594 2734.753906 133.421875 2731.535156 133.421875 C 2729.425781 134.015625 2727.207031 134.269531 2725.097656 134.269531 C 2722.914062 134.269531 2720.808594 134.015625 2718.660156 134.015625 L 2710.300781 134.015625 C 2714.039062 126.117188 2717.664062 117.542969 2721.546875 109.984375 L 2726.613281 100.046875 C 2731.867188 89.773438 2737.269531 78.5625 2737.269531 60.902344 L 2737.269531 58.949219 C 2736.417969 37.210938 2728.242188 25.40625 2719.179688 25.40625 C 2711.226562 25.40625 2702.71875 37.972656 2702.71875 58.949219 C 2702.71875 65.742188 2704.640625 69.394531 2707.007812 69.394531 C 2709.117188 69.394531 2711.335938 65.910156 2711.335938 59.710938 C 2711.335938 54.109375 2709.5625 49.605469 2707.082031 49.605469 C 2706.492188 49.605469 2705.898438 49.863281 2705.308594 50.203125 Z M 2705.308594 50.203125 "/>
<path style=" stroke:none;fill-rule:nonzero;fill:rgb(74.901961%,74.901961%,74.901961%);fill-opacity:1;" d="M 2776.214844 56.742188 C 2776.214844 54.277344 2776.214844 51.898438 2775.03125 51.898438 C 2773.882812 51.898438 2773.882812 54.277344 2773.882812 56.742188 L 2773.882812 181.65625 C 2773.882812 184.117188 2773.882812 186.496094 2775.03125 186.496094 C 2776.214844 186.496094 2776.214844 184.117188 2776.214844 181.65625 Z M 2776.214844 56.742188 "/>
<path style=" stroke:none;fill-rule:nonzero;fill:rgb(74.901961%,74.901961%,74.901961%);fill-opacity:1;" d="M 2785.375 19.546875 L 2785.375 25.152344 L 2787.519531 25.152344 C 2789.519531 25.152344 2791.402344 25.746094 2791.402344 31.773438 L 2791.402344 152.699219 L 2793.585938 152.273438 L 2798.246094 140.214844 C 2800.613281 149.386719 2805.609375 153.800781 2809.972656 153.800781 C 2814.117188 153.800781 2818.519531 150.746094 2821.8125 144.714844 C 2826.472656 136.140625 2828.320312 122.636719 2828.320312 109.21875 C 2828.320312 88.667969 2823.253906 65.148438 2810.824219 65.148438 C 2806.421875 65.148438 2802.132812 69.648438 2798.988281 76.609375 L 2798.988281 18.015625 L 2789.960938 18.953125 Z M 2820.144531 117.371094 C 2820.144531 133.25 2816.59375 149.386719 2808.714844 149.386719 C 2804.90625 149.386719 2801.613281 144.546875 2799.578125 137.328125 C 2799.171875 135.96875 2799.171875 134.609375 2799.171875 133.082031 L 2799.171875 84 C 2799.691406 77.035156 2805.496094 69.816406 2809.566406 69.816406 C 2811.75 69.816406 2813.96875 71.347656 2815.816406 74.828125 C 2820.035156 82.46875 2820.21875 95.804688 2820.21875 107.097656 L 2820.21875 112.277344 C 2820.21875 114.058594 2820.21875 115.84375 2820.144531 117.371094 Z M 2820.144531 117.371094 "/>
<path style=" stroke:none;fill-rule:nonzero;fill:rgb(74.901961%,74.901961%,74.901961%);fill-opacity:1;" d="M 2833.839844 19.546875 L 2833.839844 25.152344 L 2835.949219 25.152344 C 2838.054688 25.152344 2839.832031 26 2839.832031 32.199219 L 2839.832031 144.714844 C 2839.832031 147.007812 2838.90625 146.667969 2838.203125 147.007812 L 2833.839844 147.007812 L 2833.839844 152.699219 L 2853.445312 152.699219 L 2853.445312 147.007812 L 2849.042969 147.007812 C 2848.378906 146.667969 2847.414062 147.261719 2847.414062 144.546875 L 2847.414062 18.015625 L 2838.390625 18.953125 Z M 2833.839844 19.546875 "/>
<path style=" stroke:none;fill-rule:nonzero;fill:rgb(74.901961%,74.901961%,74.901961%);fill-opacity:1;" d="M 2857.808594 66.929688 L 2857.808594 72.535156 L 2859.917969 72.535156 C 2861.617188 72.535156 2863.652344 72.960938 2863.835938 77.375 L 2863.835938 127.476562 C 2863.835938 133.25 2863.984375 138.855469 2865.355469 143.953125 C 2867.609375 152.273438 2872.863281 154.058594 2876.597656 154.058594 C 2881.296875 154.058594 2886.402344 148.199219 2887.917969 134.441406 L 2887.992188 153.800781 L 2901.605469 153.800781 L 2901.605469 147.007812 L 2899.644531 147.007812 C 2897.535156 147.007812 2895.613281 146.5 2895.613281 140.640625 L 2895.613281 65.316406 L 2881.816406 66.929688 L 2881.816406 72.535156 L 2883.589844 72.535156 C 2885.882812 72.535156 2887.808594 73.128906 2887.808594 78.902344 L 2887.808594 123.742188 C 2887.328125 135.628906 2884.515625 149.386719 2878.191406 149.386719 C 2875.046875 149.386719 2872.085938 148.792969 2871.679688 137.15625 C 2871.605469 133.082031 2871.605469 129.175781 2871.605469 125.101562 L 2871.605469 65.316406 L 2862.46875 66.335938 Z M 2857.808594 66.929688 "/>
<path style=" stroke:none;fill-rule:nonzero;fill:rgb(74.901961%,74.901961%,74.901961%);fill-opacity:1;" d="M 2913.929688 107.4375 L 2938.046875 107.4375 C 2938.195312 107.4375 2938.640625 107.691406 2938.972656 107.691406 C 2939.640625 107.691406 2939.972656 107.097656 2939.972656 105.738281 L 2939.972656 104.71875 C 2939.972656 94.613281 2939.046875 83.828125 2936.085938 75.675781 C 2933.203125 67.695312 2928.726562 64.808594 2924.324219 64.808594 C 2912.007812 64.808594 2905.828125 85.953125 2905.828125 109.050781 C 2905.828125 120.855469 2907.347656 132.65625 2910.972656 141.402344 C 2914.78125 150.320312 2920.179688 153.800781 2925.433594 153.800781 L 2925.878906 153.800781 C 2931.761719 153.632812 2937.457031 145.308594 2939.640625 132.316406 C 2939.710938 131.722656 2939.898438 130.960938 2939.898438 130.195312 C 2939.898438 129.429688 2939.640625 128.835938 2939.304688 128.835938 L 2938.863281 128.835938 C 2937.457031 128.835938 2937.085938 133.847656 2936.421875 136.5625 C 2934.3125 144.292969 2930.6875 149.214844 2926.691406 149.214844 C 2915.039062 149.214844 2913.929688 124.929688 2913.929688 107.4375 Z M 2913.929688 103.785156 C 2913.929688 88.667969 2916.039062 69.222656 2923.992188 69.222656 C 2931.09375 69.222656 2932.796875 89.007812 2932.796875 103.785156 Z M 2913.929688 103.785156 "/>
<path style=" stroke:none;fill-rule:nonzero;fill:rgb(74.901961%,74.901961%,74.901961%);fill-opacity:1;" d="M 2997.394531 122.128906 C 2998.503906 120.9375 2998.578125 120.175781 2998.578125 119.242188 C 2998.578125 118.390625 2998.46875 117.457031 2997.394531 116.351562 L 2965.65625 82.808594 C 2964.917969 82.046875 2964.769531 81.875 2964.65625 81.875 C 2963.957031 81.875 2963.546875 83.234375 2963.546875 84.339844 C 2963.546875 85.953125 2964.027344 86.460938 2964.769531 87.3125 L 2994.953125 119.242188 L 2964.730469 151.253906 C 2963.546875 152.445312 2963.546875 153.378906 2963.546875 154.226562 C 2963.546875 155.332031 2963.957031 156.605469 2964.65625 156.605469 C 2964.769531 156.605469 2964.84375 156.519531 2965.65625 155.671875 Z M 2997.394531 122.128906 "/>
</g>
</svg>
