<?xml version="1.0" encoding="UTF-8"?>
<svg xmlns="http://www.w3.org/2000/svg" xmlns:xlink="http://www.w3.org/1999/xlink" width="2445px" height="300px" viewBox="0 0 2445 300" version="1.1">
<g id="surface1">
<path style=" stroke:none;fill-rule:nonzero;fill:rgb(74.901961%,74.901961%,74.901961%);fill-opacity:1;" d="M 1.761719 60.707031 L 5.367188 60.707031 L 5.367188 3.304688 L 19.234375 3.304688 L 19.234375 1.003906 L 1.761719 1.003906 Z M 1.761719 60.707031 "/>
<path style=" stroke:none;fill-rule:nonzero;fill:rgb(74.901961%,74.901961%,74.901961%);fill-opacity:1;" d="M 1.761719 80.667969 L 5.367188 80.667969 L 5.367188 60.683594 L 1.761719 60.683594 Z M 1.761719 80.667969 "/>
<path style=" stroke:none;fill-rule:nonzero;fill:rgb(74.901961%,74.901961%,74.901961%);fill-opacity:1;" d="M 1.761719 100.578125 L 5.367188 100.578125 L 5.367188 80.59375 L 1.761719 80.59375 Z M 1.761719 100.578125 "/>
<path style=" stroke:none;fill-rule:nonzero;fill:rgb(74.901961%,74.901961%,74.901961%);fill-opacity:1;" d="M 1.761719 120.503906 L 5.367188 120.503906 L 5.367188 100.519531 L 1.761719 100.519531 Z M 1.761719 120.503906 "/>
<path style=" stroke:none;fill-rule:nonzero;fill:rgb(74.901961%,74.901961%,74.901961%);fill-opacity:1;" d="M 1.761719 140.417969 L 5.367188 140.417969 L 5.367188 120.433594 L 1.761719 120.433594 Z M 1.761719 140.417969 "/>
<path style=" stroke:none;fill-rule:nonzero;fill:rgb(74.901961%,74.901961%,74.901961%);fill-opacity:1;" d="M 1.761719 160.339844 L 5.367188 160.339844 L 5.367188 140.355469 L 1.761719 140.355469 Z M 1.761719 160.339844 "/>
<path style=" stroke:none;fill-rule:nonzero;fill:rgb(74.901961%,74.901961%,74.901961%);fill-opacity:1;" d="M 1.761719 180.253906 L 5.367188 180.253906 L 5.367188 160.269531 L 1.761719 160.269531 Z M 1.761719 180.253906 "/>
<path style=" stroke:none;fill-rule:nonzero;fill:rgb(74.901961%,74.901961%,74.901961%);fill-opacity:1;" d="M 1.761719 200.179688 L 5.367188 200.179688 L 5.367188 180.195312 L 1.761719 180.195312 Z M 1.761719 200.179688 "/>
<path style=" stroke:none;fill-rule:nonzero;fill:rgb(74.901961%,74.901961%,74.901961%);fill-opacity:1;" d="M 1.761719 220.089844 L 5.367188 220.089844 L 5.367188 200.105469 L 1.761719 200.105469 Z M 1.761719 220.089844 "/>
<path style=" stroke:none;fill-rule:nonzero;fill:rgb(74.901961%,74.901961%,74.901961%);fill-opacity:1;" d="M 1.761719 240.015625 L 5.367188 240.015625 L 5.367188 220.03125 L 1.761719 220.03125 Z M 1.761719 240.015625 "/>
<path style=" stroke:none;fill-rule:nonzero;fill:rgb(74.901961%,74.901961%,74.901961%);fill-opacity:1;" d="M 1.761719 299.695312 L 19.234375 299.695312 L 19.234375 297.394531 L 5.367188 297.394531 L 5.367188 239.992188 L 1.761719 239.992188 Z M 1.761719 299.695312 "/>
<path style=" stroke:none;fill-rule:nonzero;fill:rgb(74.901961%,74.901961%,74.901961%);fill-opacity:1;" d="M 51.996094 78.605469 L 51.996094 79.988281 C 55.371094 79.988281 58.78125 79.800781 62.023438 79.128906 L 62.023438 104.808594 L 61.890625 105.328125 L 61.128906 105.476562 L 52.359375 105.476562 L 52.359375 106.921875 L 78.734375 106.921875 L 78.734375 105.519531 L 70.660156 105.519531 C 69.832031 105.519531 69.140625 105.433594 69.140625 104.847656 L 69.140625 76.160156 C 69.140625 75.929688 69.140625 75.550781 68.609375 75.550781 C 67.484375 75.550781 66.128906 76.554688 64.902344 76.933594 C 60.964844 78.273438 56.429688 78.605469 51.996094 78.605469 Z M 51.996094 78.605469 "/>
<path style=" stroke:none;fill-rule:nonzero;fill:rgb(74.901961%,74.901961%,74.901961%);fill-opacity:1;" d="M 300.6875 75.550781 C 286.089844 76.554688 285.5625 85.679688 285.5625 92.144531 C 285.5625 97.878906 286.554688 107.484375 301.976562 107.484375 C 313.394531 107.484375 318.160156 101.125 318.160156 93.191406 L 318.160156 90.410156 C 318.160156 83.964844 315.609375 75.488281 302.074219 75.488281 C 301.613281 75.488281 301.148438 75.488281 300.6875 75.550781 Z M 292.84375 94.617188 C 292.742188 94.238281 292.742188 93.863281 292.742188 93.484375 C 292.742188 90.554688 292.742188 87.648438 293.074219 84.71875 C 293.207031 82.855469 293.4375 80.761719 295.027344 79.128906 C 296.617188 77.601562 299.261719 76.703125 301.976562 76.703125 C 310.21875 76.703125 310.910156 82.917969 310.910156 87.648438 L 310.910156 90.410156 C 310.910156 91.75 310.976562 93.234375 310.976562 94.761719 C 310.976562 97.878906 310.679688 101.125 309.027344 103.382812 C 307.570312 105.058594 304.855469 106.398438 301.84375 106.398438 L 301.679688 106.398438 C 296.914062 106.398438 294.199219 103.425781 293.605469 100.789062 C 292.976562 98.738281 293.140625 96.6875 292.84375 94.617188 Z M 292.84375 94.617188 "/>
<path style=" stroke:none;fill-rule:nonzero;fill:rgb(74.901961%,74.901961%,74.901961%);fill-opacity:1;" d="M 74.878906 220.195312 C 60.285156 221.199219 59.753906 230.324219 59.753906 236.789062 C 59.753906 242.523438 60.746094 252.128906 76.167969 252.128906 C 87.585938 252.128906 92.351562 245.765625 92.351562 237.835938 L 92.351562 235.050781 C 92.351562 228.605469 89.804688 220.132812 76.269531 220.132812 C 75.804688 220.132812 75.339844 220.132812 74.878906 220.195312 Z M 67.035156 239.257812 C 66.9375 238.882812 66.9375 238.503906 66.9375 238.128906 C 66.9375 235.199219 66.9375 232.289062 67.265625 229.359375 C 67.398438 227.496094 67.628906 225.40625 69.21875 223.773438 C 70.808594 222.246094 73.457031 221.34375 76.167969 221.34375 C 84.410156 221.34375 85.105469 227.5625 85.105469 232.289062 L 85.105469 235.050781 C 85.105469 236.390625 85.171875 237.878906 85.171875 239.40625 C 85.171875 242.523438 84.871094 245.765625 83.21875 248.027344 C 81.761719 249.699219 79.046875 251.039062 76.035156 251.039062 L 75.871094 251.039062 C 71.105469 251.039062 68.390625 248.070312 67.796875 245.433594 C 67.167969 243.382812 67.332031 241.332031 67.035156 239.257812 Z M 67.035156 239.257812 "/>
<path style=" stroke:none;fill-rule:nonzero;fill:rgb(74.901961%,74.901961%,74.901961%);fill-opacity:1;" d="M 270.453125 239.132812 L 270.453125 242.710938 L 291.105469 242.710938 L 291.105469 239.132812 Z M 270.453125 239.132812 "/>
<path style=" stroke:none;fill-rule:nonzero;fill:rgb(74.901961%,74.901961%,74.901961%);fill-opacity:1;" d="M 302 223.25 L 302 224.632812 C 305.375 224.632812 308.785156 224.441406 312.027344 223.773438 L 312.027344 249.449219 L 311.894531 249.972656 L 311.136719 250.121094 L 302.363281 250.121094 L 302.363281 251.5625 L 328.742188 251.5625 L 328.742188 250.160156 L 320.664062 250.160156 C 319.839844 250.160156 319.144531 250.078125 319.144531 249.492188 L 319.144531 220.800781 C 319.144531 220.570312 319.144531 220.195312 318.613281 220.195312 C 317.488281 220.195312 316.132812 221.199219 314.90625 221.574219 C 310.96875 222.914062 306.4375 223.25 302 223.25 Z M 302 223.25 "/>
<path style=" stroke:none;fill-rule:nonzero;fill:rgb(74.901961%,74.901961%,74.901961%);fill-opacity:1;" d="M 374.304688 60.707031 L 377.910156 60.707031 L 377.910156 1.003906 L 360.4375 1.003906 L 360.4375 3.304688 L 374.304688 3.304688 Z M 374.304688 60.707031 "/>
<path style=" stroke:none;fill-rule:nonzero;fill:rgb(74.901961%,74.901961%,74.901961%);fill-opacity:1;" d="M 374.304688 80.667969 L 377.910156 80.667969 L 377.910156 60.683594 L 374.304688 60.683594 Z M 374.304688 80.667969 "/>
<path style=" stroke:none;fill-rule:nonzero;fill:rgb(74.901961%,74.901961%,74.901961%);fill-opacity:1;" d="M 374.304688 100.578125 L 377.910156 100.578125 L 377.910156 80.59375 L 374.304688 80.59375 Z M 374.304688 100.578125 "/>
<path style=" stroke:none;fill-rule:nonzero;fill:rgb(74.901961%,74.901961%,74.901961%);fill-opacity:1;" d="M 374.304688 120.503906 L 377.910156 120.503906 L 377.910156 100.519531 L 374.304688 100.519531 Z M 374.304688 120.503906 "/>
<path style=" stroke:none;fill-rule:nonzero;fill:rgb(74.901961%,74.901961%,74.901961%);fill-opacity:1;" d="M 374.304688 140.417969 L 377.910156 140.417969 L 377.910156 120.433594 L 374.304688 120.433594 Z M 374.304688 140.417969 "/>
<path style=" stroke:none;fill-rule:nonzero;fill:rgb(74.901961%,74.901961%,74.901961%);fill-opacity:1;" d="M 374.304688 160.339844 L 377.910156 160.339844 L 377.910156 140.355469 L 374.304688 140.355469 Z M 374.304688 160.339844 "/>
<path style=" stroke:none;fill-rule:nonzero;fill:rgb(74.901961%,74.901961%,74.901961%);fill-opacity:1;" d="M 374.304688 180.253906 L 377.910156 180.253906 L 377.910156 160.269531 L 374.304688 160.269531 Z M 374.304688 180.253906 "/>
<path style=" stroke:none;fill-rule:nonzero;fill:rgb(74.901961%,74.901961%,74.901961%);fill-opacity:1;" d="M 374.304688 200.179688 L 377.910156 200.179688 L 377.910156 180.195312 L 374.304688 180.195312 Z M 374.304688 200.179688 "/>
<path style=" stroke:none;fill-rule:nonzero;fill:rgb(74.901961%,74.901961%,74.901961%);fill-opacity:1;" d="M 374.304688 220.089844 L 377.910156 220.089844 L 377.910156 200.105469 L 374.304688 200.105469 Z M 374.304688 220.089844 "/>
<path style=" stroke:none;fill-rule:nonzero;fill:rgb(74.901961%,74.901961%,74.901961%);fill-opacity:1;" d="M 374.304688 240.015625 L 377.910156 240.015625 L 377.910156 220.03125 L 374.304688 220.03125 Z M 374.304688 240.015625 "/>
<path style=" stroke:none;fill-rule:nonzero;fill:rgb(74.901961%,74.901961%,74.901961%);fill-opacity:1;" d="M 374.304688 297.394531 L 360.4375 297.394531 L 360.4375 299.695312 L 377.910156 299.695312 L 377.910156 239.992188 L 374.304688 239.992188 Z M 374.304688 297.394531 "/>
<path style=" stroke:none;fill-rule:nonzero;fill:rgb(74.901961%,74.901961%,74.901961%);fill-opacity:1;" d="M 420.929688 60.707031 L 424.539062 60.707031 L 424.539062 3.304688 L 438.402344 3.304688 L 438.402344 1.003906 L 420.929688 1.003906 Z M 420.929688 60.707031 "/>
<path style=" stroke:none;fill-rule:nonzero;fill:rgb(74.901961%,74.901961%,74.901961%);fill-opacity:1;" d="M 420.929688 80.667969 L 424.539062 80.667969 L 424.539062 60.683594 L 420.929688 60.683594 Z M 420.929688 80.667969 "/>
<path style=" stroke:none;fill-rule:nonzero;fill:rgb(74.901961%,74.901961%,74.901961%);fill-opacity:1;" d="M 420.929688 100.582031 L 424.539062 100.582031 L 424.539062 80.59375 L 420.929688 80.59375 Z M 420.929688 100.582031 "/>
<path style=" stroke:none;fill-rule:nonzero;fill:rgb(74.901961%,74.901961%,74.901961%);fill-opacity:1;" d="M 420.929688 120.503906 L 424.539062 120.503906 L 424.539062 100.519531 L 420.929688 100.519531 Z M 420.929688 120.503906 "/>
<path style=" stroke:none;fill-rule:nonzero;fill:rgb(74.901961%,74.901961%,74.901961%);fill-opacity:1;" d="M 420.929688 140.417969 L 424.539062 140.417969 L 424.539062 120.433594 L 420.929688 120.433594 Z M 420.929688 140.417969 "/>
<path style=" stroke:none;fill-rule:nonzero;fill:rgb(74.901961%,74.901961%,74.901961%);fill-opacity:1;" d="M 420.929688 160.339844 L 424.539062 160.339844 L 424.539062 140.355469 L 420.929688 140.355469 Z M 420.929688 160.339844 "/>
<path style=" stroke:none;fill-rule:nonzero;fill:rgb(74.901961%,74.901961%,74.901961%);fill-opacity:1;" d="M 420.929688 180.253906 L 424.539062 180.253906 L 424.539062 160.269531 L 420.929688 160.269531 Z M 420.929688 180.253906 "/>
<path style=" stroke:none;fill-rule:nonzero;fill:rgb(74.901961%,74.901961%,74.901961%);fill-opacity:1;" d="M 420.929688 200.179688 L 424.539062 200.179688 L 424.539062 180.195312 L 420.929688 180.195312 Z M 420.929688 200.179688 "/>
<path style=" stroke:none;fill-rule:nonzero;fill:rgb(74.901961%,74.901961%,74.901961%);fill-opacity:1;" d="M 420.929688 220.089844 L 424.539062 220.089844 L 424.539062 200.105469 L 420.929688 200.105469 Z M 420.929688 220.089844 "/>
<path style=" stroke:none;fill-rule:nonzero;fill:rgb(74.901961%,74.901961%,74.901961%);fill-opacity:1;" d="M 420.929688 240.015625 L 424.539062 240.015625 L 424.539062 220.03125 L 420.929688 220.03125 Z M 420.929688 240.015625 "/>
<path style=" stroke:none;fill-rule:nonzero;fill:rgb(74.901961%,74.901961%,74.901961%);fill-opacity:1;" d="M 420.929688 299.695312 L 438.402344 299.695312 L 438.402344 297.394531 L 424.539062 297.394531 L 424.539062 239.992188 L 420.929688 239.992188 Z M 420.929688 299.695312 "/>
<path style=" stroke:none;fill-rule:nonzero;fill:rgb(74.901961%,74.901961%,74.901961%);fill-opacity:1;" d="M 467.890625 78.605469 L 467.890625 79.988281 C 471.265625 79.988281 474.671875 79.800781 477.917969 79.128906 L 477.917969 104.808594 L 477.785156 105.332031 L 477.023438 105.476562 L 468.253906 105.476562 L 468.253906 106.921875 L 494.628906 106.921875 L 494.628906 105.519531 L 486.554688 105.519531 C 485.726562 105.519531 485.03125 105.433594 485.03125 104.847656 L 485.03125 76.160156 C 485.03125 75.929688 485.03125 75.550781 484.5 75.550781 C 483.375 75.550781 482.019531 76.554688 480.796875 76.933594 C 476.855469 78.273438 472.324219 78.605469 467.890625 78.605469 Z M 467.890625 78.605469 "/>
<path style=" stroke:none;fill-rule:nonzero;fill:rgb(74.901961%,74.901961%,74.901961%);fill-opacity:1;" d="M 533.277344 71.09375 C 532.449219 71.28125 531.921875 72.683594 531.558594 73.398438 C 522.554688 87.6875 514.449219 102.128906 505.445312 116.378906 L 504.785156 117.570312 C 504.617188 117.761719 504.488281 118.011719 504.386719 118.242188 C 504.386719 118.535156 504.785156 118.828125 505.214844 118.828125 L 505.378906 118.828125 C 505.910156 118.765625 506.140625 118.492188 506.273438 118.199219 L 507.433594 116.335938 C 515.96875 101.898438 524.738281 87.542969 533.574219 73.167969 L 534.105469 72.246094 C 534.203125 72.058594 534.402344 71.867188 534.402344 71.617188 C 534.402344 71.28125 533.972656 71.09375 533.507812 71.09375 Z M 533.277344 71.09375 "/>
<path style=" stroke:none;fill-rule:nonzero;fill:rgb(74.901961%,74.901961%,74.901961%);fill-opacity:1;" d="M 561.09375 110.101562 C 562.75 110.101562 562.78125 110.058594 563.3125 109.433594 L 592.039062 71.535156 C 592.402344 71.09375 592.402344 71.03125 592.402344 70.929688 C 592.402344 70.570312 591.972656 70.277344 591.34375 70.277344 C 590.648438 70.277344 590.449219 70.570312 590.183594 70.929688 L 563.113281 106.648438 L 551.929688 90.179688 L 544.613281 93.738281 L 545.410156 94.261719 L 549.148438 92.480469 Z M 561.09375 110.101562 "/>
<path style="fill:none;stroke-width:9.99;stroke-linecap:butt;stroke-linejoin:miter;stroke:rgb(74.901961%,74.901961%,74.901961%);stroke-opacity:1;stroke-miterlimit:10;" d="M 2792.031633 1710.391667 L 2975.044018 1710.391667 " transform="matrix(0.211798,0,0,-0.133929,0,300)"/>
<path style=" stroke:none;fill-rule:nonzero;fill:rgb(74.901961%,74.901961%,74.901961%);fill-opacity:1;" d="M 597.539062 81.660156 C 599.292969 78.753906 603.464844 76.933594 608.0625 76.933594 C 614.417969 76.933594 618.585938 80.46875 618.585938 84.339844 L 618.585938 84.863281 C 618.125 89.277344 613.425781 92.753906 608.957031 95.914062 C 605.183594 98.589844 601.347656 101.3125 597.539062 103.992188 L 596.117188 104.996094 C 595.519531 105.390625 595.125 105.664062 595.125 106.1875 C 595.125 106.4375 595.222656 106.667969 595.222656 106.921875 L 624.410156 106.921875 L 626.132812 97.691406 L 624.179688 97.691406 C 623.78125 99.554688 623.882812 102.167969 621.003906 102.167969 C 619.117188 102.316406 617.132812 102.378906 615.246094 102.378906 C 613.292969 102.378906 611.40625 102.316406 609.488281 102.316406 L 602.007812 102.316406 C 605.351562 100.371094 608.59375 98.257812 612.066406 96.394531 L 616.601562 93.945312 C 621.300781 91.414062 626.132812 88.652344 626.132812 84.296875 L 626.132812 83.816406 C 625.371094 78.460938 618.058594 75.550781 609.949219 75.550781 C 602.835938 75.550781 595.222656 78.648438 595.222656 83.816406 C 595.222656 85.492188 596.945312 86.390625 599.0625 86.390625 C 600.949219 86.390625 602.933594 85.535156 602.933594 84.003906 C 602.933594 82.625 601.347656 81.515625 599.128906 81.515625 C 598.597656 81.515625 598.070312 81.578125 597.539062 81.660156 Z M 597.539062 81.660156 "/>
<path style=" stroke:none;fill-rule:nonzero;fill:rgb(74.901961%,74.901961%,74.901961%);fill-opacity:1;" d="M 467.886719 223.25 L 467.886719 224.632812 C 471.261719 224.632812 474.671875 224.441406 477.914062 223.773438 L 477.914062 249.449219 L 477.78125 249.972656 L 477.023438 250.117188 L 468.253906 250.117188 L 468.253906 251.5625 L 494.628906 251.5625 L 494.628906 250.160156 L 486.550781 250.160156 C 485.726562 250.160156 485.03125 250.078125 485.03125 249.492188 L 485.03125 220.800781 C 485.03125 220.570312 485.03125 220.195312 484.5 220.195312 C 483.375 220.195312 482.019531 221.199219 480.792969 221.574219 C 476.855469 222.914062 472.324219 223.25 467.886719 223.25 Z M 467.886719 223.25 "/>
<path style=" stroke:none;fill-rule:nonzero;fill:rgb(74.901961%,74.901961%,74.901961%);fill-opacity:1;" d="M 533.277344 215.738281 C 532.449219 215.925781 531.921875 217.328125 531.554688 218.039062 C 522.554688 232.332031 514.445312 246.769531 505.445312 261.023438 L 504.785156 262.214844 C 504.617188 262.402344 504.484375 262.652344 504.386719 262.882812 C 504.386719 263.175781 504.785156 263.46875 505.214844 263.46875 L 505.378906 263.46875 C 505.910156 263.40625 506.140625 263.136719 506.273438 262.84375 L 507.429688 260.980469 C 515.96875 246.539062 524.738281 232.183594 533.574219 217.808594 L 534.105469 216.886719 C 534.203125 216.699219 534.402344 216.511719 534.402344 216.261719 C 534.402344 215.925781 533.972656 215.738281 533.507812 215.738281 Z M 533.277344 215.738281 "/>
<path style=" stroke:none;fill-rule:nonzero;fill:rgb(74.901961%,74.901961%,74.901961%);fill-opacity:1;" d="M 561.09375 254.746094 C 562.75 254.746094 562.78125 254.703125 563.3125 254.074219 L 592.035156 216.175781 C 592.402344 215.738281 592.402344 215.675781 592.402344 215.570312 C 592.402344 215.214844 591.96875 214.921875 591.339844 214.921875 C 590.648438 214.921875 590.449219 215.214844 590.183594 215.570312 L 563.113281 251.292969 L 551.925781 234.824219 L 544.613281 238.378906 L 545.40625 238.902344 L 549.148438 237.125 Z M 561.09375 254.746094 "/>
<path style="fill:none;stroke-width:9.99;stroke-linecap:butt;stroke-linejoin:miter;stroke:rgb(74.901961%,74.901961%,74.901961%);stroke-opacity:1;stroke-miterlimit:10;" d="M 2792.031633 630.379167 L 2975.044018 630.379167 " transform="matrix(0.211798,0,0,-0.133929,0,300)"/>
<path style=" stroke:none;fill-rule:nonzero;fill:rgb(74.901961%,74.901961%,74.901961%);fill-opacity:1;" d="M 597.539062 226.304688 C 599.292969 223.394531 603.464844 221.574219 608.0625 221.574219 C 614.417969 221.574219 618.585938 225.113281 618.585938 228.984375 L 618.585938 229.507812 C 618.125 233.921875 613.425781 237.394531 608.957031 240.554688 C 605.183594 243.234375 601.347656 245.953125 597.539062 248.632812 L 596.117188 249.636719 C 595.519531 250.035156 595.125 250.308594 595.125 250.832031 C 595.125 251.082031 595.222656 251.3125 595.222656 251.5625 L 624.410156 251.5625 L 626.132812 242.335938 L 624.179688 242.335938 C 623.78125 244.195312 623.882812 246.8125 621.003906 246.8125 C 619.117188 246.960938 617.132812 247.023438 615.246094 247.023438 C 613.292969 247.023438 611.40625 246.960938 609.488281 246.960938 L 602.007812 246.960938 C 605.351562 245.011719 608.59375 242.898438 612.066406 241.035156 L 616.601562 238.589844 C 621.300781 236.054688 626.132812 233.292969 626.132812 228.941406 L 626.132812 228.460938 C 625.371094 223.101562 618.058594 220.195312 609.949219 220.195312 C 602.835938 220.195312 595.222656 223.292969 595.222656 228.460938 C 595.222656 230.132812 596.945312 231.035156 599.0625 231.035156 C 600.949219 231.035156 602.933594 230.175781 602.933594 228.648438 C 602.933594 227.265625 601.347656 226.160156 599.128906 226.160156 C 598.597656 226.160156 598.070312 226.222656 597.539062 226.304688 Z M 597.539062 226.304688 "/>
<path style=" stroke:none;fill-rule:nonzero;fill:rgb(74.901961%,74.901961%,74.901961%);fill-opacity:1;" d="M 670.164062 60.707031 L 673.769531 60.707031 L 673.769531 1.003906 L 656.296875 1.003906 L 656.296875 3.304688 L 670.164062 3.304688 Z M 670.164062 60.707031 "/>
<path style=" stroke:none;fill-rule:nonzero;fill:rgb(74.901961%,74.901961%,74.901961%);fill-opacity:1;" d="M 670.164062 80.667969 L 673.769531 80.667969 L 673.769531 60.683594 L 670.164062 60.683594 Z M 670.164062 80.667969 "/>
<path style=" stroke:none;fill-rule:nonzero;fill:rgb(74.901961%,74.901961%,74.901961%);fill-opacity:1;" d="M 670.164062 100.578125 L 673.769531 100.578125 L 673.769531 80.59375 L 670.164062 80.59375 Z M 670.164062 100.578125 "/>
<path style=" stroke:none;fill-rule:nonzero;fill:rgb(74.901961%,74.901961%,74.901961%);fill-opacity:1;" d="M 670.164062 120.503906 L 673.769531 120.503906 L 673.769531 100.519531 L 670.164062 100.519531 Z M 670.164062 120.503906 "/>
<path style=" stroke:none;fill-rule:nonzero;fill:rgb(74.901961%,74.901961%,74.901961%);fill-opacity:1;" d="M 670.164062 140.417969 L 673.769531 140.417969 L 673.769531 120.433594 L 670.164062 120.433594 Z M 670.164062 140.417969 "/>
<path style=" stroke:none;fill-rule:nonzero;fill:rgb(74.901961%,74.901961%,74.901961%);fill-opacity:1;" d="M 670.164062 160.339844 L 673.769531 160.339844 L 673.769531 140.355469 L 670.164062 140.355469 Z M 670.164062 160.339844 "/>
<path style=" stroke:none;fill-rule:nonzero;fill:rgb(74.901961%,74.901961%,74.901961%);fill-opacity:1;" d="M 670.164062 180.253906 L 673.769531 180.253906 L 673.769531 160.269531 L 670.164062 160.269531 Z M 670.164062 180.253906 "/>
<path style=" stroke:none;fill-rule:nonzero;fill:rgb(74.901961%,74.901961%,74.901961%);fill-opacity:1;" d="M 670.164062 200.179688 L 673.769531 200.179688 L 673.769531 180.195312 L 670.164062 180.195312 Z M 670.164062 200.179688 "/>
<path style=" stroke:none;fill-rule:nonzero;fill:rgb(74.901961%,74.901961%,74.901961%);fill-opacity:1;" d="M 670.164062 220.089844 L 673.769531 220.089844 L 673.769531 200.105469 L 670.164062 200.105469 Z M 670.164062 220.089844 "/>
<path style=" stroke:none;fill-rule:nonzero;fill:rgb(74.901961%,74.901961%,74.901961%);fill-opacity:1;" d="M 670.164062 240.015625 L 673.769531 240.015625 L 673.769531 220.03125 L 670.164062 220.03125 Z M 670.164062 240.015625 "/>
<path style=" stroke:none;fill-rule:nonzero;fill:rgb(74.901961%,74.901961%,74.901961%);fill-opacity:1;" d="M 670.164062 297.394531 L 656.296875 297.394531 L 656.296875 299.695312 L 673.769531 299.695312 L 673.769531 239.992188 L 670.164062 239.992188 Z M 670.164062 297.394531 "/>
<path style=" stroke:none;fill-rule:nonzero;fill:rgb(74.901961%,74.901961%,74.901961%);fill-opacity:1;" d="M 928.375 60.707031 L 931.984375 60.707031 L 931.984375 3.304688 L 945.847656 3.304688 L 945.847656 1.003906 L 928.375 1.003906 Z M 928.375 60.707031 "/>
<path style=" stroke:none;fill-rule:nonzero;fill:rgb(74.901961%,74.901961%,74.901961%);fill-opacity:1;" d="M 928.375 80.667969 L 931.984375 80.667969 L 931.984375 60.683594 L 928.375 60.683594 Z M 928.375 80.667969 "/>
<path style=" stroke:none;fill-rule:nonzero;fill:rgb(74.901961%,74.901961%,74.901961%);fill-opacity:1;" d="M 928.375 100.578125 L 931.984375 100.578125 L 931.984375 80.59375 L 928.375 80.59375 Z M 928.375 100.578125 "/>
<path style=" stroke:none;fill-rule:nonzero;fill:rgb(74.901961%,74.901961%,74.901961%);fill-opacity:1;" d="M 928.375 120.503906 L 931.984375 120.503906 L 931.984375 100.519531 L 928.375 100.519531 Z M 928.375 120.503906 "/>
<path style=" stroke:none;fill-rule:nonzero;fill:rgb(74.901961%,74.901961%,74.901961%);fill-opacity:1;" d="M 928.375 140.417969 L 931.984375 140.417969 L 931.984375 120.433594 L 928.375 120.433594 Z M 928.375 140.417969 "/>
<path style=" stroke:none;fill-rule:nonzero;fill:rgb(74.901961%,74.901961%,74.901961%);fill-opacity:1;" d="M 928.375 160.339844 L 931.984375 160.339844 L 931.984375 140.355469 L 928.375 140.355469 Z M 928.375 160.339844 "/>
<path style=" stroke:none;fill-rule:nonzero;fill:rgb(74.901961%,74.901961%,74.901961%);fill-opacity:1;" d="M 928.375 180.253906 L 931.984375 180.253906 L 931.984375 160.269531 L 928.375 160.269531 Z M 928.375 180.253906 "/>
<path style=" stroke:none;fill-rule:nonzero;fill:rgb(74.901961%,74.901961%,74.901961%);fill-opacity:1;" d="M 928.375 200.179688 L 931.984375 200.179688 L 931.984375 180.195312 L 928.375 180.195312 Z M 928.375 200.179688 "/>
<path style=" stroke:none;fill-rule:nonzero;fill:rgb(74.901961%,74.901961%,74.901961%);fill-opacity:1;" d="M 928.375 220.089844 L 931.984375 220.089844 L 931.984375 200.105469 L 928.375 200.105469 Z M 928.375 220.089844 "/>
<path style=" stroke:none;fill-rule:nonzero;fill:rgb(74.901961%,74.901961%,74.901961%);fill-opacity:1;" d="M 928.375 240.015625 L 931.984375 240.015625 L 931.984375 220.03125 L 928.375 220.03125 Z M 928.375 240.015625 "/>
<path style=" stroke:none;fill-rule:nonzero;fill:rgb(74.901961%,74.901961%,74.901961%);fill-opacity:1;" d="M 928.375 299.695312 L 945.847656 299.695312 L 945.847656 297.394531 L 931.984375 297.394531 L 931.984375 239.992188 L 928.375 239.992188 Z M 928.375 299.695312 "/>
<path style=" stroke:none;fill-rule:nonzero;fill:rgb(74.901961%,74.901961%,74.901961%);fill-opacity:1;" d="M 975.3125 78.605469 L 975.3125 79.988281 C 978.691406 79.988281 982.097656 79.800781 985.339844 79.128906 L 985.339844 104.804688 L 985.210938 105.328125 L 984.449219 105.476562 L 975.679688 105.476562 L 975.679688 106.921875 L 1002.054688 106.921875 L 1002.054688 105.519531 L 993.980469 105.519531 C 993.152344 105.519531 992.457031 105.433594 992.457031 104.847656 L 992.457031 76.160156 C 992.457031 75.929688 992.457031 75.550781 991.925781 75.550781 C 990.800781 75.550781 989.445312 76.554688 988.222656 76.933594 C 984.28125 78.273438 979.75 78.605469 975.3125 78.605469 Z M 975.3125 78.605469 "/>
<path style=" stroke:none;fill-rule:nonzero;fill:rgb(74.901961%,74.901961%,74.901961%);fill-opacity:1;" d="M 1040.703125 71.09375 C 1039.875 71.28125 1039.347656 72.683594 1038.984375 73.394531 C 1029.980469 87.6875 1021.875 102.128906 1012.871094 116.378906 L 1012.210938 117.570312 C 1012.042969 117.761719 1011.910156 118.011719 1011.8125 118.242188 C 1011.8125 118.535156 1012.210938 118.828125 1012.640625 118.828125 L 1012.804688 118.828125 C 1013.335938 118.765625 1013.566406 118.492188 1013.699219 118.199219 L 1014.859375 116.335938 C 1023.394531 101.898438 1032.164062 87.542969 1041 73.164062 L 1041.53125 72.246094 C 1041.628906 72.058594 1041.828125 71.867188 1041.828125 71.617188 C 1041.828125 71.28125 1041.398438 71.09375 1040.933594 71.09375 Z M 1040.703125 71.09375 "/>
<path style=" stroke:none;fill-rule:nonzero;fill:rgb(74.901961%,74.901961%,74.901961%);fill-opacity:1;" d="M 1068.539062 110.101562 C 1070.195312 110.101562 1070.226562 110.058594 1070.757812 109.433594 L 1099.480469 71.535156 C 1099.84375 71.09375 1099.84375 71.03125 1099.84375 70.925781 C 1099.84375 70.570312 1099.414062 70.277344 1098.785156 70.277344 C 1098.089844 70.277344 1097.894531 70.570312 1097.628906 70.925781 L 1070.558594 106.648438 L 1059.371094 90.179688 L 1052.058594 93.738281 L 1052.851562 94.261719 L 1056.59375 92.480469 Z M 1068.539062 110.101562 "/>
<path style="fill:none;stroke-width:9.99;stroke-linecap:butt;stroke-linejoin:miter;stroke:rgb(74.901961%,74.901961%,74.901961%);stroke-opacity:1;stroke-miterlimit:10;" d="M 5187.920667 1710.391667 L 5370.896166 1710.391667 " transform="matrix(0.211798,0,0,-0.133929,0,300)"/>
<path style=" stroke:none;fill-rule:nonzero;fill:rgb(74.901961%,74.901961%,74.901961%);fill-opacity:1;" d="M 1104.984375 81.660156 C 1106.738281 78.753906 1110.910156 76.933594 1115.507812 76.933594 C 1121.863281 76.933594 1126.03125 80.46875 1126.03125 84.339844 L 1126.03125 84.863281 C 1125.570312 89.277344 1120.871094 92.753906 1116.402344 95.914062 C 1112.628906 98.589844 1108.792969 101.3125 1104.984375 103.992188 L 1103.5625 104.996094 C 1102.96875 105.390625 1102.570312 105.664062 1102.570312 106.1875 C 1102.570312 106.4375 1102.667969 106.667969 1102.667969 106.921875 L 1131.859375 106.921875 L 1133.578125 97.691406 L 1131.625 97.691406 C 1131.230469 99.554688 1131.328125 102.167969 1128.449219 102.167969 C 1126.5625 102.316406 1124.578125 102.378906 1122.691406 102.378906 C 1120.738281 102.378906 1118.851562 102.316406 1116.933594 102.316406 L 1109.453125 102.316406 C 1112.796875 100.371094 1116.039062 98.257812 1119.511719 96.394531 L 1124.046875 93.945312 C 1128.746094 91.414062 1133.578125 88.652344 1133.578125 84.296875 L 1133.578125 83.816406 C 1132.816406 78.460938 1125.503906 75.550781 1117.394531 75.550781 C 1110.28125 75.550781 1102.667969 78.648438 1102.667969 83.816406 C 1102.667969 85.492188 1104.390625 86.390625 1106.507812 86.390625 C 1108.394531 86.390625 1110.378906 85.535156 1110.378906 84.003906 C 1110.378906 82.625 1108.792969 81.515625 1106.574219 81.515625 C 1106.042969 81.515625 1105.515625 81.578125 1104.984375 81.660156 Z M 1104.984375 81.660156 "/>
<path style=" stroke:none;fill-rule:nonzero;fill:rgb(74.901961%,74.901961%,74.901961%);fill-opacity:1;" d="M 975.316406 223.25 L 975.316406 224.632812 C 978.691406 224.632812 982.097656 224.441406 985.34375 223.773438 L 985.34375 249.449219 L 985.210938 249.972656 L 984.449219 250.117188 L 975.679688 250.117188 L 975.679688 251.5625 L 1002.054688 251.5625 L 1002.054688 250.160156 L 993.980469 250.160156 C 993.152344 250.160156 992.457031 250.078125 992.457031 249.492188 L 992.457031 220.800781 C 992.457031 220.570312 992.457031 220.195312 991.929688 220.195312 C 990.804688 220.195312 989.445312 221.199219 988.222656 221.574219 C 984.285156 222.914062 979.75 223.25 975.316406 223.25 Z M 975.316406 223.25 "/>
<path style=" stroke:none;fill-rule:nonzero;fill:rgb(74.901961%,74.901961%,74.901961%);fill-opacity:1;" d="M 1040.703125 215.738281 C 1039.875 215.925781 1039.347656 217.328125 1038.984375 218.039062 C 1029.980469 232.332031 1021.875 246.769531 1012.871094 261.023438 L 1012.210938 262.214844 C 1012.046875 262.402344 1011.914062 262.652344 1011.8125 262.882812 C 1011.8125 263.175781 1012.210938 263.46875 1012.640625 263.46875 L 1012.804688 263.46875 C 1013.335938 263.40625 1013.566406 263.136719 1013.699219 262.84375 L 1014.859375 260.980469 C 1023.394531 246.539062 1032.167969 232.183594 1041.003906 217.808594 L 1041.53125 216.886719 C 1041.632812 216.699219 1041.828125 216.511719 1041.828125 216.261719 C 1041.828125 215.925781 1041.398438 215.738281 1040.9375 215.738281 Z M 1040.703125 215.738281 "/>
<path style=" stroke:none;fill-rule:nonzero;fill:rgb(74.901961%,74.901961%,74.901961%);fill-opacity:1;" d="M 1068.539062 254.746094 C 1070.195312 254.746094 1070.226562 254.703125 1070.757812 254.074219 L 1099.480469 216.175781 C 1099.847656 215.738281 1099.847656 215.675781 1099.847656 215.570312 C 1099.847656 215.214844 1099.414062 214.921875 1098.789062 214.921875 C 1098.09375 214.921875 1097.894531 215.214844 1097.628906 215.570312 L 1070.558594 251.292969 L 1059.371094 234.824219 L 1052.058594 238.378906 L 1052.851562 238.902344 L 1056.59375 237.125 Z M 1068.539062 254.746094 "/>
<path style="fill:none;stroke-width:9.99;stroke-linecap:butt;stroke-linejoin:miter;stroke:rgb(74.901961%,74.901961%,74.901961%);stroke-opacity:1;stroke-miterlimit:10;" d="M 5187.920667 630.379167 L 5370.896166 630.379167 " transform="matrix(0.211798,0,0,-0.133929,0,300)"/>
<path style=" stroke:none;fill-rule:nonzero;fill:rgb(74.901961%,74.901961%,74.901961%);fill-opacity:1;" d="M 1104.984375 226.304688 C 1106.738281 223.394531 1110.910156 221.574219 1115.507812 221.574219 C 1121.863281 221.574219 1126.03125 225.113281 1126.03125 228.984375 L 1126.03125 229.507812 C 1125.570312 233.921875 1120.871094 237.394531 1116.402344 240.554688 C 1112.628906 243.234375 1108.792969 245.953125 1104.984375 248.632812 L 1103.5625 249.636719 C 1102.96875 250.035156 1102.570312 250.308594 1102.570312 250.832031 C 1102.570312 251.082031 1102.667969 251.3125 1102.667969 251.5625 L 1131.859375 251.5625 L 1133.578125 242.335938 L 1131.625 242.335938 C 1131.230469 244.195312 1131.328125 246.8125 1128.449219 246.8125 C 1126.5625 246.960938 1124.578125 247.023438 1122.691406 247.023438 C 1120.738281 247.023438 1118.851562 246.960938 1116.933594 246.960938 L 1109.453125 246.960938 C 1112.796875 245.011719 1116.039062 242.898438 1119.511719 241.035156 L 1124.046875 238.589844 C 1128.746094 236.054688 1133.578125 233.292969 1133.578125 228.941406 L 1133.578125 228.460938 C 1132.816406 223.101562 1125.503906 220.195312 1117.394531 220.195312 C 1110.28125 220.195312 1102.667969 223.292969 1102.667969 228.460938 C 1102.667969 230.132812 1104.390625 231.035156 1106.507812 231.035156 C 1108.394531 231.035156 1110.378906 230.175781 1110.378906 228.648438 C 1110.378906 227.265625 1108.792969 226.160156 1106.574219 226.160156 C 1106.042969 226.160156 1105.515625 226.222656 1104.984375 226.304688 Z M 1104.984375 226.304688 "/>
<path style=" stroke:none;fill-rule:nonzero;fill:rgb(74.901961%,74.901961%,74.901961%);fill-opacity:1;" d="M 1177.609375 60.707031 L 1181.214844 60.707031 L 1181.214844 1.003906 L 1163.742188 1.003906 L 1163.742188 3.304688 L 1177.609375 3.304688 Z M 1177.609375 60.707031 "/>
<path style=" stroke:none;fill-rule:nonzero;fill:rgb(74.901961%,74.901961%,74.901961%);fill-opacity:1;" d="M 1177.609375 80.667969 L 1181.214844 80.667969 L 1181.214844 60.683594 L 1177.609375 60.683594 Z M 1177.609375 80.667969 "/>
<path style=" stroke:none;fill-rule:nonzero;fill:rgb(74.901961%,74.901961%,74.901961%);fill-opacity:1;" d="M 1177.609375 100.578125 L 1181.214844 100.578125 L 1181.214844 80.59375 L 1177.609375 80.59375 Z M 1177.609375 100.578125 "/>
<path style=" stroke:none;fill-rule:nonzero;fill:rgb(74.901961%,74.901961%,74.901961%);fill-opacity:1;" d="M 1177.609375 120.503906 L 1181.214844 120.503906 L 1181.214844 100.519531 L 1177.609375 100.519531 Z M 1177.609375 120.503906 "/>
<path style=" stroke:none;fill-rule:nonzero;fill:rgb(74.901961%,74.901961%,74.901961%);fill-opacity:1;" d="M 1177.609375 140.417969 L 1181.214844 140.417969 L 1181.214844 120.433594 L 1177.609375 120.433594 Z M 1177.609375 140.417969 "/>
<path style=" stroke:none;fill-rule:nonzero;fill:rgb(74.901961%,74.901961%,74.901961%);fill-opacity:1;" d="M 1177.609375 160.339844 L 1181.214844 160.339844 L 1181.214844 140.355469 L 1177.609375 140.355469 Z M 1177.609375 160.339844 "/>
<path style=" stroke:none;fill-rule:nonzero;fill:rgb(74.901961%,74.901961%,74.901961%);fill-opacity:1;" d="M 1177.609375 180.253906 L 1181.214844 180.253906 L 1181.214844 160.269531 L 1177.609375 160.269531 Z M 1177.609375 180.253906 "/>
<path style=" stroke:none;fill-rule:nonzero;fill:rgb(74.901961%,74.901961%,74.901961%);fill-opacity:1;" d="M 1177.609375 200.179688 L 1181.214844 200.179688 L 1181.214844 180.195312 L 1177.609375 180.195312 Z M 1177.609375 200.179688 "/>
<path style=" stroke:none;fill-rule:nonzero;fill:rgb(74.901961%,74.901961%,74.901961%);fill-opacity:1;" d="M 1177.609375 220.089844 L 1181.214844 220.089844 L 1181.214844 200.105469 L 1177.609375 200.105469 Z M 1177.609375 220.089844 "/>
<path style=" stroke:none;fill-rule:nonzero;fill:rgb(74.901961%,74.901961%,74.901961%);fill-opacity:1;" d="M 1177.609375 240.015625 L 1181.214844 240.015625 L 1181.214844 220.03125 L 1177.609375 220.03125 Z M 1177.609375 240.015625 "/>
<path style=" stroke:none;fill-rule:nonzero;fill:rgb(74.901961%,74.901961%,74.901961%);fill-opacity:1;" d="M 1177.609375 297.394531 L 1163.742188 297.394531 L 1163.742188 299.695312 L 1181.214844 299.695312 L 1181.214844 239.992188 L 1177.609375 239.992188 Z M 1177.609375 297.394531 "/>
<path style=" stroke:none;fill-rule:nonzero;fill:rgb(74.901961%,74.901961%,74.901961%);fill-opacity:1;" d="M 1548.496094 60.707031 L 1552.105469 60.707031 L 1552.105469 3.304688 L 1565.96875 3.304688 L 1565.96875 1.003906 L 1548.496094 1.003906 Z M 1548.496094 60.707031 "/>
<path style=" stroke:none;fill-rule:nonzero;fill:rgb(74.901961%,74.901961%,74.901961%);fill-opacity:1;" d="M 1548.496094 80.667969 L 1552.105469 80.667969 L 1552.105469 60.683594 L 1548.496094 60.683594 Z M 1548.496094 80.667969 "/>
<path style=" stroke:none;fill-rule:nonzero;fill:rgb(74.901961%,74.901961%,74.901961%);fill-opacity:1;" d="M 1548.496094 100.578125 L 1552.105469 100.578125 L 1552.105469 80.59375 L 1548.496094 80.59375 Z M 1548.496094 100.578125 "/>
<path style=" stroke:none;fill-rule:nonzero;fill:rgb(74.901961%,74.901961%,74.901961%);fill-opacity:1;" d="M 1548.496094 120.503906 L 1552.105469 120.503906 L 1552.105469 100.519531 L 1548.496094 100.519531 Z M 1548.496094 120.503906 "/>
<path style=" stroke:none;fill-rule:nonzero;fill:rgb(74.901961%,74.901961%,74.901961%);fill-opacity:1;" d="M 1548.496094 140.417969 L 1552.105469 140.417969 L 1552.105469 120.433594 L 1548.496094 120.433594 Z M 1548.496094 140.417969 "/>
<path style=" stroke:none;fill-rule:nonzero;fill:rgb(74.901961%,74.901961%,74.901961%);fill-opacity:1;" d="M 1548.496094 160.339844 L 1552.105469 160.339844 L 1552.105469 140.355469 L 1548.496094 140.355469 Z M 1548.496094 160.339844 "/>
<path style=" stroke:none;fill-rule:nonzero;fill:rgb(74.901961%,74.901961%,74.901961%);fill-opacity:1;" d="M 1548.496094 180.253906 L 1552.105469 180.253906 L 1552.105469 160.269531 L 1548.496094 160.269531 Z M 1548.496094 180.253906 "/>
<path style=" stroke:none;fill-rule:nonzero;fill:rgb(74.901961%,74.901961%,74.901961%);fill-opacity:1;" d="M 1548.496094 200.179688 L 1552.105469 200.179688 L 1552.105469 180.195312 L 1548.496094 180.195312 Z M 1548.496094 200.179688 "/>
<path style=" stroke:none;fill-rule:nonzero;fill:rgb(74.901961%,74.901961%,74.901961%);fill-opacity:1;" d="M 1548.496094 220.089844 L 1552.105469 220.089844 L 1552.105469 200.105469 L 1548.496094 200.105469 Z M 1548.496094 220.089844 "/>
<path style=" stroke:none;fill-rule:nonzero;fill:rgb(74.901961%,74.901961%,74.901961%);fill-opacity:1;" d="M 1548.496094 240.015625 L 1552.105469 240.015625 L 1552.105469 220.03125 L 1548.496094 220.03125 Z M 1548.496094 240.015625 "/>
<path style=" stroke:none;fill-rule:nonzero;fill:rgb(74.901961%,74.901961%,74.901961%);fill-opacity:1;" d="M 1548.496094 299.695312 L 1565.96875 299.695312 L 1565.96875 297.394531 L 1552.105469 297.394531 L 1552.105469 239.992188 L 1548.496094 239.992188 Z M 1548.496094 299.695312 "/>
<path style=" stroke:none;fill-rule:nonzero;fill:rgb(74.901961%,74.901961%,74.901961%);fill-opacity:1;" d="M 1610.367188 75.550781 C 1595.773438 76.554688 1595.246094 85.679688 1595.246094 92.144531 C 1595.246094 97.878906 1596.238281 107.484375 1611.660156 107.484375 C 1623.074219 107.484375 1627.839844 101.125 1627.839844 93.191406 L 1627.839844 90.410156 C 1627.839844 83.964844 1625.292969 75.488281 1611.757812 75.488281 C 1611.292969 75.488281 1610.832031 75.488281 1610.367188 75.550781 Z M 1602.523438 94.617188 C 1602.425781 94.238281 1602.425781 93.863281 1602.425781 93.484375 C 1602.425781 90.554688 1602.425781 87.648438 1602.757812 84.71875 C 1602.890625 82.855469 1603.121094 80.761719 1604.710938 79.128906 C 1606.296875 77.601562 1608.945312 76.703125 1611.660156 76.703125 C 1619.898438 76.703125 1620.59375 82.917969 1620.59375 87.648438 L 1620.59375 90.410156 C 1620.59375 91.75 1620.660156 93.234375 1620.660156 94.761719 C 1620.660156 97.878906 1620.363281 101.125 1618.707031 103.382812 C 1617.25 105.058594 1614.539062 106.398438 1611.527344 106.398438 L 1611.359375 106.398438 C 1606.59375 106.398438 1603.882812 103.425781 1603.285156 100.789062 C 1602.65625 98.738281 1602.824219 96.6875 1602.523438 94.617188 Z M 1602.523438 94.617188 "/>
<path style=" stroke:none;fill-rule:nonzero;fill:rgb(74.901961%,74.901961%,74.901961%);fill-opacity:1;" d="M 1822.902344 78.605469 L 1822.902344 79.988281 C 1826.277344 79.988281 1829.683594 79.800781 1832.929688 79.128906 L 1832.929688 104.804688 L 1832.796875 105.328125 L 1832.035156 105.476562 L 1823.265625 105.476562 L 1823.265625 106.921875 L 1849.640625 106.921875 L 1849.640625 105.519531 L 1841.566406 105.519531 C 1840.738281 105.519531 1840.042969 105.433594 1840.042969 104.847656 L 1840.042969 76.160156 C 1840.042969 75.929688 1840.042969 75.550781 1839.515625 75.550781 C 1838.390625 75.550781 1837.03125 76.554688 1835.808594 76.933594 C 1831.871094 78.273438 1827.335938 78.605469 1822.902344 78.605469 Z M 1822.902344 78.605469 "/>
<path style=" stroke:none;fill-rule:nonzero;fill:rgb(74.901961%,74.901961%,74.901961%);fill-opacity:1;" d="M 1610.019531 223.25 L 1610.019531 224.632812 C 1613.394531 224.632812 1616.800781 224.441406 1620.046875 223.773438 L 1620.046875 249.449219 L 1619.914062 249.972656 L 1619.152344 250.117188 L 1610.382812 250.117188 L 1610.382812 251.5625 L 1636.757812 251.5625 L 1636.757812 250.160156 L 1628.683594 250.160156 C 1627.855469 250.160156 1627.160156 250.078125 1627.160156 249.492188 L 1627.160156 220.800781 C 1627.160156 220.570312 1627.160156 220.195312 1626.632812 220.195312 C 1625.503906 220.195312 1624.148438 221.199219 1622.925781 221.574219 C 1618.988281 222.914062 1614.453125 223.25 1610.019531 223.25 Z M 1610.019531 223.25 "/>
<path style=" stroke:none;fill-rule:nonzero;fill:rgb(74.901961%,74.901961%,74.901961%);fill-opacity:1;" d="M 1847.441406 220.195312 C 1832.847656 221.199219 1832.316406 230.324219 1832.316406 236.789062 C 1832.316406 242.523438 1833.3125 252.128906 1848.730469 252.128906 C 1860.148438 252.128906 1864.914062 245.765625 1864.914062 237.835938 L 1864.914062 235.050781 C 1864.914062 228.605469 1862.367188 220.132812 1848.832031 220.132812 C 1848.367188 220.132812 1847.90625 220.132812 1847.441406 220.195312 Z M 1839.597656 239.257812 C 1839.5 238.882812 1839.5 238.503906 1839.5 238.128906 C 1839.5 235.199219 1839.5 232.289062 1839.832031 229.359375 C 1839.960938 227.496094 1840.195312 225.40625 1841.78125 223.773438 C 1843.371094 222.246094 1846.019531 221.34375 1848.730469 221.34375 C 1856.972656 221.34375 1857.667969 227.5625 1857.667969 232.289062 L 1857.667969 235.050781 C 1857.667969 236.390625 1857.734375 237.878906 1857.734375 239.40625 C 1857.734375 242.523438 1857.4375 245.765625 1855.78125 248.027344 C 1854.324219 249.699219 1851.613281 251.039062 1848.601562 251.039062 L 1848.433594 251.039062 C 1843.667969 251.039062 1840.957031 248.070312 1840.359375 245.429688 C 1839.730469 243.382812 1839.894531 241.328125 1839.597656 239.257812 Z M 1839.597656 239.257812 "/>
<path style=" stroke:none;fill-rule:nonzero;fill:rgb(74.901961%,74.901961%,74.901961%);fill-opacity:1;" d="M 1895.230469 60.707031 L 1898.839844 60.707031 L 1898.839844 1.003906 L 1881.363281 1.003906 L 1881.363281 3.304688 L 1895.230469 3.304688 Z M 1895.230469 60.707031 "/>
<path style=" stroke:none;fill-rule:nonzero;fill:rgb(74.901961%,74.901961%,74.901961%);fill-opacity:1;" d="M 1895.230469 80.667969 L 1898.839844 80.667969 L 1898.839844 60.683594 L 1895.230469 60.683594 Z M 1895.230469 80.667969 "/>
<path style=" stroke:none;fill-rule:nonzero;fill:rgb(74.901961%,74.901961%,74.901961%);fill-opacity:1;" d="M 1895.230469 100.578125 L 1898.839844 100.578125 L 1898.839844 80.59375 L 1895.230469 80.59375 Z M 1895.230469 100.578125 "/>
<path style=" stroke:none;fill-rule:nonzero;fill:rgb(74.901961%,74.901961%,74.901961%);fill-opacity:1;" d="M 1895.230469 120.503906 L 1898.839844 120.503906 L 1898.839844 100.519531 L 1895.230469 100.519531 Z M 1895.230469 120.503906 "/>
<path style=" stroke:none;fill-rule:nonzero;fill:rgb(74.901961%,74.901961%,74.901961%);fill-opacity:1;" d="M 1895.230469 140.417969 L 1898.839844 140.417969 L 1898.839844 120.433594 L 1895.230469 120.433594 Z M 1895.230469 140.417969 "/>
<path style=" stroke:none;fill-rule:nonzero;fill:rgb(74.901961%,74.901961%,74.901961%);fill-opacity:1;" d="M 1895.230469 160.339844 L 1898.839844 160.339844 L 1898.839844 140.355469 L 1895.230469 140.355469 Z M 1895.230469 160.339844 "/>
<path style=" stroke:none;fill-rule:nonzero;fill:rgb(74.901961%,74.901961%,74.901961%);fill-opacity:1;" d="M 1895.230469 180.253906 L 1898.839844 180.253906 L 1898.839844 160.269531 L 1895.230469 160.269531 Z M 1895.230469 180.253906 "/>
<path style=" stroke:none;fill-rule:nonzero;fill:rgb(74.901961%,74.901961%,74.901961%);fill-opacity:1;" d="M 1895.230469 200.179688 L 1898.839844 200.179688 L 1898.839844 180.195312 L 1895.230469 180.195312 Z M 1895.230469 200.179688 "/>
<path style=" stroke:none;fill-rule:nonzero;fill:rgb(74.901961%,74.901961%,74.901961%);fill-opacity:1;" d="M 1895.230469 220.089844 L 1898.839844 220.089844 L 1898.839844 200.105469 L 1895.230469 200.105469 Z M 1895.230469 220.089844 "/>
<path style=" stroke:none;fill-rule:nonzero;fill:rgb(74.901961%,74.901961%,74.901961%);fill-opacity:1;" d="M 1895.230469 240.015625 L 1898.839844 240.015625 L 1898.839844 220.03125 L 1895.230469 220.03125 Z M 1895.230469 240.015625 "/>
<path style=" stroke:none;fill-rule:nonzero;fill:rgb(74.901961%,74.901961%,74.901961%);fill-opacity:1;" d="M 1895.230469 297.394531 L 1881.363281 297.394531 L 1881.363281 299.695312 L 1898.839844 299.695312 L 1898.839844 239.992188 L 1895.230469 239.992188 Z M 1895.230469 297.394531 "/>
<path style=" stroke:none;fill-rule:nonzero;fill:rgb(74.901961%,74.901961%,74.901961%);fill-opacity:1;" d="M 1941.859375 60.707031 L 1945.464844 60.707031 L 1945.464844 3.304688 L 1959.332031 3.304688 L 1959.332031 1.003906 L 1941.859375 1.003906 Z M 1941.859375 60.707031 "/>
<path style=" stroke:none;fill-rule:nonzero;fill:rgb(74.901961%,74.901961%,74.901961%);fill-opacity:1;" d="M 1941.859375 80.667969 L 1945.464844 80.667969 L 1945.464844 60.683594 L 1941.859375 60.683594 Z M 1941.859375 80.667969 "/>
<path style=" stroke:none;fill-rule:nonzero;fill:rgb(74.901961%,74.901961%,74.901961%);fill-opacity:1;" d="M 1941.859375 100.578125 L 1945.464844 100.578125 L 1945.464844 80.59375 L 1941.859375 80.59375 Z M 1941.859375 100.578125 "/>
<path style=" stroke:none;fill-rule:nonzero;fill:rgb(74.901961%,74.901961%,74.901961%);fill-opacity:1;" d="M 1941.859375 120.503906 L 1945.464844 120.503906 L 1945.464844 100.519531 L 1941.859375 100.519531 Z M 1941.859375 120.503906 "/>
<path style=" stroke:none;fill-rule:nonzero;fill:rgb(74.901961%,74.901961%,74.901961%);fill-opacity:1;" d="M 1941.859375 140.417969 L 1945.464844 140.417969 L 1945.464844 120.433594 L 1941.859375 120.433594 Z M 1941.859375 140.417969 "/>
<path style=" stroke:none;fill-rule:nonzero;fill:rgb(74.901961%,74.901961%,74.901961%);fill-opacity:1;" d="M 1941.859375 160.339844 L 1945.464844 160.339844 L 1945.464844 140.355469 L 1941.859375 140.355469 Z M 1941.859375 160.339844 "/>
<path style=" stroke:none;fill-rule:nonzero;fill:rgb(74.901961%,74.901961%,74.901961%);fill-opacity:1;" d="M 1941.859375 180.253906 L 1945.464844 180.253906 L 1945.464844 160.269531 L 1941.859375 160.269531 Z M 1941.859375 180.253906 "/>
<path style=" stroke:none;fill-rule:nonzero;fill:rgb(74.901961%,74.901961%,74.901961%);fill-opacity:1;" d="M 1941.859375 200.179688 L 1945.464844 200.179688 L 1945.464844 180.195312 L 1941.859375 180.195312 Z M 1941.859375 200.179688 "/>
<path style=" stroke:none;fill-rule:nonzero;fill:rgb(74.901961%,74.901961%,74.901961%);fill-opacity:1;" d="M 1941.859375 220.089844 L 1945.464844 220.089844 L 1945.464844 200.105469 L 1941.859375 200.105469 Z M 1941.859375 220.089844 "/>
<path style=" stroke:none;fill-rule:nonzero;fill:rgb(74.901961%,74.901961%,74.901961%);fill-opacity:1;" d="M 1941.859375 240.015625 L 1945.464844 240.015625 L 1945.464844 220.03125 L 1941.859375 220.03125 Z M 1941.859375 240.015625 "/>
<path style=" stroke:none;fill-rule:nonzero;fill:rgb(74.901961%,74.901961%,74.901961%);fill-opacity:1;" d="M 1941.859375 299.695312 L 1959.332031 299.695312 L 1959.332031 297.394531 L 1945.464844 297.394531 L 1945.464844 239.992188 L 1941.859375 239.992188 Z M 1941.859375 299.695312 "/>
<path style=" stroke:none;fill-rule:nonzero;fill:rgb(74.901961%,74.901961%,74.901961%);fill-opacity:1;" d="M 1988.796875 78.605469 L 1988.796875 79.988281 C 1992.171875 79.988281 1995.582031 79.800781 1998.824219 79.128906 L 1998.824219 104.808594 L 1998.691406 105.328125 L 1997.929688 105.476562 L 1989.160156 105.476562 L 1989.160156 106.921875 L 2015.535156 106.921875 L 2015.535156 105.519531 L 2007.460938 105.519531 C 2006.632812 105.519531 2005.9375 105.433594 2005.9375 104.847656 L 2005.9375 76.160156 C 2005.9375 75.929688 2005.9375 75.550781 2005.410156 75.550781 C 2004.285156 75.550781 2002.925781 76.554688 2001.703125 76.933594 C 1997.765625 78.273438 1993.230469 78.605469 1988.796875 78.605469 Z M 1988.796875 78.605469 "/>
<path style=" stroke:none;fill-rule:nonzero;fill:rgb(74.901961%,74.901961%,74.901961%);fill-opacity:1;" d="M 2000.414062 220.195312 C 1985.816406 221.199219 1985.289062 230.324219 1985.289062 236.789062 C 1985.289062 242.523438 1986.28125 252.128906 2001.703125 252.128906 C 2013.121094 252.128906 2017.886719 245.765625 2017.886719 237.835938 L 2017.886719 235.050781 C 2017.886719 228.605469 2015.335938 220.132812 2001.800781 220.132812 C 2001.339844 220.132812 2000.875 220.132812 2000.414062 220.195312 Z M 1992.570312 239.257812 C 1992.46875 238.882812 1992.46875 238.503906 1992.46875 238.128906 C 1992.46875 235.199219 1992.46875 232.289062 1992.800781 229.359375 C 1992.933594 227.496094 1993.164062 225.40625 1994.753906 223.773438 C 1996.339844 222.246094 1998.988281 221.34375 2001.703125 221.34375 C 2009.941406 221.34375 2010.636719 227.5625 2010.636719 232.289062 L 2010.636719 235.050781 C 2010.636719 236.390625 2010.703125 237.878906 2010.703125 239.40625 C 2010.703125 242.523438 2010.40625 245.765625 2008.75 248.027344 C 2007.296875 249.699219 2004.582031 251.039062 2001.570312 251.039062 L 2001.40625 251.039062 C 1996.640625 251.039062 1993.925781 248.070312 1993.332031 245.433594 C 1992.703125 243.382812 1992.867188 241.332031 1992.570312 239.257812 Z M 1992.570312 239.257812 "/>
<path style=" stroke:none;fill-rule:nonzero;fill:rgb(74.901961%,74.901961%,74.901961%);fill-opacity:1;" d="M 2061.089844 60.707031 L 2064.695312 60.707031 L 2064.695312 1.003906 L 2047.222656 1.003906 L 2047.222656 3.304688 L 2061.089844 3.304688 Z M 2061.089844 60.707031 "/>
<path style=" stroke:none;fill-rule:nonzero;fill:rgb(74.901961%,74.901961%,74.901961%);fill-opacity:1;" d="M 2061.089844 80.667969 L 2064.695312 80.667969 L 2064.695312 60.683594 L 2061.089844 60.683594 Z M 2061.089844 80.667969 "/>
<path style=" stroke:none;fill-rule:nonzero;fill:rgb(74.901961%,74.901961%,74.901961%);fill-opacity:1;" d="M 2061.089844 100.582031 L 2064.695312 100.582031 L 2064.695312 80.59375 L 2061.089844 80.59375 Z M 2061.089844 100.582031 "/>
<path style=" stroke:none;fill-rule:nonzero;fill:rgb(74.901961%,74.901961%,74.901961%);fill-opacity:1;" d="M 2061.089844 120.503906 L 2064.695312 120.503906 L 2064.695312 100.519531 L 2061.089844 100.519531 Z M 2061.089844 120.503906 "/>
<path style=" stroke:none;fill-rule:nonzero;fill:rgb(74.901961%,74.901961%,74.901961%);fill-opacity:1;" d="M 2061.089844 140.417969 L 2064.695312 140.417969 L 2064.695312 120.433594 L 2061.089844 120.433594 Z M 2061.089844 140.417969 "/>
<path style=" stroke:none;fill-rule:nonzero;fill:rgb(74.901961%,74.901961%,74.901961%);fill-opacity:1;" d="M 2061.089844 160.339844 L 2064.695312 160.339844 L 2064.695312 140.355469 L 2061.089844 140.355469 Z M 2061.089844 160.339844 "/>
<path style=" stroke:none;fill-rule:nonzero;fill:rgb(74.901961%,74.901961%,74.901961%);fill-opacity:1;" d="M 2061.089844 180.253906 L 2064.695312 180.253906 L 2064.695312 160.269531 L 2061.089844 160.269531 Z M 2061.089844 180.253906 "/>
<path style=" stroke:none;fill-rule:nonzero;fill:rgb(74.901961%,74.901961%,74.901961%);fill-opacity:1;" d="M 2061.089844 200.179688 L 2064.695312 200.179688 L 2064.695312 180.195312 L 2061.089844 180.195312 Z M 2061.089844 200.179688 "/>
<path style=" stroke:none;fill-rule:nonzero;fill:rgb(74.901961%,74.901961%,74.901961%);fill-opacity:1;" d="M 2061.089844 220.089844 L 2064.695312 220.089844 L 2064.695312 200.105469 L 2061.089844 200.105469 Z M 2061.089844 220.089844 "/>
<path style=" stroke:none;fill-rule:nonzero;fill:rgb(74.901961%,74.901961%,74.901961%);fill-opacity:1;" d="M 2061.089844 240.015625 L 2064.695312 240.015625 L 2064.695312 220.03125 L 2061.089844 220.03125 Z M 2061.089844 240.015625 "/>
<path style=" stroke:none;fill-rule:nonzero;fill:rgb(74.901961%,74.901961%,74.901961%);fill-opacity:1;" d="M 2061.089844 297.394531 L 2047.222656 297.394531 L 2047.222656 299.695312 L 2064.695312 299.695312 L 2064.695312 239.992188 L 2061.089844 239.992188 Z M 2061.089844 297.394531 "/>
<path style=" stroke:none;fill-rule:nonzero;fill:rgb(74.901961%,74.901961%,74.901961%);fill-opacity:1;" d="M 2319.300781 60.707031 L 2322.90625 60.707031 L 2322.90625 3.304688 L 2336.773438 3.304688 L 2336.773438 1.003906 L 2319.300781 1.003906 Z M 2319.300781 60.707031 "/>
<path style=" stroke:none;fill-rule:nonzero;fill:rgb(74.901961%,74.901961%,74.901961%);fill-opacity:1;" d="M 2319.300781 80.667969 L 2322.90625 80.667969 L 2322.90625 60.683594 L 2319.300781 60.683594 Z M 2319.300781 80.667969 "/>
<path style=" stroke:none;fill-rule:nonzero;fill:rgb(74.901961%,74.901961%,74.901961%);fill-opacity:1;" d="M 2319.300781 100.582031 L 2322.90625 100.582031 L 2322.90625 80.59375 L 2319.300781 80.59375 Z M 2319.300781 100.582031 "/>
<path style=" stroke:none;fill-rule:nonzero;fill:rgb(74.901961%,74.901961%,74.901961%);fill-opacity:1;" d="M 2319.300781 120.503906 L 2322.90625 120.503906 L 2322.90625 100.519531 L 2319.300781 100.519531 Z M 2319.300781 120.503906 "/>
<path style=" stroke:none;fill-rule:nonzero;fill:rgb(74.901961%,74.901961%,74.901961%);fill-opacity:1;" d="M 2319.300781 140.417969 L 2322.90625 140.417969 L 2322.90625 120.433594 L 2319.300781 120.433594 Z M 2319.300781 140.417969 "/>
<path style=" stroke:none;fill-rule:nonzero;fill:rgb(74.901961%,74.901961%,74.901961%);fill-opacity:1;" d="M 2319.300781 160.34375 L 2322.90625 160.34375 L 2322.90625 140.355469 L 2319.300781 140.355469 Z M 2319.300781 160.34375 "/>
<path style=" stroke:none;fill-rule:nonzero;fill:rgb(74.901961%,74.901961%,74.901961%);fill-opacity:1;" d="M 2319.300781 180.253906 L 2322.90625 180.253906 L 2322.90625 160.269531 L 2319.300781 160.269531 Z M 2319.300781 180.253906 "/>
<path style=" stroke:none;fill-rule:nonzero;fill:rgb(74.901961%,74.901961%,74.901961%);fill-opacity:1;" d="M 2319.300781 200.179688 L 2322.90625 200.179688 L 2322.90625 180.195312 L 2319.300781 180.195312 Z M 2319.300781 200.179688 "/>
<path style=" stroke:none;fill-rule:nonzero;fill:rgb(74.901961%,74.901961%,74.901961%);fill-opacity:1;" d="M 2319.300781 220.09375 L 2322.90625 220.09375 L 2322.90625 200.105469 L 2319.300781 200.105469 Z M 2319.300781 220.09375 "/>
<path style=" stroke:none;fill-rule:nonzero;fill:rgb(74.901961%,74.901961%,74.901961%);fill-opacity:1;" d="M 2319.300781 240.015625 L 2322.90625 240.015625 L 2322.90625 220.03125 L 2319.300781 220.03125 Z M 2319.300781 240.015625 "/>
<path style=" stroke:none;fill-rule:nonzero;fill:rgb(74.901961%,74.901961%,74.901961%);fill-opacity:1;" d="M 2319.300781 299.695312 L 2336.773438 299.695312 L 2336.773438 297.394531 L 2322.90625 297.394531 L 2322.90625 239.992188 L 2319.300781 239.992188 Z M 2319.300781 299.695312 "/>
<path style=" stroke:none;fill-rule:nonzero;fill:rgb(74.901961%,74.901961%,74.901961%);fill-opacity:1;" d="M 2366.257812 78.605469 L 2366.257812 79.988281 C 2369.632812 79.988281 2373.042969 79.800781 2376.285156 79.128906 L 2376.285156 104.808594 L 2376.152344 105.332031 L 2375.394531 105.476562 L 2366.625 105.476562 L 2366.625 106.921875 L 2393 106.921875 L 2393 105.519531 L 2384.921875 105.519531 C 2384.097656 105.519531 2383.402344 105.433594 2383.402344 104.847656 L 2383.402344 76.160156 C 2383.402344 75.929688 2383.402344 75.550781 2382.871094 75.550781 C 2381.746094 75.550781 2380.390625 76.554688 2379.164062 76.933594 C 2375.226562 78.273438 2370.695312 78.605469 2366.257812 78.605469 Z M 2366.257812 78.605469 "/>
<path style=" stroke:none;fill-rule:nonzero;fill:rgb(74.901961%,74.901961%,74.901961%);fill-opacity:1;" d="M 2377.875 220.195312 C 2363.28125 221.199219 2362.75 230.324219 2362.75 236.789062 C 2362.75 242.523438 2363.742188 252.128906 2379.164062 252.128906 C 2390.582031 252.128906 2395.347656 245.765625 2395.347656 237.835938 L 2395.347656 235.050781 C 2395.347656 228.605469 2392.800781 220.132812 2379.265625 220.132812 C 2378.800781 220.132812 2378.339844 220.132812 2377.875 220.195312 Z M 2370.03125 239.257812 C 2369.933594 238.882812 2369.933594 238.503906 2369.933594 238.128906 C 2369.933594 235.199219 2369.933594 232.289062 2370.261719 229.359375 C 2370.394531 227.5 2370.628906 225.40625 2372.214844 223.773438 C 2373.804688 222.246094 2376.453125 221.347656 2379.164062 221.347656 C 2387.40625 221.347656 2388.101562 227.5625 2388.101562 232.289062 L 2388.101562 235.050781 C 2388.101562 236.390625 2388.167969 237.878906 2388.167969 239.40625 C 2388.167969 242.523438 2387.867188 245.765625 2386.214844 248.027344 C 2384.757812 249.699219 2382.042969 251.039062 2379.03125 251.039062 L 2378.867188 251.039062 C 2374.101562 251.039062 2371.386719 248.070312 2370.792969 245.433594 C 2370.164062 243.382812 2370.328125 241.332031 2370.03125 239.257812 Z M 2370.03125 239.257812 "/>
<path style=" stroke:none;fill-rule:nonzero;fill:rgb(74.901961%,74.901961%,74.901961%);fill-opacity:1;" d="M 2438.53125 60.707031 L 2442.140625 60.707031 L 2442.140625 1.003906 L 2424.664062 1.003906 L 2424.664062 3.304688 L 2438.53125 3.304688 Z M 2438.53125 60.707031 "/>
<path style=" stroke:none;fill-rule:nonzero;fill:rgb(74.901961%,74.901961%,74.901961%);fill-opacity:1;" d="M 2438.53125 80.667969 L 2442.140625 80.667969 L 2442.140625 60.683594 L 2438.53125 60.683594 Z M 2438.53125 80.667969 "/>
<path style=" stroke:none;fill-rule:nonzero;fill:rgb(74.901961%,74.901961%,74.901961%);fill-opacity:1;" d="M 2438.53125 100.582031 L 2442.140625 100.582031 L 2442.140625 80.597656 L 2438.53125 80.597656 Z M 2438.53125 100.582031 "/>
<path style=" stroke:none;fill-rule:nonzero;fill:rgb(74.901961%,74.901961%,74.901961%);fill-opacity:1;" d="M 2438.53125 120.503906 L 2442.140625 120.503906 L 2442.140625 100.519531 L 2438.53125 100.519531 Z M 2438.53125 120.503906 "/>
<path style=" stroke:none;fill-rule:nonzero;fill:rgb(74.901961%,74.901961%,74.901961%);fill-opacity:1;" d="M 2438.53125 140.417969 L 2442.140625 140.417969 L 2442.140625 120.433594 L 2438.53125 120.433594 Z M 2438.53125 140.417969 "/>
<path style=" stroke:none;fill-rule:nonzero;fill:rgb(74.901961%,74.901961%,74.901961%);fill-opacity:1;" d="M 2438.53125 160.34375 L 2442.140625 160.34375 L 2442.140625 140.355469 L 2438.53125 140.355469 Z M 2438.53125 160.34375 "/>
<path style=" stroke:none;fill-rule:nonzero;fill:rgb(74.901961%,74.901961%,74.901961%);fill-opacity:1;" d="M 2438.53125 180.253906 L 2442.140625 180.253906 L 2442.140625 160.269531 L 2438.53125 160.269531 Z M 2438.53125 180.253906 "/>
<path style=" stroke:none;fill-rule:nonzero;fill:rgb(74.901961%,74.901961%,74.901961%);fill-opacity:1;" d="M 2438.53125 200.179688 L 2442.140625 200.179688 L 2442.140625 180.195312 L 2438.53125 180.195312 Z M 2438.53125 200.179688 "/>
<path style=" stroke:none;fill-rule:nonzero;fill:rgb(74.901961%,74.901961%,74.901961%);fill-opacity:1;" d="M 2438.53125 220.09375 L 2442.140625 220.09375 L 2442.140625 200.105469 L 2438.53125 200.105469 Z M 2438.53125 220.09375 "/>
<path style=" stroke:none;fill-rule:nonzero;fill:rgb(74.901961%,74.901961%,74.901961%);fill-opacity:1;" d="M 2438.53125 240.015625 L 2442.140625 240.015625 L 2442.140625 220.03125 L 2438.53125 220.03125 Z M 2438.53125 240.015625 "/>
<path style=" stroke:none;fill-rule:nonzero;fill:rgb(74.901961%,74.901961%,74.901961%);fill-opacity:1;" d="M 2438.53125 297.394531 L 2424.664062 297.394531 L 2424.664062 299.695312 L 2442.140625 299.695312 L 2442.140625 239.992188 L 2438.53125 239.992188 Z M 2438.53125 297.394531 "/>
</g>
</svg>
