<?xml version="1.0" encoding="UTF-8"?>
<svg xmlns="http://www.w3.org/2000/svg" xmlns:xlink="http://www.w3.org/1999/xlink" width="1000px" height="300px" viewBox="0 0 1000 300" version="1.1">
<g id="surface1">
<path style=" stroke:none;fill-rule:nonzero;fill:rgb(74.901961%,74.901961%,74.901961%);fill-opacity:1;" d="M 1.214844 85.113281 C 1.214844 81.417969 1.214844 77.851562 0.855469 77.851562 C 0.507812 77.851562 0.507812 81.417969 0.507812 85.113281 L 0.507812 272.488281 C 0.507812 276.179688 0.507812 279.746094 0.855469 279.746094 C 1.214844 279.746094 1.214844 276.179688 1.214844 272.488281 Z M 1.214844 85.113281 "/>
<path style=" stroke:none;fill-rule:nonzero;fill:rgb(74.901961%,74.901961%,74.901961%);fill-opacity:1;" d="M 4 100.398438 L 4 108.804688 L 4.59375 108.804688 C 5.234375 108.804688 5.832031 109.699219 5.832031 118.105469 L 5.832031 216.183594 C 5.832031 220.261719 5.59375 220.515625 5.390625 220.515625 L 4 220.515625 L 4 229.050781 L 10.394531 229.050781 L 10.394531 220.515625 L 8.628906 220.515625 C 8.371094 220.515625 8.132812 220.515625 8.132812 216.824219 L 8.132812 187.652344 C 8.132812 181.027344 8.113281 174.023438 8.113281 167.273438 C 8.113281 143.199219 8.449219 104.730469 10.988281 104.730469 C 11.089844 104.730469 11.214844 104.984375 11.324219 104.984375 L 11.324219 105.367188 C 10.867188 107.40625 10.628906 112.628906 10.628906 117.851562 C 10.628906 125.363281 11.144531 131.480469 11.808594 131.480469 C 12.605469 131.480469 13.046875 124.855469 13.046875 117.851562 C 13.046875 105.367188 11.964844 97.980469 10.988281 97.980469 C 9.269531 97.980469 8.214844 117.59375 8.054688 134.664062 L 8.035156 97.980469 L 5.371094 99.507812 Z M 4 100.398438 "/>
<path style=" stroke:none;fill-rule:nonzero;fill:rgb(74.901961%,74.901961%,74.901961%);fill-opacity:1;" d="M 16.96875 161.160156 L 24.292969 161.160156 C 24.339844 161.160156 24.472656 161.539062 24.574219 161.539062 C 24.777344 161.539062 24.878906 160.648438 24.878906 158.609375 L 24.878906 157.082031 C 24.878906 141.925781 24.597656 125.746094 23.699219 113.519531 C 22.824219 101.546875 21.460938 97.214844 20.125 97.214844 C 16.382812 97.214844 14.507812 128.933594 14.507812 163.578125 C 14.507812 181.285156 14.96875 198.988281 16.070312 212.109375 C 17.226562 225.484375 18.867188 230.707031 20.460938 230.707031 L 20.597656 230.707031 C 22.382812 230.453125 24.113281 217.96875 24.777344 198.480469 C 24.800781 197.589844 24.855469 196.441406 24.855469 195.296875 C 24.855469 194.148438 24.777344 193.257812 24.675781 193.257812 L 24.542969 193.257812 C 24.113281 193.257812 24.003906 200.773438 23.800781 204.847656 C 23.160156 216.441406 22.058594 223.828125 20.84375 223.828125 C 17.304688 223.828125 16.96875 187.398438 16.96875 161.160156 Z M 16.96875 155.679688 C 16.96875 133.007812 17.609375 103.839844 20.023438 103.839844 C 22.183594 103.839844 22.699219 133.515625 22.699219 155.679688 Z M 16.96875 155.679688 "/>
<path style=" stroke:none;fill-rule:nonzero;fill:rgb(74.901961%,74.901961%,74.901961%);fill-opacity:1;" d="M 33.578125 29.324219 L 33.578125 37.730469 L 34.171875 37.730469 C 34.835938 37.730469 35.410156 38.621094 35.410156 47.917969 L 35.410156 114.027344 C 34.53125 104.09375 33.453125 97.980469 32.140625 97.980469 C 30.476562 97.980469 28.675781 105.621094 27.65625 121.035156 C 26.800781 133.515625 26.496094 149.820312 26.496094 164.980469 C 26.496094 195.804688 27.980469 230.707031 31.859375 230.707031 C 33.25 230.707031 34.398438 224.082031 35.351562 213.253906 L 35.351562 230.707031 L 39.535156 230.707031 L 39.535156 220.515625 L 38.894531 220.515625 C 38.253906 220.515625 37.710938 219.753906 37.710938 210.324219 L 37.710938 27.03125 L 34.972656 28.429688 Z M 28.957031 176.316406 L 28.957031 161.160156 C 28.957031 143.960938 29.058594 124.21875 30.375 112.628906 C 30.960938 107.40625 31.710938 104.730469 32.429688 104.730469 C 33.5 104.730469 34.429688 110.207031 35.152344 120.398438 C 35.230469 121.925781 35.332031 123.074219 35.351562 124.855469 L 35.351562 198.734375 C 35.351562 200.773438 35.351562 202.554688 35.25 204.210938 C 34.554688 216.183594 33.398438 224.082031 32.171875 224.082031 C 30.339844 224.082031 29.296875 207.777344 29.039062 187.398438 C 29.015625 183.578125 29.015625 180.136719 28.957031 176.316406 Z M 28.957031 176.316406 "/>
<path style=" stroke:none;fill-rule:nonzero;fill:rgb(74.901961%,74.901961%,74.901961%);fill-opacity:1;" d="M 56.933594 183.195312 C 57.269531 181.410156 57.292969 180.265625 57.292969 178.863281 C 57.292969 177.589844 57.257812 176.1875 56.933594 174.53125 L 47.292969 124.21875 C 47.066406 123.074219 47.023438 122.816406 46.988281 122.816406 C 46.773438 122.816406 46.652344 124.855469 46.652344 126.511719 C 46.652344 128.933594 46.796875 129.695312 47.023438 130.96875 L 56.191406 178.863281 L 47.011719 226.886719 C 46.652344 228.667969 46.652344 230.070312 46.652344 231.34375 C 46.652344 233 46.773438 234.910156 46.988281 234.910156 C 47.023438 234.910156 47.042969 234.78125 47.292969 233.507812 Z M 56.933594 183.195312 "/>
<path style=" stroke:none;fill-rule:nonzero;fill:rgb(74.901961%,74.901961%,74.901961%);fill-opacity:1;" d="M 80.136719 164.46875 C 80.40625 164.46875 80.664062 164.46875 80.664062 161.03125 C 80.664062 157.335938 80.359375 157.335938 80.058594 157.335938 L 70.101562 157.335938 C 69.796875 157.335938 69.496094 157.335938 69.496094 161.03125 C 69.496094 164.46875 69.765625 164.46875 70.035156 164.46875 Z M 80.058594 200.390625 C 80.359375 200.390625 80.664062 200.390625 80.664062 196.824219 C 80.664062 193.386719 80.40625 193.386719 80.136719 193.386719 L 70.035156 193.386719 C 69.765625 193.386719 69.496094 193.386719 69.496094 196.824219 C 69.496094 200.390625 69.796875 200.390625 70.101562 200.390625 Z M 80.058594 200.390625 "/>
<path style=" stroke:none;fill-rule:nonzero;fill:rgb(74.901961%,74.901961%,74.901961%);fill-opacity:1;" d="M 88.667969 56.707031 L 88.667969 65.117188 C 89.816406 65.117188 90.972656 63.96875 92.074219 59.894531 L 92.074219 216.183594 L 92.027344 219.371094 L 91.769531 220.261719 L 88.792969 220.261719 L 88.792969 229.050781 L 97.75 229.050781 L 97.75 220.515625 L 95.007812 220.515625 C 94.726562 220.515625 94.492188 220.007812 94.492188 216.441406 L 94.492188 41.804688 C 94.492188 40.402344 94.492188 38.113281 94.308594 38.113281 C 93.929688 38.113281 93.46875 44.226562 93.050781 46.519531 C 91.714844 54.671875 90.175781 56.707031 88.667969 56.707031 Z M 88.667969 56.707031 "/>
<path style=" stroke:none;fill-rule:nonzero;fill:rgb(74.901961%,74.901961%,74.901961%);fill-opacity:1;" d="M 110.875 10.980469 C 110.59375 12.125 110.414062 20.660156 110.289062 24.992188 C 107.234375 111.992188 104.480469 199.882812 101.421875 286.625 L 101.199219 293.886719 C 101.140625 295.03125 101.097656 296.5625 101.0625 297.960938 C 101.0625 299.746094 101.199219 301.527344 101.34375 301.527344 L 101.398438 301.527344 C 101.578125 301.144531 101.660156 299.492188 101.703125 297.707031 L 102.097656 286.371094 C 104.996094 198.480469 107.972656 111.097656 110.976562 23.589844 L 111.15625 17.984375 C 111.1875 16.839844 111.253906 15.691406 111.253906 14.164062 C 111.253906 12.125 111.109375 10.980469 110.953125 10.980469 Z M 110.875 10.980469 "/>
<path style=" stroke:none;fill-rule:nonzero;fill:rgb(74.901961%,74.901961%,74.901961%);fill-opacity:1;" d="M 120.324219 248.414062 C 120.886719 248.414062 120.898438 248.15625 121.078125 244.335938 L 130.832031 13.65625 C 130.957031 10.980469 130.957031 10.597656 130.957031 9.960938 C 130.957031 7.796875 130.8125 6.011719 130.597656 6.011719 C 130.359375 6.011719 130.292969 7.796875 130.203125 9.960938 L 121.011719 227.394531 L 117.214844 127.148438 L 114.730469 148.804688 L 115 151.988281 L 116.269531 141.160156 Z M 120.324219 248.414062 "/>
<path style="fill:none;stroke-width:9.99;stroke-linecap:butt;stroke-linejoin:miter;stroke:rgb(74.901961%,74.901961%,74.901961%);stroke-opacity:1;stroke-miterlimit:10;" d="M 1815.884125 357.771667 L 1998.808625 357.771667 " transform="matrix(0.0719217,0,0,-0.815217,0.000000000000130825,301.630435)"/>
<path style=" stroke:none;fill-rule:nonzero;fill:rgb(74.901961%,74.901961%,74.901961%);fill-opacity:1;" d="M 132.703125 75.300781 C 133.296875 57.597656 134.714844 46.515625 136.277344 46.515625 C 138.433594 46.515625 139.847656 68.042969 139.847656 91.605469 L 139.847656 94.792969 C 139.691406 121.667969 138.097656 142.8125 136.578125 162.046875 C 135.296875 178.351562 133.996094 194.910156 132.703125 211.214844 L 132.21875 217.328125 C 132.015625 219.75 131.882812 221.40625 131.882812 224.589844 C 131.882812 226.117188 131.914062 227.519531 131.914062 229.046875 L 141.828125 229.046875 L 142.410156 172.875 L 141.75 172.875 C 141.613281 184.210938 141.648438 200.132812 140.667969 200.132812 C 140.027344 201.023438 139.355469 201.40625 138.714844 201.40625 C 138.050781 201.40625 137.410156 201.023438 136.757812 201.023438 L 134.21875 201.023438 C 135.355469 189.179688 136.457031 176.3125 137.636719 164.976562 L 139.175781 150.074219 C 140.769531 134.660156 142.410156 117.847656 142.410156 91.351562 L 142.410156 88.421875 C 142.152344 55.8125 139.667969 38.109375 136.917969 38.109375 C 134.5 38.109375 131.914062 56.960938 131.914062 88.421875 C 131.914062 98.613281 132.5 104.089844 133.21875 104.089844 C 133.859375 104.089844 134.535156 98.867188 134.535156 89.570312 C 134.535156 81.160156 133.996094 74.410156 133.242188 74.410156 C 133.0625 74.410156 132.882812 74.792969 132.703125 75.300781 Z M 132.703125 75.300781 "/>
<path style=" stroke:none;fill-rule:nonzero;fill:rgb(74.901961%,74.901961%,74.901961%);fill-opacity:1;" d="M 154.242188 85.109375 C 154.242188 81.417969 154.242188 77.851562 153.882812 77.851562 C 153.535156 77.851562 153.535156 81.417969 153.535156 85.109375 L 153.535156 272.484375 C 153.535156 276.175781 153.535156 279.742188 153.882812 279.742188 C 154.242188 279.742188 154.242188 276.175781 154.242188 272.484375 Z M 154.242188 85.109375 "/>
<path style=" stroke:none;fill-rule:nonzero;fill:rgb(74.901961%,74.901961%,74.901961%);fill-opacity:1;" d="M 164.320312 29.320312 L 164.320312 37.726562 L 164.914062 37.726562 C 165.578125 37.726562 166.152344 38.617188 166.152344 47.917969 L 166.152344 114.023438 C 165.273438 104.089844 164.195312 97.976562 162.882812 97.976562 C 161.21875 97.976562 159.417969 105.617188 158.398438 121.03125 C 157.542969 133.515625 157.238281 149.820312 157.238281 164.976562 C 157.238281 195.800781 158.722656 230.703125 162.601562 230.703125 C 163.992188 230.703125 165.140625 224.078125 166.09375 213.253906 L 166.09375 230.703125 L 170.277344 230.703125 L 170.277344 220.511719 L 169.636719 220.511719 C 168.996094 220.511719 168.453125 219.75 168.453125 210.324219 L 168.453125 27.027344 L 165.714844 28.425781 Z M 159.699219 176.3125 L 159.699219 161.15625 C 159.699219 143.960938 159.800781 124.214844 161.117188 112.625 C 161.699219 107.402344 162.453125 104.726562 163.171875 104.726562 C 164.242188 104.726562 165.171875 110.203125 165.894531 120.394531 C 165.972656 121.921875 166.074219 123.070312 166.09375 124.851562 L 166.09375 198.730469 C 166.09375 200.769531 166.09375 202.554688 165.992188 204.207031 C 165.296875 216.183594 164.140625 224.078125 162.914062 224.078125 C 161.082031 224.078125 160.039062 207.773438 159.78125 187.394531 C 159.757812 183.574219 159.757812 180.132812 159.699219 176.3125 Z M 159.699219 176.3125 "/>
<path style=" stroke:none;fill-rule:nonzero;fill:rgb(74.901961%,74.901961%,74.901961%);fill-opacity:1;" d="M 171.851562 100.394531 L 171.851562 108.804688 L 172.355469 108.804688 C 173.007812 108.804688 173.570312 109.695312 173.570312 118.355469 L 173.570312 216.183594 C 173.570312 220.257812 173.335938 220.511719 173.132812 220.511719 L 171.75 220.511719 L 171.75 229.046875 L 177.527344 229.046875 L 177.527344 220.511719 L 176.347656 220.511719 C 176.109375 220.511719 175.875 220.511719 175.875 216.183594 L 175.875 97.976562 L 173.210938 99.503906 Z M 174.253906 28.171875 C 173.59375 29.320312 173.054688 35.6875 173.054688 43.839844 C 173.054688 52.375 173.695312 59.890625 174.46875 59.890625 C 175.210938 59.890625 175.875 52.882812 175.875 43.839844 C 175.875 35.433594 175.234375 27.917969 174.46875 27.917969 C 174.390625 27.917969 174.335938 28.171875 174.253906 28.171875 Z M 174.253906 28.171875 "/>
<path style=" stroke:none;fill-rule:nonzero;fill:rgb(74.901961%,74.901961%,74.901961%);fill-opacity:1;" d="M 181.1875 118.355469 C 181.90625 109.441406 182.886719 103.835938 183.988281 103.835938 C 185.761719 103.835938 186.605469 121.03125 186.605469 143.195312 C 186.605469 147.78125 186.582031 152.109375 186.582031 156.570312 C 183.707031 156.570312 179.246094 164.976562 179.246094 201.660156 C 179.246094 223.1875 181.570312 230.703125 183.246094 230.703125 C 184.605469 230.703125 186.378906 221.40625 186.707031 203.0625 L 186.742188 203.0625 C 186.742188 220.003906 187.820312 229.9375 189.101562 229.9375 C 190.203125 229.9375 191.101562 220.894531 191.257812 208.667969 L 191.257812 187.394531 L 190.59375 187.394531 L 190.59375 201.914062 C 190.59375 208.921875 190.484375 219.113281 189.742188 219.113281 C 189 219.113281 188.941406 207.519531 188.941406 201.660156 L 188.941406 137.082031 C 188.71875 107.402344 186.246094 97.210938 184.199219 97.210938 C 182.546875 97.210938 180.144531 107.019531 180.144531 131.222656 C 180.144531 140.011719 180.628906 145.742188 181.367188 145.742188 C 182.066406 145.742188 182.582031 139.628906 182.582031 131.859375 C 182.582031 124.214844 182.066406 118.101562 181.390625 118.101562 C 181.324219 118.101562 181.269531 118.355469 181.1875 118.355469 Z M 186.582031 161.15625 L 186.582031 188.03125 C 186.582031 205.992188 185.582031 223.441406 183.863281 224.078125 L 183.761719 224.078125 C 182.648438 224.078125 181.605469 214.398438 181.605469 201.40625 L 181.605469 200.769531 C 181.605469 172.492188 184.324219 162.683594 186.582031 161.15625 Z M 186.582031 161.15625 "/>
<path style=" stroke:none;fill-rule:nonzero;fill:rgb(74.901961%,74.901961%,74.901961%);fill-opacity:1;" d="M 192.179688 100.394531 L 192.179688 108.804688 L 192.773438 108.804688 C 193.414062 108.804688 194.011719 109.695312 194.011719 118.101562 L 194.011719 216.183594 C 194.011719 220.257812 193.773438 220.511719 193.570312 220.511719 L 192.179688 220.511719 L 192.179688 229.046875 L 198.191406 229.046875 L 198.191406 220.511719 L 196.808594 220.511719 C 196.59375 220.511719 196.371094 220.257812 196.371094 216.820312 L 196.371094 172.238281 C 196.371094 167.269531 196.335938 162.046875 196.335938 156.824219 C 196.335938 136.1875 197.054688 104.726562 199.730469 104.726562 C 201.292969 104.726562 201.324219 127.398438 201.324219 137.589844 L 201.324219 216.820312 C 201.324219 220.257812 201.089844 220.511719 200.886719 220.511719 L 199.492188 220.511719 L 199.492188 229.046875 L 205.507812 229.046875 L 205.507812 220.511719 L 204.125 220.511719 C 203.921875 220.511719 203.6875 220.257812 203.6875 216.820312 L 203.6875 172.238281 C 203.6875 167.269531 203.664062 162.046875 203.664062 156.824219 C 203.664062 136.1875 204.382812 104.726562 207.046875 104.726562 C 208.617188 104.726562 208.640625 127.398438 208.640625 137.589844 L 208.640625 216.820312 C 208.640625 220.257812 208.40625 220.511719 208.203125 220.511719 L 206.820312 220.511719 L 206.820312 229.046875 L 212.820312 229.046875 L 212.820312 220.511719 L 211.441406 220.511719 C 211.28125 220.257812 211.058594 220.511719 211 218.21875 L 211 141.921875 C 211 132.113281 210.980469 121.921875 210.539062 113.515625 C 209.878906 100.90625 208.585938 97.976562 207.40625 97.976562 C 205.867188 97.976562 204.707031 107.910156 204.023438 122.175781 C 203.886719 125.105469 203.742188 128.292969 203.6875 131.859375 L 203.664062 131.859375 C 203.503906 108.546875 202.167969 97.976562 200.144531 97.976562 C 198.246094 97.976562 196.695312 113.769531 196.292969 134.40625 L 196.269531 97.976562 L 193.570312 99.503906 Z M 192.179688 100.394531 "/>
<path style=" stroke:none;fill-rule:nonzero;fill:rgb(74.901961%,74.901961%,74.901961%);fill-opacity:1;" d="M 219.5 97.210938 C 218.398438 98.613281 217.339844 101.289062 216.417969 108.546875 C 214.800781 121.03125 214.082031 143.195312 214.082031 164.722656 C 214.082031 182.171875 214.542969 200.132812 215.644531 212.742188 C 216.757812 225.480469 218.398438 230.703125 219.960938 230.703125 C 223.433594 230.703125 225.769531 202.808594 225.769531 164.722656 C 225.769531 149.308594 225.433594 133.003906 224.554688 120.394531 C 223.433594 103.835938 221.601562 97.210938 219.78125 97.210938 Z M 216.542969 174.273438 L 216.542969 159.117188 C 216.542969 143.960938 216.578125 126 217.597656 114.28125 C 218.21875 107.402344 219.09375 103.835938 219.9375 103.835938 C 221.914062 103.835938 223.015625 120.394531 223.253906 142.558594 C 223.296875 149.820312 223.296875 157.078125 223.296875 164.339844 C 223.296875 179.878906 223.296875 197.585938 222.433594 210.324219 C 221.8125 219.113281 220.890625 223.441406 219.9375 223.441406 C 218.015625 223.441406 216.800781 206.882812 216.597656 183.0625 C 216.578125 180.132812 216.578125 177.203125 216.542969 174.273438 Z M 216.542969 174.273438 "/>
<path style=" stroke:none;fill-rule:nonzero;fill:rgb(74.901961%,74.901961%,74.901961%);fill-opacity:1;" d="M 227.25 100.394531 L 227.25 108.804688 L 227.847656 108.804688 C 228.488281 108.804688 229.082031 109.695312 229.082031 118.101562 L 229.082031 216.183594 C 229.082031 220.257812 228.847656 220.511719 228.644531 220.511719 L 227.25 220.511719 L 227.25 229.046875 L 233.265625 229.046875 L 233.265625 220.511719 L 231.882812 220.511719 C 231.667969 220.511719 231.441406 220.257812 231.441406 216.820312 L 231.441406 171.726562 C 231.441406 166.757812 231.410156 161.539062 231.410156 156.570312 C 231.410156 135.933594 232.242188 104.726562 234.78125 104.726562 C 236.320312 104.726562 236.367188 126.253906 236.367188 137.589844 L 236.367188 216.820312 C 236.367188 220.257812 236.140625 220.511719 235.9375 220.511719 L 234.542969 220.511719 L 234.542969 229.046875 L 240.558594 229.046875 L 240.558594 220.511719 L 239.175781 220.511719 C 239.015625 220.257812 238.78125 220.511719 238.738281 218.21875 L 238.738281 141.921875 C 238.738281 132.113281 238.703125 121.921875 238.277344 113.515625 C 237.601562 100.652344 236.320312 97.976562 235.105469 97.976562 C 233.265625 97.976562 231.621094 115.171875 231.363281 134.40625 L 231.34375 97.976562 L 228.644531 99.503906 Z M 227.25 100.394531 "/>
<path style=" stroke:none;fill-rule:nonzero;fill:rgb(74.901961%,74.901961%,74.901961%);fill-opacity:1;" d="M 249.078125 29.320312 L 249.078125 37.726562 L 249.671875 37.726562 C 250.335938 37.726562 250.910156 38.617188 250.910156 47.917969 L 250.910156 114.023438 C 250.03125 104.089844 248.953125 97.976562 247.640625 97.976562 C 245.976562 97.976562 244.175781 105.617188 243.15625 121.03125 C 242.300781 133.515625 241.996094 149.820312 241.996094 164.976562 C 241.996094 195.800781 243.480469 230.703125 247.359375 230.703125 C 248.75 230.703125 249.898438 224.078125 250.851562 213.253906 L 250.851562 230.703125 L 255.035156 230.703125 L 255.035156 220.511719 L 254.394531 220.511719 C 253.753906 220.511719 253.210938 219.75 253.210938 210.324219 L 253.210938 27.027344 L 250.472656 28.425781 Z M 244.457031 176.3125 L 244.457031 161.15625 C 244.457031 143.960938 244.558594 124.214844 245.875 112.625 C 246.457031 107.402344 247.210938 104.726562 247.929688 104.726562 C 249 104.726562 249.929688 110.203125 250.652344 120.394531 C 250.730469 121.921875 250.832031 123.070312 250.851562 124.851562 L 250.851562 198.730469 C 250.851562 200.769531 250.851562 202.554688 250.75 204.207031 C 250.054688 216.183594 248.898438 224.078125 247.671875 224.078125 C 245.839844 224.078125 244.796875 207.773438 244.539062 187.394531 C 244.515625 183.574219 244.515625 180.132812 244.457031 176.3125 Z M 244.457031 176.3125 "/>
<path style=" stroke:none;fill-rule:nonzero;fill:rgb(74.901961%,74.901961%,74.901961%);fill-opacity:1;" d="M 272.46875 183.191406 C 272.808594 181.40625 272.828125 180.261719 272.828125 178.859375 C 272.828125 177.585938 272.796875 176.1875 272.46875 174.53125 L 262.828125 124.214844 C 262.601562 123.070312 262.558594 122.8125 262.523438 122.8125 C 262.3125 122.8125 262.1875 124.851562 262.1875 126.507812 C 262.1875 128.929688 262.332031 129.691406 262.558594 130.964844 L 271.726562 178.859375 L 262.546875 226.882812 C 262.1875 228.664062 262.1875 230.066406 262.1875 231.339844 C 262.1875 232.996094 262.3125 234.90625 262.523438 234.90625 C 262.558594 234.90625 262.582031 234.78125 262.828125 233.503906 Z M 272.46875 183.191406 "/>
<path style=" stroke:none;fill-rule:nonzero;fill:rgb(74.901961%,74.901961%,74.901961%);fill-opacity:1;" d="M 289.933594 182.425781 L 294.652344 182.425781 C 294.902344 182.425781 295.203125 182.425781 295.203125 178.988281 C 295.203125 175.421875 294.921875 175.421875 294.652344 175.421875 L 289.933594 175.421875 L 289.933594 121.796875 C 289.933594 118.992188 289.933594 115.554688 289.628906 115.554688 C 289.304688 115.554688 289.304688 118.738281 289.304688 121.796875 L 289.304688 175.421875 L 284.585938 175.421875 C 284.335938 175.421875 284.035156 175.421875 284.035156 178.859375 C 284.035156 182.425781 284.316406 182.425781 284.585938 182.425781 L 289.304688 182.425781 L 289.304688 235.925781 C 289.304688 238.855469 289.304688 242.292969 289.609375 242.292969 C 289.933594 242.292969 289.933594 238.984375 289.933594 235.925781 Z M 289.933594 182.425781 "/>
<path style=" stroke:none;fill-rule:nonzero;fill:rgb(74.901961%,74.901961%,74.901961%);fill-opacity:1;" d="M 302.226562 56.707031 L 302.226562 65.113281 C 303.371094 65.113281 304.527344 63.964844 305.628906 59.890625 L 305.628906 216.183594 L 305.585938 219.367188 L 305.328125 220.257812 L 302.347656 220.257812 L 302.347656 229.046875 L 311.304688 229.046875 L 311.304688 220.511719 L 308.5625 220.511719 C 308.28125 220.511719 308.046875 220.003906 308.046875 216.4375 L 308.046875 41.800781 C 308.046875 40.402344 308.046875 38.109375 307.867188 38.109375 C 307.484375 38.109375 307.023438 44.222656 306.609375 46.515625 C 305.269531 54.667969 303.730469 56.707031 302.226562 56.707031 Z M 302.226562 56.707031 "/>
<path style=" stroke:none;fill-rule:nonzero;fill:rgb(74.901961%,74.901961%,74.901961%);fill-opacity:1;" d="M 324.429688 10.976562 C 324.148438 12.125 323.96875 20.65625 323.84375 24.988281 C 320.789062 111.988281 318.035156 199.878906 314.980469 286.621094 L 314.753906 293.882812 C 314.699219 295.027344 314.652344 296.558594 314.617188 297.957031 C 314.617188 299.742188 314.753906 301.523438 314.898438 301.523438 L 314.957031 301.523438 C 315.136719 301.144531 315.214844 299.488281 315.257812 297.703125 L 315.652344 286.367188 C 318.550781 198.476562 321.53125 111.09375 324.53125 23.585938 L 324.710938 17.984375 C 324.746094 16.835938 324.8125 15.691406 324.8125 14.160156 C 324.8125 12.125 324.664062 10.976562 324.507812 10.976562 Z M 324.429688 10.976562 "/>
<path style=" stroke:none;fill-rule:nonzero;fill:rgb(74.901961%,74.901961%,74.901961%);fill-opacity:1;" d="M 333.875 248.410156 C 334.4375 248.410156 334.449219 248.15625 334.628906 244.335938 L 344.382812 13.65625 C 344.507812 10.980469 344.507812 10.597656 344.507812 9.960938 C 344.507812 7.796875 344.359375 6.011719 344.144531 6.011719 C 343.910156 6.011719 343.84375 7.796875 343.753906 9.960938 L 334.5625 227.394531 L 330.761719 127.148438 L 328.277344 148.800781 L 328.546875 151.988281 L 329.816406 141.160156 Z M 333.875 248.410156 "/>
<path style="fill:none;stroke-width:9.99;stroke-linecap:butt;stroke-linejoin:miter;stroke:rgb(74.901961%,74.901961%,74.901961%);stroke-opacity:1;stroke-miterlimit:10;" d="M 4785.094187 357.771667 L 4968.073 357.771667 " transform="matrix(0.0719217,0,0,-0.815217,0.000000000000130825,301.630435)"/>
<path style=" stroke:none;fill-rule:nonzero;fill:rgb(74.901961%,74.901961%,74.901961%);fill-opacity:1;" d="M 346.25 75.300781 C 346.847656 57.597656 348.261719 46.515625 349.824219 46.515625 C 351.984375 46.515625 353.398438 68.042969 353.398438 91.605469 L 353.398438 94.792969 C 353.242188 121.667969 351.644531 142.8125 350.128906 162.046875 C 348.847656 178.351562 347.542969 194.910156 346.25 211.214844 L 345.769531 217.328125 C 345.566406 219.75 345.429688 221.40625 345.429688 224.589844 C 345.429688 226.117188 345.464844 227.519531 345.464844 229.046875 L 355.375 229.046875 L 355.960938 172.875 L 355.296875 172.875 C 355.164062 184.210938 355.195312 200.132812 354.21875 200.132812 C 353.578125 201.023438 352.902344 201.40625 352.261719 201.40625 C 351.601562 201.40625 350.960938 201.023438 350.308594 201.023438 L 347.769531 201.023438 C 348.902344 189.179688 350.003906 176.3125 351.183594 164.976562 L 352.722656 150.074219 C 354.320312 134.660156 355.960938 117.847656 355.960938 91.351562 L 355.960938 88.421875 C 355.703125 55.8125 353.21875 38.109375 350.464844 38.109375 C 348.050781 38.109375 345.464844 56.960938 345.464844 88.421875 C 345.464844 98.613281 346.050781 104.089844 346.769531 104.089844 C 347.410156 104.089844 348.082031 98.867188 348.082031 89.570312 C 348.082031 81.160156 347.542969 74.410156 346.789062 74.410156 C 346.609375 74.410156 346.429688 74.792969 346.25 75.300781 Z M 346.25 75.300781 "/>
<path style=" stroke:none;fill-rule:nonzero;fill:rgb(74.901961%,74.901961%,74.901961%);fill-opacity:1;" d="M 367.792969 85.109375 C 367.792969 81.417969 367.792969 77.851562 367.433594 77.851562 C 367.085938 77.851562 367.085938 81.417969 367.085938 85.109375 L 367.085938 272.484375 C 367.085938 276.175781 367.085938 279.742188 367.433594 279.742188 C 367.792969 279.742188 367.792969 276.175781 367.792969 272.484375 Z M 367.792969 85.109375 "/>
<path style=" stroke:none;fill-rule:nonzero;fill:rgb(74.901961%,74.901961%,74.901961%);fill-opacity:1;" d="M 374.507812 97.210938 C 372.6875 99.25 370.789062 107.019531 370.789062 133.894531 C 370.789062 159.753906 372.992188 169.050781 374.925781 172.875 C 376.003906 175.167969 377.949219 178.988281 377.949219 199.367188 C 377.949219 217.328125 376.566406 224.078125 375.171875 224.078125 C 373.40625 224.078125 371.890625 210.960938 371.507812 184.210938 C 371.429688 181.28125 371.40625 180.644531 371.09375 180.644531 C 370.8125 180.644531 370.789062 181.535156 370.789062 183.574219 L 370.789062 227.902344 C 370.789062 229.046875 370.8125 230.449219 370.914062 230.449219 L 370.96875 230.449219 C 371.292969 230.449219 371.890625 219.113281 372.171875 218.21875 L 372.195312 218.21875 C 372.40625 218.21875 372.992188 225.480469 373.554688 227.902344 C 374.070312 229.9375 374.609375 230.703125 375.148438 230.703125 C 377.363281 230.703125 379.386719 219.113281 379.386719 190.578125 C 379.386719 170.199219 378.082031 154.148438 376.328125 149.5625 C 374.8125 145.234375 372.226562 144.851562 372.226562 124.214844 C 372.226562 106.765625 373.890625 103.582031 374.925781 103.582031 C 376.566406 103.582031 377.6875 111.476562 378.046875 135.296875 C 378.046875 137.589844 378.105469 139.375 378.363281 139.375 C 378.566406 139.375 378.722656 138.738281 378.722656 136.445312 L 378.722656 100.015625 C 378.722656 98.613281 378.6875 97.464844 378.542969 97.464844 C 378.207031 97.464844 377.789062 105.363281 377.542969 105.363281 C 377.363281 105.363281 376.902344 101.542969 376.585938 100.015625 C 376.046875 97.976562 375.488281 96.828125 374.925781 96.828125 C 374.789062 96.828125 374.632812 97.210938 374.507812 97.210938 Z M 374.507812 97.210938 "/>
<path style=" stroke:none;fill-rule:nonzero;fill:rgb(74.901961%,74.901961%,74.901961%);fill-opacity:1;" d="M 390.019531 211.597656 L 390.019531 271.847656 L 389.941406 276.175781 L 389.457031 277.070312 L 388.199219 277.070312 L 388.199219 285.476562 L 394.199219 285.476562 L 394.199219 277.070312 L 392.875 277.070312 C 392.660156 276.433594 392.378906 277.324219 392.378906 273.246094 L 392.378906 97.976562 L 391.792969 98.613281 L 390.355469 124.851562 C 389.605469 109.695312 388.457031 97.976562 386.78125 97.976562 C 383.804688 97.976562 381.164062 121.03125 381.164062 164.976562 C 381.164062 198.476562 382.929688 230.703125 386.558594 230.703125 C 387.960938 230.703125 389.121094 223.441406 390.019531 211.597656 Z M 383.625 170.453125 L 383.625 166.757812 C 383.625 143.449219 384.242188 104.980469 387.140625 104.980469 C 388.738281 104.980469 390.097656 124.214844 390.097656 141.15625 C 390.097656 144.597656 390.074219 148.035156 390.074219 151.601562 L 390.074219 195.800781 C 390.074219 198.984375 389.964844 200.769531 389.839844 203.445312 C 389.222656 214.78125 388.121094 224.078125 386.941406 224.078125 C 384.960938 224.078125 384.007812 201.914062 383.726562 182.683594 C 383.679688 178.605469 383.679688 174.53125 383.625 170.453125 Z M 383.625 170.453125 "/>
<path style=" stroke:none;fill-rule:nonzero;fill:rgb(74.901961%,74.901961%,74.901961%);fill-opacity:1;" d="M 394.921875 100.394531 L 394.921875 108.804688 L 395.5625 108.804688 C 396.078125 108.804688 396.695312 109.441406 396.753906 116.0625 L 396.753906 191.214844 C 396.753906 199.878906 396.796875 208.285156 397.214844 215.925781 C 397.898438 228.410156 399.496094 231.085938 400.628906 231.085938 C 402.058594 231.085938 403.609375 222.296875 404.070312 201.660156 L 404.089844 230.703125 L 408.226562 230.703125 L 408.226562 220.511719 L 407.632812 220.511719 C 406.992188 220.511719 406.40625 219.75 406.40625 210.960938 L 406.40625 97.976562 L 402.214844 100.394531 L 402.214844 108.804688 L 402.753906 108.804688 C 403.449219 108.804688 404.035156 109.695312 404.035156 118.355469 L 404.035156 185.613281 C 403.890625 203.445312 403.035156 224.078125 401.113281 224.078125 C 400.15625 224.078125 399.257812 223.1875 399.136719 205.738281 C 399.113281 199.625 399.113281 193.765625 399.113281 187.648438 L 399.113281 97.976562 L 396.335938 99.503906 Z M 394.921875 100.394531 "/>
<path style=" stroke:none;fill-rule:nonzero;fill:rgb(74.901961%,74.901961%,74.901961%);fill-opacity:1;" d="M 411.691406 118.355469 C 412.410156 109.441406 413.386719 103.835938 414.488281 103.835938 C 416.261719 103.835938 417.105469 121.03125 417.105469 143.195312 C 417.105469 147.78125 417.085938 152.109375 417.085938 156.570312 C 414.207031 156.570312 409.746094 164.976562 409.746094 201.660156 C 409.746094 223.1875 412.070312 230.703125 413.746094 230.703125 C 415.105469 230.703125 416.882812 221.40625 417.207031 203.0625 L 417.242188 203.0625 C 417.242188 220.003906 418.320312 229.9375 419.601562 229.9375 C 420.703125 229.9375 421.601562 220.894531 421.757812 208.667969 L 421.757812 187.394531 L 421.097656 187.394531 L 421.097656 201.914062 C 421.097656 208.921875 420.984375 219.113281 420.242188 219.113281 C 419.5 219.113281 419.445312 207.519531 419.445312 201.660156 L 419.445312 137.082031 C 419.21875 107.402344 416.746094 97.210938 414.703125 97.210938 C 413.050781 97.210938 410.644531 107.019531 410.644531 131.222656 C 410.644531 140.011719 411.128906 145.742188 411.871094 145.742188 C 412.566406 145.742188 413.082031 139.628906 413.082031 131.859375 C 413.082031 124.214844 412.566406 118.101562 411.890625 118.101562 C 411.824219 118.101562 411.769531 118.355469 411.691406 118.355469 Z M 417.085938 161.15625 L 417.085938 188.03125 C 417.085938 205.992188 416.082031 223.441406 414.363281 224.078125 L 414.261719 224.078125 C 413.152344 224.078125 412.105469 214.398438 412.105469 201.40625 L 412.105469 200.769531 C 412.105469 172.492188 414.824219 162.683594 417.085938 161.15625 Z M 417.085938 161.15625 "/>
<path style=" stroke:none;fill-rule:nonzero;fill:rgb(74.901961%,74.901961%,74.901961%);fill-opacity:1;" d="M 422.601562 100.394531 L 422.601562 108.804688 L 423.195312 108.804688 C 423.835938 108.804688 424.433594 109.695312 424.433594 118.101562 L 424.433594 216.183594 C 424.433594 220.257812 424.195312 220.511719 423.992188 220.511719 L 422.601562 220.511719 L 422.601562 229.046875 L 428.996094 229.046875 L 428.996094 220.511719 L 427.230469 220.511719 C 426.972656 220.511719 426.734375 220.511719 426.734375 216.820312 L 426.734375 187.648438 C 426.734375 181.027344 426.714844 174.019531 426.714844 167.269531 C 426.714844 143.195312 427.050781 104.726562 429.589844 104.726562 C 429.691406 104.726562 429.816406 104.980469 429.925781 104.980469 L 429.925781 105.363281 C 429.464844 107.402344 429.230469 112.625 429.230469 117.847656 C 429.230469 125.363281 429.746094 131.476562 430.410156 131.476562 C 431.207031 131.476562 431.648438 124.851562 431.648438 117.847656 C 431.648438 105.363281 430.566406 97.976562 429.589844 97.976562 C 427.871094 97.976562 426.816406 117.59375 426.65625 134.660156 L 426.636719 97.976562 L 423.972656 99.503906 Z M 422.601562 100.394531 "/>
<path style=" stroke:none;fill-rule:nonzero;fill:rgb(74.901961%,74.901961%,74.901961%);fill-opacity:1;" d="M 435.570312 161.15625 L 442.894531 161.15625 C 442.941406 161.15625 443.074219 161.539062 443.175781 161.539062 C 443.378906 161.539062 443.480469 160.644531 443.480469 158.609375 L 443.480469 157.078125 C 443.480469 141.921875 443.199219 125.742188 442.300781 113.515625 C 441.425781 101.542969 440.0625 97.210938 438.726562 97.210938 C 434.984375 97.210938 433.109375 128.929688 433.109375 163.574219 C 433.109375 181.28125 433.570312 198.984375 434.671875 212.105469 C 435.828125 225.480469 437.46875 230.703125 439.0625 230.703125 L 439.199219 230.703125 C 440.984375 230.449219 442.714844 217.964844 443.378906 198.476562 C 443.402344 197.585938 443.457031 196.4375 443.457031 195.292969 C 443.457031 194.144531 443.378906 193.253906 443.277344 193.253906 L 443.144531 193.253906 C 442.714844 193.253906 442.605469 200.769531 442.402344 204.84375 C 441.761719 216.4375 440.660156 223.824219 439.445312 223.824219 C 435.90625 223.824219 435.570312 187.394531 435.570312 161.15625 Z M 435.570312 155.679688 C 435.570312 133.003906 436.210938 103.835938 438.625 103.835938 C 440.785156 103.835938 441.300781 133.515625 441.300781 155.679688 Z M 435.570312 155.679688 "/>
<path style=" stroke:none;fill-rule:nonzero;fill:rgb(74.901961%,74.901961%,74.901961%);fill-opacity:1;" d="M 460.941406 183.191406 C 461.28125 181.40625 461.304688 180.261719 461.304688 178.859375 C 461.304688 177.585938 461.269531 176.1875 460.941406 174.53125 L 451.300781 124.214844 C 451.078125 123.070312 451.03125 122.8125 450.996094 122.8125 C 450.785156 122.8125 450.660156 124.851562 450.660156 126.507812 C 450.660156 128.929688 450.808594 129.691406 451.03125 130.964844 L 460.203125 178.859375 L 451.019531 226.882812 C 450.660156 228.664062 450.660156 230.066406 450.660156 231.339844 C 450.660156 232.996094 450.785156 234.90625 450.996094 234.90625 C 451.03125 234.90625 451.054688 234.78125 451.300781 233.503906 Z M 460.941406 183.191406 "/>
<path style=" stroke:none;fill-rule:nonzero;fill:rgb(74.901961%,74.901961%,74.901961%);fill-opacity:1;" d="M 526.832031 85.109375 C 526.832031 81.417969 526.832031 77.851562 526.472656 77.851562 C 526.125 77.851562 526.125 81.417969 526.125 85.109375 L 526.125 272.484375 C 526.125 276.175781 526.125 279.742188 526.472656 279.742188 C 526.832031 279.742188 526.832031 276.175781 526.832031 272.484375 Z M 526.832031 85.109375 "/>
<path style=" stroke:none;fill-rule:nonzero;fill:rgb(74.901961%,74.901961%,74.901961%);fill-opacity:1;" d="M 529.617188 29.320312 L 529.617188 37.726562 L 530.269531 37.726562 C 530.875 37.726562 531.449219 38.617188 531.449219 47.660156 L 531.449219 229.046875 L 532.109375 228.410156 L 533.527344 210.324219 C 534.246094 224.078125 535.761719 230.703125 537.089844 230.703125 C 538.347656 230.703125 539.683594 226.117188 540.683594 217.074219 C 542.101562 204.207031 542.664062 183.957031 542.664062 163.828125 C 542.664062 133.003906 541.125 97.722656 537.347656 97.722656 C 536.011719 97.722656 534.707031 104.472656 533.75 114.917969 L 533.75 27.027344 L 531.007812 28.425781 Z M 540.179688 176.058594 C 540.179688 199.878906 539.101562 224.078125 536.707031 224.078125 C 535.550781 224.078125 534.550781 216.820312 533.929688 205.992188 C 533.808594 203.953125 533.808594 201.914062 533.808594 199.625 L 533.808594 126 C 533.964844 115.554688 535.730469 104.726562 536.964844 104.726562 C 537.628906 104.726562 538.304688 107.019531 538.863281 112.242188 C 540.144531 123.707031 540.203125 143.703125 540.203125 160.644531 L 540.203125 168.414062 C 540.203125 171.089844 540.203125 173.765625 540.179688 176.058594 Z M 540.179688 176.058594 "/>
<path style=" stroke:none;fill-rule:nonzero;fill:rgb(74.901961%,74.901961%,74.901961%);fill-opacity:1;" d="M 544.339844 29.320312 L 544.339844 37.726562 L 544.980469 37.726562 C 545.621094 37.726562 546.160156 39 546.160156 48.296875 L 546.160156 217.074219 C 546.160156 220.511719 545.878906 220.003906 545.664062 220.511719 L 544.339844 220.511719 L 544.339844 229.046875 L 550.296875 229.046875 L 550.296875 220.511719 L 548.957031 220.511719 C 548.757812 220.003906 548.464844 220.894531 548.464844 216.820312 L 548.464844 27.027344 L 545.722656 28.425781 Z M 544.339844 29.320312 "/>
<path style=" stroke:none;fill-rule:nonzero;fill:rgb(74.901961%,74.901961%,74.901961%);fill-opacity:1;" d="M 551.621094 100.394531 L 551.621094 108.804688 L 552.261719 108.804688 C 552.777344 108.804688 553.398438 109.441406 553.453125 116.0625 L 553.453125 191.214844 C 553.453125 199.878906 553.496094 208.285156 553.914062 215.925781 C 554.597656 228.410156 556.195312 231.085938 557.328125 231.085938 C 558.757812 231.085938 560.308594 222.296875 560.769531 201.660156 L 560.792969 230.703125 L 564.925781 230.703125 L 564.925781 220.511719 L 564.332031 220.511719 C 563.691406 220.511719 563.105469 219.75 563.105469 210.960938 L 563.105469 97.976562 L 558.914062 100.394531 L 558.914062 108.804688 L 559.453125 108.804688 C 560.152344 108.804688 560.734375 109.695312 560.734375 118.355469 L 560.734375 185.613281 C 560.589844 203.445312 559.734375 224.078125 557.8125 224.078125 C 556.859375 224.078125 555.960938 223.1875 555.835938 205.738281 C 555.8125 199.625 555.8125 193.765625 555.8125 187.648438 L 555.8125 97.976562 L 553.039062 99.503906 Z M 551.621094 100.394531 "/>
<path style=" stroke:none;fill-rule:nonzero;fill:rgb(74.901961%,74.901961%,74.901961%);fill-opacity:1;" d="M 568.671875 161.15625 L 576 161.15625 C 576.042969 161.15625 576.179688 161.539062 576.277344 161.539062 C 576.480469 161.539062 576.582031 160.644531 576.582031 158.609375 L 576.582031 157.078125 C 576.582031 141.921875 576.300781 125.742188 575.402344 113.515625 C 574.527344 101.542969 573.167969 97.210938 571.828125 97.210938 C 568.085938 97.210938 566.210938 128.929688 566.210938 163.574219 C 566.210938 181.28125 566.671875 198.984375 567.773438 212.105469 C 568.929688 225.480469 570.570312 230.703125 572.167969 230.703125 L 572.300781 230.703125 C 574.085938 230.449219 575.816406 217.964844 576.480469 198.476562 C 576.503906 197.585938 576.558594 196.4375 576.558594 195.292969 C 576.558594 194.144531 576.480469 193.253906 576.378906 193.253906 L 576.246094 193.253906 C 575.816406 193.253906 575.707031 200.769531 575.503906 204.84375 C 574.863281 216.4375 573.761719 223.824219 572.546875 223.824219 C 569.007812 223.824219 568.671875 187.394531 568.671875 161.15625 Z M 568.671875 155.679688 C 568.671875 133.003906 569.3125 103.835938 571.726562 103.835938 C 573.886719 103.835938 574.402344 133.515625 574.402344 155.679688 Z M 568.671875 155.679688 "/>
<path style=" stroke:none;fill-rule:nonzero;fill:rgb(74.901961%,74.901961%,74.901961%);fill-opacity:1;" d="M 594.019531 183.191406 C 594.359375 181.40625 594.378906 180.261719 594.378906 178.859375 C 594.378906 177.585938 594.347656 176.1875 594.019531 174.53125 L 584.378906 124.214844 C 584.152344 123.070312 584.109375 122.8125 584.074219 122.8125 C 583.863281 122.8125 583.738281 124.851562 583.738281 126.507812 C 583.738281 128.929688 583.882812 129.691406 584.109375 130.964844 L 593.28125 178.859375 L 584.097656 226.882812 C 583.738281 228.664062 583.738281 230.066406 583.738281 231.339844 C 583.738281 232.996094 583.863281 234.90625 584.074219 234.90625 C 584.109375 234.90625 584.132812 234.78125 584.378906 233.503906 Z M 594.019531 183.191406 "/>
<path style=" stroke:none;fill-rule:nonzero;fill:rgb(74.901961%,74.901961%,74.901961%);fill-opacity:1;" d="M 617.222656 164.46875 C 617.492188 164.46875 617.753906 164.46875 617.753906 161.027344 C 617.753906 157.332031 617.449219 157.332031 617.144531 157.332031 L 607.1875 157.332031 C 606.886719 157.332031 606.582031 157.332031 606.582031 161.027344 C 606.582031 164.46875 606.851562 164.46875 607.121094 164.46875 Z M 617.144531 200.386719 C 617.449219 200.386719 617.753906 200.386719 617.753906 196.820312 C 617.753906 193.382812 617.492188 193.382812 617.222656 193.382812 L 607.121094 193.382812 C 606.851562 193.382812 606.582031 193.382812 606.582031 196.820312 C 606.582031 200.386719 606.886719 200.386719 607.1875 200.386719 Z M 617.144531 200.386719 "/>
<path style=" stroke:none;fill-rule:nonzero;fill:rgb(74.901961%,74.901961%,74.901961%);fill-opacity:1;" d="M 625.757812 56.707031 L 625.757812 65.113281 C 626.902344 65.113281 628.058594 63.964844 629.160156 59.890625 L 629.160156 216.183594 L 629.117188 219.367188 L 628.859375 220.257812 L 625.878906 220.257812 L 625.878906 229.046875 L 634.835938 229.046875 L 634.835938 220.511719 L 632.09375 220.511719 C 631.8125 220.511719 631.578125 220.003906 631.578125 216.4375 L 631.578125 41.800781 C 631.578125 40.402344 631.578125 38.109375 631.398438 38.109375 C 631.015625 38.109375 630.554688 44.222656 630.140625 46.515625 C 628.800781 54.667969 627.261719 56.707031 625.757812 56.707031 Z M 625.757812 56.707031 "/>
<path style=" stroke:none;fill-rule:nonzero;fill:rgb(74.901961%,74.901961%,74.901961%);fill-opacity:1;" d="M 647.960938 10.976562 C 647.679688 12.125 647.5 20.65625 647.375 24.988281 C 644.320312 111.988281 641.566406 199.878906 638.511719 286.621094 L 638.285156 293.882812 C 638.230469 295.027344 638.183594 296.558594 638.152344 297.957031 C 638.152344 299.742188 638.285156 301.523438 638.429688 301.523438 L 638.488281 301.523438 C 638.667969 301.144531 638.746094 299.488281 638.789062 297.703125 L 639.183594 286.367188 C 642.082031 198.476562 645.0625 111.09375 648.0625 23.585938 L 648.242188 17.984375 C 648.277344 16.835938 648.34375 15.691406 648.34375 14.160156 C 648.34375 12.125 648.195312 10.976562 648.039062 10.976562 Z M 647.960938 10.976562 "/>
<path style=" stroke:none;fill-rule:nonzero;fill:rgb(74.901961%,74.901961%,74.901961%);fill-opacity:1;" d="M 657.414062 248.410156 C 657.976562 248.410156 657.988281 248.15625 658.167969 244.335938 L 667.921875 13.65625 C 668.042969 10.980469 668.042969 10.597656 668.042969 9.960938 C 668.042969 7.796875 667.898438 6.011719 667.683594 6.011719 C 667.449219 6.011719 667.382812 7.796875 667.292969 9.960938 L 658.097656 227.394531 L 654.300781 127.148438 L 651.816406 148.800781 L 652.085938 151.988281 L 653.355469 141.160156 Z M 657.414062 248.410156 "/>
<path style="fill:none;stroke-width:9.99;stroke-linecap:butt;stroke-linejoin:miter;stroke:rgb(74.901961%,74.901961%,74.901961%);stroke-opacity:1;stroke-miterlimit:10;" d="M 9283.527 357.771667 L 9466.505813 357.771667 " transform="matrix(0.0719217,0,0,-0.815217,0.000000000000130825,301.630435)"/>
<path style=" stroke:none;fill-rule:nonzero;fill:rgb(74.901961%,74.901961%,74.901961%);fill-opacity:1;" d="M 669.789062 75.300781 C 670.386719 57.597656 671.800781 46.515625 673.363281 46.515625 C 675.519531 46.515625 676.9375 68.042969 676.9375 91.605469 L 676.9375 94.792969 C 676.777344 121.667969 675.183594 142.8125 673.667969 162.046875 C 672.386719 178.351562 671.082031 194.910156 669.789062 211.214844 L 669.304688 217.328125 C 669.105469 219.75 668.96875 221.40625 668.96875 224.589844 C 668.96875 226.117188 669.003906 227.519531 669.003906 229.046875 L 678.914062 229.046875 L 679.5 172.875 L 678.835938 172.875 C 678.699219 184.210938 678.734375 200.132812 677.757812 200.132812 C 677.117188 201.023438 676.441406 201.40625 675.800781 201.40625 C 675.136719 201.40625 674.496094 201.023438 673.847656 201.023438 L 671.304688 201.023438 C 672.441406 189.179688 673.542969 176.3125 674.722656 164.976562 L 676.261719 150.074219 C 677.859375 134.660156 679.5 117.847656 679.5 91.351562 L 679.5 88.421875 C 679.238281 55.8125 676.757812 38.109375 674.003906 38.109375 C 671.585938 38.109375 669.003906 56.960938 669.003906 88.421875 C 669.003906 98.613281 669.585938 104.089844 670.304688 104.089844 C 670.945312 104.089844 671.621094 98.867188 671.621094 89.570312 C 671.621094 81.160156 671.082031 74.410156 670.328125 74.410156 C 670.148438 74.410156 669.96875 74.792969 669.789062 75.300781 Z M 669.789062 75.300781 "/>
<path style=" stroke:none;fill-rule:nonzero;fill:rgb(74.901961%,74.901961%,74.901961%);fill-opacity:1;" d="M 691.332031 85.109375 C 691.332031 81.417969 691.332031 77.851562 690.972656 77.851562 C 690.621094 77.851562 690.621094 81.417969 690.621094 85.109375 L 690.621094 272.484375 C 690.621094 276.175781 690.621094 279.742188 690.972656 279.742188 C 691.332031 279.742188 691.332031 276.175781 691.332031 272.484375 Z M 691.332031 85.109375 "/>
<path style=" stroke:none;fill-rule:nonzero;fill:rgb(74.901961%,74.901961%,74.901961%);fill-opacity:1;" d="M 701.40625 29.320312 L 701.40625 37.726562 L 702.003906 37.726562 C 702.664062 37.726562 703.238281 38.617188 703.238281 47.917969 L 703.238281 114.023438 C 702.363281 104.089844 701.28125 97.976562 699.96875 97.976562 C 698.304688 97.976562 696.507812 105.617188 695.484375 121.03125 C 694.628906 133.515625 694.328125 149.820312 694.328125 164.976562 C 694.328125 195.800781 695.808594 230.703125 699.6875 230.703125 C 701.082031 230.703125 702.226562 224.078125 703.183594 213.253906 L 703.183594 230.703125 L 707.363281 230.703125 L 707.363281 220.511719 L 706.722656 220.511719 C 706.082031 220.511719 705.542969 219.75 705.542969 210.324219 L 705.542969 27.027344 L 702.800781 28.425781 Z M 696.789062 176.3125 L 696.789062 161.15625 C 696.789062 143.960938 696.890625 124.214844 698.203125 112.625 C 698.789062 107.402344 699.542969 104.726562 700.261719 104.726562 C 701.328125 104.726562 702.261719 110.203125 702.980469 120.394531 C 703.058594 121.921875 703.160156 123.070312 703.183594 124.851562 L 703.183594 198.730469 C 703.183594 200.769531 703.183594 202.554688 703.082031 204.207031 C 702.382812 216.183594 701.226562 224.078125 700.003906 224.078125 C 698.171875 224.078125 697.125 207.773438 696.867188 187.394531 C 696.84375 183.574219 696.84375 180.132812 696.789062 176.3125 Z M 696.789062 176.3125 "/>
<path style=" stroke:none;fill-rule:nonzero;fill:rgb(74.901961%,74.901961%,74.901961%);fill-opacity:1;" d="M 708.9375 100.394531 L 708.9375 108.804688 L 709.445312 108.804688 C 710.09375 108.804688 710.65625 109.695312 710.65625 118.355469 L 710.65625 216.183594 C 710.65625 220.257812 710.421875 220.511719 710.21875 220.511719 L 708.835938 220.511719 L 708.835938 229.046875 L 714.613281 229.046875 L 714.613281 220.511719 L 713.433594 220.511719 C 713.195312 220.511719 712.960938 220.511719 712.960938 216.183594 L 712.960938 97.976562 L 710.296875 99.503906 Z M 711.34375 28.171875 C 710.679688 29.320312 710.140625 35.6875 710.140625 43.839844 C 710.140625 52.375 710.78125 59.890625 711.554688 59.890625 C 712.296875 59.890625 712.960938 52.882812 712.960938 43.839844 C 712.960938 35.433594 712.320312 27.917969 711.554688 27.917969 C 711.476562 27.917969 711.421875 28.171875 711.34375 28.171875 Z M 711.34375 28.171875 "/>
<path style=" stroke:none;fill-rule:nonzero;fill:rgb(74.901961%,74.901961%,74.901961%);fill-opacity:1;" d="M 718.277344 118.355469 C 718.996094 109.441406 719.972656 103.835938 721.074219 103.835938 C 722.851562 103.835938 723.691406 121.03125 723.691406 143.195312 C 723.691406 147.78125 723.671875 152.109375 723.671875 156.570312 C 720.792969 156.570312 716.332031 164.976562 716.332031 201.660156 C 716.332031 223.1875 718.65625 230.703125 720.332031 230.703125 C 721.691406 230.703125 723.46875 221.40625 723.792969 203.0625 L 723.828125 203.0625 C 723.828125 220.003906 724.90625 229.9375 726.1875 229.9375 C 727.289062 229.9375 728.1875 220.894531 728.34375 208.667969 L 728.34375 187.394531 L 727.683594 187.394531 L 727.683594 201.914062 C 727.683594 208.921875 727.570312 219.113281 726.828125 219.113281 C 726.085938 219.113281 726.03125 207.519531 726.03125 201.660156 L 726.03125 137.082031 C 725.804688 107.402344 723.332031 97.210938 721.289062 97.210938 C 719.636719 97.210938 717.230469 107.019531 717.230469 131.222656 C 717.230469 140.011719 717.714844 145.742188 718.457031 145.742188 C 719.152344 145.742188 719.667969 139.628906 719.667969 131.859375 C 719.667969 124.214844 719.152344 118.101562 718.476562 118.101562 C 718.410156 118.101562 718.355469 118.355469 718.277344 118.355469 Z M 723.671875 161.15625 L 723.671875 188.03125 C 723.671875 205.992188 722.671875 223.441406 720.949219 224.078125 L 720.847656 224.078125 C 719.738281 224.078125 718.691406 214.398438 718.691406 201.40625 L 718.691406 200.769531 C 718.691406 172.492188 721.410156 162.683594 723.671875 161.15625 Z M 723.671875 161.15625 "/>
<path style=" stroke:none;fill-rule:nonzero;fill:rgb(74.901961%,74.901961%,74.901961%);fill-opacity:1;" d="M 729.265625 100.394531 L 729.265625 108.804688 L 729.859375 108.804688 C 730.5 108.804688 731.097656 109.695312 731.097656 118.101562 L 731.097656 216.183594 C 731.097656 220.257812 730.859375 220.511719 730.660156 220.511719 L 729.265625 220.511719 L 729.265625 229.046875 L 735.277344 229.046875 L 735.277344 220.511719 L 733.894531 220.511719 C 733.683594 220.511719 733.457031 220.257812 733.457031 216.820312 L 733.457031 172.238281 C 733.457031 167.269531 733.421875 162.046875 733.421875 156.824219 C 733.421875 136.1875 734.140625 104.726562 736.816406 104.726562 C 738.378906 104.726562 738.414062 127.398438 738.414062 137.589844 L 738.414062 216.820312 C 738.414062 220.257812 738.175781 220.511719 737.972656 220.511719 L 736.582031 220.511719 L 736.582031 229.046875 L 742.59375 229.046875 L 742.59375 220.511719 L 741.210938 220.511719 C 741.007812 220.511719 740.773438 220.257812 740.773438 216.820312 L 740.773438 172.238281 C 740.773438 167.269531 740.75 162.046875 740.75 156.824219 C 740.75 136.1875 741.46875 104.726562 744.132812 104.726562 C 745.707031 104.726562 745.730469 127.398438 745.730469 137.589844 L 745.730469 216.820312 C 745.730469 220.257812 745.492188 220.511719 745.289062 220.511719 L 743.90625 220.511719 L 743.90625 229.046875 L 749.910156 229.046875 L 749.910156 220.511719 L 748.527344 220.511719 C 748.371094 220.257812 748.144531 220.511719 748.089844 218.21875 L 748.089844 141.921875 C 748.089844 132.113281 748.066406 121.921875 747.628906 113.515625 C 746.964844 100.90625 745.671875 97.976562 744.492188 97.976562 C 742.953125 97.976562 741.796875 107.910156 741.109375 122.175781 C 740.976562 125.105469 740.828125 128.292969 740.773438 131.859375 L 740.75 131.859375 C 740.59375 108.546875 739.253906 97.976562 737.234375 97.976562 C 735.332031 97.976562 733.78125 113.769531 733.378906 134.40625 L 733.355469 97.976562 L 730.660156 99.503906 Z M 729.265625 100.394531 "/>
<path style=" stroke:none;fill-rule:nonzero;fill:rgb(74.901961%,74.901961%,74.901961%);fill-opacity:1;" d="M 756.585938 97.210938 C 755.484375 98.613281 754.429688 101.289062 753.507812 108.546875 C 751.886719 121.03125 751.167969 143.195312 751.167969 164.722656 C 751.167969 182.171875 751.628906 200.132812 752.730469 212.742188 C 753.84375 225.480469 755.484375 230.703125 757.046875 230.703125 C 760.519531 230.703125 762.855469 202.808594 762.855469 164.722656 C 762.855469 149.308594 762.519531 133.003906 761.644531 120.394531 C 760.519531 103.835938 758.6875 97.210938 756.867188 97.210938 Z M 753.628906 174.273438 L 753.628906 159.117188 C 753.628906 143.960938 753.664062 126 754.6875 114.28125 C 755.304688 107.402344 756.179688 103.835938 757.023438 103.835938 C 759 103.835938 760.101562 120.394531 760.339844 142.558594 C 760.382812 149.820312 760.382812 157.078125 760.382812 164.339844 C 760.382812 179.878906 760.382812 197.585938 759.519531 210.324219 C 758.902344 219.113281 757.980469 223.441406 757.023438 223.441406 C 755.101562 223.441406 753.890625 206.882812 753.6875 183.0625 C 753.664062 180.132812 753.664062 177.203125 753.628906 174.273438 Z M 753.628906 174.273438 "/>
<path style=" stroke:none;fill-rule:nonzero;fill:rgb(74.901961%,74.901961%,74.901961%);fill-opacity:1;" d="M 764.339844 100.394531 L 764.339844 108.804688 L 764.933594 108.804688 C 765.574219 108.804688 766.171875 109.695312 766.171875 118.101562 L 766.171875 216.183594 C 766.171875 220.257812 765.933594 220.511719 765.730469 220.511719 L 764.339844 220.511719 L 764.339844 229.046875 L 770.351562 229.046875 L 770.351562 220.511719 L 768.96875 220.511719 C 768.753906 220.511719 768.53125 220.257812 768.53125 216.820312 L 768.53125 171.726562 C 768.53125 166.757812 768.496094 161.539062 768.496094 156.570312 C 768.496094 135.933594 769.328125 104.726562 771.867188 104.726562 C 773.40625 104.726562 773.453125 126.253906 773.453125 137.589844 L 773.453125 216.820312 C 773.453125 220.257812 773.226562 220.511719 773.023438 220.511719 L 771.632812 220.511719 L 771.632812 229.046875 L 777.644531 229.046875 L 777.644531 220.511719 L 776.261719 220.511719 C 776.105469 220.257812 775.867188 220.511719 775.824219 218.21875 L 775.824219 141.921875 C 775.824219 132.113281 775.789062 121.921875 775.363281 113.515625 C 774.6875 100.652344 773.40625 97.976562 772.195312 97.976562 C 770.351562 97.976562 768.710938 115.171875 768.453125 134.40625 L 768.429688 97.976562 L 765.730469 99.503906 Z M 764.339844 100.394531 "/>
<path style=" stroke:none;fill-rule:nonzero;fill:rgb(74.901961%,74.901961%,74.901961%);fill-opacity:1;" d="M 786.164062 29.320312 L 786.164062 37.726562 L 786.761719 37.726562 C 787.421875 37.726562 787.996094 38.617188 787.996094 47.917969 L 787.996094 114.023438 C 787.121094 104.089844 786.039062 97.976562 784.726562 97.976562 C 783.0625 97.976562 781.265625 105.617188 780.242188 121.03125 C 779.386719 133.515625 779.085938 149.820312 779.085938 164.976562 C 779.085938 195.800781 780.566406 230.703125 784.445312 230.703125 C 785.839844 230.703125 786.984375 224.078125 787.941406 213.253906 L 787.941406 230.703125 L 792.121094 230.703125 L 792.121094 220.511719 L 791.480469 220.511719 C 790.839844 220.511719 790.300781 219.75 790.300781 210.324219 L 790.300781 27.027344 L 787.558594 28.425781 Z M 781.546875 176.3125 L 781.546875 161.15625 C 781.546875 143.960938 781.648438 124.214844 782.960938 112.625 C 783.546875 107.402344 784.300781 104.726562 785.019531 104.726562 C 786.085938 104.726562 787.019531 110.203125 787.738281 120.394531 C 787.816406 121.921875 787.917969 123.070312 787.941406 124.851562 L 787.941406 198.730469 C 787.941406 200.769531 787.941406 202.554688 787.839844 204.207031 C 787.140625 216.183594 785.984375 224.078125 784.757812 224.078125 C 782.929688 224.078125 781.882812 207.773438 781.625 187.394531 C 781.601562 183.574219 781.601562 180.132812 781.546875 176.3125 Z M 781.546875 176.3125 "/>
<path style=" stroke:none;fill-rule:nonzero;fill:rgb(74.901961%,74.901961%,74.901961%);fill-opacity:1;" d="M 809.558594 183.191406 C 809.894531 181.40625 809.917969 180.261719 809.917969 178.859375 C 809.917969 177.585938 809.882812 176.1875 809.558594 174.53125 L 799.914062 124.214844 C 799.691406 123.070312 799.644531 122.8125 799.613281 122.8125 C 799.398438 122.8125 799.273438 124.851562 799.273438 126.507812 C 799.273438 128.929688 799.421875 129.691406 799.644531 130.964844 L 808.816406 178.859375 L 799.632812 226.882812 C 799.273438 228.664062 799.273438 230.066406 799.273438 231.339844 C 799.273438 232.996094 799.398438 234.90625 799.613281 234.90625 C 799.644531 234.90625 799.667969 234.78125 799.914062 233.503906 Z M 809.558594 183.191406 "/>
<path style=" stroke:none;fill-rule:nonzero;fill:rgb(74.901961%,74.901961%,74.901961%);fill-opacity:1;" d="M 832.042969 182.808594 C 832.347656 182.808594 832.671875 182.808594 832.671875 178.859375 C 832.671875 174.785156 832.347656 174.785156 832.042969 174.785156 L 822.402344 174.785156 C 822.097656 174.785156 821.785156 174.785156 821.785156 178.859375 C 821.785156 182.808594 822.097656 182.808594 822.402344 182.808594 Z M 832.042969 182.808594 "/>
<path style=" stroke:none;fill-rule:nonzero;fill:rgb(74.901961%,74.901961%,74.901961%);fill-opacity:1;" d="M 840.339844 56.707031 L 840.339844 65.113281 C 841.488281 65.113281 842.644531 63.964844 843.746094 59.890625 L 843.746094 216.183594 L 843.703125 219.367188 L 843.441406 220.257812 L 840.464844 220.257812 L 840.464844 229.046875 L 849.421875 229.046875 L 849.421875 220.511719 L 846.679688 220.511719 C 846.398438 220.511719 846.164062 220.003906 846.164062 216.4375 L 846.164062 41.800781 C 846.164062 40.402344 846.164062 38.109375 845.984375 38.109375 C 845.601562 38.109375 845.140625 44.222656 844.722656 46.515625 C 843.386719 54.667969 841.847656 56.707031 840.339844 56.707031 Z M 840.339844 56.707031 "/>
<path style=" stroke:none;fill-rule:nonzero;fill:rgb(74.901961%,74.901961%,74.901961%);fill-opacity:1;" d="M 862.546875 10.976562 C 862.265625 12.125 862.085938 20.65625 861.960938 24.988281 C 858.90625 111.988281 856.152344 199.878906 853.09375 286.621094 L 852.871094 293.882812 C 852.8125 295.027344 852.769531 296.558594 852.734375 297.957031 C 852.734375 299.742188 852.871094 301.523438 853.015625 301.523438 L 853.070312 301.523438 C 853.253906 301.144531 853.332031 299.488281 853.375 297.703125 L 853.769531 286.367188 C 856.667969 198.476562 859.644531 111.09375 862.648438 23.585938 L 862.828125 17.984375 C 862.859375 16.835938 862.929688 15.691406 862.929688 14.160156 C 862.929688 12.125 862.78125 10.976562 862.625 10.976562 Z M 862.546875 10.976562 "/>
<path style=" stroke:none;fill-rule:nonzero;fill:rgb(74.901961%,74.901961%,74.901961%);fill-opacity:1;" d="M 871.996094 248.410156 C 872.558594 248.410156 872.570312 248.15625 872.75 244.335938 L 882.503906 13.65625 C 882.628906 10.980469 882.628906 10.597656 882.628906 9.960938 C 882.628906 7.796875 882.484375 6.011719 882.269531 6.011719 C 882.035156 6.011719 881.964844 7.796875 881.875 9.960938 L 872.683594 227.394531 L 868.886719 127.148438 L 866.402344 148.800781 L 866.671875 151.988281 L 867.941406 141.160156 Z M 871.996094 248.410156 "/>
<path style="fill:none;stroke-width:9.99;stroke-linecap:butt;stroke-linejoin:miter;stroke:rgb(74.901961%,74.901961%,74.901961%);stroke-opacity:1;stroke-miterlimit:10;" d="M 12267.129875 357.771667 L 12450.108688 357.771667 " transform="matrix(0.0719217,0,0,-0.815217,0.000000000000130825,301.630435)"/>
<path style=" stroke:none;fill-rule:nonzero;fill:rgb(74.901961%,74.901961%,74.901961%);fill-opacity:1;" d="M 884.371094 75.300781 C 884.96875 57.597656 886.382812 46.515625 887.945312 46.515625 C 890.105469 46.515625 891.519531 68.042969 891.519531 91.605469 L 891.519531 94.792969 C 891.363281 121.667969 889.765625 142.8125 888.25 162.046875 C 886.96875 178.351562 885.664062 194.910156 884.371094 211.214844 L 883.890625 217.328125 C 883.6875 219.75 883.550781 221.40625 883.550781 224.589844 C 883.550781 226.117188 883.585938 227.519531 883.585938 229.046875 L 893.496094 229.046875 L 894.082031 172.875 L 893.417969 172.875 C 893.285156 184.210938 893.316406 200.132812 892.339844 200.132812 C 891.699219 201.023438 891.027344 201.40625 890.386719 201.40625 C 889.722656 201.40625 889.082031 201.023438 888.429688 201.023438 L 885.890625 201.023438 C 887.023438 189.179688 888.125 176.3125 889.304688 164.976562 L 890.847656 150.074219 C 892.441406 134.660156 894.082031 117.847656 894.082031 91.351562 L 894.082031 88.421875 C 893.824219 55.8125 891.339844 38.109375 888.585938 38.109375 C 886.171875 38.109375 883.585938 56.960938 883.585938 88.421875 C 883.585938 98.613281 884.171875 104.089844 884.890625 104.089844 C 885.53125 104.089844 886.203125 98.867188 886.203125 89.570312 C 886.203125 81.160156 885.664062 74.410156 884.914062 74.410156 C 884.730469 74.410156 884.550781 74.792969 884.371094 75.300781 Z M 884.371094 75.300781 "/>
<path style=" stroke:none;fill-rule:nonzero;fill:rgb(74.901961%,74.901961%,74.901961%);fill-opacity:1;" d="M 905.914062 85.109375 C 905.914062 81.417969 905.914062 77.851562 905.554688 77.851562 C 905.207031 77.851562 905.207031 81.417969 905.207031 85.109375 L 905.207031 272.484375 C 905.207031 276.175781 905.207031 279.742188 905.554688 279.742188 C 905.914062 279.742188 905.914062 276.175781 905.914062 272.484375 Z M 905.914062 85.109375 "/>
<path style=" stroke:none;fill-rule:nonzero;fill:rgb(74.901961%,74.901961%,74.901961%);fill-opacity:1;" d="M 912.628906 97.210938 C 910.808594 99.25 908.910156 107.019531 908.910156 133.894531 C 908.910156 159.753906 911.113281 169.050781 913.046875 172.875 C 914.125 175.167969 916.070312 178.988281 916.070312 199.367188 C 916.070312 217.328125 914.6875 224.078125 913.292969 224.078125 C 911.527344 224.078125 910.011719 210.960938 909.628906 184.210938 C 909.550781 181.28125 909.527344 180.644531 909.214844 180.644531 C 908.933594 180.644531 908.910156 181.535156 908.910156 183.574219 L 908.910156 227.902344 C 908.910156 229.046875 908.933594 230.449219 909.035156 230.449219 L 909.089844 230.449219 C 909.417969 230.449219 910.011719 219.113281 910.292969 218.21875 L 910.316406 218.21875 C 910.527344 218.21875 911.113281 225.480469 911.675781 227.902344 C 912.191406 229.9375 912.730469 230.703125 913.269531 230.703125 C 915.484375 230.703125 917.507812 219.113281 917.507812 190.578125 C 917.507812 170.199219 916.203125 154.148438 914.449219 149.5625 C 912.933594 145.234375 910.347656 144.851562 910.347656 124.214844 C 910.347656 106.765625 912.011719 103.582031 913.046875 103.582031 C 914.6875 103.582031 915.808594 111.476562 916.171875 135.296875 C 916.171875 137.589844 916.226562 139.375 916.484375 139.375 C 916.6875 139.375 916.84375 138.738281 916.84375 136.445312 L 916.84375 100.015625 C 916.84375 98.613281 916.8125 97.464844 916.664062 97.464844 C 916.328125 97.464844 915.910156 105.363281 915.664062 105.363281 C 915.484375 105.363281 915.023438 101.542969 914.710938 100.015625 C 914.167969 97.976562 913.609375 96.828125 913.046875 96.828125 C 912.910156 96.828125 912.753906 97.210938 912.628906 97.210938 Z M 912.628906 97.210938 "/>
<path style=" stroke:none;fill-rule:nonzero;fill:rgb(74.901961%,74.901961%,74.901961%);fill-opacity:1;" d="M 928.140625 211.597656 L 928.140625 271.847656 L 928.0625 276.175781 L 927.578125 277.070312 L 926.320312 277.070312 L 926.320312 285.476562 L 932.320312 285.476562 L 932.320312 277.070312 L 930.996094 277.070312 C 930.78125 276.433594 930.5 277.324219 930.5 273.246094 L 930.5 97.976562 L 929.917969 98.613281 L 928.476562 124.851562 C 927.726562 109.695312 926.578125 97.976562 924.902344 97.976562 C 921.925781 97.976562 919.285156 121.03125 919.285156 164.976562 C 919.285156 198.476562 921.050781 230.703125 924.679688 230.703125 C 926.085938 230.703125 927.242188 223.441406 928.140625 211.597656 Z M 921.746094 170.453125 L 921.746094 166.757812 C 921.746094 143.449219 922.363281 104.980469 925.265625 104.980469 C 926.859375 104.980469 928.21875 124.214844 928.21875 141.15625 C 928.21875 144.597656 928.195312 148.035156 928.195312 151.601562 L 928.195312 195.800781 C 928.195312 198.984375 928.085938 200.769531 927.960938 203.445312 C 927.34375 214.78125 926.242188 224.078125 925.0625 224.078125 C 923.082031 224.078125 922.128906 201.914062 921.847656 182.683594 C 921.800781 178.605469 921.800781 174.53125 921.746094 170.453125 Z M 921.746094 170.453125 "/>
<path style=" stroke:none;fill-rule:nonzero;fill:rgb(74.901961%,74.901961%,74.901961%);fill-opacity:1;" d="M 933.042969 100.394531 L 933.042969 108.804688 L 933.683594 108.804688 C 934.199219 108.804688 934.816406 109.441406 934.875 116.0625 L 934.875 191.214844 C 934.875 199.878906 934.917969 208.285156 935.335938 215.925781 C 936.019531 228.410156 937.617188 231.085938 938.75 231.085938 C 940.179688 231.085938 941.730469 222.296875 942.191406 201.660156 L 942.210938 230.703125 L 946.347656 230.703125 L 946.347656 220.511719 L 945.753906 220.511719 C 945.113281 220.511719 944.527344 219.75 944.527344 210.960938 L 944.527344 97.976562 L 940.335938 100.394531 L 940.335938 108.804688 L 940.875 108.804688 C 941.570312 108.804688 942.15625 109.695312 942.15625 118.355469 L 942.15625 185.613281 C 942.011719 203.445312 941.15625 224.078125 939.234375 224.078125 C 938.277344 224.078125 937.378906 223.1875 937.257812 205.738281 C 937.234375 199.625 937.234375 193.765625 937.234375 187.648438 L 937.234375 97.976562 L 934.457031 99.503906 Z M 933.042969 100.394531 "/>
<path style=" stroke:none;fill-rule:nonzero;fill:rgb(74.901961%,74.901961%,74.901961%);fill-opacity:1;" d="M 949.8125 118.355469 C 950.53125 109.441406 951.507812 103.835938 952.609375 103.835938 C 954.386719 103.835938 955.226562 121.03125 955.226562 143.195312 C 955.226562 147.78125 955.207031 152.109375 955.207031 156.570312 C 952.328125 156.570312 947.867188 164.976562 947.867188 201.660156 C 947.867188 223.1875 950.191406 230.703125 951.867188 230.703125 C 953.226562 230.703125 955.003906 221.40625 955.328125 203.0625 L 955.363281 203.0625 C 955.363281 220.003906 956.441406 229.9375 957.722656 229.9375 C 958.824219 229.9375 959.722656 220.894531 959.878906 208.667969 L 959.878906 187.394531 L 959.21875 187.394531 L 959.21875 201.914062 C 959.21875 208.921875 959.105469 219.113281 958.363281 219.113281 C 957.621094 219.113281 957.566406 207.519531 957.566406 201.660156 L 957.566406 137.082031 C 957.339844 107.402344 954.867188 97.210938 952.824219 97.210938 C 951.171875 97.210938 948.765625 107.019531 948.765625 131.222656 C 948.765625 140.011719 949.25 145.742188 949.992188 145.742188 C 950.6875 145.742188 951.203125 139.628906 951.203125 131.859375 C 951.203125 124.214844 950.6875 118.101562 950.011719 118.101562 C 949.945312 118.101562 949.890625 118.355469 949.8125 118.355469 Z M 955.207031 161.15625 L 955.207031 188.03125 C 955.207031 205.992188 954.207031 223.441406 952.484375 224.078125 L 952.382812 224.078125 C 951.273438 224.078125 950.226562 214.398438 950.226562 201.40625 L 950.226562 200.769531 C 950.226562 172.492188 952.945312 162.683594 955.207031 161.15625 Z M 955.207031 161.15625 "/>
<path style=" stroke:none;fill-rule:nonzero;fill:rgb(74.901961%,74.901961%,74.901961%);fill-opacity:1;" d="M 960.722656 100.394531 L 960.722656 108.804688 L 961.316406 108.804688 C 961.957031 108.804688 962.554688 109.695312 962.554688 118.101562 L 962.554688 216.183594 C 962.554688 220.257812 962.316406 220.511719 962.117188 220.511719 L 960.722656 220.511719 L 960.722656 229.046875 L 967.117188 229.046875 L 967.117188 220.511719 L 965.351562 220.511719 C 965.09375 220.511719 964.855469 220.511719 964.855469 216.820312 L 964.855469 187.648438 C 964.855469 181.027344 964.835938 174.019531 964.835938 167.269531 C 964.835938 143.195312 965.171875 104.726562 967.710938 104.726562 C 967.8125 104.726562 967.9375 104.980469 968.046875 104.980469 L 968.046875 105.363281 C 967.589844 107.402344 967.351562 112.625 967.351562 117.847656 C 967.351562 125.363281 967.867188 131.476562 968.53125 131.476562 C 969.328125 131.476562 969.769531 124.851562 969.769531 117.847656 C 969.769531 105.363281 968.6875 97.976562 967.710938 97.976562 C 965.992188 97.976562 964.9375 117.59375 964.777344 134.660156 L 964.757812 97.976562 L 962.09375 99.503906 Z M 960.722656 100.394531 "/>
<path style=" stroke:none;fill-rule:nonzero;fill:rgb(74.901961%,74.901961%,74.901961%);fill-opacity:1;" d="M 973.691406 161.15625 L 981.015625 161.15625 C 981.0625 161.15625 981.195312 161.539062 981.296875 161.539062 C 981.5 161.539062 981.601562 160.644531 981.601562 158.609375 L 981.601562 157.078125 C 981.601562 141.921875 981.320312 125.742188 980.421875 113.515625 C 979.546875 101.542969 978.183594 97.210938 976.847656 97.210938 C 973.105469 97.210938 971.230469 128.929688 971.230469 163.574219 C 971.230469 181.28125 971.691406 198.984375 972.792969 212.105469 C 973.949219 225.480469 975.589844 230.703125 977.183594 230.703125 L 977.320312 230.703125 C 979.105469 230.449219 980.835938 217.964844 981.5 198.476562 C 981.523438 197.585938 981.578125 196.4375 981.578125 195.292969 C 981.578125 194.144531 981.5 193.253906 981.398438 193.253906 L 981.265625 193.253906 C 980.835938 193.253906 980.726562 200.769531 980.523438 204.84375 C 979.882812 216.4375 978.78125 223.824219 977.566406 223.824219 C 974.027344 223.824219 973.691406 187.394531 973.691406 161.15625 Z M 973.691406 155.679688 C 973.691406 133.003906 974.332031 103.835938 976.746094 103.835938 C 978.90625 103.835938 979.421875 133.515625 979.421875 155.679688 Z M 973.691406 155.679688 "/>
<path style=" stroke:none;fill-rule:nonzero;fill:rgb(74.901961%,74.901961%,74.901961%);fill-opacity:1;" d="M 999.058594 183.191406 C 999.394531 181.40625 999.417969 180.261719 999.417969 178.859375 C 999.417969 177.585938 999.382812 176.1875 999.058594 174.53125 L 989.417969 124.214844 C 989.191406 123.070312 989.144531 122.8125 989.113281 122.8125 C 988.898438 122.8125 988.777344 124.851562 988.777344 126.507812 C 988.777344 128.929688 988.921875 129.691406 989.144531 130.964844 L 998.316406 178.859375 L 989.136719 226.882812 C 988.777344 228.664062 988.777344 230.066406 988.777344 231.339844 C 988.777344 232.996094 988.898438 234.90625 989.113281 234.90625 C 989.144531 234.90625 989.167969 234.78125 989.417969 233.503906 Z M 999.058594 183.191406 "/>
</g>
</svg>
