<?xml version="1.0" encoding="UTF-8"?>
<svg xmlns="http://www.w3.org/2000/svg" xmlns:xlink="http://www.w3.org/1999/xlink" width="200px" height="500px" viewBox="0 0 200 500" version="1.1">
<g id="surface1">
<path style=" stroke:none;fill-rule:nonzero;fill:rgb(74.901961%,74.901961%,74.901961%);fill-opacity:1;" d="M 77.039062 20.515625 C 78.097656 13.355469 78.097656 12.378906 78.097656 10.75 C 78.097656 7.167969 77.28125 0.332031 75.492188 0.332031 C 73.945312 0.332031 73.539062 3.589844 72.644531 10.75 L 14.703125 461.597656 C 13.644531 468.757812 13.644531 469.734375 13.644531 471.363281 C 13.644531 475.59375 14.621094 481.777344 16.246094 481.777344 C 17.792969 481.777344 18.199219 478.523438 19.097656 471.363281 Z M 77.039062 20.515625 "/>
<path style=" stroke:none;fill-rule:nonzero;fill:rgb(74.901961%,74.901961%,74.901961%);fill-opacity:1;" d="M 78.746094 204.433594 C 80.699219 204.433594 82.574219 204.433594 82.574219 195.644531 C 82.574219 186.207031 80.375 186.207031 78.179688 186.207031 L 6.074219 186.207031 C 3.878906 186.207031 1.679688 186.207031 1.679688 195.644531 C 1.679688 204.433594 3.632812 204.433594 5.585938 204.433594 Z M 78.179688 296.230469 C 80.375 296.230469 82.574219 296.230469 82.574219 287.117188 C 82.574219 278.328125 80.699219 278.328125 78.746094 278.328125 L 5.585938 278.328125 C 3.632812 278.328125 1.679688 278.328125 1.679688 287.117188 C 1.679688 296.230469 3.878906 296.230469 6.074219 296.230469 Z M 78.179688 296.230469 "/>
<path style=" stroke:none;fill-rule:nonzero;fill:rgb(74.901961%,74.901961%,74.901961%);fill-opacity:1;" d="M 164.382812 48.511719 C 161.125 11.726562 150.953125 11.726562 149.328125 11.726562 C 148.511719 11.726562 147.128906 11.726562 147.128906 16.933594 C 147.128906 21.167969 147.863281 21.492188 148.511719 22.144531 C 150.464844 23.121094 152.011719 24.097656 154.046875 39.070312 C 155.347656 49.160156 168.613281 203.457031 168.613281 204.433594 C 168.613281 204.761719 168.53125 205.410156 167.472656 209.644531 L 133.945312 345.386719 C 132.398438 351.570312 131.339844 355.800781 131.339844 362.3125 C 131.339844 369.472656 132.886719 375.660156 134.921875 375.660156 C 135.492188 375.660156 136.875 374.683594 137.6875 371.753906 C 139.722656 363.941406 158.195312 273.445312 169.914062 217.78125 C 173.332031 258.144531 177.402344 305.671875 181.390625 348.964844 C 182.042969 356.777344 182.691406 363.941406 184.484375 370.777344 C 185.785156 375.332031 186.109375 375.332031 189.691406 375.332031 L 192.132812 375.332031 C 192.621094 375.332031 193.597656 375.332031 193.597656 371.101562 C 193.597656 369.148438 193.433594 368.496094 192.945312 366.542969 C 191.726562 360.683594 190.832031 351.570312 190.34375 345.386719 Z M 164.382812 48.511719 "/>
</g>
</svg>
